<?xml version="1.0" encoding="utf-8"?>
<!-- Generator: Adobe Illustrator 19.1.0, SVG Export Plug-In . SVG Version: 6.00 Build 0)  -->
<svg version="1.1" xmlns="http://www.w3.org/2000/svg" xmlns:xlink="http://www.w3.org/1999/xlink" x="0px" y="0px" width="288px"
	 height="288px" viewBox="0 0 288 288" enable-background="new 0 0 288 288" xml:space="preserve">
<g id="bck">
	<path opacity="0.39" fill="#FFFFFF" d="M200.9,91.9C172.3,56.6,153.7,70.4,101,111c-53.7,41.4,128,90,124.6,41
		C219.6,121.7,214,108,200.9,91.9z"/>
</g>
<g id="body">
	<path fill="#825C2D" d="M225.6,130.7L225.6,130.7c0,2.3-0.8,4.4-2.7,4.4c-2.8,0-5.5-3.4-5.7-3.7c0,0,0,0,0,0l-3.8,2
		c2,0,3.7,0.5,3.8,2.3c0.1,1.4-0.1,2.6-0.6,3.6c0,0,0,0,0,0c-1,1.9-2.8,2.8-4.2,3.1c-2.1,0.4-2.5-2.9-2.5-2.9l-15.1,5.8c0,0,0,0,0,0
		c-14.4,7.8-33.1,14.2-51.3,9.9c-17.5-4.2-24.4-14.5-24.5-29.3v0c0-5.6,0.9-12,2.7-18.8c1.2-4.6,2.7-9.5,4.5-14.7c0,0,0,0,0-0.1
		c0,0,0,0,0,0c0,0,0,0,0,0c1.5-4.2,3.1-8.5,4.9-12.9c0.5-1.2,1-2.4,1.5-3.6c6.9,1.3,14.3,4.9,20.3,8.5c5.6,3.3,10,6.6,11.6,7.8
		c-0.1,0-0.1,0-0.2,0.1c-4.9,1.8-10.6,5.7-9.6,13.9c1.7,13.8,16.2,19.2,24.9,19.8c4.9,0.3,14.8-4.3,19.1-11.3
		c0.2,0.2,0.4,0.5,0.7,0.7c4,4,10,7.1,14.6,9.2c1.8,0.8,3.4,1.4,4.6,1.8c2.7-0.5,5.3-0.5,6,0.8C225.3,127.9,225.6,129.3,225.6,130.7
		z"/>
	<path fill="#704815" d="M225.6,130.7C225.6,130.7,225.6,130.7,225.6,130.7c0,2.3-0.8,4.4-2.7,4.4c-2.8,0-5.5-3.4-5.7-3.7
		c0,0,0,0,0,0l-11.2,5.7c6.7-5,11.6-6.4,11.6-6.4C223.9,136.5,225.6,130.7,225.6,130.7C225.6,130.7,225.6,130.7,225.6,130.7z"/>
	<path fill="#704815" d="M194.8,145.2c-14.4,7.8-33.1,14.2-51.3,9.9c-17.5-4.2-24.4-14.5-24.5-29.3v0c0-5.6,0.9-12,2.7-18.8
		c1.2-4.6,2.7-9.5,4.5-14.7c0,0,0,0,0-0.1c0,0,0,0,0,0c0,0,0,0,0,0c1.5-4.2,3.1-8.5,4.9-12.9c-4.3,14-10.3,37.5-6.6,51.4
		c5.5,20.9,23.7,23.3,42.5,21.1C185.2,149.6,194.3,145.4,194.8,145.2z"/>
</g>
<g id="tail">
	<path fill="#825C2D" d="M143.2,165.3c-0.4,1-1.6,1.5-3.3,1.7c-8.1,0.9-28-6.9-33.3-20.1c-10.9-26.9,1.4-45.6,13.5-58.7
		c0.3-0.3,0.6-0.7,0.9-1c4.3-4.6,8.6-8.5,11.6-11.7c-0.2,0.2,1,1.6-0.2,4c-6.1,11.6-23.7,44.7-15.6,61c5.7,11.4,12.8,17.8,18.7,21.3
		C138.5,163.7,141.1,164.8,143.2,165.3z"/>
	<path fill="#704815" d="M139.9,167.1c-8.1,0.9-28-6.9-33.3-20.1c-10.9-26.9,1.4-45.6,13.5-58.7c-6.4,9.5-12.7,22-13.8,34.9
		C104.1,147.2,124.5,162.4,139.9,167.1z"/>
</g>
<g id="head">
	<path fill="#704815" d="M164.5,91.9c0,0-17.4,3-12.7,17.3s21.4,18.2,28.2,18.4c6.9,0.2,20.3-2.1,18.7-13.2S164.5,91.9,164.5,91.9z"
		/>
	
		<radialGradient id="SVGID_1_" cx="177.7672" cy="103.242" r="25.9634" fx="153.9607" fy="113.6027" gradientTransform="matrix(1 0 0 1.2053 0 -21.1934)" gradientUnits="userSpaceOnUse">
		<stop  offset="0.4232" style="stop-color:#976225"/>
		<stop  offset="1" style="stop-color:#704815"/>
	</radialGradient>
	<path fill="url(#SVGID_1_)" d="M198.8,114.4c-4.3,7-14.2,11.6-19.1,11.3c-8.6-0.6-23.2-6-24.9-19.8c-1-8.2,4.7-12.1,9.6-13.9
		c0.1,0,0.1,0,0.2-0.1c3.3-1.2,6.1-1.5,6.1-1.5l-4.5-7.4c9.6,0,15.5,8.2,15.5,8.2s-0.6-1.6-2-10.4c13.3,3.7,14.9,14.7,14.9,14.7
		C202.2,102.5,202.1,109.1,198.8,114.4z"/>
	<path fill="#231F20" d="M173.8,100.8c0,0-1,8.2,6.3,1.4C180,102.2,174.1,106.9,173.8,100.8z"/>
	<path fill="#231F20" d="M162.1,96.7c0,0-1,8.2,6.3,1.4C168.4,98.1,162.5,102.8,162.1,96.7z"/>
	<path fill="#231F20" d="M165.2,104.9c0,0-6.3-1.2-4.6,0C162.4,106.1,165.2,104.9,165.2,104.9z"/>
	<path fill="#231F20" d="M162.8,104.9c0,0-4.4,5.9,2.4,6.1C165.2,111,160.2,110.1,162.8,104.9z"/>
	<path fill="#825C2D" d="M198.8,114.4c-4.3,7-14.2,11.6-19.1,11.3c-8.6-0.6-23.2-6-24.9-19.8c-1-8.2,4.7-12.1,9.6-13.9
		c0.1,0,0.1,0,0.2-0.1c3.3-1.2,6.1-1.5,6.1-1.5l-4.5-7.4c9.6,0,15.5,8.2,15.5,8.2s-0.6-1.6-2-10.4c13.3,3.7,14.9,14.7,14.9,14.7
		C202.2,102.5,202.1,109.1,198.8,114.4z"/>
	<path fill="#231F20" d="M173.8,100.8c0,0-1,8.2,6.3,1.4C180,102.2,174.1,106.9,173.8,100.8z"/>
	<path fill="#231F20" d="M162.1,96.7c0,0-1,8.2,6.3,1.4C168.4,98.1,162.5,102.8,162.1,96.7z"/>
	<path fill="#231F20" d="M165.2,104.9c0,0-6.3-1.2-4.6,0C162.4,106.1,165.2,104.9,165.2,104.9z"/>
	<path fill="#231F20" d="M162.8,104.9c0,0-4.4,5.9,2.4,6.1C165.2,111,160.2,110.1,162.8,104.9z"/>
	<g>
	</g>
	<g>
	</g>
	<g>
	</g>
	<g>
	</g>
	<g>
	</g>
	<g>
	</g>
</g>
</svg>
