<?xml version="1.0" encoding="utf-8"?>
<!-- Generator: Adobe Illustrator 19.1.0, SVG Export Plug-In . SVG Version: 6.00 Build 0)  -->
<svg version="1.1" xmlns="http://www.w3.org/2000/svg" xmlns:xlink="http://www.w3.org/1999/xlink" x="0px" y="0px" width="155.4px"
	 height="141.2px" viewBox="0 0 155.4 141.2" enable-background="new 0 0 155.4 141.2" xml:space="preserve">
<g id="cat-body">
	<path fill="#825C2D" d="M141.2,104.7L141.2,104.7c0,2.3-0.8,4.4-2.7,4.4c-2.8,0-5.5-3.4-5.7-3.7c0,0,0,0,0,0l-3.8,2
		c2,0,3.7,0.5,3.8,2.3c0.1,1.4-0.1,2.6-0.6,3.6c0,0,0,0,0,0c-1,1.9-2.8,2.8-4.2,3.1c-2.1,0.4-2.5-2.9-2.5-2.9l-15.1,5.8c0,0,0,0,0,0
		c-14.4,7.8-33.1,14.2-51.3,9.9c-17.5-4.2-24.4-14.5-24.5-29.3v0c0-5.6,0.9-12,2.7-18.8c1.2-4.6,2.7-9.5,4.5-14.7c0,0,0,0,0-0.1
		c0,0,0,0,0,0c0,0,0,0,0,0c1.5-4.2,3.1-8.5,4.9-12.9c0.5-1.2,1-2.4,1.5-3.6c6.9,1.3,14.3,4.9,20.3,8.5c5.6,3.3,10,6.6,11.6,7.8
		c-0.1,0-0.1,0-0.2,0.1c-4.9,1.8-10.6,5.7-9.6,13.9c1.7,13.8,16.2,19.2,24.9,19.8c4.9,0.3,14.8-4.3,19.1-11.3
		c0.2,0.2,0.4,0.5,0.7,0.7c4,4,10,7.1,14.6,9.2c1.8,0.8,3.4,1.4,4.6,1.8c2.7-0.5,5.3-0.5,6,0.8C140.9,102,141.2,103.4,141.2,104.7z"
		/>
	<path fill="#704815" d="M141.2,104.7C141.2,104.7,141.2,104.7,141.2,104.7c0,2.3-0.8,4.4-2.7,4.4c-2.8,0-5.5-3.4-5.7-3.7
		c0,0,0,0,0,0l-11.2,5.7c6.7-5,11.6-6.4,11.6-6.4C139.5,110.6,141.2,104.7,141.2,104.7C141.2,104.7,141.2,104.7,141.2,104.7z"/>
	<path fill="#704815" d="M110.5,119.2c-14.4,7.8-33.1,14.2-51.3,9.9c-17.5-4.2-24.4-14.5-24.5-29.3v0c0-5.6,0.9-12,2.7-18.8
		c1.2-4.6,2.7-9.5,4.5-14.7c0,0,0,0,0-0.1c0,0,0,0,0,0c0,0,0,0,0,0c1.5-4.2,3.1-8.5,4.9-12.9c-4.3,14-10.3,37.5-6.6,51.4
		c5.5,20.9,23.7,23.3,42.5,21.1C100.9,123.7,109.9,119.5,110.5,119.2z"/>
</g>
<g id="cat-tail">
	<path fill="#825C2D" d="M58.9,139.4c-0.4,1-1.6,1.5-3.3,1.7c-8.1,0.9-28-6.9-33.3-20.1c-10.9-26.9,1.4-45.6,13.5-58.7
		c0.3-0.3,0.6-0.7,0.9-1c4.3-4.6,8.6-8.5,11.6-11.7c-0.2,0.2,1,1.6-0.2,4c-6.1,11.6-23.7,44.7-15.6,61c5.7,11.4,12.8,17.8,18.7,21.3
		C54.1,137.8,56.8,138.8,58.9,139.4z"/>
	<path fill="#704815" d="M55.6,141.1c-8.1,0.9-28-6.9-33.3-20.1c-10.9-26.9,1.4-45.6,13.5-58.7c-6.4,9.5-12.7,22-13.8,34.9
		C19.7,121.3,40.1,136.5,55.6,141.1z"/>
</g>
<g id="cat-text">
	<g>
		<rect x="26.6" y="1.8" fill="none" width="103.6" height="97.9"/>
		<path fill="#F9C53D" d="M35,27.4c-1.3,0-2.4-0.2-3.3-0.6c-0.9-0.4-1.6-1-2.2-1.7c-0.5-0.7-0.9-1.6-1.2-2.6c-0.2-1-0.4-2.2-0.4-3.5
			V9.8c0-1.3,0.1-2.5,0.4-3.5s0.6-1.9,1.2-2.6s1.3-1.3,2.2-1.7c0.9-0.4,2-0.6,3.3-0.6c2.5,0,4.3,0.7,5.4,2.1S42,7.1,42,9.8V19
			c0,1.3-0.1,2.5-0.4,3.5c-0.3,1-0.6,1.9-1.2,2.6c-0.5,0.8-1.3,1.3-2.2,1.7C37.3,27.2,36.2,27.4,35,27.4z M32.3,23.3
			c0.5,0.8,1.4,1.1,2.6,1.1s2.2-0.4,2.6-1.1c0.5-0.8,0.7-1.9,0.7-3.4v-11c0-1.5-0.2-2.6-0.7-3.3c-0.5-0.7-1.4-1.1-2.6-1.1
			s-2.2,0.4-2.6,1.1c-0.5,0.7-0.7,1.8-0.7,3.3v11C31.6,21.4,31.8,22.6,32.3,23.3z"/>
		<path fill="#F9C53D" d="M47.8,27.2V5h-4.5V1.8H56V5h-4.5v22.1H47.8z"/>
		<path fill="#F9C53D" d="M57.8,27.2V1.8h3.6v10.9h6.3V1.8h3.6v25.4h-3.6V15.4h-6.3v11.8H57.8z"/>
		<path fill="#F9C53D" d="M75,27.2V1.8h10v2.7h-6.3v8.2h4.5v2.7h-4.5v9.1H85v2.7H75z"/>
		<path fill="#F9C53D" d="M87.2,27.2V1.8h4.5c2.7,0,4.7,0.5,6.1,1.6c1.4,1,2.1,2.8,2.1,5.2c0,1.5-0.3,2.8-0.8,3.8s-1.3,1.7-2.4,2.1
			l4.1,12.7h-3.6l-3.7-11.8h-2.7v11.8H87.2z M90.8,12.7h0.9c1.5,0,2.6-0.3,3.4-1c0.8-0.6,1.1-1.7,1.1-3.1s-0.4-2.5-1.1-3.1
			c-0.8-0.6-1.9-1-3.4-1h-0.9V12.7z"/>
		<path fill="#F9C53D" d="M26.8,49.2l3.9-18.4h2.6l3.9,18.4h-2.6l-1-4.6h-3.3l-1,4.6H26.8z M30.7,42.6h2.6L32,34.8L30.7,42.6z"/>
		<path fill="#F9C53D" d="M38.8,49.2V30.8h2l4.6,11.4V30.8h2.6v18.4h-1.9L41.4,37v12.2H38.8z"/>
		<path fill="#F9C53D" d="M50.7,49.2V30.8h2.6v18.4H50.7z"/>
		<path fill="#F9C53D" d="M56.1,49.2V30.8h3.6l2.6,14.1L65,30.8h3.6v18.4H66V34.7l-2.6,14.5h-2l-2.6-14.5v14.5H56.1z"/>
		<path fill="#F9C53D" d="M70.1,49.2L74,30.8h2.6l3.9,18.4h-2.6l-1-4.6h-3.3l-1,4.6H70.1z M74,42.6h2.6l-1.3-7.9L74,42.6z"/>
		<path fill="#F9C53D" d="M82,49.2V30.8h2.6v16.4h4.6v2H82z"/>
		<path fill="#F9C53D" d="M95.3,49.4c-1.7,0-2.9-0.5-3.8-1.5c-0.9-1-1.4-2.3-1.5-4l2.6-0.7c0.1,2.6,1,3.9,2.6,3.9c1.3,0,2-0.7,2-2
			c0-0.4-0.1-0.8-0.2-1.1c-0.1-0.3-0.3-0.6-0.5-0.9c-0.2-0.3-0.4-0.5-0.6-0.7c-0.2-0.2-0.4-0.4-0.7-0.6L92,39.3
			c-0.6-0.5-1.1-1.1-1.4-1.8C90.2,36.8,90,36,90,35.1c0-1.4,0.4-2.4,1.3-3.2c0.8-0.8,2-1.2,3.3-1.2c1.5,0,2.7,0.4,3.6,1.1
			c0.9,0.7,1.4,1.8,1.6,3.1c0,0.1,0,0.3,0.1,0.6l-2.6,0.7c0-0.1,0-0.3-0.1-0.5c-0.1-0.8-0.4-1.5-0.8-2c-0.4-0.5-1-0.8-1.8-0.8
			c-0.6,0-1.1,0.2-1.5,0.5c-0.3,0.4-0.5,0.8-0.5,1.5c0,1,0.4,1.9,1.3,2.6l3.3,2.6c1.8,1.4,2.6,3.1,2.6,5.1c0,1.3-0.4,2.4-1.2,3.2
			C97.8,49,96.7,49.4,95.3,49.4z"/>
		<path fill="#FFFFFF" d="M27.5,74.2v-3.2l5.7-8.1c0.1-0.1,0.2-0.3,0.4-0.6c0.2-0.3,0.4-0.5,0.5-0.6c0.1-0.1,0.2-0.3,0.4-0.6
			c0.2-0.3,0.3-0.5,0.4-0.7c0.1-0.2,0.2-0.4,0.3-0.7s0.2-0.5,0.3-0.8c0.1-0.2,0.1-0.5,0.1-0.8c0-0.3,0.1-0.6,0.1-0.9
			c0-0.9-0.2-1.7-0.6-2.3c-0.4-0.6-1-0.9-1.8-0.9c-0.5,0-0.9,0.1-1.2,0.3c-0.3,0.2-0.6,0.5-0.8,1S31,56,30.9,56.5
			c-0.1,0.5-0.1,0.9-0.1,1.5v0.8h-3.2v-0.8c0-2.1,0.5-3.8,1.4-5s2.4-1.8,4.3-1.8c1.8,0,3.3,0.5,4.2,1.6c1,1,1.5,2.5,1.5,4.4
			c0,0.7-0.1,1.4-0.2,2s-0.3,1.2-0.6,1.8s-0.5,1-0.7,1.4s-0.5,0.8-0.9,1.4l-5.7,7.3h8.1v3.2H27.5z"/>
		<path fill="#FFFFFF" d="M46.1,74.4c-2,0-3.4-0.6-4.3-1.7c-0.9-1.2-1.4-2.8-1.4-5c0-1.4,0.2-2.5,0.6-3.4c0.4-0.9,1-1.6,1.9-2.1
			c-0.7-0.5-1.3-1.2-1.6-2s-0.5-1.8-0.5-3c0-1.9,0.4-3.3,1.3-4.4s2.2-1.5,4-1.5c1.8,0,3.1,0.5,4,1.6c0.9,1,1.3,2.5,1.3,4.4
			c0,1.2-0.2,2.2-0.5,3c-0.3,0.8-0.9,1.5-1.6,2c0.9,0.6,1.5,1.3,1.9,2.1s0.6,2,0.6,3.4c0,2.2-0.4,3.8-1.3,5
			C49.5,73.8,48.1,74.4,46.1,74.4z M45,71.5c0.3,0.1,0.7,0.2,1.1,0.2s0.8-0.1,1.1-0.2s0.5-0.3,0.7-0.6s0.3-0.5,0.4-0.9
			c0.1-0.4,0.2-0.7,0.2-1.1s0-0.8,0-1.3c0-0.5,0-1-0.1-1.5c-0.1-0.4-0.2-0.8-0.4-1.2s-0.4-0.7-0.7-0.9s-0.7-0.3-1.2-0.3
			s-0.9,0.1-1.2,0.3s-0.6,0.5-0.8,0.9c-0.2,0.4-0.3,0.8-0.4,1.2c-0.1,0.4-0.1,0.9-0.1,1.5c0,0.5,0,0.9,0,1.3c0,0.4,0.1,0.7,0.2,1.1
			c0.1,0.4,0.2,0.7,0.4,0.9S44.7,71.4,45,71.5z M46.1,60.7c0.4,0,0.8-0.1,1.1-0.3s0.5-0.5,0.6-0.8c0.1-0.4,0.2-0.7,0.3-1.1
			s0.1-0.8,0.1-1.3c0-2.2-0.7-3.2-2-3.2c-1.4,0-2.1,1.1-2.1,3.2c0,0.5,0,1,0.1,1.3c0.1,0.4,0.1,0.7,0.3,1.1s0.3,0.6,0.6,0.8
			S45.6,60.7,46.1,60.7z"/>
		<path fill="#FFFFFF" d="M55.8,74.2V56.3h-2.4v-2.4c1.6-0.6,2.7-1.4,3.2-2.4h2.4v22.8H55.8z"/>
		<path fill="#FFFFFF" d="M62.5,77.4l-0.8-1.6c0.6,0,1-0.1,1.2-0.4c0.2-0.3,0.4-0.7,0.4-1.2h-1.6v-3.2h3.2c0,1.2,0,2.2,0,3.1
			c0,0.5,0,0.8-0.1,1.2c0,0.3-0.1,0.6-0.2,0.9c-0.1,0.3-0.2,0.6-0.4,0.7c-0.2,0.2-0.4,0.3-0.7,0.4C63.2,77.4,62.9,77.4,62.5,77.4z"
			/>
		<path fill="#FFFFFF" d="M72.8,74.4c-1.2,0-2.3-0.3-3.2-0.9c-0.9-0.6-1.5-1.4-1.9-2.4c-0.4-1-0.6-2.2-0.6-3.5v-9.8
			c0-2.1,0.5-3.7,1.4-4.9c0.9-1.2,2.4-1.8,4.3-1.8c1.9,0,3.3,0.6,4.3,1.8s1.4,2.8,1.4,4.9v9.8c0,2-0.5,3.7-1.5,4.9
			C76,73.8,74.6,74.4,72.8,74.4z M72.8,71.8c1.6,0,2.4-1.4,2.4-4.1v-9.8c0-0.5,0-0.9-0.1-1.2c0-0.4-0.1-0.7-0.2-1.1
			c-0.1-0.4-0.2-0.7-0.4-0.9c-0.2-0.2-0.4-0.4-0.7-0.6c-0.3-0.2-0.6-0.2-1.1-0.2S72,54,71.7,54.1c-0.3,0.2-0.5,0.4-0.7,0.6
			c-0.2,0.2-0.3,0.6-0.4,0.9c-0.1,0.4-0.2,0.7-0.2,1.1c0,0.4-0.1,0.8-0.1,1.2v9.8c0,0.5,0,1,0.1,1.5c0.1,0.4,0.2,0.9,0.4,1.3
			c0.2,0.4,0.4,0.7,0.8,1C71.9,71.6,72.3,71.8,72.8,71.8z"/>
		<path fill="#FFFFFF" d="M86.6,74.4c-1.2,0-2.3-0.3-3.2-0.9c-0.9-0.6-1.5-1.4-1.9-2.4c-0.4-1-0.6-2.2-0.6-3.5v-9.8
			c0-2.1,0.5-3.7,1.4-4.9c0.9-1.2,2.4-1.8,4.3-1.8c1.9,0,3.3,0.6,4.3,1.8s1.4,2.8,1.4,4.9v9.8c0,2-0.5,3.7-1.5,4.9
			C89.9,73.8,88.4,74.4,86.6,74.4z M86.6,71.8c1.6,0,2.4-1.4,2.4-4.1v-9.8c0-0.5,0-0.9-0.1-1.2c0-0.4-0.1-0.7-0.2-1.1
			c-0.1-0.4-0.2-0.7-0.4-0.9c-0.2-0.2-0.4-0.4-0.7-0.6c-0.3-0.2-0.6-0.2-1.1-0.2s-0.8,0.1-1.1,0.2c-0.3,0.2-0.5,0.4-0.7,0.6
			c-0.2,0.2-0.3,0.6-0.4,0.9c-0.1,0.4-0.2,0.7-0.2,1.1c0,0.4-0.1,0.8-0.1,1.2v9.8c0,0.5,0,1,0.1,1.5c0.1,0.4,0.2,0.9,0.4,1.3
			c0.2,0.4,0.4,0.7,0.8,1C85.7,71.6,86.1,71.8,86.6,71.8z"/>
		<path fill="#FFFFFF" d="M100.4,74.4c-1.2,0-2.3-0.3-3.2-0.9c-0.9-0.6-1.5-1.4-1.9-2.4c-0.4-1-0.6-2.2-0.6-3.5v-9.8
			c0-2.1,0.5-3.7,1.4-4.9c0.9-1.2,2.4-1.8,4.3-1.8c1.9,0,3.3,0.6,4.3,1.8s1.4,2.8,1.4,4.9v9.8c0,2-0.5,3.7-1.5,4.9
			C103.7,73.8,102.3,74.4,100.4,74.4z M100.4,71.8c1.6,0,2.4-1.4,2.4-4.1v-9.8c0-0.5,0-0.9-0.1-1.2c0-0.4-0.1-0.7-0.2-1.1
			c-0.1-0.4-0.2-0.7-0.4-0.9c-0.2-0.2-0.4-0.4-0.7-0.6c-0.3-0.2-0.6-0.2-1.1-0.2s-0.8,0.1-1.1,0.2c-0.3,0.2-0.5,0.4-0.7,0.6
			c-0.2,0.2-0.3,0.6-0.4,0.9C98.1,56,98,56.4,98,56.7c0,0.4-0.1,0.8-0.1,1.2v9.8c0,0.5,0,1,0.1,1.5c0.1,0.4,0.2,0.9,0.4,1.3
			c0.2,0.4,0.4,0.7,0.8,1C99.5,71.6,99.9,71.8,100.4,71.8z"/>
	</g>
</g>
<g id="cat-head">
	<path fill="#704815" d="M80.2,65.9c0,0-17.4,3-12.7,17.3c4.7,14.3,21.4,18.2,28.2,18.4c6.9,0.2,20.3-2.1,18.7-13.2
		C112.9,77.4,80.2,65.9,80.2,65.9z"/>
	
		<radialGradient id="SVGID_1_" cx="93.4074" cy="77.2874" r="25.9634" fx="69.6009" fy="87.6481" gradientTransform="matrix(1 0 0 1.2053 0 -15.8655)" gradientUnits="userSpaceOnUse">
		<stop  offset="0.4232" style="stop-color:#976225"/>
		<stop  offset="1" style="stop-color:#704815"/>
	</radialGradient>
	<path fill="url(#SVGID_1_)" d="M114.4,88.4c-4.3,7-14.2,11.6-19.1,11.3c-8.6-0.6-23.2-6-24.9-19.8c-1-8.2,4.7-12.1,9.6-13.9
		c0.1,0,0.1,0,0.2-0.1c3.3-1.2,6.1-1.5,6.1-1.5L81.8,57c9.6,0,15.5,8.2,15.5,8.2s-0.6-1.6-2-10.4c13.3,3.7,14.9,14.7,14.9,14.7
		C117.8,76.5,117.7,83.2,114.4,88.4z"/>
	<path fill="#231F20" d="M89.4,74.8c0,0-1,8.2,6.3,1.4C95.7,76.2,89.8,80.9,89.4,74.8z"/>
	<path fill="#231F20" d="M77.7,70.7c0,0-1,8.2,6.3,1.4C84,72.1,78.1,76.8,77.7,70.7z"/>
	<path fill="#231F20" d="M80.8,78.9c0,0-6.3-1.2-4.6,0C78,80.1,80.8,78.9,80.8,78.9z"/>
	<path fill="#231F20" d="M78.4,78.9c0,0-4.4,5.9,2.4,6.1C80.8,85,75.9,84.1,78.4,78.9z"/>
	<path fill="#825C2D" d="M114.4,88.4c-4.3,7-14.2,11.6-19.1,11.3c-8.6-0.6-23.2-6-24.9-19.8c-1-8.2,4.7-12.1,9.6-13.9
		c0.1,0,0.1,0,0.2-0.1c3.3-1.2,6.1-1.5,6.1-1.5L81.8,57c9.6,0,15.5,8.2,15.5,8.2s-0.6-1.6-2-10.4c13.3,3.7,14.9,14.7,14.9,14.7
		C117.8,76.5,117.7,83.2,114.4,88.4z"/>
	<path fill="#231F20" d="M89.4,74.8c0,0-1,8.2,6.3,1.4C95.7,76.2,89.8,80.9,89.4,74.8z"/>
	<path fill="#231F20" d="M77.7,70.7c0,0-1,8.2,6.3,1.4C84,72.1,78.1,76.8,77.7,70.7z"/>
	<path fill="#231F20" d="M80.8,78.9c0,0-6.3-1.2-4.6,0C78,80.1,80.8,78.9,80.8,78.9z"/>
	<path fill="#231F20" d="M78.4,78.9c0,0-4.4,5.9,2.4,6.1C80.8,85,75.9,84.1,78.4,78.9z"/>
	<g>
	</g>
	<g>
	</g>
	<g>
	</g>
	<g>
	</g>
	<g>
	</g>
	<g>
	</g>
</g>
</svg>
