<?xml version="1.0" encoding="utf-8"?>
<!-- Generator: Adobe Illustrator 19.1.0, SVG Export Plug-In . SVG Version: 6.00 Build 0)  -->
<svg version="1.1" xmlns="http://www.w3.org/2000/svg" xmlns:xlink="http://www.w3.org/1999/xlink" x="0px" y="0px" width="288px"
	 height="288px" viewBox="0 0 288 288" enable-background="new 0 0 288 288" xml:space="preserve">
<g id="bck">
	<path opacity="0.39" fill="#FFFFFF" d="M187.2,212.2c0,0-77.2,31.2-100.7-49S165.8,24,202.4,62.7S228.3,191.2,187.2,212.2z"/>
</g>
<g id="body">
	<path fill="#010101" d="M228.6,96.5c0,0,3.7-7.3-25.1-10.8c0,0-5.7-9.8-22.2-3.9c-16.5,5.9-22,16.1-22,16.1s4.4,0.5,2.4,1.4
		c-2,0.9-43.1,15.3-68.9,69.4h2.6c0,0-23.3,22.6-34.7,36.9s47.3-20.4,58.3-25.5s22.4-5.5,31-1.2c8.6,4.3,8.6,4.3,8.6,4.3
		s38.1-32,35.7-55.3l1.4,3.7c0,0,3.7-4.7,4.1-9.4c0,0,0.3,1.4-0.1,3.1c-0.3,1.6,4.6-7.6,3.2-14c0,0,1.3,1.4,1.4,2.4
		c0,0,1.5-4.8-0.6-9.9s0.6-7.3,6.7-7.1c6.1,0.2,15.7-0.2,16.9-1.3L228.6,96.5z"/>
	
		<ellipse transform="matrix(-0.9924 0.1228 -0.1228 -0.9924 405.3227 147.0344)" fill="#FFFFFF" cx="198.1" cy="86" rx="1.4" ry="1.9"/>
	<path fill="#010101" d="M154.7,174.4c0,0-10.4,10.8-5.3,13.1c5.1,2.3,8-1.2,16.4,1c8.4,2.2,9.6,4,9.6,4s-5.3-6.8-10.6-6.7
		c-5.3,0.1-11.8,0.6-13.1-0.1c-1.3-0.7,6.3-11.2,6.3-11.2H154.7z"/>
	<path fill="#010101" d="M133.2,170.8c0,0,0.6,8.4-3.4,11.4c0,0,3.5,4.9,6.9,5.6c3.4,0.7,8.3-2.9,12.4,2.3s4.2,5.2,4.2,5.2
		s-6.9-6.6-9.9-6.1c-3,0.5-12.5-0.1-15.1,3.3c0,0-0.9-2.1,0.7-3.1c0,0,6.3-1.3-3.3-6.3C123.6,181.8,133.2,170.8,133.2,170.8z"/>
</g>
<g id="glasses">
	<g>
		<path fill="#FCC755" d="M195.1,73.3c0,0,8.4-1.6,7.1,2c-1.3,3.6-2.1,6.3-7.9,9c-5.8,2.7-14.1,6.5-17,7.7c-2.9,1.2-11.8,6.4-15.5,5
			c-0.2-1.8-0.2-1.8-0.2-1.8s-7.5-10.9-2.2-21.9s20.1-12.6,26-8.2C191.4,69.4,195.1,73.3,195.1,73.3z"/>
		<path fill="#FDDE87" d="M176.8,64.6c0,0,0.2,0,0.4,0.1c0.3,0.1,0.7,0.2,1.2,0.4c0.5,0.2,1.2,0.4,1.9,0.6c0.4,0.1,0.8,0.3,1.2,0.4
			c0.4,0.2,0.8,0.3,1.3,0.6c0.2,0.1,0.4,0.2,0.6,0.3c0.2,0.1,0.4,0.3,0.6,0.4c0.1,0.1,0.2,0.2,0.3,0.2c0.1,0.1,0.2,0.2,0.2,0.3
			c0.1,0.1,0.1,0.2,0.1,0.3c0,0.1,0,0.2,0,0.3l0,0l0,0c0,0,0,0,0,0l0,0c0,0,0,0,0,0.1c0,0,0,0,0,0.1c0,0,0,0,0,0c0,0,0,0,0,0l0,0
			c0,0,0,0,0,0c0,0,0,0,0,0c0,0-0.1,0-0.1,0l0,0l0,0l0,0c0,0-0.1,0-0.1,0c-0.1,0-0.1-0.1-0.2-0.1c-0.1-0.1-0.2-0.1-0.4-0.2
			c-0.5-0.3-1-0.6-1.5-0.9c-0.5-0.3-1.1-0.5-1.7-0.8c-0.3-0.1-0.6-0.2-0.9-0.3c-0.3-0.1-0.6-0.2-0.9-0.2c-0.3-0.1-0.6-0.1-1-0.2
			c-0.2,0-0.3,0-0.5-0.1c-0.2,0-0.3,0-0.5,0c-0.6-0.1-1.3-0.1-2-0.1c-1.3,0-2.6,0.1-3.9,0.3c-0.6,0.1-1.3,0.2-1.9,0.4l-0.1,0l0,0
			l0,0l-0.1,0c-0.1,0-0.1,0-0.2,0.1c-0.1,0-0.3,0.1-0.5,0.1c-0.2,0-0.3,0.1-0.4,0.1c-0.1,0-0.3,0.1-0.4,0.2
			c-0.6,0.2-1.1,0.5-1.6,0.8c-0.5,0.3-1,0.6-1.5,0.9c-0.5,0.3-0.9,0.7-1.3,1c-0.4,0.4-0.7,0.7-1.1,1.1c-0.3,0.4-0.6,0.7-0.9,1.1
			c-0.1,0.1-0.1,0.2-0.2,0.3c-0.1,0.1-0.1,0.2-0.2,0.3c-0.1,0.1-0.1,0.2-0.2,0.3c-0.1,0.1-0.1,0.2-0.2,0.2c-0.4,0.6-0.8,1.2-1.1,1.7
			c-0.3,0.5-0.5,0.9-0.6,1.1c-0.1,0.3-0.2,0.4-0.2,0.4s0.1-0.1,0.2-0.4c0.1-0.1,0.2-0.3,0.3-0.5c0.1-0.2,0.3-0.4,0.4-0.6
			c0.3-0.5,0.7-1,1.2-1.6c0.1-0.1,0.1-0.2,0.2-0.2c0.1-0.1,0.1-0.2,0.2-0.2c0.1-0.1,0.1-0.2,0.2-0.2c0.1-0.1,0.1-0.2,0.2-0.2
			c0.3-0.3,0.6-0.7,0.9-1c0.7-0.7,1.4-1.4,2.3-2c0.9-0.6,1.9-1.2,3-1.6c0.6-0.2,1.1-0.4,1.7-0.5c0.2,0,0.3-0.1,0.5-0.1
			c0.2,0,0.3-0.1,0.5-0.1c0.2,0,0.3-0.1,0.5-0.1c0.1,0,0.2,0,0.2,0c0.1,0,0.2,0,0.2,0c1.2-0.2,2.5-0.3,3.8-0.3
			c1.3,0,2.5,0.1,3.7,0.3c0.3,0.1,0.6,0.1,0.9,0.2c0.3,0.1,0.6,0.2,0.9,0.3c0.6,0.2,1.1,0.4,1.7,0.7c0.3,0.1,0.5,0.3,0.8,0.4
			c0.3,0.1,0.5,0.3,0.8,0.4c0.1,0.1,0.3,0.1,0.4,0.2c0.1,0,0.1,0.1,0.2,0.1c0,0,0.1,0,0.1,0l0.1,0l0,0l0,0c0.1,0,0.2,0,0.3,0
			c0,0,0.1,0,0.1,0c0,0,0.1,0,0.1,0c0,0,0,0,0.1,0c0,0,0,0,0.1,0l0,0c0,0,0,0,0,0L185,69c0,0,0.1-0.1,0.1-0.1c0,0,0-0.1,0.1-0.1l0,0
			l0,0l0,0l0,0l0-0.1c0,0,0,0,0-0.1l0-0.1c0,0,0,0,0-0.1l0-0.1l0-0.1c0,0,0,0,0-0.1l0-0.1c0-0.2-0.1-0.3-0.2-0.5
			c-0.1-0.1-0.2-0.2-0.3-0.3c-0.1-0.1-0.2-0.2-0.3-0.3c-0.2-0.2-0.5-0.3-0.7-0.4c-0.2-0.1-0.5-0.2-0.7-0.3c-0.9-0.4-1.7-0.7-2.5-0.9
			c-0.8-0.2-1.4-0.4-2-0.5c-0.5-0.1-1-0.2-1.3-0.3C177,64.6,176.8,64.6,176.8,64.6z"/>
		<path fill="#FDDE87" d="M187.4,78.5c-0.5-0.8-1-1.6-1.5-2.3c-0.6-0.7-1.2-1.4-1.8-2.1c-0.6-0.7-1.3-1.3-2-1.9
			c-0.4-0.3-0.7-0.6-1.1-0.9c-0.4-0.3-0.8-0.5-1.2-0.8c-0.4-0.2-0.8-0.5-1.2-0.7c-0.1-0.1-0.2-0.1-0.3-0.2l-0.2-0.1l-0.2-0.1
			c-0.1,0-0.2-0.1-0.3-0.1l-0.3-0.1c-0.9-0.3-1.8-0.6-2.7-0.8l-0.2,0l-0.2,0l-0.4,0l-0.4,0c-0.1,0-0.1,0-0.2,0l-0.2,0
			c-0.5,0-0.9,0-1.4,0c-0.2,0-0.5,0-0.7,0.1c-0.1,0-0.2,0-0.4,0l-0.3,0.1l-0.2,0l-0.2,0l-0.3,0.1c-0.1,0-0.2,0.1-0.3,0.1l-0.2,0
			l-0.1,0l-0.1,0l-0.3,0.1c-0.1,0-0.1,0-0.2,0l-0.2,0.1l-0.3,0.1c-0.1,0-0.2,0.1-0.3,0.1c-0.1,0-0.2,0.1-0.3,0.1l-0.3,0.1l-0.2,0.1
			l0,0l0,0l0,0l0,0l-0.1,0l-0.3,0.1c-0.1,0-0.2,0.1-0.3,0.1l-0.3,0.2l-0.3,0.2c-0.1,0.1-0.2,0.1-0.3,0.2l-0.3,0.2
			c-0.1,0-0.1,0.1-0.1,0.1l-0.1,0.1l-0.3,0.2c0,0,0,0-0.1,0l-0.1,0.1l-0.1,0.1c-0.8,0.6-1.5,1.2-2.1,1.9c-0.1,0.1-0.2,0.2-0.2,0.3
			l-0.2,0.3l-0.1,0.1l-0.1,0.1l-0.1,0.1l-0.2,0.3c-0.3,0.4-0.5,0.8-0.8,1.2c0,0-0.1,0.1-0.1,0.2l-0.1,0.2l-0.2,0.3l-0.2,0.3
			l-0.1,0.2c0,0.1-0.1,0.1-0.1,0.2c-0.2,0.4-0.4,0.9-0.5,1.3c-0.3,0.9-0.5,1.8-0.7,2.7c-0.2,0.9-0.3,1.8-0.3,2.8
			c-0.1,0.9,0,1.8,0,2.8v0l0,0l0,0v0c0-0.5,0-0.9,0.1-1.4l0-0.2l0-0.2l0-0.3c0-0.1,0-0.2,0-0.3c0-0.1,0-0.2,0-0.3
			c0.1-0.9,0.3-1.8,0.5-2.7c0.2-0.9,0.5-1.8,0.8-2.6c0.3-0.8,0.7-1.7,1.2-2.4c0.2-0.4,0.5-0.8,0.8-1.1l0.2-0.3l0.1-0.1l0.1-0.1
			l0.1-0.1l0.2-0.3c0.1-0.1,0.2-0.2,0.2-0.2c0.6-0.7,1.3-1.3,2-1.8l0.1-0.1l0.1,0c0,0,0,0,0.1,0l0.3-0.2l0.1-0.1
			c0,0,0.1-0.1,0.1-0.1l0.3-0.2c0.1-0.1,0.2-0.1,0.3-0.2l0.3-0.2l0.3-0.2c0.1,0,0.2-0.1,0.3-0.1c0.8-0.4,1.7-0.7,2.5-0.9l0.1,0
			l0.1,0l0.2,0c0.1,0,0.2-0.1,0.3-0.1l0.3-0.1l0.2,0l0.2,0l0.3,0c0.1,0,0.2,0,0.3,0c0.2,0,0.4,0,0.7-0.1c0.4,0,0.9,0,1.3,0l0.2,0
			c0.1,0,0.1,0,0.2,0l0.3,0l0.3,0l0.2,0l0.2,0c0.9,0.1,1.8,0.4,2.6,0.7c0.8,0.3,1.7,0.7,2.5,1.1c0.8,0.4,1.5,1,2.3,1.5
			c0.7,0.6,1.4,1.2,2.1,1.8c0.7,0.6,1.3,1.3,1.9,2c0.3,0.3,0.6,0.7,0.9,1.1C186.9,77.8,187.2,78.1,187.4,78.5z"/>
		<path fill="#E6AF2E" d="M186.7,84.7c0,0,0,0,0-0.1c0-0.1-0.1-0.2-0.1-0.3c-0.1-0.3-0.2-0.7-0.4-1.2c-0.1-0.2-0.2-0.5-0.3-0.8
			c-0.1-0.3-0.2-0.6-0.3-0.8c0-0.1-0.1-0.3-0.1-0.4c0-0.1,0-0.1,0-0.2c0,0,0,0,0,0c0,0,0,0,0,0c0,0,0,0,0,0l0,0l0,0c0,0,0,0,0,0l0,0
			l0,0l0,0l0-0.1c0,0,0,0,0,0c0,0,0,0,0,0c0,0,0-0.1,0.1-0.1c0,0,0-0.1,0.1-0.1c0.1-0.1,0.2-0.2,0.3-0.3c0.2-0.2,0.5-0.5,0.7-0.7
			c0.1-0.1,0.1-0.1,0.2-0.2c0.1-0.1,0.1-0.1,0.2-0.2c0.1-0.1,0.2-0.2,0.4-0.3c0.1,0,0.1-0.1,0.2-0.1c0,0,0.1,0,0.1-0.1l0,0l0,0l0,0
			l0,0c0,0,0,0,0,0l0,0l0,0l0,0c0,0,0,0,0,0c0,0,0,0,0,0c0,0,0,0,0,0c0,0,0,0,0,0c0,0,0,0,0,0c0,0,0,0,0,0c0,0,0.1,0.1,0.1,0.1
			c0.1,0.1,0.2,0.2,0.3,0.3c0.1,0.1,0.2,0.2,0.2,0.3c0.1,0.2,0.3,0.4,0.4,0.6c0.1,0.2,0.2,0.3,0.3,0.4c0.2,0.2,0.3,0.4,0.3,0.4
			s0,0,0-0.1c0-0.1-0.1-0.2-0.1-0.3c0-0.1-0.1-0.3-0.2-0.5c-0.1-0.2-0.2-0.4-0.3-0.6c-0.1-0.1-0.1-0.2-0.2-0.4
			c-0.1-0.1-0.2-0.2-0.3-0.4c-0.1-0.1-0.1-0.1-0.2-0.2c0,0-0.1-0.1-0.2-0.1c0,0-0.1,0-0.1,0c0,0,0,0,0,0c0,0,0,0-0.1,0c0,0,0,0,0,0
			l0,0l0,0l0,0c0,0,0,0,0,0l0,0l0,0l0,0l-0.1,0c0,0-0.1,0-0.1,0.1c-0.1,0-0.1,0.1-0.2,0.1c-0.1,0.1-0.3,0.2-0.4,0.3
			c-0.1,0.1-0.1,0.1-0.2,0.2c-0.1,0.1-0.1,0.1-0.2,0.2c-0.3,0.2-0.5,0.4-0.8,0.7c-0.1,0.1-0.2,0.3-0.4,0.4c-0.1,0.1-0.1,0.1-0.2,0.2
			c0,0,0,0,0,0.1c0,0,0,0,0,0.1l0,0c0,0,0,0,0,0l0,0l0,0c0,0,0,0,0,0l0,0l0,0l0,0c0,0,0,0,0,0l0,0c0,0,0,0,0,0.1c0,0,0,0,0,0.1
			c0,0,0,0.1,0,0.1c0,0,0,0.1,0,0.1c0,0.1,0,0.2,0.1,0.3c0,0.2,0.1,0.3,0.2,0.5c0.1,0.3,0.2,0.6,0.4,0.8c0.1,0.3,0.2,0.5,0.4,0.7
			c0.2,0.4,0.4,0.8,0.6,1.1c0.1,0.1,0.1,0.2,0.2,0.3C186.7,84.6,186.7,84.7,186.7,84.7z"/>
		<path fill="#FDDE87" d="M161.4,94.7C161.4,94.7,161.4,94.8,161.4,94.7c0.1,0.1,0.2,0.2,0.3,0.2c0.1,0.1,0.2,0.1,0.4,0.2
			c0.1,0.1,0.3,0.1,0.5,0.2c0,0,0.1,0,0.1,0c0,0,0.1,0,0.1,0c0.1,0,0.2,0.1,0.3,0.1c0.2,0.1,0.5,0.1,0.7,0.1c0.1,0,0.2,0,0.4,0
			c0.1,0,0.1,0,0.2,0c0.1,0,0.1,0,0.2,0c0.3,0,0.5,0,0.8,0c0.1,0,0.3,0,0.4,0c0.1,0,0.3,0,0.4,0c0.1,0,0.3,0,0.4-0.1
			c0.1,0,0.2,0,0.4-0.1c0.1,0,0.2,0,0.3-0.1c0.1,0,0.2-0.1,0.3-0.1c0.1,0,0.2-0.1,0.3-0.1c0.1,0,0.2-0.1,0.3-0.1
			c0.1,0,0.2-0.1,0.3-0.1c0.1,0,0.2-0.1,0.2-0.1c0.1,0,0.1-0.1,0.2-0.1c0.1,0,0.1-0.1,0.2-0.1c0.1,0,0.2-0.1,0.2-0.1
			c0.1,0,0.1,0,0.1,0s0,0-0.1,0c-0.1,0-0.1,0-0.3,0c-0.1,0-0.1,0-0.2,0c-0.1,0-0.1,0-0.2,0c-0.1,0-0.2,0-0.2,0c-0.1,0-0.2,0-0.3,0
			c-0.2,0-0.4,0-0.6,0.1c-0.1,0-0.2,0-0.3,0c-0.1,0-0.1,0-0.2,0c-0.1,0-0.1,0-0.2,0c-0.1,0-0.1,0-0.2,0c-0.1,0-0.1,0-0.2,0
			c-0.1,0-0.1,0-0.2,0c-0.1,0-0.1,0-0.2,0c-0.1,0-0.2,0-0.4,0c-0.1,0-0.2,0-0.4,0c-0.2,0-0.5,0-0.7,0c-0.2,0-0.5,0-0.7,0
			c-0.2,0-0.5,0-0.7,0c-0.2,0-0.4,0-0.6-0.1c-0.2,0-0.4-0.1-0.5-0.1c-0.2,0-0.3-0.1-0.4-0.1C161.6,94.8,161.5,94.8,161.4,94.7
			C161.4,94.8,161.4,94.7,161.4,94.7z"/>
		<path fill="#FDDE87" d="M191.3,82.1c0,0,0.1,0,0.2,0c0.1,0,0.3,0.1,0.5,0.1c0.2,0,0.4,0,0.7,0.1c0.1,0,0.3,0,0.4,0
			c0.1,0,0.3,0,0.4,0c0.1,0,0.1,0,0.2,0c0.1,0,0.1,0,0.2,0c0.1,0,0.3,0,0.4,0c0.1,0,0.2,0,0.4,0c0.1,0,0.2,0,0.3,0
			c0.1,0,0.2,0,0.3,0c0.1,0,0.2,0,0.2,0c0.1,0,0.2,0,0.2,0s-0.1,0-0.2-0.1c-0.1,0-0.1-0.1-0.2-0.1c-0.1,0-0.2-0.1-0.3-0.1
			c0,0-0.1,0-0.2,0c-0.1,0-0.1,0-0.2,0c-0.1,0-0.2,0-0.4-0.1c-0.1,0-0.3,0-0.4,0c-0.1,0-0.1,0-0.2,0c-0.1,0-0.1,0-0.2,0
			c-0.1,0-0.3,0-0.4,0c-0.1,0-0.3,0-0.4,0c-0.1,0-0.2,0-0.4,0.1c-0.1,0-0.2,0-0.3,0.1c-0.2,0.1-0.4,0.1-0.5,0.2
			C191.4,82,191.3,82.1,191.3,82.1z"/>
		<path fill="#FEF8BA" d="M161.6,95.1c0,0-0.1-0.2-0.4-0.6c-0.2-0.4-0.6-1-1-1.9c-0.2-0.4-0.4-0.9-0.6-1.4c-0.2-0.5-0.4-1.1-0.6-1.6
			c-0.2-0.6-0.4-1.2-0.6-1.9c-0.1-0.3-0.2-0.7-0.2-1.1c0-0.2-0.1-0.4-0.1-0.5c0-0.1,0-0.2-0.1-0.3c0-0.1,0-0.2,0-0.3
			c-0.3-1.5-0.4-3.2-0.3-4.9c0.1-0.9,0.2-1.8,0.4-2.7c0-0.1,0-0.2,0.1-0.3l0-0.2l0-0.2c0-0.1,0.1-0.2,0.1-0.3c0-0.1,0.1-0.2,0.1-0.3
			l0-0.2l0.1-0.2c0-0.1,0.1-0.2,0.1-0.3c0-0.1,0.1-0.2,0.1-0.3c0-0.1,0-0.1,0.1-0.2l0.1-0.2c0.2-0.4,0.4-0.9,0.6-1.3
			c0.1-0.1,0.1-0.2,0.2-0.3l0.1-0.2l0.1-0.2c0.1-0.1,0.1-0.2,0.2-0.3c0.1-0.1,0.1-0.2,0.2-0.3l0.1-0.2l0.1-0.2
			c0.1-0.1,0.1-0.2,0.2-0.3c0.1-0.1,0.1-0.2,0.2-0.3c0-0.1,0.1-0.1,0.1-0.2l0.1-0.2c0.3-0.4,0.6-0.8,0.9-1.2c1.3-1.5,2.8-2.9,4.6-4
			c1.7-1.1,3.6-1.9,5.6-2.4c0.5-0.1,1-0.2,1.5-0.3c0.5-0.1,1-0.2,1.5-0.2c0.2,0,0.5-0.1,0.7-0.1c0.1,0,0.2,0,0.4,0
			c0.1,0,0.2,0,0.4,0c0.5,0,1,0,1.4,0c0.5,0,1,0,1.4,0.1c0.5,0,0.9,0.1,1.4,0.2c0.5,0.1,0.9,0.2,1.3,0.3c0.4,0.1,0.9,0.3,1.3,0.4
			c0.8,0.3,1.6,0.7,2.2,1.2c0.3,0.2,0.7,0.5,1,0.7c0.3,0.2,0.6,0.5,0.9,0.7c0.6,0.5,1.2,0.9,1.8,1.4c0.1,0.1,0.3,0.2,0.4,0.3
			c0.1,0.1,0.3,0.2,0.4,0.3c0.1,0.1,0.3,0.2,0.4,0.3c0.1,0.1,0.2,0.2,0.4,0.3c1,0.8,1.8,1.5,2.5,2.1c0.7,0.6,1.2,1.1,1.6,1.4
			c0.4,0.3,0.5,0.5,0.5,0.5s-0.2-0.2-0.5-0.5c-0.3-0.3-0.8-0.9-1.5-1.5c-0.7-0.6-1.5-1.4-2.4-2.2c-0.1-0.1-0.2-0.2-0.4-0.3
			c-0.1-0.1-0.2-0.2-0.4-0.3c-0.1-0.1-0.3-0.2-0.4-0.3c-0.1-0.1-0.3-0.2-0.4-0.3c-0.5-0.5-1.1-0.9-1.7-1.4c-0.3-0.2-0.6-0.5-0.9-0.7
			c-0.3-0.2-0.6-0.5-1-0.8c-0.7-0.5-1.5-0.9-2.3-1.3c-0.4-0.2-0.9-0.3-1.3-0.4c-0.4-0.1-0.9-0.2-1.4-0.3c-0.5-0.1-0.9-0.2-1.4-0.2
			c-0.5-0.1-1-0.1-1.5-0.1c-0.5,0-1,0-1.5,0c-0.1,0-0.2,0-0.4,0c-0.1,0-0.3,0-0.4,0c-0.3,0-0.5,0-0.8,0.1c-1,0.1-2,0.3-3,0.6
			c-2,0.5-4,1.3-5.8,2.4c-0.4,0.3-0.9,0.6-1.3,0.9c-0.4,0.3-0.8,0.6-1.2,1c-0.4,0.3-0.8,0.7-1.1,1.1c-0.1,0.1-0.2,0.2-0.3,0.3
			l-0.1,0.1l-0.1,0.1c-0.1,0.1-0.2,0.2-0.3,0.3c-0.1,0.1-0.2,0.2-0.2,0.3c-0.3,0.4-0.6,0.8-0.9,1.2l-0.1,0.2c0,0.1-0.1,0.1-0.1,0.2
			c-0.1,0.1-0.1,0.2-0.2,0.3c-0.1,0.1-0.1,0.2-0.2,0.3l-0.1,0.2l-0.1,0.2c-0.1,0.1-0.1,0.2-0.2,0.3c-0.1,0.1-0.1,0.2-0.2,0.3
			l-0.1,0.2l0,0l0,0l0,0l0,0.1c-0.1,0.1-0.1,0.2-0.2,0.3c-0.1,0.1-0.1,0.2-0.1,0.3l-0.1,0.2c0,0.1,0,0.1-0.1,0.2
			c0,0.1-0.1,0.2-0.1,0.3c0,0.1-0.1,0.2-0.1,0.3l-0.1,0.2c0,0.1,0,0.1-0.1,0.2c0,0.1-0.1,0.2-0.1,0.3c0,0.1-0.1,0.2-0.1,0.4
			l-0.1,0.2l0,0.2c0,0.1-0.1,0.2-0.1,0.3c0,0.1-0.1,0.2-0.1,0.4l0,0.2l0,0.2c0,0.1,0,0.2-0.1,0.3c-0.2,0.9-0.3,1.9-0.3,2.8
			c0,0.9,0,1.8,0.1,2.6c0,0.1,0,0.2,0,0.3c0,0.1,0,0.1,0,0.2c0,0.1,0,0.1,0,0.2c0,0.1,0,0.2,0,0.3c0,0.1,0,0.2,0,0.3
			c0,0.1,0,0.1,0,0.2c0,0.1,0,0.1,0,0.1c0,0.1,0,0.2,0,0.3c0,0.1,0,0.2,0.1,0.3c0,0,0,0.1,0,0.1c0,0,0,0.1,0,0.1
			c0.3,1.5,0.7,2.9,1.2,4.1c0.4,1.2,0.9,2.2,1.3,3c0.4,0.8,0.8,1.4,1,1.8c0.1,0.2,0.2,0.4,0.3,0.5C161.5,95,161.6,95.1,161.6,95.1z"
			/>
		<path fill="#E6AF2E" d="M177.3,91.9c-0.3,0.1-0.7,0.2-1,0.3c-0.3,0.1-0.6,0.3-1,0.4c-0.3,0.1-0.6,0.3-1,0.4l-0.9,0.4l-0.9,0.4
			c-0.3,0.1-0.6,0.3-0.9,0.4c-0.3,0.1-0.6,0.3-0.9,0.4c-0.3,0.1-0.6,0.3-0.9,0.4c-0.3,0.1-0.6,0.3-1,0.4c-0.3,0.1-0.6,0.2-1,0.4
			c-0.3,0.1-0.6,0.2-1,0.3c-0.3,0.1-0.6,0.2-1,0.3c-0.3,0.1-0.7,0.2-1,0.2c-0.1,0-0.2,0-0.2,0c-0.1,0-0.2,0-0.2,0l-0.2,0l-0.2,0
			c-0.3,0-0.7,0.1-1,0l-0.1,0l-0.1,0l-0.1,0c0,0-0.1,0-0.1,0c0,0-0.1,0-0.1,0c-0.2,0-0.3-0.1-0.5-0.1l0.1,0.1l-0.1-0.5l-0.1-0.5
			c0-0.2-0.1-0.3-0.1-0.5c0-0.2-0.1-0.3-0.1-0.5c0,0.2,0,0.3,0,0.5c0,0.2,0,0.3,0,0.5l0,0.5l0,0.5l0,0.1l0.1,0
			c0.3,0.1,0.7,0.2,1,0.3c0.4,0,0.7,0.1,1.1,0c0.4,0,0.7-0.1,1.1-0.1c0.3-0.1,0.7-0.1,1-0.2c0.3-0.1,0.7-0.2,1-0.3
			c0.3-0.1,0.7-0.2,1-0.3c0.3-0.1,0.7-0.2,1-0.4c0.3-0.1,0.6-0.3,1-0.4c0.3-0.1,0.6-0.3,1-0.4c0.3-0.1,0.6-0.3,0.9-0.4
			c0.3-0.2,0.6-0.3,0.9-0.5c0.3-0.2,0.6-0.3,0.9-0.5c0.3-0.2,0.6-0.3,0.9-0.5c0.3-0.2,0.6-0.3,0.9-0.5l0.9-0.5
			C176.7,92.3,177,92.1,177.3,91.9z"/>
		<path fill="#E6AF2E" d="M195.1,73.3c0,0,0.2,0,0.4-0.1c0.3,0,0.7-0.1,1.3-0.1c0.5,0,1.2-0.1,2-0.1c0.4,0,0.8,0,1.2,0.1
			c0.4,0.1,0.8,0.1,1.3,0.3c0.1,0,0.2,0.1,0.3,0.1c0,0,0.1,0.1,0.1,0.1c0,0,0,0,0.1,0l0,0l0,0c0.1,0.1,0.1,0.1,0.2,0.2
			c0,0,0,0.1,0.1,0.1l0,0.1c0,0,0,0,0,0.1c0,0.1,0,0.2,0,0.3l0,0c0,0,0,0,0,0l0,0.1c0,0,0,0.1,0,0.1c0,0,0,0.1,0,0.1
			c0,0.1,0,0.1-0.1,0.2l0,0.1l0,0.1c0,0.1-0.1,0.2-0.1,0.4c-0.2,0.5-0.4,1-0.6,1.5c-0.2,0.5-0.5,1-0.7,1.5c-0.1,0.3-0.3,0.5-0.4,0.7
			c-0.1,0.1-0.2,0.2-0.2,0.4c0,0.1-0.1,0.1-0.1,0.2c0,0.1-0.1,0.1-0.1,0.2c0,0.1-0.1,0.1-0.1,0.2c0,0.1-0.1,0.1-0.1,0.2
			c0,0.1-0.1,0.1-0.1,0.2l-0.1,0.1l-0.1,0.1c-0.1,0.1-0.1,0.1-0.2,0.2c-0.1,0.1-0.1,0.1-0.2,0.2c-0.1,0.1-0.1,0.1-0.2,0.2
			c-0.1,0-0.1,0.1-0.2,0.1l-0.1,0.1l-0.1,0.1l-0.2,0.1c-0.1,0.1-0.2,0.2-0.4,0.3c-0.1,0.1-0.2,0.2-0.4,0.3c-0.1,0.1-0.3,0.2-0.4,0.3
			c-0.5,0.3-1,0.6-1.6,0.9c-0.5,0.3-1.1,0.5-1.7,0.8c-0.6,0.3-1.1,0.5-1.7,0.8c-0.3,0.1-0.6,0.3-0.8,0.4c-0.3,0.1-0.5,0.3-0.8,0.4
			c-0.5,0.3-1.1,0.5-1.6,0.8c-1.1,0.5-2.1,1-3,1.4c-0.5,0.2-1,0.5-1.4,0.7c-0.5,0.2-0.9,0.4-1.3,0.6c-0.4,0.2-0.8,0.4-1.2,0.6
			c-0.4,0.2-0.7,0.4-1.1,0.5c-0.7,0.3-1.3,0.6-1.8,0.9c-0.5,0.2-0.9,0.4-1.1,0.5c-0.3,0.1-0.4,0.2-0.4,0.2s0.1-0.1,0.4-0.2
			c0.1-0.1,0.3-0.1,0.5-0.2c0.2-0.1,0.4-0.2,0.7-0.3c0.5-0.2,1.1-0.4,1.8-0.7c0.4-0.1,0.7-0.3,1.1-0.5c0.4-0.2,0.8-0.3,1.2-0.5
			c0.4-0.2,0.9-0.4,1.3-0.6c0.5-0.2,0.9-0.4,1.4-0.6c1-0.4,2-0.9,3.1-1.4c0.5-0.2,1.1-0.5,1.6-0.7c0.3-0.1,0.6-0.2,0.8-0.4
			c0.3-0.1,0.6-0.3,0.8-0.4c0.6-0.3,1.1-0.5,1.7-0.8c0.6-0.3,1.1-0.5,1.7-0.8c0.6-0.3,1.1-0.6,1.6-1c0.5-0.3,1-0.7,1.5-1.2
			c0.5-0.4,0.9-0.9,1.3-1.4c0-0.1,0.1-0.1,0.1-0.2c0-0.1,0.1-0.1,0.1-0.2c0.1-0.1,0.2-0.3,0.3-0.4c0.2-0.3,0.3-0.5,0.5-0.8
			c0.3-0.5,0.5-1.1,0.7-1.6c0.2-0.5,0.4-1.1,0.6-1.6c0-0.1,0.1-0.3,0.1-0.4l0-0.1l0-0.1c0-0.1,0-0.1,0.1-0.2c0,0,0-0.1,0-0.1
			c0,0,0-0.1,0-0.1l0-0.1c0,0,0,0,0-0.1l0-0.1c0-0.1,0-0.3-0.1-0.4c0,0,0-0.1,0-0.1c0,0,0-0.1,0-0.1c0-0.1-0.1-0.1-0.1-0.2
			c-0.1-0.1-0.2-0.2-0.3-0.3l0,0l0,0c0,0-0.1,0-0.1-0.1c-0.1,0-0.1-0.1-0.2-0.1c-0.1-0.1-0.2-0.1-0.3-0.2c-0.2-0.1-0.5-0.1-0.7-0.2
			c-0.2,0-0.4-0.1-0.7-0.1c-0.4,0-0.8,0-1.2,0c-0.8,0-1.4,0.1-2,0.2c-0.5,0.1-1,0.2-1.3,0.2C195.3,73.2,195.1,73.3,195.1,73.3z"/>
		<path fill="#FEF8BA" d="M195.1,73.3c0,0.1,0,0.2,0,0.4l0,0.2l0,0.2c0,0.1,0,0.1,0,0.2c0,0.1,0,0.1,0,0.2l-0.1,0.2
			c0,0.1,0,0.1-0.1,0.2c-0.2,0.5-0.3,0.9-0.5,1.3c0,0.1-0.1,0.2-0.2,0.3l-0.1,0.2c0,0.1-0.1,0.1-0.1,0.2c-0.1,0.2-0.2,0.4-0.4,0.6
			l-0.2,0.3l-0.2,0.3l-0.1,0.1c0,0-0.1,0.1-0.1,0.1l-0.2,0.3c-0.1,0.2-0.3,0.4-0.4,0.6l-0.1,0.1l-0.1,0.1l-0.1,0.1l-0.2,0.3
			c-0.1,0.1-0.2,0.2-0.2,0.3l-0.2,0.3l-0.2,0.3c0,0-0.1,0.1-0.1,0.1l-0.1,0.1l-0.2,0.3c-0.1,0.1-0.2,0.2-0.3,0.3l-0.5,0.5
			c-0.1,0.1-0.2,0.2-0.3,0.2l-0.3,0.2l-0.3,0.2l-0.3,0.2l-0.5,0.5l-0.6,0.4l-0.3,0.2l-0.3,0.2l-0.6,0.4c-0.1,0.1-0.2,0.1-0.3,0.2
			l-0.3,0.2c-0.2,0.1-0.4,0.3-0.6,0.4l-0.6,0.4c-0.2,0.1-0.4,0.3-0.6,0.4l-0.6,0.4l-0.3,0.2c-0.1,0.1-0.2,0.1-0.3,0.2l-0.6,0.4
			c-0.2,0.1-0.4,0.2-0.6,0.4l-0.6,0.3l-0.3,0.2l-0.2,0.1l-0.2,0.1l-1.3,0.7l0.3,0c-0.5-0.2-0.9-0.4-1.4-0.6c-0.1,0-0.2-0.1-0.4-0.1
			c-0.1,0-0.3-0.1-0.4-0.1c-0.3-0.1-0.5-0.1-0.8-0.1c-0.3,0-0.6,0.1-0.8,0.1c-0.3,0.1-0.5,0.2-0.8,0.3c-0.5,0.2-0.9,0.4-1.4,0.6
			l-1.4,0.7l-1.4,0.6l-0.7,0.3c-0.2,0.1-0.5,0.2-0.7,0.3l-0.7,0.3l-0.7,0.3l-0.3,0.2l-0.2,0.1l-0.1,0l0,0l0,0c0,0,0,0,0,0l0,0l0,0
			l-0.3,0.1c-0.1,0-0.2,0.1-0.3,0.1c-0.5,0.2-0.9,0.3-1.4,0.4c-0.5,0.1-1,0.1-1.5,0c-0.5-0.1-1-0.2-1.4-0.4
			c-0.5-0.2-0.9-0.4-1.3-0.7c-0.1-0.1-0.2-0.2-0.3-0.2c0,0-0.1-0.1-0.1-0.1l-0.1-0.1c-0.1-0.1-0.2-0.2-0.3-0.3l-0.1-0.1
			c0,0-0.1-0.1-0.1-0.1c-0.3-0.4-0.6-0.8-0.9-1.2c-0.3-0.4-0.5-0.9-0.8-1.3v0l0,0l0,0v0c0.2,0.5,0.4,0.9,0.7,1.4
			c0.3,0.4,0.5,0.9,0.9,1.3c0.3,0.4,0.7,0.8,1.1,1.1c0.4,0.3,0.8,0.6,1.3,0.8c0.5,0.2,1,0.4,1.5,0.4c0.5,0.1,1,0.1,1.6,0
			c0.5-0.1,1-0.2,1.5-0.3c0.1,0,0.3-0.1,0.4-0.1l0.4-0.1l0,0l0,0l0,0l0.1,0l0.2-0.1l0.3-0.1l0.7-0.3c0.2-0.1,0.5-0.2,0.7-0.3
			c0.2-0.1,0.5-0.2,0.7-0.3l0.7-0.3c0.5-0.2,0.9-0.4,1.4-0.6l1.4-0.6c0.5-0.2,0.9-0.4,1.4-0.6c0.2-0.1,0.5-0.2,0.7-0.2
			c0.2-0.1,0.4-0.1,0.7-0.1c0.2,0,0.4,0,0.7,0.1c0.1,0,0.2,0.1,0.3,0.1c0.1,0,0.2,0.1,0.3,0.1c0.5,0.2,0.9,0.4,1.4,0.5l0.1,0.1
			l0.1-0.1l1.3-0.7l0.2-0.1l0.2-0.1l0.3-0.2l0.6-0.4c0.2-0.1,0.4-0.2,0.6-0.4l0.6-0.4c0.1-0.1,0.2-0.1,0.3-0.2l0.3-0.2l0.6-0.4
			c0.2-0.1,0.4-0.3,0.6-0.4l0.6-0.4c0.1,0,0.1-0.1,0.1-0.1l0.1-0.1l0.3-0.2l0.3-0.2c0.1-0.1,0.2-0.1,0.3-0.2l0.6-0.4
			c0.1-0.1,0.2-0.1,0.3-0.2l0.3-0.2l0.6-0.5l0.5-0.5l0.3-0.2l0.3-0.3l0.3-0.3c0.1-0.1,0.2-0.2,0.3-0.3l0.5-0.5
			c0.1-0.1,0.2-0.2,0.2-0.3l0.2-0.3l0.1-0.1c0,0,0.1-0.1,0.1-0.1l0.2-0.3l0.2-0.3c0.1-0.1,0.2-0.2,0.2-0.3l0.2-0.3l0.1-0.1l0.1-0.1
			l0.1-0.1l0.2-0.3c0.1-0.1,0.1-0.2,0.2-0.3l0.2-0.3c0-0.1,0.1-0.1,0.1-0.2l0.1-0.2l0.2-0.3l0.2-0.3c0.1-0.2,0.2-0.4,0.3-0.6
			c0.1-0.1,0.1-0.2,0.2-0.3c0.1-0.1,0.1-0.2,0.1-0.3c0.2-0.4,0.3-0.9,0.5-1.4c0-0.1,0-0.1,0-0.2l0-0.2c0-0.1,0-0.1,0-0.2
			c0-0.1,0-0.1,0-0.2C195.1,73.8,195.2,73.5,195.1,73.3z"/>
	</g>
</g>
<g id="ear">
	<g>
		<path fill="#6B5F48" d="M195.6,166.8c5.9-3.8,8.5-11.8,8.5-11.8c-8.2-6.6-30-19.8-44-28c-14-8.2-31.1-22.4-31.1-22.4l-1.3,0.8
			c4.4,3.6,18.1,14.4,29.7,21.2c14,8.2,35.8,21.3,44,28c0,0-2.2,7-7.4,11.1C195,166.4,195.6,166.8,195.6,166.8z"/>
		<path fill="#A89472" d="M193.9,165.7c5.2-4,7.4-11.1,7.4-11.1c-8.2-6.6-30-19.8-44-28c-11.6-6.8-25.3-17.6-29.7-21.2l-7.9,4.9
			c0,0,26.4,11.4,35.4,23.8C163,144.9,187.3,161.3,193.9,165.7z"/>
		<path fill="#7F8283" d="M124.2,116.3l7-10.4l0,0l1.5-2.2c0,0-0.9,0.3-2.1-0.2c-1.3-0.6-3-2.1-4.4-6.1c-0.4-1.1-0.5-2.1-0.5-2.9
			c0-0.3,0.1-0.7,0.1-1c-1.2,1.2-1.8,3-1,5.7c0,0.1,0,0.2,0.1,0.3c1.3,3.8,2.9,5.4,4.2,6l-5.5,8.1c0,0-12-12.9-12.1,1
			c0,1.8,0.2,4,0.6,6.8c-0.4-3.7-0.3-6.2,0.1-7.8C114.6,106.1,124.2,116.3,124.2,116.3z"/>
		<path fill="#A1A2A5" d="M113.2,133.9l1.6-0.2c-0.2-0.9-0.5-1.8-0.6-2.6c-0.9-3.8-1.5-7-1.8-9.6c0,0,0,0,0,0
			c-0.4-2.8-0.7-5-0.6-6.8c0-13.9,12.1-1,12.1-1l5.5-8.1c-1.3-0.6-2.9-2.2-4.2-6c0-0.1-0.1-0.2-0.1-0.3c-0.9-2.8-0.2-4.6,1-5.7
			c0.9-3.9,6.4-4.2,6.4-4.2s1.2-1.1,2.1-2.3c0.8-1,1.5-2.1,1.1-2.7c-0.1-0.2-0.4-0.5-0.8-0.9c-2.1-2.1-7-6.6-7.9-5.1
			c-1,1.8-2.7,4.1-2.7,4.1c0,0.1,0,0.2,0.1,0.3c0.5,3.5-0.1,5.5-1.3,6.6c0,0,0,0,0,0c-2.3,2.3-6.5,1.1-6.5,1.1
			c-2.5,2.6-4.4,5.2-5.8,7.9c-3.3,6.2-3.9,12.5-3.3,18c0,0,0,0.1,0,0.1c1,9.2,5.2,16.3,5.8,17.3
			C113.1,133.7,113.1,133.8,113.2,133.9C113.2,133.8,113.2,133.9,113.2,133.9z"/>
		<path fill="#D8D9DA" d="M113.1,131.9c0,0-0.1-0.2-0.2-0.5c-0.1-0.3-0.3-0.7-0.4-1.3c-0.2-0.6-0.4-1.2-0.7-2
			c-0.2-0.8-0.5-1.6-0.8-2.6c-0.3-1-0.5-2-0.8-3.1c-0.3-1.1-0.5-2.3-0.7-3.5c0-0.3-0.1-0.6-0.1-0.9c0-0.3-0.1-0.6-0.1-0.9
			c0-0.3-0.1-0.6-0.1-0.9c0-0.3-0.1-0.6-0.1-1c-0.1-1.3-0.1-2.6,0-3.9c0.1-1.3,0.3-2.6,0.6-3.8l0-0.1l0,0l0-0.1l0.1-0.2
			c0.1-0.2,0.1-0.3,0.2-0.5c0.1-0.3,0.2-0.6,0.3-0.9c0.2-0.6,0.4-1.2,0.6-1.8c0.2-0.6,0.4-1.1,0.7-1.7c0.1-0.3,0.2-0.5,0.3-0.8
			c0.1-0.3,0.2-0.5,0.3-0.8c0.2-0.5,0.5-1,0.7-1.5c0.1-0.2,0.2-0.5,0.3-0.7c0.1-0.2,0.2-0.5,0.4-0.7c0.1-0.2,0.2-0.4,0.3-0.6
			c0.1-0.2,0.2-0.4,0.3-0.6c0.2-0.4,0.4-0.8,0.6-1.1c0.2-0.3,0.4-0.7,0.6-1c0.2-0.3,0.4-0.6,0.5-0.8c0.3-0.5,0.6-0.9,0.8-1.1
			c0.2-0.3,0.3-0.4,0.3-0.4s-0.1,0.1-0.3,0.3c-0.1,0.1-0.2,0.3-0.4,0.4c-0.2,0.2-0.3,0.4-0.5,0.6c-0.2,0.2-0.4,0.5-0.6,0.7
			c-0.2,0.3-0.5,0.6-0.7,0.9c-0.5,0.7-1,1.4-1.6,2.3c-0.1,0.2-0.3,0.4-0.4,0.7c-0.1,0.2-0.3,0.5-0.4,0.7c-0.3,0.5-0.5,1-0.8,1.5
			c-0.1,0.3-0.3,0.5-0.4,0.8c-0.1,0.3-0.3,0.5-0.4,0.8c-0.1,0.3-0.3,0.6-0.4,0.8c-0.1,0.3-0.3,0.6-0.4,0.9c-0.2,0.6-0.5,1.2-0.7,1.8
			c-0.1,0.3-0.2,0.6-0.3,0.9c-0.1,0.2-0.1,0.3-0.2,0.5l-0.1,0.2l0,0.1l0,0.1l0,0.1c-0.4,1.3-0.6,2.7-0.7,4c-0.1,1.4,0,2.7,0.1,4.1
			c0,0.3,0.1,0.7,0.1,1c0,0.3,0.1,0.7,0.1,1c0.1,0.3,0.1,0.6,0.2,1c0.1,0.3,0.1,0.6,0.2,0.9c0.3,1.2,0.6,2.4,0.9,3.5
			c0.3,1.1,0.7,2.1,1,3.1c0.3,0.9,0.7,1.8,1,2.5c0.3,0.8,0.6,1.4,0.9,1.9c0.2,0.5,0.5,0.9,0.6,1.2
			C113,131.7,113.1,131.9,113.1,131.9z"/>
		<path fill="#D8D9DA" d="M124.8,88.4c0.1-0.2,0.2-0.4,0.3-0.7c0.1-0.2,0.2-0.5,0.3-0.7c0.2-0.5,0.3-0.9,0.4-1.4
			c0-0.2,0.1-0.5,0.1-0.8c0-0.1,0-0.3,0-0.4c0-0.1,0-0.3,0-0.4l0-0.2l0-0.2c0-0.1,0-0.3-0.1-0.4c0-0.1-0.1-0.3-0.1-0.4
			c0-0.1-0.1-0.1-0.1-0.2l-0.1-0.2l0,0.7l1-1.1l0.5-0.5c0.2-0.2,0.3-0.3,0.5-0.5c0.2-0.2,0.3-0.3,0.5-0.4l0,0l0,0l0,0
			c0,0,0.1,0-0.1,0l0,0l0,0l0,0c0,0,0,0,0,0c0,0,0,0-0.1,0c0,0,0,0,0,0l0,0c0,0,0,0,0,0c0,0,0,0,0,0c0.1,0,0.1,0,0.2,0
			c0.2,0.1,0.4,0.1,0.6,0.2c0.2,0.1,0.4,0.2,0.6,0.3c0.4,0.2,0.8,0.5,1.2,0.7c0.2,0.1,0.4,0.3,0.6,0.4c0.2,0.1,0.4,0.3,0.6,0.4
			c0.4,0.3,0.8,0.6,1.2,0.8c0.2,0.1,0.4,0.3,0.6,0.4c0.2,0.2,0.4,0.3,0.6,0.5c-0.1-0.2-0.3-0.4-0.4-0.6c-0.1-0.2-0.3-0.4-0.5-0.6
			c-0.2-0.2-0.3-0.4-0.5-0.6c-0.2-0.2-0.3-0.4-0.5-0.5c-0.2-0.2-0.4-0.3-0.6-0.5c-0.2-0.2-0.4-0.3-0.6-0.5c-0.2-0.2-0.4-0.3-0.6-0.5
			c-0.2-0.1-0.4-0.3-0.6-0.4c-0.2-0.1-0.4-0.3-0.7-0.4c-0.2-0.1-0.5-0.2-0.8-0.3c-0.1,0-0.3-0.1-0.5-0.1c0,0-0.1,0-0.2,0l-0.1,0l0,0
			c0,0,0,0-0.1,0c0,0-0.1,0-0.1,0c0,0,0,0-0.1,0l0,0l0,0l0,0c-0.1,0.1,0,0-0.1,0l0,0l0,0l0,0c-0.3,0.2-0.4,0.4-0.6,0.6
			c-0.2,0.2-0.3,0.4-0.5,0.6c-0.2,0.2-0.3,0.4-0.5,0.6c-0.2,0.2-0.3,0.4-0.5,0.6c-0.2,0.2-0.3,0.4-0.5,0.6l-0.3,0.3l0.2,0.3l0.1,0.1
			c0,0,0,0.1,0.1,0.1c0,0.1,0.1,0.2,0.1,0.3c0,0.1,0.1,0.2,0.1,0.3l0,0.2l0,0.2c0,0.1,0,0.2,0,0.3c0,0.1,0,0.2,0,0.3
			c0,0.2,0,0.5,0,0.7c0,0.5,0,0.9-0.1,1.4c0,0.2-0.1,0.5-0.1,0.7C124.9,87.9,124.9,88.1,124.8,88.4z"/>
	</g>
</g>
<g id="calculator">
	<path fill="#010101" d="M145.5,125c0,0,2.1,15.4,14.2,7.3c12.1-8.2,32.8-3.3,40,1.1s13.1,9.5,10.5,9.7c-2.5,0.2-9.9-4.7-9.9-4.7
		s8.7,9.1,9.2,14.4c0.5,5.3-10.3-11.4-10.3-11.4s8.9,20.4,5,18.1s-13.5-14-13.5-14s5.9,19,1.5,14.6c-4.4-4.4-5.3-12-9.5-15
		s-9.8,6.7-22,3.2s-33.4-11.5-21.5-27.8"/>
	<path fill="#474648" d="M192.1,160.2c0,0-0.1-0.1-0.2-0.2c-0.1-0.1-0.3-0.3-0.5-0.6c-0.4-0.5-1-1.3-1.6-2.4c-0.6-1.1-1.2-2.4-1.9-4
		c-0.7-1.6-1.4-3.4-2.5-5.3c-0.3-0.5-0.6-0.9-1-1.4c-0.4-0.4-0.8-0.9-1.2-1.3L183,145l-0.2-0.1l-0.1-0.1l-0.1-0.1
		c-0.1,0-0.2-0.1-0.2-0.1c-0.3-0.1-0.6-0.2-1-0.3c-0.7-0.1-1.3,0-1.9,0.1c-1.2,0.3-2.4,0.7-3.6,1.2c-1.2,0.5-2.4,1-3.6,1.6
		c-2.4,1.1-4.9,2.2-7.5,3.1c-2.6,0.9-5.3,1.7-8,2c-1.4,0.1-2.7,0.1-4.1,0c-0.2,0-0.3,0-0.5-0.1l-0.2,0l-0.3-0.1
		c-0.3-0.1-0.6-0.2-0.9-0.3c-0.6-0.2-1.2-0.5-1.8-0.9c-2.4-1.3-4.5-3-6.3-4.9c-1.8-1.9-3.4-3.9-4.5-6c-1.2-2.1-1.9-4.2-2.2-6.3
		c-0.2-1-0.2-2-0.2-3c0-0.9,0.1-1.8,0.3-2.7c0.2-0.8,0.4-1.6,0.6-2.3c0.1-0.3,0.2-0.7,0.4-1c0.1-0.2,0.1-0.3,0.2-0.5
		c0.1-0.1,0.1-0.3,0.2-0.4c0.5-1.1,1-2,1.4-2.5c0.2-0.3,0.3-0.5,0.4-0.6c0.1-0.1,0.1-0.2,0.1-0.2s-0.1,0.1-0.2,0.2
		c-0.1,0.1-0.3,0.3-0.5,0.6c-0.4,0.5-0.9,1.3-1.5,2.5c-0.1,0.1-0.1,0.3-0.2,0.4c-0.1,0.1-0.1,0.3-0.2,0.5c-0.2,0.3-0.3,0.6-0.4,1
		c-0.3,0.7-0.5,1.5-0.7,2.3c-0.4,1.7-0.6,3.7-0.3,5.9c0.1,1.1,0.4,2.2,0.7,3.3c0.4,1.1,0.8,2.2,1.4,3.3c1.1,2.2,2.7,4.3,4.6,6.3
		c0.9,1,1.9,1.9,3,2.8c1.1,0.9,2.2,1.7,3.5,2.4c0.6,0.3,1.3,0.7,2,0.9c0.4,0.1,0.7,0.2,1.1,0.3l0.3,0.1l0.3,0c0.2,0,0.4,0.1,0.5,0.1
		c1.4,0.2,2.9,0.2,4.4,0.1c2.9-0.3,5.7-1.1,8.3-2.1c2.6-1,5.1-2.1,7.5-3.3c1.2-0.6,2.4-1.1,3.5-1.6c1.2-0.5,2.3-0.9,3.4-1.2
		c0.6-0.1,1.1-0.2,1.6-0.1c0.3,0,0.5,0.1,0.7,0.2c0.1,0,0.1,0.1,0.2,0.1l0.1,0l0.1,0.1l0.2,0.1l0.2,0.1c0.8,0.7,1.5,1.5,2.1,2.4
		c0.6,0.9,1,1.8,1.5,2.6c0.4,0.9,0.8,1.7,1.2,2.5c0.4,0.8,0.7,1.5,1.1,2.2c0.4,0.7,0.7,1.3,1.1,1.8c0.7,1,1.3,1.8,1.8,2.3
		c0.2,0.2,0.4,0.4,0.5,0.5C192,160.1,192.1,160.2,192.1,160.2z"/>
	<path fill="#474648" d="M145.5,125c0,0,0,0.2,0.1,0.6c0.1,0.4,0.1,1,0.3,1.7c0.2,0.7,0.4,1.6,0.8,2.5c0.4,0.9,0.9,2,1.8,3
		c0.4,0.5,0.9,1,1.5,1.4c0.3,0.2,0.6,0.4,1,0.5c0.3,0.1,0.7,0.3,1.1,0.3c0.2,0,0.4,0.1,0.6,0.1c0.2,0,0.4,0,0.6,0
		c0.4,0,0.8,0,1.2-0.1c0.8-0.1,1.6-0.3,2.3-0.6c0.8-0.3,1.5-0.7,2.2-1.1c0.2-0.1,0.4-0.2,0.5-0.3c0.2-0.1,0.3-0.2,0.5-0.3
		c0.2-0.1,0.3-0.2,0.5-0.3l0.3-0.2l0.3-0.1c0.2-0.1,0.3-0.2,0.5-0.3c0.2-0.1,0.4-0.2,0.5-0.3c0.4-0.2,0.7-0.4,1.1-0.5
		c0.2-0.1,0.4-0.2,0.6-0.2l0.6-0.2l0.6-0.2c0.2-0.1,0.4-0.1,0.6-0.2c1.5-0.5,3.1-0.9,4.7-1.2c1.6-0.3,3.2-0.4,4.7-0.5
		c1.5-0.1,3-0.1,4.5,0c0.7,0,1.4,0.1,2.1,0.1c0.7,0,1.3,0.1,1.9,0.2c0.3,0,0.6,0.1,0.9,0.1c0.3,0,0.6,0.1,0.9,0.1
		c0.6,0.1,1.1,0.2,1.6,0.2c1,0.2,1.9,0.3,2.6,0.5c0.4,0.1,0.7,0.1,1,0.2c0.3,0.1,0.5,0.1,0.7,0.2c0.4,0.1,0.6,0.1,0.6,0.1
		s-0.2-0.1-0.6-0.2c-0.2-0.1-0.4-0.1-0.7-0.2c-0.3-0.1-0.6-0.2-0.9-0.3c-0.7-0.2-1.6-0.4-2.6-0.7c-1-0.2-2.1-0.5-3.4-0.7
		c-0.6-0.1-1.3-0.2-1.9-0.3c-0.7-0.1-1.4-0.2-2.1-0.2c-1.4-0.1-3-0.2-4.5-0.1c-0.2,0-0.4,0-0.6,0c-0.2,0-0.4,0-0.6,0
		c-0.4,0-0.8,0.1-1.2,0.1c-0.4,0-0.8,0.1-1.2,0.1c-0.4,0-0.8,0.1-1.2,0.2c-1.6,0.3-3.3,0.7-4.9,1.2c-0.2,0.1-0.4,0.1-0.6,0.2
		l-0.6,0.2l-0.6,0.2c-0.2,0.1-0.4,0.2-0.6,0.3l-0.6,0.3c-0.2,0.1-0.4,0.2-0.6,0.3c-0.2,0.1-0.4,0.2-0.6,0.3
		c-0.2,0.1-0.4,0.2-0.6,0.3l-0.3,0.2l-0.3,0.2c-0.2,0.1-0.3,0.2-0.5,0.3c-0.2,0.1-0.3,0.2-0.5,0.3c-0.2,0.1-0.3,0.2-0.5,0.3
		c-0.7,0.4-1.3,0.8-2,1.1c-0.7,0.3-1.4,0.5-2.1,0.6c-0.3,0.1-0.7,0.1-1,0.1c-0.2,0-0.3,0-0.5,0c-0.2,0-0.3,0-0.5-0.1
		c-1.3-0.2-2.4-0.9-3.3-1.8c-0.8-0.9-1.4-1.8-1.9-2.7c-0.5-0.9-0.8-1.7-1-2.4c-0.2-0.7-0.4-1.2-0.5-1.6
		C145.5,125.2,145.5,125,145.5,125z"/>
	<g>
	</g>
	<g>
	</g>
	<g>
	</g>
	<g>
	</g>
	<g>
	</g>
	<g>
	</g>
</g>
</svg>
