<?xml version="1.0" encoding="utf-8"?>
<!-- Generator: Adobe Illustrator 19.1.0, SVG Export Plug-In . SVG Version: 6.00 Build 0)  -->
<svg version="1.1" xmlns="http://www.w3.org/2000/svg" xmlns:xlink="http://www.w3.org/1999/xlink" x="0px" y="0px" width="288px"
	 height="288px" viewBox="0 0 288 288" enable-background="new 0 0 288 288" xml:space="preserve">
<g id="bck">
	<path opacity="0.39" fill="#FFFFFF" d="M235.3,226.9c-3.5-0.7-6.5-1.6-9.5-2.7c-6.4-2.3-12.4-5.4-21.7-8
		c-4.9-1.4-10.8-2.7-18.1-3.7c-10.5-1.4-19.4,0.6-28,3.6c-6.8,2.3-13.3,5.2-20.3,7.4c-7.2,2.3-15,3.9-23.8,3.3
		c-11,0-38.7-8.3-33.7-50.6c0.3-2.5,0.7-5.1,1.2-7.9c1.8-9.2,4.9-19.7,9.8-31.8c31.3-77.3,89.7-72.7,122.2-56.4
		c5.8,2.9,11.3,6.6,16.5,11h0c1.9,1.6,3.7,3.2,5.5,5c12.8,12.5,23.1,29,30,47.2c1,2.7,2,5.4,2.9,8.2c2.8,8.7,4.8,17.8,5.9,26.8
		C278.9,215.4,250.5,229.7,235.3,226.9z"/>
</g>
<g id="body">
	<g>
		<path fill="#010101" d="M257.4,120.2c0,0,3.7-7.3-25.1-10.8c0,0-5.7-9.8-22.2-3.9c-16.5,5.9-22,16.1-22,16.1s4.4,0.5,2.4,1.4
			c-2,0.9-43.1,15.3-68.9,69.4h2.6c0,0-23.3,22.6-34.7,36.9c-11.4,14.3,47.3-20.4,58.3-25.5c11-5.1,22.4-5.5,31-1.2s8.6,4.3,8.6,4.3
			s38.1-32,35.7-55.3l1.4,3.7c0,0,3.7-4.7,4.1-9.4c0,0,0.3,1.4-0.1,3.1c-0.3,1.6,4.6-7.6,3.2-14c0,0,1.3,1.4,1.4,2.4
			c0,0,1.5-4.8-0.6-9.9c-2.1-5.1,0.6-7.3,6.7-7.1s15.7-0.2,16.9-1.3L257.4,120.2z"/>
		
			<ellipse transform="matrix(-0.9924 0.1228 -0.1228 -0.9924 465.5283 190.7914)" fill="#FFFFFF" cx="226.9" cy="109.7" rx="1.4" ry="1.9"/>
		<path fill="#010101" d="M183.5,198.1c0,0-10.4,10.8-5.3,13.1c5.1,2.3,8-1.2,16.4,1c8.4,2.2,9.6,4,9.6,4s-5.3-6.8-10.6-6.7
			s-11.8,0.6-13.1-0.1c-1.3-0.7,6.3-11.2,6.3-11.2H183.5z"/>
		<path fill="#010101" d="M162,194.5c0,0,0.6,8.4-3.4,11.4c0,0,3.5,4.9,6.9,5.6c3.4,0.7,8.3-2.9,12.4,2.3c4.2,5.2,4.2,5.2,4.2,5.2
			s-6.9-6.6-9.9-6.1s-12.5-0.1-15.1,3.3c0,0-0.9-2.1,0.7-3.1c0,0,6.3-1.3-3.3-6.3C152.4,205.5,162,194.5,162,194.5z"/>
		<g>
			<path fill="#FCC755" d="M223.9,97c0,0,8.4-1.6,7.1,2s-2.1,6.3-7.9,9c-5.8,2.7-14.1,6.5-17,7.7c-2.9,1.2-11.8,6.4-15.5,5
				c-0.2-1.8-0.2-1.8-0.2-1.8s-7.5-10.9-2.2-21.9s20.1-12.6,26-8.2C220.1,93.1,223.9,97,223.9,97z"/>
			<path fill="#FDDE87" d="M205.6,88.3c0,0,0.2,0,0.4,0.1c0.3,0.1,0.7,0.2,1.2,0.4c0.5,0.2,1.2,0.4,1.9,0.6c0.4,0.1,0.8,0.3,1.2,0.4
				c0.4,0.2,0.8,0.3,1.3,0.6c0.2,0.1,0.4,0.2,0.6,0.3c0.2,0.1,0.4,0.3,0.6,0.4c0.1,0.1,0.2,0.2,0.3,0.2c0.1,0.1,0.2,0.2,0.2,0.3
				c0.1,0.1,0.1,0.2,0.1,0.3c0,0.1,0,0.2,0,0.3l0,0l0,0c0,0,0,0,0,0l0,0c0,0,0,0,0,0.1c0,0,0,0,0,0.1c0,0,0,0,0,0c0,0,0,0,0,0l0,0
				c0,0,0,0,0,0c0,0,0,0,0,0c0,0-0.1,0-0.1,0l0,0l0,0l0,0c0,0-0.1,0-0.1,0c-0.1,0-0.1-0.1-0.2-0.1c-0.1-0.1-0.2-0.1-0.4-0.2
				c-0.5-0.3-1-0.6-1.5-0.9c-0.5-0.3-1.1-0.5-1.7-0.8c-0.3-0.1-0.6-0.2-0.9-0.3c-0.3-0.1-0.6-0.2-0.9-0.2c-0.3-0.1-0.6-0.1-1-0.2
				c-0.2,0-0.3,0-0.5-0.1c-0.2,0-0.3,0-0.5,0c-0.6-0.1-1.3-0.1-2-0.1c-1.3,0-2.6,0.1-3.9,0.3c-0.6,0.1-1.3,0.2-1.9,0.4l-0.1,0l0,0
				l0,0l-0.1,0c-0.1,0-0.1,0-0.2,0.1c-0.1,0-0.3,0.1-0.5,0.1c-0.2,0-0.3,0.1-0.4,0.1c-0.1,0-0.3,0.1-0.4,0.2
				c-0.6,0.2-1.1,0.5-1.6,0.8c-0.5,0.3-1,0.6-1.5,0.9c-0.5,0.3-0.9,0.7-1.3,1c-0.4,0.4-0.7,0.7-1.1,1.1c-0.3,0.4-0.6,0.7-0.9,1.1
				c-0.1,0.1-0.1,0.2-0.2,0.3c-0.1,0.1-0.1,0.2-0.2,0.3c-0.1,0.1-0.1,0.2-0.2,0.3c-0.1,0.1-0.1,0.2-0.2,0.2
				c-0.4,0.6-0.8,1.2-1.1,1.7c-0.3,0.5-0.5,0.9-0.6,1.1c-0.1,0.3-0.2,0.4-0.2,0.4s0.1-0.1,0.2-0.4c0.1-0.1,0.2-0.3,0.3-0.5
				c0.1-0.2,0.3-0.4,0.4-0.6c0.3-0.5,0.7-1,1.2-1.6c0.1-0.1,0.1-0.2,0.2-0.2c0.1-0.1,0.1-0.2,0.2-0.2c0.1-0.1,0.1-0.2,0.2-0.2
				c0.1-0.1,0.1-0.2,0.2-0.2c0.3-0.3,0.6-0.7,0.9-1c0.7-0.7,1.4-1.4,2.3-2c0.9-0.6,1.9-1.2,3-1.6c0.6-0.2,1.1-0.4,1.7-0.5
				c0.2,0,0.3-0.1,0.5-0.1c0.2,0,0.3-0.1,0.5-0.1c0.2,0,0.3-0.1,0.5-0.1c0.1,0,0.2,0,0.2,0c0.1,0,0.2,0,0.2,0
				c1.2-0.2,2.5-0.3,3.8-0.3c1.3,0,2.5,0.1,3.7,0.3c0.3,0.1,0.6,0.1,0.9,0.2c0.3,0.1,0.6,0.2,0.9,0.3c0.6,0.2,1.1,0.4,1.7,0.7
				c0.3,0.1,0.5,0.3,0.8,0.4c0.3,0.1,0.5,0.3,0.8,0.4c0.1,0.1,0.3,0.1,0.4,0.2c0.1,0,0.1,0.1,0.2,0.1c0,0,0.1,0,0.1,0l0.1,0l0,0l0,0
				c0.1,0,0.2,0,0.3,0c0,0,0.1,0,0.1,0c0,0,0.1,0,0.1,0c0,0,0,0,0.1,0c0,0,0,0,0.1,0l0,0c0,0,0,0,0,0l0.1-0.1c0,0,0.1-0.1,0.1-0.1
				c0,0,0-0.1,0.1-0.1l0,0l0,0l0,0l0,0l0-0.1c0,0,0,0,0-0.1l0-0.1c0,0,0,0,0-0.1l0-0.1l0-0.1c0,0,0,0,0-0.1l0-0.1
				c0-0.2-0.1-0.3-0.2-0.5c-0.1-0.1-0.2-0.2-0.3-0.3c-0.1-0.1-0.2-0.2-0.3-0.3c-0.2-0.2-0.5-0.3-0.7-0.4c-0.2-0.1-0.5-0.2-0.7-0.3
				c-0.9-0.4-1.7-0.7-2.5-0.9c-0.8-0.2-1.4-0.4-2-0.5c-0.5-0.1-1-0.2-1.3-0.3C205.8,88.3,205.6,88.3,205.6,88.3z"/>
			<path fill="#FDDE87" d="M216.2,102.3c-0.5-0.8-1-1.6-1.5-2.3c-0.6-0.7-1.2-1.4-1.8-2.1c-0.6-0.7-1.3-1.3-2-1.9
				c-0.4-0.3-0.7-0.6-1.1-0.9c-0.4-0.3-0.8-0.5-1.2-0.8c-0.4-0.2-0.8-0.5-1.2-0.7c-0.1-0.1-0.2-0.1-0.3-0.2l-0.2-0.1l-0.2-0.1
				c-0.1,0-0.2-0.1-0.3-0.1l-0.3-0.1c-0.9-0.3-1.8-0.6-2.7-0.8l-0.2,0l-0.2,0l-0.4,0l-0.4,0c-0.1,0-0.1,0-0.2,0l-0.2,0
				c-0.5,0-0.9,0-1.4,0c-0.2,0-0.5,0-0.7,0.1c-0.1,0-0.2,0-0.4,0l-0.3,0.1l-0.2,0l-0.2,0l-0.3,0.1c-0.1,0-0.2,0.1-0.3,0.1l-0.2,0
				l-0.1,0l-0.1,0l-0.3,0.1c-0.1,0-0.1,0-0.2,0l-0.2,0.1l-0.3,0.1c-0.1,0-0.2,0.1-0.3,0.1c-0.1,0-0.2,0.1-0.3,0.1l-0.3,0.1l-0.2,0.1
				l0,0l0,0l0,0l0,0l-0.1,0l-0.3,0.1c-0.1,0-0.2,0.1-0.3,0.1l-0.3,0.2l-0.3,0.2c-0.1,0.1-0.2,0.1-0.3,0.2l-0.3,0.2
				c-0.1,0-0.1,0.1-0.1,0.1l-0.1,0.1l-0.3,0.2c0,0,0,0-0.1,0l-0.1,0.1l-0.1,0.1c-0.8,0.6-1.5,1.2-2.1,1.9c-0.1,0.1-0.2,0.2-0.2,0.3
				l-0.2,0.3l-0.1,0.1l-0.1,0.1l-0.1,0.1l-0.2,0.3c-0.3,0.4-0.5,0.8-0.8,1.2c0,0-0.1,0.1-0.1,0.2l-0.1,0.2l-0.2,0.3l-0.2,0.3
				l-0.1,0.2c0,0.1-0.1,0.1-0.1,0.2c-0.2,0.4-0.4,0.9-0.5,1.3c-0.3,0.9-0.5,1.8-0.7,2.7c-0.2,0.9-0.3,1.8-0.3,2.8
				c-0.1,0.9,0,1.8,0,2.8h0l0,0l0,0l0,0c0-0.5,0-0.9,0.1-1.4l0-0.2l0-0.2l0-0.3c0-0.1,0-0.2,0-0.3c0-0.1,0-0.2,0-0.3
				c0.1-0.9,0.3-1.8,0.5-2.7c0.2-0.9,0.5-1.8,0.8-2.6c0.3-0.8,0.7-1.7,1.2-2.4c0.2-0.4,0.5-0.8,0.8-1.1l0.2-0.3l0.1-0.1l0.1-0.1
				l0.1-0.1l0.2-0.3c0.1-0.1,0.2-0.2,0.2-0.2c0.6-0.7,1.3-1.3,2-1.8l0.1-0.1l0.1,0c0,0,0,0,0.1,0l0.3-0.2l0.1-0.1
				c0,0,0.1-0.1,0.1-0.1l0.3-0.2c0.1-0.1,0.2-0.1,0.3-0.2l0.3-0.2l0.3-0.2c0.1,0,0.2-0.1,0.3-0.1c0.8-0.4,1.7-0.7,2.5-0.9l0.1,0
				l0.1,0l0.2,0c0.1,0,0.2-0.1,0.3-0.1l0.3-0.1l0.2,0l0.2,0l0.3,0c0.1,0,0.2,0,0.3,0c0.2,0,0.4,0,0.7-0.1c0.4,0,0.9,0,1.3,0l0.2,0
				c0.1,0,0.1,0,0.2,0l0.3,0l0.3,0l0.2,0l0.2,0c0.9,0.1,1.8,0.4,2.6,0.7c0.8,0.3,1.7,0.7,2.5,1.1c0.8,0.4,1.5,1,2.3,1.5
				c0.7,0.6,1.4,1.2,2.1,1.8c0.7,0.6,1.3,1.3,1.9,2c0.3,0.3,0.6,0.7,0.9,1.1C215.6,101.5,215.9,101.9,216.2,102.3z"/>
			<path fill="#E6AF2E" d="M215.5,108.4c0,0,0,0,0-0.1c0-0.1-0.1-0.2-0.1-0.3c-0.1-0.3-0.2-0.7-0.4-1.2c-0.1-0.2-0.2-0.5-0.3-0.8
				c-0.1-0.3-0.2-0.6-0.3-0.8c0-0.1-0.1-0.3-0.1-0.4c0-0.1,0-0.1,0-0.2c0,0,0,0,0,0c0,0,0,0,0,0c0,0,0,0,0,0l0,0l0,0c0,0,0,0,0,0
				l0,0l0,0l0,0l0-0.1c0,0,0,0,0,0c0,0,0,0,0,0c0,0,0-0.1,0.1-0.1c0,0,0-0.1,0.1-0.1c0.1-0.1,0.2-0.2,0.3-0.3
				c0.2-0.2,0.5-0.5,0.7-0.7c0.1-0.1,0.1-0.1,0.2-0.2c0.1-0.1,0.1-0.1,0.2-0.2c0.1-0.1,0.2-0.2,0.4-0.3c0.1,0,0.1-0.1,0.2-0.1
				c0,0,0.1,0,0.1-0.1l0,0l0,0l0,0l0,0c0,0,0,0,0,0l0,0l0,0l0,0c0,0,0,0,0,0c0,0,0,0,0,0c0,0,0,0,0,0c0,0,0,0,0,0c0,0,0,0,0,0
				c0,0,0,0,0,0c0,0,0.1,0.1,0.1,0.1c0.1,0.1,0.2,0.2,0.3,0.3c0.1,0.1,0.2,0.2,0.2,0.3c0.1,0.2,0.3,0.4,0.4,0.6
				c0.1,0.2,0.2,0.3,0.3,0.4c0.2,0.2,0.3,0.4,0.3,0.4s0,0,0-0.1c0-0.1-0.1-0.2-0.1-0.3c0-0.1-0.1-0.3-0.2-0.5
				c-0.1-0.2-0.2-0.4-0.3-0.6c-0.1-0.1-0.1-0.2-0.2-0.4c-0.1-0.1-0.2-0.2-0.3-0.4c-0.1-0.1-0.1-0.1-0.2-0.2c0,0-0.1-0.1-0.2-0.1
				c0,0-0.1,0-0.1,0c0,0,0,0,0,0c0,0,0,0-0.1,0c0,0,0,0,0,0l0,0l0,0l0,0c0,0,0,0,0,0l0,0l0,0l0,0l-0.1,0c0,0-0.1,0-0.1,0.1
				c-0.1,0-0.1,0.1-0.2,0.1c-0.1,0.1-0.3,0.2-0.4,0.3c-0.1,0.1-0.1,0.1-0.2,0.2c-0.1,0.1-0.1,0.1-0.2,0.2c-0.3,0.2-0.5,0.4-0.8,0.7
				c-0.1,0.1-0.2,0.3-0.4,0.4c-0.1,0.1-0.1,0.1-0.2,0.2c0,0,0,0,0,0.1c0,0,0,0,0,0.1l0,0c0,0,0,0,0,0l0,0l0,0c0,0,0,0,0,0l0,0l0,0
				l0,0c0,0,0,0,0,0l0,0c0,0,0,0,0,0.1c0,0,0,0,0,0.1c0,0,0,0.1,0,0.1c0,0,0,0.1,0,0.1c0,0.1,0,0.2,0.1,0.3c0,0.2,0.1,0.3,0.2,0.5
				c0.1,0.3,0.2,0.6,0.4,0.8c0.1,0.3,0.2,0.5,0.4,0.7c0.2,0.4,0.4,0.8,0.6,1.1c0.1,0.1,0.1,0.2,0.2,0.3
				C215.4,108.4,215.5,108.4,215.5,108.4z"/>
			<path fill="#FDDE87" d="M190.1,118.5C190.1,118.5,190.2,118.5,190.1,118.5c0.1,0.1,0.2,0.2,0.3,0.2c0.1,0.1,0.2,0.1,0.4,0.2
				c0.1,0.1,0.3,0.1,0.5,0.2c0,0,0.1,0,0.1,0c0,0,0.1,0,0.1,0c0.1,0,0.2,0.1,0.3,0.1c0.2,0.1,0.5,0.1,0.7,0.1c0.1,0,0.2,0,0.4,0
				c0.1,0,0.1,0,0.2,0c0.1,0,0.1,0,0.2,0c0.3,0,0.5,0,0.8,0c0.1,0,0.3,0,0.4,0c0.1,0,0.3,0,0.4,0c0.1,0,0.3,0,0.4-0.1
				c0.1,0,0.2,0,0.4-0.1c0.1,0,0.2,0,0.3-0.1c0.1,0,0.2-0.1,0.3-0.1c0.1,0,0.2-0.1,0.3-0.1c0.1,0,0.2-0.1,0.3-0.1
				c0.1,0,0.2-0.1,0.3-0.1c0.1,0,0.2-0.1,0.2-0.1c0.1,0,0.1-0.1,0.2-0.1c0.1,0,0.1-0.1,0.2-0.1c0.1,0,0.2-0.1,0.2-0.1
				c0.1,0,0.1,0,0.1,0s0,0-0.1,0c-0.1,0-0.1,0-0.3,0c-0.1,0-0.1,0-0.2,0c-0.1,0-0.1,0-0.2,0c-0.1,0-0.2,0-0.2,0c-0.1,0-0.2,0-0.3,0
				c-0.2,0-0.4,0-0.6,0.1c-0.1,0-0.2,0-0.3,0c-0.1,0-0.1,0-0.2,0c-0.1,0-0.1,0-0.2,0c-0.1,0-0.1,0-0.2,0c-0.1,0-0.1,0-0.2,0
				c-0.1,0-0.1,0-0.2,0c-0.1,0-0.1,0-0.2,0c-0.1,0-0.2,0-0.4,0c-0.1,0-0.2,0-0.4,0c-0.2,0-0.5,0-0.7,0c-0.2,0-0.5,0-0.7,0
				c-0.2,0-0.5,0-0.7,0c-0.2,0-0.4,0-0.6-0.1c-0.2,0-0.4-0.1-0.5-0.1c-0.2,0-0.3-0.1-0.4-0.1C190.4,118.6,190.3,118.5,190.1,118.5
				C190.2,118.5,190.1,118.5,190.1,118.5z"/>
			<path fill="#FDDE87" d="M220.1,105.8c0,0,0.1,0,0.2,0c0.1,0,0.3,0.1,0.5,0.1c0.2,0,0.4,0,0.7,0.1c0.1,0,0.3,0,0.4,0
				c0.1,0,0.3,0,0.4,0c0.1,0,0.1,0,0.2,0c0.1,0,0.1,0,0.2,0c0.1,0,0.3,0,0.4,0c0.1,0,0.2,0,0.4,0c0.1,0,0.2,0,0.3,0
				c0.1,0,0.2,0,0.3,0c0.1,0,0.2,0,0.2,0c0.1,0,0.2,0,0.2,0s-0.1,0-0.2-0.1c-0.1,0-0.1-0.1-0.2-0.1c-0.1,0-0.2-0.1-0.3-0.1
				c0,0-0.1,0-0.2,0c-0.1,0-0.1,0-0.2,0c-0.1,0-0.2,0-0.4-0.1c-0.1,0-0.3,0-0.4,0c-0.1,0-0.1,0-0.2,0c-0.1,0-0.1,0-0.2,0
				c-0.1,0-0.3,0-0.4,0c-0.1,0-0.3,0-0.4,0c-0.1,0-0.2,0-0.4,0.1c-0.1,0-0.2,0-0.3,0.1c-0.2,0.1-0.4,0.1-0.5,0.2
				C220.1,105.8,220.1,105.8,220.1,105.8z"/>
			<path fill="#FEF8BA" d="M190.3,118.8c0,0-0.1-0.2-0.4-0.6c-0.2-0.4-0.6-1-1-1.9c-0.2-0.4-0.4-0.9-0.6-1.4
				c-0.2-0.5-0.4-1.1-0.6-1.6c-0.2-0.6-0.4-1.2-0.6-1.9c-0.1-0.3-0.2-0.7-0.2-1.1c0-0.2-0.1-0.4-0.1-0.5c0-0.1,0-0.2-0.1-0.3
				c0-0.1,0-0.2,0-0.3c-0.3-1.5-0.4-3.2-0.3-4.9c0.1-0.9,0.2-1.8,0.4-2.7c0-0.1,0-0.2,0.1-0.3l0-0.2l0-0.2c0-0.1,0.1-0.2,0.1-0.3
				c0-0.1,0.1-0.2,0.1-0.3l0-0.2l0.1-0.2c0-0.1,0.1-0.2,0.1-0.3c0-0.1,0.1-0.2,0.1-0.3c0-0.1,0-0.1,0.1-0.2l0.1-0.2
				c0.2-0.4,0.4-0.9,0.6-1.3c0.1-0.1,0.1-0.2,0.2-0.3l0.1-0.2l0.1-0.2c0.1-0.1,0.1-0.2,0.2-0.3c0.1-0.1,0.1-0.2,0.2-0.3l0.1-0.2
				l0.1-0.2c0.1-0.1,0.1-0.2,0.2-0.3c0.1-0.1,0.1-0.2,0.2-0.3c0-0.1,0.1-0.1,0.1-0.2l0.1-0.2c0.3-0.4,0.6-0.8,0.9-1.2
				c1.3-1.5,2.8-2.9,4.6-4c1.7-1.1,3.6-1.9,5.6-2.4c0.5-0.1,1-0.2,1.5-0.3c0.5-0.1,1-0.2,1.5-0.2c0.2,0,0.5-0.1,0.7-0.1
				c0.1,0,0.2,0,0.4,0c0.1,0,0.2,0,0.4,0c0.5,0,1,0,1.4,0c0.5,0,1,0,1.4,0.1c0.5,0,0.9,0.1,1.4,0.2c0.5,0.1,0.9,0.2,1.3,0.3
				c0.4,0.1,0.9,0.3,1.3,0.4c0.8,0.3,1.6,0.7,2.2,1.2c0.3,0.2,0.7,0.5,1,0.7c0.3,0.2,0.6,0.5,0.9,0.7c0.6,0.5,1.2,0.9,1.8,1.4
				c0.1,0.1,0.3,0.2,0.4,0.3c0.1,0.1,0.3,0.2,0.4,0.3c0.1,0.1,0.3,0.2,0.4,0.3c0.1,0.1,0.2,0.2,0.4,0.3c1,0.8,1.8,1.5,2.5,2.1
				c0.7,0.6,1.2,1.1,1.6,1.4c0.4,0.3,0.5,0.5,0.5,0.5s-0.2-0.2-0.5-0.5c-0.3-0.3-0.8-0.9-1.5-1.5c-0.7-0.6-1.5-1.4-2.4-2.2
				c-0.1-0.1-0.2-0.2-0.4-0.3c-0.1-0.1-0.2-0.2-0.4-0.3c-0.1-0.1-0.3-0.2-0.4-0.3c-0.1-0.1-0.3-0.2-0.4-0.3
				c-0.5-0.5-1.1-0.9-1.7-1.4c-0.3-0.2-0.6-0.5-0.9-0.7c-0.3-0.2-0.6-0.5-1-0.8c-0.7-0.5-1.5-0.9-2.3-1.3c-0.4-0.2-0.9-0.3-1.3-0.4
				c-0.4-0.1-0.9-0.2-1.4-0.3c-0.5-0.1-0.9-0.2-1.4-0.2c-0.5-0.1-1-0.1-1.5-0.1c-0.5,0-1,0-1.5,0c-0.1,0-0.2,0-0.4,0
				c-0.1,0-0.3,0-0.4,0c-0.3,0-0.5,0-0.8,0.1c-1,0.1-2,0.3-3,0.6c-2,0.5-4,1.3-5.8,2.4c-0.4,0.3-0.9,0.6-1.3,0.9
				c-0.4,0.3-0.8,0.6-1.2,1c-0.4,0.3-0.8,0.7-1.1,1.1c-0.1,0.1-0.2,0.2-0.3,0.3l-0.1,0.1l-0.1,0.1c-0.1,0.1-0.2,0.2-0.3,0.3
				c-0.1,0.1-0.2,0.2-0.2,0.3c-0.3,0.4-0.6,0.8-0.9,1.2l-0.1,0.2c0,0.1-0.1,0.1-0.1,0.2c-0.1,0.1-0.1,0.2-0.2,0.3
				c-0.1,0.1-0.1,0.2-0.2,0.3l-0.1,0.2l-0.1,0.2c-0.1,0.1-0.1,0.2-0.2,0.3c-0.1,0.1-0.1,0.2-0.2,0.3l-0.1,0.2l0,0l0,0l0,0l0,0.1
				c-0.1,0.1-0.1,0.2-0.2,0.3c-0.1,0.1-0.1,0.2-0.1,0.3l-0.1,0.2c0,0.1,0,0.1-0.1,0.2c0,0.1-0.1,0.2-0.1,0.3c0,0.1-0.1,0.2-0.1,0.3
				l-0.1,0.2c0,0.1,0,0.1-0.1,0.2c0,0.1-0.1,0.2-0.1,0.3c0,0.1-0.1,0.2-0.1,0.4l-0.1,0.2l0,0.2c0,0.1-0.1,0.2-0.1,0.3
				c0,0.1-0.1,0.2-0.1,0.4l0,0.2l0,0.2c0,0.1,0,0.2-0.1,0.3c-0.2,0.9-0.3,1.9-0.3,2.8c0,0.9,0,1.8,0.1,2.6c0,0.1,0,0.2,0,0.3
				c0,0.1,0,0.1,0,0.2c0,0.1,0,0.1,0,0.2c0,0.1,0,0.2,0,0.3c0,0.1,0,0.2,0,0.3c0,0.1,0,0.1,0,0.2c0,0.1,0,0.1,0,0.1
				c0,0.1,0,0.2,0,0.3c0,0.1,0,0.2,0.1,0.3c0,0,0,0.1,0,0.1c0,0,0,0.1,0,0.1c0.3,1.5,0.7,2.9,1.2,4.1c0.4,1.2,0.9,2.2,1.3,3
				c0.4,0.8,0.8,1.4,1,1.8c0.1,0.2,0.2,0.4,0.3,0.5C190.3,118.8,190.3,118.8,190.3,118.8z"/>
			<path fill="#E6AF2E" d="M206,115.7c-0.3,0.1-0.7,0.2-1,0.3c-0.3,0.1-0.6,0.3-1,0.4c-0.3,0.1-0.6,0.3-1,0.4l-0.9,0.4l-0.9,0.4
				c-0.3,0.1-0.6,0.3-0.9,0.4c-0.3,0.1-0.6,0.3-0.9,0.4c-0.3,0.1-0.6,0.3-0.9,0.4c-0.3,0.1-0.6,0.3-1,0.4c-0.3,0.1-0.6,0.2-1,0.4
				c-0.3,0.1-0.6,0.2-1,0.3c-0.3,0.1-0.6,0.2-1,0.3c-0.3,0.1-0.7,0.2-1,0.2c-0.1,0-0.2,0-0.2,0c-0.1,0-0.2,0-0.2,0l-0.2,0l-0.2,0
				c-0.3,0-0.7,0.1-1,0l-0.1,0l-0.1,0l-0.1,0c0,0-0.1,0-0.1,0c0,0-0.1,0-0.1,0c-0.2,0-0.3-0.1-0.5-0.1l0.1,0.1l-0.1-0.5l-0.1-0.5
				c0-0.2-0.1-0.3-0.1-0.5c0-0.2-0.1-0.3-0.1-0.5c0,0.2,0,0.3,0,0.5c0,0.2,0,0.3,0,0.5l0,0.5l0,0.5l0,0.1l0.1,0
				c0.3,0.1,0.7,0.2,1,0.3c0.4,0,0.7,0.1,1.1,0c0.4,0,0.7-0.1,1.1-0.1c0.3-0.1,0.7-0.1,1-0.2c0.3-0.1,0.7-0.2,1-0.3
				c0.3-0.1,0.7-0.2,1-0.3c0.3-0.1,0.7-0.2,1-0.4c0.3-0.1,0.6-0.3,1-0.4c0.3-0.1,0.6-0.3,1-0.4c0.3-0.1,0.6-0.3,0.9-0.4
				c0.3-0.2,0.6-0.3,0.9-0.5c0.3-0.2,0.6-0.3,0.9-0.5c0.3-0.2,0.6-0.3,0.9-0.5c0.3-0.2,0.6-0.3,0.9-0.5l0.9-0.5
				C205.4,116,205.7,115.8,206,115.7z"/>
			<path fill="#E6AF2E" d="M223.9,97c0,0,0.2,0,0.4-0.1c0.3,0,0.7-0.1,1.3-0.1c0.5,0,1.2-0.1,2-0.1c0.4,0,0.8,0,1.2,0.1
				c0.4,0.1,0.8,0.1,1.3,0.3c0.1,0,0.2,0.1,0.3,0.1c0,0,0.1,0.1,0.1,0.1c0,0,0,0,0.1,0l0,0l0,0c0.1,0.1,0.1,0.1,0.2,0.2
				c0,0,0,0.1,0.1,0.1l0,0.1c0,0,0,0,0,0.1c0,0.1,0,0.2,0,0.3l0,0c0,0,0,0,0,0l0,0.1c0,0,0,0.1,0,0.1c0,0,0,0.1,0,0.1
				c0,0.1,0,0.1-0.1,0.2l0,0.1l0,0.1c0,0.1-0.1,0.2-0.1,0.4c-0.2,0.5-0.4,1-0.6,1.5c-0.2,0.5-0.5,1-0.7,1.5
				c-0.1,0.3-0.3,0.5-0.4,0.7c-0.1,0.1-0.2,0.2-0.2,0.4c0,0.1-0.1,0.1-0.1,0.2c0,0.1-0.1,0.1-0.1,0.2c0,0.1-0.1,0.1-0.1,0.2
				c0,0.1-0.1,0.1-0.1,0.2c0,0.1-0.1,0.1-0.1,0.2l-0.1,0.1l-0.1,0.1c-0.1,0.1-0.1,0.1-0.2,0.2c-0.1,0.1-0.1,0.1-0.2,0.2
				c-0.1,0.1-0.1,0.1-0.2,0.2c-0.1,0-0.1,0.1-0.2,0.1l-0.1,0.1l-0.1,0.1l-0.2,0.1c-0.1,0.1-0.2,0.2-0.4,0.3
				c-0.1,0.1-0.2,0.2-0.4,0.3c-0.1,0.1-0.3,0.2-0.4,0.3c-0.5,0.3-1,0.6-1.6,0.9c-0.5,0.3-1.1,0.5-1.7,0.8c-0.6,0.3-1.1,0.5-1.7,0.8
				c-0.3,0.1-0.6,0.3-0.8,0.4c-0.3,0.1-0.5,0.3-0.8,0.4c-0.5,0.3-1.1,0.5-1.6,0.8c-1.1,0.5-2.1,1-3,1.4c-0.5,0.2-1,0.5-1.4,0.7
				c-0.5,0.2-0.9,0.4-1.3,0.6c-0.4,0.2-0.8,0.4-1.2,0.6c-0.4,0.2-0.7,0.4-1.1,0.5c-0.7,0.3-1.3,0.6-1.8,0.9
				c-0.5,0.2-0.9,0.4-1.1,0.5c-0.3,0.1-0.4,0.2-0.4,0.2s0.1-0.1,0.4-0.2c0.1-0.1,0.3-0.1,0.5-0.2c0.2-0.1,0.4-0.2,0.7-0.3
				c0.5-0.2,1.1-0.4,1.8-0.7c0.4-0.1,0.7-0.3,1.1-0.5c0.4-0.2,0.8-0.3,1.2-0.5c0.4-0.2,0.9-0.4,1.3-0.6c0.5-0.2,0.9-0.4,1.4-0.6
				c1-0.4,2-0.9,3.1-1.4c0.5-0.2,1.1-0.5,1.6-0.7c0.3-0.1,0.6-0.2,0.8-0.4c0.3-0.1,0.6-0.3,0.8-0.4c0.6-0.3,1.1-0.5,1.7-0.8
				c0.6-0.3,1.1-0.5,1.7-0.8c0.6-0.3,1.1-0.6,1.6-1c0.5-0.3,1-0.7,1.5-1.2c0.5-0.4,0.9-0.9,1.3-1.4c0-0.1,0.1-0.1,0.1-0.2
				c0-0.1,0.1-0.1,0.1-0.2c0.1-0.1,0.2-0.3,0.3-0.4c0.2-0.3,0.3-0.5,0.5-0.8c0.3-0.5,0.5-1.1,0.7-1.6c0.2-0.5,0.4-1.1,0.6-1.6
				c0-0.1,0.1-0.3,0.1-0.4l0-0.1l0-0.1c0-0.1,0-0.1,0.1-0.2c0,0,0-0.1,0-0.1c0,0,0-0.1,0-0.1l0-0.1c0,0,0,0,0-0.1l0-0.1
				c0-0.1,0-0.3-0.1-0.4c0,0,0-0.1,0-0.1c0,0,0-0.1,0-0.1c0-0.1-0.1-0.1-0.1-0.2c-0.1-0.1-0.2-0.2-0.3-0.3l0,0l0,0
				c0,0-0.1,0-0.1-0.1c-0.1,0-0.1-0.1-0.2-0.1c-0.1-0.1-0.2-0.1-0.3-0.2c-0.2-0.1-0.5-0.1-0.7-0.2c-0.2,0-0.4-0.1-0.7-0.1
				c-0.4,0-0.8,0-1.2,0c-0.8,0-1.4,0.1-2,0.2c-0.5,0.1-1,0.2-1.3,0.2C224.1,97,223.9,97,223.9,97z"/>
			<path fill="#FEF8BA" d="M223.9,97c0,0.1,0,0.2,0,0.4l0,0.2l0,0.2c0,0.1,0,0.1,0,0.2c0,0.1,0,0.1,0,0.2l-0.1,0.2
				c0,0.1,0,0.1-0.1,0.2c-0.2,0.5-0.3,0.9-0.5,1.3c0,0.1-0.1,0.2-0.2,0.3l-0.1,0.2c0,0.1-0.1,0.1-0.1,0.2c-0.1,0.2-0.2,0.4-0.4,0.6
				l-0.2,0.3l-0.2,0.3l-0.1,0.1c0,0-0.1,0.1-0.1,0.1l-0.2,0.3c-0.1,0.2-0.3,0.4-0.4,0.6l-0.1,0.1L221,103l-0.1,0.1l-0.2,0.3
				c-0.1,0.1-0.2,0.2-0.2,0.3l-0.2,0.3l-0.2,0.3c0,0-0.1,0.1-0.1,0.1l-0.1,0.1l-0.2,0.3c-0.1,0.1-0.2,0.2-0.3,0.3l-0.5,0.5
				c-0.1,0.1-0.2,0.2-0.3,0.2l-0.3,0.2l-0.3,0.2l-0.3,0.2l-0.5,0.5l-0.6,0.4l-0.3,0.2l-0.3,0.2l-0.6,0.4c-0.1,0.1-0.2,0.1-0.3,0.2
				l-0.3,0.2c-0.2,0.1-0.4,0.3-0.6,0.4l-0.6,0.4c-0.2,0.1-0.4,0.3-0.6,0.4l-0.6,0.4l-0.3,0.2c-0.1,0.1-0.2,0.1-0.3,0.2l-0.6,0.4
				c-0.2,0.1-0.4,0.2-0.6,0.4l-0.6,0.3l-0.3,0.2l-0.2,0.1l-0.2,0.1l-1.3,0.7l0.3,0c-0.5-0.2-0.9-0.4-1.4-0.6c-0.1,0-0.2-0.1-0.4-0.1
				c-0.1,0-0.3-0.1-0.4-0.1c-0.3-0.1-0.5-0.1-0.8-0.1c-0.3,0-0.6,0.1-0.8,0.1c-0.3,0.1-0.5,0.2-0.8,0.3c-0.5,0.2-0.9,0.4-1.4,0.6
				l-1.4,0.7l-1.4,0.6l-0.7,0.3c-0.2,0.1-0.5,0.2-0.7,0.3l-0.7,0.3l-0.7,0.3l-0.3,0.2l-0.2,0.1l-0.1,0l0,0l0,0c0,0,0,0,0,0l0,0l0,0
				l-0.3,0.1c-0.1,0-0.2,0.1-0.3,0.1c-0.5,0.2-0.9,0.3-1.4,0.4c-0.5,0.1-1,0.1-1.5,0c-0.5-0.1-1-0.2-1.4-0.4
				c-0.5-0.2-0.9-0.4-1.3-0.7c-0.1-0.1-0.2-0.2-0.3-0.2c0,0-0.1-0.1-0.1-0.1l-0.1-0.1c-0.1-0.1-0.2-0.2-0.3-0.3l-0.1-0.1
				c0,0-0.1-0.1-0.1-0.1c-0.3-0.4-0.6-0.8-0.9-1.2c-0.3-0.4-0.5-0.9-0.8-1.3v0l0,0l0,0v0c0.2,0.5,0.4,0.9,0.7,1.4
				c0.3,0.4,0.5,0.9,0.9,1.3c0.3,0.4,0.7,0.8,1.1,1.1c0.4,0.3,0.8,0.6,1.3,0.8c0.5,0.2,1,0.4,1.5,0.4c0.5,0.1,1,0.1,1.6,0
				c0.5-0.1,1-0.2,1.5-0.3c0.1,0,0.3-0.1,0.4-0.1l0.4-0.1l0,0l0,0l0,0l0.1,0l0.2-0.1l0.3-0.1l0.7-0.3c0.2-0.1,0.5-0.2,0.7-0.3
				c0.2-0.1,0.5-0.2,0.7-0.3l0.7-0.3c0.5-0.2,0.9-0.4,1.4-0.6l1.4-0.6c0.5-0.2,0.9-0.4,1.4-0.6c0.2-0.1,0.5-0.2,0.7-0.2
				c0.2-0.1,0.4-0.1,0.7-0.1c0.2,0,0.4,0,0.7,0.1c0.1,0,0.2,0.1,0.3,0.1c0.1,0,0.2,0.1,0.3,0.1c0.5,0.2,0.9,0.4,1.4,0.5l0.1,0.1
				l0.1-0.1l1.3-0.7l0.2-0.1l0.2-0.1l0.3-0.2l0.6-0.4c0.2-0.1,0.4-0.2,0.6-0.4l0.6-0.4c0.1-0.1,0.2-0.1,0.3-0.2l0.3-0.2l0.6-0.4
				c0.2-0.1,0.4-0.3,0.6-0.4l0.6-0.4c0.1,0,0.1-0.1,0.1-0.1l0.1-0.1l0.3-0.2l0.3-0.2c0.1-0.1,0.2-0.1,0.3-0.2l0.6-0.4
				c0.1-0.1,0.2-0.1,0.3-0.2l0.3-0.2l0.6-0.5l0.5-0.5l0.3-0.2l0.3-0.3l0.3-0.3c0.1-0.1,0.2-0.2,0.3-0.3l0.5-0.5
				c0.1-0.1,0.2-0.2,0.2-0.3l0.2-0.3l0.1-0.1c0,0,0.1-0.1,0.1-0.1l0.2-0.3l0.2-0.3c0.1-0.1,0.2-0.2,0.2-0.3l0.2-0.3l0.1-0.1l0.1-0.1
				l0.1-0.1l0.2-0.3c0.1-0.1,0.1-0.2,0.2-0.3l0.2-0.3c0-0.1,0.1-0.1,0.1-0.2l0.1-0.2l0.2-0.3l0.2-0.3c0.1-0.2,0.2-0.4,0.3-0.6
				c0.1-0.1,0.1-0.2,0.2-0.3c0.1-0.1,0.1-0.2,0.1-0.3c0.2-0.4,0.3-0.9,0.5-1.4c0-0.1,0-0.1,0-0.2l0-0.2c0-0.1,0-0.1,0-0.2
				c0-0.1,0-0.1,0-0.2C223.9,97.5,223.9,97.3,223.9,97z"/>
		</g>
		<g>
			<path fill="#6B5F48" d="M224.4,190.5c5.9-3.8,8.5-11.8,8.5-11.8c-8.2-6.6-30-19.8-44-28c-14-8.2-31.1-22.4-31.1-22.4l-1.3,0.8
				c4.4,3.6,18.1,14.4,29.7,21.2c14,8.2,35.8,21.3,44,28c0,0-2.2,7-7.4,11.1C223.8,190.1,224.4,190.5,224.4,190.5z"/>
			<path fill="#A89472" d="M222.7,189.4c5.2-4,7.4-11.1,7.4-11.1c-8.2-6.6-30-19.8-44-28c-11.6-6.8-25.3-17.6-29.7-21.2l-7.9,4.9
				c0,0,26.4,11.4,35.4,23.8C191.8,168.7,216,185,222.7,189.4z"/>
			<path fill="#7F8283" d="M152.9,140l7-10.4l0,0l1.5-2.2c0,0-0.9,0.3-2.1-0.2c-1.3-0.6-3-2.1-4.4-6.1c-0.4-1.1-0.5-2.1-0.5-2.9
				c0-0.3,0.1-0.7,0.1-1c-1.2,1.2-1.8,3-1,5.7c0,0.1,0,0.2,0.1,0.3c1.3,3.8,2.9,5.4,4.2,6l-5.5,8.1c0,0-12-12.9-12.1,1
				c0,1.8,0.2,4,0.6,6.8c-0.4-3.7-0.3-6.2,0.1-7.8C143.4,129.8,152.9,140,152.9,140z"/>
			<path fill="#A1A2A5" d="M141.9,157.6l1.6-0.2c-0.2-0.9-0.5-1.8-0.6-2.6c-0.9-3.8-1.5-7-1.8-9.6c0,0,0,0,0,0
				c-0.4-2.8-0.7-5-0.6-6.8c0-13.9,12.1-1,12.1-1l5.5-8.1c-1.3-0.6-2.9-2.2-4.2-6c0-0.1-0.1-0.2-0.1-0.3c-0.9-2.8-0.2-4.6,1-5.7
				c0.9-3.9,6.4-4.2,6.4-4.2s1.2-1.1,2.1-2.3c0.8-1,1.5-2.1,1.1-2.7c-0.1-0.2-0.4-0.5-0.8-0.9c-2.1-2.1-7-6.6-7.9-5.1
				c-1,1.8-2.7,4.1-2.7,4.1c0,0.1,0,0.2,0.1,0.3c0.5,3.5-0.1,5.5-1.3,6.6c0,0,0,0,0,0c-2.3,2.3-6.5,1.1-6.5,1.1
				c-2.5,2.6-4.4,5.2-5.8,7.9c-3.3,6.2-3.9,12.5-3.3,18c0,0,0,0.1,0,0.1c1,9.2,5.2,16.3,5.8,17.3
				C141.9,157.5,141.9,157.5,141.9,157.6C141.9,157.6,141.9,157.6,141.9,157.6z"/>
			<path fill="#D8D9DA" d="M141.8,155.6c0,0-0.1-0.2-0.2-0.5c-0.1-0.3-0.3-0.7-0.4-1.3c-0.2-0.6-0.4-1.2-0.7-2
				c-0.2-0.8-0.5-1.6-0.8-2.6c-0.3-1-0.5-2-0.8-3.1c-0.3-1.1-0.5-2.3-0.7-3.5c0-0.3-0.1-0.6-0.1-0.9c0-0.3-0.1-0.6-0.1-0.9
				c0-0.3-0.1-0.6-0.1-0.9c0-0.3-0.1-0.6-0.1-1c-0.1-1.3-0.1-2.6,0-3.9c0.1-1.3,0.3-2.6,0.6-3.8l0-0.1l0,0l0-0.1l0.1-0.2
				c0.1-0.2,0.1-0.3,0.2-0.5c0.1-0.3,0.2-0.6,0.3-0.9c0.2-0.6,0.4-1.2,0.6-1.8c0.2-0.6,0.4-1.1,0.7-1.7c0.1-0.3,0.2-0.5,0.3-0.8
				c0.1-0.3,0.2-0.5,0.3-0.8c0.2-0.5,0.5-1,0.7-1.5c0.1-0.2,0.2-0.5,0.3-0.7c0.1-0.2,0.2-0.5,0.4-0.7c0.1-0.2,0.2-0.4,0.3-0.6
				c0.1-0.2,0.2-0.4,0.3-0.6c0.2-0.4,0.4-0.8,0.6-1.1c0.2-0.3,0.4-0.7,0.6-1c0.2-0.3,0.4-0.6,0.5-0.8c0.3-0.5,0.6-0.9,0.8-1.1
				c0.2-0.3,0.3-0.4,0.3-0.4s-0.1,0.1-0.3,0.3c-0.1,0.1-0.2,0.3-0.4,0.4c-0.2,0.2-0.3,0.4-0.5,0.6c-0.2,0.2-0.4,0.5-0.6,0.7
				c-0.2,0.3-0.5,0.6-0.7,0.9c-0.5,0.7-1,1.4-1.6,2.3c-0.1,0.2-0.3,0.4-0.4,0.7c-0.1,0.2-0.3,0.5-0.4,0.7c-0.3,0.5-0.5,1-0.8,1.5
				c-0.1,0.3-0.3,0.5-0.4,0.8c-0.1,0.3-0.3,0.5-0.4,0.8c-0.1,0.3-0.3,0.6-0.4,0.8c-0.1,0.3-0.3,0.6-0.4,0.9
				c-0.2,0.6-0.5,1.2-0.7,1.8c-0.1,0.3-0.2,0.6-0.3,0.9c-0.1,0.2-0.1,0.3-0.2,0.5l-0.1,0.2l0,0.1l0,0.1l0,0.1
				c-0.4,1.3-0.6,2.7-0.7,4c-0.1,1.4,0,2.7,0.1,4.1c0,0.3,0.1,0.7,0.1,1c0,0.3,0.1,0.7,0.1,1c0.1,0.3,0.1,0.6,0.2,1
				c0.1,0.3,0.1,0.6,0.2,0.9c0.3,1.2,0.6,2.4,0.9,3.5c0.3,1.1,0.7,2.1,1,3.1c0.3,0.9,0.7,1.8,1,2.5c0.3,0.8,0.6,1.4,0.9,1.9
				c0.2,0.5,0.5,0.9,0.6,1.2C141.7,155.5,141.8,155.6,141.8,155.6z"/>
			<path fill="#D8D9DA" d="M153.6,112.1c0.1-0.2,0.2-0.4,0.3-0.7c0.1-0.2,0.2-0.5,0.3-0.7c0.2-0.5,0.3-0.9,0.4-1.4
				c0-0.2,0.1-0.5,0.1-0.8c0-0.1,0-0.3,0-0.4c0-0.1,0-0.3,0-0.4l0-0.2l0-0.2c0-0.1,0-0.3-0.1-0.4c0-0.1-0.1-0.3-0.1-0.4
				c0-0.1-0.1-0.1-0.1-0.2l-0.1-0.2l0,0.7l1-1.1l0.5-0.5c0.2-0.2,0.3-0.3,0.5-0.5c0.2-0.2,0.3-0.3,0.5-0.4l0,0l0,0l0,0
				c0,0,0.1,0-0.1,0l0,0l0,0l0,0c0,0,0,0,0,0c0,0,0,0-0.1,0c0,0,0,0,0,0l0,0c0,0,0,0,0,0c0,0,0,0,0,0c0.1,0,0.1,0,0.2,0
				c0.2,0.1,0.4,0.1,0.6,0.2c0.2,0.1,0.4,0.2,0.6,0.3c0.4,0.2,0.8,0.5,1.2,0.7c0.2,0.1,0.4,0.3,0.6,0.4c0.2,0.1,0.4,0.3,0.6,0.4
				c0.4,0.3,0.8,0.6,1.2,0.8c0.2,0.1,0.4,0.3,0.6,0.4c0.2,0.2,0.4,0.3,0.6,0.5c-0.1-0.2-0.3-0.4-0.4-0.6c-0.1-0.2-0.3-0.4-0.5-0.6
				c-0.2-0.2-0.3-0.4-0.5-0.6c-0.2-0.2-0.3-0.4-0.5-0.5c-0.2-0.2-0.4-0.3-0.6-0.5c-0.2-0.2-0.4-0.3-0.6-0.5
				c-0.2-0.2-0.4-0.3-0.6-0.5c-0.2-0.1-0.4-0.3-0.6-0.4c-0.2-0.1-0.4-0.3-0.7-0.4c-0.2-0.1-0.5-0.2-0.8-0.3c-0.1,0-0.3-0.1-0.5-0.1
				c0,0-0.1,0-0.2,0l-0.1,0l0,0c0,0,0,0-0.1,0c0,0-0.1,0-0.1,0c0,0,0,0-0.1,0l0,0l0,0l0,0c-0.1,0.1,0,0-0.1,0l0,0l0,0l0,0
				c-0.3,0.2-0.4,0.4-0.6,0.6c-0.2,0.2-0.3,0.4-0.5,0.6c-0.2,0.2-0.3,0.4-0.5,0.6c-0.2,0.2-0.3,0.4-0.5,0.6
				c-0.2,0.2-0.3,0.4-0.5,0.6l-0.3,0.3l0.2,0.3l0.1,0.1c0,0,0,0.1,0.1,0.1c0,0.1,0.1,0.2,0.1,0.3c0,0.1,0.1,0.2,0.1,0.3l0,0.2l0,0.2
				c0,0.1,0,0.2,0,0.3c0,0.1,0,0.2,0,0.3c0,0.2,0,0.5,0,0.7c0,0.5,0,0.9-0.1,1.4c0,0.2-0.1,0.5-0.1,0.7
				C153.6,111.6,153.6,111.9,153.6,112.1z"/>
		</g>
		<path fill="#010101" d="M174.3,148.7c0,0,2.1,15.4,14.2,7.3s32.8-3.3,40,1.1s13.1,9.5,10.5,9.7c-2.5,0.2-9.9-4.7-9.9-4.7
			s8.7,9.1,9.2,14.4c0.5,5.3-10.3-11.4-10.3-11.4s8.9,20.4,5,18.1s-13.5-14-13.5-14s5.9,19,1.5,14.6c-4.4-4.4-5.3-12-9.5-15
			c-4.2-3-9.8,6.7-22,3.2c-12.1-3.5-33.4-11.5-21.5-27.8"/>
		<path fill="#474648" d="M220.8,183.9c0,0-0.1-0.1-0.2-0.2c-0.1-0.1-0.3-0.3-0.5-0.6c-0.4-0.5-1-1.3-1.6-2.4
			c-0.6-1.1-1.2-2.4-1.9-4c-0.7-1.6-1.4-3.4-2.5-5.3c-0.3-0.5-0.6-0.9-1-1.4c-0.4-0.4-0.8-0.9-1.2-1.3l-0.2-0.1l-0.2-0.1l-0.1-0.1
			l-0.1-0.1c-0.1,0-0.2-0.1-0.2-0.1c-0.3-0.1-0.6-0.2-1-0.3c-0.7-0.1-1.3,0-1.9,0.1c-1.2,0.3-2.4,0.7-3.6,1.2
			c-1.2,0.5-2.4,1-3.6,1.6c-2.4,1.1-4.9,2.2-7.5,3.1c-2.6,0.9-5.3,1.7-8,2c-1.4,0.1-2.7,0.1-4.1,0c-0.2,0-0.3,0-0.5-0.1l-0.2,0
			l-0.3-0.1c-0.3-0.1-0.6-0.2-0.9-0.3c-0.6-0.2-1.2-0.5-1.8-0.9c-2.4-1.3-4.5-3-6.3-4.9c-1.8-1.9-3.4-3.9-4.5-6
			c-1.2-2.1-1.9-4.2-2.2-6.3c-0.2-1-0.2-2-0.2-3c0-0.9,0.1-1.8,0.3-2.7c0.2-0.8,0.4-1.6,0.6-2.3c0.1-0.3,0.2-0.7,0.4-1
			c0.1-0.2,0.1-0.3,0.2-0.5c0.1-0.1,0.1-0.3,0.2-0.4c0.5-1.1,1-2,1.4-2.5c0.2-0.3,0.3-0.5,0.4-0.6c0.1-0.1,0.1-0.2,0.1-0.2
			s-0.1,0.1-0.2,0.2c-0.1,0.1-0.3,0.3-0.5,0.6c-0.4,0.5-0.9,1.3-1.5,2.5c-0.1,0.1-0.1,0.3-0.2,0.4c-0.1,0.1-0.1,0.3-0.2,0.5
			c-0.2,0.3-0.3,0.6-0.4,1c-0.3,0.7-0.5,1.5-0.7,2.3c-0.4,1.7-0.6,3.7-0.3,5.9c0.1,1.1,0.4,2.2,0.7,3.3c0.4,1.1,0.8,2.2,1.4,3.3
			c1.1,2.2,2.7,4.3,4.6,6.3c0.9,1,1.9,1.9,3,2.8c1.1,0.9,2.2,1.7,3.5,2.4c0.6,0.3,1.3,0.7,2,0.9c0.4,0.1,0.7,0.2,1.1,0.3l0.3,0.1
			l0.3,0c0.2,0,0.4,0.1,0.5,0.1c1.4,0.2,2.9,0.2,4.4,0.1c2.9-0.3,5.7-1.1,8.3-2.1c2.6-1,5.1-2.1,7.5-3.3c1.2-0.6,2.4-1.1,3.5-1.6
			c1.2-0.5,2.3-0.9,3.4-1.2c0.6-0.1,1.1-0.2,1.6-0.1c0.3,0,0.5,0.1,0.7,0.2c0.1,0,0.1,0.1,0.2,0.1l0.1,0l0.1,0.1l0.2,0.1l0.2,0.1
			c0.8,0.7,1.5,1.5,2.1,2.4c0.6,0.9,1,1.8,1.5,2.6c0.4,0.9,0.8,1.7,1.2,2.5c0.4,0.8,0.7,1.5,1.1,2.2c0.4,0.7,0.7,1.3,1.1,1.8
			c0.7,1,1.3,1.8,1.8,2.3c0.2,0.2,0.4,0.4,0.5,0.5C220.7,183.8,220.8,183.9,220.8,183.9z"/>
		<path fill="#474648" d="M174.3,148.7c0,0,0,0.2,0.1,0.6c0.1,0.4,0.1,1,0.3,1.7c0.2,0.7,0.4,1.6,0.8,2.5c0.4,0.9,0.9,2,1.8,3
			c0.4,0.5,0.9,1,1.5,1.4c0.3,0.2,0.6,0.4,1,0.5c0.3,0.1,0.7,0.3,1.1,0.3c0.2,0,0.4,0.1,0.6,0.1c0.2,0,0.4,0,0.6,0
			c0.4,0,0.8,0,1.2-0.1c0.8-0.1,1.6-0.3,2.3-0.6c0.8-0.3,1.5-0.7,2.2-1.1c0.2-0.1,0.4-0.2,0.5-0.3c0.2-0.1,0.3-0.2,0.5-0.3
			c0.2-0.1,0.3-0.2,0.5-0.3l0.3-0.2l0.3-0.1c0.2-0.1,0.3-0.2,0.5-0.3c0.2-0.1,0.4-0.2,0.5-0.3c0.4-0.2,0.7-0.4,1.1-0.5
			c0.2-0.1,0.4-0.2,0.6-0.2l0.6-0.2l0.6-0.2c0.2-0.1,0.4-0.1,0.6-0.2c1.5-0.5,3.1-0.9,4.7-1.2c1.6-0.3,3.2-0.4,4.7-0.5
			c1.5-0.1,3-0.1,4.5,0c0.7,0,1.4,0.1,2.1,0.1c0.7,0,1.3,0.1,1.9,0.2c0.3,0,0.6,0.1,0.9,0.1c0.3,0,0.6,0.1,0.9,0.1
			c0.6,0.1,1.1,0.2,1.6,0.2c1,0.2,1.9,0.3,2.6,0.5c0.4,0.1,0.7,0.1,1,0.2c0.3,0.1,0.5,0.1,0.7,0.2c0.4,0.1,0.6,0.1,0.6,0.1
			s-0.2-0.1-0.6-0.2c-0.2-0.1-0.4-0.1-0.7-0.2c-0.3-0.1-0.6-0.2-0.9-0.3c-0.7-0.2-1.6-0.4-2.6-0.7c-1-0.2-2.1-0.5-3.4-0.7
			c-0.6-0.1-1.3-0.2-1.9-0.3c-0.7-0.1-1.4-0.2-2.1-0.2c-1.4-0.1-3-0.2-4.5-0.1c-0.2,0-0.4,0-0.6,0c-0.2,0-0.4,0-0.6,0
			c-0.4,0-0.8,0.1-1.2,0.1c-0.4,0-0.8,0.1-1.2,0.1c-0.4,0-0.8,0.1-1.2,0.2c-1.6,0.3-3.3,0.7-4.9,1.2c-0.2,0.1-0.4,0.1-0.6,0.2
			l-0.6,0.2l-0.6,0.2c-0.2,0.1-0.4,0.2-0.6,0.3l-0.6,0.3c-0.2,0.1-0.4,0.2-0.6,0.3c-0.2,0.1-0.4,0.2-0.6,0.3
			c-0.2,0.1-0.4,0.2-0.6,0.3L189,155l-0.3,0.2c-0.2,0.1-0.3,0.2-0.5,0.3c-0.2,0.1-0.3,0.2-0.5,0.3c-0.2,0.1-0.3,0.2-0.5,0.3
			c-0.7,0.4-1.3,0.8-2,1.1c-0.7,0.3-1.4,0.5-2.1,0.6c-0.3,0.1-0.7,0.1-1,0.1c-0.2,0-0.3,0-0.5,0c-0.2,0-0.3,0-0.5-0.1
			c-1.3-0.2-2.4-0.9-3.3-1.8c-0.8-0.9-1.4-1.8-1.9-2.7c-0.5-0.9-0.8-1.7-1-2.4c-0.2-0.7-0.4-1.2-0.5-1.6
			C174.3,148.9,174.3,148.7,174.3,148.7z"/>
	</g>
</g>
<g id="glasses">
</g>
<g id="ear">
</g>
<g id="calculator">
	<g>
		<rect x="16.4" y="55.3" fill="none" width="197.6" height="96.8"/>
		<path fill="#553278" d="M19,72V57.8h-2.4v-2.5h8.2v2.5h-2.4V72H19z"/>
		<path fill="#553278" d="M25.2,68.8v-5.1c0-1.3,0.3-2.3,0.9-3c0.6-0.7,1.6-1.1,2.9-1.1c1.3,0,2.3,0.4,2.9,1.1
			c0.6,0.7,0.9,1.7,0.9,3v5.1c0,1-0.4,1.8-1.1,2.5c-0.7,0.6-1.6,1-2.7,1c-0.7,0-1.3-0.1-1.9-0.4c-0.6-0.3-1-0.7-1.4-1.2
			C25.4,70.1,25.2,69.5,25.2,68.8z M29.7,68.9v-6c0-0.6-0.2-0.9-0.7-0.9c-0.4,0-0.6,0.3-0.6,0.9v6c0,0.1,0,0.2,0,0.3
			c0,0.1,0,0.2,0.1,0.3c0,0.1,0.1,0.2,0.2,0.3c0.1,0.1,0.2,0.1,0.4,0.1C29.5,69.9,29.7,69.5,29.7,68.9z"/>
		<path fill="#553278" d="M34.3,68.8v-5.1c0-1.3,0.3-2.3,0.9-3c0.6-0.7,1.6-1.1,2.9-1.1c1.3,0,2.3,0.4,2.9,1.1
			c0.6,0.7,0.9,1.7,0.9,3v5.1c0,1-0.4,1.8-1.1,2.5c-0.7,0.6-1.6,1-2.7,1c-0.7,0-1.3-0.1-1.9-0.4c-0.6-0.3-1-0.7-1.4-1.2
			C34.4,70.1,34.3,69.5,34.3,68.8z M38.7,68.9v-6c0-0.6-0.2-0.9-0.7-0.9c-0.4,0-0.6,0.3-0.6,0.9v6c0,0.1,0,0.2,0,0.3
			c0,0.1,0,0.2,0.1,0.3c0,0.1,0.1,0.2,0.2,0.3c0.1,0.1,0.2,0.1,0.4,0.1C38.5,69.9,38.7,69.5,38.7,68.9z"/>
		<path fill="#553278" d="M43.4,72V55.3h3.1V72H43.4z"/>
		<path fill="#553278" d="M52.2,65.8V55.3h3.4v10.4c0,0.6,0,1,0,1.3c0,0.3,0,0.6,0,1c0,0.4,0.1,0.7,0.1,0.8c0.1,0.2,0.1,0.3,0.3,0.5
			c0.1,0.2,0.2,0.3,0.4,0.4c0.2,0.1,0.4,0.1,0.6,0.1c0.2,0,0.5,0,0.6-0.1c0.2-0.1,0.3-0.2,0.4-0.3c0.1-0.2,0.2-0.3,0.3-0.5
			c0.1-0.2,0.1-0.4,0.1-0.8c0-0.4,0-0.7,0-1c0-0.3,0-0.7,0-1.3c0,0,0,0,0-0.1V55.3h3.4v10.5c0,0.5,0,1,0,1.4c0,0.4-0.1,0.9-0.2,1.3
			c-0.1,0.5-0.2,0.9-0.4,1.2s-0.3,0.7-0.6,1c-0.2,0.3-0.5,0.6-0.9,0.8c-0.3,0.2-0.7,0.4-1.2,0.5c-0.5,0.1-1,0.2-1.6,0.2
			s-1.1-0.1-1.6-0.2c-0.5-0.1-0.9-0.3-1.2-0.5c-0.3-0.2-0.6-0.5-0.9-0.8c-0.2-0.3-0.4-0.7-0.6-1s-0.3-0.8-0.4-1.2
			c-0.1-0.5-0.1-0.9-0.2-1.3C52.2,66.8,52.2,66.3,52.2,65.8z"/>
		<path fill="#553278" d="M63.2,69.1l2.4-0.9c0.1,0.2,0.1,0.3,0.1,0.4c0,0.1,0.1,0.3,0.2,0.4c0.1,0.2,0.2,0.3,0.3,0.5
			c0.1,0.1,0.2,0.2,0.3,0.3c0.1,0.1,0.3,0.1,0.4,0.1c0.4,0,0.6-0.2,0.6-0.7c0-0.2,0-0.3-0.1-0.5c-0.1-0.2-0.2-0.3-0.2-0.5
			c-0.1-0.1-0.2-0.3-0.4-0.5c-0.2-0.2-0.4-0.4-0.5-0.5c-0.1-0.1-0.3-0.3-0.6-0.5l-0.5-0.4c-0.7-0.6-1.2-1.1-1.6-1.7
			c-0.4-0.6-0.6-1.2-0.6-1.9c0-0.5,0.1-1,0.3-1.4c0.2-0.4,0.5-0.8,0.9-1s0.8-0.5,1.2-0.6c0.5-0.1,0.9-0.2,1.5-0.2
			c0.5,0,0.9,0.1,1.3,0.3c0.4,0.2,0.8,0.4,1.1,0.8c0.3,0.3,0.6,0.7,0.8,1.1c0.2,0.4,0.4,0.8,0.5,1.3l-2.2,0.8
			c-0.1-0.2-0.1-0.3-0.2-0.5c0-0.1-0.1-0.3-0.2-0.5c-0.1-0.2-0.2-0.4-0.3-0.5c-0.1-0.1-0.2-0.2-0.4-0.3c-0.1-0.1-0.3-0.1-0.5-0.1
			c-0.2,0-0.4,0.1-0.5,0.2c-0.1,0.2-0.2,0.3-0.2,0.5c0,0.3,0.1,0.6,0.5,0.9c0.3,0.3,0.7,0.7,1.2,1.2l0.6,0.5
			c0.3,0.3,0.6,0.5,0.8,0.8c0.2,0.2,0.5,0.5,0.7,0.8c0.2,0.3,0.4,0.6,0.5,1c0.1,0.3,0.2,0.7,0.2,1c0,1-0.3,1.8-1,2.4
			c-0.7,0.6-1.5,1-2.5,1c-0.9,0-1.8-0.3-2.4-0.9S63.5,70,63.2,69.1z"/>
		<path fill="#553278" d="M71.6,68.8v-5.1c0-1.3,0.3-2.3,0.9-3c0.6-0.7,1.5-1.1,2.8-1.1c1.3,0,2.2,0.4,2.8,1.1
			c0.6,0.7,0.9,1.7,0.9,3v2.5h-4.3v2.7c0,0.7,0.2,1,0.6,1c0.4,0,0.6-0.4,0.6-1.1v-1.3h3.1v1.4c0,1-0.4,1.8-1.1,2.5
			c-0.7,0.6-1.6,1-2.6,1s-1.9-0.3-2.6-1C72,70.7,71.6,69.8,71.6,68.8z M74.7,64.5H76v-1.7c0-0.6-0.2-0.9-0.6-0.9
			c-0.4,0-0.6,0.3-0.6,0.9V64.5z"/>
		<path fill="#553278" d="M89.2,72l-0.3-1.3c-0.2,0.6-0.5,1-0.9,1.2s-0.9,0.3-1.5,0.3c-0.4,0-0.8-0.1-1.2-0.3
			c-0.3-0.2-0.6-0.4-0.8-0.7c-0.2-0.3-0.3-0.6-0.4-0.9C84,70,84,69.6,84,69.3c0-0.4,0-0.8,0.1-1.2c0.1-0.4,0.2-0.7,0.3-1
			c0.1-0.3,0.3-0.5,0.6-0.8c0.2-0.3,0.5-0.5,0.7-0.6c0.2-0.2,0.5-0.4,0.9-0.5s0.7-0.3,0.9-0.5c0.3-0.1,0.6-0.3,1-0.5v-1
			c0-0.4-0.1-0.7-0.2-1c-0.1-0.2-0.3-0.3-0.5-0.3c-0.2,0-0.3,0-0.4,0.1c-0.1,0.1-0.2,0.2-0.2,0.3c0,0.1-0.1,0.3-0.1,0.4
			c0,0.1,0,0.3,0,0.5v0.7h-3c0-1.4,0.3-2.5,1-3.2c0.7-0.7,1.7-1.1,3-1.1c0.9,0,1.7,0.3,2.4,1c0.7,0.7,1,1.5,1,2.4v5.8
			c0,1,0.1,2.1,0.4,3.2H89.2z M88.5,69.2v-3C87.5,67.1,87,68,87,69c0,0.2,0,0.5,0.1,0.6c0.1,0.2,0.3,0.3,0.5,0.3
			c0.1,0,0.3,0,0.4-0.1c0.1-0.1,0.2-0.2,0.3-0.2S88.4,69.4,88.5,69.2z"/>
		<path fill="#553278" d="M93.3,72V59.9h3.1v0.9c0.3-0.3,0.7-0.6,1.1-0.8c0.4-0.2,0.9-0.3,1.3-0.3c0.4,0,0.8,0.1,1.1,0.4
			c0.3,0.3,0.6,0.6,0.8,1c0.2,0.4,0.2,0.8,0.2,1.2V72h-3.1v-9.2c0-0.5-0.2-0.8-0.5-0.8c0,0-0.1,0-0.1,0c0,0-0.1,0-0.1,0
			c0,0-0.1,0-0.1,0.1c0,0-0.1,0-0.1,0.1c0,0-0.1,0.1-0.1,0.1c0,0-0.1,0.1-0.1,0.1c0,0-0.1,0.1-0.1,0.1c0,0,0,0-0.1,0.1l-0.1,0.1V72
			H93.3z"/>
		<path fill="#553278" d="M102.5,69.7v-7.2c0-0.8,0.2-1.4,0.7-2s1.1-0.9,1.8-0.9c0.4,0,0.8,0.1,1.1,0.3c0.3,0.2,0.7,0.5,0.9,0.8
			v-5.4h3.1V72h-3.1v-0.9c-0.2,0.4-0.6,0.7-0.9,0.9c-0.4,0.2-0.8,0.3-1.2,0.3c-0.7,0-1.3-0.3-1.7-0.8
			C102.8,71,102.5,70.3,102.5,69.7z M107.1,69.2v-6.6c-0.4-0.5-0.6-0.7-0.9-0.7c-0.3,0-0.5,0.3-0.5,0.8V69c0,0.2,0,0.3,0,0.4
			c0,0.1,0.1,0.2,0.1,0.3c0.1,0.1,0.2,0.1,0.3,0.1C106.4,69.9,106.7,69.7,107.1,69.2z"/>
		<path fill="#553278" d="M115.6,66.4v-5.5c0-3.9,1.6-5.9,4.8-5.9c0.7,0,1.3,0.1,1.8,0.3c0.5,0.2,1,0.4,1.3,0.8
			c0.4,0.3,0.7,0.7,0.9,1.2c0.2,0.5,0.4,1,0.5,1.5c0.1,0.5,0.2,1.2,0.2,1.8V62h-3.3v-1.5c0-0.3,0-0.6,0-0.8c0-0.2,0-0.5-0.1-0.8
			c-0.1-0.3-0.1-0.5-0.2-0.7c-0.1-0.2-0.2-0.3-0.4-0.5c-0.2-0.1-0.4-0.2-0.6-0.2c-1,0-1.5,0.8-1.5,2.5v7.2c0,1.6,0.5,2.5,1.5,2.5
			c0.3,0,0.5-0.1,0.7-0.3c0.2-0.2,0.3-0.4,0.4-0.7c0.1-0.3,0.1-0.6,0.2-0.9c0-0.3,0-0.6,0-1v-1.7h3.3v1.4c0,0.6-0.1,1.2-0.2,1.8
			s-0.3,1.1-0.5,1.6c-0.2,0.5-0.5,0.9-0.8,1.3c-0.3,0.3-0.8,0.6-1.3,0.8c-0.5,0.2-1.2,0.3-1.9,0.3c-0.7,0-1.4-0.1-1.9-0.3
			c-0.6-0.2-1-0.5-1.4-0.8c-0.4-0.3-0.7-0.8-0.9-1.3c-0.2-0.5-0.4-1-0.5-1.6C115.7,67.7,115.6,67.1,115.6,66.4z"/>
		<path fill="#553278" d="M126.5,68.8v-5.1c0-1.3,0.3-2.3,0.9-3c0.6-0.7,1.6-1.1,2.9-1.1c1.3,0,2.3,0.4,2.9,1.1
			c0.6,0.7,0.9,1.7,0.9,3v5.1c0,1-0.4,1.8-1.1,2.5c-0.7,0.6-1.6,1-2.7,1c-0.7,0-1.3-0.1-1.9-0.4c-0.6-0.3-1-0.7-1.4-1.2
			C126.7,70.1,126.5,69.5,126.5,68.8z M131,68.9v-6c0-0.6-0.2-0.9-0.7-0.9c-0.4,0-0.6,0.3-0.6,0.9v6c0,0.1,0,0.2,0,0.3
			c0,0.1,0,0.2,0.1,0.3c0,0.1,0.1,0.2,0.2,0.3c0.1,0.1,0.2,0.1,0.4,0.1C130.7,69.9,131,69.5,131,68.9z"/>
		<path fill="#553278" d="M135.7,72V59.9h3.1v0.9c0.3-0.3,0.7-0.6,1.1-0.8c0.4-0.2,0.9-0.3,1.3-0.3c0.4,0,0.8,0.1,1.1,0.4
			c0.3,0.3,0.6,0.6,0.8,1c0.2,0.4,0.2,0.8,0.2,1.2V72h-3.1v-9.2c0-0.5-0.2-0.8-0.5-0.8c0,0-0.1,0-0.1,0c0,0-0.1,0-0.1,0
			c0,0-0.1,0-0.1,0.1c0,0-0.1,0-0.1,0.1c0,0-0.1,0.1-0.1,0.1c0,0-0.1,0.1-0.1,0.1c0,0-0.1,0.1-0.1,0.1c0,0,0,0-0.1,0.1l-0.1,0.1V72
			H135.7z"/>
		<path fill="#553278" d="M144.5,69.1l2.4-0.9c0.1,0.2,0.1,0.3,0.1,0.4c0,0.1,0.1,0.3,0.2,0.4c0.1,0.2,0.2,0.3,0.3,0.5
			c0.1,0.1,0.2,0.2,0.3,0.3c0.1,0.1,0.3,0.1,0.4,0.1c0.4,0,0.6-0.2,0.6-0.7c0-0.2,0-0.3-0.1-0.5c-0.1-0.2-0.2-0.3-0.2-0.5
			c-0.1-0.1-0.2-0.3-0.4-0.5s-0.4-0.4-0.5-0.5c-0.1-0.1-0.3-0.3-0.6-0.5l-0.5-0.4c-0.7-0.6-1.2-1.1-1.6-1.7
			c-0.4-0.6-0.6-1.2-0.6-1.9c0-0.5,0.1-1,0.3-1.4c0.2-0.4,0.5-0.8,0.9-1s0.8-0.5,1.2-0.6c0.5-0.1,0.9-0.2,1.5-0.2
			c0.5,0,0.9,0.1,1.3,0.3c0.4,0.2,0.8,0.4,1.1,0.8c0.3,0.3,0.6,0.7,0.8,1.1c0.2,0.4,0.4,0.8,0.5,1.3l-2.2,0.8
			c-0.1-0.2-0.1-0.3-0.2-0.5c0-0.1-0.1-0.3-0.2-0.5c-0.1-0.2-0.2-0.4-0.3-0.5c-0.1-0.1-0.2-0.2-0.4-0.3c-0.1-0.1-0.3-0.1-0.5-0.1
			c-0.2,0-0.4,0.1-0.5,0.2c-0.1,0.2-0.2,0.3-0.2,0.5c0,0.3,0.2,0.6,0.5,0.9c0.3,0.3,0.7,0.7,1.2,1.2l0.6,0.5
			c0.3,0.3,0.6,0.5,0.8,0.8s0.5,0.5,0.7,0.8c0.2,0.3,0.4,0.6,0.5,1c0.1,0.3,0.2,0.7,0.2,1c0,1-0.3,1.8-1,2.4c-0.7,0.6-1.5,1-2.5,1
			c-0.9,0-1.8-0.3-2.4-0.9S144.7,70,144.5,69.1z"/>
		<path fill="#553278" d="M153.2,67.8V62h-0.9v-2.1h0.9v-4h3.1v4h1.5V62h-1.5v6.6c0,0.3,0.1,0.6,0.2,0.7c0.1,0.2,0.3,0.2,0.7,0.2
			c0.4,0,0.7,0,0.9-0.1v2.4c-0.4,0.1-1.1,0.2-2,0.2c-0.4,0-0.7,0-1-0.1c-0.3-0.1-0.5-0.2-0.7-0.3c-0.2-0.1-0.4-0.3-0.5-0.6
			s-0.3-0.5-0.3-0.7c-0.1-0.2-0.1-0.5-0.2-0.8c0-0.3-0.1-0.6-0.1-0.9S153.2,68.2,153.2,67.8z"/>
		<path fill="#553278" d="M159.2,72V59.9h3.1v1c0.5-0.8,1-1.2,1.7-1.2c0.2,0,0.5,0,0.8,0.1v2.6c-0.6-0.1-1-0.1-1.2-0.1
			c-0.4,0-0.8,0.1-1,0.4c-0.2,0.3-0.3,0.6-0.3,1.1V72H159.2z"/>
		<path fill="#553278" d="M165.8,69.6v-9.8h3.1v9c0,0.7,0.1,1,0.4,1c0.3,0,0.6-0.2,1-0.7v-9.3h3.1V72h-3.1v-1
			c-0.3,0.4-0.7,0.7-1.1,0.9c-0.4,0.2-0.8,0.4-1.3,0.4c-0.6,0-1.2-0.3-1.5-0.8C166,70.9,165.8,70.3,165.8,69.6z"/>
		<path fill="#553278" d="M175,68.9v-5.2c0-1.3,0.3-2.3,0.9-3c0.6-0.7,1.5-1.1,2.8-1.1c1.3,0,2.2,0.4,2.8,1.1c0.6,0.7,0.9,1.7,0.9,3
			v1.1h-3.1v-1.4c0-0.5,0-0.8-0.1-1.1c-0.1-0.2-0.3-0.3-0.5-0.3c-0.4,0-0.6,0.3-0.6,0.9v6c0,0.7,0.2,1,0.6,1c0.1,0,0.3,0,0.4-0.1
			c0.1-0.1,0.2-0.2,0.2-0.3c0-0.1,0.1-0.3,0.1-0.5c0-0.2,0-0.4,0-0.7v-1.3h3.1v1.8c0,0.7-0.2,1.3-0.5,1.8c-0.3,0.5-0.8,0.9-1.4,1.2
			s-1.2,0.4-1.8,0.4c-1,0-1.9-0.3-2.6-0.9C175.4,70.7,175,69.9,175,68.9z"/>
		<path fill="#553278" d="M184,67.8V62h-0.9v-2.1h0.9v-4h3.1v4h1.5V62h-1.5v6.6c0,0.3,0.1,0.6,0.2,0.7c0.1,0.2,0.3,0.2,0.7,0.2
			c0.4,0,0.7,0,0.9-0.1v2.4c-0.4,0.1-1.1,0.2-2,0.2c-0.4,0-0.7,0-1-0.1c-0.3-0.1-0.5-0.2-0.7-0.3c-0.2-0.1-0.4-0.3-0.5-0.6
			s-0.3-0.5-0.3-0.7c-0.1-0.2-0.1-0.5-0.2-0.8c0-0.3-0.1-0.6-0.1-0.9S184,68.2,184,67.8z"/>
		<path fill="#553278" d="M190,58.8v-2.9h3.1v2.9H190z M190,72V59.9h3.1V72H190z"/>
		<path fill="#553278" d="M194.7,68.8v-5.1c0-1.3,0.3-2.3,0.9-3c0.6-0.7,1.6-1.1,2.9-1.1s2.3,0.4,2.9,1.1c0.6,0.7,0.9,1.7,0.9,3v5.1
			c0,1-0.4,1.8-1.1,2.5s-1.6,1-2.7,1c-0.7,0-1.3-0.1-1.9-0.4c-0.6-0.3-1-0.7-1.4-1.2C194.9,70.1,194.7,69.5,194.7,68.8z M199.2,68.9
			v-6c0-0.6-0.2-0.9-0.7-0.9c-0.4,0-0.6,0.3-0.6,0.9v6c0,0.1,0,0.2,0,0.3c0,0.1,0,0.2,0.1,0.3c0,0.1,0.1,0.2,0.2,0.3
			c0.1,0.1,0.2,0.1,0.4,0.1C199,69.9,199.2,69.5,199.2,68.9z"/>
		<path fill="#553278" d="M203.9,72V59.9h3.1v0.9c0.3-0.3,0.7-0.6,1.1-0.8c0.4-0.2,0.9-0.3,1.3-0.3c0.4,0,0.8,0.1,1.1,0.4
			c0.3,0.3,0.6,0.6,0.8,1s0.2,0.8,0.2,1.2V72h-3.1v-9.2c0-0.5-0.2-0.8-0.5-0.8c0,0-0.1,0-0.1,0c0,0-0.1,0-0.1,0s-0.1,0-0.1,0.1
			c0,0-0.1,0-0.1,0.1c0,0-0.1,0.1-0.1,0.1s-0.1,0.1-0.1,0.1c0,0-0.1,0.1-0.1,0.1c0,0,0,0-0.1,0.1l-0.1,0.1V72H203.9z"/>
		<path fill="#FFFFFF" d="M17.1,84v-8.8h1.6c0.9,0,1.6,0.2,2.1,0.5s0.7,1,0.7,1.8c0,0.5-0.1,1-0.3,1.3s-0.5,0.6-0.8,0.7l1.4,4.4
			h-1.2l-1.3-4.1h-0.9V84H17.1z M18.3,79h0.3c0.5,0,0.9-0.1,1.2-0.3c0.3-0.2,0.4-0.6,0.4-1.1s-0.1-0.9-0.4-1.1
			c-0.3-0.2-0.7-0.3-1.2-0.3h-0.3V79z"/>
		<path fill="#FFFFFF" d="M23.5,84.1c-0.3,0-0.6-0.2-0.9-0.5c-0.2-0.3-0.4-0.6-0.4-1c0-0.3,0.1-0.6,0.2-0.8s0.2-0.4,0.3-0.6
			c0.1-0.1,0.3-0.3,0.6-0.5c0.3-0.2,0.5-0.3,0.6-0.3s0.4-0.2,0.7-0.3c0.1,0,0.1,0,0.1-0.1v-0.4c0-0.3,0-0.6-0.1-0.7
			c-0.1-0.2-0.3-0.3-0.5-0.3c-0.2,0-0.4,0.1-0.5,0.2c-0.1,0.1-0.1,0.4-0.2,0.6c0,0,0,0.1,0,0.2h-1.2c0-0.6,0.2-1.1,0.5-1.4
			s0.8-0.5,1.4-0.5c0.6,0,1,0.2,1.4,0.5c0.3,0.4,0.5,0.8,0.5,1.4v2.8c0,0.7,0.1,1.2,0.2,1.6h-1.2L24.8,83c-0.1,0.1-0.1,0.2-0.2,0.3
			s-0.1,0.2-0.2,0.3c-0.1,0.1-0.2,0.2-0.2,0.2C24.1,83.9,24,84,23.9,84S23.7,84.1,23.5,84.1z M24.1,83c0.1,0,0.2,0,0.3-0.1
			s0.1-0.1,0.2-0.2s0.1-0.1,0.2-0.2c0,0,0,0,0,0v-1.7c-0.1,0-0.1,0.1-0.3,0.2s-0.2,0.1-0.3,0.2c-0.1,0-0.2,0.1-0.3,0.2
			c-0.1,0.1-0.2,0.2-0.2,0.2c-0.1,0.1-0.1,0.2-0.1,0.3s-0.1,0.2-0.1,0.3C23.5,82.8,23.7,83,24.1,83z"/>
		<path fill="#FFFFFF" d="M28,84l-1.4-6.2h1.2l0.9,4.7l0.8-4.7h1.2L29.3,84H28z"/>
		<path fill="#FFFFFF" d="M33,84.1c-0.3,0-0.6-0.1-0.8-0.2s-0.4-0.2-0.5-0.4c-0.1-0.2-0.2-0.4-0.3-0.6c-0.1-0.3-0.1-0.5-0.2-0.8
			c0-0.3,0-0.6-0.1-0.9c0-0.3,0-0.5,0-0.8c0-0.3,0-0.6,0.1-0.9c0-0.3,0.1-0.5,0.2-0.7s0.2-0.4,0.3-0.6s0.3-0.3,0.5-0.4
			c0.2-0.1,0.5-0.1,0.8-0.1c0.3,0,0.5,0,0.7,0.1c0.2,0.1,0.4,0.2,0.5,0.3c0.1,0.1,0.2,0.3,0.3,0.5s0.2,0.4,0.2,0.6
			c0,0.2,0.1,0.5,0.1,0.7s0,0.5,0,0.8v0.1h-2.5v0.3c0,0,0,0.1,0,0.2c0,0.1,0,0.2,0,0.4c0,0.1,0,0.3,0,0.4s0,0.2,0.1,0.4
			c0,0.1,0.1,0.2,0.1,0.3s0.1,0.2,0.2,0.2S32.9,83,33,83c0.1,0,0.2,0,0.3-0.1c0.1,0,0.1-0.1,0.2-0.2s0.1-0.2,0.1-0.3s0-0.2,0-0.4
			v-0.3h1.2V82c0,0.7-0.2,1.2-0.5,1.5S33.7,84.1,33,84.1z M32.4,80.2h1.2v-0.4c0-0.2,0-0.3,0-0.4s0-0.2-0.1-0.4s-0.1-0.2-0.2-0.3
			s-0.2-0.1-0.3-0.1c-0.1,0-0.2,0-0.3,0.1s-0.1,0.2-0.2,0.3c0,0.1-0.1,0.3-0.1,0.4s0,0.3,0,0.4V80.2z"/>
		<path fill="#FFFFFF" d="M35.8,84v-6.2h1.2v0.7c0.2-0.2,0.3-0.3,0.5-0.4c0.1-0.1,0.3-0.2,0.5-0.3c0.2-0.1,0.4-0.1,0.7-0.1
			c0.3,0,0.5,0.1,0.6,0.3s0.2,0.4,0.2,0.7V84h-1.2v-4.7c0-0.2,0-0.4-0.1-0.5c-0.1-0.1-0.2-0.1-0.4-0.1c-0.1,0-0.2,0-0.3,0.1
			c-0.1,0-0.2,0.1-0.2,0.1c-0.1,0-0.1,0.1-0.2,0.2V84H35.8z"/>
		<path fill="#FFFFFF" d="M42.3,84.1c-0.5,0-0.9-0.2-1.2-0.5s-0.5-0.7-0.6-1.2l0.9-0.3c0.2,0.6,0.5,0.9,0.9,0.9
			c0.2,0,0.4-0.1,0.5-0.2c0.1-0.1,0.2-0.3,0.2-0.5c0-0.3-0.1-0.5-0.3-0.7l-1.2-0.9c-0.1-0.1-0.3-0.2-0.4-0.3
			c-0.1-0.1-0.2-0.2-0.3-0.3s-0.2-0.3-0.2-0.4s-0.1-0.3-0.1-0.5c0-0.5,0.2-0.9,0.5-1.2s0.8-0.4,1.4-0.4c0.3,0,0.5,0,0.7,0.1
			c0.2,0.1,0.4,0.2,0.5,0.4s0.3,0.3,0.4,0.5c0.1,0.2,0.2,0.4,0.2,0.6l-0.9,0.3c0-0.1-0.1-0.2-0.1-0.3c0-0.1-0.1-0.2-0.2-0.3
			s-0.2-0.2-0.3-0.2c-0.1-0.1-0.2-0.1-0.3-0.1c-0.2,0-0.4,0.1-0.5,0.2c-0.1,0.1-0.2,0.3-0.2,0.5c0,0.2,0.1,0.4,0.3,0.5l1.2,0.9
			c0.1,0.1,0.3,0.2,0.4,0.3c0.1,0.1,0.2,0.2,0.3,0.4c0.1,0.1,0.2,0.3,0.2,0.5s0.1,0.3,0.1,0.5c0,0.5-0.2,0.9-0.5,1.2
			S42.9,84.1,42.3,84.1z"/>
		<path fill="#FFFFFF" d="M47.9,84.1c-0.3,0-0.5-0.1-0.7-0.3C47,83.6,47,83.3,47,83.1v-5.3h1.2v4.9c0,0.1,0,0.2,0.1,0.3
			s0.2,0.1,0.3,0.1c0.1,0,0.1,0,0.2,0S49,83,49,83c0.1,0,0.1-0.1,0.1-0.1c0,0,0.1-0.1,0.2-0.1s0.1-0.1,0.1-0.1v-4.9h1.2V84h-1.2
			v-0.7c-0.1,0.1-0.2,0.2-0.3,0.2s-0.1,0.1-0.3,0.2c-0.1,0.1-0.2,0.1-0.3,0.2c-0.1,0-0.2,0.1-0.3,0.1C48.1,84,48,84.1,47.9,84.1z"/>
		<path fill="#FFFFFF" d="M53.4,84.1c-0.5,0-0.9-0.2-1.2-0.5s-0.5-0.7-0.6-1.2l0.9-0.3c0.2,0.6,0.5,0.9,0.9,0.9
			c0.2,0,0.4-0.1,0.5-0.2c0.1-0.1,0.2-0.3,0.2-0.5c0-0.3-0.1-0.5-0.3-0.7l-1.2-0.9c-0.1-0.1-0.3-0.2-0.4-0.3
			c-0.1-0.1-0.2-0.2-0.3-0.3s-0.2-0.3-0.2-0.4s-0.1-0.3-0.1-0.5c0-0.5,0.2-0.9,0.5-1.2s0.8-0.4,1.4-0.4c0.3,0,0.5,0,0.7,0.1
			c0.2,0.1,0.4,0.2,0.5,0.4s0.3,0.3,0.4,0.5c0.1,0.2,0.2,0.4,0.2,0.6l-0.9,0.3c0-0.1-0.1-0.2-0.1-0.3c0-0.1-0.1-0.2-0.2-0.3
			s-0.2-0.2-0.3-0.2c-0.1-0.1-0.2-0.1-0.3-0.1c-0.2,0-0.4,0.1-0.5,0.2c-0.1,0.1-0.2,0.3-0.2,0.5c0,0.2,0.1,0.4,0.3,0.5l1.2,0.9
			c0.1,0.1,0.3,0.2,0.4,0.3c0.1,0.1,0.2,0.2,0.3,0.4c0.1,0.1,0.2,0.3,0.2,0.5s0.1,0.3,0.1,0.5c0,0.5-0.2,0.9-0.5,1.2
			S54,84.1,53.4,84.1z"/>
		<path fill="#FFFFFF" d="M57.8,84.1c-0.3,0-0.6-0.1-0.8-0.2s-0.4-0.2-0.5-0.4c-0.1-0.2-0.2-0.4-0.3-0.6c-0.1-0.3-0.1-0.5-0.2-0.8
			c0-0.3,0-0.6-0.1-0.9c0-0.3,0-0.5,0-0.8c0-0.3,0-0.6,0.1-0.9c0-0.3,0.1-0.5,0.2-0.7s0.2-0.4,0.3-0.6s0.3-0.3,0.5-0.4
			c0.2-0.1,0.5-0.1,0.8-0.1c0.3,0,0.5,0,0.7,0.1c0.2,0.1,0.4,0.2,0.5,0.3c0.1,0.1,0.2,0.3,0.3,0.5s0.2,0.4,0.2,0.6
			c0,0.2,0.1,0.5,0.1,0.7s0,0.5,0,0.8v0.1h-2.5v0.3c0,0,0,0.1,0,0.2c0,0.1,0,0.2,0,0.4c0,0.1,0,0.3,0,0.4s0,0.2,0.1,0.4
			c0,0.1,0.1,0.2,0.1,0.3s0.1,0.2,0.2,0.2s0.2,0.1,0.3,0.1c0.1,0,0.2,0,0.3-0.1c0.1,0,0.1-0.1,0.2-0.2s0.1-0.2,0.1-0.3s0-0.2,0-0.4
			v-0.3h1.2V82c0,0.7-0.2,1.2-0.5,1.5S58.5,84.1,57.8,84.1z M57.2,80.2h1.2v-0.4c0-0.2,0-0.3,0-0.4s0-0.2-0.1-0.4s-0.1-0.2-0.2-0.3
			s-0.2-0.1-0.3-0.1c-0.1,0-0.2,0-0.3,0.1s-0.1,0.2-0.2,0.3c0,0.1-0.1,0.3-0.1,0.4s0,0.3,0,0.4V80.2z"/>
		<path fill="#FFFFFF" d="M64.3,84.1c-0.5,0-0.9-0.2-1.2-0.5s-0.5-0.7-0.6-1.2l0.9-0.3c0.2,0.6,0.5,0.9,0.9,0.9
			c0.2,0,0.4-0.1,0.5-0.2c0.1-0.1,0.2-0.3,0.2-0.5c0-0.3-0.1-0.5-0.3-0.7l-1.2-0.9c-0.1-0.1-0.3-0.2-0.4-0.3
			c-0.1-0.1-0.2-0.2-0.3-0.3s-0.2-0.3-0.2-0.4s-0.1-0.3-0.1-0.5c0-0.5,0.2-0.9,0.5-1.2s0.8-0.4,1.4-0.4c0.3,0,0.5,0,0.7,0.1
			c0.2,0.1,0.4,0.2,0.5,0.4s0.3,0.3,0.4,0.5c0.1,0.2,0.2,0.4,0.2,0.6l-0.9,0.3c0-0.1-0.1-0.2-0.1-0.3c0-0.1-0.1-0.2-0.2-0.3
			s-0.2-0.2-0.3-0.2c-0.1-0.1-0.2-0.1-0.3-0.1c-0.2,0-0.4,0.1-0.5,0.2c-0.1,0.1-0.2,0.3-0.2,0.5c0,0.2,0.1,0.4,0.3,0.5l1.2,0.9
			c0.1,0.1,0.3,0.2,0.4,0.3c0.1,0.1,0.2,0.2,0.3,0.4c0.1,0.1,0.2,0.3,0.2,0.5s0.1,0.3,0.1,0.5c0,0.5-0.2,0.9-0.5,1.2
			S64.9,84.1,64.3,84.1z"/>
		<path fill="#FFFFFF" d="M68.7,84.1c-0.5,0-0.8-0.1-1.1-0.4s-0.3-0.6-0.3-1.1v-3.9h-0.6v-0.9h0.6v-2.2h1.2v2.2h0.9v0.9h-0.9v3.6
			c0,0.3,0,0.4,0.1,0.6S68.8,83,69,83c0.1,0,0.2,0,0.4,0v1C69.1,84,68.9,84.1,68.7,84.1z"/>
		<path fill="#FFFFFF" d="M73.5,83.5c-0.3,0.4-0.8,0.6-1.4,0.6s-1.2-0.2-1.4-0.6s-0.4-1-0.4-1.7v-1.9c0-0.7,0.1-1.3,0.4-1.7
			s0.8-0.6,1.4-0.6s1.2,0.2,1.4,0.6s0.4,1,0.4,1.7v1.9C74,82.5,73.8,83.1,73.5,83.5z M71.8,83c0.1,0,0.1,0,0.2,0s0.2,0,0.2,0
			s0.1-0.1,0.2-0.1c0,0,0.1-0.1,0.1-0.2c0-0.1,0.1-0.1,0.1-0.2s0-0.1,0-0.2s0-0.2,0-0.2c0-0.1,0-0.2,0-0.3v-1.9c0-0.1,0-0.2,0-0.3
			c0-0.1,0-0.1,0-0.2s0-0.2,0-0.2s0-0.1-0.1-0.2c0-0.1-0.1-0.1-0.1-0.2c0,0-0.1-0.1-0.2-0.1s-0.1,0-0.2,0s-0.2,0-0.2,0
			s-0.1,0.1-0.2,0.1c0,0-0.1,0.1-0.1,0.2c0,0.1-0.1,0.1-0.1,0.2s0,0.1,0,0.2s0,0.2,0,0.2c0,0.1,0,0.2,0,0.3v1.9c0,0.1,0,0.2,0,0.3
			c0,0.1,0,0.1,0,0.2s0,0.2,0,0.2s0,0.1,0.1,0.2c0,0.1,0.1,0.1,0.1,0.2C71.7,82.9,71.8,83,71.8,83z"/>
		<path fill="#FFFFFF" d="M75,84v-6.2h1.2v0.7c0.2-0.2,0.3-0.3,0.5-0.4c0.1-0.1,0.3-0.2,0.5-0.3c0.2-0.1,0.4-0.1,0.7-0.1
			c0.3,0,0.5,0.1,0.6,0.3s0.2,0.4,0.2,0.7V84h-1.2v-4.7c0-0.2,0-0.4-0.1-0.5c-0.1-0.1-0.2-0.1-0.4-0.1c-0.1,0-0.2,0-0.3,0.1
			c-0.1,0-0.2,0.1-0.2,0.1c-0.1,0-0.1,0.1-0.2,0.2V84H75z"/>
		<path fill="#FFFFFF" d="M81.6,84.1c-0.3,0-0.6-0.1-0.8-0.2s-0.4-0.2-0.5-0.4c-0.1-0.2-0.2-0.4-0.3-0.6c-0.1-0.3-0.1-0.5-0.2-0.8
			c0-0.3,0-0.6-0.1-0.9c0-0.3,0-0.5,0-0.8c0-0.3,0-0.6,0.1-0.9c0-0.3,0.1-0.5,0.2-0.7s0.2-0.4,0.3-0.6s0.3-0.3,0.5-0.4
			c0.2-0.1,0.5-0.1,0.8-0.1c0.3,0,0.5,0,0.7,0.1c0.2,0.1,0.4,0.2,0.5,0.3c0.1,0.1,0.2,0.3,0.3,0.5s0.2,0.4,0.2,0.6
			c0,0.2,0.1,0.5,0.1,0.7s0,0.5,0,0.8v0.1H81v0.3c0,0,0,0.1,0,0.2c0,0.1,0,0.2,0,0.4c0,0.1,0,0.3,0,0.4s0,0.2,0.1,0.4
			c0,0.1,0.1,0.2,0.1,0.3s0.1,0.2,0.2,0.2s0.2,0.1,0.3,0.1c0.1,0,0.2,0,0.3-0.1c0.1,0,0.1-0.1,0.2-0.2s0.1-0.2,0.1-0.3s0-0.2,0-0.4
			v-0.3h1.2V82c0,0.7-0.2,1.2-0.5,1.5S82.2,84.1,81.6,84.1z M81,80.2h1.2v-0.4c0-0.2,0-0.3,0-0.4s0-0.2-0.1-0.4s-0.1-0.2-0.2-0.3
			s-0.2-0.1-0.3-0.1c-0.1,0-0.2,0-0.3,0.1s-0.1,0.2-0.2,0.3c0,0.1-0.1,0.3-0.1,0.4s0,0.3,0,0.4V80.2z"/>
		<path fill="#FFFFFF" d="M86,84.1c-0.5,0-0.9-0.2-1.2-0.5s-0.5-0.7-0.6-1.2l0.9-0.3c0.2,0.6,0.5,0.9,0.9,0.9c0.2,0,0.4-0.1,0.5-0.2
			c0.1-0.1,0.2-0.3,0.2-0.5c0-0.3-0.1-0.5-0.3-0.7l-1.2-0.9c-0.1-0.1-0.3-0.2-0.4-0.3c-0.1-0.1-0.2-0.2-0.3-0.3s-0.2-0.3-0.2-0.4
			s-0.1-0.3-0.1-0.5c0-0.5,0.2-0.9,0.5-1.2s0.8-0.4,1.4-0.4c0.3,0,0.5,0,0.7,0.1c0.2,0.1,0.4,0.2,0.5,0.4s0.3,0.3,0.4,0.5
			c0.1,0.2,0.2,0.4,0.2,0.6L87,79.6c0-0.1-0.1-0.2-0.1-0.3c0-0.1-0.1-0.2-0.2-0.3s-0.2-0.2-0.3-0.2c-0.1-0.1-0.2-0.1-0.3-0.1
			c-0.2,0-0.4,0.1-0.5,0.2c-0.1,0.1-0.2,0.3-0.2,0.5c0,0.2,0.1,0.4,0.3,0.5l1.2,0.9c0.1,0.1,0.3,0.2,0.4,0.3
			c0.1,0.1,0.2,0.2,0.3,0.4c0.1,0.1,0.2,0.3,0.2,0.5s0.1,0.3,0.1,0.5c0,0.5-0.2,0.9-0.5,1.2S86.6,84.1,86,84.1z"/>
		<path fill="#FFFFFF" d="M92.4,84.1c-0.5,0-0.8-0.1-1.1-0.4S91,83.1,91,82.5v-3.9h-0.6v-0.9H91v-2.2h1.2v2.2h0.9v0.9h-0.9v3.6
			c0,0.3,0,0.4,0.1,0.6s0.2,0.2,0.4,0.2c0.1,0,0.2,0,0.4,0v1C92.9,84,92.6,84.1,92.4,84.1z"/>
		<path fill="#FFFFFF" d="M97.3,83.5c-0.3,0.4-0.8,0.6-1.4,0.6s-1.2-0.2-1.4-0.6s-0.4-1-0.4-1.7v-1.9c0-0.7,0.1-1.3,0.4-1.7
			s0.8-0.6,1.4-0.6s1.2,0.2,1.4,0.6s0.4,1,0.4,1.7v1.9C97.7,82.5,97.6,83.1,97.3,83.5z M95.6,83c0.1,0,0.1,0,0.2,0s0.2,0,0.2,0
			s0.1-0.1,0.2-0.1c0,0,0.1-0.1,0.1-0.2c0-0.1,0.1-0.1,0.1-0.2s0-0.1,0-0.2s0-0.2,0-0.2c0-0.1,0-0.2,0-0.3v-1.9c0-0.1,0-0.2,0-0.3
			c0-0.1,0-0.1,0-0.2s0-0.2,0-0.2s0-0.1-0.1-0.2c0-0.1-0.1-0.1-0.1-0.2c0,0-0.1-0.1-0.2-0.1s-0.1,0-0.2,0s-0.2,0-0.2,0
			s-0.1,0.1-0.2,0.1c0,0-0.1,0.1-0.1,0.2c0,0.1-0.1,0.1-0.1,0.2s0,0.1,0,0.2s0,0.2,0,0.2c0,0.1,0,0.2,0,0.3v1.9c0,0.1,0,0.2,0,0.3
			c0,0.1,0,0.1,0,0.2s0,0.2,0,0.2s0,0.1,0.1,0.2c0,0.1,0.1,0.1,0.1,0.2C95.5,82.9,95.5,83,95.6,83z"/>
		<path fill="#FFFFFF" d="M102.3,84.1c-0.3,0-0.6-0.1-0.8-0.2s-0.4-0.2-0.5-0.4s-0.2-0.4-0.3-0.6c-0.1-0.3-0.1-0.5-0.2-0.8
			c0-0.3,0-0.5-0.1-0.9c0-0.3,0-0.5,0-0.8c0-0.3,0-0.6,0.1-0.9s0.1-0.5,0.2-0.8c0.1-0.3,0.2-0.5,0.3-0.6c0.1-0.2,0.3-0.3,0.5-0.4
			s0.5-0.2,0.8-0.2c0.7,0,1.1,0.2,1.4,0.5s0.4,0.9,0.5,1.6v0.2h-1.2v-0.2c0-0.2,0-0.3,0-0.4s0-0.2-0.1-0.4s-0.1-0.2-0.2-0.3
			c-0.1-0.1-0.2-0.1-0.3-0.1s-0.2,0-0.3,0.1c-0.1,0.1-0.1,0.2-0.2,0.3s-0.1,0.3-0.1,0.4c0,0.1,0,0.3,0,0.5c0,0.4,0,1,0,1.8
			c0,0.2,0,0.3,0,0.5c0,0.1,0.1,0.3,0.1,0.4c0,0.1,0.1,0.2,0.2,0.3s0.2,0.1,0.3,0.1c0.1,0,0.2,0,0.3-0.1s0.1-0.1,0.2-0.2
			s0.1-0.1,0.1-0.2s0-0.2,0-0.3c0-0.1,0-0.2,0-0.3v-0.2h1.2v0.2c0,0.3-0.1,0.6-0.1,0.9c-0.1,0.3-0.2,0.5-0.3,0.7s-0.3,0.3-0.6,0.4
			C102.9,84,102.6,84.1,102.3,84.1z"/>
		<path fill="#FFFFFF" d="M105,84v-6.2h1.2v0.8c0.1-0.2,0.3-0.5,0.6-0.6c0.2-0.2,0.5-0.3,0.8-0.3c0,0,0.1,0,0.2,0V79
			c-0.2-0.1-0.5-0.1-0.7-0.1c-0.3,0-0.5,0.1-0.6,0.2s-0.2,0.4-0.2,0.6V84H105z"/>
		<path fill="#FFFFFF" d="M109.4,84.1c-0.3,0-0.6-0.2-0.9-0.5c-0.2-0.3-0.4-0.6-0.4-1c0-0.3,0.1-0.6,0.2-0.8s0.2-0.4,0.3-0.6
			c0.1-0.1,0.3-0.3,0.6-0.5c0.3-0.2,0.5-0.3,0.6-0.3s0.4-0.2,0.7-0.3c0.1,0,0.1,0,0.1-0.1v-0.4c0-0.3,0-0.6-0.1-0.7
			c-0.1-0.2-0.3-0.3-0.5-0.3c-0.2,0-0.4,0.1-0.5,0.2c-0.1,0.1-0.1,0.4-0.2,0.6c0,0,0,0.1,0,0.2h-1.2c0-0.6,0.2-1.1,0.5-1.4
			s0.8-0.5,1.4-0.5c0.6,0,1,0.2,1.4,0.5c0.3,0.4,0.5,0.8,0.5,1.4v2.8c0,0.7,0.1,1.2,0.2,1.6h-1.2l-0.2-0.9c-0.1,0.1-0.1,0.2-0.2,0.3
			s-0.1,0.2-0.2,0.3c-0.1,0.1-0.2,0.2-0.2,0.2c-0.1,0.1-0.2,0.1-0.3,0.1S109.6,84.1,109.4,84.1z M110.1,83c0.1,0,0.2,0,0.3-0.1
			s0.1-0.1,0.2-0.2s0.1-0.1,0.2-0.2c0,0,0,0,0,0v-1.7c-0.1,0-0.1,0.1-0.3,0.2s-0.2,0.1-0.3,0.2c-0.1,0-0.2,0.1-0.3,0.2
			c-0.1,0.1-0.2,0.2-0.2,0.2c-0.1,0.1-0.1,0.2-0.1,0.3s-0.1,0.2-0.1,0.3C109.4,82.8,109.7,83,110.1,83z"/>
		<path fill="#FFFFFF" d="M114.6,84.1c-0.3,0-0.6-0.1-0.8-0.2s-0.4-0.2-0.5-0.4s-0.2-0.4-0.3-0.6c-0.1-0.3-0.1-0.5-0.2-0.8
			c0-0.3,0-0.5-0.1-0.9c0-0.3,0-0.5,0-0.8c0-0.3,0-0.6,0.1-0.9s0.1-0.5,0.2-0.8c0.1-0.3,0.2-0.5,0.3-0.6c0.1-0.2,0.3-0.3,0.5-0.4
			s0.5-0.2,0.8-0.2c0.7,0,1.1,0.2,1.4,0.5s0.4,0.9,0.5,1.6v0.2h-1.2v-0.2c0-0.2,0-0.3,0-0.4s0-0.2-0.1-0.4s-0.1-0.2-0.2-0.3
			c-0.1-0.1-0.2-0.1-0.3-0.1s-0.2,0-0.3,0.1c-0.1,0.1-0.1,0.2-0.2,0.3s-0.1,0.3-0.1,0.4c0,0.1,0,0.3,0,0.5c0,0.4,0,1,0,1.8
			c0,0.2,0,0.3,0,0.5c0,0.1,0.1,0.3,0.1,0.4c0,0.1,0.1,0.2,0.2,0.3s0.2,0.1,0.3,0.1c0.1,0,0.2,0,0.3-0.1s0.1-0.1,0.2-0.2
			s0.1-0.1,0.1-0.2s0-0.2,0-0.3c0-0.1,0-0.2,0-0.3v-0.2h1.2v0.2c0,0.3-0.1,0.6-0.1,0.9c-0.1,0.3-0.2,0.5-0.3,0.7s-0.3,0.3-0.6,0.4
			C115.2,84,114.9,84.1,114.6,84.1z"/>
		<path fill="#FFFFFF" d="M117.2,84v-8.8h1.2V80l1.6-2.3h1.2l-1.4,2.2l1.4,4.1H120l-0.9-3l-0.6,0.8V84H117.2z"/>
		<path fill="#FFFFFF" d="M125.7,84.1c-0.3,0-0.6-0.1-0.8-0.2s-0.4-0.2-0.5-0.4c-0.1-0.2-0.2-0.4-0.3-0.6c-0.1-0.3-0.1-0.5-0.2-0.8
			c0-0.3,0-0.6-0.1-0.9c0-0.3,0-0.5,0-0.8c0-0.3,0-0.6,0.1-0.9c0-0.3,0.1-0.5,0.2-0.7s0.2-0.4,0.3-0.6s0.3-0.3,0.5-0.4
			c0.2-0.1,0.5-0.1,0.8-0.1c0.3,0,0.5,0,0.7,0.1c0.2,0.1,0.4,0.2,0.5,0.3c0.1,0.1,0.2,0.3,0.3,0.5s0.2,0.4,0.2,0.6
			c0,0.2,0.1,0.5,0.1,0.7s0,0.5,0,0.8v0.1h-2.5v0.3c0,0,0,0.1,0,0.2c0,0.1,0,0.2,0,0.4c0,0.1,0,0.3,0,0.4s0,0.2,0.1,0.4
			c0,0.1,0.1,0.2,0.1,0.3s0.1,0.2,0.2,0.2s0.2,0.1,0.3,0.1c0.1,0,0.2,0,0.3-0.1c0.1,0,0.1-0.1,0.2-0.2s0.1-0.2,0.1-0.3s0-0.2,0-0.4
			v-0.3h1.2V82c0,0.7-0.2,1.2-0.5,1.5S126.3,84.1,125.7,84.1z M125.1,80.2h1.2v-0.4c0-0.2,0-0.3,0-0.4s0-0.2-0.1-0.4
			s-0.1-0.2-0.2-0.3s-0.2-0.1-0.3-0.1c-0.1,0-0.2,0-0.3,0.1s-0.1,0.2-0.2,0.3c0,0.1-0.1,0.3-0.1,0.4s0,0.3,0,0.4V80.2z"/>
		<path fill="#FFFFFF" d="M130.5,85.8c-0.2,0-0.3,0-0.4,0c-0.1,0-0.2,0-0.4,0s-0.3,0-0.4,0c-0.1,0-0.2,0-0.4-0.1
			c-0.1,0-0.3-0.1-0.4-0.1s-0.2-0.1-0.3-0.2s-0.2-0.1-0.2-0.2c0-0.1-0.1-0.2-0.1-0.3c0-0.3,0.1-0.6,0.3-0.8s0.4-0.4,0.7-0.6
			c-0.2,0-0.3-0.1-0.4-0.2c-0.1-0.1-0.2-0.2-0.2-0.3c0-0.1,0-0.1,0-0.2s0-0.1,0-0.2c0,0,0-0.1,0.1-0.2s0.1-0.1,0.1-0.2
			c0,0,0.1-0.1,0.1-0.2c0-0.1,0.1-0.1,0.1-0.1c0,0,0.1-0.1,0.1-0.1c0.1-0.1,0.1-0.1,0.1-0.1c-0.4-0.5-0.6-1.1-0.6-1.9
			c0-0.4,0.1-0.8,0.2-1.2s0.3-0.6,0.6-0.8c0.3-0.2,0.6-0.3,1-0.3c0.2,0,0.4,0,0.6,0.1s0.3,0.1,0.4,0.2c0.1,0.1,0.2,0.2,0.3,0.4
			c0.2-0.5,0.6-0.7,1.1-0.7c0,0,0,0,0,0s0,0,0,0s0,0,0,0v1c0,0,0,0-0.1,0c-0.1,0-0.2,0-0.3,0s-0.2,0-0.2,0c-0.1,0-0.2,0.1-0.2,0.1
			c0.1,0.1,0.1,0.3,0.2,0.5c0,0.2,0.1,0.4,0.1,0.6c0,0.4-0.1,0.8-0.2,1.2s-0.3,0.6-0.6,0.8s-0.6,0.3-1,0.3l-0.6-0.1c0,0,0,0,0,0.1
			c0,0,0,0.1-0.1,0.1s0,0.1,0,0.1c0,0,0,0.1,0,0.1c0,0.1,0,0.2,0.1,0.2s0.2,0.1,0.3,0.1c0.1,0,0.3,0,0.4,0.1s0.3,0,0.4,0
			c0.2,0,0.3,0,0.3,0c0.2,0,0.4,0.1,0.5,0.1c0.1,0,0.3,0.1,0.4,0.1s0.3,0.1,0.4,0.2s0.2,0.2,0.2,0.4s0.1,0.3,0.1,0.5
			c0,0.2,0,0.4-0.1,0.6s-0.2,0.3-0.3,0.4s-0.3,0.2-0.5,0.3c-0.2,0.1-0.4,0.1-0.6,0.2S130.7,85.8,130.5,85.8z M130.5,84.9
			c0.1,0,0.2,0,0.2,0s0.2,0,0.2,0s0.2,0,0.2,0c0.1,0,0.1,0,0.2-0.1s0.1-0.1,0.1-0.1c0-0.1,0-0.1,0-0.2c0-0.3-0.3-0.6-1-0.6l-1-0.1
			c-0.1,0.1-0.2,0.2-0.3,0.4s-0.1,0.4-0.1,0.5c0,0.1,0,0.1,0.1,0.1c0,0,0.1,0.1,0.2,0.1s0.1,0,0.2,0s0.2,0,0.3,0s0.2,0,0.3,0
			s0.2,0,0.3,0S130.5,84.9,130.5,84.9z M130.2,81.2c0.5,0,0.8-0.4,0.8-1.3c0-0.2,0-0.3,0-0.5c0-0.2-0.1-0.3-0.1-0.4
			c-0.1-0.1-0.1-0.3-0.2-0.3c-0.1-0.1-0.2-0.1-0.4-0.1c-0.2,0-0.3,0-0.4,0.1c-0.1,0.1-0.2,0.2-0.2,0.3c-0.1,0.1-0.1,0.3-0.1,0.4
			c0,0.2,0,0.3,0,0.5C129.4,80.8,129.7,81.2,130.2,81.2z"/>
		<path fill="#FFFFFF" d="M134.9,85.8c-0.2,0-0.3,0-0.4,0c-0.1,0-0.2,0-0.4,0s-0.3,0-0.4,0c-0.1,0-0.2,0-0.4-0.1
			c-0.1,0-0.3-0.1-0.4-0.1s-0.2-0.1-0.3-0.2s-0.2-0.1-0.2-0.2c0-0.1-0.1-0.2-0.1-0.3c0-0.3,0.1-0.6,0.3-0.8s0.4-0.4,0.7-0.6
			c-0.2,0-0.3-0.1-0.4-0.2c-0.1-0.1-0.2-0.2-0.2-0.3c0-0.1,0-0.1,0-0.2s0-0.1,0-0.2c0,0,0-0.1,0.1-0.2s0.1-0.1,0.1-0.2
			c0,0,0.1-0.1,0.1-0.2c0-0.1,0.1-0.1,0.1-0.1c0,0,0.1-0.1,0.1-0.1c0.1-0.1,0.1-0.1,0.1-0.1c-0.4-0.5-0.6-1.1-0.6-1.9
			c0-0.4,0.1-0.8,0.2-1.2s0.3-0.6,0.6-0.8c0.3-0.2,0.6-0.3,1-0.3c0.2,0,0.4,0,0.6,0.1s0.3,0.1,0.4,0.2c0.1,0.1,0.2,0.2,0.3,0.4
			c0.2-0.5,0.6-0.7,1.1-0.7c0,0,0,0,0,0s0,0,0,0s0,0,0,0v1c0,0,0,0-0.1,0c-0.1,0-0.2,0-0.3,0s-0.2,0-0.2,0c-0.1,0-0.2,0.1-0.2,0.1
			c0.1,0.1,0.1,0.3,0.2,0.5c0,0.2,0.1,0.4,0.1,0.6c0,0.4-0.1,0.8-0.2,1.2s-0.3,0.6-0.6,0.8s-0.6,0.3-1,0.3l-0.6-0.1c0,0,0,0,0,0.1
			c0,0,0,0.1-0.1,0.1s0,0.1,0,0.1c0,0,0,0.1,0,0.1c0,0.1,0,0.2,0.1,0.2s0.2,0.1,0.3,0.1c0.1,0,0.3,0,0.4,0.1s0.3,0,0.4,0
			c0.2,0,0.3,0,0.3,0c0.2,0,0.4,0.1,0.5,0.1c0.1,0,0.3,0.1,0.4,0.1s0.3,0.1,0.4,0.2s0.2,0.2,0.2,0.4s0.1,0.3,0.1,0.5
			c0,0.2,0,0.4-0.1,0.6s-0.2,0.3-0.3,0.4s-0.3,0.2-0.5,0.3c-0.2,0.1-0.4,0.1-0.6,0.2S135.2,85.8,134.9,85.8z M134.9,84.9
			c0.1,0,0.2,0,0.2,0s0.2,0,0.2,0s0.2,0,0.2,0c0.1,0,0.1,0,0.2-0.1s0.1-0.1,0.1-0.1c0-0.1,0-0.1,0-0.2c0-0.3-0.3-0.6-1-0.6l-1-0.1
			c-0.1,0.1-0.2,0.2-0.3,0.4s-0.1,0.4-0.1,0.5c0,0.1,0,0.1,0.1,0.1c0,0,0.1,0.1,0.2,0.1s0.1,0,0.2,0s0.2,0,0.3,0s0.2,0,0.3,0
			s0.2,0,0.3,0S134.9,84.9,134.9,84.9z M134.6,81.2c0.5,0,0.8-0.4,0.8-1.3c0-0.2,0-0.3,0-0.5c0-0.2-0.1-0.3-0.1-0.4
			c-0.1-0.1-0.1-0.3-0.2-0.3c-0.1-0.1-0.2-0.1-0.4-0.1c-0.2,0-0.3,0-0.4,0.1c-0.1,0.1-0.2,0.2-0.2,0.3c-0.1,0.1-0.1,0.3-0.1,0.4
			c0,0.2,0,0.3,0,0.5C133.8,80.8,134.1,81.2,134.6,81.2z"/>
		<path fill="#FFFFFF" d="M139.1,84.1c-0.5,0-0.9-0.2-1.2-0.5s-0.5-0.7-0.6-1.2l0.9-0.3c0.2,0.6,0.5,0.9,0.9,0.9
			c0.2,0,0.4-0.1,0.5-0.2c0.1-0.1,0.2-0.3,0.2-0.5c0-0.3-0.1-0.5-0.3-0.7l-1.2-0.9c-0.1-0.1-0.3-0.2-0.4-0.3
			c-0.1-0.1-0.2-0.2-0.3-0.3s-0.2-0.3-0.2-0.4s-0.1-0.3-0.1-0.5c0-0.5,0.2-0.9,0.5-1.2s0.8-0.4,1.4-0.4c0.3,0,0.5,0,0.7,0.1
			c0.2,0.1,0.4,0.2,0.5,0.4s0.3,0.3,0.4,0.5c0.1,0.2,0.2,0.4,0.2,0.6l-0.9,0.3c0-0.1-0.1-0.2-0.1-0.3c0-0.1-0.1-0.2-0.2-0.3
			s-0.2-0.2-0.3-0.2c-0.1-0.1-0.2-0.1-0.3-0.1c-0.2,0-0.4,0.1-0.5,0.2c-0.1,0.1-0.2,0.3-0.2,0.5c0,0.2,0.1,0.4,0.3,0.5l1.2,0.9
			c0.1,0.1,0.3,0.2,0.4,0.3c0.1,0.1,0.2,0.2,0.3,0.4c0.1,0.1,0.2,0.3,0.2,0.5s0.1,0.3,0.1,0.5c0,0.5-0.2,0.9-0.5,1.2
			S139.7,84.1,139.1,84.1z"/>
		<path fill="#FFFFFF" d="M141.9,85.2l-0.3-0.6c0.2,0,0.4,0,0.5-0.1s0.1-0.3,0.1-0.5h-0.6v-1.2h1.2c0,0.5,0,0.9,0,1.2
			c0,0.2,0,0.3,0,0.4s0,0.2-0.1,0.4c0,0.1-0.1,0.2-0.2,0.3c-0.1,0.1-0.2,0.1-0.3,0.2S142,85.2,141.9,85.2z"/>
		<path fill="#FFFFFF" d="M18.7,96.1c-0.5,0-0.9-0.2-1.2-0.5s-0.5-0.7-0.6-1.2l0.9-0.3c0.2,0.6,0.5,0.9,0.9,0.9
			c0.2,0,0.4-0.1,0.5-0.2c0.1-0.1,0.2-0.3,0.2-0.5c0-0.3-0.1-0.5-0.3-0.7l-1.2-0.9c-0.1-0.1-0.3-0.2-0.4-0.3
			c-0.1-0.1-0.2-0.2-0.3-0.3s-0.2-0.3-0.2-0.4s-0.1-0.3-0.1-0.5c0-0.5,0.2-0.9,0.5-1.2s0.8-0.4,1.4-0.4c0.3,0,0.5,0,0.7,0.1
			c0.2,0.1,0.4,0.2,0.5,0.4s0.3,0.3,0.4,0.5c0.1,0.2,0.2,0.4,0.2,0.6l-0.9,0.3c0-0.1-0.1-0.2-0.1-0.3c0-0.1-0.1-0.2-0.2-0.3
			s-0.2-0.2-0.3-0.2c-0.1-0.1-0.2-0.1-0.3-0.1c-0.2,0-0.4,0.1-0.5,0.2c-0.1,0.1-0.2,0.3-0.2,0.5c0,0.2,0.1,0.4,0.3,0.5l1.2,0.9
			c0.1,0.1,0.3,0.2,0.4,0.3c0.1,0.1,0.2,0.2,0.3,0.4c0.1,0.1,0.2,0.3,0.2,0.5s0.1,0.3,0.1,0.5c0,0.5-0.2,0.9-0.5,1.2
			S19.2,96.1,18.7,96.1z"/>
		<path fill="#FFFFFF" d="M24.5,95.5c-0.3,0.4-0.8,0.6-1.4,0.6s-1.2-0.2-1.4-0.6s-0.4-1-0.4-1.7v-1.9c0-0.7,0.1-1.3,0.4-1.7
			s0.8-0.6,1.4-0.6s1.2,0.2,1.4,0.6s0.4,1,0.4,1.7v1.9C24.9,94.5,24.8,95.1,24.5,95.5z M22.8,95c0.1,0,0.1,0,0.2,0s0.2,0,0.2,0
			s0.1-0.1,0.2-0.1c0,0,0.1-0.1,0.1-0.2c0-0.1,0.1-0.1,0.1-0.2s0-0.1,0-0.2s0-0.2,0-0.2c0-0.1,0-0.2,0-0.3v-1.9c0-0.1,0-0.2,0-0.3
			c0-0.1,0-0.1,0-0.2s0-0.2,0-0.2s0-0.1-0.1-0.2c0-0.1-0.1-0.1-0.1-0.2c0,0-0.1-0.1-0.2-0.1s-0.1,0-0.2,0s-0.2,0-0.2,0
			s-0.1,0.1-0.2,0.1c0,0-0.1,0.1-0.1,0.2c0,0.1-0.1,0.1-0.1,0.2s0,0.1,0,0.2s0,0.2,0,0.2c0,0.1,0,0.2,0,0.3v1.9c0,0.1,0,0.2,0,0.3
			c0,0.1,0,0.1,0,0.2s0,0.2,0,0.2s0,0.1,0.1,0.2c0,0.1,0.1,0.1,0.1,0.2C22.7,94.9,22.7,95,22.8,95z"/>
		<path fill="#FFFFFF" d="M25.9,96v-6.2h1.2v0.7c0.4-0.5,1-0.8,1.6-0.8c0.3,0,0.5,0.1,0.7,0.2c0.1,0.1,0.2,0.3,0.3,0.6
			c0.2-0.3,0.4-0.5,0.7-0.6s0.5-0.2,0.9-0.2c0.1,0,0.2,0,0.3,0c0.1,0,0.2,0,0.2,0.1s0.1,0.1,0.2,0.1C32,89.9,32,90,32,90
			c0,0,0.1,0.1,0.1,0.2s0,0.2,0,0.2s0,0.2,0,0.3s0,0.2,0,0.3s0,0.2,0,0.3c0,0,0,0.1,0,0.1V96h-1.2v-4.6c0,0,0,0,0-0.1
			c0-0.1,0-0.2,0-0.2s0-0.1,0-0.2c0-0.1,0-0.1-0.1-0.2s-0.1-0.1-0.2-0.1c-0.1,0-0.3,0-0.4,0.1c-0.1,0-0.2,0.1-0.3,0.1
			c-0.1,0-0.2,0.1-0.3,0.2V96h-1.2v-4.5c0,0,0,0,0-0.1c0-0.1,0-0.2,0-0.2s0-0.1,0-0.2c0-0.1,0-0.1,0-0.2s-0.1-0.1-0.1-0.1
			s-0.1,0-0.2,0c-0.3,0-0.6,0.1-0.9,0.4V96H25.9z"/>
		<path fill="#FFFFFF" d="M35.1,96.1c-0.3,0-0.6-0.1-0.8-0.2s-0.4-0.2-0.5-0.4c-0.1-0.2-0.2-0.4-0.3-0.6c-0.1-0.3-0.1-0.5-0.2-0.8
			c0-0.3,0-0.6-0.1-0.9c0-0.3,0-0.5,0-0.8c0-0.3,0-0.6,0.1-0.9c0-0.3,0.1-0.5,0.2-0.7s0.2-0.4,0.3-0.6s0.3-0.3,0.5-0.4
			c0.2-0.1,0.5-0.1,0.8-0.1c0.3,0,0.5,0,0.7,0.1c0.2,0.1,0.4,0.2,0.5,0.3c0.1,0.1,0.2,0.3,0.3,0.5s0.2,0.4,0.2,0.6
			c0,0.2,0.1,0.5,0.1,0.7s0,0.5,0,0.8v0.1h-2.5v0.3c0,0,0,0.1,0,0.2c0,0.1,0,0.2,0,0.4c0,0.1,0,0.3,0,0.4s0,0.2,0.1,0.4
			c0,0.1,0.1,0.2,0.1,0.3s0.1,0.2,0.2,0.2S35,95,35.1,95c0.1,0,0.2,0,0.3-0.1c0.1,0,0.1-0.1,0.2-0.2s0.1-0.2,0.1-0.3s0-0.2,0-0.4
			v-0.3h1.2V94c0,0.7-0.2,1.2-0.5,1.5S35.7,96.1,35.1,96.1z M34.4,92.2h1.2v-0.4c0-0.2,0-0.3,0-0.4s0-0.2-0.1-0.4s-0.1-0.2-0.2-0.3
			s-0.2-0.1-0.3-0.1c-0.1,0-0.2,0-0.3,0.1s-0.1,0.2-0.2,0.3c0,0.1-0.1,0.3-0.1,0.4s0,0.3,0,0.4V92.2z"/>
		<path fill="#FFFFFF" d="M39.6,96.1c-0.5,0-0.8-0.1-1.1-0.4s-0.3-0.6-0.3-1.1v-3.9h-0.6v-0.9h0.6v-2.2h1.2v2.2h0.9v0.9h-0.9v3.6
			c0,0.3,0,0.4,0.1,0.6s0.2,0.2,0.4,0.2c0.1,0,0.2,0,0.4,0v1C40,96,39.8,96.1,39.6,96.1z"/>
		<path fill="#FFFFFF" d="M41.3,88.8v-1.2h1.2v1.2H41.3z M41.3,96v-6.2h1.2V96H41.3z"/>
		<path fill="#FFFFFF" d="M43.8,96v-6.2H45v0.7c0.4-0.5,1-0.8,1.6-0.8c0.3,0,0.5,0.1,0.7,0.2c0.1,0.1,0.2,0.3,0.3,0.6
			c0.2-0.3,0.4-0.5,0.7-0.6s0.5-0.2,0.9-0.2c0.1,0,0.2,0,0.3,0c0.1,0,0.2,0,0.2,0.1s0.1,0.1,0.2,0.1c0,0.1,0.1,0.1,0.1,0.2
			c0,0,0.1,0.1,0.1,0.2s0,0.2,0,0.2s0,0.2,0,0.3s0,0.2,0,0.3s0,0.2,0,0.3c0,0,0,0.1,0,0.1V96h-1.2v-4.6c0,0,0,0,0-0.1
			c0-0.1,0-0.2,0-0.2s0-0.1,0-0.2c0-0.1,0-0.1-0.1-0.2s-0.1-0.1-0.2-0.1c-0.1,0-0.3,0-0.4,0.1c-0.1,0-0.2,0.1-0.3,0.1
			c-0.1,0-0.2,0.1-0.3,0.2V96h-1.2v-4.5c0,0,0,0,0-0.1c0-0.1,0-0.2,0-0.2s0-0.1,0-0.2c0-0.1,0-0.1,0-0.2s-0.1-0.1-0.1-0.1
			s-0.1,0-0.2,0c-0.3,0-0.6,0.1-0.9,0.4V96H43.8z"/>
		<path fill="#FFFFFF" d="M52.9,96.1c-0.3,0-0.6-0.1-0.8-0.2s-0.4-0.2-0.5-0.4c-0.1-0.2-0.2-0.4-0.3-0.6c-0.1-0.3-0.1-0.5-0.2-0.8
			c0-0.3,0-0.6-0.1-0.9c0-0.3,0-0.5,0-0.8c0-0.3,0-0.6,0.1-0.9c0-0.3,0.1-0.5,0.2-0.7s0.2-0.4,0.3-0.6s0.3-0.3,0.5-0.4
			c0.2-0.1,0.5-0.1,0.8-0.1c0.3,0,0.5,0,0.7,0.1c0.2,0.1,0.4,0.2,0.5,0.3c0.1,0.1,0.2,0.3,0.3,0.5s0.2,0.4,0.2,0.6
			c0,0.2,0.1,0.5,0.1,0.7s0,0.5,0,0.8v0.1h-2.5v0.3c0,0,0,0.1,0,0.2c0,0.1,0,0.2,0,0.4c0,0.1,0,0.3,0,0.4s0,0.2,0.1,0.4
			c0,0.1,0.1,0.2,0.1,0.3s0.1,0.2,0.2,0.2s0.2,0.1,0.3,0.1c0.1,0,0.2,0,0.3-0.1c0.1,0,0.1-0.1,0.2-0.2s0.1-0.2,0.1-0.3s0-0.2,0-0.4
			v-0.3h1.2V94c0,0.7-0.2,1.2-0.5,1.5S53.5,96.1,52.9,96.1z M52.3,92.2h1.2v-0.4c0-0.2,0-0.3,0-0.4s0-0.2-0.1-0.4s-0.1-0.2-0.2-0.3
			s-0.2-0.1-0.3-0.1c-0.1,0-0.2,0-0.3,0.1s-0.1,0.2-0.2,0.3c0,0.1-0.1,0.3-0.1,0.4s0,0.3,0,0.4V92.2z"/>
		<path fill="#FFFFFF" d="M57.3,96.1c-0.5,0-0.9-0.2-1.2-0.5s-0.5-0.7-0.6-1.2l0.9-0.3c0.2,0.6,0.5,0.9,0.9,0.9
			c0.2,0,0.4-0.1,0.5-0.2c0.1-0.1,0.2-0.3,0.2-0.5c0-0.3-0.1-0.5-0.3-0.7l-1.2-0.9c-0.1-0.1-0.3-0.2-0.4-0.3
			c-0.1-0.1-0.2-0.2-0.3-0.3s-0.2-0.3-0.2-0.4s-0.1-0.3-0.1-0.5c0-0.5,0.2-0.9,0.5-1.2s0.8-0.4,1.4-0.4c0.3,0,0.5,0,0.7,0.1
			c0.2,0.1,0.4,0.2,0.5,0.4s0.3,0.3,0.4,0.5c0.1,0.2,0.2,0.4,0.2,0.6l-0.9,0.3c0-0.1-0.1-0.2-0.1-0.3c0-0.1-0.1-0.2-0.2-0.3
			s-0.2-0.2-0.3-0.2c-0.1-0.1-0.2-0.1-0.3-0.1c-0.2,0-0.4,0.1-0.5,0.2c-0.1,0.1-0.2,0.3-0.2,0.5c0,0.2,0.1,0.4,0.3,0.5l1.2,0.9
			c0.1,0.1,0.3,0.2,0.4,0.3c0.1,0.1,0.2,0.2,0.3,0.4c0.1,0.1,0.2,0.3,0.2,0.5s0.1,0.3,0.1,0.5c0,0.5-0.2,0.9-0.5,1.2
			S57.9,96.1,57.3,96.1z"/>
		<path fill="#FFFFFF" d="M62,88.8v-1.2h1.2v1.2H62z M62,96v-6.2h1.2V96H62z"/>
		<path fill="#FFFFFF" d="M64.5,96v-6.2h1.2v0.7c0.4-0.5,1-0.8,1.6-0.8c0.3,0,0.5,0.1,0.7,0.2c0.1,0.1,0.2,0.3,0.3,0.6
			c0.2-0.3,0.4-0.5,0.7-0.6s0.5-0.2,0.9-0.2c0.1,0,0.2,0,0.3,0c0.1,0,0.2,0,0.2,0.1s0.1,0.1,0.2,0.1c0,0.1,0.1,0.1,0.1,0.2
			c0,0,0.1,0.1,0.1,0.2s0,0.2,0,0.2s0,0.2,0,0.3s0,0.2,0,0.3s0,0.2,0,0.3c0,0,0,0.1,0,0.1V96h-1.2v-4.6c0,0,0,0,0-0.1
			c0-0.1,0-0.2,0-0.2s0-0.1,0-0.2c0-0.1,0-0.1-0.1-0.2s-0.1-0.1-0.2-0.1c-0.1,0-0.3,0-0.4,0.1c-0.1,0-0.2,0.1-0.3,0.1
			c-0.1,0-0.2,0.1-0.3,0.2V96H67v-4.5c0,0,0,0,0-0.1c0-0.1,0-0.2,0-0.2s0-0.1,0-0.2c0-0.1,0-0.1,0-0.2s-0.1-0.1-0.1-0.1
			s-0.1,0-0.2,0c-0.3,0-0.6,0.1-0.9,0.4V96H64.5z"/>
		<path fill="#FFFFFF" d="M71.8,96v-6.2h1.2v0.7c0.4-0.5,1-0.8,1.6-0.8c0.3,0,0.5,0.1,0.7,0.2c0.1,0.1,0.2,0.3,0.3,0.6
			c0.2-0.3,0.4-0.5,0.7-0.6s0.5-0.2,0.9-0.2c0.1,0,0.2,0,0.3,0c0.1,0,0.2,0,0.2,0.1s0.1,0.1,0.2,0.1c0,0.1,0.1,0.1,0.1,0.2
			c0,0,0.1,0.1,0.1,0.2s0,0.2,0,0.2s0,0.2,0,0.3s0,0.2,0,0.3s0,0.2,0,0.3c0,0,0,0.1,0,0.1V96h-1.2v-4.6c0,0,0,0,0-0.1
			c0-0.1,0-0.2,0-0.2s0-0.1,0-0.2c0-0.1,0-0.1-0.1-0.2s-0.1-0.1-0.2-0.1c-0.1,0-0.3,0-0.4,0.1c-0.1,0-0.2,0.1-0.3,0.1
			c-0.1,0-0.2,0.1-0.3,0.2V96h-1.2v-4.5c0,0,0,0,0-0.1c0-0.1,0-0.2,0-0.2s0-0.1,0-0.2c0-0.1,0-0.1,0-0.2s-0.1-0.1-0.1-0.1
			s-0.1,0-0.2,0c-0.3,0-0.6,0.1-0.9,0.4V96H71.8z"/>
		<path fill="#FFFFFF" d="M82.4,95.5c-0.3,0.4-0.8,0.6-1.4,0.6s-1.2-0.2-1.4-0.6s-0.4-1-0.4-1.7v-1.9c0-0.7,0.1-1.3,0.4-1.7
			s0.8-0.6,1.4-0.6s1.2,0.2,1.4,0.6s0.4,1,0.4,1.7v1.9C82.8,94.5,82.6,95.1,82.4,95.5z M80.7,95c0.1,0,0.1,0,0.2,0s0.2,0,0.2,0
			s0.1-0.1,0.2-0.1c0,0,0.1-0.1,0.1-0.2c0-0.1,0.1-0.1,0.1-0.2s0-0.1,0-0.2s0-0.2,0-0.2c0-0.1,0-0.2,0-0.3v-1.9c0-0.1,0-0.2,0-0.3
			c0-0.1,0-0.1,0-0.2s0-0.2,0-0.2s0-0.1-0.1-0.2c0-0.1-0.1-0.1-0.1-0.2c0,0-0.1-0.1-0.2-0.1s-0.1,0-0.2,0s-0.2,0-0.2,0
			s-0.1,0.1-0.2,0.1c0,0-0.1,0.1-0.1,0.2c0,0.1-0.1,0.1-0.1,0.2s0,0.1,0,0.2s0,0.2,0,0.2c0,0.1,0,0.2,0,0.3v1.9c0,0.1,0,0.2,0,0.3
			c0,0.1,0,0.1,0,0.2s0,0.2,0,0.2s0,0.1,0.1,0.2c0,0.1,0.1,0.1,0.1,0.2C80.6,94.9,80.6,95,80.7,95z"/>
		<path fill="#FFFFFF" d="M86.2,96.1c-0.3,0-0.5-0.1-0.7-0.2s-0.4-0.3-0.6-0.5V96h-1.2v-8.7h1.2v3.1c0.1-0.1,0.2-0.2,0.3-0.3
			s0.1-0.1,0.3-0.2s0.2-0.1,0.3-0.2c0.1,0,0.3-0.1,0.4-0.1c0.2,0,0.4,0,0.6,0.1c0.2,0.1,0.3,0.2,0.4,0.3s0.2,0.3,0.3,0.5
			s0.1,0.4,0.2,0.5s0.1,0.4,0.1,0.7s0,0.5,0,0.7c0,0.2,0,0.4,0,0.7v0.1c0,0.3,0,0.5,0,0.8s-0.1,0.5-0.2,0.8s-0.2,0.5-0.3,0.7
			s-0.3,0.3-0.4,0.5C86.6,96,86.4,96.1,86.2,96.1z M85.9,95c0.1,0,0.2,0,0.3-0.1s0.2-0.2,0.2-0.4c0-0.2,0.1-0.4,0.1-0.5s0-0.4,0-0.6
			c0-0.2,0-0.4,0-0.7s0-0.5,0-0.7s0-0.3,0-0.4c0-0.1,0-0.2,0-0.3s-0.1-0.2-0.1-0.3s-0.1-0.1-0.2-0.2c-0.1-0.1-0.2-0.1-0.3-0.1
			c-0.3,0-0.7,0.1-0.9,0.2v3.9C85.2,95,85.6,95,85.9,95z"/>
		<path fill="#FFFFFF" d="M88.8,88.8v-1.2h1.2v1.2H88.8z M88.8,96v-6.2h1.2V96H88.8z"/>
		<path fill="#FFFFFF" d="M91.3,96v-8.8h1.2V96H91.3z"/>
		<path fill="#FFFFFF" d="M93.7,88.8v-1.2h1.2v1.2H93.7z M93.7,96v-6.2h1.2V96H93.7z"/>
		<path fill="#FFFFFF" d="M95.9,96V95l2.2-4.4h-1.9v-0.9h3.1v0.9L97.2,95h2.2V96H95.9z"/>
		<path fill="#FFFFFF" d="M100.2,88.8v-1.2h1.2v1.2H100.2z M100.2,96v-6.2h1.2V96H100.2z"/>
		<path fill="#FFFFFF" d="M102.6,96v-6.2h1.2v0.7c0.2-0.2,0.3-0.3,0.5-0.4c0.1-0.1,0.3-0.2,0.5-0.3c0.2-0.1,0.4-0.1,0.7-0.1
			c0.3,0,0.5,0.1,0.6,0.3s0.2,0.4,0.2,0.7V96h-1.2v-4.7c0-0.2,0-0.4-0.1-0.5c-0.1-0.1-0.2-0.1-0.4-0.1c-0.1,0-0.2,0-0.3,0.1
			c-0.1,0-0.2,0.1-0.2,0.1c-0.1,0-0.1,0.1-0.2,0.2V96H102.6z"/>
		<path fill="#FFFFFF" d="M109.4,97.8c-0.2,0-0.3,0-0.4,0c-0.1,0-0.2,0-0.4,0s-0.3,0-0.4,0c-0.1,0-0.2,0-0.4-0.1
			c-0.1,0-0.3-0.1-0.4-0.1s-0.2-0.1-0.3-0.2s-0.2-0.1-0.2-0.2c0-0.1-0.1-0.2-0.1-0.3c0-0.3,0.1-0.6,0.3-0.8s0.4-0.4,0.7-0.6
			c-0.2,0-0.3-0.1-0.4-0.2c-0.1-0.1-0.2-0.2-0.2-0.3c0-0.1,0-0.1,0-0.2s0-0.1,0-0.2c0,0,0-0.1,0.1-0.2s0.1-0.1,0.1-0.2
			c0,0,0.1-0.1,0.1-0.2c0-0.1,0.1-0.1,0.1-0.1c0,0,0.1-0.1,0.1-0.1c0.1-0.1,0.1-0.1,0.1-0.1c-0.4-0.5-0.6-1.1-0.6-1.9
			c0-0.4,0.1-0.8,0.2-1.2s0.3-0.6,0.6-0.8c0.3-0.2,0.6-0.3,1-0.3c0.2,0,0.4,0,0.6,0.1s0.3,0.1,0.4,0.2c0.1,0.1,0.2,0.2,0.3,0.4
			c0.2-0.5,0.6-0.7,1.1-0.7c0,0,0,0,0,0s0,0,0,0s0,0,0,0v1c0,0,0,0-0.1,0c-0.1,0-0.2,0-0.3,0s-0.2,0-0.2,0c-0.1,0-0.2,0.1-0.2,0.1
			c0.1,0.1,0.1,0.3,0.2,0.5c0,0.2,0.1,0.4,0.1,0.6c0,0.4-0.1,0.8-0.2,1.2s-0.3,0.6-0.6,0.8s-0.6,0.3-1,0.3l-0.6-0.1c0,0,0,0,0,0.1
			c0,0,0,0.1-0.1,0.1s0,0.1,0,0.1c0,0,0,0.1,0,0.1c0,0.1,0,0.2,0.1,0.2s0.2,0.1,0.3,0.1c0.1,0,0.3,0,0.4,0.1s0.3,0,0.4,0
			c0.2,0,0.3,0,0.3,0c0.2,0,0.4,0.1,0.5,0.1c0.1,0,0.3,0.1,0.4,0.1s0.3,0.1,0.4,0.2s0.2,0.2,0.2,0.4s0.1,0.3,0.1,0.5
			c0,0.2,0,0.4-0.1,0.6s-0.2,0.3-0.3,0.4s-0.3,0.2-0.5,0.3c-0.2,0.1-0.4,0.1-0.6,0.2S109.7,97.8,109.4,97.8z M109.4,96.9
			c0.1,0,0.2,0,0.2,0s0.2,0,0.2,0s0.2,0,0.2,0c0.1,0,0.1,0,0.2-0.1s0.1-0.1,0.1-0.1c0-0.1,0-0.1,0-0.2c0-0.3-0.3-0.6-1-0.6l-1-0.1
			c-0.1,0.1-0.2,0.2-0.3,0.4s-0.1,0.4-0.1,0.5c0,0.1,0,0.1,0.1,0.1c0,0,0.1,0.1,0.2,0.1s0.1,0,0.2,0s0.2,0,0.3,0s0.2,0,0.3,0
			s0.2,0,0.3,0S109.4,96.9,109.4,96.9z M109.1,93.2c0.5,0,0.8-0.4,0.8-1.3c0-0.2,0-0.3,0-0.5c0-0.2-0.1-0.3-0.1-0.4
			c-0.1-0.1-0.1-0.3-0.2-0.3c-0.1-0.1-0.2-0.1-0.4-0.1c-0.2,0-0.3,0-0.4,0.1c-0.1,0.1-0.2,0.2-0.2,0.3c-0.1,0.1-0.1,0.3-0.1,0.4
			c0,0.2,0,0.3,0,0.5C108.4,92.8,108.6,93.2,109.1,93.2z"/>
		<path fill="#FFFFFF" d="M115.1,96.1c-0.3,0-0.6-0.2-0.9-0.5c-0.2-0.3-0.4-0.6-0.4-1c0-0.3,0.1-0.6,0.2-0.8s0.2-0.4,0.3-0.6
			c0.1-0.1,0.3-0.3,0.6-0.5c0.3-0.2,0.5-0.3,0.6-0.3s0.4-0.2,0.7-0.3c0.1,0,0.1,0,0.1-0.1v-0.4c0-0.3,0-0.6-0.1-0.7
			c-0.1-0.2-0.3-0.3-0.5-0.3c-0.2,0-0.4,0.1-0.5,0.2c-0.1,0.1-0.1,0.4-0.2,0.6c0,0,0,0.1,0,0.2h-1.2c0-0.6,0.2-1.1,0.5-1.4
			s0.8-0.5,1.4-0.5c0.6,0,1,0.2,1.4,0.5c0.3,0.4,0.5,0.8,0.5,1.4v2.8c0,0.7,0.1,1.2,0.2,1.6h-1.2l-0.2-0.9c-0.1,0.1-0.1,0.2-0.2,0.3
			s-0.1,0.2-0.2,0.3c-0.1,0.1-0.2,0.2-0.2,0.2c-0.1,0.1-0.2,0.1-0.3,0.1S115.2,96.1,115.1,96.1z M115.7,95c0.1,0,0.2,0,0.3-0.1
			s0.1-0.1,0.2-0.2s0.1-0.1,0.2-0.2c0,0,0,0,0,0v-1.7c-0.1,0-0.1,0.1-0.3,0.2s-0.2,0.1-0.3,0.2c-0.1,0-0.2,0.1-0.3,0.2
			c-0.1,0.1-0.2,0.2-0.2,0.2c-0.1,0.1-0.1,0.2-0.1,0.3s-0.1,0.2-0.1,0.3C115.1,94.8,115.3,95,115.7,95z"/>
		<path fill="#FFFFFF" d="M118.7,96v-6.2h1.2v0.7c0.2-0.2,0.3-0.3,0.5-0.4c0.1-0.1,0.3-0.2,0.5-0.3c0.2-0.1,0.4-0.1,0.7-0.1
			c0.3,0,0.5,0.1,0.6,0.3s0.2,0.4,0.2,0.7V96h-1.2v-4.7c0-0.2,0-0.4-0.1-0.5c-0.1-0.1-0.2-0.1-0.4-0.1c-0.1,0-0.2,0-0.3,0.1
			c-0.1,0-0.2,0.1-0.2,0.1c-0.1,0-0.1,0.1-0.2,0.2V96H118.7z"/>
		<path fill="#FFFFFF" d="M127.3,96.1c-0.3,0-0.6-0.1-0.8-0.2s-0.4-0.2-0.5-0.4c-0.1-0.2-0.2-0.4-0.3-0.6c-0.1-0.3-0.1-0.5-0.2-0.8
			c0-0.3,0-0.6-0.1-0.9c0-0.3,0-0.5,0-0.8c0-0.3,0-0.6,0.1-0.9c0-0.3,0.1-0.5,0.2-0.7s0.2-0.4,0.3-0.6s0.3-0.3,0.5-0.4
			c0.2-0.1,0.5-0.1,0.8-0.1c0.3,0,0.5,0,0.7,0.1c0.2,0.1,0.4,0.2,0.5,0.3c0.1,0.1,0.2,0.3,0.3,0.5s0.2,0.4,0.2,0.6
			c0,0.2,0.1,0.5,0.1,0.7s0,0.5,0,0.8v0.1h-2.5v0.3c0,0,0,0.1,0,0.2c0,0.1,0,0.2,0,0.4c0,0.1,0,0.3,0,0.4s0,0.2,0.1,0.4
			c0,0.1,0.1,0.2,0.1,0.3s0.1,0.2,0.2,0.2s0.2,0.1,0.3,0.1c0.1,0,0.2,0,0.3-0.1c0.1,0,0.1-0.1,0.2-0.2s0.1-0.2,0.1-0.3s0-0.2,0-0.4
			v-0.3h1.2V94c0,0.7-0.2,1.2-0.5,1.5S127.9,96.1,127.3,96.1z M126.7,92.2h1.2v-0.4c0-0.2,0-0.3,0-0.4s0-0.2-0.1-0.4
			s-0.1-0.2-0.2-0.3s-0.2-0.1-0.3-0.1c-0.1,0-0.2,0-0.3,0.1s-0.1,0.2-0.2,0.3c0,0.1-0.1,0.3-0.1,0.4s0,0.3,0,0.4V92.2z"/>
		<path fill="#FFFFFF" d="M132.1,97.8c-0.2,0-0.3,0-0.4,0c-0.1,0-0.2,0-0.4,0s-0.3,0-0.4,0c-0.1,0-0.2,0-0.4-0.1
			c-0.1,0-0.3-0.1-0.4-0.1s-0.2-0.1-0.3-0.2s-0.2-0.1-0.2-0.2c0-0.1-0.1-0.2-0.1-0.3c0-0.3,0.1-0.6,0.3-0.8s0.4-0.4,0.7-0.6
			c-0.2,0-0.3-0.1-0.4-0.2c-0.1-0.1-0.2-0.2-0.2-0.3c0-0.1,0-0.1,0-0.2s0-0.1,0-0.2c0,0,0-0.1,0.1-0.2s0.1-0.1,0.1-0.2
			c0,0,0.1-0.1,0.1-0.2c0-0.1,0.1-0.1,0.1-0.1c0,0,0.1-0.1,0.1-0.1c0.1-0.1,0.1-0.1,0.1-0.1c-0.4-0.5-0.6-1.1-0.6-1.9
			c0-0.4,0.1-0.8,0.2-1.2s0.3-0.6,0.6-0.8c0.3-0.2,0.6-0.3,1-0.3c0.2,0,0.4,0,0.6,0.1s0.3,0.1,0.4,0.2c0.1,0.1,0.2,0.2,0.3,0.4
			c0.2-0.5,0.6-0.7,1.1-0.7c0,0,0,0,0,0s0,0,0,0s0,0,0,0v1c0,0,0,0-0.1,0c-0.1,0-0.2,0-0.3,0s-0.2,0-0.2,0c-0.1,0-0.2,0.1-0.2,0.1
			c0.1,0.1,0.1,0.3,0.2,0.5c0,0.2,0.1,0.4,0.1,0.6c0,0.4-0.1,0.8-0.2,1.2s-0.3,0.6-0.6,0.8s-0.6,0.3-1,0.3l-0.6-0.1c0,0,0,0,0,0.1
			c0,0,0,0.1-0.1,0.1s0,0.1,0,0.1c0,0,0,0.1,0,0.1c0,0.1,0,0.2,0.1,0.2s0.2,0.1,0.3,0.1c0.1,0,0.3,0,0.4,0.1s0.3,0,0.4,0
			c0.2,0,0.3,0,0.3,0c0.2,0,0.4,0.1,0.5,0.1c0.1,0,0.3,0.1,0.4,0.1s0.3,0.1,0.4,0.2s0.2,0.2,0.2,0.4s0.1,0.3,0.1,0.5
			c0,0.2,0,0.4-0.1,0.6s-0.2,0.3-0.3,0.4s-0.3,0.2-0.5,0.3c-0.2,0.1-0.4,0.1-0.6,0.2S132.3,97.8,132.1,97.8z M132.1,96.9
			c0.1,0,0.2,0,0.2,0s0.2,0,0.2,0s0.2,0,0.2,0c0.1,0,0.1,0,0.2-0.1s0.1-0.1,0.1-0.1c0-0.1,0-0.1,0-0.2c0-0.3-0.3-0.6-1-0.6l-1-0.1
			c-0.1,0.1-0.2,0.2-0.3,0.4s-0.1,0.4-0.1,0.5c0,0.1,0,0.1,0.1,0.1c0,0,0.1,0.1,0.2,0.1s0.1,0,0.2,0s0.2,0,0.3,0s0.2,0,0.3,0
			s0.2,0,0.3,0S132.1,96.9,132.1,96.9z M131.8,93.2c0.5,0,0.8-0.4,0.8-1.3c0-0.2,0-0.3,0-0.5c0-0.2-0.1-0.3-0.1-0.4
			c-0.1-0.1-0.1-0.3-0.2-0.3c-0.1-0.1-0.2-0.1-0.4-0.1c-0.2,0-0.3,0-0.4,0.1c-0.1,0.1-0.2,0.2-0.2,0.3c-0.1,0.1-0.1,0.3-0.1,0.4
			c0,0.2,0,0.3,0,0.5C131,92.8,131.3,93.2,131.8,93.2z"/>
		<path fill="#FFFFFF" d="M136.5,97.8c-0.2,0-0.3,0-0.4,0c-0.1,0-0.2,0-0.4,0s-0.3,0-0.4,0c-0.1,0-0.2,0-0.4-0.1
			c-0.1,0-0.3-0.1-0.4-0.1s-0.2-0.1-0.3-0.2s-0.2-0.1-0.2-0.2c0-0.1-0.1-0.2-0.1-0.3c0-0.3,0.1-0.6,0.3-0.8s0.4-0.4,0.7-0.6
			c-0.2,0-0.3-0.1-0.4-0.2c-0.1-0.1-0.2-0.2-0.2-0.3c0-0.1,0-0.1,0-0.2s0-0.1,0-0.2c0,0,0-0.1,0.1-0.2s0.1-0.1,0.1-0.2
			c0,0,0.1-0.1,0.1-0.2c0-0.1,0.1-0.1,0.1-0.1c0,0,0.1-0.1,0.1-0.1c0.1-0.1,0.1-0.1,0.1-0.1c-0.4-0.5-0.6-1.1-0.6-1.9
			c0-0.4,0.1-0.8,0.2-1.2s0.3-0.6,0.6-0.8c0.3-0.2,0.6-0.3,1-0.3c0.2,0,0.4,0,0.6,0.1s0.3,0.1,0.4,0.2c0.1,0.1,0.2,0.2,0.3,0.4
			c0.2-0.5,0.6-0.7,1.1-0.7c0,0,0,0,0,0s0,0,0,0s0,0,0,0v1c0,0,0,0-0.1,0c-0.1,0-0.2,0-0.3,0s-0.2,0-0.2,0c-0.1,0-0.2,0.1-0.2,0.1
			c0.1,0.1,0.1,0.3,0.2,0.5c0,0.2,0.1,0.4,0.1,0.6c0,0.4-0.1,0.8-0.2,1.2s-0.3,0.6-0.6,0.8s-0.6,0.3-1,0.3l-0.6-0.1c0,0,0,0,0,0.1
			c0,0,0,0.1-0.1,0.1s0,0.1,0,0.1c0,0,0,0.1,0,0.1c0,0.1,0,0.2,0.1,0.2s0.2,0.1,0.3,0.1c0.1,0,0.3,0,0.4,0.1s0.3,0,0.4,0
			c0.2,0,0.3,0,0.3,0c0.2,0,0.4,0.1,0.5,0.1c0.1,0,0.3,0.1,0.4,0.1s0.3,0.1,0.4,0.2s0.2,0.2,0.2,0.4s0.1,0.3,0.1,0.5
			c0,0.2,0,0.4-0.1,0.6s-0.2,0.3-0.3,0.4s-0.3,0.2-0.5,0.3c-0.2,0.1-0.4,0.1-0.6,0.2S136.8,97.8,136.5,97.8z M136.5,96.9
			c0.1,0,0.2,0,0.2,0s0.2,0,0.2,0s0.2,0,0.2,0c0.1,0,0.1,0,0.2-0.1s0.1-0.1,0.1-0.1c0-0.1,0-0.1,0-0.2c0-0.3-0.3-0.6-1-0.6l-1-0.1
			c-0.1,0.1-0.2,0.2-0.3,0.4s-0.1,0.4-0.1,0.5c0,0.1,0,0.1,0.1,0.1c0,0,0.1,0.1,0.2,0.1s0.1,0,0.2,0s0.2,0,0.3,0s0.2,0,0.3,0
			s0.2,0,0.3,0S136.5,96.9,136.5,96.9z M136.2,93.2c0.5,0,0.8-0.4,0.8-1.3c0-0.2,0-0.3,0-0.5c0-0.2-0.1-0.3-0.1-0.4
			c-0.1-0.1-0.1-0.3-0.2-0.3c-0.1-0.1-0.2-0.1-0.4-0.1c-0.2,0-0.3,0-0.4,0.1c-0.1,0.1-0.2,0.2-0.2,0.3c-0.1,0.1-0.1,0.3-0.1,0.4
			c0,0.2,0,0.3,0,0.5C135.4,92.8,135.7,93.2,136.2,93.2z"/>
		<path fill="#FFFFFF" d="M17.7,108l-1.2-6.2h1.1l0.7,4.7l0.7-4.7h1.1l0.7,4.7l0.7-4.7h1.1l-1.2,6.2h-1.2l-0.7-4.3l-0.7,4.3H17.7z"
			/>
		<path fill="#FFFFFF" d="M23.3,100.8v-1.2h1.2v1.2H23.3z M23.3,108v-6.2h1.2v6.2H23.3z"/>
		<path fill="#FFFFFF" d="M27.5,108.1c-0.5,0-0.8-0.1-1.1-0.4s-0.3-0.6-0.3-1.1v-3.9h-0.6v-0.9h0.6v-2.2h1.2v2.2h0.9v0.9h-0.9v3.6
			c0,0.3,0,0.4,0.1,0.6s0.2,0.2,0.4,0.2c0.1,0,0.2,0,0.4,0v1C28,108,27.7,108.1,27.5,108.1z"/>
		<path fill="#FFFFFF" d="M29.2,108v-8.8h1.2v3.2c0.2-0.2,0.3-0.3,0.5-0.4c0.1-0.1,0.3-0.2,0.5-0.3c0.2-0.1,0.4-0.1,0.7-0.1
			c0.3,0,0.5,0.1,0.6,0.3s0.2,0.4,0.2,0.7v5.3h-1.2v-4.7c0-0.2,0-0.4-0.1-0.5s-0.2-0.2-0.3-0.2c-0.3,0-0.5,0.1-0.8,0.4v4.9H29.2z"/>
		<path fill="#FFFFFF" d="M37.1,108.1c-0.3,0-0.6-0.2-0.9-0.5c-0.2-0.3-0.4-0.6-0.4-1c0-0.3,0.1-0.6,0.2-0.8s0.2-0.4,0.3-0.6
			c0.1-0.1,0.3-0.3,0.6-0.5c0.3-0.2,0.5-0.3,0.6-0.3s0.4-0.2,0.7-0.3c0.1,0,0.1,0,0.1-0.1v-0.4c0-0.3,0-0.6-0.1-0.7
			c-0.1-0.2-0.3-0.3-0.5-0.3c-0.2,0-0.4,0.1-0.5,0.2c-0.1,0.1-0.1,0.4-0.2,0.6c0,0,0,0.1,0,0.2h-1.2c0-0.6,0.2-1.1,0.5-1.4
			s0.8-0.5,1.4-0.5c0.6,0,1,0.2,1.4,0.5c0.3,0.4,0.5,0.8,0.5,1.4v2.8c0,0.7,0.1,1.2,0.2,1.6h-1.2l-0.2-0.9c-0.1,0.1-0.1,0.2-0.2,0.3
			s-0.1,0.2-0.2,0.3c-0.1,0.1-0.2,0.2-0.2,0.2c-0.1,0.1-0.2,0.1-0.3,0.1S37.3,108.1,37.1,108.1z M37.8,107c0.1,0,0.2,0,0.3-0.1
			s0.1-0.1,0.2-0.2s0.1-0.1,0.2-0.2c0,0,0,0,0,0v-1.7c-0.1,0-0.1,0.1-0.3,0.2s-0.2,0.1-0.3,0.2c-0.1,0-0.2,0.1-0.3,0.2
			c-0.1,0.1-0.2,0.2-0.2,0.2c-0.1,0.1-0.1,0.2-0.1,0.3s-0.1,0.2-0.1,0.3C37.1,106.8,37.4,107,37.8,107z"/>
		<path fill="#FFFFFF" d="M45.3,108.1c-0.3,0-0.5-0.1-0.7-0.2s-0.4-0.3-0.6-0.5v0.6h-1.2v-8.7H44v3.1c0.1-0.1,0.2-0.2,0.3-0.3
			s0.1-0.1,0.3-0.2s0.2-0.1,0.3-0.2c0.1,0,0.3-0.1,0.4-0.1c0.2,0,0.4,0,0.6,0.1c0.2,0.1,0.3,0.2,0.4,0.3s0.2,0.3,0.3,0.5
			s0.1,0.4,0.2,0.5s0.1,0.4,0.1,0.7s0,0.5,0,0.7c0,0.2,0,0.4,0,0.7v0.1c0,0.3,0,0.5,0,0.8s-0.1,0.5-0.2,0.8s-0.2,0.5-0.3,0.7
			s-0.3,0.3-0.4,0.5C45.7,108,45.5,108.1,45.3,108.1z M44.9,107c0.1,0,0.2,0,0.3-0.1s0.2-0.2,0.2-0.4c0-0.2,0.1-0.4,0.1-0.5
			s0-0.4,0-0.6c0-0.2,0-0.4,0-0.7s0-0.5,0-0.7s0-0.3,0-0.4c0-0.1,0-0.2,0-0.3s-0.1-0.2-0.1-0.3s-0.1-0.1-0.2-0.2
			c-0.1-0.1-0.2-0.1-0.3-0.1c-0.3,0-0.7,0.1-0.9,0.2v3.9C44.3,107,44.6,107,44.9,107z"/>
		<path fill="#FFFFFF" d="M47.9,100.8v-1.2h1.2v1.2H47.9z M47.9,108v-6.2h1.2v6.2H47.9z"/>
		<path fill="#FFFFFF" d="M52.3,109.8c-0.2,0-0.3,0-0.4,0c-0.1,0-0.2,0-0.4,0s-0.3,0-0.4,0c-0.1,0-0.2,0-0.4-0.1
			c-0.1,0-0.3-0.1-0.4-0.1s-0.2-0.1-0.3-0.2s-0.2-0.1-0.2-0.2c0-0.1-0.1-0.2-0.1-0.3c0-0.3,0.1-0.6,0.3-0.8s0.4-0.4,0.7-0.6
			c-0.2,0-0.3-0.1-0.4-0.2c-0.1-0.1-0.2-0.2-0.2-0.3c0-0.1,0-0.1,0-0.2s0-0.1,0-0.2c0,0,0-0.1,0.1-0.2s0.1-0.1,0.1-0.2
			c0,0,0.1-0.1,0.1-0.2c0-0.1,0.1-0.1,0.1-0.1c0,0,0.1-0.1,0.1-0.1c0.1-0.1,0.1-0.1,0.1-0.1c-0.4-0.5-0.6-1.1-0.6-1.9
			c0-0.4,0.1-0.8,0.2-1.2s0.3-0.6,0.6-0.8c0.3-0.2,0.6-0.3,1-0.3c0.2,0,0.4,0,0.6,0.1s0.3,0.1,0.4,0.2c0.1,0.1,0.2,0.2,0.3,0.4
			c0.2-0.5,0.6-0.7,1.1-0.7c0,0,0,0,0,0s0,0,0,0s0,0,0,0v1c0,0,0,0-0.1,0c-0.1,0-0.2,0-0.3,0s-0.2,0-0.2,0c-0.1,0-0.2,0.1-0.2,0.1
			c0.1,0.1,0.1,0.3,0.2,0.5c0,0.2,0.1,0.4,0.1,0.6c0,0.4-0.1,0.8-0.2,1.2s-0.3,0.6-0.6,0.8s-0.6,0.3-1,0.3l-0.6-0.1c0,0,0,0,0,0.1
			c0,0,0,0.1-0.1,0.1s0,0.1,0,0.1c0,0,0,0.1,0,0.1c0,0.1,0,0.2,0.1,0.2s0.2,0.1,0.3,0.1c0.1,0,0.3,0,0.4,0.1s0.3,0,0.4,0
			c0.2,0,0.3,0,0.3,0c0.2,0,0.4,0.1,0.5,0.1c0.1,0,0.3,0.1,0.4,0.1s0.3,0.1,0.4,0.2s0.2,0.2,0.2,0.4s0.1,0.3,0.1,0.5
			c0,0.2,0,0.4-0.1,0.6s-0.2,0.3-0.3,0.4s-0.3,0.2-0.5,0.3c-0.2,0.1-0.4,0.1-0.6,0.2S52.6,109.8,52.3,109.8z M52.3,108.9
			c0.1,0,0.2,0,0.2,0s0.2,0,0.2,0s0.2,0,0.2,0c0.1,0,0.1,0,0.2-0.1s0.1-0.1,0.1-0.1c0-0.1,0-0.1,0-0.2c0-0.3-0.3-0.6-1-0.6l-1-0.1
			c-0.1,0.1-0.2,0.2-0.3,0.4s-0.1,0.4-0.1,0.5c0,0.1,0,0.1,0.1,0.1c0,0,0.1,0.1,0.2,0.1s0.1,0,0.2,0s0.2,0,0.3,0s0.2,0,0.3,0
			s0.2,0,0.3,0S52.3,108.9,52.3,108.9z M52,105.2c0.5,0,0.8-0.4,0.8-1.3c0-0.2,0-0.3,0-0.5c0-0.2-0.1-0.3-0.1-0.4
			c-0.1-0.1-0.1-0.3-0.2-0.3c-0.1-0.1-0.2-0.1-0.4-0.1c-0.2,0-0.3,0-0.4,0.1c-0.1,0.1-0.2,0.2-0.2,0.3c-0.1,0.1-0.1,0.3-0.1,0.4
			c0,0.2,0,0.3,0,0.5C51.2,104.8,51.5,105.2,52,105.2z"/>
		<path fill="#FFFFFF" d="M56.8,109.8c-0.2,0-0.3,0-0.4,0c-0.1,0-0.2,0-0.4,0s-0.3,0-0.4,0c-0.1,0-0.2,0-0.4-0.1
			c-0.1,0-0.3-0.1-0.4-0.1s-0.2-0.1-0.3-0.2s-0.2-0.1-0.2-0.2c0-0.1-0.1-0.2-0.1-0.3c0-0.3,0.1-0.6,0.3-0.8s0.4-0.4,0.7-0.6
			c-0.2,0-0.3-0.1-0.4-0.2c-0.1-0.1-0.2-0.2-0.2-0.3c0-0.1,0-0.1,0-0.2s0-0.1,0-0.2c0,0,0-0.1,0.1-0.2s0.1-0.1,0.1-0.2
			c0,0,0.1-0.1,0.1-0.2c0-0.1,0.1-0.1,0.1-0.1c0,0,0.1-0.1,0.1-0.1c0.1-0.1,0.1-0.1,0.1-0.1c-0.4-0.5-0.6-1.1-0.6-1.9
			c0-0.4,0.1-0.8,0.2-1.2s0.3-0.6,0.6-0.8c0.3-0.2,0.6-0.3,1-0.3c0.2,0,0.4,0,0.6,0.1s0.3,0.1,0.4,0.2c0.1,0.1,0.2,0.2,0.3,0.4
			c0.2-0.5,0.6-0.7,1.1-0.7c0,0,0,0,0,0s0,0,0,0s0,0,0,0v1c0,0,0,0-0.1,0c-0.1,0-0.2,0-0.3,0s-0.2,0-0.2,0c-0.1,0-0.2,0.1-0.2,0.1
			c0.1,0.1,0.1,0.3,0.2,0.5c0,0.2,0.1,0.4,0.1,0.6c0,0.4-0.1,0.8-0.2,1.2s-0.3,0.6-0.6,0.8s-0.6,0.3-1,0.3l-0.6-0.1c0,0,0,0,0,0.1
			c0,0,0,0.1-0.1,0.1s0,0.1,0,0.1c0,0,0,0.1,0,0.1c0,0.1,0,0.2,0.1,0.2s0.2,0.1,0.3,0.1c0.1,0,0.3,0,0.4,0.1s0.3,0,0.4,0
			c0.2,0,0.3,0,0.3,0c0.2,0,0.4,0.1,0.5,0.1c0.1,0,0.3,0.1,0.4,0.1s0.3,0.1,0.4,0.2s0.2,0.2,0.2,0.4s0.1,0.3,0.1,0.5
			c0,0.2,0,0.4-0.1,0.6s-0.2,0.3-0.3,0.4s-0.3,0.2-0.5,0.3c-0.2,0.1-0.4,0.1-0.6,0.2S57,109.8,56.8,109.8z M56.8,108.9
			c0.1,0,0.2,0,0.2,0s0.2,0,0.2,0s0.2,0,0.2,0c0.1,0,0.1,0,0.2-0.1s0.1-0.1,0.1-0.1c0-0.1,0-0.1,0-0.2c0-0.3-0.3-0.6-1-0.6l-1-0.1
			c-0.1,0.1-0.2,0.2-0.3,0.4s-0.1,0.4-0.1,0.5c0,0.1,0,0.1,0.1,0.1c0,0,0.1,0.1,0.2,0.1s0.1,0,0.2,0s0.2,0,0.3,0s0.2,0,0.3,0
			s0.2,0,0.3,0S56.7,108.9,56.8,108.9z M56.5,105.2c0.5,0,0.8-0.4,0.8-1.3c0-0.2,0-0.3,0-0.5c0-0.2-0.1-0.3-0.1-0.4
			c-0.1-0.1-0.1-0.3-0.2-0.3c-0.1-0.1-0.2-0.1-0.4-0.1c-0.2,0-0.3,0-0.4,0.1c-0.1,0.1-0.2,0.2-0.2,0.3c-0.1,0.1-0.1,0.3-0.1,0.4
			c0,0.2,0,0.3,0,0.5C55.7,104.8,55.9,105.2,56.5,105.2z"/>
		<path fill="#FFFFFF" d="M61.1,108.1c-0.3,0-0.6-0.1-0.8-0.2s-0.4-0.2-0.5-0.4c-0.1-0.2-0.2-0.4-0.3-0.6c-0.1-0.3-0.1-0.5-0.2-0.8
			c0-0.3,0-0.6-0.1-0.9c0-0.3,0-0.5,0-0.8c0-0.3,0-0.6,0.1-0.9c0-0.3,0.1-0.5,0.2-0.7s0.2-0.4,0.3-0.6s0.3-0.3,0.5-0.4
			c0.2-0.1,0.5-0.1,0.8-0.1c0.3,0,0.5,0,0.7,0.1c0.2,0.1,0.4,0.2,0.5,0.3c0.1,0.1,0.2,0.3,0.3,0.5s0.2,0.4,0.2,0.6
			c0,0.2,0.1,0.5,0.1,0.7s0,0.5,0,0.8v0.1h-2.5v0.3c0,0,0,0.1,0,0.2c0,0.1,0,0.2,0,0.4c0,0.1,0,0.3,0,0.4s0,0.2,0.1,0.4
			c0,0.1,0.1,0.2,0.1,0.3s0.1,0.2,0.2,0.2s0.2,0.1,0.3,0.1c0.1,0,0.2,0,0.3-0.1c0.1,0,0.1-0.1,0.2-0.2s0.1-0.2,0.1-0.3s0-0.2,0-0.4
			v-0.3H63v0.2c0,0.7-0.2,1.2-0.5,1.5S61.7,108.1,61.1,108.1z M60.5,104.2h1.2v-0.4c0-0.2,0-0.3,0-0.4s0-0.2-0.1-0.4
			s-0.1-0.2-0.2-0.3s-0.2-0.1-0.3-0.1c-0.1,0-0.2,0-0.3,0.1s-0.1,0.2-0.2,0.3c0,0.1-0.1,0.3-0.1,0.4s0,0.3,0,0.4V104.2z"/>
		<path fill="#FFFFFF" d="M63.9,108v-6.2h1.2v0.8c0.1-0.2,0.3-0.5,0.6-0.6c0.2-0.2,0.5-0.3,0.8-0.3c0,0,0.1,0,0.2,0v1.4
			c-0.2-0.1-0.5-0.1-0.7-0.1c-0.3,0-0.5,0.1-0.6,0.2s-0.2,0.4-0.2,0.6v4.2H63.9z"/>
		<path fill="#FFFFFF" d="M70.9,108.1c-0.5,0-0.9-0.2-1.2-0.5s-0.5-0.7-0.6-1.2l0.9-0.3c0.2,0.6,0.5,0.9,0.9,0.9
			c0.2,0,0.4-0.1,0.5-0.2c0.1-0.1,0.2-0.3,0.2-0.5c0-0.3-0.1-0.5-0.3-0.7l-1.2-0.9c-0.1-0.1-0.3-0.2-0.4-0.3
			c-0.1-0.1-0.2-0.2-0.3-0.3s-0.2-0.3-0.2-0.4s-0.1-0.3-0.1-0.5c0-0.5,0.2-0.9,0.5-1.2s0.8-0.4,1.4-0.4c0.3,0,0.5,0,0.7,0.1
			c0.2,0.1,0.4,0.2,0.5,0.4s0.3,0.3,0.4,0.5c0.1,0.2,0.2,0.4,0.2,0.6l-0.9,0.3c0-0.1-0.1-0.2-0.1-0.3c0-0.1-0.1-0.2-0.2-0.3
			s-0.2-0.2-0.3-0.2c-0.1-0.1-0.2-0.1-0.3-0.1c-0.2,0-0.4,0.1-0.5,0.2c-0.1,0.1-0.2,0.3-0.2,0.5c0,0.2,0.1,0.4,0.3,0.5l1.2,0.9
			c0.1,0.1,0.3,0.2,0.4,0.3c0.1,0.1,0.2,0.2,0.3,0.4c0.1,0.1,0.2,0.3,0.2,0.5s0.1,0.3,0.1,0.5c0,0.5-0.2,0.9-0.5,1.2
			S71.5,108.1,70.9,108.1z"/>
		<path fill="#FFFFFF" d="M75.3,108.1c-0.5,0-0.8-0.1-1.1-0.4s-0.3-0.6-0.3-1.1v-3.9h-0.6v-0.9h0.6v-2.2h1.2v2.2h0.9v0.9h-0.9v3.6
			c0,0.3,0,0.4,0.1,0.6s0.2,0.2,0.4,0.2c0.1,0,0.2,0,0.4,0v1C75.7,108,75.5,108.1,75.3,108.1z"/>
		<path fill="#FFFFFF" d="M80.1,107.5c-0.3,0.4-0.8,0.6-1.4,0.6s-1.2-0.2-1.4-0.6s-0.4-1-0.4-1.7v-1.9c0-0.7,0.1-1.3,0.4-1.7
			s0.8-0.6,1.4-0.6s1.2,0.2,1.4,0.6s0.4,1,0.4,1.7v1.9C80.6,106.5,80.4,107.1,80.1,107.5z M78.5,107c0.1,0,0.1,0,0.2,0s0.2,0,0.2,0
			s0.1-0.1,0.2-0.1c0,0,0.1-0.1,0.1-0.2c0-0.1,0.1-0.1,0.1-0.2s0-0.1,0-0.2s0-0.2,0-0.2c0-0.1,0-0.2,0-0.3v-1.9c0-0.1,0-0.2,0-0.3
			c0-0.1,0-0.1,0-0.2s0-0.2,0-0.2s0-0.1-0.1-0.2c0-0.1-0.1-0.1-0.1-0.2c0,0-0.1-0.1-0.2-0.1s-0.1,0-0.2,0s-0.2,0-0.2,0
			s-0.1,0.1-0.2,0.1c0,0-0.1,0.1-0.1,0.2c0,0.1-0.1,0.1-0.1,0.2s0,0.1,0,0.2s0,0.2,0,0.2c0,0.1,0,0.2,0,0.3v1.9c0,0.1,0,0.2,0,0.3
			c0,0.1,0,0.1,0,0.2s0,0.2,0,0.2s0,0.1,0.1,0.2c0,0.1,0.1,0.1,0.1,0.2C78.3,106.9,78.4,107,78.5,107z"/>
		<path fill="#FFFFFF" d="M81.6,108v-6.2h1.2v0.7c0.2-0.2,0.3-0.3,0.5-0.4c0.1-0.1,0.3-0.2,0.5-0.3c0.2-0.1,0.4-0.1,0.7-0.1
			c0.3,0,0.5,0.1,0.6,0.3s0.2,0.4,0.2,0.7v5.3h-1.2v-4.7c0-0.2,0-0.4-0.1-0.5c-0.1-0.1-0.2-0.1-0.4-0.1c-0.1,0-0.2,0-0.3,0.1
			c-0.1,0-0.2,0.1-0.2,0.1c-0.1,0-0.1,0.1-0.2,0.2v4.9H81.6z"/>
		<path fill="#FFFFFF" d="M88.2,108.1c-0.3,0-0.6-0.1-0.8-0.2s-0.4-0.2-0.5-0.4c-0.1-0.2-0.2-0.4-0.3-0.6c-0.1-0.3-0.1-0.5-0.2-0.8
			c0-0.3,0-0.6-0.1-0.9c0-0.3,0-0.5,0-0.8c0-0.3,0-0.6,0.1-0.9c0-0.3,0.1-0.5,0.2-0.7s0.2-0.4,0.3-0.6s0.3-0.3,0.5-0.4
			c0.2-0.1,0.5-0.1,0.8-0.1c0.3,0,0.5,0,0.7,0.1c0.2,0.1,0.4,0.2,0.5,0.3c0.1,0.1,0.2,0.3,0.3,0.5s0.2,0.4,0.2,0.6
			c0,0.2,0.1,0.5,0.1,0.7s0,0.5,0,0.8v0.1h-2.5v0.3c0,0,0,0.1,0,0.2c0,0.1,0,0.2,0,0.4c0,0.1,0,0.3,0,0.4s0,0.2,0.1,0.4
			c0,0.1,0.1,0.2,0.1,0.3s0.1,0.2,0.2,0.2s0.2,0.1,0.3,0.1c0.1,0,0.2,0,0.3-0.1c0.1,0,0.1-0.1,0.2-0.2s0.1-0.2,0.1-0.3s0-0.2,0-0.4
			v-0.3h1.2v0.2c0,0.7-0.2,1.2-0.5,1.5S88.8,108.1,88.2,108.1z M87.6,104.2h1.2v-0.4c0-0.2,0-0.3,0-0.4s0-0.2-0.1-0.4
			s-0.1-0.2-0.2-0.3s-0.2-0.1-0.3-0.1c-0.1,0-0.2,0-0.3,0.1s-0.1,0.2-0.2,0.3c0,0.1-0.1,0.3-0.1,0.4s0,0.3,0,0.4V104.2z"/>
		<path fill="#FFFFFF" d="M94.1,108.1c-0.3,0-0.6-0.2-0.9-0.5c-0.2-0.3-0.4-0.6-0.4-1c0-0.3,0.1-0.6,0.2-0.8s0.2-0.4,0.3-0.6
			c0.1-0.1,0.3-0.3,0.6-0.5c0.3-0.2,0.5-0.3,0.6-0.3s0.4-0.2,0.7-0.3c0.1,0,0.1,0,0.1-0.1v-0.4c0-0.3,0-0.6-0.1-0.7
			c-0.1-0.2-0.3-0.3-0.5-0.3c-0.2,0-0.4,0.1-0.5,0.2c-0.1,0.1-0.1,0.4-0.2,0.6c0,0,0,0.1,0,0.2h-1.2c0-0.6,0.2-1.1,0.5-1.4
			s0.8-0.5,1.4-0.5c0.6,0,1,0.2,1.4,0.5c0.3,0.4,0.5,0.8,0.5,1.4v2.8c0,0.7,0.1,1.2,0.2,1.6h-1.2l-0.2-0.9c-0.1,0.1-0.1,0.2-0.2,0.3
			s-0.1,0.2-0.2,0.3c-0.1,0.1-0.2,0.2-0.2,0.2c-0.1,0.1-0.2,0.1-0.3,0.1S94.3,108.1,94.1,108.1z M94.7,107c0.1,0,0.2,0,0.3-0.1
			s0.1-0.1,0.2-0.2s0.1-0.1,0.2-0.2c0,0,0,0,0,0v-1.7c-0.1,0-0.1,0.1-0.3,0.2s-0.2,0.1-0.3,0.2c-0.1,0-0.2,0.1-0.3,0.2
			c-0.1,0.1-0.2,0.2-0.2,0.2c-0.1,0.1-0.1,0.2-0.1,0.3s-0.1,0.2-0.1,0.3C94.1,106.8,94.3,107,94.7,107z"/>
		<path fill="#FFFFFF" d="M97.7,108v-6.2h1.2v0.7c0.2-0.2,0.3-0.3,0.5-0.4c0.1-0.1,0.3-0.2,0.5-0.3c0.2-0.1,0.4-0.1,0.7-0.1
			c0.3,0,0.5,0.1,0.6,0.3s0.2,0.4,0.2,0.7v5.3h-1.2v-4.7c0-0.2,0-0.4-0.1-0.5c-0.1-0.1-0.2-0.1-0.4-0.1c-0.1,0-0.2,0-0.3,0.1
			c-0.1,0-0.2,0.1-0.2,0.1c-0.1,0-0.1,0.1-0.2,0.2v4.9H97.7z"/>
		<path fill="#FFFFFF" d="M104,108.1c-0.3,0-0.5-0.1-0.7-0.2s-0.4-0.4-0.5-0.6s-0.2-0.5-0.3-0.8c-0.1-0.3-0.1-0.6-0.1-0.9
			c0-0.2,0-0.5,0-1.1c0-0.2,0-0.4,0-0.6c0-0.2,0-0.4,0.1-0.5s0.1-0.4,0.1-0.5c0-0.1,0.1-0.3,0.2-0.4c0.1-0.1,0.2-0.2,0.3-0.3
			s0.2-0.2,0.4-0.2s0.3-0.1,0.5-0.1c0.1,0,0.3,0,0.4,0.1c0.1,0,0.2,0.1,0.3,0.2c0.1,0.1,0.2,0.2,0.3,0.2s0.2,0.1,0.3,0.3v-3.1h1.2
			v8.7h-1.2v-0.6c-0.2,0.2-0.4,0.4-0.6,0.5S104.2,108.1,104,108.1z M104.3,107c0.3,0,0.6-0.1,0.9-0.2v-3.9c-0.3-0.2-0.6-0.2-0.9-0.2
			c-0.1,0-0.2,0-0.3,0.1c-0.1,0.1-0.1,0.1-0.2,0.3c0,0.1-0.1,0.2-0.1,0.4c0,0.1,0,0.3,0,0.4c0,0.7,0,1.3,0,1.7c0,0.2,0,0.4,0,0.6
			s0.1,0.3,0.1,0.5c0,0.2,0.1,0.3,0.2,0.3S104.2,107,104.3,107z"/>
		<path fill="#FFFFFF" d="M109.7,108v-8.8h1.2v3.2c0.2-0.2,0.3-0.3,0.5-0.4c0.1-0.1,0.3-0.2,0.5-0.3c0.2-0.1,0.4-0.1,0.7-0.1
			c0.3,0,0.5,0.1,0.6,0.3s0.2,0.4,0.2,0.7v5.3h-1.2v-4.7c0-0.2,0-0.4-0.1-0.5s-0.2-0.2-0.3-0.2c-0.3,0-0.5,0.1-0.8,0.4v4.9H109.7z"
			/>
		<path fill="#FFFFFF" d="M114.6,100.8v-1.2h1.2v1.2H114.6z M114.6,108v-6.2h1.2v6.2H114.6z"/>
		<path fill="#FFFFFF" d="M118.8,108.1c-0.5,0-0.8-0.1-1.1-0.4s-0.3-0.6-0.3-1.1v-3.9h-0.6v-0.9h0.6v-2.2h1.2v2.2h0.9v0.9h-0.9v3.6
			c0,0.3,0,0.4,0.1,0.6s0.2,0.2,0.4,0.2c0.1,0,0.2,0,0.4,0v1C119.2,108,119,108.1,118.8,108.1z"/>
		<path fill="#FFFFFF" d="M122.2,108.1c-0.5,0-0.8-0.1-1.1-0.4s-0.3-0.6-0.3-1.1v-3.9h-0.6v-0.9h0.6v-2.2h1.2v2.2h0.9v0.9H122v3.6
			c0,0.3,0,0.4,0.1,0.6s0.2,0.2,0.4,0.2c0.1,0,0.2,0,0.4,0v1C122.6,108,122.4,108.1,122.2,108.1z"/>
		<path fill="#FFFFFF" d="M123.9,100.8v-1.2h1.2v1.2H123.9z M123.9,108v-6.2h1.2v6.2H123.9z"/>
		<path fill="#FFFFFF" d="M126.4,108v-6.2h1.2v0.7c0.2-0.2,0.3-0.3,0.5-0.4c0.1-0.1,0.3-0.2,0.5-0.3c0.2-0.1,0.4-0.1,0.7-0.1
			c0.3,0,0.5,0.1,0.6,0.3s0.2,0.4,0.2,0.7v5.3h-1.2v-4.7c0-0.2,0-0.4-0.1-0.5c-0.1-0.1-0.2-0.1-0.4-0.1c-0.1,0-0.2,0-0.3,0.1
			c-0.1,0-0.2,0.1-0.2,0.1c-0.1,0-0.1,0.1-0.2,0.2v4.9H126.4z"/>
		<path fill="#FFFFFF" d="M133.2,109.8c-0.2,0-0.3,0-0.4,0c-0.1,0-0.2,0-0.4,0s-0.3,0-0.4,0c-0.1,0-0.2,0-0.4-0.1
			c-0.1,0-0.3-0.1-0.4-0.1s-0.2-0.1-0.3-0.2s-0.2-0.1-0.2-0.2c0-0.1-0.1-0.2-0.1-0.3c0-0.3,0.1-0.6,0.3-0.8s0.4-0.4,0.7-0.6
			c-0.2,0-0.3-0.1-0.4-0.2c-0.1-0.1-0.2-0.2-0.2-0.3c0-0.1,0-0.1,0-0.2s0-0.1,0-0.2c0,0,0-0.1,0.1-0.2s0.1-0.1,0.1-0.2
			c0,0,0.1-0.1,0.1-0.2c0-0.1,0.1-0.1,0.1-0.1c0,0,0.1-0.1,0.1-0.1c0.1-0.1,0.1-0.1,0.1-0.1c-0.4-0.5-0.6-1.1-0.6-1.9
			c0-0.4,0.1-0.8,0.2-1.2s0.3-0.6,0.6-0.8c0.3-0.2,0.6-0.3,1-0.3c0.2,0,0.4,0,0.6,0.1s0.3,0.1,0.4,0.2c0.1,0.1,0.2,0.2,0.3,0.4
			c0.2-0.5,0.6-0.7,1.1-0.7c0,0,0,0,0,0s0,0,0,0s0,0,0,0v1c0,0,0,0-0.1,0c-0.1,0-0.2,0-0.3,0s-0.2,0-0.2,0c-0.1,0-0.2,0.1-0.2,0.1
			c0.1,0.1,0.1,0.3,0.2,0.5c0,0.2,0.1,0.4,0.1,0.6c0,0.4-0.1,0.8-0.2,1.2s-0.3,0.6-0.6,0.8s-0.6,0.3-1,0.3l-0.6-0.1c0,0,0,0,0,0.1
			c0,0,0,0.1-0.1,0.1s0,0.1,0,0.1c0,0,0,0.1,0,0.1c0,0.1,0,0.2,0.1,0.2s0.2,0.1,0.3,0.1c0.1,0,0.3,0,0.4,0.1s0.3,0,0.4,0
			c0.2,0,0.3,0,0.3,0c0.2,0,0.4,0.1,0.5,0.1c0.1,0,0.3,0.1,0.4,0.1s0.3,0.1,0.4,0.2s0.2,0.2,0.2,0.4s0.1,0.3,0.1,0.5
			c0,0.2,0,0.4-0.1,0.6s-0.2,0.3-0.3,0.4s-0.3,0.2-0.5,0.3c-0.2,0.1-0.4,0.1-0.6,0.2S133.4,109.8,133.2,109.8z M133.2,108.9
			c0.1,0,0.2,0,0.2,0s0.2,0,0.2,0s0.2,0,0.2,0c0.1,0,0.1,0,0.2-0.1s0.1-0.1,0.1-0.1c0-0.1,0-0.1,0-0.2c0-0.3-0.3-0.6-1-0.6l-1-0.1
			c-0.1,0.1-0.2,0.2-0.3,0.4s-0.1,0.4-0.1,0.5c0,0.1,0,0.1,0.1,0.1c0,0,0.1,0.1,0.2,0.1s0.1,0,0.2,0s0.2,0,0.3,0s0.2,0,0.3,0
			s0.2,0,0.3,0S133.2,108.9,133.2,108.9z M132.9,105.2c0.5,0,0.8-0.4,0.8-1.3c0-0.2,0-0.3,0-0.5c0-0.2-0.1-0.3-0.1-0.4
			c-0.1-0.1-0.1-0.3-0.2-0.3c-0.1-0.1-0.2-0.1-0.4-0.1c-0.2,0-0.3,0-0.4,0.1c-0.1,0.1-0.2,0.2-0.2,0.3c-0.1,0.1-0.1,0.3-0.1,0.4
			c0,0.2,0,0.3,0,0.5C132.1,104.8,132.4,105.2,132.9,105.2z"/>
		<path fill="#FFFFFF" d="M17.1,112.8v-1.2h1.2v1.2H17.1z M17.1,120v-6.2h1.2v6.2H17.1z"/>
		<path fill="#FFFFFF" d="M21.2,120.1c-0.5,0-0.8-0.1-1.1-0.4s-0.3-0.6-0.3-1.1v-3.9h-0.6v-0.9h0.6v-2.2h1.2v2.2H22v0.9h-0.9v3.6
			c0,0.3,0,0.4,0.1,0.6s0.2,0.2,0.4,0.2c0.1,0,0.2,0,0.4,0v1C21.7,120,21.4,120.1,21.2,120.1z"/>
		<path fill="#FFFFFF" d="M25.6,120l-1.2-6.2h1.1l0.7,4.7l0.7-4.7h1.1l0.7,4.7l0.7-4.7h1.1l-1.2,6.2h-1.2l-0.7-4.3l-0.7,4.3H25.6z"
			/>
		<path fill="#FFFFFF" d="M31.3,112.8v-1.2h1.2v1.2H31.3z M31.3,120v-6.2h1.2v6.2H31.3z"/>
		<path fill="#FFFFFF" d="M35.5,120.1c-0.5,0-0.8-0.1-1.1-0.4s-0.3-0.6-0.3-1.1v-3.9h-0.6v-0.9H34v-2.2h1.2v2.2h0.9v0.9h-0.9v3.6
			c0,0.3,0,0.4,0.1,0.6s0.2,0.2,0.4,0.2c0.1,0,0.2,0,0.4,0v1C35.9,120,35.7,120.1,35.5,120.1z"/>
		<path fill="#FFFFFF" d="M37.1,120v-8.8h1.2v3.2c0.2-0.2,0.3-0.3,0.5-0.4c0.1-0.1,0.3-0.2,0.5-0.3c0.2-0.1,0.4-0.1,0.7-0.1
			c0.3,0,0.5,0.1,0.6,0.3s0.2,0.4,0.2,0.7v5.3h-1.2v-4.7c0-0.2,0-0.4-0.1-0.5s-0.2-0.2-0.3-0.2c-0.3,0-0.5,0.1-0.8,0.4v4.9H37.1z"/>
		<path fill="#FFFFFF" d="M45.1,120.1c-0.3,0-0.6-0.2-0.9-0.5c-0.2-0.3-0.4-0.6-0.4-1c0-0.3,0.1-0.6,0.2-0.8s0.2-0.4,0.3-0.6
			c0.1-0.1,0.3-0.3,0.6-0.5c0.3-0.2,0.5-0.3,0.6-0.3s0.4-0.2,0.7-0.3c0.1,0,0.1,0,0.1-0.1v-0.4c0-0.3,0-0.6-0.1-0.7
			c-0.1-0.2-0.3-0.3-0.5-0.3c-0.2,0-0.4,0.1-0.5,0.2c-0.1,0.1-0.1,0.4-0.2,0.6c0,0,0,0.1,0,0.2h-1.2c0-0.6,0.2-1.1,0.5-1.4
			s0.8-0.5,1.4-0.5c0.6,0,1,0.2,1.4,0.5c0.3,0.4,0.5,0.8,0.5,1.4v2.8c0,0.7,0.1,1.2,0.2,1.6h-1.2l-0.2-0.9c-0.1,0.1-0.1,0.2-0.2,0.3
			s-0.1,0.2-0.2,0.3c-0.1,0.1-0.2,0.2-0.2,0.2c-0.1,0.1-0.2,0.1-0.3,0.1S45.2,120.1,45.1,120.1z M45.7,119c0.1,0,0.2,0,0.3-0.1
			s0.1-0.1,0.2-0.2s0.1-0.1,0.2-0.2c0,0,0,0,0,0v-1.7c-0.1,0-0.1,0.1-0.3,0.2s-0.2,0.1-0.3,0.2c-0.1,0-0.2,0.1-0.3,0.2
			c-0.1,0.1-0.2,0.2-0.2,0.2c-0.1,0.1-0.1,0.2-0.1,0.3s-0.1,0.2-0.1,0.3C45.1,118.8,45.3,119,45.7,119z"/>
		<path fill="#FFFFFF" d="M52.3,120.1c-0.5,0-0.9-0.2-1.2-0.5s-0.5-0.7-0.6-1.2l0.9-0.3c0.2,0.6,0.5,0.9,0.9,0.9
			c0.2,0,0.4-0.1,0.5-0.2c0.1-0.1,0.2-0.3,0.2-0.5c0-0.3-0.1-0.5-0.3-0.7l-1.2-0.9c-0.1-0.1-0.3-0.2-0.4-0.3
			c-0.1-0.1-0.2-0.2-0.3-0.3s-0.2-0.3-0.2-0.4s-0.1-0.3-0.1-0.5c0-0.5,0.2-0.9,0.5-1.2s0.8-0.4,1.4-0.4c0.3,0,0.5,0,0.7,0.1
			c0.2,0.1,0.4,0.2,0.5,0.4s0.3,0.3,0.4,0.5c0.1,0.2,0.2,0.4,0.2,0.6l-0.9,0.3c0-0.1-0.1-0.2-0.1-0.3c0-0.1-0.1-0.2-0.2-0.3
			s-0.2-0.2-0.3-0.2c-0.1-0.1-0.2-0.1-0.3-0.1c-0.2,0-0.4,0.1-0.5,0.2c-0.1,0.1-0.2,0.3-0.2,0.5c0,0.2,0.1,0.4,0.3,0.5l1.2,0.9
			c0.1,0.1,0.3,0.2,0.4,0.3c0.1,0.1,0.2,0.2,0.3,0.4c0.1,0.1,0.2,0.3,0.2,0.5s0.1,0.3,0.1,0.5c0,0.5-0.2,0.9-0.5,1.2
			S52.9,120.1,52.3,120.1z"/>
		<path fill="#FFFFFF" d="M55,120v-6.2h1.2v0.7c0.4-0.5,1-0.8,1.6-0.8c0.3,0,0.5,0.1,0.7,0.2c0.1,0.1,0.2,0.3,0.3,0.6
			c0.2-0.3,0.4-0.5,0.7-0.6s0.5-0.2,0.9-0.2c0.1,0,0.2,0,0.3,0c0.1,0,0.2,0,0.2,0.1s0.1,0.1,0.2,0.1c0,0.1,0.1,0.1,0.1,0.2
			c0,0,0.1,0.1,0.1,0.2s0,0.2,0,0.2s0,0.2,0,0.3s0,0.2,0,0.3s0,0.2,0,0.3c0,0,0,0.1,0,0.1v4.5H60v-4.6c0,0,0,0,0-0.1
			c0-0.1,0-0.2,0-0.2s0-0.1,0-0.2c0-0.1,0-0.1-0.1-0.2s-0.1-0.1-0.2-0.1c-0.1,0-0.3,0-0.4,0.1c-0.1,0-0.2,0.1-0.3,0.1
			c-0.1,0-0.2,0.1-0.3,0.2v4.9h-1.2v-4.5c0,0,0,0,0-0.1c0-0.1,0-0.2,0-0.2s0-0.1,0-0.2c0-0.1,0-0.1,0-0.2s-0.1-0.1-0.1-0.1
			s-0.1,0-0.2,0c-0.3,0-0.6,0.1-0.9,0.4v4.9H55z"/>
		<path fill="#FFFFFF" d="M63.4,120.1c-0.3,0-0.6-0.2-0.9-0.5c-0.2-0.3-0.4-0.6-0.4-1c0-0.3,0.1-0.6,0.2-0.8s0.2-0.4,0.3-0.6
			c0.1-0.1,0.3-0.3,0.6-0.5c0.3-0.2,0.5-0.3,0.6-0.3s0.4-0.2,0.7-0.3c0.1,0,0.1,0,0.1-0.1v-0.4c0-0.3,0-0.6-0.1-0.7
			c-0.1-0.2-0.3-0.3-0.5-0.3c-0.2,0-0.4,0.1-0.5,0.2c-0.1,0.1-0.1,0.4-0.2,0.6c0,0,0,0.1,0,0.2h-1.2c0-0.6,0.2-1.1,0.5-1.4
			s0.8-0.5,1.4-0.5c0.6,0,1,0.2,1.4,0.5c0.3,0.4,0.5,0.8,0.5,1.4v2.8c0,0.7,0.1,1.2,0.2,1.6h-1.2l-0.2-0.9c-0.1,0.1-0.1,0.2-0.2,0.3
			s-0.1,0.2-0.2,0.3c-0.1,0.1-0.2,0.2-0.2,0.2c-0.1,0.1-0.2,0.1-0.3,0.1S63.6,120.1,63.4,120.1z M64,119c0.1,0,0.2,0,0.3-0.1
			s0.1-0.1,0.2-0.2s0.1-0.1,0.2-0.2c0,0,0,0,0,0v-1.7c-0.1,0-0.1,0.1-0.3,0.2s-0.2,0.1-0.3,0.2c-0.1,0-0.2,0.1-0.3,0.2
			c-0.1,0.1-0.2,0.2-0.2,0.2c-0.1,0.1-0.1,0.2-0.1,0.3s-0.1,0.2-0.1,0.3C63.4,118.8,63.6,119,64,119z"/>
		<path fill="#FFFFFF" d="M67,120v-8.8h1.2v8.8H67z"/>
		<path fill="#FFFFFF" d="M69.4,120v-8.8h1.2v8.8H69.4z"/>
		<path fill="#FFFFFF" d="M73.5,120.1c-0.3,0-0.6-0.1-0.8-0.2s-0.4-0.2-0.5-0.4c-0.1-0.2-0.2-0.4-0.3-0.6c-0.1-0.3-0.1-0.5-0.2-0.8
			c0-0.3,0-0.6-0.1-0.9c0-0.3,0-0.5,0-0.8c0-0.3,0-0.6,0.1-0.9c0-0.3,0.1-0.5,0.2-0.7s0.2-0.4,0.3-0.6s0.3-0.3,0.5-0.4
			c0.2-0.1,0.5-0.1,0.8-0.1c0.3,0,0.5,0,0.7,0.1c0.2,0.1,0.4,0.2,0.5,0.3c0.1,0.1,0.2,0.3,0.3,0.5s0.2,0.4,0.2,0.6
			c0,0.2,0.1,0.5,0.1,0.7s0,0.5,0,0.8v0.1h-2.5v0.3c0,0,0,0.1,0,0.2c0,0.1,0,0.2,0,0.4c0,0.1,0,0.3,0,0.4s0,0.2,0.1,0.4
			c0,0.1,0.1,0.2,0.1,0.3s0.1,0.2,0.2,0.2s0.2,0.1,0.3,0.1c0.1,0,0.2,0,0.3-0.1c0.1,0,0.1-0.1,0.2-0.2s0.1-0.2,0.1-0.3s0-0.2,0-0.4
			v-0.3h1.2v0.2c0,0.7-0.2,1.2-0.5,1.5S74.1,120.1,73.5,120.1z M72.9,116.2h1.2v-0.4c0-0.2,0-0.3,0-0.4s0-0.2-0.1-0.4
			s-0.1-0.2-0.2-0.3s-0.2-0.1-0.3-0.1c-0.1,0-0.2,0-0.3,0.1s-0.1,0.2-0.2,0.3c0,0.1-0.1,0.3-0.1,0.4s0,0.3,0,0.4V116.2z"/>
		<path fill="#FFFFFF" d="M76.3,120v-6.2h1.2v0.8c0.1-0.2,0.3-0.5,0.6-0.6c0.2-0.2,0.5-0.3,0.8-0.3c0,0,0.1,0,0.2,0v1.4
			c-0.2-0.1-0.5-0.1-0.7-0.1c-0.3,0-0.5,0.1-0.6,0.2s-0.2,0.4-0.2,0.6v4.2H76.3z"/>
		<path fill="#FFFFFF" d="M84.9,119.5c-0.3,0.4-0.8,0.6-1.4,0.6s-1.2-0.2-1.4-0.6s-0.4-1-0.4-1.7v-1.9c0-0.7,0.1-1.3,0.4-1.7
			s0.8-0.6,1.4-0.6s1.2,0.2,1.4,0.6s0.4,1,0.4,1.7v1.9C85.3,118.5,85.2,119.1,84.9,119.5z M83.2,119c0.1,0,0.1,0,0.2,0s0.2,0,0.2,0
			s0.1-0.1,0.2-0.1c0,0,0.1-0.1,0.1-0.2c0-0.1,0.1-0.1,0.1-0.2s0-0.1,0-0.2s0-0.2,0-0.2c0-0.1,0-0.2,0-0.3v-1.9c0-0.1,0-0.2,0-0.3
			c0-0.1,0-0.1,0-0.2s0-0.2,0-0.2s0-0.1-0.1-0.2c0-0.1-0.1-0.1-0.1-0.2c0,0-0.1-0.1-0.2-0.1s-0.1,0-0.2,0s-0.2,0-0.2,0
			s-0.1,0.1-0.2,0.1c0,0-0.1,0.1-0.1,0.2c0,0.1-0.1,0.1-0.1,0.2s0,0.1,0,0.2s0,0.2,0,0.2c0,0.1,0,0.2,0,0.3v1.9c0,0.1,0,0.2,0,0.3
			c0,0.1,0,0.1,0,0.2s0,0.2,0,0.2s0,0.1,0.1,0.2c0,0.1,0.1,0.1,0.1,0.2C83.1,118.9,83.2,119,83.2,119z"/>
		<path fill="#FFFFFF" d="M86.4,120v-6.2h1.2v0.7c0.2-0.2,0.3-0.3,0.5-0.4c0.1-0.1,0.3-0.2,0.5-0.3c0.2-0.1,0.4-0.1,0.7-0.1
			c0.3,0,0.5,0.1,0.6,0.3s0.2,0.4,0.2,0.7v5.3h-1.2v-4.7c0-0.2,0-0.4-0.1-0.5c-0.1-0.1-0.2-0.1-0.4-0.1c-0.1,0-0.2,0-0.3,0.1
			c-0.1,0-0.2,0.1-0.2,0.1c-0.1,0-0.1,0.1-0.2,0.2v4.9H86.4z"/>
		<path fill="#FFFFFF" d="M93,120.1c-0.3,0-0.6-0.1-0.8-0.2s-0.4-0.2-0.5-0.4c-0.1-0.2-0.2-0.4-0.3-0.6c-0.1-0.3-0.1-0.5-0.2-0.8
			c0-0.3,0-0.6-0.1-0.9c0-0.3,0-0.5,0-0.8c0-0.3,0-0.6,0.1-0.9c0-0.3,0.1-0.5,0.2-0.7s0.2-0.4,0.3-0.6s0.3-0.3,0.5-0.4
			c0.2-0.1,0.5-0.1,0.8-0.1c0.3,0,0.5,0,0.7,0.1c0.2,0.1,0.4,0.2,0.5,0.3c0.1,0.1,0.2,0.3,0.3,0.5s0.2,0.4,0.2,0.6
			c0,0.2,0.1,0.5,0.1,0.7s0,0.5,0,0.8v0.1h-2.5v0.3c0,0,0,0.1,0,0.2c0,0.1,0,0.2,0,0.4c0,0.1,0,0.3,0,0.4s0,0.2,0.1,0.4
			c0,0.1,0.1,0.2,0.1,0.3s0.1,0.2,0.2,0.2s0.2,0.1,0.3,0.1c0.1,0,0.2,0,0.3-0.1c0.1,0,0.1-0.1,0.2-0.2s0.1-0.2,0.1-0.3s0-0.2,0-0.4
			v-0.3h1.2v0.2c0,0.7-0.2,1.2-0.5,1.5S93.6,120.1,93,120.1z M92.3,116.2h1.2v-0.4c0-0.2,0-0.3,0-0.4s0-0.2-0.1-0.4
			s-0.1-0.2-0.2-0.3s-0.2-0.1-0.3-0.1c-0.1,0-0.2,0-0.3,0.1s-0.1,0.2-0.2,0.3c0,0.1-0.1,0.3-0.1,0.4s0,0.3,0,0.4V116.2z"/>
		<path fill="#FFFFFF" d="M95.5,120v-1.2h1.2v1.2H95.5z"/>
	</g>
	<g>
	</g>
	<g>
	</g>
	<g>
	</g>
	<g>
	</g>
	<g>
	</g>
	<g>
	</g>
</g>
</svg>
