<?xml version="1.0" encoding="utf-8"?>
<!-- Generator: Adobe Illustrator 19.1.0, SVG Export Plug-In . SVG Version: 6.00 Build 0)  -->
<svg version="1.1" xmlns="http://www.w3.org/2000/svg" xmlns:xlink="http://www.w3.org/1999/xlink" x="0px" y="0px" width="288px"
	 height="288px" viewBox="0 0 288 288" enable-background="new 0 0 288 288" xml:space="preserve">
<g id="tail">
	<path fill="#231F20" d="M151.5,187.4c0,0-20.7-10.6-39.7-48.5c-17.1-34-12.2-54.5-12.2-54.5s-14.4,42.9,12.2,76.1
		C128.3,181.1,151.5,187.4,151.5,187.4z"/>
</g>
<g id="body">
	<g>
		<path fill="#E7B83A" d="M162.2,221.6c-5-2.6-8.2-5.4-8.8-8c-2.5-6.3-4.7-16.3-4.9-27.2c0-0.3,0-0.6,0-0.9c0-1.6,0-3.2,0.1-4.8
			l7,6.7c0,0,10.5,12.2,1.7,24.4C163.5,217.2,163.1,220.3,162.2,221.6z"/>
	</g>
	<g>
		<path fill="#985C1F" d="M207.7,224.4c-27.8,8.9-55-0.5-57.2-10c-6.2-15.6-10.9-54.6,13.8-71.8c4.9-3.2-0.3-8.7-0.7-9.2
			c0.3,0.3,2.9,2.7,5.5,4c0.3,1.5-0.1,3.1-2,4.4c-24.8,17.2-20.1,56.2-13.8,71.8C155.4,222.8,180.2,231.6,207.7,224.4z"/>
	</g>
	<g>
		<path fill="#985C1F" d="M162.1,122.9l-2,1.5c-6.2-5.5-12-11.6-17.2-18.1c-2.7-3.3-5.2-6.8-6.5-10.8c-0.4-1.4-0.7-3,0.1-4.3
			c0.8-1.4,2.6-1.9,4.3-2.2c-0.6,0.3-1.2,0.8-1.6,1.4c-0.7,1.3-0.5,2.9-0.1,4.3c1.2,4.1,3.8,7.5,6.5,10.8
			C150.6,111.7,156.1,117.5,162.1,122.9z"/>
	</g>
	<g>
		<path fill="#F9C53D" d="M207.7,224.4c-27.5,7.2-52.3-1.6-54.4-10.8c-2.5-6.3-4.7-16.3-4.9-27.2c0-0.3,0-0.6,0-0.9
			c-0.1-16,4.3-33.6,18.8-43.7c0.9-0.6,1.5-1.3,1.8-2c0.3-0.8,0.3-1.6,0.2-2.3c1.9,0.9,3.8,1.3,5.1,0c3.8,0.6,6.4-3.4,0.8-22.8
			l-2.5,1.8c-0.1-0.3-0.2-0.7-0.3-1l-10.2,7.4c-5.9-5.4-11.4-11.2-16.5-17.4c-2.7-3.3-5.2-6.8-6.5-10.8c-0.2-0.6-0.3-1.1-0.4-1.7
			c-0.1-0.9,0-1.8,0.4-2.5c0.4-0.6,0.9-1.1,1.6-1.4c0.1,0,0.2,0,0.2,0c0.6-0.1,1.2-0.2,1.8-0.2c6-0.7,12.1-0.3,17.9,1.1h0
			c0.1,0,0.2,0.1,0.4,0.1c0,0,0,0,0,0c0-0.1,0.1-0.6,0.2-1.3c0.8,0.2,1.7,0.3,2.5,0.6c0-0.1,0-0.1,0-0.2c0-2.4,0-29.1,14.5-36.7
			c0.5-0.2,0.9-0.5,1.4-0.6c0.9-0.2,1.8-0.2,2.8-0.2c4.1,0.2,8.1,2.1,11.7,5.4c0.2,0.2,0.5,0.4,0.7,0.6c8.7,8.3,15.2,24.3,16,41.8
			c0,0,0,0,0,0c0.5,12-1.6,24.8-7.7,36.3c0,0,6.4,29.9,13,55.9C220.8,209,211.5,221,207.7,224.4z"/>
	</g>
	<ellipse fill="#231F20" cx="187.1" cy="79.4" rx="3.2" ry="6.9"/>
	<ellipse fill="#231F20" cx="172.4" cy="79.4" rx="3.2" ry="6.9"/>
	<path fill="#231F20" d="M139.1,93.1c0,0-10.9-6.8-6.6-8.1s6.8,2.7,13.5,5.1S139.1,93.1,139.1,93.1z"/>
	<g>
		<path fill="#985C1F" d="M169.2,137.4c3.4,1.4,9.2,1,3.1-22l2.6-1.6c9.5,28.5-1.7,26.1-6.5,25.9
			C167.2,139.6,167.7,138.1,169.2,137.4z"/>
	</g>
	<g>
		<path fill="#985C1F" d="M179.8,51.5c-16.7,6.9-15.9,38.9-15.9,38.9c-0.8-0.2-2.3-0.4-3.1-0.6C162,82.3,162.9,54.5,179.8,51.5z"/>
	</g>
	<g>
		<path fill="#985C1F" d="M213.5,224.1c0,0-0.2-0.1-0.4-0.4c-0.3-0.2-0.7-0.6-1.2-1.1c-0.3-0.2-0.5-0.5-0.8-0.9
			c-0.3-0.3-0.6-0.7-0.8-1.1c-0.6-0.8-1.2-1.7-1.8-2.8c-0.6-1.1-1.2-2.2-1.7-3.5c-0.6-1.3-1.1-2.6-1.6-4c-0.5-1.4-1-2.9-1.4-4.4
			c-0.4-1.5-0.9-3.1-1.3-4.6c-0.4-1.6-0.7-3.1-1-4.7c-0.3-1.5-0.6-3.1-0.8-4.5c-0.3-1.5-0.5-2.9-0.6-4.3c-0.2-1.4-0.3-2.6-0.5-3.8
			c-0.5-4.8-0.5-7.9-0.5-7.9s0.7,3.1,1.6,7.8c0.5,2.3,1.1,5,1.7,7.9c0.3,1.4,0.7,2.9,1,4.5c0.3,1.5,0.7,3.1,1.1,4.6
			c0.4,1.5,0.8,3.1,1.2,4.6c0.4,1.5,0.8,3,1.3,4.4c0.9,2.8,1.8,5.4,2.7,7.6c0.5,1.1,0.9,2,1.4,2.9c0.2,0.4,0.5,0.8,0.7,1.2
			c0.2,0.4,0.4,0.7,0.6,0.9c0.2,0.3,0.4,0.5,0.5,0.7c0.2,0.2,0.3,0.4,0.4,0.5C213.4,224,213.5,224.1,213.5,224.1z"/>
	</g>
	<g>
		<path fill="#985C1F" d="M157.2,211.8c0,0,0.6,0.5,1.6,1.2c0.2,0.2,0.5,0.4,0.7,0.7c0.3,0.2,0.6,0.5,0.8,0.8
			c0.3,0.3,0.5,0.6,0.8,0.9c0.3,0.3,0.5,0.6,0.8,1c0.2,0.3,0.5,0.7,0.7,1.1c0.2,0.4,0.4,0.8,0.5,1.2c0.1,0.2,0.1,0.4,0.2,0.6
			c0,0.2,0.1,0.4,0.1,0.6c0,0.2,0,0.4,0,0.6c0,0.2,0,0.4-0.1,0.6c-0.1,0.4-0.2,0.7-0.3,1c-0.1,0.3-0.3,0.5-0.4,0.7
			c-0.2,0.2-0.3,0.3-0.4,0.4c-0.1,0.1-0.2,0.2-0.2,0.2l-1.1-1.7c0,0,0,0,0,0c0,0,0.1-0.1,0.2-0.2c0.1-0.1,0.2-0.2,0.3-0.3
			c0.1-0.1,0.2-0.3,0.3-0.5c0.1-0.1,0.1-0.2,0.1-0.3c0-0.1,0.1-0.2,0.1-0.4c0-0.1,0-0.3,0-0.4c0-0.2,0-0.3-0.1-0.5
			c0-0.3-0.2-0.7-0.3-1c-0.2-0.3-0.3-0.7-0.5-1c-0.2-0.3-0.4-0.7-0.6-1c-0.2-0.3-0.4-0.6-0.6-0.9c-0.2-0.3-0.5-0.6-0.7-0.8
			c-0.2-0.3-0.4-0.5-0.6-0.8C157.8,212.4,157.2,211.8,157.2,211.8z"/>
	</g>
	<g>
		<path fill="#985C1F" d="M157.2,211.8c0.5-1,1-2,1.4-3c0.2-0.5,0.4-1,0.5-1.5c0.1-0.5,0.3-1,0.4-1.5c0.1-0.5,0.2-1,0.2-1.6
			c0.1-0.5,0.1-1,0.1-1.6c0-0.5,0-1,0-1.6c0-0.5-0.1-1-0.1-1.6c-0.1-1-0.4-2.1-0.7-3.1c-0.3-1-0.7-2-1.1-3c-0.4-1-0.9-1.9-1.4-2.8
			c-0.3-0.5-0.5-0.9-0.8-1.3c-0.3-0.4-0.6-0.9-0.9-1.3l0.1,0.1c-0.6-0.6-1.1-1.2-1.7-1.8c-0.5-0.6-1.1-1.2-1.6-1.8
			c-1.1-1.2-2.1-2.5-3-3.8c1.4,0.9,2.7,1.9,3.9,2.9c0.6,0.5,1.2,1,1.9,1.5c0.6,0.5,1.2,1.1,1.8,1.6l0,0l0,0c0.4,0.5,0.7,0.9,1.1,1.4
			c0.3,0.5,0.6,0.9,0.9,1.4c0.6,1,1.1,2,1.6,3c0.4,1.1,0.8,2.1,1.1,3.2c0.3,1.1,0.5,2.2,0.6,3.4c0.2,2.3-0.1,4.6-0.8,6.8
			c-0.2,0.5-0.4,1.1-0.6,1.6c-0.3,0.5-0.5,1-0.8,1.5c-0.3,0.5-0.6,0.9-0.9,1.4C157.9,211,157.6,211.4,157.2,211.8z"/>
	</g>
	<path fill="#985C1F" d="M216.5,191.5c-7.6-24.9-11.3-36.7-16.1-55.6c9.9-12,10.7-36,10.7-36.6c0.5,12-1.6,24.8-7.7,36.3
		C203.5,135.6,209.8,165.5,216.5,191.5z"/>
	<g>
		<path fill="#985C1F" d="M186.8,224.1c0,0-0.1-0.2-0.3-0.5c-0.2-0.3-0.5-0.8-0.7-1.5c-0.3-0.6-0.5-1.4-0.8-2.4
			c-0.3-0.9-0.6-2-0.8-3.1c-0.5-2.3-1-5-1.4-8c-0.2-1.5-0.4-3-0.6-4.5c-0.2-1.5-0.3-3.1-0.5-4.7c-0.1-1.6-0.2-3.1-0.4-4.7
			c-0.1-1.5-0.2-3.1-0.2-4.5c-0.1-2.9-0.2-5.7-0.2-8.1c0-4.7,0.2-7.9,0.2-7.9s0.5,3.1,1,7.8c0.3,2.3,0.5,5.1,0.8,8
			c0.1,1.5,0.3,3,0.4,4.5c0.1,1.5,0.3,3.1,0.4,4.7c0.3,3.1,0.5,6.2,0.8,9.2c0.3,2.9,0.5,5.7,0.8,8c0.1,1.2,0.3,2.2,0.4,3.2
			c0.1,0.9,0.3,1.8,0.4,2.4c0.1,0.7,0.3,1.2,0.4,1.5C186.7,223.9,186.8,224.1,186.8,224.1z"/>
	</g>
	<g>
		<path fill="#F9C53D" d="M223.1,226.4c-1,0.8-2.2,1.4-3.6,1.9c0,0,0,0,0,0c-2.6,0.7-5.2,1.2-7.9,1.5c-17-7.4-17.6-52.6-17.6-52.6
			l5.2-1c0,0,4.3,39.1,14.6,47.9C222.1,222.7,223.3,220.2,223.1,226.4z"/>
	</g>
	<g>
		<path fill="#985C1F" d="M193.8,177.2l0.4,3.6l0.4,3.6c0.3,2.4,0.6,4.7,1,7.1c0.7,4.7,1.6,9.4,2.8,14c0.6,2.3,1.2,4.6,2,6.8
			c0.7,2.2,1.6,4.4,2.6,6.6c1,2.1,2.2,4.1,3.6,5.9c1.4,1.8,3.2,3.3,5.2,4.2l-0.3-0.1c0.5,0,1,0,1.5,0c0.5,0,1-0.1,1.5-0.1
			c1-0.1,1.9-0.3,2.9-0.6c1-0.2,1.9-0.6,2.8-0.9c0.5-0.2,0.9-0.4,1.3-0.6c0.4-0.2,0.9-0.5,1.3-0.7l-0.2,0.5c0-0.5,0.1-1.1,0.1-1.6
			c0-0.5,0-1-0.1-1.5c-0.1-0.2-0.1-0.3-0.3-0.4c-0.1-0.1-0.3-0.1-0.6-0.1c-0.5,0-1,0.1-1.5,0.2c-1.1,0.2-2.1,0.5-3.2,0.7
			c-1.1,0.2-2.2,0.3-3.2,0.5c2.1-0.5,4.2-1.1,6.3-1.8c0.5-0.2,1.1-0.3,1.7-0.4c0.3,0,0.7,0,1,0.2c0.4,0.2,0.6,0.6,0.7,0.9
			c0.2,0.6,0.3,1.2,0.3,1.8c0,0.6,0,1.1,0,1.7l0,0.3l-0.2,0.2c-0.5,0.3-0.9,0.6-1.3,0.9c-0.5,0.3-0.9,0.5-1.4,0.7
			c-0.9,0.4-1.9,0.8-2.9,1.1c-1,0.3-2,0.6-3.1,0.7c-0.5,0.1-1,0.2-1.6,0.2c-0.5,0.1-1.1,0.1-1.6,0.1l-0.1,0l-0.2-0.1
			c-2.4-1-4.4-2.7-6-4.6c-1.6-1.9-2.9-4.1-3.9-6.3c-1.1-2.2-1.9-4.5-2.7-6.8c-0.7-2.3-1.4-4.7-1.9-7c-0.5-2.4-1-4.7-1.3-7.1
			c-0.4-2.4-0.7-4.8-0.9-7.2c-0.2-2.4-0.4-4.8-0.5-7.2C193.8,182,193.7,179.6,193.8,177.2z"/>
	</g>
	<g>
		<path fill="#985C1F" d="M175.3,182.3c-0.1,1-0.1,2-0.2,2.9c0,1-0.1,2-0.1,2.9c-0.1,2-0.1,3.9-0.1,5.9c0,1,0,1.9,0,2.9
			c0,1,0,1.9,0.1,2.9l0.2,2.9l0.3,2.9c0.1,1,0.2,1.9,0.3,2.9c0.1,1,0.2,1.9,0.4,2.9l0.5,2.8l0.7,2.8c0.2,0.9,0.5,1.8,0.8,2.7
			l0.4,1.4c0.2,0.5,0.4,0.9,0.5,1.3l0.6,1.3c0.2,0.4,0.4,0.9,0.6,1.3l1.4,2.5l-0.6-0.4l7.1,1.3l7.1,1.3l-0.8,0.5
			c0.2-0.6,0.4-1.2,0.5-1.7c0.1-0.6,0.2-1.2,0.3-1.7c0-0.3,0-0.6,0-0.8c0-0.3-0.1-0.5-0.2-0.8c-0.2-0.5-0.6-0.8-1.1-1
			c-1.1-0.4-2.3-0.3-3.6-0.2c-1.2,0.1-2.5,0.3-3.8,0.2c1.3-0.1,2.5-0.4,3.7-0.6c0.6-0.1,1.2-0.2,1.9-0.3c0.6,0,1.3,0,2,0.1
			c0.7,0.2,1.4,0.6,1.7,1.3c0.2,0.3,0.3,0.7,0.4,1c0.1,0.3,0.1,0.7,0.1,1c0,0.7-0.1,1.3-0.2,2c-0.1,0.6-0.3,1.3-0.4,1.9l-0.1,0.6
			l-0.6-0.1l-7.2-1l-7.2-1l-0.4-0.1l-0.2-0.3l-1.5-2.6c-0.3-0.4-0.5-0.9-0.7-1.4l-0.6-1.4c-0.2-0.5-0.4-0.9-0.6-1.4l-0.5-1.4
			c-0.3-1-0.6-1.9-0.8-2.9l-0.7-2.9l-0.5-2.9c-0.2-1-0.2-2-0.4-3c-0.1-1-0.2-2-0.3-3c-0.1-1-0.1-2-0.1-3l0-3c0-2,0.1-3.9,0.2-5.9
			c0.1-2,0.3-3.9,0.6-5.9C174.6,186.2,174.9,184.2,175.3,182.3z"/>
	</g>
	<g>
		<path fill="#F9C53D" d="M195.5,230.2c-5-0.3-9.8-1.1-14.4-2.1c-10.2-15.3-5.7-45.8-5.7-45.8l5.7-8c0,0,2,44.2,5.8,49.8
			C190.8,224.2,198.3,220.7,195.5,230.2z"/>
	</g>
</g>
<g id="ears">
	<path fill="#231F20" d="M194.3,58.6c0,0-1.5-23.8,17.1-34.5s24.6-4.5,12.1,7.7C211.1,43.9,202.2,43.5,194.3,58.6z"/>
	<path fill="#231F20" d="M170.2,57.5c0,0-9.5-38.1-29.6-26.1s-20.8,27.8-7.5,19.6c13.4-8.2,16.8-16.3,25-10.6
		c8.1,5.7,9.6,20.2,9.6,20.2L170.2,57.5z"/>
	<g>
	</g>
	<g>
	</g>
	<g>
	</g>
	<g>
	</g>
	<g>
	</g>
	<g>
	</g>
</g>
</svg>
