<?xml version="1.0" encoding="utf-8"?>
<!-- Generator: Adobe Illustrator 19.1.0, SVG Export Plug-In . SVG Version: 6.00 Build 0)  -->
<svg version="1.1" xmlns="http://www.w3.org/2000/svg" xmlns:xlink="http://www.w3.org/1999/xlink" x="0px" y="0px" width="134.4px"
	 height="212.5px" viewBox="0 0 134.4 212.5" enable-background="new 0 0 134.4 212.5" xml:space="preserve">
<g id="tail">
	<path fill="#231F20" d="M55.8,168.8c0,0-20.7-10.6-39.7-48.5C-1,86.3,3.9,65.8,3.9,65.8s-14.4,42.9,12.2,76.1
		C32.6,162.5,55.8,168.8,55.8,168.8z"/>
</g>
<g id="body">
	<g>
		<path fill="#E7B83A" d="M66.6,203c-5-2.6-8.2-5.4-8.8-8c-2.5-6.3-4.7-16.3-4.9-27.2c0-0.3,0-0.6,0-0.9c0-1.6,0-3.2,0.1-4.8l7,6.7
			c0,0,10.5,12.2,1.7,24.4C67.9,198.6,67.4,201.6,66.6,203z"/>
	</g>
	<g>
		<path fill="#985C1F" d="M112.1,205.8c-27.8,8.9-55-0.5-57.2-10c-6.2-15.6-10.9-54.6,13.8-71.8c4.9-3.2-0.3-8.7-0.7-9.2
			c0.3,0.3,2.9,2.7,5.5,4c0.3,1.5-0.1,3.1-2,4.4c-24.8,17.2-20.1,56.2-13.8,71.8C59.7,204.1,84.5,213,112.1,205.8z"/>
	</g>
	<g>
		<path fill="#985C1F" d="M66.4,104.2l-2,1.5c-6.2-5.5-12-11.6-17.2-18.1c-2.7-3.3-5.2-6.8-6.5-10.8c-0.4-1.4-0.7-3,0.1-4.3
			c0.8-1.4,2.6-1.9,4.3-2.2c-0.6,0.3-1.2,0.8-1.6,1.4C42.8,73,43,74.6,43.4,76c1.2,4.1,3.8,7.5,6.5,10.8C55,93,60.5,98.9,66.4,104.2
			z"/>
	</g>
	<g>
		<path fill="#F9C53D" d="M112.1,205.8c-27.5,7.2-52.3-1.6-54.4-10.8c-2.5-6.3-4.7-16.3-4.9-27.2c0-0.3,0-0.6,0-0.9
			c-0.1-16,4.3-33.6,18.8-43.7c0.9-0.6,1.5-1.3,1.8-2c0.3-0.8,0.3-1.6,0.2-2.3c1.9,0.9,3.8,1.3,5.1,0c3.8,0.6,6.4-3.4,0.8-22.8
			l-2.5,1.8c-0.1-0.3-0.2-0.7-0.3-1l-10.2,7.4C60.5,98.9,55,93,49.9,86.8c-2.7-3.3-5.2-6.8-6.5-10.8c-0.2-0.6-0.3-1.1-0.4-1.7
			c-0.1-0.9,0-1.8,0.4-2.5c0.4-0.6,0.9-1.1,1.6-1.4c0.1,0,0.2,0,0.2,0c0.6-0.1,1.2-0.2,1.8-0.2c6-0.7,12.1-0.3,17.9,1.1h0
			c0.1,0,0.2,0.1,0.4,0.1c0,0,0,0,0,0c0-0.1,0.1-0.6,0.2-1.3c0.8,0.2,1.7,0.3,2.5,0.6c0-0.1,0-0.1,0-0.2c0-2.4,0-29.1,14.5-36.7
			c0.5-0.2,0.9-0.5,1.4-0.6c0.9-0.2,1.8-0.2,2.8-0.2c4.1,0.2,8.1,2.1,11.7,5.4c0.2,0.2,0.5,0.4,0.7,0.6c8.7,8.3,15.2,24.3,16,41.8
			c0,0,0,0,0,0c0.5,12-1.6,24.8-7.7,36.3c0,0,6.4,29.9,13,55.9C125.1,190.4,115.8,202.4,112.1,205.8z"/>
	</g>
	<ellipse fill="#231F20" cx="91.4" cy="60.7" rx="3.2" ry="6.9"/>
	<ellipse fill="#231F20" cx="76.8" cy="60.7" rx="3.2" ry="6.9"/>
	<path fill="#231F20" d="M43.4,74.5c0,0-10.9-6.8-6.6-8.1s6.8,2.7,13.5,5.1S43.4,74.5,43.4,74.5z"/>
	<g>
		<path fill="#985C1F" d="M73.5,118.8c3.4,1.4,9.2,1,3.1-22l2.6-1.6c9.5,28.5-1.7,26.1-6.5,25.9C71.5,121,72.1,119.5,73.5,118.8z"/>
	</g>
	<g>
		<path fill="#985C1F" d="M84.1,32.9c-16.7,6.9-15.9,38.9-15.9,38.9c-0.8-0.2-2.3-0.4-3.1-0.6C66.3,63.7,67.2,35.8,84.1,32.9z"/>
	</g>
	<g>
		<path fill="#985C1F" d="M117.8,205.5c0,0-0.2-0.1-0.4-0.4c-0.3-0.2-0.7-0.6-1.2-1.1c-0.3-0.2-0.5-0.5-0.8-0.9
			c-0.3-0.3-0.6-0.7-0.8-1.1c-0.6-0.8-1.2-1.7-1.8-2.8c-0.6-1.1-1.2-2.2-1.7-3.5c-0.6-1.3-1.1-2.6-1.6-4c-0.5-1.4-1-2.9-1.4-4.4
			c-0.4-1.5-0.9-3.1-1.3-4.6c-0.4-1.6-0.7-3.1-1-4.7c-0.3-1.5-0.6-3.1-0.8-4.5c-0.3-1.5-0.5-2.9-0.6-4.3c-0.2-1.4-0.3-2.6-0.5-3.8
			c-0.5-4.8-0.5-7.9-0.5-7.9s0.7,3.1,1.6,7.8c0.5,2.3,1.1,5,1.7,7.9c0.3,1.4,0.7,2.9,1,4.5c0.3,1.5,0.7,3.1,1.1,4.6
			c0.4,1.5,0.8,3.1,1.2,4.6c0.4,1.5,0.8,3,1.3,4.4c0.9,2.8,1.8,5.4,2.7,7.6c0.5,1.1,0.9,2,1.4,2.9c0.2,0.4,0.5,0.8,0.7,1.2
			c0.2,0.4,0.4,0.7,0.6,0.9c0.2,0.3,0.4,0.5,0.5,0.7c0.2,0.2,0.3,0.4,0.4,0.5C117.7,205.3,117.8,205.5,117.8,205.5z"/>
	</g>
	<g>
		<path fill="#985C1F" d="M61.5,193.1c0,0,0.6,0.5,1.6,1.2c0.2,0.2,0.5,0.4,0.7,0.7c0.3,0.2,0.6,0.5,0.8,0.8
			c0.3,0.3,0.5,0.6,0.8,0.9c0.3,0.3,0.5,0.6,0.8,1c0.2,0.3,0.5,0.7,0.7,1.1c0.2,0.4,0.4,0.8,0.5,1.2c0.1,0.2,0.1,0.4,0.2,0.6
			c0,0.2,0.1,0.4,0.1,0.6c0,0.2,0,0.4,0,0.6c0,0.2,0,0.4-0.1,0.6c-0.1,0.4-0.2,0.7-0.3,1c-0.1,0.3-0.3,0.5-0.4,0.7
			c-0.2,0.2-0.3,0.3-0.4,0.4c-0.1,0.1-0.2,0.2-0.2,0.2l-1.1-1.7c0,0,0,0,0,0c0,0,0.1-0.1,0.2-0.2c0.1-0.1,0.2-0.2,0.3-0.3
			c0.1-0.1,0.2-0.3,0.3-0.5c0.1-0.1,0.1-0.2,0.1-0.3c0-0.1,0.1-0.2,0.1-0.4c0-0.1,0-0.3,0-0.4c0-0.2,0-0.3-0.1-0.5
			c0-0.3-0.2-0.7-0.3-1c-0.2-0.3-0.3-0.7-0.5-1c-0.2-0.3-0.4-0.7-0.6-1c-0.2-0.3-0.4-0.6-0.6-0.9c-0.2-0.3-0.5-0.6-0.7-0.8
			c-0.2-0.3-0.4-0.5-0.6-0.8C62.1,193.7,61.5,193.1,61.5,193.1z"/>
	</g>
	<g>
		<path fill="#985C1F" d="M61.5,193.1c0.5-1,1-2,1.4-3c0.2-0.5,0.4-1,0.5-1.5c0.1-0.5,0.3-1,0.4-1.5c0.1-0.5,0.2-1,0.2-1.6
			c0.1-0.5,0.1-1,0.1-1.6c0-0.5,0-1,0-1.6c0-0.5-0.1-1-0.1-1.6c-0.1-1-0.4-2.1-0.7-3.1c-0.3-1-0.7-2-1.1-3c-0.4-1-0.9-1.9-1.4-2.8
			c-0.3-0.5-0.5-0.9-0.8-1.3c-0.3-0.4-0.6-0.9-0.9-1.3l0.1,0.1c-0.6-0.6-1.1-1.2-1.7-1.8c-0.5-0.6-1.1-1.2-1.6-1.8
			c-1.1-1.2-2.1-2.5-3-3.8c1.4,0.9,2.7,1.9,3.9,2.9c0.6,0.5,1.2,1,1.9,1.5c0.6,0.5,1.2,1.1,1.8,1.6l0,0l0,0c0.4,0.5,0.7,0.9,1.1,1.4
			c0.3,0.5,0.6,0.9,0.9,1.4c0.6,1,1.1,2,1.6,3c0.4,1.1,0.8,2.1,1.1,3.2c0.3,1.1,0.5,2.2,0.6,3.4c0.2,2.3-0.1,4.6-0.8,6.8
			c-0.2,0.5-0.4,1.1-0.6,1.6c-0.3,0.5-0.5,1-0.8,1.5c-0.3,0.5-0.6,0.9-0.9,1.4C62.3,192.3,61.9,192.7,61.5,193.1z"/>
	</g>
	<path fill="#985C1F" d="M120.8,172.9c-7.6-24.9-11.3-36.7-16.1-55.6c9.9-12,10.7-36,10.7-36.6c0.5,12-1.6,24.8-7.7,36.3
		C107.8,117,114.2,146.9,120.8,172.9z"/>
	<g>
		<path fill="#985C1F" d="M91.1,205.5c0,0-0.1-0.2-0.3-0.5c-0.2-0.3-0.5-0.8-0.7-1.5c-0.3-0.6-0.5-1.4-0.8-2.4
			c-0.3-0.9-0.6-2-0.8-3.1c-0.5-2.3-1-5-1.4-8c-0.2-1.5-0.4-3-0.6-4.5c-0.2-1.5-0.3-3.1-0.5-4.7c-0.1-1.6-0.2-3.1-0.4-4.7
			c-0.1-1.5-0.2-3.1-0.2-4.5c-0.1-2.9-0.2-5.7-0.2-8.1c0-4.7,0.2-7.9,0.2-7.9s0.5,3.1,1,7.8c0.3,2.3,0.5,5.1,0.8,8
			c0.1,1.5,0.3,3,0.4,4.5c0.1,1.5,0.3,3.1,0.4,4.7c0.3,3.1,0.5,6.2,0.8,9.2c0.3,2.9,0.5,5.7,0.8,8c0.1,1.2,0.3,2.2,0.4,3.2
			c0.1,0.9,0.3,1.8,0.4,2.4c0.1,0.7,0.3,1.2,0.4,1.5C91,205.3,91.1,205.5,91.1,205.5z"/>
	</g>
	<g>
		<path fill="#F9C53D" d="M127.4,207.8c-1,0.8-2.2,1.4-3.6,1.9c0,0,0,0,0,0c-2.6,0.7-5.2,1.2-7.9,1.5c-17-7.4-17.6-52.6-17.6-52.6
			l5.2-1c0,0,4.3,39.1,14.6,47.9C126.4,204.1,127.6,201.5,127.4,207.8z"/>
	</g>
	<g>
		<path fill="#985C1F" d="M98.1,158.6l0.4,3.6l0.4,3.6c0.3,2.4,0.6,4.7,1,7.1c0.7,4.7,1.6,9.4,2.8,14c0.6,2.3,1.2,4.6,2,6.8
			c0.7,2.2,1.6,4.4,2.6,6.6c1,2.1,2.2,4.1,3.6,5.9c1.4,1.8,3.2,3.3,5.2,4.2l-0.3-0.1c0.5,0,1,0,1.5,0c0.5,0,1-0.1,1.5-0.1
			c1-0.1,1.9-0.3,2.9-0.6c1-0.2,1.9-0.6,2.8-0.9c0.5-0.2,0.9-0.4,1.3-0.6c0.4-0.2,0.9-0.5,1.3-0.7l-0.2,0.5c0-0.5,0.1-1.1,0.1-1.6
			c0-0.5,0-1-0.1-1.5c-0.1-0.2-0.1-0.3-0.3-0.4c-0.1-0.1-0.3-0.1-0.6-0.1c-0.5,0-1,0.1-1.5,0.2c-1.1,0.2-2.1,0.5-3.2,0.7
			c-1.1,0.2-2.2,0.3-3.2,0.5c2.1-0.5,4.2-1.1,6.3-1.8c0.5-0.2,1.1-0.3,1.7-0.4c0.3,0,0.7,0,1,0.2c0.4,0.2,0.6,0.6,0.7,0.9
			c0.2,0.6,0.3,1.2,0.3,1.8c0,0.6,0,1.1,0,1.7l0,0.3l-0.2,0.2c-0.5,0.3-0.9,0.6-1.3,0.9c-0.5,0.3-0.9,0.5-1.4,0.7
			c-0.9,0.4-1.9,0.8-2.9,1.1c-1,0.3-2,0.6-3.1,0.7c-0.5,0.1-1,0.2-1.6,0.2c-0.5,0.1-1.1,0.1-1.6,0.1l-0.1,0l-0.2-0.1
			c-2.4-1-4.4-2.7-6-4.6c-1.6-1.9-2.9-4.1-3.9-6.3c-1.1-2.2-1.9-4.5-2.7-6.8c-0.7-2.3-1.4-4.7-1.9-7c-0.5-2.4-1-4.7-1.3-7.1
			c-0.4-2.4-0.7-4.8-0.9-7.2c-0.2-2.4-0.4-4.8-0.5-7.2C98.1,163.4,98,161,98.1,158.6z"/>
	</g>
	<g>
		<path fill="#985C1F" d="M79.6,163.7c-0.1,1-0.1,2-0.2,2.9c0,1-0.1,2-0.1,2.9c-0.1,2-0.1,3.9-0.1,5.9c0,1,0,1.9,0,2.9
			c0,1,0,1.9,0.1,2.9l0.2,2.9l0.3,2.9c0.1,1,0.2,1.9,0.3,2.9c0.1,1,0.2,1.9,0.4,2.9l0.5,2.8l0.7,2.8c0.2,0.9,0.5,1.8,0.8,2.7
			l0.4,1.4c0.2,0.5,0.4,0.9,0.5,1.3l0.6,1.3c0.2,0.4,0.4,0.9,0.6,1.3l1.4,2.5l-0.6-0.4l7.1,1.3l7.1,1.3l-0.8,0.5
			c0.2-0.6,0.4-1.2,0.5-1.7c0.1-0.6,0.2-1.2,0.3-1.7c0-0.3,0-0.6,0-0.8c0-0.3-0.1-0.5-0.2-0.8c-0.2-0.5-0.6-0.8-1.1-1
			c-1.1-0.4-2.3-0.3-3.6-0.2c-1.2,0.1-2.5,0.3-3.8,0.2c1.3-0.1,2.5-0.4,3.7-0.6c0.6-0.1,1.2-0.2,1.9-0.3c0.6,0,1.3,0,2,0.1
			c0.7,0.2,1.4,0.6,1.7,1.3c0.2,0.3,0.3,0.7,0.4,1c0.1,0.3,0.1,0.7,0.1,1c0,0.7-0.1,1.3-0.2,2c-0.1,0.6-0.3,1.3-0.4,1.9l-0.1,0.6
			l-0.6-0.1l-7.2-1l-7.2-1l-0.4-0.1l-0.2-0.3l-1.5-2.6c-0.3-0.4-0.5-0.9-0.7-1.4l-0.6-1.4c-0.2-0.5-0.4-0.9-0.6-1.4l-0.5-1.4
			c-0.3-1-0.6-1.9-0.8-2.9l-0.7-2.9l-0.5-2.9c-0.2-1-0.2-2-0.4-3c-0.1-1-0.2-2-0.3-3c-0.1-1-0.1-2-0.1-3l0-3c0-2,0.1-3.9,0.2-5.9
			c0.1-2,0.3-3.9,0.6-5.9C78.9,167.5,79.2,165.6,79.6,163.7z"/>
	</g>
	<g>
		<path fill="#F9C53D" d="M99.8,211.6c-5-0.3-9.8-1.1-14.4-2.1c-10.2-15.3-5.7-45.8-5.7-45.8l5.7-8c0,0,2,44.2,5.8,49.8
			C95.2,205.6,102.6,202.1,99.8,211.6z"/>
	</g>
</g>
<g id="ears">
	<path fill="#231F20" d="M98.6,40c0,0-1.5-23.8,17.1-34.5s24.6-4.5,12.1,7.7S106.6,24.8,98.6,40z"/>
	<path fill="#231F20" d="M74.5,38.9c0,0-9.5-38.1-29.6-26.1s-20.8,27.8-7.5,19.6s16.8-16.3,25-10.6S72.1,42,72.1,42L74.5,38.9z"/>
	<g>
	</g>
	<g>
	</g>
	<g>
	</g>
	<g>
	</g>
	<g>
	</g>
	<g>
	</g>
</g>
</svg>
