<?xml version="1.0" encoding="utf-8"?>
<!-- Generator: Adobe Illustrator 19.1.0, SVG Export Plug-In . SVG Version: 6.00 Build 0)  -->
<svg version="1.1" xmlns="http://www.w3.org/2000/svg" xmlns:xlink="http://www.w3.org/1999/xlink" x="0px" y="0px" width="288px"
	 height="288px" viewBox="0 0 288 288" enable-background="new 0 0 288 288" xml:space="preserve">
<g id="Layer_4">
	<path opacity="0.39" fill="#FFFFFF" d="M212.7,94c7.2-24.8,5.6-46.7-33.2-55.9s-80.8,2.7-95.8,74.2c-5.9,28.1,15.5,26.7,20.1,40.5
		c7.1,21.4,2.9,49.9,19.7,52.1c27.7,3.7,75.7-3,82.5-40.7S205.5,118.8,212.7,94z"/>
</g>
<g id="splash" display="none">
	<path display="inline" fill="#BCE4E7" d="M167.6,201c0,0-2.8-14.2-10.1-14.5s-4.7,6,0.8,7.2C163.8,195.1,167.6,201,167.6,201z"/>
	<path display="inline" fill="#BCE4E7" d="M164.9,201c0,0-8.8-8.7-11.9-5c-3.1,3.6,0.8,6,4.6,5C161.4,200.1,164.9,201,164.9,201z"/>
	<path display="inline" fill="#BCE4E7" d="M164.1,186.8c0,0-0.9-5.1-3.3-6.7c-2.4-1.7-4.3,0.4-4.2,2.1S161.5,183.3,164.1,186.8z"/>
	<path display="inline" fill="#BCE4E7" d="M193.3,150.6c0,0,7.5-1.6,7.2-6.8c-0.3-5.2-5.8-3.3-6,0
		C194.3,147.1,194.6,149,193.3,150.6z"/>
	<path display="inline" fill="#BCE4E7" d="M190.5,150.6c0,0,2.3-4.8-1.1-5S190.7,149.5,190.5,150.6z"/>
	<path display="inline" fill="#BCE4E7" d="M194.5,151.5c0,0,9.4-3.5,8,0C201.1,155,197.2,150.9,194.5,151.5z"/>
	<path display="inline" fill="#BCE4E7" d="M176.4,201.3c0,0,27-30.2,42.1-20.8c15.1,9.3,0.8,12.9-9.3,12.1
		C199.2,191.8,189,191.9,176.4,201.3z"/>
	<path display="inline" fill="#BCE4E7" d="M180,201.3c0,0,18.4-9,22.6-4s0.3,8.5-4.1,8.2C194.2,205.1,191.6,199.3,180,201.3z"/>
	<path display="inline" fill="#BCE4E7" d="M205.3,195.1c0,0,9.8-2.4,11.8,2.1c2,4.5-1.4,6.3-3.6,5.7
		C211.3,202.3,210.4,195.2,205.3,195.1z"/>
	<path display="inline" fill="#BCE4E7" d="M205.8,175.4c0,0,2.5-6,6.6-5.3c4.1,0.6,2.8,4.2,0,4.6C209.6,174.9,207.4,173,205.8,175.4
		z"/>
</g>
<g id="body">
	<path fill="#00A7CE" d="M209.3,76.3C209.3,76.3,209.3,76.3,209.3,76.3c-2.1-3-7.7-4.9-7.7-4.9c0.2-0.6,0.3-1.1,0.4-1.7
		c0.4-2.9,0-5.7-1.1-8.2c-3.8-8.6-15.3-14.9-27.9-14.5c-5.2,0.2-12.3,1-19.6,3.2c-3.5,1-7,2.4-10.5,4.1c1.3-0.5,36.5-13.9,50.7,4.3
		c5.5,7.8,4,13.2,4,13.2s10.6,3.2,9.2,9.5c0.3,0,0.6-0.1,0.9-0.2c0,0,0.1,0,0.1,0c0.4-0.1,0.7-0.2,1-0.3c0.5-0.2,0.8-0.4,0.9-0.4
		c0,0-0.1,0.1-0.2,0.2c-0.1,0.1-0.3,0.3-0.6,0.4c-0.3,0.2-0.6,0.3-1,0.5c-0.2,0.1-0.3,0.1-0.5,0.2c-0.2,0.2-0.5,0.4-0.8,0.6
		c-1.8,2.8-10.6,0-10.6,0s-15.2,2.1-21,5.1c-5.8,3-63,48.5-29.8,92.7c0,0,27.2-4,29.1,4c-6.8,0.5-34.8,8.5-43.1,32
		c-1.1-3.5-0.2-10.8,0.1-16.1c-2.7,5.9-3.6,11.1-3.4,15c0.1,2.3,0.5,4.2,1,5.5c0.7,1.7,1.6,2.4,2.3,1.7c0.6-0.5,0.9-1.7,1.5-3.3
		c1-2.7,2.9-6.9,8.4-12.5c3.1-3.1,7.3-6.7,13.2-10.7c7.1-4.9,11.9-7.4,15.1-8.6l0,0c1.9-0.7,3.2-1,4.2-1c2.8-0.1,2.7,1.8,3.5,1.4
		c0.6-0.3,0.4-2.3-0.7-4.5c-1.3-2.5-3.8-5.3-7.5-6c-1-0.2-2-0.2-3.1-0.1c-9.2,1-20.8,2.2-20.8,2.2c-0.4-0.7-0.8-1.3-1.1-2
		c-1.7-3.2-3.1-6.4-4.1-9.5c-13.5-40.8,28.6-72.9,28.6-72.9c0.3-0.1,0.8-0.3,1.2-0.5c2.8-1.3,7.1-4.1,9.2-5.4
		c0.7-0.5,1.2-0.8,1.2-0.8c1,0,2.2-0.2,3.6-0.4c0.5-0.1,1-0.2,1.6-0.4c2.5-0.6,5.2-1.4,7.2-2.1h0c1.9-0.6,3.2-1.1,3.2-1.1
		c3.5,1.2,6.1,1.7,8,1.6c5.8-0.2,6-4.8,6-5c0,0,0,0,0,0C210.4,78.9,210.2,77.5,209.3,76.3z"/>
	<path fill="#00A7CE" d="M207.2,81.7c-0.2,0.2-0.5,0.4-0.8,0.6c-1.8,2.8-10.6,0-10.6,0s-15.2,2.1-21,5.1c-5.8,3-63,48.5-29.8,92.7
		c0,0,27.2-4,29.1,4c-6.8,0.5-34.8,8.5-43.1,32c-1.1-3.5-0.2-10.8,0.1-16.1c0.3-0.6,0.6-1.2,0.9-1.9c7.8-14.9,7.8-14.9,7.8-14.9
		s-0.3-0.5-0.9-1.5c-4.3-6.8-21.8-36.5-24.5-68c0,0,0-0.1,0-0.1c-0.5-5.8-0.5-11.6,0.2-17.3c0.3-2.8,0.8-5.4,1.4-7.9
		c0-0.2,0.1-0.3,0.1-0.5c0.1-0.5,0.2-0.9,0.4-1.4c-0.2-0.4-0.3-0.7-0.5-1.1c-2.6-5.7-7.5-9.8-10.6-10.9c-3.7-1.3-6.4,3.7-5.1-0.6
		c0.1-0.3,0.3-0.6,0.4-0.9c0,0,0,0,0,0c7-14.2,23.2-10.4,28.3-8.8c0.1-0.1,0.2-0.2,0.2-0.2c4.1-4.1,8.7-7.3,13.5-9.7c0,0,0,0,0,0
		c1.3-0.5,36.5-13.9,50.7,4.3c5.5,7.8,4,13.2,4,13.2s10.6,3.2,9.2,9.5c-0.2,0-0.3,0-0.5,0.1c-0.1,0-0.2,0-0.3,0c-0.4,0-0.9,0-1.4,0
		c-0.6,0-1.2,0-1.8-0.1c-0.3,0-0.7-0.1-1-0.1c-0.3-0.1-0.7-0.1-1-0.2c-0.7-0.1-1.3-0.3-2-0.5c-0.7-0.2-1.3-0.4-2-0.6
		c-0.6-0.2-1.3-0.5-1.9-0.7c-0.6-0.2-1.2-0.5-1.8-0.7c-0.6-0.2-1.1-0.5-1.6-0.7c-0.5-0.2-0.9-0.4-1.3-0.6c-0.4-0.2-0.7-0.3-1-0.5
		c-0.4-0.2-0.7-0.3-0.8-0.4c0.1,0.1,0.4,0.3,0.7,0.5c0.3,0.2,0.6,0.4,0.9,0.6c0.4,0.2,0.8,0.5,1.2,0.8c0.9,0.5,2,1.2,3.2,1.7
		c0.6,0.3,1.2,0.6,1.9,0.8c0.3,0.1,0.5,0.2,0.8,0.3c0.4,0.1,0.8,0.3,1.2,0.4c0.7,0.2,1.4,0.4,2.1,0.5c0.7,0.1,1.4,0.2,2.1,0.2
		c0.7,0.1,1.3,0,2,0h0c0.4,0,0.8-0.1,1.2-0.2c0.2,0,0.3-0.1,0.5-0.1c0.1,0,0.2,0,0.3-0.1C206.8,81.8,207,81.7,207.2,81.7z"/>
	<path fill="#231F20" d="M180.3,70.9c-1.3,0.8-3,0.2-3.7-1.5c-0.7-1.6-0.1-3.6,1.2-4.5c1.3-0.8,3-0.2,3.6,1.5
		C182.2,68.1,181.7,70.1,180.3,70.9z"/>
	<path fill="#FFFFFF" d="M209.5,80.4c0,0-0.1,0.1-0.2,0.2c-0.1,0.1-0.3,0.3-0.6,0.4c-0.3,0.2-0.6,0.3-1,0.5
		c-0.2,0.1-0.3,0.1-0.5,0.2c-0.2,0.1-0.4,0.1-0.6,0.2c-0.1,0-0.2,0-0.3,0.1c-0.2,0-0.3,0.1-0.5,0.1c-0.4,0.1-0.8,0.1-1.2,0.2h0
		c-0.6,0-1.3,0.1-2,0c-0.7,0-1.4-0.1-2.1-0.2c-0.7-0.1-1.4-0.3-2.1-0.5c-0.4-0.1-0.8-0.2-1.2-0.4c-0.3-0.1-0.5-0.2-0.8-0.3
		c-0.7-0.2-1.3-0.5-1.9-0.8c-1.2-0.5-2.3-1.2-3.2-1.7c-0.5-0.2-0.9-0.5-1.2-0.8c-0.4-0.2-0.7-0.5-0.9-0.6c-0.4-0.3-0.6-0.5-0.7-0.5
		c0.1,0,0.4,0.2,0.8,0.4c0.3,0.1,0.6,0.3,1,0.5c0.4,0.2,0.8,0.4,1.3,0.6c0.5,0.2,1,0.4,1.6,0.7c0.5,0.3,1.1,0.5,1.8,0.7
		c0.6,0.2,1.2,0.5,1.9,0.7c0.7,0.2,1.3,0.5,2,0.6c0.7,0.2,1.3,0.4,2,0.5c0.3,0.1,0.7,0.1,1,0.2c0.3,0.1,0.7,0.1,1,0.1
		c0.6,0.1,1.3,0.1,1.8,0.1c0.5,0,0.9,0,1.4,0c0.1,0,0.2,0,0.3,0c0.2,0,0.4,0,0.5-0.1c0.3,0,0.6-0.1,0.9-0.2c0,0,0.1,0,0.1,0
		c0.4-0.1,0.7-0.2,1-0.3C209.2,80.6,209.4,80.4,209.5,80.4z"/>
	<path fill="#008EB0" d="M209.5,80.3C209.5,80.3,209.5,80.3,209.5,80.3c0,0.3-0.2,4.8-6,5c-2,0.1-4.6-0.3-8-1.6c0,0-1.3,0.5-3.2,1.1
		h0c-2,0.7-4.7,1.5-7.2,2.1c-0.5,0.1-1,0.2-1.6,0.4c-1.4,0.3-2.7,0.5-3.6,0.4c0,0-0.5,0.3-1.2,0.8c-2.1,1.3-6.5,4.1-9.2,5.4
		c-0.5,0.2-0.9,0.4-1.2,0.5c0,0-42.1,32-28.6,72.9c1,3.1,2.4,6.3,4.1,9.5c0.4,0.7,0.7,1.3,1.1,2c0,0,11.5-1.1,20.8-2.2
		c1.1-0.1,2.2-0.1,3.1,0.1c3.7,0.7,6.2,3.5,7.5,6c1.1,2.2,1.3,4.2,0.7,4.5c-0.8,0.4-0.8-1.5-3.5-1.4c-1,0-2.3,0.3-4.2,1l0,0
		c-3.2,1.2-7.9,3.8-15.1,8.6c-5.9,4-10.1,7.6-13.2,10.7c-5.6,5.6-7.4,9.8-8.4,12.5c-0.6,1.7-0.9,2.8-1.5,3.3
		c-0.7,0.6-1.6-0.1-2.3-1.7c-0.5-1.3-0.9-3.1-1-5.5c-0.1-3.9,0.7-9.1,3.4-15c-0.3,5.3-1.2,12.6-0.1,16.1c8.2-23.5,36.2-31.5,43.1-32
		c-1.9-8-29.1-4-29.1-4c-33.2-44.2,24-89.8,29.8-92.7c5.8-3,21-5.1,21-5.1s8.8,2.8,10.6,0c0.3-0.2,0.5-0.4,0.8-0.6
		c0.2-0.1,0.4-0.1,0.5-0.2c0.4-0.2,0.8-0.3,1-0.5c0.3-0.1,0.5-0.3,0.6-0.4C209.4,80.5,209.5,80.4,209.5,80.3
		c-0.1,0.1-0.4,0.2-0.9,0.4c-0.3,0.1-0.6,0.2-1,0.3c0,0-0.1,0-0.1,0c-0.3,0-0.6,0.1-0.9,0.2c1.5-6.2-9.2-9.5-9.2-9.5s1.5-5.5-4-13.2
		c-14.2-18.1-49.4-4.8-50.7-4.3c3.5-1.8,7-3.1,10.5-4.1c7.4-2.2,14.4-3,19.6-3.2c12.6-0.4,24.1,5.9,27.9,14.5
		c1.1,2.6,1.6,5.4,1.1,8.2c-0.1,0.6-0.2,1.1-0.4,1.7c0,0,5.6,1.9,7.7,4.9c0,0,0,0,0,0C210.2,77.5,210.4,78.9,209.5,80.3z"/>
	<path fill="#008EB0" d="M102.8,71.8c0,0,15.6,4.9,13.7,14.7c-0.1-0.4-0.3-0.7-0.5-1.1c-2.6-5.7-7.5-9.8-10.6-10.9
		c-3.7-1.3-6.4,3.7-5.1-0.6c0.1-0.3,0.3-0.6,0.4-0.9c0,0,0,0,0,0c7-14.2,23.2-10.4,28.3-8.8c0,0-11.9-0.2-19.3,2.9
		S102.8,71.8,102.8,71.8z"/>
	<path fill="#FFFFFF" d="M178.5,65.6c0,0,2.6-1.1,2.6,2.7C181,68.4,180.3,66.1,178.5,65.6z"/>
</g>
<g id="ears">
	<path fill="#008EB0" d="M124,112.6c2.4,1.5,7.3,5.6,18.1-2c4.6-3.2,8.2-7.5,10.9-11.3c-2.5,3.2-5.6,6.5-9.3,9.1
		c-7.2,5-13.4,5-15.8,3.5c-2.4-1.5,2.4-1.2,6.4-4.6c2.7-2.4,4.4-10.6,5.2-15.5c-1.2,3.4-5,13.5-8.3,16.3
		C127.3,111.6,121.6,111.1,124,112.6z"/>
	<path fill="#00A7CE" d="M172.3,115.1c-6.4,2.9-7.5,3.2-6.6,1.7c0.4-0.7,1.1-1.6,2-2.9c2.9-4.3,7-11.7,1.9-19.9
		c3.7-1.8,10.4-6.2,10.4-6.2c0.4,0,0.9,0,1.5-0.1c0.7-0.1,1.4-0.2,2.1-0.4C183.6,87.4,190.9,106.7,172.3,115.1z"/>
	<path fill="#008EB0" d="M172.3,115.1c-6.4,2.9-7.5,3.2-6.6,1.7c0.4-0.7,1.1-1.6,2-2.9c19.4-6.9,12.3-26,12.3-26
		c0.4,0,0.9,0,1.5-0.1c0.7-0.1,1.4-0.2,2.1-0.4C183.6,87.4,190.9,106.7,172.3,115.1z"/>
	<path fill="#008EB0" d="M116.1,87.9c0.1-0.5,0.2-0.9,0.4-1.4c-0.1,0.6-0.3,1.3-0.5,1.9C116.1,88.2,116.1,88,116.1,87.9z"/>
	<g>
	</g>
	<g>
	</g>
	<g>
	</g>
	<g>
	</g>
	<g>
	</g>
	<g>
	</g>
</g>
</svg>
