<?xml version="1.0" encoding="utf-8"?>
<!-- Generator: Adobe Illustrator 19.1.0, SVG Export Plug-In . SVG Version: 6.00 Build 0)  -->
<svg version="1.1" xmlns="http://www.w3.org/2000/svg" xmlns:xlink="http://www.w3.org/1999/xlink" x="0px" y="0px" width="288px"
	 height="288px" viewBox="0 0 288 288" enable-background="new 0 0 288 288" xml:space="preserve">
<g id="Layer_4">
	<path opacity="0.39" fill="#FFFFFF" d="M148.3,97.7c7.2-24.8,5.6-46.7-33.2-55.9S34.3,44.5,19.3,116c-5.9,28.1,15.5,26.7,20.1,40.5
		c7.1,21.4,2.9,49.9,19.7,52.1c27.7,3.7,75.7-3,82.5-40.7S141.1,122.5,148.3,97.7z"/>
</g>
<g id="splash">
	<path fill="#BCE4E7" d="M60.9,226.8c0,0-2.8-14.2-10.1-14.5s-4.7,6,0.8,7.2S60.9,226.8,60.9,226.8z"/>
	<path fill="#BCE4E7" d="M58.3,226.8c0,0-8.8-8.7-11.9-5s0.8,6,4.6,5C54.8,225.8,58.3,226.8,58.3,226.8z"/>
	<path fill="#BCE4E7" d="M57.4,212.6c0,0-0.9-5.1-3.3-6.7c-2.4-1.7-4.3,0.4-4.2,2.1C49.9,209.7,54.8,209.1,57.4,212.6z"/>
	<path fill="#BCE4E7" d="M86.6,176.3c0,0,7.5-1.6,7.2-6.8c-0.3-5.2-5.8-3.3-6,0S87.9,174.7,86.6,176.3z"/>
	<path fill="#BCE4E7" d="M83.9,176.3c0,0,2.3-4.8-1.1-5C79.5,171.1,84,175.2,83.9,176.3z"/>
	<path fill="#BCE4E7" d="M87.8,177.2c0,0,9.4-3.5,8,0C94.4,180.7,90.5,176.6,87.8,177.2z"/>
	<path fill="#BCE4E7" d="M69.7,227c0,0,27-30.2,42.1-20.8c15.1,9.3,0.8,12.9-9.3,12.1S82.3,217.6,69.7,227z"/>
	<path fill="#BCE4E7" d="M73.4,227c0,0,18.4-9,22.6-4c4.3,4.9,0.3,8.5-4.1,8.2C87.5,230.9,85,225,73.4,227z"/>
	<path fill="#BCE4E7" d="M98.7,220.9c0,0,9.8-2.4,11.8,2.1c2,4.5-1.4,6.3-3.6,5.7C104.6,228,103.7,220.9,98.7,220.9z"/>
	<path fill="#BCE4E7" d="M99.1,201.1c0,0,2.5-6,6.6-5.3s2.8,4.2,0,4.6S100.7,198.7,99.1,201.1z"/>
</g>
<g id="body">
	<path fill="#00A7CE" d="M144.9,80C144.9,80,144.9,80,144.9,80c-2.1-3-7.7-4.9-7.7-4.9c0.2-0.6,0.3-1.1,0.4-1.7
		c0.4-2.9,0-5.7-1.1-8.2c-3.8-8.6-15.3-14.9-27.9-14.5c-5.2,0.2-12.3,1-19.6,3.2c-3.5,1-7,2.4-10.5,4.1c1.3-0.5,36.5-13.9,50.7,4.3
		c5.5,7.8,4,13.2,4,13.2s10.6,3.2,9.2,9.5c0.3,0,0.6-0.1,0.9-0.2c0,0,0.1,0,0.1,0c0.4-0.1,0.7-0.2,1-0.3c0.5-0.2,0.8-0.4,0.9-0.4
		c0,0-0.1,0.1-0.2,0.2c-0.1,0.1-0.3,0.3-0.6,0.4c-0.3,0.2-0.6,0.3-1,0.5c-0.2,0.1-0.3,0.1-0.5,0.2c-0.2,0.2-0.5,0.4-0.8,0.6
		c-1.8,2.8-10.6,0-10.6,0s-15.2,2.1-21,5.1c-5.8,3-63,48.5-29.8,92.7c0,0,27.2-4,29.1,4c-6.8,0.5-34.8,8.5-43.1,32
		c-1.1-3.5-0.2-10.8,0.1-16.1c-2.7,5.9-3.6,11.1-3.4,15c0.1,2.3,0.5,4.2,1,5.5c0.7,1.7,1.6,2.4,2.3,1.7c0.6-0.5,0.9-1.7,1.5-3.3
		c1-2.7,2.9-6.9,8.4-12.5c3.1-3.1,7.3-6.7,13.2-10.7c7.1-4.9,11.9-7.4,15.1-8.6l0,0c1.9-0.7,3.2-1,4.2-1c2.8-0.1,2.7,1.8,3.5,1.4
		c0.6-0.3,0.4-2.3-0.7-4.5c-1.3-2.5-3.8-5.3-7.5-6c-1-0.2-2-0.2-3.1-0.1c-9.2,1-20.8,2.2-20.8,2.2c-0.4-0.7-0.8-1.3-1.1-2
		c-1.7-3.2-3.1-6.4-4.1-9.5c-13.5-40.8,28.6-72.9,28.6-72.9c0.3-0.1,0.8-0.3,1.2-0.5c2.8-1.3,7.1-4.1,9.2-5.4
		c0.7-0.5,1.2-0.8,1.2-0.8c1,0,2.2-0.2,3.6-0.4c0.5-0.1,1-0.2,1.6-0.4c2.5-0.6,5.2-1.4,7.2-2.1h0c1.9-0.6,3.2-1.1,3.2-1.1
		c3.5,1.2,6.1,1.7,8,1.6c5.8-0.2,6-4.8,6-5c0,0,0,0,0,0C146,82.6,145.8,81.2,144.9,80z"/>
	<path fill="#00A7CE" d="M142.8,85.4c-0.2,0.2-0.5,0.4-0.8,0.6c-1.8,2.8-10.6,0-10.6,0s-15.2,2.1-21,5.1c-5.8,3-63,48.5-29.8,92.7
		c0,0,27.2-4,29.1,4c-6.8,0.5-34.8,8.5-43.1,32c-1.1-3.5-0.2-10.8,0.1-16.1c0.3-0.6,0.6-1.2,0.9-1.9c7.8-14.9,7.8-14.9,7.8-14.9
		s-0.3-0.5-0.9-1.5c-4.3-6.8-21.8-36.5-24.5-68c0,0,0-0.1,0-0.1c-0.5-5.8-0.5-11.6,0.2-17.3c0.3-2.8,0.8-5.4,1.4-7.9
		c0-0.2,0.1-0.3,0.1-0.5c0.1-0.5,0.2-0.9,0.4-1.4c-0.2-0.4-0.3-0.7-0.5-1.1c-2.6-5.7-7.5-9.8-10.6-10.9c-3.7-1.3-6.4,3.7-5.1-0.6
		c0.1-0.3,0.3-0.6,0.4-0.9c0,0,0,0,0,0c7-14.2,23.2-10.4,28.3-8.8c0.1-0.1,0.2-0.2,0.2-0.2c4.1-4.1,8.7-7.3,13.5-9.7c0,0,0,0,0,0
		c1.3-0.5,36.5-13.9,50.7,4.3c5.5,7.8,4,13.2,4,13.2s10.6,3.2,9.2,9.5c-0.2,0-0.3,0-0.5,0.1c-0.1,0-0.2,0-0.3,0c-0.4,0-0.9,0-1.4,0
		c-0.6,0-1.2,0-1.8-0.1c-0.3,0-0.7-0.1-1-0.1c-0.3-0.1-0.7-0.1-1-0.2c-0.7-0.1-1.3-0.3-2-0.5c-0.7-0.2-1.3-0.4-2-0.6
		c-0.6-0.2-1.3-0.5-1.9-0.7c-0.6-0.2-1.2-0.5-1.8-0.7c-0.6-0.2-1.1-0.5-1.6-0.7c-0.5-0.2-0.9-0.4-1.3-0.6c-0.4-0.2-0.7-0.3-1-0.5
		c-0.4-0.2-0.7-0.3-0.8-0.4c0.1,0.1,0.4,0.3,0.7,0.5c0.3,0.2,0.6,0.4,0.9,0.6c0.4,0.2,0.8,0.5,1.2,0.8c0.9,0.5,2,1.2,3.2,1.7
		c0.6,0.3,1.2,0.6,1.9,0.8c0.3,0.1,0.5,0.2,0.8,0.3c0.4,0.1,0.8,0.3,1.2,0.4c0.7,0.2,1.4,0.4,2.1,0.5c0.7,0.1,1.4,0.2,2.1,0.2
		c0.7,0.1,1.3,0,2,0h0c0.4,0,0.8-0.1,1.2-0.2c0.2,0,0.3-0.1,0.5-0.1c0.1,0,0.2,0,0.3-0.1C142.4,85.5,142.6,85.5,142.8,85.4z"/>
	<path fill="#231F20" d="M116,74.6c-1.3,0.8-3,0.2-3.7-1.5c-0.7-1.6-0.1-3.6,1.2-4.5c1.3-0.8,3-0.2,3.6,1.5
		C117.8,71.8,117.3,73.8,116,74.6z"/>
	<path fill="#FFFFFF" d="M145.1,84.1c0,0-0.1,0.1-0.2,0.2c-0.1,0.1-0.3,0.3-0.6,0.4c-0.3,0.2-0.6,0.3-1,0.5
		c-0.2,0.1-0.3,0.1-0.5,0.2c-0.2,0.1-0.4,0.1-0.6,0.2c-0.1,0-0.2,0-0.3,0.1c-0.2,0-0.3,0.1-0.5,0.1c-0.4,0.1-0.8,0.1-1.2,0.2h0
		c-0.6,0-1.3,0.1-2,0c-0.7,0-1.4-0.1-2.1-0.2c-0.7-0.1-1.4-0.3-2.1-0.5c-0.4-0.1-0.8-0.2-1.2-0.4c-0.3-0.1-0.5-0.2-0.8-0.3
		c-0.7-0.2-1.3-0.5-1.9-0.8c-1.2-0.5-2.3-1.2-3.2-1.7c-0.5-0.2-0.9-0.5-1.2-0.8c-0.4-0.2-0.7-0.5-0.9-0.6c-0.4-0.3-0.6-0.5-0.7-0.5
		c0.1,0,0.4,0.2,0.8,0.4c0.3,0.1,0.6,0.3,1,0.5c0.4,0.2,0.8,0.4,1.3,0.6c0.5,0.2,1,0.4,1.6,0.7c0.5,0.3,1.1,0.5,1.8,0.7
		c0.6,0.2,1.2,0.5,1.9,0.7c0.7,0.2,1.3,0.5,2,0.6c0.7,0.2,1.3,0.4,2,0.5c0.3,0.1,0.7,0.1,1,0.2c0.3,0.1,0.7,0.1,1,0.1
		c0.6,0.1,1.3,0.1,1.8,0.1c0.5,0,0.9,0,1.4,0c0.1,0,0.2,0,0.3,0c0.2,0,0.4,0,0.5-0.1c0.3,0,0.6-0.1,0.9-0.2c0,0,0.1,0,0.1,0
		c0.4-0.1,0.7-0.2,1-0.3C144.8,84.3,145.1,84.1,145.1,84.1z"/>
	<path fill="#008EB0" d="M145.1,84.1C145.1,84.1,145.1,84.1,145.1,84.1c0,0.3-0.2,4.8-6,5c-2,0.1-4.6-0.3-8-1.6c0,0-1.3,0.5-3.2,1.1
		h0c-2,0.7-4.7,1.5-7.2,2.1c-0.5,0.1-1,0.2-1.6,0.4c-1.4,0.3-2.7,0.5-3.6,0.4c0,0-0.5,0.3-1.2,0.8c-2.1,1.3-6.5,4.1-9.2,5.4
		c-0.5,0.2-0.9,0.4-1.2,0.5c0,0-42.1,32-28.6,72.9c1,3.1,2.4,6.3,4.1,9.5c0.4,0.7,0.7,1.3,1.1,2c0,0,11.5-1.1,20.8-2.2
		c1.1-0.1,2.2-0.1,3.1,0.1c3.7,0.7,6.2,3.5,7.5,6c1.1,2.2,1.3,4.2,0.7,4.5c-0.8,0.4-0.8-1.5-3.5-1.4c-1,0-2.3,0.3-4.2,1l0,0
		c-3.2,1.2-7.9,3.8-15.1,8.6c-5.9,4-10.1,7.6-13.2,10.7c-5.6,5.6-7.4,9.8-8.4,12.5c-0.6,1.7-0.9,2.8-1.5,3.3
		c-0.7,0.6-1.6-0.1-2.3-1.7c-0.5-1.3-0.9-3.1-1-5.5c-0.1-3.9,0.7-9.1,3.4-15c-0.3,5.3-1.2,12.6-0.1,16.1c8.2-23.5,36.2-31.5,43.1-32
		c-1.9-8-29.1-4-29.1-4c-33.2-44.2,24-89.8,29.8-92.7c5.8-3,21-5.1,21-5.1s8.8,2.8,10.6,0c0.3-0.2,0.5-0.4,0.8-0.6
		c0.2-0.1,0.4-0.1,0.5-0.2c0.4-0.2,0.8-0.3,1-0.5c0.3-0.1,0.5-0.3,0.6-0.4C145.1,84.2,145.1,84.1,145.1,84.1
		c-0.1,0.1-0.4,0.2-0.9,0.4c-0.3,0.1-0.6,0.2-1,0.3c0,0-0.1,0-0.1,0c-0.3,0-0.6,0.1-0.9,0.2c1.5-6.2-9.2-9.5-9.2-9.5s1.5-5.5-4-13.2
		C115,44.2,79.8,57.5,78.5,58c3.5-1.8,7-3.1,10.5-4.1c7.4-2.2,14.4-3,19.6-3.2c12.6-0.4,24.1,5.9,27.9,14.5c1.1,2.6,1.6,5.4,1.1,8.2
		c-0.1,0.6-0.2,1.1-0.4,1.7c0,0,5.6,1.9,7.7,4.9c0,0,0,0,0,0C145.8,81.2,146,82.6,145.1,84.1z"/>
	<path fill="#008EB0" d="M38.4,75.5c0,0,15.6,4.9,13.7,14.7c-0.1-0.4-0.3-0.7-0.5-1.1c-2.6-5.7-7.5-9.8-10.6-10.9
		c-3.7-1.3-6.4,3.7-5.1-0.6c0.1-0.3,0.3-0.6,0.4-0.9c0,0,0,0,0,0c7-14.2,23.2-10.4,28.3-8.8c0,0-11.9-0.2-19.3,2.9
		S38.4,75.5,38.4,75.5z"/>
	<path fill="#FFFFFF" d="M114.1,69.4c0,0,2.6-1.1,2.6,2.7C116.7,72.1,116,69.9,114.1,69.4z"/>
</g>
<g id="ears">
	<path fill="#008EB0" d="M59.6,116.4c2.4,1.5,7.3,5.6,18.1-2c4.6-3.2,8.2-7.5,10.9-11.3c-2.5,3.2-5.6,6.5-9.3,9.1
		c-7.2,5-13.4,5-15.8,3.5c-2.4-1.5,2.4-1.2,6.4-4.6c2.7-2.4,4.4-10.6,5.2-15.5c-1.2,3.4-5,13.5-8.3,16.3
		C62.9,115.3,57.3,114.8,59.6,116.4z"/>
	<path fill="#00A7CE" d="M108,118.8c-6.4,2.9-7.5,3.2-6.6,1.7c0.4-0.7,1.1-1.6,2-2.9c2.9-4.3,7-11.7,1.9-19.9
		c3.7-1.8,10.4-6.2,10.4-6.2c0.4,0,0.9,0,1.5-0.1c0.7-0.1,1.4-0.2,2.1-0.4C119.2,91.1,126.5,110.4,108,118.8z"/>
	<path fill="#008EB0" d="M108,118.8c-6.4,2.9-7.5,3.2-6.6,1.7c0.4-0.7,1.1-1.6,2-2.9c19.4-6.9,12.3-26,12.3-26c0.4,0,0.9,0,1.5-0.1
		c0.7-0.1,1.4-0.2,2.1-0.4C119.2,91.1,126.5,110.4,108,118.8z"/>
	<path fill="#008EB0" d="M51.8,91.6c0.1-0.5,0.2-0.9,0.4-1.4c-0.1,0.6-0.3,1.3-0.5,1.9C51.7,91.9,51.7,91.8,51.8,91.6z"/>
</g>
<g id="text">
	<g>
		<rect x="132.6" y="98" fill="none" width="140.7" height="114.5"/>
		<path fill="#553278" d="M133.4,109.1v-5.5c0-3.9,1.6-5.9,4.8-5.9c0.7,0,1.3,0.1,1.8,0.3c0.5,0.2,1,0.4,1.3,0.8
			c0.4,0.3,0.7,0.7,0.9,1.2c0.2,0.5,0.4,1,0.5,1.5c0.1,0.6,0.2,1.2,0.2,1.8v1.4h-3.3v-1.5c0-0.3,0-0.6,0-0.8c0-0.2,0-0.5-0.1-0.8
			c-0.1-0.3-0.1-0.5-0.2-0.7c-0.1-0.2-0.2-0.3-0.4-0.5c-0.2-0.1-0.4-0.2-0.6-0.2c-1,0-1.5,0.8-1.5,2.5v7.2c0,1.6,0.5,2.5,1.5,2.5
			c0.3,0,0.5-0.1,0.7-0.3c0.2-0.2,0.3-0.4,0.4-0.7c0.1-0.3,0.1-0.6,0.2-0.9c0-0.3,0-0.6,0-1v-1.7h3.3v1.4c0,0.6-0.1,1.2-0.2,1.8
			s-0.3,1.1-0.5,1.6c-0.2,0.5-0.5,0.9-0.8,1.3c-0.3,0.3-0.8,0.6-1.3,0.8c-0.5,0.2-1.2,0.3-1.9,0.3c-0.7,0-1.4-0.1-1.9-0.3
			c-0.6-0.2-1-0.5-1.4-0.8c-0.4-0.3-0.7-0.8-0.9-1.3c-0.2-0.5-0.4-1-0.5-1.6C133.4,110.4,133.4,109.8,133.4,109.1z"/>
		<path fill="#553278" d="M144.3,112.3v-9.8h3.1v9c0,0.7,0.1,1,0.4,1c0.3,0,0.6-0.2,1-0.7v-9.3h3.1v12.1h-3.1v-1
			c-0.3,0.4-0.7,0.7-1.1,0.9c-0.4,0.2-0.8,0.4-1.3,0.4c-0.6,0-1.2-0.3-1.5-0.8C144.5,113.6,144.3,113,144.3,112.3z"/>
		<path fill="#553278" d="M153.7,114.7V98h3.1v16.7H153.7z"/>
		<path fill="#553278" d="M158.8,110.5v-5.9h-0.9v-2.1h0.9v-4h3.1v4h1.5v2.1H162v6.6c0,0.3,0.1,0.6,0.2,0.7c0.1,0.2,0.3,0.2,0.7,0.2
			c0.4,0,0.7,0,0.9-0.1v2.4c-0.4,0.1-1.1,0.2-2,0.2c-0.4,0-0.7,0-1-0.1c-0.3-0.1-0.5-0.2-0.7-0.3c-0.2-0.1-0.4-0.3-0.5-0.6
			c-0.1-0.2-0.3-0.5-0.3-0.7c-0.1-0.2-0.1-0.5-0.2-0.8c0-0.3-0.1-0.6-0.1-0.9C158.8,111.2,158.8,110.9,158.8,110.5z"/>
		<path fill="#553278" d="M164.7,112.3v-9.8h3.1v9c0,0.7,0.1,1,0.4,1c0.3,0,0.6-0.2,1-0.7v-9.3h3.1v12.1h-3.1v-1
			c-0.3,0.4-0.7,0.7-1.1,0.9s-0.8,0.4-1.3,0.4c-0.6,0-1.2-0.3-1.5-0.8C164.9,113.6,164.7,113,164.7,112.3z"/>
		<path fill="#553278" d="M174.1,114.7v-12.1h3.1v1c0.5-0.8,1-1.2,1.7-1.2c0.2,0,0.5,0,0.8,0.1v2.6c-0.6-0.1-1-0.1-1.2-0.1
			c-0.4,0-0.8,0.1-1,0.4c-0.2,0.3-0.3,0.6-0.3,1.1v8.1H174.1z"/>
		<path fill="#553278" d="M180.3,111.5v-5.1c0-1.3,0.3-2.3,0.9-3c0.6-0.7,1.5-1.1,2.8-1.1c1.3,0,2.2,0.4,2.8,1.1
			c0.6,0.7,0.9,1.7,0.9,3v2.5h-4.3v2.7c0,0.7,0.2,1,0.6,1c0.4,0,0.6-0.4,0.6-1.1v-1.3h3.1v1.4c0,1-0.4,1.8-1.1,2.5
			c-0.7,0.6-1.6,1-2.6,1s-1.9-0.3-2.6-1C180.6,113.4,180.3,112.5,180.3,111.5z M183.4,107.3h1.2v-1.7c0-0.6-0.2-0.9-0.6-0.9
			c-0.4,0-0.6,0.3-0.6,0.9V107.3z"/>
		<path fill="#FFFFFF" d="M134.2,126.7l-1.6-8.8h1.2l0.6,4.1l0.3,2.5l0.3-2.5l0.6-4.1h1.2l0.6,4.1l0.3,2.5l0.3-2.5l0.6-4.1h1.2
			l-1.6,8.8h-1.2l-0.6-4.1l-0.3-2.5l-0.3,2.5l-0.6,4.1H134.2z"/>
		<path fill="#FFFFFF" d="M140.8,119.5v-1.2h1.2v1.2H140.8z M140.8,126.7v-6.2h1.2v6.2H140.8z"/>
		<path fill="#FFFFFF" d="M143.3,126.7v-8.8h1.2v8.8H143.3z"/>
		<path fill="#FFFFFF" d="M147.1,126.8c-0.3,0-0.5-0.1-0.7-0.2c-0.2-0.2-0.4-0.4-0.5-0.6s-0.2-0.5-0.3-0.8c-0.1-0.3-0.1-0.6-0.1-0.9
			c0-0.2,0-0.5,0-1.1c0-0.2,0-0.4,0-0.6c0-0.2,0-0.4,0.1-0.5c0-0.2,0.1-0.4,0.1-0.5c0-0.1,0.1-0.3,0.2-0.4s0.2-0.2,0.3-0.3
			c0.1-0.1,0.2-0.2,0.4-0.2s0.3-0.1,0.5-0.1c0.1,0,0.3,0,0.4,0.1s0.2,0.1,0.3,0.2c0.1,0.1,0.2,0.2,0.3,0.2c0.1,0.1,0.2,0.1,0.3,0.3
			v-3.1h1.2v8.7h-1.2v-0.6c-0.2,0.2-0.4,0.4-0.6,0.5S147.4,126.8,147.1,126.8z M147.4,125.7c0.3,0,0.6-0.1,0.9-0.2v-3.9
			c-0.3-0.2-0.6-0.2-0.9-0.2c-0.1,0-0.2,0-0.3,0.1c-0.1,0.1-0.1,0.1-0.2,0.3c0,0.1-0.1,0.2-0.1,0.4s0,0.3,0,0.4c0,0.7,0,1.3,0,1.7
			c0,0.2,0,0.4,0,0.6s0.1,0.3,0.1,0.5s0.1,0.3,0.2,0.3C147.2,125.7,147.3,125.7,147.4,125.7z"/>
		<path fill="#FFFFFF" d="M154.3,126.8c-0.3,0-0.5-0.1-0.7-0.2c-0.2-0.2-0.4-0.4-0.5-0.6s-0.2-0.5-0.3-0.8c-0.1-0.3-0.1-0.6-0.1-0.9
			c0-0.2,0-0.5,0-1.1c0-0.2,0-0.4,0-0.6c0-0.2,0-0.4,0.1-0.5c0-0.2,0.1-0.4,0.1-0.5c0-0.1,0.1-0.3,0.2-0.4s0.2-0.2,0.3-0.3
			c0.1-0.1,0.2-0.2,0.4-0.2s0.3-0.1,0.5-0.1c0.1,0,0.3,0,0.4,0.1s0.2,0.1,0.3,0.2c0.1,0.1,0.2,0.2,0.3,0.2c0.1,0.1,0.2,0.1,0.3,0.3
			v-3.1h1.2v8.7h-1.2v-0.6c-0.2,0.2-0.4,0.4-0.6,0.5S154.5,126.8,154.3,126.8z M154.6,125.7c0.3,0,0.6-0.1,0.9-0.2v-3.9
			c-0.3-0.2-0.6-0.2-0.9-0.2c-0.1,0-0.2,0-0.3,0.1c-0.1,0.1-0.1,0.1-0.2,0.3c0,0.1-0.1,0.2-0.1,0.4s0,0.3,0,0.4c0,0.7,0,1.3,0,1.7
			c0,0.2,0,0.4,0,0.6s0.1,0.3,0.1,0.5s0.1,0.3,0.2,0.3C154.4,125.7,154.5,125.7,154.6,125.7z"/>
		<path fill="#FFFFFF" d="M161.1,126.2c-0.3,0.4-0.8,0.6-1.4,0.6c-0.7,0-1.2-0.2-1.4-0.6c-0.3-0.4-0.4-1-0.4-1.7v-1.9
			c0-0.7,0.1-1.3,0.4-1.7c0.3-0.4,0.8-0.6,1.4-0.6c0.7,0,1.2,0.2,1.4,0.6c0.3,0.4,0.4,1,0.4,1.7v1.9
			C161.6,125.2,161.4,125.8,161.1,126.2z M159.5,125.7c0.1,0,0.1,0,0.2,0s0.2,0,0.2,0c0.1,0,0.1-0.1,0.2-0.1s0.1-0.1,0.1-0.2
			s0.1-0.1,0.1-0.2c0-0.1,0-0.1,0-0.2c0-0.1,0-0.2,0-0.2c0-0.1,0-0.2,0-0.3v-1.9c0-0.1,0-0.2,0-0.3c0-0.1,0-0.1,0-0.2
			c0-0.1,0-0.2,0-0.2c0-0.1,0-0.1-0.1-0.2s-0.1-0.1-0.1-0.2s-0.1-0.1-0.2-0.1c-0.1,0-0.1,0-0.2,0s-0.2,0-0.2,0
			c-0.1,0-0.1,0.1-0.2,0.1s-0.1,0.1-0.1,0.2s-0.1,0.1-0.1,0.2c0,0.1,0,0.1,0,0.2c0,0.1,0,0.2,0,0.2c0,0.1,0,0.2,0,0.3v1.9
			c0,0.1,0,0.2,0,0.3c0,0.1,0,0.1,0,0.2c0,0.1,0,0.2,0,0.2c0,0.1,0,0.1,0.1,0.2s0.1,0.1,0.1,0.2S159.4,125.7,159.5,125.7z"/>
		<path fill="#FFFFFF" d="M162.6,126.7v-8.8h1.2v8.8H162.6z"/>
		<path fill="#FFFFFF" d="M165,128.6v-8.1h1.2v0.6c0.1-0.1,0.2-0.2,0.2-0.2s0.1-0.1,0.2-0.2c0.1-0.1,0.2-0.1,0.2-0.2
			c0.1,0,0.2-0.1,0.3-0.1c0.1,0,0.2,0,0.3,0c0.2,0,0.4,0,0.6,0.1s0.3,0.2,0.4,0.3s0.2,0.3,0.3,0.5c0.1,0.2,0.1,0.4,0.2,0.5
			c0,0.2,0.1,0.4,0.1,0.7s0,0.5,0,0.7c0,0.2,0,0.4,0,0.7v0.1c0,0.3,0,0.5,0,0.8c0,0.3-0.1,0.5-0.2,0.8s-0.2,0.5-0.3,0.7
			s-0.3,0.3-0.4,0.5c-0.2,0.1-0.4,0.2-0.6,0.2c-0.4,0-0.8-0.2-1.2-0.6v2.4H165z M167.2,125.7c0.1,0,0.2,0,0.3-0.1
			c0.1-0.1,0.2-0.2,0.2-0.4c0-0.2,0.1-0.4,0.1-0.5s0-0.4,0-0.6l0-0.8c0-0.1,0-0.3,0-0.4c0-0.1,0-0.2,0-0.4s0-0.3,0-0.4
			c0-0.1,0-0.2-0.1-0.3c0-0.1-0.1-0.2-0.1-0.3c0-0.1-0.1-0.1-0.2-0.2c-0.1,0-0.2-0.1-0.3-0.1c0,0-0.1,0-0.1,0s-0.1,0-0.1,0
			c0,0-0.1,0-0.1,0c0,0-0.1,0-0.1,0.1s-0.1,0-0.1,0.1c0,0-0.1,0-0.1,0.1c-0.1,0-0.1,0.1-0.1,0.1v3.9
			C166.5,125.7,166.8,125.7,167.2,125.7z"/>
		<path fill="#FFFFFF" d="M170.1,126.7v-8.8h1.2v3.2c0.2-0.2,0.3-0.3,0.5-0.4s0.3-0.2,0.5-0.3c0.2-0.1,0.4-0.1,0.7-0.1
			c0.3,0,0.5,0.1,0.6,0.3s0.2,0.4,0.2,0.7v5.3h-1.2V122c0-0.2,0-0.4-0.1-0.5s-0.2-0.2-0.3-0.2c-0.3,0-0.5,0.1-0.8,0.4v4.9H170.1z"/>
		<path fill="#FFFFFF" d="M175,119.5v-1.2h1.2v1.2H175z M175,126.7v-6.2h1.2v6.2H175z"/>
		<path fill="#FFFFFF" d="M177.4,126.7v-6.2h1.2v0.7c0.2-0.2,0.3-0.3,0.5-0.4s0.3-0.2,0.5-0.3c0.2-0.1,0.4-0.1,0.7-0.1
			c0.3,0,0.5,0.1,0.6,0.3s0.2,0.4,0.2,0.7v5.3h-1.2V122c0-0.2,0-0.4-0.1-0.5c-0.1-0.1-0.2-0.1-0.4-0.1c-0.1,0-0.2,0-0.3,0.1
			c-0.1,0-0.2,0.1-0.2,0.1c-0.1,0-0.1,0.1-0.2,0.2v4.9H177.4z"/>
		<path fill="#FFFFFF" d="M183.9,126.8c-0.5,0-0.9-0.2-1.2-0.5c-0.3-0.3-0.5-0.7-0.6-1.2l0.9-0.3c0.2,0.6,0.5,0.9,0.9,0.9
			c0.2,0,0.4-0.1,0.5-0.2c0.1-0.1,0.2-0.3,0.2-0.5c0-0.3-0.1-0.5-0.3-0.7l-1.2-0.9c-0.1-0.1-0.3-0.2-0.4-0.3
			c-0.1-0.1-0.2-0.2-0.3-0.3s-0.2-0.3-0.2-0.4c0-0.1-0.1-0.3-0.1-0.5c0-0.5,0.2-0.9,0.5-1.2c0.3-0.3,0.8-0.4,1.4-0.4
			c0.3,0,0.5,0,0.7,0.1c0.2,0.1,0.4,0.2,0.5,0.4c0.1,0.2,0.3,0.3,0.4,0.5c0.1,0.2,0.2,0.4,0.2,0.6l-0.9,0.3c0-0.1-0.1-0.2-0.1-0.3
			c0-0.1-0.1-0.2-0.2-0.3c-0.1-0.1-0.2-0.2-0.3-0.2c-0.1-0.1-0.2-0.1-0.3-0.1c-0.2,0-0.4,0.1-0.5,0.2c-0.1,0.1-0.2,0.3-0.2,0.5
			c0,0.2,0.1,0.4,0.3,0.5l1.2,0.9c0.1,0.1,0.3,0.2,0.4,0.3c0.1,0.1,0.2,0.2,0.3,0.4c0.1,0.1,0.2,0.3,0.2,0.5s0.1,0.3,0.1,0.5
			c0,0.5-0.2,0.9-0.5,1.2C184.9,126.6,184.5,126.8,183.9,126.8z"/>
		<path fill="#FFFFFF" d="M186.6,127.9l-0.3-0.6c0.2,0,0.4,0,0.5-0.1c0.1-0.1,0.1-0.3,0.1-0.5h-0.6v-1.2h1.2c0,0.5,0,0.9,0,1.2
			c0,0.2,0,0.3,0,0.4c0,0.1,0,0.2-0.1,0.4s-0.1,0.2-0.2,0.3c-0.1,0.1-0.2,0.1-0.3,0.2C186.9,127.9,186.8,127.9,186.6,127.9z"/>
		<path fill="#FFFFFF" d="M191.2,126.7l-1.2-6.2h1.1l0.7,4.7l0.7-4.7h1.1l0.7,4.7l0.7-4.7h1.1l-1.2,6.2h-1.2l-0.7-4.3l-0.7,4.3
			H191.2z"/>
		<path fill="#FFFFFF" d="M196.8,126.7v-8.8h1.2v3.2c0.2-0.2,0.3-0.3,0.5-0.4s0.3-0.2,0.5-0.3c0.2-0.1,0.4-0.1,0.7-0.1
			c0.3,0,0.5,0.1,0.6,0.3s0.2,0.4,0.2,0.7v5.3h-1.2V122c0-0.2,0-0.4-0.1-0.5s-0.2-0.2-0.3-0.2c-0.3,0-0.5,0.1-0.8,0.4v4.9H196.8z"/>
		<path fill="#FFFFFF" d="M201.7,119.5v-1.2h1.2v1.2H201.7z M201.7,126.7v-6.2h1.2v6.2H201.7z"/>
		<path fill="#FFFFFF" d="M205.7,126.8c-0.3,0-0.6-0.1-0.8-0.2c-0.2-0.1-0.4-0.2-0.5-0.4c-0.1-0.2-0.2-0.4-0.3-0.6
			c-0.1-0.3-0.1-0.5-0.2-0.8c0-0.3,0-0.5-0.1-0.9c0-0.3,0-0.5,0-0.8c0-0.3,0-0.6,0.1-0.9c0-0.3,0.1-0.5,0.2-0.8s0.2-0.5,0.3-0.6
			s0.3-0.3,0.5-0.4c0.2-0.1,0.5-0.2,0.8-0.2c0.7,0,1.1,0.2,1.4,0.5c0.3,0.4,0.4,0.9,0.5,1.6v0.2h-1.2v-0.2c0-0.2,0-0.3,0-0.4
			c0-0.1,0-0.2-0.1-0.4c0-0.1-0.1-0.2-0.2-0.3c-0.1-0.1-0.2-0.1-0.3-0.1c-0.1,0-0.2,0-0.3,0.1c-0.1,0.1-0.1,0.2-0.2,0.3
			s-0.1,0.3-0.1,0.4s0,0.3,0,0.5c0,0.4,0,1,0,1.8c0,0.2,0,0.3,0,0.5s0.1,0.3,0.1,0.4s0.1,0.2,0.2,0.3c0.1,0.1,0.2,0.1,0.3,0.1
			c0.1,0,0.2,0,0.3-0.1c0.1,0,0.1-0.1,0.2-0.2c0-0.1,0.1-0.1,0.1-0.2s0-0.2,0-0.3c0-0.1,0-0.2,0-0.3v-0.2h1.2v0.2
			c0,0.3-0.1,0.6-0.1,0.9c-0.1,0.3-0.2,0.5-0.3,0.7c-0.1,0.2-0.3,0.3-0.6,0.4S206,126.8,205.7,126.8z"/>
		<path fill="#FFFFFF" d="M208.4,126.7v-8.8h1.2v3.2c0.2-0.2,0.3-0.3,0.5-0.4s0.3-0.2,0.5-0.3c0.2-0.1,0.4-0.1,0.7-0.1
			c0.3,0,0.5,0.1,0.6,0.3s0.2,0.4,0.2,0.7v5.3h-1.2V122c0-0.2,0-0.4-0.1-0.5s-0.2-0.2-0.3-0.2c-0.3,0-0.5,0.1-0.8,0.4v4.9H208.4z"/>
		<path fill="#FFFFFF" d="M215.9,126.7l-1.2-6.2h1.1l0.7,4.7l0.7-4.7h1.1l0.7,4.7l0.7-4.7h1.1l-1.2,6.2h-1.2l-0.7-4.3l-0.7,4.3
			H215.9z"/>
		<path fill="#FFFFFF" d="M223.2,126.8c-0.3,0-0.6-0.1-0.8-0.2c-0.2-0.1-0.4-0.2-0.5-0.4s-0.2-0.4-0.3-0.6c-0.1-0.3-0.1-0.5-0.2-0.8
			c0-0.3,0-0.6-0.1-0.9c0-0.3,0-0.5,0-0.8c0-0.3,0-0.6,0.1-0.9s0.1-0.5,0.2-0.7c0.1-0.2,0.2-0.4,0.3-0.6c0.1-0.2,0.3-0.3,0.5-0.4
			s0.5-0.1,0.8-0.1c0.3,0,0.5,0,0.7,0.1c0.2,0.1,0.4,0.2,0.5,0.3c0.1,0.1,0.2,0.3,0.3,0.5c0.1,0.2,0.2,0.4,0.2,0.6
			c0,0.2,0.1,0.5,0.1,0.7c0,0.2,0,0.5,0,0.8v0.1h-2.5v0.3c0,0,0,0.1,0,0.2c0,0.1,0,0.2,0,0.4s0,0.3,0,0.4c0,0.1,0,0.2,0.1,0.4
			s0.1,0.2,0.1,0.3c0,0.1,0.1,0.2,0.2,0.2c0.1,0,0.2,0.1,0.3,0.1c0.1,0,0.2,0,0.3-0.1c0.1-0.1,0.1-0.1,0.2-0.2
			c0-0.1,0.1-0.2,0.1-0.3c0-0.1,0-0.2,0-0.4v-0.3h1.2v0.2c0,0.7-0.2,1.2-0.5,1.5C224.2,126.6,223.8,126.8,223.2,126.8z M222.6,122.9
			h1.2v-0.4c0-0.2,0-0.3,0-0.4c0-0.1,0-0.2-0.1-0.4c0-0.1-0.1-0.2-0.2-0.3c-0.1-0.1-0.2-0.1-0.3-0.1c-0.1,0-0.2,0-0.3,0.1
			c-0.1,0.1-0.1,0.2-0.2,0.3c0,0.1-0.1,0.3-0.1,0.4c0,0.1,0,0.3,0,0.4V122.9z"/>
		<path fill="#FFFFFF" d="M226,126.7v-6.2h1.2v0.8c0.1-0.2,0.3-0.5,0.6-0.6c0.2-0.2,0.5-0.3,0.8-0.3c0,0,0.1,0,0.2,0v1.4
			c-0.2-0.1-0.5-0.1-0.7-0.1c-0.3,0-0.5,0.1-0.6,0.2c-0.2,0.2-0.2,0.4-0.2,0.6v4.2H226z"/>
		<path fill="#FFFFFF" d="M231.1,126.8c-0.3,0-0.6-0.1-0.8-0.2c-0.2-0.1-0.4-0.2-0.5-0.4s-0.2-0.4-0.3-0.6c-0.1-0.3-0.1-0.5-0.2-0.8
			c0-0.3,0-0.6-0.1-0.9c0-0.3,0-0.5,0-0.8c0-0.3,0-0.6,0.1-0.9s0.1-0.5,0.2-0.7c0.1-0.2,0.2-0.4,0.3-0.6c0.1-0.2,0.3-0.3,0.5-0.4
			s0.5-0.1,0.8-0.1c0.3,0,0.5,0,0.7,0.1c0.2,0.1,0.4,0.2,0.5,0.3c0.1,0.1,0.2,0.3,0.3,0.5c0.1,0.2,0.2,0.4,0.2,0.6
			c0,0.2,0.1,0.5,0.1,0.7c0,0.2,0,0.5,0,0.8v0.1h-2.5v0.3c0,0,0,0.1,0,0.2c0,0.1,0,0.2,0,0.4s0,0.3,0,0.4c0,0.1,0,0.2,0.1,0.4
			s0.1,0.2,0.1,0.3c0,0.1,0.1,0.2,0.2,0.2c0.1,0,0.2,0.1,0.3,0.1c0.1,0,0.2,0,0.3-0.1c0.1-0.1,0.1-0.1,0.2-0.2
			c0-0.1,0.1-0.2,0.1-0.3c0-0.1,0-0.2,0-0.4v-0.3h1.2v0.2c0,0.7-0.2,1.2-0.5,1.5C232.1,126.6,231.7,126.8,231.1,126.8z M230.4,122.9
			h1.2v-0.4c0-0.2,0-0.3,0-0.4c0-0.1,0-0.2-0.1-0.4c0-0.1-0.1-0.2-0.2-0.3c-0.1-0.1-0.2-0.1-0.3-0.1c-0.1,0-0.2,0-0.3,0.1
			c-0.1,0.1-0.1,0.2-0.2,0.3c0,0.1-0.1,0.3-0.1,0.4c0,0.1,0,0.3,0,0.4V122.9z"/>
		<path fill="#FFFFFF" d="M235.9,126.7v-6.2h1.2v0.8c0.1-0.2,0.3-0.5,0.6-0.6c0.2-0.2,0.5-0.3,0.8-0.3c0,0,0.1,0,0.2,0v1.4
			c-0.2-0.1-0.5-0.1-0.7-0.1c-0.3,0-0.5,0.1-0.6,0.2c-0.2,0.2-0.2,0.4-0.2,0.6v4.2H235.9z"/>
		<path fill="#FFFFFF" d="M241,126.8c-0.3,0-0.6-0.1-0.8-0.2c-0.2-0.1-0.4-0.2-0.5-0.4s-0.2-0.4-0.3-0.6c-0.1-0.3-0.1-0.5-0.2-0.8
			c0-0.3,0-0.6-0.1-0.9c0-0.3,0-0.5,0-0.8c0-0.3,0-0.6,0.1-0.9s0.1-0.5,0.2-0.7c0.1-0.2,0.2-0.4,0.3-0.6c0.1-0.2,0.3-0.3,0.5-0.4
			s0.5-0.1,0.8-0.1c0.3,0,0.5,0,0.7,0.1c0.2,0.1,0.4,0.2,0.5,0.3c0.1,0.1,0.2,0.3,0.3,0.5c0.1,0.2,0.2,0.4,0.2,0.6
			c0,0.2,0.1,0.5,0.1,0.7c0,0.2,0,0.5,0,0.8v0.1h-2.5v0.3c0,0,0,0.1,0,0.2c0,0.1,0,0.2,0,0.4s0,0.3,0,0.4c0,0.1,0,0.2,0.1,0.4
			s0.1,0.2,0.1,0.3c0,0.1,0.1,0.2,0.2,0.2c0.1,0,0.2,0.1,0.3,0.1c0.1,0,0.2,0,0.3-0.1c0.1-0.1,0.1-0.1,0.2-0.2
			c0-0.1,0.1-0.2,0.1-0.3c0-0.1,0-0.2,0-0.4v-0.3h1.2v0.2c0,0.7-0.2,1.2-0.5,1.5C242.1,126.6,241.6,126.8,241,126.8z M240.4,122.9
			h1.2v-0.4c0-0.2,0-0.3,0-0.4c0-0.1,0-0.2-0.1-0.4c0-0.1-0.1-0.2-0.2-0.3c-0.1-0.1-0.2-0.1-0.3-0.1c-0.1,0-0.2,0-0.3,0.1
			c-0.1,0.1-0.1,0.2-0.2,0.3c0,0.1-0.1,0.3-0.1,0.4c0,0.1,0,0.3,0,0.4V122.9z"/>
		<path fill="#FFFFFF" d="M245.3,126.8c-0.3,0-0.6-0.1-0.8-0.2c-0.2-0.1-0.4-0.2-0.5-0.4c-0.1-0.2-0.2-0.4-0.3-0.6
			c-0.1-0.3-0.1-0.5-0.2-0.8c0-0.3,0-0.5-0.1-0.9c0-0.3,0-0.5,0-0.8c0-0.3,0-0.6,0.1-0.9c0-0.3,0.1-0.5,0.2-0.8s0.2-0.5,0.3-0.6
			s0.3-0.3,0.5-0.4c0.2-0.1,0.5-0.2,0.8-0.2c0.7,0,1.1,0.2,1.4,0.5c0.3,0.4,0.4,0.9,0.5,1.6v0.2H246v-0.2c0-0.2,0-0.3,0-0.4
			c0-0.1,0-0.2-0.1-0.4c0-0.1-0.1-0.2-0.2-0.3c-0.1-0.1-0.2-0.1-0.3-0.1c-0.1,0-0.2,0-0.3,0.1c-0.1,0.1-0.1,0.2-0.2,0.3
			s-0.1,0.3-0.1,0.4s0,0.3,0,0.5c0,0.4,0,1,0,1.8c0,0.2,0,0.3,0,0.5s0.1,0.3,0.1,0.4s0.1,0.2,0.2,0.3c0.1,0.1,0.2,0.1,0.3,0.1
			c0.1,0,0.2,0,0.3-0.1c0.1,0,0.1-0.1,0.2-0.2c0-0.1,0.1-0.1,0.1-0.2s0-0.2,0-0.3c0-0.1,0-0.2,0-0.3v-0.2h1.2v0.2
			c0,0.3-0.1,0.6-0.1,0.9c-0.1,0.3-0.2,0.5-0.3,0.7c-0.1,0.2-0.3,0.3-0.6,0.4S245.7,126.8,245.3,126.8z"/>
		<path fill="#FFFFFF" d="M251.2,126.2c-0.3,0.4-0.8,0.6-1.4,0.6c-0.7,0-1.2-0.2-1.4-0.6c-0.3-0.4-0.4-1-0.4-1.7v-1.9
			c0-0.7,0.1-1.3,0.4-1.7c0.3-0.4,0.8-0.6,1.4-0.6c0.7,0,1.2,0.2,1.4,0.6c0.3,0.4,0.4,1,0.4,1.7v1.9
			C251.6,125.2,251.5,125.8,251.2,126.2z M249.5,125.7c0.1,0,0.1,0,0.2,0s0.2,0,0.2,0c0.1,0,0.1-0.1,0.2-0.1s0.1-0.1,0.1-0.2
			s0.1-0.1,0.1-0.2c0-0.1,0-0.1,0-0.2c0-0.1,0-0.2,0-0.2c0-0.1,0-0.2,0-0.3v-1.9c0-0.1,0-0.2,0-0.3c0-0.1,0-0.1,0-0.2
			c0-0.1,0-0.2,0-0.2c0-0.1,0-0.1-0.1-0.2s-0.1-0.1-0.1-0.2s-0.1-0.1-0.2-0.1c-0.1,0-0.1,0-0.2,0s-0.2,0-0.2,0
			c-0.1,0-0.1,0.1-0.2,0.1s-0.1,0.1-0.1,0.2s-0.1,0.1-0.1,0.2c0,0.1,0,0.1,0,0.2c0,0.1,0,0.2,0,0.2c0,0.1,0,0.2,0,0.3v1.9
			c0,0.1,0,0.2,0,0.3c0,0.1,0,0.1,0,0.2c0,0.1,0,0.2,0,0.2c0,0.1,0,0.1,0.1,0.2s0.1,0.1,0.1,0.2S249.4,125.7,249.5,125.7z"/>
		<path fill="#FFFFFF" d="M253.6,126.7l-1.4-6.2h1.2l0.9,4.7l0.8-4.7h1.2l-1.4,6.2H253.6z"/>
		<path fill="#FFFFFF" d="M258.6,126.8c-0.3,0-0.6-0.1-0.8-0.2c-0.2-0.1-0.4-0.2-0.5-0.4s-0.2-0.4-0.3-0.6c-0.1-0.3-0.1-0.5-0.2-0.8
			c0-0.3,0-0.6-0.1-0.9c0-0.3,0-0.5,0-0.8c0-0.3,0-0.6,0.1-0.9s0.1-0.5,0.2-0.7c0.1-0.2,0.2-0.4,0.3-0.6c0.1-0.2,0.3-0.3,0.5-0.4
			s0.5-0.1,0.8-0.1c0.3,0,0.5,0,0.7,0.1c0.2,0.1,0.4,0.2,0.5,0.3c0.1,0.1,0.2,0.3,0.3,0.5c0.1,0.2,0.2,0.4,0.2,0.6
			c0,0.2,0.1,0.5,0.1,0.7c0,0.2,0,0.5,0,0.8v0.1H258v0.3c0,0,0,0.1,0,0.2c0,0.1,0,0.2,0,0.4s0,0.3,0,0.4c0,0.1,0,0.2,0.1,0.4
			s0.1,0.2,0.1,0.3c0,0.1,0.1,0.2,0.2,0.2c0.1,0,0.2,0.1,0.3,0.1c0.1,0,0.2,0,0.3-0.1c0.1-0.1,0.1-0.1,0.2-0.2
			c0-0.1,0.1-0.2,0.1-0.3c0-0.1,0-0.2,0-0.4v-0.3h1.2v0.2c0,0.7-0.2,1.2-0.5,1.5C259.7,126.6,259.2,126.8,258.6,126.8z M258,122.9
			h1.2v-0.4c0-0.2,0-0.3,0-0.4c0-0.1,0-0.2-0.1-0.4c0-0.1-0.1-0.2-0.2-0.3c-0.1-0.1-0.2-0.1-0.3-0.1c-0.1,0-0.2,0-0.3,0.1
			c-0.1,0.1-0.1,0.2-0.2,0.3c0,0.1-0.1,0.3-0.1,0.4c0,0.1,0,0.3,0,0.4V122.9z"/>
		<path fill="#FFFFFF" d="M261.4,126.7v-6.2h1.2v0.8c0.1-0.2,0.3-0.5,0.6-0.6c0.2-0.2,0.5-0.3,0.8-0.3c0,0,0.1,0,0.2,0v1.4
			c-0.2-0.1-0.5-0.1-0.7-0.1c-0.3,0-0.5,0.1-0.6,0.2c-0.2,0.2-0.2,0.4-0.2,0.6v4.2H261.4z"/>
		<path fill="#FFFFFF" d="M264.2,124.5v-0.9h1.9v0.9H264.2z"/>
		<path fill="#FFFFFF" d="M133.2,131.5v-1.2h1.2v1.2H133.2z M133.2,138.7v-6.2h1.2v6.2H133.2z"/>
		<path fill="#FFFFFF" d="M135.7,138.7v-6.2h1.2v0.7c0.2-0.2,0.3-0.3,0.5-0.4s0.3-0.2,0.5-0.3s0.4-0.1,0.7-0.1
			c0.3,0,0.5,0.1,0.6,0.3s0.2,0.4,0.2,0.7v5.3h-1.2V134c0-0.2,0-0.4-0.1-0.5s-0.2-0.1-0.4-0.1c-0.1,0-0.2,0-0.3,0.1
			s-0.2,0.1-0.2,0.1s-0.1,0.1-0.2,0.2v4.9H135.7z"/>
		<path fill="#FFFFFF" d="M142.5,140.6c-0.2,0-0.3,0-0.4,0s-0.2,0-0.4,0s-0.3,0-0.4,0s-0.2,0-0.4-0.1s-0.3-0.1-0.4-0.1
			s-0.2-0.1-0.3-0.2s-0.2-0.1-0.2-0.2s-0.1-0.2-0.1-0.3c0-0.3,0.1-0.6,0.3-0.8s0.4-0.4,0.7-0.6c-0.2,0-0.3-0.1-0.4-0.2
			s-0.2-0.2-0.2-0.3c0-0.1,0-0.1,0-0.2s0-0.1,0-0.2s0-0.1,0.1-0.2s0.1-0.1,0.1-0.2s0.1-0.1,0.1-0.2s0.1-0.1,0.1-0.1s0.1-0.1,0.1-0.1
			s0.1-0.1,0.1-0.1c-0.4-0.5-0.6-1.1-0.6-1.9c0-0.4,0.1-0.8,0.2-1.2s0.3-0.6,0.6-0.8s0.6-0.3,1-0.3c0.2,0,0.4,0,0.6,0.1
			s0.3,0.1,0.4,0.2s0.2,0.2,0.3,0.4c0.2-0.5,0.6-0.7,1.1-0.7c0,0,0,0,0,0s0,0,0,0s0,0,0,0v1c0,0,0,0-0.1,0c-0.1,0-0.2,0-0.3,0
			s-0.2,0-0.2,0s-0.2,0.1-0.2,0.1c0.1,0.1,0.1,0.3,0.2,0.5s0.1,0.4,0.1,0.6c0,0.4-0.1,0.8-0.2,1.2s-0.3,0.6-0.6,0.8s-0.6,0.3-1,0.3
			l-0.6-0.1c0,0,0,0,0,0.1s0,0.1-0.1,0.1s0,0.1,0,0.1s0,0.1,0,0.1c0,0.1,0,0.2,0.1,0.2s0.2,0.1,0.3,0.1s0.3,0,0.4,0.1s0.3,0,0.4,0
			s0.3,0,0.3,0c0.2,0,0.4,0.1,0.5,0.1s0.3,0.1,0.4,0.1s0.3,0.1,0.4,0.2s0.2,0.2,0.2,0.4s0.1,0.3,0.1,0.5c0,0.2,0,0.4-0.1,0.6
			s-0.2,0.3-0.3,0.4s-0.3,0.2-0.5,0.3s-0.4,0.1-0.6,0.2S142.7,140.6,142.5,140.6z M142.5,139.6c0.1,0,0.2,0,0.2,0s0.2,0,0.2,0
			s0.2,0,0.2,0s0.1,0,0.2-0.1s0.1-0.1,0.1-0.1s0-0.1,0-0.2c0-0.3-0.3-0.6-1-0.6l-1-0.1c-0.1,0.1-0.2,0.2-0.3,0.4s-0.1,0.4-0.1,0.5
			c0,0.1,0,0.1,0.1,0.1s0.1,0.1,0.2,0.1s0.1,0,0.2,0s0.2,0,0.3,0s0.2,0,0.3,0s0.2,0,0.3,0S142.5,139.6,142.5,139.6z M142.2,136
			c0.5,0,0.8-0.4,0.8-1.3c0-0.2,0-0.3,0-0.5s-0.1-0.3-0.1-0.4s-0.1-0.3-0.2-0.3s-0.2-0.1-0.4-0.1c-0.2,0-0.3,0-0.4,0.1
			s-0.2,0.2-0.2,0.3s-0.1,0.3-0.1,0.4s0,0.3,0,0.5C141.4,135.5,141.7,136,142.2,136z"/>
		<path fill="#FFFFFF" d="M147.4,138.7v-5.3h-0.6v-0.9h0.6v-0.2c0-0.3,0-0.5,0-0.7s0.1-0.4,0.1-0.5c0.1-0.2,0.1-0.3,0.2-0.4
			s0.2-0.2,0.4-0.2s0.4-0.1,0.6-0.1c0.2,0,0.5,0,0.8,0.1v0.9c0,0-0.1,0-0.2,0c-0.1,0-0.2,0-0.2,0c-0.2,0-0.3,0.1-0.4,0.2
			s-0.1,0.3-0.1,0.6v0.5h0.9v0.9h-0.9v5.3H147.4z"/>
		<path fill="#FFFFFF" d="M150.2,138.7v-6.2h1.2v0.8c0.1-0.2,0.3-0.5,0.6-0.6c0.2-0.2,0.5-0.3,0.8-0.3c0,0,0.1,0,0.2,0v1.4
			c-0.2-0.1-0.5-0.1-0.7-0.1c-0.3,0-0.5,0.1-0.6,0.2c-0.2,0.2-0.2,0.4-0.2,0.6v4.2H150.2z"/>
		<path fill="#FFFFFF" d="M156.7,138.2c-0.3,0.4-0.8,0.6-1.4,0.6c-0.7,0-1.2-0.2-1.4-0.6c-0.3-0.4-0.4-1-0.4-1.7v-1.9
			c0-0.7,0.1-1.3,0.4-1.7c0.3-0.4,0.8-0.6,1.4-0.6c0.7,0,1.2,0.2,1.4,0.6c0.3,0.4,0.4,1,0.4,1.7v1.9
			C157.1,137.2,157,137.8,156.7,138.2z M155,137.7c0.1,0,0.1,0,0.2,0s0.2,0,0.2,0c0.1,0,0.1-0.1,0.2-0.1s0.1-0.1,0.1-0.2
			s0.1-0.1,0.1-0.2c0-0.1,0-0.1,0-0.2c0-0.1,0-0.2,0-0.2c0-0.1,0-0.2,0-0.3v-1.9c0-0.1,0-0.2,0-0.3c0-0.1,0-0.1,0-0.2
			c0-0.1,0-0.2,0-0.2c0-0.1,0-0.1-0.1-0.2s-0.1-0.1-0.1-0.2s-0.1-0.1-0.2-0.1c-0.1,0-0.1,0-0.2,0s-0.2,0-0.2,0
			c-0.1,0-0.1,0.1-0.2,0.1s-0.1,0.1-0.1,0.2s-0.1,0.1-0.1,0.2c0,0.1,0,0.1,0,0.2c0,0.1,0,0.2,0,0.2c0,0.1,0,0.2,0,0.3v1.9
			c0,0.1,0,0.2,0,0.3c0,0.1,0,0.1,0,0.2c0,0.1,0,0.2,0,0.2c0,0.1,0,0.1,0.1,0.2s0.1,0.1,0.1,0.2S155,137.7,155,137.7z"/>
		<path fill="#FFFFFF" d="M158.2,138.7v-6.2h1.2v0.7c0.4-0.5,1-0.8,1.6-0.8c0.3,0,0.5,0.1,0.7,0.2c0.1,0.1,0.2,0.3,0.3,0.6
			c0.2-0.3,0.4-0.5,0.7-0.6c0.2-0.1,0.5-0.2,0.9-0.2c0.1,0,0.2,0,0.3,0s0.2,0,0.2,0.1c0.1,0,0.1,0.1,0.2,0.1c0,0.1,0.1,0.1,0.1,0.2
			c0,0.1,0.1,0.1,0.1,0.2c0,0.1,0,0.2,0,0.2s0,0.2,0,0.3c0,0.1,0,0.2,0,0.3s0,0.2,0,0.3c0,0,0,0.1,0,0.1v4.5h-1.2v-4.6
			c0,0,0,0,0-0.1c0-0.1,0-0.2,0-0.2c0-0.1,0-0.1,0-0.2c0-0.1,0-0.1-0.1-0.2c0,0-0.1-0.1-0.2-0.1c-0.1,0-0.3,0-0.4,0.1
			s-0.2,0.1-0.3,0.1c-0.1,0-0.2,0.1-0.3,0.2v4.9h-1.2v-4.5c0,0,0,0,0-0.1c0-0.1,0-0.2,0-0.2s0-0.1,0-0.2c0-0.1,0-0.1,0-0.2
			s-0.1-0.1-0.1-0.1c0,0-0.1,0-0.2,0c-0.3,0-0.6,0.1-0.9,0.4v4.9H158.2z"/>
		<path fill="#FFFFFF" d="M168.6,138.8c-0.3,0-0.6-0.2-0.9-0.5c-0.2-0.3-0.4-0.6-0.4-1c0-0.3,0.1-0.6,0.2-0.8s0.2-0.4,0.3-0.6
			c0.1-0.1,0.3-0.3,0.6-0.5c0.3-0.2,0.5-0.3,0.6-0.3s0.4-0.2,0.7-0.3c0.1,0,0.1,0,0.1-0.1v-0.4c0-0.3,0-0.6-0.1-0.7
			s-0.3-0.3-0.5-0.3c-0.2,0-0.4,0.1-0.5,0.2s-0.1,0.4-0.2,0.6c0,0,0,0.1,0,0.2h-1.2c0-0.6,0.2-1.1,0.5-1.4c0.3-0.4,0.8-0.5,1.4-0.5
			c0.6,0,1,0.2,1.4,0.5c0.3,0.4,0.5,0.8,0.5,1.4v2.8c0,0.7,0.1,1.2,0.2,1.6H170l-0.2-0.9c-0.1,0.1-0.1,0.2-0.2,0.3
			c0,0.1-0.1,0.2-0.2,0.3s-0.2,0.2-0.2,0.2s-0.2,0.1-0.3,0.1S168.8,138.8,168.6,138.8z M169.2,137.7c0.1,0,0.2,0,0.3-0.1
			s0.1-0.1,0.2-0.2c0,0,0.1-0.1,0.2-0.2c0,0,0,0,0,0v-1.7c-0.1,0-0.1,0.1-0.3,0.2c-0.1,0.1-0.2,0.1-0.3,0.2c-0.1,0-0.2,0.1-0.3,0.2
			c-0.1,0.1-0.2,0.2-0.2,0.2c-0.1,0.1-0.1,0.2-0.1,0.3c0,0.1-0.1,0.2-0.1,0.3C168.6,137.5,168.8,137.7,169.2,137.7z"/>
		<path fill="#FFFFFF" d="M172.2,138.7v-6.2h1.2v0.7c0.2-0.2,0.3-0.3,0.5-0.4s0.3-0.2,0.5-0.3c0.2-0.1,0.4-0.1,0.7-0.1
			c0.3,0,0.5,0.1,0.6,0.3s0.2,0.4,0.2,0.7v5.3h-1.2V134c0-0.2,0-0.4-0.1-0.5c-0.1-0.1-0.2-0.1-0.4-0.1c-0.1,0-0.2,0-0.3,0.1
			c-0.1,0-0.2,0.1-0.2,0.1c-0.1,0-0.1,0.1-0.2,0.2v4.9H172.2z"/>
		<path fill="#FFFFFF" d="M179.1,131.5v-1.2h1.2v1.2H179.1z M179.1,138.7v-6.2h1.2v6.2H179.1z"/>
		<path fill="#FFFFFF" d="M181.6,138.7v-8.8h1.2v8.8H181.6z"/>
		<path fill="#FFFFFF" d="M183.9,138.7v-8.8h1.2v8.8H183.9z"/>
		<path fill="#FFFFFF" d="M186.3,138.7v-6.2h1.2v0.7c0.2-0.2,0.3-0.3,0.5-0.4s0.3-0.2,0.5-0.3c0.2-0.1,0.4-0.1,0.7-0.1
			c0.3,0,0.5,0.1,0.6,0.3s0.2,0.4,0.2,0.7v5.3h-1.2V134c0-0.2,0-0.4-0.1-0.5c-0.1-0.1-0.2-0.1-0.4-0.1c-0.1,0-0.2,0-0.3,0.1
			c-0.1,0-0.2,0.1-0.2,0.1c-0.1,0-0.1,0.1-0.2,0.2v4.9H186.3z"/>
		<path fill="#FFFFFF" d="M192.9,138.8c-0.3,0-0.6-0.1-0.8-0.2c-0.2-0.1-0.4-0.2-0.5-0.4s-0.2-0.4-0.3-0.6c-0.1-0.3-0.1-0.5-0.2-0.8
			c0-0.3,0-0.6-0.1-0.9c0-0.3,0-0.5,0-0.8c0-0.3,0-0.6,0.1-0.9s0.1-0.5,0.2-0.7c0.1-0.2,0.2-0.4,0.3-0.6c0.1-0.2,0.3-0.3,0.5-0.4
			s0.5-0.1,0.8-0.1c0.3,0,0.5,0,0.7,0.1c0.2,0.1,0.4,0.2,0.5,0.3c0.1,0.1,0.2,0.3,0.3,0.5c0.1,0.2,0.2,0.4,0.2,0.6
			c0,0.2,0.1,0.5,0.1,0.7c0,0.2,0,0.5,0,0.8v0.1h-2.5v0.3c0,0,0,0.1,0,0.2c0,0.1,0,0.2,0,0.4s0,0.3,0,0.4c0,0.1,0,0.2,0.1,0.4
			s0.1,0.2,0.1,0.3c0,0.1,0.1,0.2,0.2,0.2c0.1,0,0.2,0.1,0.3,0.1c0.1,0,0.2,0,0.3-0.1c0.1-0.1,0.1-0.1,0.2-0.2
			c0-0.1,0.1-0.2,0.1-0.3c0-0.1,0-0.2,0-0.4v-0.3h1.2v0.2c0,0.7-0.2,1.2-0.5,1.5C194,138.6,193.5,138.8,192.9,138.8z M192.3,134.9
			h1.2v-0.4c0-0.2,0-0.3,0-0.4c0-0.1,0-0.2-0.1-0.4c0-0.1-0.1-0.2-0.2-0.3c-0.1-0.1-0.2-0.1-0.3-0.1c-0.1,0-0.2,0-0.3,0.1
			c-0.1,0.1-0.1,0.2-0.2,0.3c0,0.1-0.1,0.3-0.1,0.4c0,0.1,0,0.3,0,0.4V134.9z"/>
		<path fill="#FFFFFF" d="M197.4,138.8c-0.5,0-0.9-0.2-1.2-0.5c-0.3-0.3-0.5-0.7-0.6-1.2l0.9-0.3c0.2,0.6,0.5,0.9,0.9,0.9
			c0.2,0,0.4-0.1,0.5-0.2c0.1-0.1,0.2-0.3,0.2-0.5c0-0.3-0.1-0.5-0.3-0.7l-1.2-0.9c-0.1-0.1-0.3-0.2-0.4-0.3
			c-0.1-0.1-0.2-0.2-0.3-0.3s-0.2-0.3-0.2-0.4c0-0.1-0.1-0.3-0.1-0.5c0-0.5,0.2-0.9,0.5-1.2c0.3-0.3,0.8-0.4,1.4-0.4
			c0.3,0,0.5,0,0.7,0.1c0.2,0.1,0.4,0.2,0.5,0.4c0.1,0.2,0.3,0.3,0.4,0.5c0.1,0.2,0.2,0.4,0.2,0.6l-0.9,0.3c0-0.1-0.1-0.2-0.1-0.3
			c0-0.1-0.1-0.2-0.2-0.3c-0.1-0.1-0.2-0.2-0.3-0.2c-0.1-0.1-0.2-0.1-0.3-0.1c-0.2,0-0.4,0.1-0.5,0.2c-0.1,0.1-0.2,0.3-0.2,0.5
			c0,0.2,0.1,0.4,0.3,0.5l1.2,0.9c0.1,0.1,0.3,0.2,0.4,0.3c0.1,0.1,0.2,0.2,0.3,0.4c0.1,0.1,0.2,0.3,0.2,0.5s0.1,0.3,0.1,0.5
			c0,0.5-0.2,0.9-0.5,1.2C198.4,138.6,197.9,138.8,197.4,138.8z"/>
		<path fill="#FFFFFF" d="M201.6,138.8c-0.5,0-0.9-0.2-1.2-0.5c-0.3-0.3-0.5-0.7-0.6-1.2l0.9-0.3c0.2,0.6,0.5,0.9,0.9,0.9
			c0.2,0,0.4-0.1,0.5-0.2c0.1-0.1,0.2-0.3,0.2-0.5c0-0.3-0.1-0.5-0.3-0.7l-1.2-0.9c-0.1-0.1-0.3-0.2-0.4-0.3
			c-0.1-0.1-0.2-0.2-0.3-0.3s-0.2-0.3-0.2-0.4c0-0.1-0.1-0.3-0.1-0.5c0-0.5,0.2-0.9,0.5-1.2c0.3-0.3,0.8-0.4,1.4-0.4
			c0.3,0,0.5,0,0.7,0.1c0.2,0.1,0.4,0.2,0.5,0.4c0.1,0.2,0.3,0.3,0.4,0.5c0.1,0.2,0.2,0.4,0.2,0.6l-0.9,0.3c0-0.1-0.1-0.2-0.1-0.3
			c0-0.1-0.1-0.2-0.2-0.3c-0.1-0.1-0.2-0.2-0.3-0.2c-0.1-0.1-0.2-0.1-0.3-0.1c-0.2,0-0.4,0.1-0.5,0.2c-0.1,0.1-0.2,0.3-0.2,0.5
			c0,0.2,0.1,0.4,0.3,0.5l1.2,0.9c0.1,0.1,0.3,0.2,0.4,0.3c0.1,0.1,0.2,0.2,0.3,0.4c0.1,0.1,0.2,0.3,0.2,0.5s0.1,0.3,0.1,0.5
			c0,0.5-0.2,0.9-0.5,1.2C202.7,138.6,202.2,138.8,201.6,138.8z"/>
		<path fill="#FFFFFF" d="M206.3,131.5v-1.2h1.2v1.2H206.3z M206.3,138.7v-6.2h1.2v6.2H206.3z"/>
		<path fill="#FFFFFF" d="M208.8,138.7v-6.2h1.2v0.7c0.2-0.2,0.3-0.3,0.5-0.4s0.3-0.2,0.5-0.3c0.2-0.1,0.4-0.1,0.7-0.1
			c0.3,0,0.5,0.1,0.6,0.3s0.2,0.4,0.2,0.7v5.3h-1.2V134c0-0.2,0-0.4-0.1-0.5c-0.1-0.1-0.2-0.1-0.4-0.1c-0.1,0-0.2,0-0.3,0.1
			c-0.1,0-0.2,0.1-0.2,0.1c-0.1,0-0.1,0.1-0.2,0.2v4.9H208.8z"/>
		<path fill="#FFFFFF" d="M217.4,138.8c-0.5,0-0.8-0.1-1.1-0.4c-0.2-0.3-0.3-0.6-0.3-1.1v-3.9h-0.6v-0.9h0.6v-2.2h1.2v2.2h0.9v0.9
			h-0.9v3.6c0,0.3,0,0.4,0.1,0.6s0.2,0.2,0.4,0.2c0.1,0,0.2,0,0.4,0v1C217.9,138.8,217.6,138.8,217.4,138.8z"/>
		<path fill="#FFFFFF" d="M219.1,138.7v-8.8h1.2v3.2c0.2-0.2,0.3-0.3,0.5-0.4s0.3-0.2,0.5-0.3c0.2-0.1,0.4-0.1,0.7-0.1
			c0.3,0,0.5,0.1,0.6,0.3s0.2,0.4,0.2,0.7v5.3h-1.2V134c0-0.2,0-0.4-0.1-0.5s-0.2-0.2-0.3-0.2c-0.3,0-0.5,0.1-0.8,0.4v4.9H219.1z"/>
		<path fill="#FFFFFF" d="M225.7,138.8c-0.3,0-0.6-0.1-0.8-0.2c-0.2-0.1-0.4-0.2-0.5-0.4s-0.2-0.4-0.3-0.6c-0.1-0.3-0.1-0.5-0.2-0.8
			c0-0.3,0-0.6-0.1-0.9c0-0.3,0-0.5,0-0.8c0-0.3,0-0.6,0.1-0.9s0.1-0.5,0.2-0.7c0.1-0.2,0.2-0.4,0.3-0.6c0.1-0.2,0.3-0.3,0.5-0.4
			s0.5-0.1,0.8-0.1c0.3,0,0.5,0,0.7,0.1c0.2,0.1,0.4,0.2,0.5,0.3c0.1,0.1,0.2,0.3,0.3,0.5c0.1,0.2,0.2,0.4,0.2,0.6
			c0,0.2,0.1,0.5,0.1,0.7c0,0.2,0,0.5,0,0.8v0.1h-2.5v0.3c0,0,0,0.1,0,0.2c0,0.1,0,0.2,0,0.4s0,0.3,0,0.4c0,0.1,0,0.2,0.1,0.4
			s0.1,0.2,0.1,0.3c0,0.1,0.1,0.2,0.2,0.2c0.1,0,0.2,0.1,0.3,0.1c0.1,0,0.2,0,0.3-0.1c0.1-0.1,0.1-0.1,0.2-0.2
			c0-0.1,0.1-0.2,0.1-0.3c0-0.1,0-0.2,0-0.4v-0.3h1.2v0.2c0,0.7-0.2,1.2-0.5,1.5C226.8,138.6,226.3,138.8,225.7,138.8z M225.1,134.9
			h1.2v-0.4c0-0.2,0-0.3,0-0.4c0-0.1,0-0.2-0.1-0.4c0-0.1-0.1-0.2-0.2-0.3c-0.1-0.1-0.2-0.1-0.3-0.1c-0.1,0-0.2,0-0.3,0.1
			c-0.1,0.1-0.1,0.2-0.2,0.3c0,0.1-0.1,0.3-0.1,0.4c0,0.1,0,0.3,0,0.4V134.9z"/>
		<path fill="#FFFFFF" d="M230,138.7l1.9-8.8h1.2l1.9,8.8h-1.2l-0.5-2.2h-1.6l-0.5,2.2H230z M231.9,135.6h1.2l-0.6-3.8L231.9,135.6z
			"/>
		<path fill="#FFFFFF" d="M237.1,138.8c-0.3,0-0.5-0.1-0.7-0.2c-0.2-0.2-0.4-0.4-0.5-0.6s-0.2-0.5-0.3-0.8c-0.1-0.3-0.1-0.6-0.1-0.9
			c0-0.2,0-0.5,0-1.1c0-0.2,0-0.4,0-0.6c0-0.2,0-0.4,0.1-0.5c0-0.2,0.1-0.4,0.1-0.5c0-0.1,0.1-0.3,0.2-0.4s0.2-0.2,0.3-0.3
			c0.1-0.1,0.2-0.2,0.4-0.2s0.3-0.1,0.5-0.1c0.1,0,0.3,0,0.4,0.1s0.2,0.1,0.3,0.2c0.1,0.1,0.2,0.2,0.3,0.2c0.1,0.1,0.2,0.1,0.3,0.3
			v-3.1h1.2v8.7h-1.2v-0.6c-0.2,0.2-0.4,0.4-0.6,0.5S237.4,138.8,237.1,138.8z M237.4,137.7c0.3,0,0.6-0.1,0.9-0.2v-3.9
			c-0.3-0.2-0.6-0.2-0.9-0.2c-0.1,0-0.2,0-0.3,0.1c-0.1,0.1-0.1,0.1-0.2,0.3c0,0.1-0.1,0.2-0.1,0.4s0,0.3,0,0.4c0,0.7,0,1.3,0,1.7
			c0,0.2,0,0.4,0,0.6s0.1,0.3,0.1,0.5s0.1,0.3,0.2,0.3C237.2,137.7,237.3,137.7,237.4,137.7z"/>
		<path fill="#FFFFFF" d="M242.6,138.8c-0.3,0-0.6-0.1-0.8-0.2c-0.2-0.1-0.4-0.2-0.5-0.4s-0.2-0.4-0.3-0.6c-0.1-0.3-0.1-0.5-0.2-0.8
			c0-0.3,0-0.6-0.1-0.9c0-0.3,0-0.5,0-0.8c0-0.3,0-0.6,0.1-0.9s0.1-0.5,0.2-0.7c0.1-0.2,0.2-0.4,0.3-0.6c0.1-0.2,0.3-0.3,0.5-0.4
			s0.5-0.1,0.8-0.1c0.3,0,0.5,0,0.7,0.1c0.2,0.1,0.4,0.2,0.5,0.3c0.1,0.1,0.2,0.3,0.3,0.5c0.1,0.2,0.2,0.4,0.2,0.6
			c0,0.2,0.1,0.5,0.1,0.7c0,0.2,0,0.5,0,0.8v0.1H242v0.3c0,0,0,0.1,0,0.2c0,0.1,0,0.2,0,0.4s0,0.3,0,0.4c0,0.1,0,0.2,0.1,0.4
			s0.1,0.2,0.1,0.3c0,0.1,0.1,0.2,0.2,0.2c0.1,0,0.2,0.1,0.3,0.1c0.1,0,0.2,0,0.3-0.1c0.1-0.1,0.1-0.1,0.2-0.2
			c0-0.1,0.1-0.2,0.1-0.3c0-0.1,0-0.2,0-0.4v-0.3h1.2v0.2c0,0.7-0.2,1.2-0.5,1.5C243.7,138.6,243.2,138.8,242.6,138.8z M242,134.9
			h1.2v-0.4c0-0.2,0-0.3,0-0.4c0-0.1,0-0.2-0.1-0.4c0-0.1-0.1-0.2-0.2-0.3c-0.1-0.1-0.2-0.1-0.3-0.1c-0.1,0-0.2,0-0.3,0.1
			c-0.1,0.1-0.1,0.2-0.2,0.3c0,0.1-0.1,0.3-0.1,0.4c0,0.1,0,0.3,0,0.4V134.9z"/>
		<path fill="#FFFFFF" d="M245.4,138.7v-8.8h1.2v8.8H245.4z"/>
		<path fill="#FFFFFF" d="M248.8,138.8c-0.3,0-0.6-0.2-0.9-0.5c-0.2-0.3-0.4-0.6-0.4-1c0-0.3,0.1-0.6,0.2-0.8s0.2-0.4,0.3-0.6
			c0.1-0.1,0.3-0.3,0.6-0.5c0.3-0.2,0.5-0.3,0.6-0.3s0.4-0.2,0.7-0.3c0.1,0,0.1,0,0.1-0.1v-0.4c0-0.3,0-0.6-0.1-0.7
			s-0.3-0.3-0.5-0.3c-0.2,0-0.4,0.1-0.5,0.2s-0.1,0.4-0.2,0.6c0,0,0,0.1,0,0.2h-1.2c0-0.6,0.2-1.1,0.5-1.4c0.3-0.4,0.8-0.5,1.4-0.5
			c0.6,0,1,0.2,1.4,0.5c0.3,0.4,0.5,0.8,0.5,1.4v2.8c0,0.7,0.1,1.2,0.2,1.6h-1.2l-0.2-0.9c-0.1,0.1-0.1,0.2-0.2,0.3
			c0,0.1-0.1,0.2-0.2,0.3s-0.2,0.2-0.2,0.2s-0.2,0.1-0.3,0.1S249,138.8,248.8,138.8z M249.4,137.7c0.1,0,0.2,0,0.3-0.1
			s0.1-0.1,0.2-0.2c0,0,0.1-0.1,0.2-0.2c0,0,0,0,0,0v-1.7c-0.1,0-0.1,0.1-0.3,0.2c-0.1,0.1-0.2,0.1-0.3,0.2c-0.1,0-0.2,0.1-0.3,0.2
			c-0.1,0.1-0.2,0.2-0.2,0.2c-0.1,0.1-0.1,0.2-0.1,0.3c0,0.1-0.1,0.2-0.1,0.3C248.8,137.5,249,137.7,249.4,137.7z"/>
		<path fill="#FFFFFF" d="M252.4,131.5v-1.2h1.2v1.2H252.4z M252.4,138.7v-6.2h1.2v6.2H252.4z"/>
		<path fill="#FFFFFF" d="M256.3,138.8c-0.3,0-0.5-0.1-0.7-0.2c-0.2-0.2-0.4-0.4-0.5-0.6s-0.2-0.5-0.3-0.8c-0.1-0.3-0.1-0.6-0.1-0.9
			c0-0.2,0-0.5,0-1.1c0-0.2,0-0.4,0-0.6c0-0.2,0-0.4,0.1-0.5c0-0.2,0.1-0.4,0.1-0.5c0-0.1,0.1-0.3,0.2-0.4s0.2-0.2,0.3-0.3
			c0.1-0.1,0.2-0.2,0.4-0.2s0.3-0.1,0.5-0.1c0.1,0,0.3,0,0.4,0.1s0.2,0.1,0.3,0.2c0.1,0.1,0.2,0.2,0.3,0.2c0.1,0.1,0.2,0.1,0.3,0.3
			v-3.1h1.2v8.7h-1.2v-0.6c-0.2,0.2-0.4,0.4-0.6,0.5S256.6,138.8,256.3,138.8z M256.7,137.7c0.3,0,0.6-0.1,0.9-0.2v-3.9
			c-0.3-0.2-0.6-0.2-0.9-0.2c-0.1,0-0.2,0-0.3,0.1c-0.1,0.1-0.1,0.1-0.2,0.3c0,0.1-0.1,0.2-0.1,0.4s0,0.3,0,0.4c0,0.7,0,1.3,0,1.7
			c0,0.2,0,0.4,0,0.6s0.1,0.3,0.1,0.5s0.1,0.3,0.2,0.3C256.4,137.7,256.5,137.7,256.7,137.7z"/>
		<path fill="#FFFFFF" d="M261.8,138.8c-0.3,0-0.6-0.1-0.8-0.2c-0.2-0.1-0.4-0.2-0.5-0.4s-0.2-0.4-0.3-0.6c-0.1-0.3-0.1-0.5-0.2-0.8
			c0-0.3,0-0.6-0.1-0.9c0-0.3,0-0.5,0-0.8c0-0.3,0-0.6,0.1-0.9s0.1-0.5,0.2-0.7c0.1-0.2,0.2-0.4,0.3-0.6c0.1-0.2,0.3-0.3,0.5-0.4
			s0.5-0.1,0.8-0.1c0.3,0,0.5,0,0.7,0.1c0.2,0.1,0.4,0.2,0.5,0.3c0.1,0.1,0.2,0.3,0.3,0.5c0.1,0.2,0.2,0.4,0.2,0.6
			c0,0.2,0.1,0.5,0.1,0.7c0,0.2,0,0.5,0,0.8v0.1h-2.5v0.3c0,0,0,0.1,0,0.2c0,0.1,0,0.2,0,0.4s0,0.3,0,0.4c0,0.1,0,0.2,0.1,0.4
			s0.1,0.2,0.1,0.3c0,0.1,0.1,0.2,0.2,0.2c0.1,0,0.2,0.1,0.3,0.1c0.1,0,0.2,0,0.3-0.1c0.1-0.1,0.1-0.1,0.2-0.2
			c0-0.1,0.1-0.2,0.1-0.3c0-0.1,0-0.2,0-0.4v-0.3h1.2v0.2c0,0.7-0.2,1.2-0.5,1.5C262.9,138.6,262.4,138.8,261.8,138.8z M261.2,134.9
			h1.2v-0.4c0-0.2,0-0.3,0-0.4c0-0.1,0-0.2-0.1-0.4c0-0.1-0.1-0.2-0.2-0.3c-0.1-0.1-0.2-0.1-0.3-0.1c-0.1,0-0.2,0-0.3,0.1
			c-0.1,0.1-0.1,0.2-0.2,0.3c0,0.1-0.1,0.3-0.1,0.4c0,0.1,0,0.3,0,0.4V134.9z"/>
		<path fill="#FFFFFF" d="M134.6,150.8c-0.3,0-0.5-0.1-0.7-0.2s-0.4-0.4-0.5-0.6c-0.1-0.3-0.2-0.5-0.3-0.8s-0.1-0.6-0.1-0.9
			c0-0.2,0-0.5,0-1.1c0-0.2,0-0.4,0-0.6c0-0.2,0-0.4,0.1-0.5c0-0.2,0.1-0.4,0.1-0.5c0-0.1,0.1-0.3,0.2-0.4c0.1-0.1,0.2-0.2,0.3-0.3
			s0.2-0.2,0.4-0.2s0.3-0.1,0.5-0.1c0.1,0,0.3,0,0.4,0.1s0.2,0.1,0.3,0.2s0.2,0.2,0.3,0.2s0.2,0.1,0.3,0.3v-3.1h1.2v8.7h-1.2v-0.6
			c-0.2,0.2-0.4,0.4-0.6,0.5C135.1,150.7,134.9,150.8,134.6,150.8z M135,149.7c0.3,0,0.6-0.1,0.9-0.2v-3.9c-0.3-0.2-0.6-0.2-0.9-0.2
			c-0.1,0-0.2,0-0.3,0.1c-0.1,0.1-0.1,0.1-0.2,0.3c0,0.1-0.1,0.2-0.1,0.4s0,0.3,0,0.4c0,0.7,0,1.3,0,1.7c0,0.2,0,0.4,0,0.6
			c0,0.2,0.1,0.3,0.1,0.5s0.1,0.3,0.2,0.3C134.7,149.7,134.8,149.7,135,149.7z"/>
		<path fill="#FFFFFF" d="M141.5,150.2c-0.3,0.4-0.8,0.6-1.4,0.6s-1.2-0.2-1.4-0.6s-0.4-1-0.4-1.7v-1.9c0-0.7,0.1-1.3,0.4-1.7
			c0.3-0.4,0.8-0.6,1.4-0.6s1.2,0.2,1.4,0.6c0.3,0.4,0.4,1,0.4,1.7v1.9C141.9,149.2,141.8,149.8,141.5,150.2z M139.8,149.7
			c0.1,0,0.1,0,0.2,0s0.2,0,0.2,0c0.1,0,0.1-0.1,0.2-0.1c0,0,0.1-0.1,0.1-0.2s0.1-0.1,0.1-0.2c0-0.1,0-0.1,0-0.2c0-0.1,0-0.2,0-0.2
			c0-0.1,0-0.2,0-0.3v-1.9c0-0.1,0-0.2,0-0.3c0-0.1,0-0.1,0-0.2c0-0.1,0-0.2,0-0.2c0-0.1,0-0.1-0.1-0.2s-0.1-0.1-0.1-0.2
			c0,0-0.1-0.1-0.2-0.1c-0.1,0-0.1,0-0.2,0s-0.2,0-0.2,0c-0.1,0-0.1,0.1-0.2,0.1c0,0-0.1,0.1-0.1,0.2s-0.1,0.1-0.1,0.2
			c0,0.1,0,0.1,0,0.2c0,0.1,0,0.2,0,0.2c0,0.1,0,0.2,0,0.3v1.9c0,0.1,0,0.2,0,0.3c0,0.1,0,0.1,0,0.2c0,0.1,0,0.2,0,0.2
			c0,0.1,0,0.1,0.1,0.2s0.1,0.1,0.1,0.2C139.7,149.7,139.8,149.7,139.8,149.7z"/>
		<path fill="#FFFFFF" d="M143,150.7v-8.7h1.2v8.7H143z"/>
		<path fill="#FFFFFF" d="M145.3,152.6v-8.1h1.2v0.6c0.1-0.1,0.2-0.2,0.2-0.2s0.1-0.1,0.2-0.2c0.1-0.1,0.2-0.1,0.2-0.2
			c0.1,0,0.2-0.1,0.3-0.1c0.1,0,0.2,0,0.3,0c0.2,0,0.4,0,0.6,0.1s0.3,0.2,0.4,0.3s0.2,0.3,0.3,0.5c0.1,0.2,0.1,0.4,0.2,0.5
			c0,0.2,0.1,0.4,0.1,0.7c0,0.3,0,0.5,0,0.7c0,0.2,0,0.4,0,0.7v0.1c0,0.3,0,0.5,0,0.8c0,0.3-0.1,0.5-0.2,0.8
			c-0.1,0.3-0.2,0.5-0.3,0.7c-0.1,0.2-0.3,0.3-0.4,0.5c-0.2,0.1-0.4,0.2-0.6,0.2c-0.4,0-0.8-0.2-1.2-0.6v2.4H145.3z M147.5,149.7
			c0.1,0,0.2,0,0.3-0.1c0.1-0.1,0.2-0.2,0.2-0.4c0-0.2,0.1-0.4,0.1-0.5c0-0.2,0-0.4,0-0.6l0-0.8c0-0.1,0-0.3,0-0.4
			c0-0.1,0-0.2,0-0.4c0-0.1,0-0.3,0-0.4c0-0.1,0-0.2-0.1-0.3c0-0.1-0.1-0.2-0.1-0.3c0-0.1-0.1-0.1-0.2-0.2c-0.1,0-0.2-0.1-0.3-0.1
			c0,0-0.1,0-0.1,0c0,0-0.1,0-0.1,0c0,0-0.1,0-0.1,0c0,0-0.1,0-0.1,0.1c0,0-0.1,0-0.1,0.1c0,0-0.1,0-0.1,0.1c-0.1,0-0.1,0.1-0.1,0.1
			v3.9C146.9,149.7,147.2,149.7,147.5,149.7z"/>
		<path fill="#FFFFFF" d="M150.4,150.7v-8.7h1.2v3.2c0.2-0.2,0.3-0.3,0.5-0.4s0.3-0.2,0.5-0.3c0.2-0.1,0.4-0.1,0.7-0.1
			c0.3,0,0.5,0.1,0.6,0.3s0.2,0.4,0.2,0.7v5.3h-1.2V146c0-0.2,0-0.4-0.1-0.5c-0.1-0.1-0.2-0.2-0.3-0.2c-0.3,0-0.5,0.1-0.8,0.4v4.9
			H150.4z"/>
		<path fill="#FFFFFF" d="M155.3,143.5v-1.2h1.2v1.2H155.3z M155.3,150.7v-6.2h1.2v6.2H155.3z"/>
		<path fill="#FFFFFF" d="M157.8,150.7v-6.2h1.2v0.7c0.2-0.2,0.3-0.3,0.5-0.4s0.3-0.2,0.5-0.3c0.2-0.1,0.4-0.1,0.7-0.1
			c0.3,0,0.5,0.1,0.6,0.3s0.2,0.4,0.2,0.7v5.3h-1.2V146c0-0.2,0-0.4-0.1-0.5c-0.1-0.1-0.2-0.1-0.4-0.1c-0.1,0-0.2,0-0.3,0.1
			c-0.1,0-0.2,0.1-0.2,0.1c-0.1,0-0.1,0.1-0.2,0.2v4.9H157.8z"/>
		<path fill="#FFFFFF" d="M163.7,150.8c-0.3,0-0.6-0.2-0.9-0.5c-0.2-0.3-0.4-0.6-0.4-1c0-0.3,0.1-0.6,0.2-0.8
			c0.1-0.2,0.2-0.4,0.3-0.6c0.1-0.1,0.3-0.3,0.6-0.5c0.3-0.2,0.5-0.3,0.6-0.3s0.4-0.2,0.7-0.3c0.1,0,0.1,0,0.1-0.1v-0.4
			c0-0.3,0-0.6-0.1-0.7c-0.1-0.2-0.3-0.3-0.5-0.3c-0.2,0-0.4,0.1-0.5,0.2c-0.1,0.1-0.1,0.4-0.2,0.6c0,0,0,0.1,0,0.2h-1.2
			c0-0.6,0.2-1.1,0.5-1.4c0.3-0.4,0.8-0.5,1.4-0.5c0.6,0,1,0.2,1.4,0.5c0.3,0.4,0.5,0.8,0.5,1.4v2.8c0,0.7,0.1,1.2,0.2,1.6h-1.2
			l-0.2-0.9c-0.1,0.1-0.1,0.2-0.2,0.3c0,0.1-0.1,0.2-0.2,0.3c-0.1,0.1-0.2,0.2-0.2,0.2c-0.1,0.1-0.2,0.1-0.3,0.1
			C164,150.8,163.8,150.8,163.7,150.8z M164.3,149.7c0.1,0,0.2,0,0.3-0.1c0.1-0.1,0.1-0.1,0.2-0.2c0,0,0.1-0.1,0.2-0.2c0,0,0,0,0,0
			v-1.7c-0.1,0-0.1,0.1-0.3,0.2c-0.1,0.1-0.2,0.1-0.3,0.2c-0.1,0-0.2,0.1-0.3,0.2c-0.1,0.1-0.2,0.2-0.2,0.2
			c-0.1,0.1-0.1,0.2-0.1,0.3c0,0.1-0.1,0.2-0.1,0.3C163.7,149.5,163.9,149.7,164.3,149.7z"/>
		<path fill="#FFFFFF" d="M167.3,150.7v-6.2h1.2v0.8c0.1-0.2,0.3-0.5,0.6-0.6c0.2-0.2,0.5-0.3,0.8-0.3c0,0,0.1,0,0.2,0v1.4
			c-0.2-0.1-0.5-0.1-0.7-0.1c-0.3,0-0.5,0.1-0.6,0.2c-0.2,0.2-0.2,0.4-0.2,0.6v4.2H167.3z"/>
		<path fill="#FFFFFF" d="M170.7,143.5v-1.2h1.2v1.2H170.7z M170.7,150.7v-6.2h1.2v6.2H170.7z"/>
		<path fill="#FFFFFF" d="M174,150.8c-0.3,0-0.5-0.1-0.7-0.3c-0.2-0.2-0.2-0.4-0.2-0.7v-5.3h1.2v4.9c0,0.1,0,0.2,0.1,0.3
			c0.1,0.1,0.2,0.1,0.3,0.1c0.1,0,0.1,0,0.2,0c0.1,0,0.1,0,0.2-0.1c0.1,0,0.1-0.1,0.1-0.1c0,0,0.1-0.1,0.2-0.1
			c0.1-0.1,0.1-0.1,0.1-0.1v-4.9h1.2v6.2h-1.2V150c-0.1,0.1-0.2,0.2-0.3,0.2c-0.1,0-0.1,0.1-0.3,0.2s-0.2,0.1-0.3,0.2
			c-0.1,0-0.2,0.1-0.3,0.1C174.3,150.8,174.2,150.8,174,150.8z"/>
		<path fill="#FFFFFF" d="M178,150.7v-6.2h1.2v0.7c0.4-0.5,1-0.8,1.6-0.8c0.3,0,0.5,0.1,0.7,0.2c0.1,0.1,0.2,0.3,0.3,0.6
			c0.2-0.3,0.4-0.5,0.7-0.6c0.2-0.1,0.5-0.2,0.9-0.2c0.1,0,0.2,0,0.3,0s0.2,0,0.2,0.1c0.1,0,0.1,0.1,0.2,0.1c0,0.1,0.1,0.1,0.1,0.2
			c0,0.1,0.1,0.1,0.1,0.2c0,0.1,0,0.2,0,0.2c0,0.1,0,0.2,0,0.3c0,0.1,0,0.2,0,0.3s0,0.2,0,0.3c0,0,0,0.1,0,0.1v4.5H183v-4.6
			c0,0,0,0,0-0.1c0-0.1,0-0.2,0-0.2c0-0.1,0-0.1,0-0.2c0-0.1,0-0.1-0.1-0.2c0,0-0.1-0.1-0.2-0.1c-0.1,0-0.3,0-0.4,0.1
			c-0.1,0-0.2,0.1-0.3,0.1c-0.1,0-0.2,0.1-0.3,0.2v4.9h-1.2v-4.5c0,0,0,0,0-0.1c0-0.1,0-0.2,0-0.2c0,0,0-0.1,0-0.2
			c0-0.1,0-0.1,0-0.2c0,0-0.1-0.1-0.1-0.1c0,0-0.1,0-0.2,0c-0.3,0-0.6,0.1-0.9,0.4v4.9H178z"/>
		<path fill="#FFFFFF" d="M185.4,151.9l-0.3-0.6c0.2,0,0.4,0,0.5-0.1c0.1-0.1,0.1-0.3,0.1-0.5h-0.6v-1.2h1.2c0,0.5,0,0.9,0,1.2
			c0,0.2,0,0.3,0,0.4c0,0.1,0,0.2-0.1,0.4c0,0.1-0.1,0.2-0.2,0.3c-0.1,0.1-0.2,0.1-0.3,0.2C185.7,151.9,185.6,151.9,185.4,151.9z"/>
		<path fill="#FFFFFF" d="M189.3,150.7v-8.7h1.2v8.7H189.3z"/>
		<path fill="#FFFFFF" d="M193.5,150.8c-0.3,0-0.6-0.1-0.8-0.2c-0.2-0.1-0.4-0.2-0.5-0.4c-0.1-0.2-0.2-0.4-0.3-0.6
			c-0.1-0.3-0.1-0.5-0.2-0.8c0-0.3,0-0.6-0.1-0.9c0-0.3,0-0.5,0-0.8c0-0.3,0-0.6,0.1-0.9c0-0.3,0.1-0.5,0.2-0.7
			c0.1-0.2,0.2-0.4,0.3-0.6c0.1-0.2,0.3-0.3,0.5-0.4s0.5-0.1,0.8-0.1c0.3,0,0.5,0,0.7,0.1c0.2,0.1,0.4,0.2,0.5,0.3
			c0.1,0.1,0.2,0.3,0.3,0.5c0.1,0.2,0.2,0.4,0.2,0.6c0,0.2,0.1,0.5,0.1,0.7c0,0.2,0,0.5,0,0.8v0.1h-2.5v0.3c0,0,0,0.1,0,0.2
			c0,0.1,0,0.2,0,0.4c0,0.1,0,0.3,0,0.4c0,0.1,0,0.2,0.1,0.4s0.1,0.2,0.1,0.3c0,0.1,0.1,0.2,0.2,0.2c0.1,0,0.2,0.1,0.3,0.1
			c0.1,0,0.2,0,0.3-0.1c0.1-0.1,0.1-0.1,0.2-0.2c0-0.1,0.1-0.2,0.1-0.3c0-0.1,0-0.2,0-0.4v-0.3h1.2v0.2c0,0.7-0.2,1.2-0.5,1.5
			C194.6,150.6,194.1,150.8,193.5,150.8z M192.9,146.9h1.2v-0.4c0-0.2,0-0.3,0-0.4c0-0.1,0-0.2-0.1-0.4c0-0.1-0.1-0.2-0.2-0.3
			c-0.1-0.1-0.2-0.1-0.3-0.1c-0.1,0-0.2,0-0.3,0.1c-0.1,0.1-0.1,0.2-0.2,0.3c0,0.1-0.1,0.3-0.1,0.4c0,0.1,0,0.3,0,0.4V146.9z"/>
		<path fill="#FFFFFF" d="M197.4,150.8c-0.3,0-0.6-0.2-0.9-0.5c-0.2-0.3-0.4-0.6-0.4-1c0-0.3,0.1-0.6,0.2-0.8
			c0.1-0.2,0.2-0.4,0.3-0.6c0.1-0.1,0.3-0.3,0.6-0.5c0.3-0.2,0.5-0.3,0.6-0.3s0.4-0.2,0.7-0.3c0.1,0,0.1,0,0.1-0.1v-0.4
			c0-0.3,0-0.6-0.1-0.7c-0.1-0.2-0.3-0.3-0.5-0.3c-0.2,0-0.4,0.1-0.5,0.2c-0.1,0.1-0.1,0.4-0.2,0.6c0,0,0,0.1,0,0.2h-1.2
			c0-0.6,0.2-1.1,0.5-1.4c0.3-0.4,0.8-0.5,1.4-0.5c0.6,0,1,0.2,1.4,0.5c0.3,0.4,0.5,0.8,0.5,1.4v2.8c0,0.7,0.1,1.2,0.2,1.6h-1.2
			l-0.2-0.9c-0.1,0.1-0.1,0.2-0.2,0.3c0,0.1-0.1,0.2-0.2,0.3c-0.1,0.1-0.2,0.2-0.2,0.2c-0.1,0.1-0.2,0.1-0.3,0.1
			C197.6,150.8,197.5,150.8,197.4,150.8z M198,149.7c0.1,0,0.2,0,0.3-0.1c0.1-0.1,0.1-0.1,0.2-0.2c0,0,0.1-0.1,0.2-0.2c0,0,0,0,0,0
			v-1.7c-0.1,0-0.1,0.1-0.3,0.2c-0.1,0.1-0.2,0.1-0.3,0.2c-0.1,0-0.2,0.1-0.3,0.2c-0.1,0.1-0.2,0.2-0.2,0.2
			c-0.1,0.1-0.1,0.2-0.1,0.3c0,0.1-0.1,0.2-0.1,0.3C197.4,149.5,197.6,149.7,198,149.7z"/>
		<path fill="#FFFFFF" d="M200.9,150.7v-6.2h1.2v0.8c0.1-0.2,0.3-0.5,0.6-0.6c0.2-0.2,0.5-0.3,0.8-0.3c0,0,0.1,0,0.2,0v1.4
			c-0.2-0.1-0.5-0.1-0.7-0.1c-0.3,0-0.5,0.1-0.6,0.2c-0.2,0.2-0.2,0.4-0.2,0.6v4.2H200.9z"/>
		<path fill="#FFFFFF" d="M204.3,150.7v-6.2h1.2v0.7c0.2-0.2,0.3-0.3,0.5-0.4s0.3-0.2,0.5-0.3c0.2-0.1,0.4-0.1,0.7-0.1
			c0.3,0,0.5,0.1,0.6,0.3s0.2,0.4,0.2,0.7v5.3h-1.2V146c0-0.2,0-0.4-0.1-0.5c-0.1-0.1-0.2-0.1-0.4-0.1c-0.1,0-0.2,0-0.3,0.1
			c-0.1,0-0.2,0.1-0.2,0.1c-0.1,0-0.1,0.1-0.2,0.2v4.9H204.3z"/>
		<path fill="#FFFFFF" d="M210.9,150.8c-0.3,0-0.6-0.1-0.8-0.2c-0.2-0.1-0.4-0.2-0.5-0.4c-0.1-0.2-0.2-0.4-0.3-0.6
			c-0.1-0.3-0.1-0.5-0.2-0.8c0-0.3,0-0.6-0.1-0.9c0-0.3,0-0.5,0-0.8c0-0.3,0-0.6,0.1-0.9c0-0.3,0.1-0.5,0.2-0.7
			c0.1-0.2,0.2-0.4,0.3-0.6c0.1-0.2,0.3-0.3,0.5-0.4s0.5-0.1,0.8-0.1c0.3,0,0.5,0,0.7,0.1c0.2,0.1,0.4,0.2,0.5,0.3
			c0.1,0.1,0.2,0.3,0.3,0.5c0.1,0.2,0.2,0.4,0.2,0.6c0,0.2,0.1,0.5,0.1,0.7c0,0.2,0,0.5,0,0.8v0.1h-2.5v0.3c0,0,0,0.1,0,0.2
			c0,0.1,0,0.2,0,0.4c0,0.1,0,0.3,0,0.4c0,0.1,0,0.2,0.1,0.4s0.1,0.2,0.1,0.3c0,0.1,0.1,0.2,0.2,0.2c0.1,0,0.2,0.1,0.3,0.1
			c0.1,0,0.2,0,0.3-0.1c0.1-0.1,0.1-0.1,0.2-0.2c0-0.1,0.1-0.2,0.1-0.3c0-0.1,0-0.2,0-0.4v-0.3h1.2v0.2c0,0.7-0.2,1.2-0.5,1.5
			C212,150.6,211.5,150.8,210.9,150.8z M210.3,146.9h1.2v-0.4c0-0.2,0-0.3,0-0.4c0-0.1,0-0.2-0.1-0.4c0-0.1-0.1-0.2-0.2-0.3
			c-0.1-0.1-0.2-0.1-0.3-0.1c-0.1,0-0.2,0-0.3,0.1c-0.1,0.1-0.1,0.2-0.2,0.3c0,0.1-0.1,0.3-0.1,0.4c0,0.1,0,0.3,0,0.4V146.9z"/>
		<path fill="#FFFFFF" d="M215.2,150.8c-0.3,0-0.5-0.1-0.7-0.2c-0.2-0.2-0.4-0.4-0.5-0.6c-0.1-0.3-0.2-0.5-0.3-0.8
			c-0.1-0.3-0.1-0.6-0.1-0.9c0-0.2,0-0.5,0-1.1c0-0.2,0-0.4,0-0.6c0-0.2,0-0.4,0.1-0.5c0-0.2,0.1-0.4,0.1-0.5c0-0.1,0.1-0.3,0.2-0.4
			c0.1-0.1,0.2-0.2,0.3-0.3c0.1-0.1,0.2-0.2,0.4-0.2s0.3-0.1,0.5-0.1c0.1,0,0.3,0,0.4,0.1s0.2,0.1,0.3,0.2c0.1,0.1,0.2,0.2,0.3,0.2
			c0.1,0.1,0.2,0.1,0.3,0.3v-3.1h1.2v8.7h-1.2v-0.6c-0.2,0.2-0.4,0.4-0.6,0.5C215.7,150.7,215.4,150.8,215.2,150.8z M215.5,149.7
			c0.3,0,0.6-0.1,0.9-0.2v-3.9c-0.3-0.2-0.6-0.2-0.9-0.2c-0.1,0-0.2,0-0.3,0.1c-0.1,0.1-0.1,0.1-0.2,0.3c0,0.1-0.1,0.2-0.1,0.4
			s0,0.3,0,0.4c0,0.7,0,1.3,0,1.7c0,0.2,0,0.4,0,0.6c0,0.2,0.1,0.3,0.1,0.5s0.1,0.3,0.2,0.3C215.3,149.7,215.4,149.7,215.5,149.7z"
			/>
		<path fill="#FFFFFF" d="M222.6,150.8c-0.5,0-0.8-0.1-1.1-0.4c-0.2-0.2-0.3-0.6-0.3-1.1v-3.9h-0.6v-0.9h0.6v-2.2h1.2v2.2h0.9v0.9
			h-0.9v3.6c0,0.3,0,0.4,0.1,0.6s0.2,0.2,0.4,0.2c0.1,0,0.2,0,0.4,0v1C223.1,150.8,222.8,150.8,222.6,150.8z"/>
		<path fill="#FFFFFF" d="M227.5,150.2c-0.3,0.4-0.8,0.6-1.4,0.6c-0.7,0-1.2-0.2-1.4-0.6c-0.3-0.4-0.4-1-0.4-1.7v-1.9
			c0-0.7,0.1-1.3,0.4-1.7c0.3-0.4,0.8-0.6,1.4-0.6c0.7,0,1.2,0.2,1.4,0.6c0.3,0.4,0.4,1,0.4,1.7v1.9
			C227.9,149.2,227.7,149.8,227.5,150.2z M225.8,149.7c0.1,0,0.1,0,0.2,0s0.2,0,0.2,0c0.1,0,0.1-0.1,0.2-0.1c0,0,0.1-0.1,0.1-0.2
			s0.1-0.1,0.1-0.2c0-0.1,0-0.1,0-0.2c0-0.1,0-0.2,0-0.2c0-0.1,0-0.2,0-0.3v-1.9c0-0.1,0-0.2,0-0.3c0-0.1,0-0.1,0-0.2
			c0-0.1,0-0.2,0-0.2c0-0.1,0-0.1-0.1-0.2s-0.1-0.1-0.1-0.2c0,0-0.1-0.1-0.2-0.1c-0.1,0-0.1,0-0.2,0s-0.2,0-0.2,0
			c-0.1,0-0.1,0.1-0.2,0.1c0,0-0.1,0.1-0.1,0.2s-0.1,0.1-0.1,0.2c0,0.1,0,0.1,0,0.2c0,0.1,0,0.2,0,0.2c0,0.1,0,0.2,0,0.3v1.9
			c0,0.1,0,0.2,0,0.3c0,0.1,0,0.1,0,0.2c0,0.1,0,0.2,0,0.2c0,0.1,0,0.1,0.1,0.2s0.1,0.1,0.1,0.2
			C225.7,149.7,225.7,149.7,225.8,149.7z"/>
		<path fill="#FFFFFF" d="M232.7,150.8c-0.5,0-0.8-0.1-1.1-0.4c-0.2-0.2-0.3-0.6-0.3-1.1v-3.9h-0.6v-0.9h0.6v-2.2h1.2v2.2h0.9v0.9
			h-0.9v3.6c0,0.3,0,0.4,0.1,0.6s0.2,0.2,0.4,0.2c0.1,0,0.2,0,0.4,0v1C233.1,150.8,232.9,150.8,232.7,150.8z"/>
		<path fill="#FFFFFF" d="M235.5,150.8c-0.3,0-0.6-0.2-0.9-0.5c-0.2-0.3-0.4-0.6-0.4-1c0-0.3,0.1-0.6,0.2-0.8
			c0.1-0.2,0.2-0.4,0.3-0.6c0.1-0.1,0.3-0.3,0.6-0.5c0.3-0.2,0.5-0.3,0.6-0.3s0.4-0.2,0.7-0.3c0.1,0,0.1,0,0.1-0.1v-0.4
			c0-0.3,0-0.6-0.1-0.7c-0.1-0.2-0.3-0.3-0.5-0.3c-0.2,0-0.4,0.1-0.5,0.2c-0.1,0.1-0.1,0.4-0.2,0.6c0,0,0,0.1,0,0.2h-1.2
			c0-0.6,0.2-1.1,0.5-1.4c0.3-0.4,0.8-0.5,1.4-0.5c0.6,0,1,0.2,1.4,0.5c0.3,0.4,0.5,0.8,0.5,1.4v2.8c0,0.7,0.1,1.2,0.2,1.6h-1.2
			l-0.2-0.9c-0.1,0.1-0.1,0.2-0.2,0.3c0,0.1-0.1,0.2-0.2,0.3c-0.1,0.1-0.2,0.2-0.2,0.2c-0.1,0.1-0.2,0.1-0.3,0.1
			C235.7,150.8,235.6,150.8,235.5,150.8z M236.1,149.7c0.1,0,0.2,0,0.3-0.1c0.1-0.1,0.1-0.1,0.2-0.2c0,0,0.1-0.1,0.2-0.2
			c0,0,0,0,0,0v-1.7c-0.1,0-0.1,0.1-0.3,0.2c-0.1,0.1-0.2,0.1-0.3,0.2c-0.1,0-0.2,0.1-0.3,0.2c-0.1,0.1-0.2,0.2-0.2,0.2
			c-0.1,0.1-0.1,0.2-0.1,0.3c0,0.1-0.1,0.2-0.1,0.3C235.5,149.5,235.7,149.7,236.1,149.7z"/>
		<path fill="#FFFFFF" d="M239.1,143.5v-1.2h1.2v1.2H239.1z M239.1,150.7v-6.2h1.2v6.2H239.1z"/>
		<path fill="#FFFFFF" d="M241.5,150.7v-8.7h1.2v8.7H241.5z"/>
		<path fill="#FFFFFF" d="M246.6,150.7l-1.2-6.2h1.1l0.7,4.7l0.7-4.7h1.1l0.7,4.7l0.7-4.7h1.1l-1.2,6.2h-1.2l-0.7-4.3l-0.7,4.3
			H246.6z"/>
		<path fill="#FFFFFF" d="M253.2,150.8c-0.3,0-0.6-0.2-0.9-0.5c-0.2-0.3-0.4-0.6-0.4-1c0-0.3,0.1-0.6,0.2-0.8
			c0.1-0.2,0.2-0.4,0.3-0.6c0.1-0.1,0.3-0.3,0.6-0.5c0.3-0.2,0.5-0.3,0.6-0.3s0.4-0.2,0.7-0.3c0.1,0,0.1,0,0.1-0.1v-0.4
			c0-0.3,0-0.6-0.1-0.7c-0.1-0.2-0.3-0.3-0.5-0.3c-0.2,0-0.4,0.1-0.5,0.2c-0.1,0.1-0.1,0.4-0.2,0.6c0,0,0,0.1,0,0.2H252
			c0-0.6,0.2-1.1,0.5-1.4c0.3-0.4,0.8-0.5,1.4-0.5c0.6,0,1,0.2,1.4,0.5c0.3,0.4,0.5,0.8,0.5,1.4v2.8c0,0.7,0.1,1.2,0.2,1.6h-1.2
			l-0.2-0.9c-0.1,0.1-0.1,0.2-0.2,0.3c0,0.1-0.1,0.2-0.2,0.3c-0.1,0.1-0.2,0.2-0.2,0.2c-0.1,0.1-0.2,0.1-0.3,0.1
			C253.5,150.8,253.4,150.8,253.2,150.8z M253.9,149.7c0.1,0,0.2,0,0.3-0.1c0.1-0.1,0.1-0.1,0.2-0.2c0,0,0.1-0.1,0.2-0.2
			c0,0,0,0,0,0v-1.7c-0.1,0-0.1,0.1-0.3,0.2c-0.1,0.1-0.2,0.1-0.3,0.2c-0.1,0-0.2,0.1-0.3,0.2c-0.1,0.1-0.2,0.2-0.2,0.2
			c-0.1,0.1-0.1,0.2-0.1,0.3c0,0.1-0.1,0.2-0.1,0.3C253.2,149.5,253.4,149.7,253.9,149.7z"/>
		<path fill="#FFFFFF" d="M256.8,150.7v-8.7h1.2v8.7H256.8z"/>
		<path fill="#FFFFFF" d="M259.2,150.7v-8.7h1.2v4.8l1.6-2.3h1.2l-1.4,2.2l1.4,4.1H262l-0.9-3l-0.6,0.8v2.2H259.2z"/>
		<path fill="#FFFFFF" d="M136.4,162.2c-0.3,0.4-0.8,0.6-1.4,0.6s-1.2-0.2-1.4-0.6s-0.4-1-0.4-1.7v-1.9c0-0.7,0.1-1.3,0.4-1.7
			s0.8-0.6,1.4-0.6s1.2,0.2,1.4,0.6s0.4,1,0.4,1.7v1.9C136.8,161.2,136.7,161.8,136.4,162.2z M134.7,161.7c0.1,0,0.1,0,0.2,0
			s0.2,0,0.2,0c0.1,0,0.1-0.1,0.2-0.1c0,0,0.1-0.1,0.1-0.2s0.1-0.1,0.1-0.2c0-0.1,0-0.1,0-0.2c0-0.1,0-0.2,0-0.2c0-0.1,0-0.2,0-0.3
			v-1.9c0-0.1,0-0.2,0-0.3c0-0.1,0-0.1,0-0.2c0-0.1,0-0.2,0-0.2c0-0.1,0-0.1-0.1-0.2s-0.1-0.1-0.1-0.2c0,0-0.1-0.1-0.2-0.1
			c-0.1,0-0.1,0-0.2,0s-0.2,0-0.2,0c-0.1,0-0.1,0.1-0.2,0.1c0,0-0.1,0.1-0.1,0.2s-0.1,0.1-0.1,0.2c0,0.1,0,0.1,0,0.2
			c0,0.1,0,0.2,0,0.2c0,0.1,0,0.2,0,0.3v1.9c0,0.1,0,0.2,0,0.3c0,0.1,0,0.1,0,0.2c0,0.1,0,0.2,0,0.2c0,0.1,0,0.1,0.1,0.2
			s0.1,0.1,0.1,0.2C134.6,161.7,134.6,161.7,134.7,161.7z"/>
		<path fill="#FFFFFF" d="M137.8,162.7v-6.2h1.2v0.7c0.2-0.2,0.3-0.3,0.5-0.4c0.1-0.1,0.3-0.2,0.5-0.3c0.2-0.1,0.4-0.1,0.7-0.1
			c0.3,0,0.5,0.1,0.6,0.3s0.2,0.4,0.2,0.7v5.3h-1.2V158c0-0.2,0-0.4-0.1-0.5c-0.1-0.1-0.2-0.1-0.4-0.1c-0.1,0-0.2,0-0.3,0.1
			s-0.2,0.1-0.2,0.1c-0.1,0-0.1,0.1-0.2,0.2v4.9H137.8z"/>
		<path fill="#FFFFFF" d="M142.7,162.7v-8.8h1.2v8.8H142.7z"/>
		<path fill="#FFFFFF" d="M144.9,164.2v-0.9c0.2,0,0.4,0,0.6,0c0.1,0,0.3-0.1,0.3-0.2c0.1-0.1,0.1-0.2,0.1-0.3c0-0.1,0-0.2,0-0.4
			l-1.4-6h1.3c0.5,2.7,0.7,4.1,0.8,4.4c0.1-0.4,0.1-0.9,0.2-1.4c0.1-0.5,0.2-1,0.3-1.6c0.1-0.6,0.2-1,0.3-1.4h1.2l-1.6,6.6
			c-0.1,0.5-0.3,0.8-0.7,1c-0.3,0.2-0.8,0.3-1.4,0.3H144.9z"/>
		<path fill="#FFFFFF" d="M151.7,162.7v-5.3H151v-0.9h0.6v-0.2c0-0.3,0-0.5,0-0.7c0-0.2,0.1-0.4,0.1-0.5c0.1-0.2,0.1-0.3,0.2-0.4
			s0.2-0.2,0.4-0.2c0.2-0.1,0.4-0.1,0.6-0.1c0.2,0,0.5,0,0.8,0.1v0.9c0,0-0.1,0-0.2,0c-0.1,0-0.2,0-0.2,0c-0.2,0-0.3,0.1-0.4,0.2
			s-0.1,0.3-0.1,0.6v0.5h0.9v0.9h-0.9v5.3H151.7z"/>
		<path fill="#FFFFFF" d="M154.4,162.7v-6.2h1.2v0.8c0.1-0.2,0.3-0.5,0.6-0.6c0.2-0.2,0.5-0.3,0.8-0.3c0,0,0.1,0,0.2,0v1.4
			c-0.2-0.1-0.5-0.1-0.7-0.1c-0.3,0-0.5,0.1-0.6,0.2c-0.2,0.2-0.2,0.4-0.2,0.6v4.2H154.4z"/>
		<path fill="#FFFFFF" d="M161,162.2c-0.3,0.4-0.8,0.6-1.4,0.6c-0.7,0-1.2-0.2-1.4-0.6c-0.3-0.4-0.4-1-0.4-1.7v-1.9
			c0-0.7,0.1-1.3,0.4-1.7c0.3-0.4,0.8-0.6,1.4-0.6c0.7,0,1.2,0.2,1.4,0.6c0.3,0.4,0.4,1,0.4,1.7v1.9
			C161.4,161.2,161.3,161.8,161,162.2z M159.3,161.7c0.1,0,0.1,0,0.2,0s0.2,0,0.2,0c0.1,0,0.1-0.1,0.2-0.1c0,0,0.1-0.1,0.1-0.2
			s0.1-0.1,0.1-0.2c0-0.1,0-0.1,0-0.2c0-0.1,0-0.2,0-0.2c0-0.1,0-0.2,0-0.3v-1.9c0-0.1,0-0.2,0-0.3c0-0.1,0-0.1,0-0.2
			c0-0.1,0-0.2,0-0.2c0-0.1,0-0.1-0.1-0.2s-0.1-0.1-0.1-0.2c0,0-0.1-0.1-0.2-0.1c-0.1,0-0.1,0-0.2,0s-0.2,0-0.2,0
			c-0.1,0-0.1,0.1-0.2,0.1c0,0-0.1,0.1-0.1,0.2s-0.1,0.1-0.1,0.2c0,0.1,0,0.1,0,0.2c0,0.1,0,0.2,0,0.2c0,0.1,0,0.2,0,0.3v1.9
			c0,0.1,0,0.2,0,0.3c0,0.1,0,0.1,0,0.2c0,0.1,0,0.2,0,0.2c0,0.1,0,0.1,0.1,0.2s0.1,0.1,0.1,0.2
			C159.2,161.7,159.2,161.7,159.3,161.7z"/>
		<path fill="#FFFFFF" d="M162.4,162.7v-6.2h1.2v0.7c0.4-0.5,1-0.8,1.6-0.8c0.3,0,0.5,0.1,0.7,0.2c0.1,0.1,0.2,0.3,0.3,0.6
			c0.2-0.3,0.4-0.5,0.7-0.6c0.2-0.1,0.5-0.2,0.9-0.2c0.1,0,0.2,0,0.3,0c0.1,0,0.2,0,0.2,0.1c0.1,0,0.1,0.1,0.2,0.1
			c0,0.1,0.1,0.1,0.1,0.2c0,0,0.1,0.1,0.1,0.2c0,0.1,0,0.2,0,0.2c0,0.1,0,0.2,0,0.3c0,0.1,0,0.2,0,0.3s0,0.2,0,0.3c0,0,0,0.1,0,0.1
			v4.5h-1.2v-4.6c0,0,0,0,0-0.1c0-0.1,0-0.2,0-0.2c0-0.1,0-0.1,0-0.2c0-0.1,0-0.1-0.1-0.2c0,0-0.1-0.1-0.2-0.1c-0.1,0-0.3,0-0.4,0.1
			c-0.1,0-0.2,0.1-0.3,0.1c-0.1,0-0.2,0.1-0.3,0.2v4.9h-1.2v-4.5c0,0,0,0,0-0.1c0-0.1,0-0.2,0-0.2c0,0,0-0.1,0-0.2
			c0-0.1,0-0.1,0-0.2c0,0-0.1-0.1-0.1-0.1c0,0-0.1,0-0.2,0c-0.3,0-0.6,0.1-0.9,0.4v4.9H162.4z"/>
		<path fill="#FFFFFF" d="M173.3,162.8c-0.3,0-0.5-0.1-0.7-0.2c-0.2-0.2-0.4-0.4-0.5-0.6c-0.1-0.3-0.2-0.5-0.3-0.8
			c-0.1-0.3-0.1-0.6-0.1-0.9c0-0.2,0-0.5,0-1.1c0-0.2,0-0.4,0-0.6c0-0.2,0-0.4,0.1-0.5c0-0.2,0.1-0.4,0.1-0.5c0-0.1,0.1-0.3,0.2-0.4
			c0.1-0.1,0.2-0.2,0.3-0.3c0.1-0.1,0.2-0.2,0.4-0.2c0.1-0.1,0.3-0.1,0.5-0.1c0.1,0,0.3,0,0.4,0.1c0.1,0,0.2,0.1,0.3,0.2
			c0.1,0.1,0.2,0.2,0.3,0.2c0.1,0.1,0.2,0.2,0.3,0.3v-3.1h1.2v8.7h-1.2v-0.6c-0.2,0.2-0.4,0.4-0.6,0.5
			C173.7,162.7,173.5,162.8,173.3,162.8z M173.6,161.7c0.3,0,0.6-0.1,0.9-0.2v-3.9c-0.3-0.2-0.6-0.2-0.9-0.2c-0.1,0-0.2,0-0.3,0.1
			c-0.1,0.1-0.1,0.1-0.2,0.3c0,0.1-0.1,0.2-0.1,0.4s0,0.3,0,0.4c0,0.7,0,1.3,0,1.7c0,0.2,0,0.4,0,0.6c0,0.2,0.1,0.3,0.1,0.5
			s0.1,0.3,0.2,0.3C173.4,161.7,173.5,161.7,173.6,161.7z"/>
		<path fill="#FFFFFF" d="M180.1,162.2c-0.3,0.4-0.8,0.6-1.4,0.6c-0.7,0-1.2-0.2-1.4-0.6c-0.3-0.4-0.4-1-0.4-1.7v-1.9
			c0-0.7,0.1-1.3,0.4-1.7c0.3-0.4,0.8-0.6,1.4-0.6c0.7,0,1.2,0.2,1.4,0.6c0.3,0.4,0.4,1,0.4,1.7v1.9
			C180.6,161.2,180.4,161.8,180.1,162.2z M178.5,161.7c0.1,0,0.1,0,0.2,0s0.2,0,0.2,0c0.1,0,0.1-0.1,0.2-0.1c0,0,0.1-0.1,0.1-0.2
			s0.1-0.1,0.1-0.2c0-0.1,0-0.1,0-0.2c0-0.1,0-0.2,0-0.2c0-0.1,0-0.2,0-0.3v-1.9c0-0.1,0-0.2,0-0.3c0-0.1,0-0.1,0-0.2
			c0-0.1,0-0.2,0-0.2c0-0.1,0-0.1-0.1-0.2s-0.1-0.1-0.1-0.2c0,0-0.1-0.1-0.2-0.1c-0.1,0-0.1,0-0.2,0s-0.2,0-0.2,0
			c-0.1,0-0.1,0.1-0.2,0.1c0,0-0.1,0.1-0.1,0.2s-0.1,0.1-0.1,0.2c0,0.1,0,0.1,0,0.2c0,0.1,0,0.2,0,0.2c0,0.1,0,0.2,0,0.3v1.9
			c0,0.1,0,0.2,0,0.3c0,0.1,0,0.1,0,0.2c0,0.1,0,0.2,0,0.2c0,0.1,0,0.1,0.1,0.2s0.1,0.1,0.1,0.2
			C178.3,161.7,178.4,161.7,178.5,161.7z"/>
		<path fill="#FFFFFF" d="M181.6,162.7v-8.8h1.2v8.8H181.6z"/>
		<path fill="#FFFFFF" d="M184,164.6v-8.1h1.2v0.6c0.1-0.1,0.2-0.2,0.2-0.2s0.1-0.1,0.2-0.2c0.1-0.1,0.2-0.1,0.2-0.2
			c0.1,0,0.2-0.1,0.3-0.1c0.1,0,0.2,0,0.3,0c0.2,0,0.4,0,0.6,0.1c0.2,0.1,0.3,0.2,0.4,0.3s0.2,0.3,0.3,0.5c0.1,0.2,0.1,0.4,0.2,0.5
			c0,0.2,0.1,0.4,0.1,0.7c0,0.3,0,0.5,0,0.7c0,0.2,0,0.4,0,0.7v0.1c0,0.3,0,0.5,0,0.8c0,0.3-0.1,0.5-0.2,0.8
			c-0.1,0.3-0.2,0.5-0.3,0.7c-0.1,0.2-0.3,0.3-0.4,0.5c-0.2,0.1-0.4,0.2-0.6,0.2c-0.4,0-0.8-0.2-1.2-0.6v2.4H184z M186.1,161.7
			c0.1,0,0.2,0,0.3-0.1c0.1-0.1,0.2-0.2,0.2-0.4c0-0.2,0.1-0.4,0.1-0.5c0-0.2,0-0.4,0-0.6l0-0.8c0-0.1,0-0.3,0-0.4
			c0-0.1,0-0.2,0-0.4c0-0.1,0-0.3,0-0.4c0-0.1,0-0.2-0.1-0.3c0-0.1-0.1-0.2-0.1-0.3c0-0.1-0.1-0.1-0.2-0.2c-0.1,0-0.2-0.1-0.3-0.1
			c0,0-0.1,0-0.1,0c0,0-0.1,0-0.1,0c0,0-0.1,0-0.1,0c0,0-0.1,0-0.1,0.1c0,0-0.1,0-0.1,0.1c0,0-0.1,0-0.1,0.1c-0.1,0-0.1,0.1-0.1,0.1
			v3.9C185.5,161.7,185.8,161.7,186.1,161.7z"/>
		<path fill="#FFFFFF" d="M189,162.7v-8.8h1.2v3.2c0.2-0.2,0.3-0.3,0.5-0.4c0.1-0.1,0.3-0.2,0.5-0.3c0.2-0.1,0.4-0.1,0.7-0.1
			c0.3,0,0.5,0.1,0.6,0.3s0.2,0.4,0.2,0.7v5.3h-1.2V158c0-0.2,0-0.4-0.1-0.5c-0.1-0.1-0.2-0.2-0.3-0.2c-0.3,0-0.5,0.1-0.8,0.4v4.9
			H189z"/>
		<path fill="#FFFFFF" d="M193.9,155.5v-1.2h1.2v1.2H193.9z M193.9,162.7v-6.2h1.2v6.2H193.9z"/>
		<path fill="#FFFFFF" d="M196.4,162.7v-6.2h1.2v0.7c0.2-0.2,0.3-0.3,0.5-0.4c0.1-0.1,0.3-0.2,0.5-0.3c0.2-0.1,0.4-0.1,0.7-0.1
			c0.3,0,0.5,0.1,0.6,0.3s0.2,0.4,0.2,0.7v5.3h-1.2V158c0-0.2,0-0.4-0.1-0.5c-0.1-0.1-0.2-0.1-0.4-0.1c-0.1,0-0.2,0-0.3,0.1
			c-0.1,0-0.2,0.1-0.2,0.1c-0.1,0-0.1,0.1-0.2,0.2v4.9H196.4z"/>
		<path fill="#FFFFFF" d="M202.9,162.8c-0.5,0-0.9-0.2-1.2-0.5c-0.3-0.3-0.5-0.7-0.6-1.2l0.9-0.3c0.2,0.6,0.5,0.9,0.9,0.9
			c0.2,0,0.4-0.1,0.5-0.2c0.1-0.1,0.2-0.3,0.2-0.5c0-0.3-0.1-0.5-0.3-0.7l-1.2-0.9c-0.1-0.1-0.3-0.2-0.4-0.3
			c-0.1-0.1-0.2-0.2-0.3-0.3c-0.1-0.1-0.2-0.3-0.2-0.4c0-0.1-0.1-0.3-0.1-0.5c0-0.5,0.2-0.9,0.5-1.2c0.3-0.3,0.8-0.4,1.4-0.4
			c0.3,0,0.5,0,0.7,0.1c0.2,0.1,0.4,0.2,0.5,0.4c0.1,0.2,0.3,0.3,0.4,0.5c0.1,0.2,0.2,0.4,0.2,0.6l-0.9,0.3c0-0.1-0.1-0.2-0.1-0.3
			c0-0.1-0.1-0.2-0.2-0.3c-0.1-0.1-0.2-0.2-0.3-0.2c-0.1-0.1-0.2-0.1-0.3-0.1c-0.2,0-0.4,0.1-0.5,0.2c-0.1,0.1-0.2,0.3-0.2,0.5
			c0,0.2,0.1,0.4,0.3,0.5l1.2,0.9c0.1,0.1,0.3,0.2,0.4,0.3c0.1,0.1,0.2,0.2,0.3,0.4c0.1,0.1,0.2,0.3,0.2,0.5s0.1,0.3,0.1,0.5
			c0,0.5-0.2,0.9-0.5,1.2C203.9,162.6,203.4,162.8,202.9,162.8z"/>
		<path fill="#FFFFFF" d="M207.5,162.7v-8.8h1.2v8.8H207.5z"/>
		<path fill="#FFFFFF" d="M210,155.5v-1.2h1.2v1.2H210z M210,162.7v-6.2h1.2v6.2H210z"/>
		<path fill="#FFFFFF" d="M213.3,162.7l-1.4-6.2h1.2l0.9,4.7l0.8-4.7h1.2l-1.4,6.2H213.3z"/>
		<path fill="#FFFFFF" d="M216.7,155.5v-1.2h1.2v1.2H216.7z M216.7,162.7v-6.2h1.2v6.2H216.7z"/>
		<path fill="#FFFFFF" d="M219.2,162.7v-6.2h1.2v0.7c0.2-0.2,0.3-0.3,0.5-0.4c0.1-0.1,0.3-0.2,0.5-0.3c0.2-0.1,0.4-0.1,0.7-0.1
			c0.3,0,0.5,0.1,0.6,0.3s0.2,0.4,0.2,0.7v5.3h-1.2V158c0-0.2,0-0.4-0.1-0.5c-0.1-0.1-0.2-0.1-0.4-0.1c-0.1,0-0.2,0-0.3,0.1
			c-0.1,0-0.2,0.1-0.2,0.1c-0.1,0-0.1,0.1-0.2,0.2v4.9H219.2z"/>
		<path fill="#FFFFFF" d="M226,164.6c-0.2,0-0.3,0-0.4,0c-0.1,0-0.2,0-0.4,0c-0.2,0-0.3,0-0.4,0c-0.1,0-0.2,0-0.4-0.1
			c-0.1,0-0.3-0.1-0.4-0.1c-0.1,0-0.2-0.1-0.3-0.2c-0.1-0.1-0.2-0.1-0.2-0.2c0-0.1-0.1-0.2-0.1-0.3c0-0.3,0.1-0.6,0.3-0.8
			c0.2-0.2,0.4-0.4,0.7-0.6c-0.2,0-0.3-0.1-0.4-0.2c-0.1-0.1-0.2-0.2-0.2-0.3c0-0.1,0-0.1,0-0.2c0-0.1,0-0.1,0-0.2
			c0-0.1,0-0.1,0.1-0.2c0-0.1,0.1-0.1,0.1-0.2c0,0,0.1-0.1,0.1-0.2c0-0.1,0.1-0.1,0.1-0.1c0,0,0.1-0.1,0.1-0.1
			c0.1-0.1,0.1-0.1,0.1-0.1c-0.4-0.5-0.6-1.1-0.6-1.9c0-0.4,0.1-0.8,0.2-1.2c0.1-0.3,0.3-0.6,0.6-0.8c0.3-0.2,0.6-0.3,1-0.3
			c0.2,0,0.4,0,0.6,0.1c0.2,0.1,0.3,0.1,0.4,0.2c0.1,0.1,0.2,0.2,0.3,0.4c0.2-0.5,0.6-0.7,1.1-0.7c0,0,0,0,0,0s0,0,0,0s0,0,0,0v1
			c0,0,0,0-0.1,0c-0.1,0-0.2,0-0.3,0c-0.1,0-0.2,0-0.2,0s-0.2,0.1-0.2,0.1c0.1,0.1,0.1,0.3,0.2,0.5s0.1,0.4,0.1,0.6
			c0,0.4-0.1,0.8-0.2,1.2c-0.1,0.3-0.3,0.6-0.6,0.8c-0.3,0.2-0.6,0.3-1,0.3l-0.6-0.1c0,0,0,0,0,0.1c0,0,0,0.1-0.1,0.1
			c0,0,0,0.1,0,0.1c0,0,0,0.1,0,0.1c0,0.1,0,0.2,0.1,0.2c0.1,0.1,0.2,0.1,0.3,0.1c0.1,0,0.3,0,0.4,0.1c0.1,0,0.3,0,0.4,0
			c0.2,0,0.3,0,0.3,0c0.2,0,0.4,0.1,0.5,0.1c0.1,0,0.3,0.1,0.4,0.1c0.2,0.1,0.3,0.1,0.4,0.2c0.1,0.1,0.2,0.2,0.2,0.4
			c0.1,0.1,0.1,0.3,0.1,0.5c0,0.2,0,0.4-0.1,0.6c-0.1,0.2-0.2,0.3-0.3,0.4c-0.1,0.1-0.3,0.2-0.5,0.3c-0.2,0.1-0.4,0.1-0.6,0.2
			C226.4,164.5,226.2,164.6,226,164.6z M226,163.6c0.1,0,0.2,0,0.2,0c0.1,0,0.2,0,0.2,0c0.1,0,0.2,0,0.2,0c0.1,0,0.1,0,0.2-0.1
			c0.1,0,0.1-0.1,0.1-0.1c0-0.1,0-0.1,0-0.2c0-0.3-0.3-0.6-1-0.6l-1-0.1c-0.1,0.1-0.2,0.2-0.3,0.4c-0.1,0.2-0.1,0.4-0.1,0.5
			c0,0.1,0,0.1,0.1,0.1c0,0,0.1,0.1,0.2,0.1c0.1,0,0.1,0,0.2,0c0.1,0,0.2,0,0.3,0c0.1,0,0.2,0,0.3,0c0.1,0,0.2,0,0.3,0
			C225.9,163.6,226,163.6,226,163.6z M225.7,160c0.5,0,0.8-0.4,0.8-1.3c0-0.2,0-0.3,0-0.5c0-0.2-0.1-0.3-0.1-0.4
			c-0.1-0.1-0.1-0.3-0.2-0.3s-0.2-0.1-0.4-0.1c-0.2,0-0.3,0-0.4,0.1s-0.2,0.2-0.2,0.3c-0.1,0.1-0.1,0.3-0.1,0.4c0,0.2,0,0.3,0,0.5
			C224.9,159.5,225.2,160,225.7,160z"/>
		<path fill="#FFFFFF" d="M230.6,155.5v-1.2h1.2v1.2H230.6z M230.6,162.7v-6.2h1.2v6.2H230.6z"/>
		<path fill="#FFFFFF" d="M233.1,162.7v-6.2h1.2v0.7c0.2-0.2,0.3-0.3,0.5-0.4c0.1-0.1,0.3-0.2,0.5-0.3c0.2-0.1,0.4-0.1,0.7-0.1
			c0.3,0,0.5,0.1,0.6,0.3s0.2,0.4,0.2,0.7v5.3h-1.2V158c0-0.2,0-0.4-0.1-0.5c-0.1-0.1-0.2-0.1-0.4-0.1c-0.1,0-0.2,0-0.3,0.1
			c-0.1,0-0.2,0.1-0.2,0.1c-0.1,0-0.1,0.1-0.2,0.2v4.9H233.1z"/>
		<path fill="#FFFFFF" d="M134.7,174.8c-0.3,0-0.6,0-0.8-0.2c-0.2-0.1-0.4-0.2-0.5-0.4c-0.1-0.2-0.2-0.4-0.3-0.6
			c-0.1-0.3-0.1-0.5-0.2-0.8c0-0.3,0-0.5-0.1-0.9c0-0.3,0-0.5,0-0.8c0-0.3,0-0.6,0.1-0.9s0.1-0.5,0.2-0.8c0.1-0.3,0.2-0.5,0.3-0.6
			s0.3-0.3,0.5-0.4c0.2-0.1,0.5-0.2,0.8-0.2c0.7,0,1.1,0.2,1.4,0.5c0.3,0.4,0.4,0.9,0.5,1.6v0.2h-1.2v-0.2c0-0.2,0-0.3,0-0.4
			s0-0.2-0.1-0.4s-0.1-0.2-0.2-0.3s-0.2-0.1-0.3-0.1s-0.2,0-0.3,0.1s-0.1,0.2-0.2,0.3s-0.1,0.3-0.1,0.4c0,0.1,0,0.3,0,0.5
			c0,0.4,0,1,0,1.8c0,0.2,0,0.3,0,0.5c0,0.1,0.1,0.3,0.1,0.4c0,0.1,0.1,0.2,0.2,0.3s0.2,0.1,0.3,0.1c0.1,0,0.2,0,0.3-0.1
			c0.1,0,0.1-0.1,0.2-0.2c0-0.1,0.1-0.1,0.1-0.2c0-0.1,0-0.2,0-0.3c0-0.1,0-0.2,0-0.3v-0.2h1.2v0.2c0,0.3-0.1,0.6-0.1,0.9
			c-0.1,0.3-0.2,0.5-0.3,0.7c-0.1,0.2-0.3,0.3-0.6,0.4C135.4,174.7,135.1,174.8,134.7,174.8z"/>
		<path fill="#FFFFFF" d="M138.5,174.8c-0.3,0-0.6-0.2-0.9-0.5c-0.2-0.3-0.4-0.6-0.4-1c0-0.3,0.1-0.6,0.2-0.8
			c0.1-0.2,0.2-0.4,0.3-0.6c0.1-0.1,0.3-0.3,0.6-0.5c0.3-0.2,0.5-0.3,0.6-0.3s0.4-0.2,0.7-0.3c0.1,0,0.1,0,0.1-0.1v-0.4
			c0-0.3,0-0.6-0.1-0.7c-0.1-0.2-0.3-0.3-0.5-0.3c-0.2,0-0.4,0.1-0.5,0.2c-0.1,0.1-0.1,0.4-0.2,0.6c0,0,0,0.1,0,0.2h-1.2
			c0-0.6,0.2-1.1,0.5-1.4c0.3-0.4,0.8-0.5,1.4-0.5c0.6,0,1,0.2,1.4,0.5c0.3,0.4,0.5,0.8,0.5,1.4v2.8c0,0.7,0.1,1.2,0.2,1.6h-1.2
			l-0.2-0.9c-0.1,0.1-0.1,0.2-0.2,0.3c0,0.1-0.1,0.2-0.2,0.3c-0.1,0.1-0.2,0.2-0.2,0.2c-0.1,0.1-0.2,0.1-0.3,0.1
			C138.8,174.8,138.6,174.8,138.5,174.8z M139.1,173.7c0.1,0,0.2,0,0.3-0.1c0.1-0.1,0.1-0.1,0.2-0.2s0.1-0.1,0.2-0.2c0,0,0,0,0,0
			v-1.7c-0.1,0-0.1,0.1-0.3,0.2c-0.1,0.1-0.2,0.1-0.3,0.2c-0.1,0-0.2,0.1-0.3,0.2s-0.2,0.2-0.2,0.2c-0.1,0.1-0.1,0.2-0.1,0.3
			c0,0.1-0.1,0.2-0.1,0.3C138.5,173.5,138.7,173.7,139.1,173.7z"/>
		<path fill="#FFFFFF" d="M142.1,176.6v-8.1h1.2v0.6c0.1-0.1,0.2-0.2,0.2-0.2s0.1-0.1,0.2-0.2c0.1-0.1,0.2-0.1,0.2-0.2
			c0.1,0,0.2-0.1,0.3-0.1c0.1,0,0.2,0,0.3,0c0.2,0,0.4,0,0.6,0.1c0.2,0.1,0.3,0.2,0.4,0.3s0.2,0.3,0.3,0.5c0.1,0.2,0.1,0.4,0.2,0.5
			c0,0.2,0.1,0.4,0.1,0.7c0,0.3,0,0.5,0,0.7c0,0.2,0,0.4,0,0.7v0.1c0,0.3,0,0.5,0,0.8c0,0.3-0.1,0.5-0.2,0.8
			c-0.1,0.3-0.2,0.5-0.3,0.7c-0.1,0.2-0.3,0.3-0.4,0.5c-0.2,0.1-0.4,0.2-0.6,0.2c-0.4,0-0.8-0.2-1.2-0.6v2.4H142.1z M144.2,173.7
			c0.1,0,0.2,0,0.3-0.1s0.2-0.2,0.2-0.4s0.1-0.4,0.1-0.5c0-0.2,0-0.4,0-0.6l0-0.8c0-0.1,0-0.3,0-0.4c0-0.1,0-0.2,0-0.4
			c0-0.1,0-0.3,0-0.4c0-0.1,0-0.2-0.1-0.3c0-0.1-0.1-0.2-0.1-0.3c-0.1-0.1-0.1-0.1-0.2-0.2c-0.1,0-0.2-0.1-0.3-0.1c0,0-0.1,0-0.1,0
			c0,0-0.1,0-0.1,0s-0.1,0-0.1,0c0,0-0.1,0-0.1,0.1c0,0-0.1,0-0.1,0.1c0,0-0.1,0-0.1,0.1c-0.1,0-0.1,0.1-0.1,0.1v3.9
			C143.6,173.7,143.9,173.7,144.2,173.7z"/>
		<path fill="#FFFFFF" d="M148.9,174.8c-0.5,0-0.8-0.1-1.1-0.4c-0.2-0.2-0.3-0.6-0.3-1.1v-3.9h-0.6v-0.9h0.6v-2.2h1.2v2.2h0.9v0.9
			h-0.9v3.6c0,0.3,0,0.4,0.1,0.6s0.2,0.2,0.4,0.2c0.1,0,0.2,0,0.4,0v1C149.3,174.8,149.1,174.8,148.9,174.8z"/>
		<path fill="#FFFFFF" d="M150.6,167.5v-1.2h1.2v1.2H150.6z M150.6,174.7v-6.2h1.2v6.2H150.6z"/>
		<path fill="#FFFFFF" d="M154,174.7l-1.4-6.2h1.2l0.9,4.7l0.8-4.7h1.2l-1.4,6.2H154z"/>
		<path fill="#FFFFFF" d="M157.4,167.5v-1.2h1.2v1.2H157.4z M157.4,174.7v-6.2h1.2v6.2H157.4z"/>
		<path fill="#FFFFFF" d="M161.6,174.8c-0.5,0-0.8-0.1-1.1-0.4c-0.2-0.2-0.3-0.6-0.3-1.1v-3.9h-0.6v-0.9h0.6v-2.2h1.2v2.2h0.9v0.9
			h-0.9v3.6c0,0.3,0,0.4,0.1,0.6s0.2,0.2,0.4,0.2c0.1,0,0.2,0,0.4,0v1C162,174.8,161.8,174.8,161.6,174.8z"/>
		<path fill="#FFFFFF" d="M163.1,176.2v-0.9c0.2,0,0.4,0,0.6,0c0.1,0,0.3-0.1,0.3-0.2c0.1-0.1,0.1-0.2,0.1-0.3c0-0.1,0-0.2,0-0.4
			l-1.4-6h1.2c0.5,2.7,0.7,4.1,0.8,4.4c0.1-0.4,0.1-0.9,0.2-1.4c0.1-0.5,0.2-1,0.3-1.6c0.1-0.6,0.2-1,0.3-1.4h1.2l-1.6,6.6
			c-0.1,0.5-0.3,0.8-0.7,1c-0.3,0.2-0.8,0.3-1.4,0.3H163.1z"/>
		<path fill="#FFFFFF" d="M167.6,175.9l-0.3-0.6c0.2,0,0.4,0,0.5-0.1c0.1-0.1,0.1-0.3,0.1-0.5h-0.6v-1.2h1.2c0,0.5,0,0.9,0,1.2
			c0,0.2,0,0.3,0,0.4c0,0.1,0,0.2-0.1,0.4c0,0.1-0.1,0.2-0.2,0.3c-0.1,0.1-0.2,0.1-0.3,0.2C167.9,175.9,167.8,175.9,167.6,175.9z"/>
		<path fill="#FFFFFF" d="M172.2,174.7l-1.2-6.2h1.1l0.7,4.7l0.7-4.7h1.1l0.7,4.7l0.7-4.7h1.1l-1.2,6.2h-1.2l-0.7-4.3l-0.7,4.3
			H172.2z"/>
		<path fill="#FFFFFF" d="M177.8,167.5v-1.2h1.2v1.2H177.8z M177.8,174.7v-6.2h1.2v6.2H177.8z"/>
		<path fill="#FFFFFF" d="M182,174.8c-0.5,0-0.8-0.1-1.1-0.4c-0.2-0.2-0.3-0.6-0.3-1.1v-3.9H180v-0.9h0.6v-2.2h1.2v2.2h0.9v0.9h-0.9
			v3.6c0,0.3,0,0.4,0.1,0.6s0.2,0.2,0.4,0.2c0.1,0,0.2,0,0.4,0v1C182.5,174.8,182.2,174.8,182,174.8z"/>
		<path fill="#FFFFFF" d="M183.7,174.7v-8.8h1.2v3.2c0.2-0.2,0.3-0.3,0.5-0.4c0.1-0.1,0.3-0.2,0.5-0.3c0.2-0.1,0.4-0.1,0.7-0.1
			c0.3,0,0.5,0.1,0.6,0.3s0.2,0.4,0.2,0.7v5.3h-1.2V170c0-0.2,0-0.4-0.1-0.5c-0.1-0.1-0.2-0.2-0.3-0.2c-0.3,0-0.5,0.1-0.8,0.4v4.9
			H183.7z"/>
		<path fill="#FFFFFF" d="M191.7,174.2c-0.3,0.4-0.8,0.6-1.4,0.6c-0.7,0-1.2-0.2-1.4-0.6c-0.3-0.4-0.4-1-0.4-1.7v-1.9
			c0-0.7,0.1-1.3,0.4-1.7c0.3-0.4,0.8-0.6,1.4-0.6c0.7,0,1.2,0.2,1.4,0.6c0.3,0.4,0.4,1,0.4,1.7v1.9
			C192.2,173.2,192,173.8,191.7,174.2z M190.1,173.7c0.1,0,0.1,0,0.2,0s0.2,0,0.2,0c0.1,0,0.1-0.1,0.2-0.1c0,0,0.1-0.1,0.1-0.2
			s0.1-0.1,0.1-0.2c0-0.1,0-0.1,0-0.2c0-0.1,0-0.2,0-0.2c0-0.1,0-0.2,0-0.3v-1.9c0-0.1,0-0.2,0-0.3c0-0.1,0-0.1,0-0.2
			c0-0.1,0-0.2,0-0.2c0-0.1,0-0.1-0.1-0.2s-0.1-0.1-0.1-0.2c0,0-0.1-0.1-0.2-0.1c-0.1,0-0.1,0-0.2,0s-0.2,0-0.2,0
			c-0.1,0-0.1,0.1-0.2,0.1c0,0-0.1,0.1-0.1,0.2s-0.1,0.1-0.1,0.2c0,0.1,0,0.1,0,0.2c0,0.1,0,0.2,0,0.2c0,0.1,0,0.2,0,0.3v1.9
			c0,0.1,0,0.2,0,0.3c0,0.1,0,0.1,0,0.2c0,0.1,0,0.2,0,0.2c0,0.1,0,0.1,0.1,0.2s0.1,0.1,0.1,0.2C189.9,173.7,190,173.7,190.1,173.7z
			"/>
		<path fill="#FFFFFF" d="M194.1,174.8c-0.3,0-0.5-0.1-0.7-0.3c-0.2-0.2-0.2-0.4-0.2-0.7v-5.3h1.2v4.9c0,0.1,0,0.2,0.1,0.3
			c0.1,0.1,0.2,0.1,0.3,0.1c0.1,0,0.1,0,0.2,0c0.1,0,0.1,0,0.2-0.1c0.1,0,0.1-0.1,0.1-0.1c0,0,0.1-0.1,0.2-0.1
			c0.1-0.1,0.1-0.1,0.1-0.1v-4.9h1.2v6.2h-1.2V174c-0.1,0.1-0.2,0.2-0.3,0.2c-0.1,0-0.1,0.1-0.3,0.2s-0.2,0.1-0.3,0.2
			c-0.1,0-0.2,0.1-0.3,0.1C194.4,174.8,194.2,174.8,194.1,174.8z"/>
		<path fill="#FFFFFF" d="M199.7,174.8c-0.5,0-0.8-0.1-1.1-0.4c-0.2-0.2-0.3-0.6-0.3-1.1v-3.9h-0.6v-0.9h0.6v-2.2h1.2v2.2h0.9v0.9
			h-0.9v3.6c0,0.3,0,0.4,0.1,0.6s0.2,0.2,0.4,0.2c0.1,0,0.2,0,0.4,0v1C200.2,174.8,199.9,174.8,199.7,174.8z"/>
		<path fill="#FFFFFF" d="M203.5,174.7v-8.8h1.2v3.2c0.2-0.2,0.3-0.3,0.5-0.4c0.1-0.1,0.3-0.2,0.5-0.3c0.2-0.1,0.4-0.1,0.7-0.1
			c0.3,0,0.5,0.1,0.6,0.3s0.2,0.4,0.2,0.7v5.3H206V170c0-0.2,0-0.4-0.1-0.5c-0.1-0.1-0.2-0.2-0.3-0.2c-0.3,0-0.5,0.1-0.8,0.4v4.9
			H203.5z"/>
		<path fill="#FFFFFF" d="M209.2,174.8c-0.3,0-0.5-0.1-0.7-0.3c-0.2-0.2-0.2-0.4-0.2-0.7v-5.3h1.2v4.9c0,0.1,0,0.2,0.1,0.3
			c0.1,0.1,0.2,0.1,0.3,0.1c0.1,0,0.1,0,0.2,0c0.1,0,0.1,0,0.2-0.1c0.1,0,0.1-0.1,0.1-0.1c0,0,0.1-0.1,0.2-0.1
			c0.1-0.1,0.1-0.1,0.1-0.1v-4.9h1.2v6.2h-1.2V174c-0.1,0.1-0.2,0.2-0.3,0.2c-0.1,0-0.1,0.1-0.3,0.2s-0.2,0.1-0.3,0.2
			c-0.1,0-0.2,0.1-0.3,0.1C209.5,174.8,209.3,174.8,209.2,174.8z"/>
		<path fill="#FFFFFF" d="M213.1,174.7v-6.2h1.2v0.7c0.4-0.5,1-0.8,1.6-0.8c0.3,0,0.5,0.1,0.7,0.2c0.1,0.1,0.2,0.3,0.3,0.6
			c0.2-0.3,0.4-0.5,0.7-0.6c0.2-0.1,0.5-0.2,0.9-0.2c0.1,0,0.2,0,0.3,0c0.1,0,0.2,0,0.2,0.1c0.1,0,0.1,0.1,0.2,0.1
			c0,0.1,0.1,0.1,0.1,0.2c0,0,0.1,0.1,0.1,0.2c0,0.1,0,0.2,0,0.2c0,0.1,0,0.2,0,0.3c0,0.1,0,0.2,0,0.3s0,0.2,0,0.3c0,0,0,0.1,0,0.1
			v4.5h-1.2v-4.6c0,0,0,0,0-0.1c0-0.1,0-0.2,0-0.2c0-0.1,0-0.1,0-0.2c0-0.1,0-0.1-0.1-0.2c0,0-0.1-0.1-0.2-0.1c-0.1,0-0.3,0-0.4,0.1
			c-0.1,0-0.2,0.1-0.3,0.1c-0.1,0-0.2,0.1-0.3,0.2v4.9h-1.2v-4.5c0,0,0,0,0-0.1c0-0.1,0-0.2,0-0.2c0,0,0-0.1,0-0.2
			c0-0.1,0-0.1,0-0.2c0,0-0.1-0.1-0.1-0.1c0,0-0.1,0-0.2,0c-0.3,0-0.6,0.1-0.9,0.4v4.9H213.1z"/>
		<path fill="#FFFFFF" d="M221.6,174.8c-0.3,0-0.6-0.2-0.9-0.5c-0.2-0.3-0.4-0.6-0.4-1c0-0.3,0.1-0.6,0.2-0.8
			c0.1-0.2,0.2-0.4,0.3-0.6c0.1-0.1,0.3-0.3,0.6-0.5c0.3-0.2,0.5-0.3,0.6-0.3s0.4-0.2,0.7-0.3c0.1,0,0.1,0,0.1-0.1v-0.4
			c0-0.3,0-0.6-0.1-0.7c-0.1-0.2-0.3-0.3-0.5-0.3c-0.2,0-0.4,0.1-0.5,0.2c-0.1,0.1-0.1,0.4-0.2,0.6c0,0,0,0.1,0,0.2h-1.2
			c0-0.6,0.2-1.1,0.5-1.4c0.3-0.4,0.8-0.5,1.4-0.5c0.6,0,1,0.2,1.4,0.5c0.3,0.4,0.5,0.8,0.5,1.4v2.8c0,0.7,0.1,1.2,0.2,1.6H223
			l-0.2-0.9c-0.1,0.1-0.1,0.2-0.2,0.3c0,0.1-0.1,0.2-0.2,0.3c-0.1,0.1-0.2,0.2-0.2,0.2c-0.1,0.1-0.2,0.1-0.3,0.1
			C221.8,174.8,221.7,174.8,221.6,174.8z M222.2,173.7c0.1,0,0.2,0,0.3-0.1c0.1-0.1,0.1-0.1,0.2-0.2c0,0,0.1-0.1,0.2-0.2
			c0,0,0,0,0,0v-1.7c-0.1,0-0.1,0.1-0.3,0.2c-0.1,0.1-0.2,0.1-0.3,0.2c-0.1,0-0.2,0.1-0.3,0.2c-0.1,0.1-0.2,0.2-0.2,0.2
			c-0.1,0.1-0.1,0.2-0.1,0.3c0,0.1-0.1,0.2-0.1,0.3C221.6,173.5,221.8,173.7,222.2,173.7z"/>
		<path fill="#FFFFFF" d="M225.1,174.7v-6.2h1.2v0.7c0.2-0.2,0.3-0.3,0.5-0.4c0.1-0.1,0.3-0.2,0.5-0.3c0.2-0.1,0.4-0.1,0.7-0.1
			c0.3,0,0.5,0.1,0.6,0.3s0.2,0.4,0.2,0.7v5.3h-1.2V170c0-0.2,0-0.4-0.1-0.5c-0.1-0.1-0.2-0.1-0.4-0.1c-0.1,0-0.2,0-0.3,0.1
			c-0.1,0-0.2,0.1-0.2,0.1c-0.1,0-0.1,0.1-0.2,0.2v4.9H225.1z"/>
		<path fill="#FFFFFF" d="M233.7,174.8c-0.5,0-0.8-0.1-1.1-0.4c-0.2-0.2-0.3-0.6-0.3-1.1v-3.9h-0.6v-0.9h0.6v-2.2h1.2v2.2h0.9v0.9
			h-0.9v3.6c0,0.3,0,0.4,0.1,0.6s0.2,0.2,0.4,0.2c0.1,0,0.2,0,0.4,0v1C234.2,174.8,233.9,174.8,233.7,174.8z"/>
		<path fill="#FFFFFF" d="M235.4,174.7v-6.2h1.2v0.8c0.1-0.2,0.3-0.5,0.6-0.6c0.2-0.2,0.5-0.3,0.8-0.3c0,0,0.1,0,0.2,0v1.4
			c-0.2-0.1-0.5-0.1-0.7-0.1c-0.3,0-0.5,0.1-0.6,0.2c-0.2,0.2-0.2,0.4-0.2,0.6v4.2H235.4z"/>
		<path fill="#FFFFFF" d="M239.9,174.8c-0.3,0-0.6-0.2-0.9-0.5c-0.2-0.3-0.4-0.6-0.4-1c0-0.3,0.1-0.6,0.2-0.8
			c0.1-0.2,0.2-0.4,0.3-0.6c0.1-0.1,0.3-0.3,0.6-0.5c0.3-0.2,0.5-0.3,0.6-0.3s0.4-0.2,0.7-0.3c0.1,0,0.1,0,0.1-0.1v-0.4
			c0-0.3,0-0.6-0.1-0.7c-0.1-0.2-0.3-0.3-0.5-0.3c-0.2,0-0.4,0.1-0.5,0.2c-0.1,0.1-0.1,0.4-0.2,0.6c0,0,0,0.1,0,0.2h-1.2
			c0-0.6,0.2-1.1,0.5-1.4c0.3-0.4,0.8-0.5,1.4-0.5c0.6,0,1,0.2,1.4,0.5c0.3,0.4,0.5,0.8,0.5,1.4v2.8c0,0.7,0.1,1.2,0.2,1.6h-1.2
			l-0.2-0.9c-0.1,0.1-0.1,0.2-0.2,0.3c0,0.1-0.1,0.2-0.2,0.3c-0.1,0.1-0.2,0.2-0.2,0.2c-0.1,0.1-0.2,0.1-0.3,0.1
			C240.2,174.8,240,174.8,239.9,174.8z M240.5,173.7c0.1,0,0.2,0,0.3-0.1c0.1-0.1,0.1-0.1,0.2-0.2c0,0,0.1-0.1,0.2-0.2c0,0,0,0,0,0
			v-1.7c-0.1,0-0.1,0.1-0.3,0.2c-0.1,0.1-0.2,0.1-0.3,0.2c-0.1,0-0.2,0.1-0.3,0.2c-0.1,0.1-0.2,0.2-0.2,0.2
			c-0.1,0.1-0.1,0.2-0.1,0.3c0,0.1-0.1,0.2-0.1,0.3C239.9,173.5,240.1,173.7,240.5,173.7z"/>
		<path fill="#FFFFFF" d="M243.5,167.5v-1.2h1.2v1.2H243.5z M243.5,174.7v-6.2h1.2v6.2H243.5z"/>
		<path fill="#FFFFFF" d="M246,174.7v-6.2h1.2v0.7c0.2-0.2,0.3-0.3,0.5-0.4c0.1-0.1,0.3-0.2,0.5-0.3c0.2-0.1,0.4-0.1,0.7-0.1
			c0.3,0,0.5,0.1,0.6,0.3s0.2,0.4,0.2,0.7v5.3h-1.2V170c0-0.2,0-0.4-0.1-0.5c-0.1-0.1-0.2-0.1-0.4-0.1c-0.1,0-0.2,0-0.3,0.1
			c-0.1,0-0.2,0.1-0.2,0.1c-0.1,0-0.1,0.1-0.2,0.2v4.9H246z"/>
		<path fill="#FFFFFF" d="M252.6,174.8c-0.3,0-0.6-0.1-0.8-0.2c-0.2-0.1-0.4-0.2-0.5-0.4c-0.1-0.2-0.2-0.4-0.3-0.6
			c-0.1-0.3-0.1-0.5-0.2-0.8c0-0.3,0-0.6-0.1-0.9c0-0.3,0-0.5,0-0.8c0-0.3,0-0.6,0.1-0.9c0-0.3,0.1-0.5,0.2-0.7
			c0.1-0.2,0.2-0.4,0.3-0.6c0.1-0.2,0.3-0.3,0.5-0.4s0.5-0.1,0.8-0.1c0.3,0,0.5,0,0.7,0.1c0.2,0.1,0.4,0.2,0.5,0.3
			c0.1,0.1,0.2,0.3,0.3,0.5c0.1,0.2,0.2,0.4,0.2,0.6c0,0.2,0.1,0.5,0.1,0.7c0,0.2,0,0.5,0,0.8v0.1H252v0.3c0,0,0,0.1,0,0.2
			c0,0.1,0,0.2,0,0.4c0,0.1,0,0.3,0,0.4c0,0.1,0,0.2,0.1,0.4s0.1,0.2,0.1,0.3c0,0.1,0.1,0.2,0.2,0.2c0.1,0,0.2,0.1,0.3,0.1
			c0.1,0,0.2,0,0.3-0.1c0.1-0.1,0.1-0.1,0.2-0.2c0-0.1,0.1-0.2,0.1-0.3c0-0.1,0-0.2,0-0.4v-0.3h1.2v0.2c0,0.7-0.2,1.2-0.5,1.5
			C253.7,174.6,253.2,174.8,252.6,174.8z M252,170.9h1.2v-0.4c0-0.2,0-0.3,0-0.4c0-0.1,0-0.2-0.1-0.4c0-0.1-0.1-0.2-0.2-0.3
			c-0.1-0.1-0.2-0.1-0.3-0.1c-0.1,0-0.2,0-0.3,0.1c-0.1,0.1-0.1,0.2-0.2,0.3c0,0.1-0.1,0.3-0.1,0.4c0,0.1,0,0.3,0,0.4V170.9z"/>
		<path fill="#FFFFFF" d="M255.4,174.7v-6.2h1.2v0.8c0.1-0.2,0.3-0.5,0.6-0.6c0.2-0.2,0.5-0.3,0.8-0.3c0,0,0.1,0,0.2,0v1.4
			c-0.2-0.1-0.5-0.1-0.7-0.1c-0.3,0-0.5,0.1-0.6,0.2c-0.2,0.2-0.2,0.4-0.2,0.6v4.2H255.4z"/>
		<path fill="#FFFFFF" d="M260.4,174.8c-0.5,0-0.9-0.2-1.2-0.5c-0.3-0.3-0.5-0.7-0.6-1.2l0.9-0.3c0.2,0.6,0.5,0.9,0.9,0.9
			c0.2,0,0.4-0.1,0.5-0.2c0.1-0.1,0.2-0.3,0.2-0.5c0-0.3-0.1-0.5-0.3-0.7l-1.2-0.9c-0.1-0.1-0.3-0.2-0.4-0.3
			c-0.1-0.1-0.2-0.2-0.3-0.3c-0.1-0.1-0.2-0.3-0.2-0.4c0-0.1-0.1-0.3-0.1-0.5c0-0.5,0.2-0.9,0.5-1.2c0.3-0.3,0.8-0.4,1.4-0.4
			c0.3,0,0.5,0,0.7,0.1c0.2,0.1,0.4,0.2,0.5,0.4c0.1,0.2,0.3,0.3,0.4,0.5c0.1,0.2,0.2,0.4,0.2,0.6l-0.9,0.3c0-0.1-0.1-0.2-0.1-0.3
			c0-0.1-0.1-0.2-0.2-0.3c-0.1-0.1-0.2-0.2-0.3-0.2c-0.1-0.1-0.2-0.1-0.3-0.1c-0.2,0-0.4,0.1-0.5,0.2c-0.1,0.1-0.2,0.3-0.2,0.5
			c0,0.2,0.1,0.4,0.3,0.5l1.2,0.9c0.1,0.1,0.3,0.2,0.4,0.3c0.1,0.1,0.2,0.2,0.3,0.4c0.1,0.1,0.2,0.3,0.2,0.5s0.1,0.3,0.1,0.5
			c0,0.5-0.2,0.9-0.5,1.2C261.4,174.6,261,174.8,260.4,174.8z"/>
		<path fill="#FFFFFF" d="M262.8,174.7v-1.2h1.2v1.2H262.8z"/>
	</g>
	<g>
	</g>
	<g>
	</g>
	<g>
	</g>
	<g>
	</g>
	<g>
	</g>
	<g>
	</g>
</g>
</svg>
