<?xml version="1.0" encoding="utf-8"?>
<!-- Generator: Adobe Illustrator 19.1.0, SVG Export Plug-In . SVG Version: 6.00 Build 0)  -->
<svg version="1.1" id="Layer_1" xmlns="http://www.w3.org/2000/svg" xmlns:xlink="http://www.w3.org/1999/xlink" x="0px" y="0px"
	 width="288px" height="288px" viewBox="0 0 288 288" style="enable-background:new 0 0 288 288;" xml:space="preserve">
<style type="text/css">
	.st0{fill:#82A092;}
	.st1{fill:#9BBDAC;}
	.st2{fill:#FFFFFF;}
	.st3{fill:none;stroke:#82A092;stroke-miterlimit:10;}
	.st4{fill:#ED1F2E;}
</style>
<g>
	<path class="st0" d="M75.9,199.9l16.5,8.8l1.7-2l4.3-5.1c-1-3.2-2.2-6.9-3.4-10.9c-1.2-4.1-2.5-8.5-3.8-13.2
		c-0.1,0.1-0.6,1.6-1.6,3.6c1.7,5.4,5.7,18.7,6.1,19.9c0,0-0.6,6.3-5.2,4.5c-3.4-1.4-9.5-5-12.5-6.9
		C77.2,199.1,76.5,199.6,75.9,199.9z"/>
	<path class="st1" d="M77.8,198.6c3,1.9,9.1,5.5,12.5,6.9c4.6,1.8,5.2-4.5,5.2-4.5c-0.4-1.2-4.4-14.5-6.1-19.9
		C87.2,186,82.8,194.5,77.8,198.6z"/>
	<path class="st0" d="M207.2,191.9l1.9,3.7c6.9-6.9,12.5-18,15.5-24.6c-1.1-2.4-1.9-4-1.9-4.1C218,176.1,212.5,184.6,207.2,191.9z"
		/>
	<path class="st0" d="M209.1,195.7l11.9,23.5l17.3-8c0-0.7-0.1-1.4-0.2-2.2l-15.1,5.9c-1.9-1.1-10.9-22.6-10.9-22.6
		C211.2,193.5,210.1,194.6,209.1,195.7z"/>
	<path class="st1" d="M212.1,192.3c0,0,8.9,21.5,10.9,22.6l15.1-5.9c-1.6-10.7-9.8-29.6-13.6-37.9
		C222.1,176.6,217.6,185.5,212.1,192.3z"/>
	<path class="st0" d="M59.3,169.4c12.5,1.6,21.5-1.4,28-6.3c6.5-5,11.7-9.7,15.6-13.5c1.5-1.4,2.7-2.7,3.8-3.9
		c0.5-0.5,0.9-1,1.3-1.4c-0.7,0.7-1.5,1.6-2.4,2.4c-3.9,3.8-9.1,8.5-15.6,13.5c-6.5,5-15.5,7.9-28,6.3c-31.5-4-26.8-22.5-22.2-32.1
		c0.4-0.8,0.8-1.5,1.1-2.2c-0.2-0.2-0.4-0.4-0.5-0.7c0,0-1.7,2.3-3.4,5.7C32.4,146.9,27.7,165.4,59.3,169.4z"/>
	<path class="st1" d="M62,166.5c12.5,1.6,21.5-1.4,28-6.3c6.5-5,11.7-9.7,15.6-13.5c0.9-0.8,1.7-1.7,2.4-2.4
		c2.1-2.3,3.2-3.7,3.2-3.7s0,0.1,0,0.3c-0.1,1-0.4,4.1-1.6,8.1c0,0,0,0,0,0.1c-1.2,4-3.3,8.7-6.8,13c-1.1,1.4-2.5,2.7-4,4
		c-1.8,1.5-3.9,2.8-6.3,3.9c-0.4,0.2-0.9,0.4-1.3,0.6c-0.6,0.3-1.2,0.5-1.9,0.7c0.2,0.8,0.4,1.6,0.6,2.3c0.4,1.3,0.7,2.6,1.1,3.9
		c1.3,4.7,2.6,9.2,3.8,13.2c1.2,4.1,2.4,7.7,3.4,10.9c1.1,3.5,2.1,6.4,2.8,8.4c3.1,0.1,9.2,0.1,13.8-1.2c4.9-1.4,4.8-5.3,4.5-6.9
		c0-0.2-0.1-0.4-0.1-0.6c0-0.1-0.1-0.2-0.1-0.2c-0.1-0.3-0.1-0.6-0.2-0.8c-0.6-2.8-1.3-5.8-1.9-8.9c-0.2-0.9-0.4-1.7-0.5-2.6
		c-0.4-2.2-0.8-4.3-1.2-6.3c-0.1-0.4-0.1-0.7-0.2-1.1c-0.1-0.4-0.1-0.8-0.2-1.1c-0.1-0.9-0.3-1.7-0.3-2.6c-0.2-1.6-0.3-3-0.3-4.2
		c0-1.3,0.3-2.5,0.9-3.7c0.7-1.3,3.2-3.6,3.2-3.6c10.5-8.4,40.7-11.7,57.3-2.5c7,3.9,8.6,10.2,7.8,16.9c0,0.3-0.1,0.5-0.1,0.8
		c0,0.2-0.1,0.4-0.1,0.5c-0.1,0.3-0.1,0.6-0.2,0.9c0,0.1-0.1,0.3-0.1,0.4c-0.1,0.3-0.1,0.7-0.2,1c-0.3,1.1-0.6,2.2-1,3.2
		c-0.1,0.4-0.3,0.8-0.4,1.2c-0.7,2-1.6,4-2.5,5.8c-0.2,0.4-0.4,0.8-0.6,1.2c-1.3,2.5-2.7,4.9-3.9,6.8c-0.1,0.1-0.2,0.3-0.3,0.4
		c-0.6,1.2-1.9,4.5,2.9,7c5.9,3.1,13.9,1.6,16.4-1.6c2.9-3.5,6-7.6,9.3-12c5.3-7.4,10.8-15.9,15.4-25c2.9-5.6,5.4-11.5,7.4-17.5
		c0.4-1.2,0.8-2.3,1.1-3.5c11-37.5-18.5-64.1-51.1-69.3c-13.2-2.1-28.5-3.9-43.2-3.8c-0.7,0-1.3,0-2,0c-0.3,0-0.5,0-0.8,0
		c0.2,0.2,0.3,0.3,0.5,0.4c0.5,0.4,0.7,0.7,0.7,0.7l-4.4,6.3l-2.3,3.3c-6.6-5.1-12.6-7.2-17.1-8c-5-0.9-8.3-0.1-8.6,0c0,0,0,0,0,0
		c-3.8,1.8-7.2,4.1-10,6.8c-1.2,1.1-2.3,2.2-3.3,3.5c-0.2,0.2-0.3,0.4-0.4,0.5c-0.9,1.1-1.6,2.4-2.2,3.8c-1.5,3.5-2.4,7.9-2.7,13
		c0,0,0,0,0,0.1c0,0.5,0.2,4-0.1,9c-0.3,6.5-1.2,15.6-3.7,23.7c-1.4,4.5-3.4,8.8-6,12.1c-1.2,1.5-2.5,2.8-3.9,3.8
		c-3.3,2.4-7.3,3.6-12.3,3.1c-3.7-0.4-6.5-1.1-8.6-2.1c0,0,0,0,0,0c-3.3-1.5-4.9-3.6-5.6-6c-0.8-2.8,0-6,1.3-8.9
		c2.4-5.4,6.7-10.1,6.9-10.3c-0.1,0-0.9,0.4-2.1,0.7c-1.5,0.4-3.5,0.6-4.6-0.5c-0.4,0.6-0.7,1.4-1.1,2.2c-0.4,0.8-0.7,1.6-1.1,2.4
		c0,0,0,0,0,0.1C34.7,146.9,33.1,162.8,62,166.5z"/>
	<g>
		<path class="st0" d="M129.8,93.6c0,0,0.5,0,1.4,0.3c0.9,0.3,2.1,0.7,3.6,1.6c3,1.6,7,4.5,11.1,8.6c1,1,2.1,2.1,3.1,3.4
			c1,1.3,1.9,2.8,2.2,4.8c0.1,1,0.1,2-0.3,3c-0.3,1-0.8,1.8-1.4,2.6c-1.1,1.5-2.4,2.7-3.1,4c-0.4,0.6-0.5,1.3-0.5,1.9
			c0,0.6,0.3,1.6,0.5,2.5c0.4,1.8,0.8,3.7,1.1,5.6c0.5,3.8,0.8,7.9-0.1,11.9c-0.5,2-1.4,4.1-2.9,5.7c-1.5,1.7-3.6,2.8-5.6,3.2
			c-2.1,0.5-4.1,0.5-6.1,0.2l-0.2,0l0,0l-0.1,0l-0.1,0l-0.3-0.1l-0.7-0.1c-0.2,0-0.4-0.1-0.7-0.1l-0.8-0.2c-1-0.3-1.9-0.7-2.8-1.2
			c-1.8-0.9-3.2-2.2-4.4-3.6c-1.2-1.4-2.2-2.9-3-4.4c-1.6-3.1-2.5-6.2-3.1-9c-1.2-5.7-1.3-10.6-1.3-14c0-1.7,0.1-3,0.1-3.9
			c0.1-0.9,0.1-1.4,0.1-1.4s0,1.9,0.3,5.3c0.3,3.3,0.9,8.1,2.4,13.6c0.4,1.4,0.8,2.8,1.4,4.2c0.5,1.4,1.2,2.8,2,4.2
			c0.8,1.4,1.7,2.7,2.8,3.9c1.1,1.2,2.4,2.2,3.8,2.9c2.7,1.4,6.6,1.8,9.9,1.1c1.6-0.4,3-1.2,4.1-2.4c1-1.2,1.8-2.8,2.1-4.5
			c0.8-3.4,0.6-7.2,0.1-10.8c-0.3-1.8-0.6-3.6-0.9-5.4c-0.2-0.9-0.4-1.7-0.5-3c0-1.2,0.3-2.4,0.9-3.3c1.1-1.8,2.5-3,3.5-4.3
			c1-1.2,1.6-2.5,1.4-3.8c-0.1-1.3-0.8-2.7-1.6-3.9c-0.8-1.2-1.8-2.4-2.7-3.4c-1.9-2.1-3.7-4-5.4-5.6c-1.7-1.5-3.3-2.8-4.7-3.7
			c-1.4-0.9-2.5-1.6-3.4-1.9C130.3,93.7,129.8,93.6,129.8,93.6z"/>
	</g>
	
		<ellipse transform="matrix(-0.9971 -7.629651e-02 7.629651e-02 -0.9971 190.3317 279.5901)" class="st2" cx="100.5" cy="136.2" rx="3.8" ry="4.6"/>
	<path class="st3" d="M225.3,108.9c0,0,19.5,34.5,25,33.6"/>
	<path class="st0" d="M188.9,214.4c4-4.3,11-12.3,18.3-22.5c0,0,0,0,0,0c0.3-0.5,0.7-0.9,1-1.4c1.3-1.9,2.7-3.8,4-5.8
		c1-1.5,2-3,3-4.6c0.5-0.8,1-1.6,1.5-2.4c0.5-0.8,1-1.6,1.4-2.4c0.6-1.1,1.3-2.2,1.9-3.3c0.9-1.7,1.8-3.3,2.7-5c0,0,0,0,0,0
		c3.4-6.8,6.4-13.8,8.5-21c2.6-8.9,2.9-17.2,1.5-24.8c0,0,0,0,0,0s0,0,0,0c-4.7-24.2-27.8-40.6-52.6-44.5c-17.2-2.8-37.9-5-56.2-3.1
		c0,0,0,0,0,0c-3.1,0.3-6.1,0.7-9,1.3h0c-1.8,0.3-3.6,0.8-5.4,1.2h0h0c-3.9,1-7.6,2.4-11,4.1c0,0,0.1,0,0.2-0.1c0,0,0,0,0,0
		c0.1,0,0.3-0.1,0.5-0.1c0.1,0,0.3-0.1,0.5-0.1c0,0,0,0,0,0c0.2,0,0.3-0.1,0.6-0.1c0.1,0,0.2,0,0.3,0c0.2,0,0.5,0,0.7-0.1
		c1-0.1,2.4-0.1,3.9,0.1c0.2,0,0.4,0,0.6,0.1c0.4,0.1,0.8,0.1,1.3,0.2c7-1.7,14.7-2.5,22.6-2.7c0,0,0,0,0,0c0.7,0,1.5,0,2.2,0h0.2
		h0.4c1.4,0,2.9,0,4.3,0c0.9,0,1.8,0,2.6,0.1c1.8,0.1,3.7,0.1,5.5,0.2c0.2,0,0.3,0,0.5,0c1.2,0.1,2.4,0.1,3.6,0.2c0.3,0,0.6,0,1,0.1
		c0.9,0.1,1.8,0.1,2.7,0.2c0,0,0.1,0,0.1,0c0.9,0.1,1.7,0.2,2.6,0.2c0.7,0.1,1.4,0.1,2.1,0.2c0.9,0.1,1.8,0.2,2.7,0.3
		c0.3,0,0.7,0.1,1,0.1c1.6,0.2,3.1,0.4,4.6,0.6c0.9,0.1,1.7,0.2,2.5,0.3c0.8,0.1,1.7,0.2,2.5,0.4c1.7,0.2,3.3,0.5,4.9,0.8
		c0.6,0.1,1.3,0.2,1.9,0.3c0.6,0.1,1.3,0.2,1.9,0.4c0.6,0.1,1.3,0.3,1.9,0.4c0.7,0.2,1.3,0.3,1.9,0.5c0.6,0.2,1.3,0.3,1.9,0.5
		c1.3,0.4,2.5,0.8,3.8,1.2c1,0.4,2.1,0.8,3.1,1.2c0.2,0.1,0.5,0.2,0.7,0.3c0.4,0.2,0.9,0.4,1.3,0.5c0.6,0.3,1.2,0.5,1.8,0.8
		c0.3,0.2,0.7,0.3,1,0.5c2.7,1.3,5.4,2.8,7.9,4.5c0.7,0.5,1.4,1,2.1,1.5c0.9,0.6,1.7,1.3,2.5,1.9c0.4,0.3,0.8,0.7,1.2,1
		c0.4,0.3,0.8,0.7,1.2,1c0.6,0.6,1.2,1.1,1.9,1.7c1.2,1.2,2.4,2.4,3.4,3.7c0.5,0.6,1,1.2,1.4,1.8c0.2,0.3,0.5,0.6,0.7,1
		c0.5,0.7,1,1.3,1.4,2c0.2,0.3,0.5,0.7,0.7,1c0.7,1,1.3,2.1,1.9,3.2c0.2,0.3,0.4,0.6,0.5,1c0.2,0.3,0.4,0.7,0.5,1c0,0,0,0.1,0,0.1
		c0.2,0.3,0.3,0.7,0.5,1.1c0.2,0.4,0.3,0.7,0.5,1.1c0.2,0.4,0.3,0.8,0.5,1.1c0.1,0.4,0.3,0.8,0.4,1.2c0.1,0.4,0.3,0.8,0.4,1.2
		c0.1,0.3,0.2,0.7,0.3,1.1c0.1,0.5,0.3,0.9,0.4,1.4c0.1,0.4,0.2,0.7,0.3,1.1c0.2,0.7,0.3,1.4,0.5,2.2c0.1,0.4,0.1,0.7,0.2,1.1
		c0.1,0.6,0.2,1.2,0.3,1.9c0,0.4,0.1,0.8,0.1,1.1c0.1,0.4,0.1,0.9,0.1,1.3c0,0.4,0.1,0.8,0.1,1.3c0.3,5.7-0.4,11.8-2.3,18.2
		c0,0.1-0.1,0.3-0.1,0.4c-0.1,0.2-0.1,0.4-0.2,0.5c-0.1,0.3-0.2,0.5-0.2,0.8c0,0.1-0.1,0.2-0.1,0.3c0,0.1,0,0.1,0,0.2
		c-0.1,0.4-0.3,0.9-0.4,1.3c-0.2,0.6-0.4,1.2-0.6,1.8c-0.1,0.3-0.2,0.6-0.3,0.9c-0.2,0.6-0.4,1.2-0.7,1.8c0,0.1-0.1,0.1-0.1,0.2
		c-0.1,0.4-0.3,0.7-0.4,1.1c0,0.1,0,0.1-0.1,0.2c-0.2,0.5-0.4,1-0.6,1.5c0,0.1,0,0.1-0.1,0.1c0,0.1-0.1,0.1-0.1,0.2
		c0,0.1,0,0.1-0.1,0.2c-0.2,0.5-0.4,1-0.6,1.5c-0.2,0.6-0.5,1.1-0.7,1.7c-0.2,0.4-0.4,0.9-0.6,1.3c0,0,0,0,0,0
		c-0.3,0.7-0.6,1.3-0.9,2c-0.1,0.1-0.1,0.2-0.1,0.3c-0.1,0.2-0.2,0.5-0.3,0.7c-0.3,0.7-0.7,1.4-1.1,2.1c-1.2,2.3-2.4,4.5-3.6,6.7
		c-0.6,1.1-1.3,2.2-1.9,3.3c-0.5,0.9-1.1,1.8-1.6,2.7c-2.1,3.3-4.2,6.5-6.3,9.5c-0.7,0.9-1.3,1.9-2,2.8c-0.9,1.3-1.8,2.5-2.7,3.7
		c-0.3,0.4-0.6,0.8-0.9,1.2c-0.4,0.5-0.8,1-1.2,1.5c-0.8,1-1.5,2-2.3,2.9c-0.8,0.9-1.5,1.8-2.2,2.7c-0.9,1.1-1.7,2.1-2.5,3
		c-0.3,0.4-0.7,0.8-1,1.2c-0.2,0.3-0.4,0.5-0.6,0.8c-0.2,0.3-0.4,0.5-0.7,0.8h0L188.9,214.4z"/>
	<path class="st2" d="M99.3,68.3l-0.9,11.8c0,0,0,0,0,0c0.3-0.1,3.6-0.9,8.6,0c4.5,0.8,10.5,2.8,17.1,8l6.6-9.5c0,0-0.4-0.4-1.2-1.1
		c-1.1-1-3-2.5-5.8-3.9C118.7,70.7,110.6,67.9,99.3,68.3z"/>
	<polygon class="st4" points="113.6,72 110.1,71.1 109.9,74.2 106.6,73.5 105.9,75.3 109.6,75.8 108.4,78.3 112.1,79 112.1,76.2 
		114.8,77.1 116.4,75.1 112.8,74.5 	"/>
	<path class="st0" d="M248.2,142.3c7.8,9.1,10.4-3.7,10.4-3.7C251.7,135.9,248.2,142.3,248.2,142.3z"/>
	<path class="st0" d="M193.4,208.6c-0.9,1.1-1.7,2.1-2.5,3c-0.3,0.4-0.7,0.8-1,1.2c-0.2,0.3-0.4,0.5-0.7,0.8
		c-0.2,0.3-0.5,0.5-0.7,0.8c-7.6-2.5-15.3-4.6-23-6.1c5.8-6.2,27-30.9,8.9-40.9c-16.5-9.2-44.3-5.8-54.8,2.7c0,0,0,0,0,0
		c-1.4,1.1-2.5,2.3-3.2,3.6c-0.6,1.2-1,2.4-1,3.7c0.3,10.5,5.2,24.3,7.2,29.5c0.1,0.2,0.2,0.4,0.2,0.5c-7.7,1.3-14.6,3.3-21,5.7
		c-0.2-1-0.5-2.1-0.8-3c3.1,0.1,9.4,0.4,17.8-4.2c0.1-0.1,0.1-0.2,0.1-0.3c0.1-0.2,0.2-0.4,0.2-0.6c0-0.1,0-0.2,0.1-0.3
		c0-0.1,0-0.2,0.1-0.3c0.1-0.5,0.1-0.9,0.1-1.3c0-0.1,0-0.2,0-0.3c0-0.1,0-0.2,0-0.2c0-0.2,0-0.4-0.1-0.6c0-0.1-0.1-0.2-0.1-0.3
		c0-0.1,0-0.2-0.1-0.2c0-0.1,0-0.1,0-0.2c0,0,0,0,0,0c0-0.2-0.1-0.3-0.1-0.4c0-0.1-0.1-0.3-0.1-0.4c-0.1-0.4-0.2-0.7-0.2-1.1
		c-0.1-0.5-0.2-1.1-0.4-1.6s-0.2-1.1-0.4-1.7c-0.3-1.5-0.7-3-1-4.5c-0.2-0.7-0.3-1.4-0.4-2.1c0-0.2-0.1-0.3-0.1-0.4
		c-0.1-0.5-0.2-1.1-0.3-1.6c-0.3-1.6-0.6-3.2-0.8-4.7c0,0,0,0,0-0.1c-0.1-0.3-0.1-0.7-0.2-1c-0.1-0.4-0.1-0.8-0.2-1.1
		c-0.1-0.5-0.2-1-0.2-1.5c-0.1-0.4-0.1-0.7-0.1-1.1c0-0.4-0.1-0.8-0.1-1.2c0-0.4-0.1-0.7-0.1-1.1c0-0.3-0.1-0.7-0.1-1
		c0-0.3,0-0.6,0-0.9c0-0.3,0-0.5,0-0.8c0-0.2,0.1-0.5,0.1-0.7c0,0,0,0,0,0c0-0.1,0-0.2,0.1-0.2c0,0,0,0,0-0.1c0-0.1,0-0.1,0-0.2
		c0-0.1,0-0.1,0-0.2c0-0.1,0.1-0.2,0.1-0.3c0.1-0.2,0.2-0.5,0.3-0.8c0.1-0.1,0.1-0.3,0.2-0.4c0.2-0.3,0.5-0.7,0.8-1.1
		c0.2-0.2,0.3-0.4,0.5-0.6c0.4-0.5,0.9-1,1.3-1.3c0.1-0.1,0.2-0.2,0.2-0.2c0.2-0.2,0.4-0.3,0.4-0.3c10.5-8.4,40.7-11.7,57.2-2.5
		c0.3,0.2,0.5,0.3,0.8,0.5c0.3,0.2,0.5,0.3,0.8,0.5c0.2,0.2,0.5,0.3,0.7,0.5c0.2,0.2,0.5,0.3,0.7,0.5c0.3,0.2,0.5,0.5,0.8,0.7
		c0.2,0.2,0.4,0.4,0.6,0.6c0.2,0.2,0.3,0.4,0.5,0.6c0.2,0.2,0.3,0.4,0.5,0.6c0.1,0.2,0.2,0.3,0.3,0.5c0.2,0.3,0.4,0.6,0.5,0.9
		c0.1,0.2,0.2,0.4,0.3,0.6c0,0,0,0.1,0.1,0.1c0,0.1,0.1,0.2,0.1,0.3c0.1,0.3,0.3,0.6,0.4,0.9c0.1,0.2,0.2,0.5,0.2,0.7
		c0.3,1,0.5,1.9,0.6,2.9c0,0.2,0,0.5,0.1,0.8c0,0.5,0.1,1,0.1,1.6c0,0.4,0,0.7,0,1.1c0,0.2,0,0.3,0,0.5c0,0.5-0.1,1-0.2,1.5
		c0,0.1,0,0.3-0.1,0.4s0,0.3-0.1,0.4c0,0,0,0.1,0,0.1c0,0,0,0.1,0,0.1c0,0.1,0,0.2-0.1,0.3c0,0.2-0.1,0.3-0.1,0.5
		c0,0.2-0.1,0.3-0.1,0.5c0,0.1-0.1,0.3-0.1,0.4c-0.1,0.3-0.2,0.7-0.2,1c-0.1,0.5-0.2,0.9-0.4,1.4c0,0.2-0.1,0.4-0.2,0.6
		c-0.1,0.2-0.1,0.4-0.2,0.7c-0.1,0.2-0.1,0.4-0.2,0.5c0,0.1-0.1,0.3-0.1,0.4c-0.1,0.3-0.2,0.5-0.3,0.8c-0.7,2-1.6,4-2.5,5.8
		c-0.2,0.4-0.4,0.8-0.6,1.2c-0.9,1.8-1.8,3.4-2.7,4.9c-0.2,0.3-0.4,0.6-0.6,1c-0.2,0.3-0.4,0.7-0.6,1c-0.1,0.1-0.2,0.3-0.3,0.4
		c-0.6,1.2-1.9,4.5,2.9,7C182.9,213.2,190.9,211.8,193.4,208.6z"/>
</g>
<g>
</g>
<g>
</g>
<g>
</g>
<g>
</g>
<g>
</g>
<g>
</g>
</svg>
