<?xml version="1.0" encoding="utf-8"?>
<!-- Generator: Adobe Illustrator 19.1.0, SVG Export Plug-In . SVG Version: 6.00 Build 0)  -->
<svg version="1.1" xmlns="http://www.w3.org/2000/svg" xmlns:xlink="http://www.w3.org/1999/xlink" x="0px" y="0px" width="288px"
	 height="288px" viewBox="0 0 288 288" enable-background="new 0 0 288 288" xml:space="preserve">
<g id="bck">
	<path opacity="0.39" fill="#FFFFFF" d="M201.7,199.7c-3.5-0.7-6.5-1.6-9.5-2.7c-6.4-2.3-12.4-5.4-21.7-8
		c-4.9-1.4-10.8-2.7-18.1-3.7c-10.5-1.4-19.4,0.6-28,3.6c-6.8,2.3-13.3,5.2-20.3,7.4c-7.2,2.3-15,3.9-23.8,3.3
		c-11,0-38.7-8.3-33.7-50.6c0.3-2.5,0.7-5.1,1.2-7.9c1.8-9.2,4.9-19.7,9.8-31.8C89,32,147.3,36.6,179.9,52.9
		c5.8,2.9,11.3,6.6,16.5,11h0c1.9,1.6,3.7,3.2,5.5,5c12.8,12.5,23.1,29,30,47.2c1,2.7,2,5.4,2.9,8.2c2.8,8.7,4.8,17.8,5.9,26.8
		C245.3,188.3,216.8,202.5,201.7,199.7z"/>
</g>
<g id="body">
	<path fill="#9BBDAC" d="M100.6,185.3l-4.3,5.1l-1.6,2l-16.5-8.8c0.7-0.4,1.3-0.8,2-1.3c0.3-0.2,0.5-0.5,0.8-0.7
		c3.7-3.4,7.1-9.2,9.4-13.8c0.6-1.1,1-2.1,1.5-3c1-2,1.5-3.5,1.6-3.6c1.3,4.7,2.6,9.1,3.8,13.2C98.5,178.4,99.6,182.1,100.6,185.3z"
		/>
	<path fill="#9BBDAC" d="M240.7,194.8l-17.3,8l-12-23.5l-1.9-3.7c0.5-0.7,1-1.4,1.5-2.1c4.8-6.9,9.7-14.6,13.9-22.9
		c0.1,0.1,0.8,1.7,1.9,4.1c2.2,5,6.1,13.7,9.1,22.2c2.1,5.8,3.8,11.4,4.5,15.7C240.5,193.4,240.6,194.1,240.7,194.8z"/>
	<path fill="#9BBDAC" d="M184.3,170.9c0.1-0.2,0.1-0.4,0.2-0.7c-0.1,0.3-0.2,0.6-0.3,0.9C184.2,171.1,184.2,171,184.3,170.9z
		 M121.8,186.7c0,0.4,0,0.9-0.1,1.3C121.8,187.6,121.8,187.1,121.8,186.7z M121.8,186.4c0-0.3-0.1-0.5-0.1-0.8
		c0,0.2,0.1,0.4,0.1,0.6C121.8,186.3,121.8,186.3,121.8,186.4z M121.5,185.1C121.5,185,121.5,185,121.5,185.1
		C121.5,185,121.5,185,121.5,185.1c0,0.1,0,0.2,0,0.2C121.6,185.3,121.6,185.2,121.5,185.1z M121.5,184.9
		C121.5,184.9,121.5,185,121.5,184.9C121.5,184.9,121.5,184.9,121.5,184.9C121.5,184.9,121.5,184.9,121.5,184.9z M120.7,181.4
		c0.1,0.5,0.2,1.1,0.4,1.6c0.1,0.3,0.2,0.7,0.2,1c-0.2-1-0.5-2.1-0.7-3.2C120.6,181,120.6,181.2,120.7,181.4z M119.1,174.1
		c0.1,0.3,0.2,0.7,0.2,1.1c0.3,1.5,0.6,3,1,4.5c0.1,0.4,0.2,0.7,0.2,1.1c-0.4-1.8-0.8-3.7-1.2-5.6
		C119.3,174.8,119.2,174.5,119.1,174.1z M118.2,169.4c0.1,0.5,0.2,1,0.3,1.6c0.1,0.5,0.2,1.1,0.3,1.6c0,0.2,0.1,0.3,0.1,0.4
		c0,0.2,0.1,0.4,0.1,0.6c-0.1-0.4-0.1-0.7-0.2-1.1C118.6,171.5,118.4,170.5,118.2,169.4z M117.5,153.7c-0.1,0.1-0.1,0.3-0.2,0.4
		c0,0.1-0.1,0.2-0.1,0.3C117.3,154.2,117.4,153.9,117.5,153.7c0.2-0.3,0.5-0.7,0.8-1.1C118,153,117.7,153.4,117.5,153.7z
		 M116.7,155.8c0-0.1,0-0.2,0.1-0.3c0,0,0,0,0,0.1C116.8,155.6,116.8,155.7,116.7,155.8z M116.7,155.8c0,0.1,0,0.2,0,0.2
		C116.7,156,116.7,155.9,116.7,155.8C116.7,155.8,116.7,155.8,116.7,155.8z M116.6,158.3c0,0.2,0,0.3,0,0.5c0-0.5-0.1-1-0.1-1.4
		C116.6,157.6,116.6,158,116.6,158.3z M116.6,156.5c0,0.1,0,0.1,0,0.2c0-0.1,0-0.2,0-0.3C116.6,156.4,116.6,156.5,116.6,156.5z"/>
	<path fill="#9BBDAC" d="M235.8,115.2c0,0.4,0,0.7,0,1.1c-0.1,1.3-0.2,2.7-0.4,4c0,0.4-0.1,0.7-0.1,1.1c-0.1,0.9-0.3,1.9-0.5,2.9
		c-0.1,0.8-0.3,1.5-0.5,2.3c-0.1,0.3-0.1,0.6-0.2,0.8c-0.2,0.7-0.4,1.5-0.6,2.2c-2.1,7.2-5.1,14.3-8.5,21c0,0,0,0,0,0
		c-0.9,1.7-1.8,3.4-2.7,5c-0.6,1.1-1.2,2.2-1.9,3.3c-0.5,0.8-1,1.6-1.4,2.4c-0.5,0.8-1,1.6-1.5,2.4c-1,1.6-2,3.1-3,4.6
		c-1.3,2-2.7,4-4,5.8c-0.3,0.5-0.7,0.9-1,1.4c0,0,0,0,0,0c-0.6,0.8-1.1,1.5-1.7,2.3c-0.3,0.5-0.7,1-1.1,1.4c-0.5,0.7-1,1.4-1.5,2
		c-0.4,0.5-0.8,1-1.1,1.5c-0.3,0.4-0.6,0.7-0.8,1.1c-0.3,0.4-0.6,0.7-0.9,1.1c-0.9,1.1-1.7,2.1-2.5,3.1c-3,3.6-5.6,6.6-7.7,8.9
		c-6.4-2.3-12.4-5.4-21.7-8c2.4-2.8,5.5-6.8,8.1-11.1c0.1-0.2,0.3-0.5,0.4-0.7c0.1-0.2,0.2-0.4,0.3-0.6c0.2-0.3,0.4-0.7,0.6-1.1
		c0.4-0.7,0.8-1.5,1.1-2.2c0.3-0.6,0.5-1.2,0.8-1.8c0.1-0.2,0.2-0.4,0.2-0.5c0.1-0.3,0.2-0.6,0.4-1c0.1-0.3,0.2-0.5,0.3-0.8
		c0.3-1,0.6-1.9,0.8-2.8c0-0.2,0.1-0.4,0.1-0.6c0-0.1,0-0.2,0-0.2c0.1-0.3,0.1-0.6,0.1-1c0-0.3,0.1-0.6,0.1-0.9c0-0.1,0-0.1,0-0.2
		c0-0.3,0-0.6,0-1c0-4.5-2-8.6-7.2-11.5c-16.5-9.2-44.3-5.8-54.8,2.7c0,0,0,0,0,0c-1.4,1.1-2.5,2.3-3.2,3.6c-0.6,1.2-1,2.4-0.9,3.7
		c0,0.4,0,0.9,0.1,1.3c0,0.5,0.1,1,0.1,1.5v0c0,0.3,0.1,0.6,0.1,0.9c0.2,1.9,0.5,3.8,0.9,5.7c0,0.3,0.1,0.5,0.2,0.8
		c0.2,1.2,0.5,2.3,0.8,3.5c0.2,0.7,0.4,1.4,0.5,2.1c0.3,1.1,0.6,2.3,0.9,3.3c0.2,0.6,0.3,1.1,0.5,1.6c0.1,0.3,0.2,0.7,0.3,1
		c0.2,0.5,0.3,1.1,0.5,1.6c0.2,0.6,0.4,1.2,0.6,1.7c0.1,0.4,0.3,0.8,0.4,1.2c0.2,0.7,0.5,1.3,0.7,1.9c-6.8,2.3-13.3,5.2-20.3,7.4
		c-0.1-0.5-0.2-1-0.4-1.5c-0.1-0.4-0.2-0.8-0.4-1.2c-0.5-1.3-1-3-1.7-5c-0.4-1.1-0.7-2.2-1.1-3.4c-1-3.2-2.2-6.9-3.4-10.9
		c-1.2-4.1-2.5-8.5-3.8-13.2c-0.3-1.3-0.7-2.6-1.1-3.9c-0.2-0.8-0.4-1.6-0.6-2.3c0.7-0.2,1.3-0.5,1.9-0.7c0.4-0.2,0.9-0.3,1.3-0.6
		c2.4-1.1,4.5-2.4,6.3-3.9c1.5-1.2,2.9-2.6,4-4c3.5-4.2,5.6-9,6.8-13c0,0,0,0,0-0.1c1.2-4,1.5-7.1,1.6-8.1c0-0.2,0-0.3,0-0.3
		s-1.1,1.4-3.2,3.7c-0.4,0.5-0.9,0.9-1.4,1.4c-1.1,1.1-2.4,2.4-3.8,3.9c-2.8,2.7-6.2,5.8-10.3,9.2c-1.7,1.4-3.4,2.8-5.3,4.2
		c-6.5,5-15.5,7.9-28,6.3c-6.4-0.8-11.3-2.2-15-4c-13.8-6.7-11.3-18.9-7.8-26.6c0.2-0.5,0.4-1,0.7-1.4c1.7-3.4,3.4-5.7,3.4-5.7
		c0.1,0.3,0.3,0.5,0.5,0.7c1.1,1.1,3.1,0.9,4.6,0.5c1.1-0.3,2-0.6,2.1-0.7c-0.2,0.2-4.5,4.8-6.9,10.3c-1.3,2.9-2.1,6.1-1.3,8.9
		c0.6,2.4,2.3,4.5,5.6,6c0,0,0,0,0,0c0.1,0.1,0.2,0.1,0.4,0.2c2.1,0.9,4.8,1.6,8.2,1.9c5,0.5,9-0.7,12.3-3c1.5-1,2.8-2.3,3.9-3.8
		c2.6-3.3,4.6-7.6,6-12.1c2.5-8.1,3.4-17.1,3.7-23.7c0.2-5,0.1-8.5,0.1-9c0,0,0-0.1,0-0.1c0.3-5.1,1.2-9.5,2.7-13
		c0.6-1.4,1.4-2.7,2.2-3.8c0.1-0.2,0.3-0.3,0.5-0.5c1-1.2,2.1-2.4,3.3-3.5c2.9-2.7,6.3-5,10-6.8c0,0,0,0,0,0c0,0,0,0,0,0
		c3.4-1.7,7.1-3,11-4h0c1.7-0.5,3.5-0.9,5.4-1.2h0c2.9-0.6,5.9-1,9-1.3c0,0,0,0,0,0c12.9-1.3,27-0.6,40.2,0.9
		c5.5,0.6,10.9,1.4,16,2.2c0.9,0.1,1.7,0.3,2.6,0.5c0.6,0.1,1.1,0.2,1.7,0.3c0.2,0,0.5,0.1,0.8,0.2c0.4,0.1,0.7,0.2,1.1,0.2
		c0.3,0.1,0.7,0.2,1,0.3c0.6,0.1,1.2,0.3,1.7,0.5c0.6,0.2,1.2,0.3,1.7,0.5c0.5,0.1,1,0.3,1.4,0.5c0.3,0.1,0.5,0.2,0.8,0.3
		c0.4,0.1,0.8,0.3,1.2,0.4h0c1.3,0.5,2.5,0.9,3.7,1.5c0.4,0.2,0.7,0.3,1.1,0.5c0.2,0.1,0.5,0.2,0.7,0.3c0.4,0.2,0.8,0.4,1.2,0.6
		c1.4,0.7,2.8,1.4,4.2,2.2c0.4,0.2,0.8,0.5,1.2,0.7c0.5,0.3,1,0.6,1.5,0.9c0.4,0.2,0.8,0.5,1.2,0.7c0.5,0.3,1,0.6,1.4,1
		c0.5,0.3,1,0.7,1.4,1c0.7,0.5,1.4,1.1,2.1,1.6c0.4,0.3,0.8,0.6,1.1,0.9c0.5,0.4,0.9,0.8,1.4,1.2c0,0,0.1,0.1,0.1,0.1
		c0.4,0.4,0.9,0.8,1.3,1.2c0.4,0.4,0.9,0.9,1.3,1.3c0.4,0.4,0.8,0.9,1.2,1.3c0.3,0.3,0.6,0.7,0.9,1c1.3,1.5,2.5,3.1,3.7,4.7
		c0.3,0.4,0.5,0.7,0.8,1.1c0.2,0.2,0.3,0.5,0.5,0.7c0.2,0.3,0.4,0.6,0.6,0.9c0.2,0.3,0.4,0.7,0.6,1c0.3,0.5,0.6,1,0.9,1.6
		c0.2,0.3,0.3,0.6,0.5,0.9c0.2,0.5,0.5,0.9,0.7,1.4c0.2,0.4,0.4,0.9,0.6,1.3c0.1,0.2,0.1,0.3,0.2,0.5c0,0.1,0.1,0.2,0.1,0.3
		c0.2,0.4,0.3,0.7,0.4,1.1c0.6,1.6,1.1,3.3,1.5,5c0.1,0.2,0.1,0.5,0.2,0.7c0.1,0.5,0.2,1,0.3,1.5c0,0,0,0,0,0s0,0,0,0
		C235.6,108.1,235.9,111.6,235.8,115.2z"/>
	<path fill="#9BBDAC" d="M101.8,63.6c-0.1,0-0.2,0-0.2,0c-0.1,0-0.1,0-0.2,0C101.5,63.6,101.6,63.6,101.8,63.6z"/>
	<path fill="#9BBDAC" d="M215.5,164.2c0.4-0.7,0.9-1.5,1.3-2.2C216.3,162.8,215.9,163.5,215.5,164.2z"/>
	<path fill="#9BBDAC" d="M214.1,166.5c0.5-0.8,0.9-1.5,1.4-2.3c-0.2,0.3-0.4,0.6-0.5,0.9C214.7,165.6,214.4,166.1,214.1,166.5z"/>
	<path fill="#9BBDAC" d="M216.8,162c0.6-1.1,1.3-2.3,1.9-3.4c-0.6,1.1-1.2,2.2-1.8,3.3C216.8,162,216.8,162,216.8,162z"/>
	<path fill="#9BBDAC" d="M221.2,153.8c-0.2,0.5-0.5,1-0.7,1.4c-0.6,1.1-1.2,2.3-1.8,3.4c0.6-1.1,1.2-2.2,1.8-3.4
		C220.7,154.7,220.9,154.3,221.2,153.8z"/>
	<path fill="#9BBDAC" d="M222.9,150.1c-0.3,0.7-0.6,1.3-0.9,2C222.3,151.4,222.6,150.8,222.9,150.1
		C222.9,150.1,222.9,150.1,222.9,150.1z"/>
	<path fill="#9BBDAC" d="M224.9,145.5c-0.2,0.5-0.4,1.1-0.7,1.6C224.5,146.6,224.7,146.1,224.9,145.5
		C224.9,145.6,224.9,145.5,224.9,145.5z"/>
	<path fill="#9BBDAC" d="M225.8,143.4c0.1-0.2,0.2-0.5,0.3-0.7c-0.1,0.3-0.2,0.6-0.3,0.9C225.7,143.5,225.8,143.5,225.8,143.4z"/>
	<path fill="#9BBDAC" d="M226,142.7c0.2-0.5,0.4-1,0.6-1.5c-0.1,0.3-0.2,0.6-0.3,0.9c0,0.1-0.1,0.2-0.1,0.2
		C226.1,142.5,226.1,142.6,226,142.7z"/>
	<path fill="#9BBDAC" d="M227.6,138.6c-0.3,0.9-0.6,1.8-1,2.7c0.1-0.3,0.2-0.6,0.3-0.9c0.1-0.3,0.2-0.6,0.3-0.9
		C227.3,139.2,227.5,138.9,227.6,138.6z"/>
	<path fill="#9BBDAC" d="M228,137.3c0,0.1-0.1,0.3-0.1,0.4c-0.1,0.3-0.2,0.6-0.3,0.9c0.1-0.3,0.2-0.6,0.3-0.9
		C227.9,137.6,228,137.4,228,137.3z"/>
	<path fill="#9BBDAC" d="M228.4,135.9c0-0.1,0.1-0.3,0.1-0.4c-0.1,0.2-0.1,0.5-0.2,0.7C228.4,136.1,228.4,136,228.4,135.9z"/>
	
		<ellipse transform="matrix(-0.9971 -7.629651e-02 7.629651e-02 -0.9971 196.2378 247.1491)" fill="#231F20" cx="102.8" cy="119.8" rx="3.8" ry="4.6"/>
	<path fill="#82A092" d="M101.8,63.6c-0.1,0-0.2,0-0.2,0c-0.1,0-0.1,0-0.2,0C101.5,63.6,101.6,63.6,101.8,63.6z"/>
	<path fill="#82A092" d="M215.5,164.2c0.4-0.7,0.9-1.5,1.3-2.2C216.3,162.8,215.9,163.5,215.5,164.2z"/>
	<path fill="#82A092" d="M214.1,166.5c0.5-0.8,0.9-1.5,1.4-2.3c-0.2,0.3-0.4,0.6-0.5,0.9C214.7,165.6,214.4,166.1,214.1,166.5z"/>
	<path fill="#82A092" d="M216.8,162c0.6-1.1,1.3-2.3,1.9-3.4c-0.6,1.1-1.2,2.2-1.8,3.3C216.8,162,216.8,162,216.8,162z"/>
	<path fill="#82A092" d="M221.2,153.8c-0.2,0.5-0.5,1-0.7,1.4c-0.6,1.1-1.2,2.3-1.8,3.4c0.6-1.1,1.2-2.2,1.8-3.4
		C220.7,154.7,220.9,154.3,221.2,153.8z"/>
	<path fill="#82A092" d="M222.9,150.1c-0.3,0.7-0.6,1.3-0.9,2C222.3,151.4,222.6,150.8,222.9,150.1
		C222.9,150.1,222.9,150.1,222.9,150.1z"/>
	<path fill="#82A092" d="M224.9,145.5c-0.2,0.5-0.4,1.1-0.7,1.6C224.5,146.6,224.7,146.1,224.9,145.5
		C224.9,145.6,224.9,145.5,224.9,145.5z"/>
	<path fill="#82A092" d="M225.8,143.4c0.1-0.2,0.2-0.5,0.3-0.7c-0.1,0.3-0.2,0.6-0.3,0.9C225.7,143.5,225.8,143.5,225.8,143.4z"/>
	<path fill="#82A092" d="M226,142.7c0.2-0.5,0.4-1,0.6-1.5c-0.1,0.3-0.2,0.6-0.3,0.9c0,0.1-0.1,0.2-0.1,0.2
		C226.1,142.5,226.1,142.6,226,142.7z"/>
	<path fill="#82A092" d="M227.6,138.6c-0.3,0.9-0.6,1.8-1,2.7c0.1-0.3,0.2-0.6,0.3-0.9c0.1-0.3,0.2-0.6,0.3-0.9
		C227.3,139.2,227.5,138.9,227.6,138.6z"/>
	<path fill="#82A092" d="M228,137.3c0,0.1-0.1,0.3-0.1,0.4c-0.1,0.3-0.2,0.6-0.3,0.9c0.1-0.3,0.2-0.6,0.3-0.9
		C227.9,137.6,228,137.4,228,137.3z"/>
	<path fill="#82A092" d="M228.4,135.9c0-0.1,0.1-0.3,0.1-0.4c-0.1,0.2-0.1,0.5-0.2,0.7C228.4,136.1,228.4,136,228.4,135.9z"/>
	<path fill="#FFFFFF" d="M101.7,51.9l-0.9,11.8c0,0,0,0,0,0c0.3-0.1,3.6-0.9,8.6,0c4.5,0.8,10.5,2.8,17.1,8l6.6-9.5
		c0,0-0.4-0.4-1.2-1.1c-1.1-1-3-2.5-5.8-3.9C121,54.4,112.9,51.6,101.7,51.9z"/>
	<polygon fill="#ED1F2E" points="115.9,55.7 112.5,54.8 112.2,57.9 108.9,57.1 108.2,58.9 111.9,59.5 110.8,61.9 114.4,62.7 
		114.4,59.9 117.1,60.8 118.7,58.8 115.1,58.1 	"/>
	<path fill="#82A092" d="M116.7,156.4c0,0.1,0,0.2,0,0.3c0-0.1,0-0.1,0-0.2C116.6,156.5,116.6,156.4,116.7,156.4z"/>
	<path fill="#82A092" d="M116.6,157.3c0,0.4,0,0.9,0.1,1.4c0-0.2,0-0.3,0-0.5C116.6,158,116.6,157.6,116.6,157.3z"/>
	<path fill="#82A092" d="M116.7,155.8c0,0.1,0,0.2,0,0.2C116.7,156,116.7,155.9,116.7,155.8C116.7,155.8,116.7,155.8,116.7,155.8z"
		/>
	<path fill="#82A092" d="M116.8,155.6C116.8,155.5,116.8,155.5,116.8,155.6c0,0,0,0.1,0,0.2C116.8,155.7,116.8,155.6,116.8,155.6z"
		/>
	<path fill="#82A092" d="M118.3,152.6c-0.3,0.4-0.6,0.8-0.8,1.1c-0.1,0.2-0.2,0.5-0.4,0.7c0-0.1,0.1-0.2,0.1-0.3
		c0.1-0.1,0.1-0.3,0.2-0.4C117.7,153.4,118,153,118.3,152.6z"/>
	<path fill="#82A092" d="M118.8,172.6c0.1,0.4,0.1,0.7,0.2,1.1c0-0.2-0.1-0.4-0.1-0.6C118.9,172.9,118.8,172.8,118.8,172.6
		c-0.1-0.5-0.2-1.1-0.3-1.6c-0.1-0.5-0.2-1-0.3-1.6C118.4,170.5,118.6,171.5,118.8,172.6z"/>
	<path fill="#82A092" d="M119.3,175.2c0.4,1.9,0.8,3.8,1.2,5.6c-0.1-0.4-0.2-0.7-0.2-1.1C120,178.2,119.7,176.7,119.3,175.2
		c-0.1-0.3-0.2-0.7-0.2-1C119.2,174.5,119.3,174.8,119.3,175.2z"/>
	<path fill="#82A092" d="M120.6,180.8c0.2,1.1,0.5,2.2,0.7,3.2c-0.1-0.3-0.2-0.7-0.2-1c-0.1-0.5-0.2-1.1-0.4-1.6
		C120.6,181.2,120.6,181,120.6,180.8z"/>
	<path fill="#82A092" d="M121.5,184.9C121.5,184.9,121.5,184.9,121.5,184.9C121.5,185,121.5,184.9,121.5,184.9
		C121.5,184.9,121.5,184.9,121.5,184.9z"/>
	<path fill="#82A092" d="M121.6,185.3c0-0.1,0-0.2-0.1-0.2c0,0,0-0.1,0-0.1c0,0,0,0.1,0,0.1C121.6,185.2,121.6,185.3,121.6,185.3z"
		/>
	<path fill="#82A092" d="M121.8,186.2c0-0.2,0-0.4-0.1-0.6c0,0.2,0.1,0.5,0.1,0.8C121.8,186.3,121.8,186.3,121.8,186.2z"/>
	<path fill="#82A092" d="M121.7,188.1c0.1-0.5,0.1-0.9,0.1-1.3C121.8,187.1,121.8,187.6,121.7,188.1z"/>
	<path fill="#82A092" d="M184.2,171.1c0.1-0.3,0.2-0.6,0.3-0.9c-0.1,0.2-0.1,0.4-0.2,0.7C184.2,171,184.2,171.1,184.2,171.1z"/>
	<path fill="#82A092" d="M94.9,142.5c-1.7,1.4-3.4,2.8-5.3,4.2c-6.5,5-15.5,7.9-28,6.3c-30-3.8-27.2-20.8-22.8-30.7
		c-0.7,4.3-1,9.4,0.2,13.8c2.7,9.7,19.2,18.6,38,13.8C83.9,148.3,90,145.4,94.9,142.5z"/>
	<path fill="#82A092" d="M235.8,115.2c0,0.4,0,0.7,0,1.1c-0.1,1.3-0.2,2.7-0.4,4c0,0.4-0.1,0.7-0.1,1.1c-0.1,0.9-0.3,1.9-0.5,2.9
		c-0.1,0.8-0.3,1.5-0.5,2.3c-0.1,0.3-0.1,0.6-0.2,0.8c-0.2,0.7-0.4,1.5-0.6,2.2c-2.1,7.2-5.1,14.3-8.5,21c0,0,0,0,0,0
		c-0.9,1.7-1.8,3.4-2.7,5c-0.6,1.1-1.2,2.2-1.9,3.3c-0.5,0.8-1,1.6-1.4,2.4c-0.5,0.8-1,1.6-1.5,2.4c-1,1.6-2,3.1-3,4.6
		c-1.3,2-2.7,4-4,5.8c-0.3,0.5-0.7,0.9-1,1.4c0,0,0,0,0,0c-0.6,0.8-1.1,1.5-1.7,2.3c-0.3,0.5-0.7,1-1.1,1.4c-0.5,0.7-1,1.4-1.5,2
		c-0.4,0.5-0.8,1-1.1,1.5c-0.3,0.4-0.6,0.7-0.8,1.1c-0.3,0.4-0.6,0.7-0.9,1.1c-0.9,1.1-1.7,2.1-2.5,3.1c-3,3.6-5.6,6.6-7.7,8.9
		c-6.4-2.3-12.4-5.4-21.7-8c2.4-2.8,5.5-6.8,8.1-11.1c0.1-0.2,0.3-0.5,0.4-0.7c0.1-0.2,0.2-0.4,0.3-0.6c0.2-0.3,0.4-0.7,0.6-1.1
		c0.4-0.7,0.8-1.5,1.1-2.2c0.3-0.6,0.5-1.2,0.8-1.8c0.1-0.2,0.2-0.4,0.2-0.5c0.1-0.3,0.2-0.6,0.4-1c0.1-0.3,0.2-0.5,0.3-0.8
		c0.3-1,0.6-1.9,0.8-2.8c0-0.2,0.1-0.4,0.1-0.6c0-0.1,0-0.2,0-0.2c0.1-0.3,0.1-0.6,0.1-1c0-0.3,0.1-0.6,0.1-0.9c0-0.1,0-0.1,0-0.2
		c0-0.3,0-0.6,0-1c0-4.5-2-8.6-7.2-11.5c-16.5-9.2-44.3-5.8-54.8,2.7c0,0,0,0,0,0c-1.4,1.1-2.5,2.3-3.2,3.6c-0.6,1.2-1,2.4-0.9,3.7
		c0,0.4,0,0.9,0.1,1.3c0,0.5,0.1,1,0.1,1.5v0c0,0.3,0.1,0.6,0.1,0.9c0.2,1.9,0.5,3.8,0.9,5.7c0,0.3,0.1,0.5,0.2,0.8
		c0.2,1.2,0.5,2.3,0.8,3.5c0.2,0.7,0.4,1.4,0.5,2.1c0.3,1.1,0.6,2.3,0.9,3.3c0.2,0.6,0.3,1.1,0.5,1.6c0.1,0.3,0.2,0.7,0.3,1
		c0.2,0.5,0.3,1.1,0.5,1.6c0.2,0.6,0.4,1.2,0.6,1.7c0.1,0.4,0.3,0.8,0.4,1.2c0.2,0.7,0.5,1.3,0.7,1.9c-6.8,2.3-13.3,5.2-20.3,7.4
		c-0.1-0.5-0.2-1-0.4-1.5c-0.1-0.4-0.2-0.8-0.4-1.2c-0.5-1.3-1-3-1.7-5c0,0,4.5,6.3,13,1.5s-1-16.8,1.9-33.5
		c2.9-16.7,67.4-22.3,69.4,0.6c2,22.9-11.6,29.6-3,34.7c8.6,5.2,40.2-32.2,47-58.3c1.5-5.8,2.2-11.8,1.9-17.7
		c-0.7-18.6-10.4-36.4-30-47.2c-1.9-1-3.8-2-5.9-2.9c-6.9-3-17.4-5.6-29.6-7.9c5.5,0.6,10.9,1.4,16,2.2c0.9,0.1,1.7,0.3,2.6,0.5
		c0.6,0.1,1.1,0.2,1.7,0.3c0.2,0,0.5,0.1,0.8,0.2c0.4,0.1,0.7,0.2,1.1,0.2c0.3,0.1,0.7,0.2,1,0.3c0.6,0.1,1.2,0.3,1.7,0.5
		c0.6,0.2,1.2,0.3,1.7,0.5c0.5,0.1,1,0.3,1.4,0.5c0.3,0.1,0.5,0.2,0.8,0.3c0.4,0.1,0.8,0.3,1.2,0.4h0c1.3,0.5,2.5,0.9,3.7,1.5
		c0.4,0.2,0.7,0.3,1.1,0.5c0.2,0.1,0.5,0.2,0.7,0.3c0.4,0.2,0.8,0.4,1.2,0.6c1.4,0.7,2.8,1.4,4.2,2.2c0.4,0.2,0.8,0.5,1.2,0.7
		c0.5,0.3,1,0.6,1.5,0.9c0.4,0.2,0.8,0.5,1.2,0.7c0.5,0.3,1,0.6,1.4,1c0.5,0.3,1,0.7,1.4,1c0.7,0.5,1.4,1.1,2.1,1.6
		c0.4,0.3,0.8,0.6,1.1,0.9c0.5,0.4,0.9,0.8,1.4,1.2c0,0,0.1,0.1,0.1,0.1c0.4,0.4,0.9,0.8,1.3,1.2c0.4,0.4,0.9,0.9,1.3,1.3
		c0.4,0.4,0.8,0.9,1.2,1.3c0.3,0.3,0.6,0.7,0.9,1c1.3,1.5,2.5,3.1,3.7,4.7c0.3,0.4,0.5,0.7,0.8,1.1c0.2,0.2,0.3,0.5,0.5,0.7
		c0.2,0.3,0.4,0.6,0.6,0.9c0.2,0.3,0.4,0.7,0.6,1c0.3,0.5,0.6,1,0.9,1.6c0.2,0.3,0.3,0.6,0.5,0.9c0.2,0.5,0.5,0.9,0.7,1.4
		c0.2,0.4,0.4,0.9,0.6,1.3c0.1,0.2,0.1,0.3,0.2,0.5c0,0.1,0.1,0.2,0.1,0.3c0.2,0.4,0.3,0.7,0.4,1.1c0.6,1.6,1.1,3.3,1.5,5
		c0.1,0.2,0.1,0.5,0.2,0.7c0.1,0.5,0.2,1,0.3,1.5c0,0,0,0,0,0s0,0,0,0C235.6,108.1,235.9,111.6,235.8,115.2z"/>
	<path fill="#82A092" d="M100.6,185.3l-4.3,5.1l-1.6,2l-16.5-8.8c0.7-0.4,1.3-0.8,2-1.3c0.3-0.2,0.5-0.5,0.8-0.7
		c9.4,8.3,15.3,2.5,15.3,2.5l-5.9-16.3c0.6-1.1,1-2.1,1.5-3c1-2,1.5-3.5,1.6-3.6c1.3,4.7,2.6,9.1,3.8,13.2
		C98.5,178.4,99.6,182.1,100.6,185.3z"/>
	<path fill="#82A092" d="M240.7,194.8l-17.3,8l-12-23.5l-1.9-3.7c0.5-0.7,1-1.4,1.5-2.1c4.9,9.2,14,23.9,21,22
		c5.6-1.5,5.3-10.8,4-18.6c2.1,5.8,3.8,11.4,4.5,15.7C240.5,193.4,240.6,194.1,240.7,194.8z"/>
	<path fill="#FFFFFF" d="M101.8,116.8c0,0,4.7-1.9,3.7,4.2C105.5,120.9,105.4,117.7,101.8,116.8z"/>
</g>
<g id="tail">
	<path fill="none" stroke="#82A092" stroke-miterlimit="10" d="M227.6,92.5c0,0,19.5,34.5,25,33.6"/>
	<path fill="#82A092" d="M250.5,125.9c7.8,9.1,10.4-3.7,10.4-3.7C254.1,119.5,250.5,125.9,250.5,125.9z"/>
</g>
<g id="ear">
	<g>
		<path fill="#82A092" d="M132.1,77.3c0,0,0.5,0,1.4,0.3c0.9,0.3,2.1,0.7,3.6,1.6c3,1.6,7,4.5,11.1,8.6c1,1,2.1,2.1,3.1,3.4
			c1,1.3,1.9,2.8,2.2,4.8c0.1,1,0.1,2-0.3,3c-0.3,1-0.8,1.8-1.4,2.6c-1.1,1.5-2.4,2.7-3.1,4c-0.4,0.6-0.5,1.3-0.5,1.9
			c0,0.6,0.3,1.6,0.5,2.5c0.4,1.8,0.8,3.7,1.1,5.6c0.5,3.8,0.8,7.9-0.1,11.9c-0.5,2-1.4,4.1-2.9,5.7c-1.5,1.7-3.6,2.8-5.6,3.2
			c-2.1,0.5-4.1,0.5-6.1,0.2l-0.2,0l0,0l-0.1,0l-0.1,0l-0.3-0.1l-0.7-0.1c-0.2,0-0.4-0.1-0.7-0.1l-0.8-0.2c-1-0.3-1.9-0.7-2.8-1.2
			c-1.8-0.9-3.2-2.2-4.4-3.6c-1.2-1.4-2.2-2.9-3-4.4c-1.6-3.1-2.5-6.2-3.1-9c-1.2-5.7-1.3-10.6-1.3-14c0-1.7,0.1-3,0.1-3.9
			c0.1-0.9,0.1-1.4,0.1-1.4s0,1.9,0.3,5.3c0.3,3.3,0.9,8.1,2.4,13.6c0.4,1.4,0.8,2.8,1.4,4.2c0.5,1.4,1.2,2.8,2,4.2
			c0.8,1.4,1.7,2.7,2.8,3.9c1.1,1.2,2.4,2.2,3.8,2.9c2.7,1.4,6.6,1.8,9.9,1.1c1.6-0.4,3-1.2,4.1-2.4c1-1.2,1.8-2.8,2.1-4.5
			c0.8-3.4,0.6-7.2,0.1-10.8c-0.3-1.8-0.6-3.6-0.9-5.4c-0.2-0.9-0.4-1.7-0.5-3c0-1.2,0.3-2.4,0.9-3.3c1.1-1.8,2.5-3,3.5-4.3
			c1-1.2,1.6-2.5,1.4-3.8c-0.1-1.3-0.8-2.7-1.6-3.9c-0.8-1.2-1.8-2.4-2.7-3.4c-1.9-2.1-3.7-4-5.4-5.6c-1.7-1.5-3.3-2.8-4.7-3.7
			c-1.4-0.9-2.5-1.6-3.4-1.9C132.6,77.4,132.1,77.3,132.1,77.3z"/>
	</g>
	<g>
		<rect x="113.5" y="200" fill="none" width="114.3" height="103.4"/>
		<path fill="#553278" d="M114.5,216.7V200h7v2.3h-3.6v4.5h2.5v2.4h-2.5v5.1h3.6v2.3H114.5z"/>
		<path fill="#553278" d="M122.5,216.7v-12.1h3.1v0.9c0.3-0.3,0.6-0.6,1-0.8c0.4-0.2,0.8-0.3,1.2-0.3c0.4,0,0.8,0.1,1.1,0.4
			c0.3,0.3,0.6,0.6,0.8,1c0.3-0.4,0.7-0.7,1.1-1c0.4-0.2,0.9-0.4,1.4-0.4c0.4,0,0.8,0.1,1.2,0.4c0.3,0.3,0.6,0.6,0.8,1
			c0.2,0.4,0.3,0.8,0.3,1.2v9.8h-3.1v-9.1c0-0.1,0-0.2,0-0.3c0-0.1,0-0.2,0-0.3c0-0.1-0.1-0.2-0.1-0.3c-0.1-0.1-0.2-0.1-0.3-0.1
			c-0.2,0-0.5,0.2-0.9,0.7v9.3h-3.1v-9.1c0-0.6-0.1-0.9-0.4-0.9c-0.2,0-0.5,0.2-0.9,0.7v9.3H122.5z"/>
		<path fill="#553278" d="M136,213.6v-5.1c0-1.3,0.3-2.3,0.9-3c0.6-0.7,1.6-1.1,2.9-1.1c1.3,0,2.3,0.4,2.9,1.1
			c0.6,0.7,0.9,1.7,0.9,3v5.1c0,1-0.4,1.8-1.1,2.5c-0.7,0.6-1.6,1-2.7,1c-0.7,0-1.3-0.1-1.9-0.4c-0.6-0.3-1-0.7-1.4-1.2
			C136.2,214.8,136,214.2,136,213.6z M140.5,213.6v-6c0-0.6-0.2-0.9-0.7-0.9c-0.4,0-0.6,0.3-0.6,0.9v6c0,0.1,0,0.2,0,0.3
			c0,0.1,0,0.2,0.1,0.3c0,0.1,0.1,0.2,0.2,0.3c0.1,0.1,0.2,0.1,0.4,0.1C140.3,214.6,140.5,214.3,140.5,213.6z"/>
		<path fill="#553278" d="M145.4,212.6v-5.9h-0.9v-2.1h0.9v-4h3.1v4h1.5v2.1h-1.5v6.6c0,0.3,0.1,0.6,0.2,0.7
			c0.1,0.2,0.3,0.2,0.7,0.2c0.4,0,0.7,0,0.9-0.1v2.4c-0.4,0.1-1.1,0.2-2,0.2c-0.4,0-0.7,0-1-0.1c-0.3-0.1-0.5-0.2-0.7-0.3
			s-0.4-0.3-0.5-0.6s-0.3-0.5-0.3-0.7c-0.1-0.2-0.1-0.5-0.2-0.8c0-0.3-0.1-0.6-0.1-0.9S145.4,212.9,145.4,212.6z"/>
		<path fill="#553278" d="M151.4,203.6v-2.9h3.1v2.9H151.4z M151.4,216.7v-12.1h3.1v12.1H151.4z"/>
		<path fill="#553278" d="M156.2,213.6v-5.1c0-1.3,0.3-2.3,0.9-3c0.6-0.7,1.6-1.1,2.9-1.1s2.3,0.4,2.9,1.1c0.6,0.7,0.9,1.7,0.9,3
			v5.1c0,1-0.4,1.8-1.1,2.5c-0.7,0.6-1.6,1-2.7,1c-0.7,0-1.3-0.1-1.9-0.4c-0.6-0.3-1-0.7-1.4-1.2
			C156.3,214.8,156.2,214.2,156.2,213.6z M160.6,213.6v-6c0-0.6-0.2-0.9-0.7-0.9c-0.4,0-0.6,0.3-0.6,0.9v6c0,0.1,0,0.2,0,0.3
			c0,0.1,0,0.2,0.1,0.3c0,0.1,0.1,0.2,0.2,0.3c0.1,0.1,0.2,0.1,0.4,0.1C160.4,214.6,160.6,214.3,160.6,213.6z"/>
		<path fill="#553278" d="M165.3,216.7v-12.1h3.1v0.9c0.3-0.3,0.7-0.6,1.1-0.8c0.4-0.2,0.9-0.3,1.3-0.3c0.4,0,0.8,0.1,1.1,0.4
			c0.3,0.3,0.6,0.6,0.8,1c0.2,0.4,0.2,0.8,0.2,1.2v9.8h-3.1v-9.2c0-0.5-0.2-0.8-0.5-0.8c0,0-0.1,0-0.1,0c0,0-0.1,0-0.1,0
			c0,0-0.1,0-0.1,0.1c0,0-0.1,0-0.1,0.1c0,0-0.1,0.1-0.1,0.1s-0.1,0.1-0.1,0.1c0,0-0.1,0.1-0.1,0.1c0,0,0,0-0.1,0.1l-0.1,0.1v9.4
			H165.3z"/>
		<path fill="#553278" d="M174.1,213.8l2.4-0.9c0.1,0.2,0.1,0.3,0.1,0.4c0,0.1,0.1,0.3,0.2,0.4c0.1,0.2,0.2,0.3,0.3,0.5
			c0.1,0.1,0.2,0.2,0.3,0.3c0.1,0.1,0.3,0.1,0.4,0.1c0.4,0,0.6-0.2,0.6-0.7c0-0.2,0-0.3-0.1-0.5c-0.1-0.2-0.2-0.3-0.2-0.5
			c-0.1-0.1-0.2-0.3-0.4-0.5s-0.4-0.4-0.5-0.5c-0.1-0.1-0.3-0.3-0.6-0.5l-0.5-0.4c-0.7-0.6-1.2-1.1-1.6-1.7
			c-0.4-0.6-0.6-1.2-0.6-1.9c0-0.5,0.1-1,0.3-1.4c0.2-0.4,0.5-0.8,0.9-1s0.8-0.5,1.2-0.6c0.5-0.1,0.9-0.2,1.5-0.2
			c0.5,0,0.9,0.1,1.3,0.3c0.4,0.2,0.8,0.4,1.1,0.8c0.3,0.3,0.6,0.7,0.8,1.1c0.2,0.4,0.4,0.8,0.5,1.3l-2.2,0.8
			c-0.1-0.2-0.1-0.3-0.2-0.5c0-0.1-0.1-0.3-0.2-0.5c-0.1-0.2-0.2-0.4-0.3-0.5c-0.1-0.1-0.2-0.2-0.4-0.3s-0.3-0.1-0.5-0.1
			c-0.2,0-0.4,0.1-0.5,0.2c-0.1,0.2-0.2,0.3-0.2,0.5c0,0.3,0.2,0.6,0.5,0.9s0.7,0.7,1.2,1.2l0.6,0.5c0.3,0.3,0.6,0.5,0.8,0.8
			c0.2,0.2,0.5,0.5,0.7,0.8c0.2,0.3,0.4,0.6,0.5,1c0.1,0.3,0.2,0.7,0.2,1c0,1-0.3,1.8-1,2.4c-0.7,0.6-1.5,1-2.5,1
			c-0.9,0-1.8-0.3-2.4-0.9S174.4,214.8,174.1,213.8z"/>
		<path fill="#FFFFFF" d="M114.1,228.7V220h3.4v0.9h-2.2v2.8h1.6v0.9h-1.6v3.1h2.2v0.9H114.1z"/>
		<path fill="#FFFFFF" d="M118.2,228.7V220h1.2v8.8H118.2z"/>
		<path fill="#FFFFFF" d="M122.4,228.8c-0.3,0-0.6-0.1-0.8-0.2c-0.2-0.1-0.4-0.2-0.5-0.4c-0.1-0.2-0.2-0.4-0.3-0.6
			c-0.1-0.3-0.1-0.5-0.2-0.8c0-0.3,0-0.6-0.1-0.9c0-0.3,0-0.5,0-0.8c0-0.3,0-0.6,0.1-0.9c0-0.3,0.1-0.5,0.2-0.7
			c0.1-0.2,0.2-0.4,0.3-0.6c0.1-0.2,0.3-0.3,0.5-0.4s0.5-0.1,0.8-0.1c0.3,0,0.5,0,0.7,0.1c0.2,0.1,0.4,0.2,0.5,0.3s0.2,0.3,0.3,0.5
			c0.1,0.2,0.2,0.4,0.2,0.6c0,0.2,0.1,0.5,0.1,0.7c0,0.2,0,0.5,0,0.8v0.1h-2.5v0.3c0,0,0,0.1,0,0.2c0,0.1,0,0.2,0,0.4
			c0,0.1,0,0.3,0,0.4c0,0.1,0,0.2,0.1,0.4s0.1,0.2,0.1,0.3c0,0.1,0.1,0.2,0.2,0.2s0.2,0.1,0.3,0.1c0.1,0,0.2,0,0.3-0.1
			c0.1,0,0.1-0.1,0.2-0.2c0-0.1,0.1-0.2,0.1-0.3c0-0.1,0-0.2,0-0.4v-0.3h1.2v0.2c0,0.7-0.2,1.2-0.5,1.5S123,228.8,122.4,228.8z
			 M121.8,225h1.2v-0.4c0-0.2,0-0.3,0-0.4c0-0.1,0-0.2-0.1-0.4c0-0.1-0.1-0.2-0.2-0.3c-0.1-0.1-0.2-0.1-0.3-0.1
			c-0.1,0-0.2,0-0.3,0.1s-0.1,0.2-0.2,0.3c0,0.1-0.1,0.3-0.1,0.4c0,0.1,0,0.3,0,0.4V225z"/>
		<path fill="#FFFFFF" d="M125.2,230.6v-8.1h1.2v0.6c0.1-0.1,0.2-0.2,0.2-0.2s0.1-0.1,0.2-0.2c0.1-0.1,0.2-0.1,0.2-0.2
			c0.1,0,0.2-0.1,0.3-0.1c0.1,0,0.2,0,0.3,0c0.2,0,0.4,0,0.6,0.1c0.2,0.1,0.3,0.2,0.4,0.3s0.2,0.3,0.3,0.5s0.1,0.4,0.2,0.5
			c0,0.2,0.1,0.4,0.1,0.7c0,0.3,0,0.5,0,0.7s0,0.4,0,0.7v0.1c0,0.3,0,0.5,0,0.8s-0.1,0.5-0.2,0.8c-0.1,0.3-0.2,0.5-0.3,0.7
			c-0.1,0.2-0.3,0.3-0.4,0.5s-0.4,0.2-0.6,0.2c-0.4,0-0.8-0.2-1.2-0.6v2.4H125.2z M127.4,227.8c0.1,0,0.2,0,0.3-0.1s0.2-0.2,0.2-0.4
			s0.1-0.4,0.1-0.5c0-0.2,0-0.4,0-0.6l0-0.8c0-0.1,0-0.3,0-0.4c0-0.1,0-0.2,0-0.4c0-0.1,0-0.3,0-0.4c0-0.1,0-0.2-0.1-0.3
			c0-0.1-0.1-0.2-0.1-0.3c-0.1-0.1-0.1-0.1-0.2-0.2c-0.1,0-0.2-0.1-0.3-0.1c0,0-0.1,0-0.1,0c0,0-0.1,0-0.1,0s-0.1,0-0.1,0
			c0,0-0.1,0-0.1,0.1c0,0-0.1,0-0.1,0.1c0,0-0.1,0-0.1,0.1c-0.1,0-0.1,0.1-0.1,0.1v3.9C126.7,227.7,127,227.8,127.4,227.8z"/>
		<path fill="#FFFFFF" d="M130.3,228.7V220h1.2v3.2c0.2-0.2,0.3-0.3,0.5-0.4c0.1-0.1,0.3-0.2,0.5-0.3c0.2-0.1,0.4-0.1,0.7-0.1
			c0.3,0,0.5,0.1,0.6,0.3s0.2,0.4,0.2,0.7v5.3h-1.2V224c0-0.2,0-0.4-0.1-0.5c-0.1-0.1-0.2-0.2-0.3-0.2c-0.3,0-0.5,0.1-0.8,0.4v4.9
			H130.3z"/>
		<path fill="#FFFFFF" d="M136.2,228.8c-0.3,0-0.6-0.2-0.9-0.5c-0.2-0.3-0.4-0.6-0.4-1c0-0.3,0.1-0.6,0.2-0.8
			c0.1-0.2,0.2-0.4,0.3-0.6c0.1-0.1,0.3-0.3,0.6-0.5c0.3-0.2,0.5-0.3,0.6-0.3s0.4-0.2,0.7-0.3c0.1,0,0.1,0,0.1-0.1v-0.4
			c0-0.3,0-0.6-0.1-0.7c-0.1-0.2-0.3-0.3-0.5-0.3c-0.2,0-0.4,0.1-0.5,0.2c-0.1,0.1-0.1,0.4-0.2,0.6c0,0,0,0.1,0,0.2h-1.2
			c0-0.6,0.2-1.1,0.5-1.4c0.3-0.4,0.8-0.5,1.4-0.5c0.6,0,1,0.2,1.4,0.5c0.3,0.4,0.5,0.8,0.5,1.4v2.8c0,0.7,0.1,1.2,0.2,1.6h-1.2
			l-0.2-0.9c-0.1,0.1-0.1,0.2-0.2,0.3c0,0.1-0.1,0.2-0.2,0.3c-0.1,0.1-0.2,0.2-0.2,0.2c-0.1,0.1-0.2,0.1-0.3,0.1
			C136.5,228.8,136.3,228.8,136.2,228.8z M136.8,227.8c0.1,0,0.2,0,0.3-0.1c0.1-0.1,0.1-0.1,0.2-0.2s0.1-0.1,0.2-0.2c0,0,0,0,0,0
			v-1.7c-0.1,0-0.1,0.1-0.3,0.2c-0.1,0.1-0.2,0.1-0.3,0.2c-0.1,0-0.2,0.1-0.3,0.2s-0.2,0.2-0.2,0.2c-0.1,0.1-0.1,0.2-0.1,0.3
			c0,0.1-0.1,0.2-0.1,0.3C136.2,227.5,136.4,227.8,136.8,227.8z"/>
		<path fill="#FFFFFF" d="M139.8,228.7v-6.2h1.2v0.7c0.2-0.2,0.3-0.3,0.5-0.4c0.1-0.1,0.3-0.2,0.5-0.3c0.2-0.1,0.4-0.1,0.7-0.1
			c0.3,0,0.5,0.1,0.6,0.3s0.2,0.4,0.2,0.7v5.3h-1.2V224c0-0.2,0-0.4-0.1-0.5c-0.1-0.1-0.2-0.1-0.4-0.1c-0.1,0-0.2,0-0.3,0.1
			s-0.2,0.1-0.2,0.1c-0.1,0-0.1,0.1-0.2,0.2v4.9H139.8z"/>
		<path fill="#FFFFFF" d="M146.3,228.8c-0.5,0-0.8-0.1-1.1-0.4c-0.2-0.3-0.3-0.6-0.3-1.1v-3.9h-0.6v-0.9h0.6v-2.2h1.2v2.2h0.9v0.9
			h-0.9v3.6c0,0.2,0,0.4,0.1,0.6s0.2,0.2,0.4,0.2c0.1,0,0.2,0,0.4,0v1C146.8,228.8,146.5,228.8,146.3,228.8z"/>
		<path fill="#FFFFFF" d="M149.7,228.8c-0.5,0-0.9-0.2-1.2-0.5c-0.3-0.3-0.5-0.7-0.6-1.2l0.9-0.3c0.2,0.6,0.5,0.9,0.9,0.9
			c0.2,0,0.4-0.1,0.5-0.2c0.1-0.1,0.2-0.3,0.2-0.5c0-0.3-0.1-0.5-0.3-0.7l-1.2-0.9c-0.1-0.1-0.3-0.2-0.4-0.3
			c-0.1-0.1-0.2-0.2-0.3-0.3c-0.1-0.1-0.2-0.3-0.2-0.4c-0.1-0.2-0.1-0.3-0.1-0.5c0-0.5,0.2-0.9,0.5-1.2c0.3-0.3,0.8-0.4,1.4-0.4
			c0.3,0,0.5,0,0.7,0.1c0.2,0.1,0.4,0.2,0.5,0.4c0.1,0.2,0.3,0.3,0.4,0.5c0.1,0.2,0.2,0.4,0.2,0.6l-0.9,0.3c0-0.1-0.1-0.2-0.1-0.3
			c0-0.1-0.1-0.2-0.2-0.3c-0.1-0.1-0.2-0.2-0.3-0.2c-0.1-0.1-0.2-0.1-0.3-0.1c-0.2,0-0.4,0.1-0.5,0.2c-0.1,0.1-0.2,0.3-0.2,0.5
			c0,0.2,0.1,0.4,0.3,0.5l1.2,0.9c0.1,0.1,0.3,0.2,0.4,0.3c0.1,0.1,0.2,0.2,0.3,0.4c0.1,0.1,0.2,0.3,0.2,0.5s0.1,0.3,0.1,0.5
			c0,0.5-0.2,0.9-0.5,1.2C150.7,228.7,150.2,228.8,149.7,228.8z"/>
		<path fill="#FFFFFF" d="M154.7,228.7v-5.3H154v-0.9h0.6v-0.2c0-0.3,0-0.5,0-0.7c0-0.2,0.1-0.4,0.1-0.5c0.1-0.2,0.1-0.3,0.2-0.4
			s0.2-0.2,0.4-0.2c0.2-0.1,0.4-0.1,0.6-0.1c0.2,0,0.5,0,0.8,0.1v0.9c0,0-0.1,0-0.2,0c-0.1,0-0.2,0-0.2,0c-0.2,0-0.3,0.1-0.4,0.2
			s-0.1,0.3-0.1,0.6v0.5h0.9v0.9h-0.9v5.3H154.7z"/>
		<path fill="#FFFFFF" d="M159.2,228.8c-0.3,0-0.6-0.1-0.8-0.2c-0.2-0.1-0.4-0.2-0.5-0.4c-0.1-0.2-0.2-0.4-0.3-0.6
			c-0.1-0.3-0.1-0.5-0.2-0.8c0-0.3,0-0.6-0.1-0.9c0-0.3,0-0.5,0-0.8c0-0.3,0-0.6,0.1-0.9c0-0.3,0.1-0.5,0.2-0.7
			c0.1-0.2,0.2-0.4,0.3-0.6c0.1-0.2,0.3-0.3,0.5-0.4s0.5-0.1,0.8-0.1c0.3,0,0.5,0,0.7,0.1c0.2,0.1,0.4,0.2,0.5,0.3
			c0.1,0.1,0.2,0.3,0.3,0.5c0.1,0.2,0.2,0.4,0.2,0.6c0,0.2,0.1,0.5,0.1,0.7c0,0.2,0,0.5,0,0.8v0.1h-2.5v0.3c0,0,0,0.1,0,0.2
			c0,0.1,0,0.2,0,0.4c0,0.1,0,0.3,0,0.4c0,0.1,0,0.2,0.1,0.4s0.1,0.2,0.1,0.3c0,0.1,0.1,0.2,0.2,0.2c0.1,0,0.2,0.1,0.3,0.1
			c0.1,0,0.2,0,0.3-0.1c0.1,0,0.1-0.1,0.2-0.2c0-0.1,0.1-0.2,0.1-0.3c0-0.1,0-0.2,0-0.4v-0.3h1.2v0.2c0,0.7-0.2,1.2-0.5,1.5
			C160.3,228.6,159.8,228.8,159.2,228.8z M158.6,225h1.2v-0.4c0-0.2,0-0.3,0-0.4c0-0.1,0-0.2-0.1-0.4c0-0.1-0.1-0.2-0.2-0.3
			c-0.1-0.1-0.2-0.1-0.3-0.1c-0.1,0-0.2,0-0.3,0.1c-0.1,0.1-0.2,0.2-0.2,0.3c0,0.1-0.1,0.3-0.1,0.4c0,0.1,0,0.3,0,0.4V225z"/>
		<path fill="#FFFFFF" d="M163.8,228.8c-0.3,0-0.6-0.1-0.8-0.2c-0.2-0.1-0.4-0.2-0.5-0.4c-0.1-0.2-0.2-0.4-0.3-0.6
			c-0.1-0.3-0.1-0.5-0.2-0.8c0-0.3,0-0.6-0.1-0.9c0-0.3,0-0.5,0-0.8c0-0.3,0-0.6,0.1-0.9c0-0.3,0.1-0.5,0.2-0.7
			c0.1-0.2,0.2-0.4,0.3-0.6c0.1-0.2,0.3-0.3,0.5-0.4s0.5-0.1,0.8-0.1c0.3,0,0.5,0,0.7,0.1c0.2,0.1,0.4,0.2,0.5,0.3
			c0.1,0.1,0.2,0.3,0.3,0.5c0.1,0.2,0.2,0.4,0.2,0.6c0,0.2,0.1,0.5,0.1,0.7c0,0.2,0,0.5,0,0.8v0.1h-2.5v0.3c0,0,0,0.1,0,0.2
			c0,0.1,0,0.2,0,0.4c0,0.1,0,0.3,0,0.4c0,0.1,0,0.2,0.1,0.4s0.1,0.2,0.1,0.3c0,0.1,0.1,0.2,0.2,0.2c0.1,0,0.2,0.1,0.3,0.1
			c0.1,0,0.2,0,0.3-0.1c0.1,0,0.1-0.1,0.2-0.2c0-0.1,0.1-0.2,0.1-0.3c0-0.1,0-0.2,0-0.4v-0.3h1.2v0.2c0,0.7-0.2,1.2-0.5,1.5
			C164.8,228.6,164.4,228.8,163.8,228.8z M163.1,225h1.2v-0.4c0-0.2,0-0.3,0-0.4c0-0.1,0-0.2-0.1-0.4c0-0.1-0.1-0.2-0.2-0.3
			c-0.1-0.1-0.2-0.1-0.3-0.1c-0.1,0-0.2,0-0.3,0.1c-0.1,0.1-0.2,0.2-0.2,0.3c0,0.1-0.1,0.3-0.1,0.4c0,0.1,0,0.3,0,0.4V225z"/>
		<path fill="#FFFFFF" d="M168,228.8c-0.3,0-0.5-0.1-0.7-0.2c-0.2-0.2-0.4-0.4-0.5-0.6c-0.1-0.3-0.2-0.5-0.3-0.8
			c-0.1-0.3-0.1-0.6-0.1-0.9c0-0.2,0-0.5,0-1.1c0-0.2,0-0.4,0-0.6c0-0.2,0-0.4,0.1-0.5c0-0.2,0.1-0.4,0.1-0.5c0-0.1,0.1-0.3,0.2-0.4
			c0.1-0.1,0.2-0.2,0.3-0.3c0.1-0.1,0.2-0.2,0.4-0.2c0.1-0.1,0.3-0.1,0.5-0.1c0.1,0,0.3,0,0.4,0.1c0.1,0,0.2,0.1,0.3,0.2
			c0.1,0.1,0.2,0.2,0.3,0.2c0.1,0.1,0.2,0.1,0.3,0.3V220h1.2v8.7h-1.2v-0.6c-0.2,0.2-0.4,0.4-0.6,0.5
			C168.5,228.7,168.3,228.8,168,228.8z M168.3,227.8c0.3,0,0.6-0.1,0.9-0.2v-3.9c-0.3-0.2-0.6-0.2-0.9-0.2c-0.1,0-0.2,0-0.3,0.1
			c-0.1,0.1-0.1,0.1-0.2,0.3c0,0.1-0.1,0.2-0.1,0.4s0,0.3,0,0.4c0,0.7,0,1.3,0,1.7c0,0.2,0,0.4,0,0.6c0,0.2,0.1,0.3,0.1,0.5
			s0.1,0.3,0.2,0.3C168.1,227.7,168.2,227.8,168.3,227.8z"/>
		<path fill="#FFFFFF" d="M174.8,228.8c-0.3,0-0.6-0.2-0.9-0.5c-0.2-0.3-0.4-0.6-0.4-1c0-0.3,0.1-0.6,0.2-0.8
			c0.1-0.2,0.2-0.4,0.3-0.6c0.1-0.1,0.3-0.3,0.6-0.5c0.3-0.2,0.5-0.3,0.6-0.3s0.4-0.2,0.7-0.3c0.1,0,0.1,0,0.1-0.1v-0.4
			c0-0.3,0-0.6-0.1-0.7c-0.1-0.2-0.3-0.3-0.5-0.3c-0.2,0-0.4,0.1-0.5,0.2c-0.1,0.1-0.1,0.4-0.2,0.6c0,0,0,0.1,0,0.2h-1.2
			c0-0.6,0.2-1.1,0.5-1.4c0.3-0.4,0.8-0.5,1.4-0.5c0.6,0,1,0.2,1.4,0.5c0.3,0.4,0.5,0.8,0.5,1.4v2.8c0,0.7,0.1,1.2,0.2,1.6h-1.2
			l-0.2-0.9c-0.1,0.1-0.1,0.2-0.2,0.3c0,0.1-0.1,0.2-0.2,0.3c-0.1,0.1-0.2,0.2-0.2,0.2c-0.1,0.1-0.2,0.1-0.3,0.1
			C175.1,228.8,174.9,228.8,174.8,228.8z M175.4,227.8c0.1,0,0.2,0,0.3-0.1c0.1-0.1,0.1-0.1,0.2-0.2c0,0,0.1-0.1,0.2-0.2
			c0,0,0,0,0,0v-1.7c-0.1,0-0.1,0.1-0.3,0.2c-0.1,0.1-0.2,0.1-0.3,0.2c-0.1,0-0.2,0.1-0.3,0.2c-0.1,0.1-0.2,0.2-0.2,0.2
			c-0.1,0.1-0.1,0.2-0.1,0.3c0,0.1-0.1,0.2-0.1,0.3C174.8,227.5,175,227.8,175.4,227.8z"/>
		<path fill="#FFFFFF" d="M178.4,228.7v-6.2h1.2v0.7c0.2-0.2,0.3-0.3,0.5-0.4c0.1-0.1,0.3-0.2,0.5-0.3c0.2-0.1,0.4-0.1,0.7-0.1
			c0.3,0,0.5,0.1,0.6,0.3s0.2,0.4,0.2,0.7v5.3h-1.2V224c0-0.2,0-0.4-0.1-0.5c-0.1-0.1-0.2-0.1-0.4-0.1c-0.1,0-0.2,0-0.3,0.1
			c-0.1,0-0.2,0.1-0.2,0.1c-0.1,0-0.1,0.1-0.2,0.2v4.9H178.4z"/>
		<path fill="#FFFFFF" d="M184.7,228.8c-0.3,0-0.5-0.1-0.7-0.2c-0.2-0.2-0.4-0.4-0.5-0.6c-0.1-0.3-0.2-0.5-0.3-0.8
			c-0.1-0.3-0.1-0.6-0.1-0.9c0-0.2,0-0.5,0-1.1c0-0.2,0-0.4,0-0.6c0-0.2,0-0.4,0.1-0.5c0-0.2,0.1-0.4,0.1-0.5c0-0.1,0.1-0.3,0.2-0.4
			c0.1-0.1,0.2-0.2,0.3-0.3c0.1-0.1,0.2-0.2,0.4-0.2c0.1-0.1,0.3-0.1,0.5-0.1c0.1,0,0.3,0,0.4,0.1c0.1,0,0.2,0.1,0.3,0.2
			c0.1,0.1,0.2,0.2,0.3,0.2c0.1,0.1,0.2,0.1,0.3,0.3V220h1.2v8.7h-1.2v-0.6c-0.2,0.2-0.4,0.4-0.6,0.5
			C185.1,228.7,184.9,228.8,184.7,228.8z M185,227.8c0.3,0,0.6-0.1,0.9-0.2v-3.9c-0.3-0.2-0.6-0.2-0.9-0.2c-0.1,0-0.2,0-0.3,0.1
			c-0.1,0.1-0.1,0.1-0.2,0.3c0,0.1-0.1,0.2-0.1,0.4s0,0.3,0,0.4c0,0.7,0,1.3,0,1.7c0,0.2,0,0.4,0,0.6c0,0.2,0.1,0.3,0.1,0.5
			s0.1,0.3,0.2,0.3C184.8,227.7,184.9,227.8,185,227.8z"/>
		<path fill="#FFFFFF" d="M191,228.7l-1.2-6.2h1.1l0.7,4.7l0.7-4.7h1.1l0.7,4.7l0.7-4.7h1.1l-1.2,6.2h-1.2l-0.7-4.3l-0.7,4.3H191z"
			/>
		<path fill="#FFFFFF" d="M197.7,228.8c-0.3,0-0.6-0.2-0.9-0.5c-0.2-0.3-0.4-0.6-0.4-1c0-0.3,0.1-0.6,0.2-0.8
			c0.1-0.2,0.2-0.4,0.3-0.6c0.1-0.1,0.3-0.3,0.6-0.5c0.3-0.2,0.5-0.3,0.6-0.3s0.4-0.2,0.7-0.3c0.1,0,0.1,0,0.1-0.1v-0.4
			c0-0.3,0-0.6-0.1-0.7c-0.1-0.2-0.3-0.3-0.5-0.3c-0.2,0-0.4,0.1-0.5,0.2c-0.1,0.1-0.1,0.4-0.2,0.6c0,0,0,0.1,0,0.2h-1.2
			c0-0.6,0.2-1.1,0.5-1.4c0.3-0.4,0.8-0.5,1.4-0.5c0.6,0,1,0.2,1.4,0.5c0.3,0.4,0.5,0.8,0.5,1.4v2.8c0,0.7,0.1,1.2,0.2,1.6h-1.2
			l-0.2-0.9c-0.1,0.1-0.1,0.2-0.2,0.3c0,0.1-0.1,0.2-0.2,0.3c-0.1,0.1-0.2,0.2-0.2,0.2c-0.1,0.1-0.2,0.1-0.3,0.1
			C197.9,228.8,197.8,228.8,197.7,228.8z M198.3,227.8c0.1,0,0.2,0,0.3-0.1c0.1-0.1,0.1-0.1,0.2-0.2c0,0,0.1-0.1,0.2-0.2
			c0,0,0,0,0,0v-1.7c-0.1,0-0.1,0.1-0.3,0.2c-0.1,0.1-0.2,0.1-0.3,0.2c-0.1,0-0.2,0.1-0.3,0.2c-0.1,0.1-0.2,0.2-0.2,0.2
			c-0.1,0.1-0.1,0.2-0.1,0.3c0,0.1-0.1,0.2-0.1,0.3C197.7,227.5,197.9,227.8,198.3,227.8z"/>
		<path fill="#FFFFFF" d="M201.3,221.5v-1.2h1.2v1.2H201.3z M201.3,228.7v-6.2h1.2v6.2H201.3z"/>
		<path fill="#FFFFFF" d="M205.5,228.8c-0.5,0-0.8-0.1-1.1-0.4c-0.2-0.3-0.3-0.6-0.3-1.1v-3.9h-0.6v-0.9h0.6v-2.2h1.2v2.2h0.9v0.9
			h-0.9v3.6c0,0.2,0,0.4,0.1,0.6s0.2,0.2,0.4,0.2c0.1,0,0.2,0,0.4,0v1C205.9,228.8,205.7,228.8,205.5,228.8z"/>
		<path fill="#FFFFFF" d="M209.5,228.7v-5.3h-0.6v-0.9h0.6v-0.2c0-0.3,0-0.5,0-0.7c0-0.2,0.1-0.4,0.1-0.5c0.1-0.2,0.1-0.3,0.2-0.4
			s0.2-0.2,0.4-0.2c0.2-0.1,0.4-0.1,0.6-0.1c0.2,0,0.5,0,0.8,0.1v0.9c0,0-0.1,0-0.2,0c-0.1,0-0.2,0-0.2,0c-0.2,0-0.3,0.1-0.4,0.2
			s-0.1,0.3-0.1,0.6v0.5h0.9v0.9h-0.9v5.3H209.5z"/>
		<path fill="#FFFFFF" d="M215.5,228.2c-0.3,0.4-0.8,0.6-1.4,0.6c-0.7,0-1.2-0.2-1.4-0.6c-0.3-0.4-0.4-1-0.4-1.7v-1.9
			c0-0.7,0.1-1.3,0.4-1.7c0.3-0.4,0.8-0.6,1.4-0.6c0.7,0,1.2,0.2,1.4,0.6c0.3,0.4,0.4,1,0.4,1.7v1.9
			C215.9,227.3,215.8,227.8,215.5,228.2z M213.8,227.7c0.1,0,0.1,0,0.2,0s0.2,0,0.2,0c0.1,0,0.1-0.1,0.2-0.1c0,0,0.1-0.1,0.1-0.2
			s0.1-0.1,0.1-0.2c0-0.1,0-0.1,0-0.2c0-0.1,0-0.2,0-0.2c0-0.1,0-0.2,0-0.3v-1.9c0-0.1,0-0.2,0-0.3c0-0.1,0-0.1,0-0.2
			c0-0.1,0-0.2,0-0.2c0-0.1,0-0.1-0.1-0.2s-0.1-0.1-0.1-0.2c0,0-0.1-0.1-0.2-0.1c-0.1,0-0.1,0-0.2,0s-0.2,0-0.2,0
			c-0.1,0-0.1,0.1-0.2,0.1c0,0-0.1,0.1-0.1,0.2s-0.1,0.1-0.1,0.2c0,0.1,0,0.1,0,0.2c0,0.1,0,0.2,0,0.2c0,0.1,0,0.2,0,0.3v1.9
			c0,0.1,0,0.2,0,0.3c0,0.1,0,0.1,0,0.2c0,0.1,0,0.2,0,0.2c0,0.1,0,0.1,0.1,0.2s0.1,0.1,0.1,0.2
			C213.7,227.7,213.7,227.7,213.8,227.7z"/>
		<path fill="#FFFFFF" d="M216.9,228.7v-6.2h1.2v0.8c0.1-0.2,0.3-0.5,0.6-0.6c0.2-0.2,0.5-0.3,0.8-0.3c0,0,0.1,0,0.2,0v1.4
			c-0.2-0.1-0.5-0.1-0.7-0.1c-0.3,0-0.5,0.1-0.6,0.2c-0.2,0.2-0.2,0.4-0.2,0.6v4.2H216.9z"/>
		<path fill="#FFFFFF" d="M115.6,240.8c-0.3,0-0.6-0.1-0.8-0.2c-0.2-0.1-0.4-0.2-0.5-0.4c-0.1-0.2-0.2-0.4-0.3-0.6
			c-0.1-0.3-0.1-0.5-0.2-0.8c0-0.3,0-0.5-0.1-0.9c0-0.3,0-0.5,0-0.8c0-0.3,0-0.6,0.1-0.9s0.1-0.5,0.2-0.8c0.1-0.3,0.2-0.5,0.3-0.6
			s0.3-0.3,0.5-0.4c0.2-0.1,0.5-0.2,0.8-0.2c0.7,0,1.1,0.2,1.4,0.5c0.3,0.4,0.4,0.9,0.5,1.6v0.2h-1.2v-0.2c0-0.2,0-0.3,0-0.4
			s0-0.2-0.1-0.4s-0.1-0.2-0.2-0.3s-0.2-0.1-0.3-0.1s-0.2,0-0.3,0.1s-0.1,0.2-0.2,0.3s-0.1,0.3-0.1,0.4c0,0.1,0,0.3,0,0.5
			c0,0.4,0,1,0,1.8c0,0.2,0,0.3,0,0.5c0,0.1,0.1,0.3,0.1,0.4c0,0.1,0.1,0.2,0.2,0.3s0.2,0.1,0.3,0.1c0.1,0,0.2,0,0.3-0.1
			c0.1,0,0.1-0.1,0.2-0.2c0-0.1,0.1-0.1,0.1-0.2c0-0.1,0-0.2,0-0.3c0-0.1,0-0.2,0-0.3v-0.2h1.2v0.2c0,0.3-0.1,0.6-0.1,0.9
			c-0.1,0.3-0.2,0.5-0.3,0.7c-0.1,0.2-0.3,0.3-0.6,0.4C116.2,240.8,115.9,240.8,115.6,240.8z"/>
		<path fill="#FFFFFF" d="M118.3,240.7v-6.2h1.2v0.8c0.1-0.2,0.3-0.5,0.6-0.6c0.2-0.2,0.5-0.3,0.8-0.3c0,0,0.1,0,0.2,0v1.4
			c-0.2-0.1-0.5-0.1-0.7-0.1c-0.3,0-0.5,0.1-0.6,0.2s-0.2,0.4-0.2,0.6v4.2H118.3z"/>
		<path fill="#FFFFFF" d="M121.7,233.5v-1.2h1.2v1.2H121.7z M121.7,240.7v-6.2h1.2v6.2H121.7z"/>
		<path fill="#FFFFFF" d="M124.1,242.6v-8.1h1.2v0.6c0.1-0.1,0.2-0.2,0.2-0.2s0.1-0.1,0.2-0.2c0.1-0.1,0.2-0.1,0.2-0.2
			c0.1,0,0.2-0.1,0.3-0.1c0.1,0,0.2,0,0.3,0c0.2,0,0.4,0,0.6,0.1c0.2,0.1,0.3,0.2,0.4,0.3s0.2,0.3,0.3,0.5s0.1,0.4,0.2,0.5
			c0,0.2,0.1,0.4,0.1,0.7c0,0.3,0,0.5,0,0.7s0,0.4,0,0.7v0.1c0,0.3,0,0.5,0,0.8s-0.1,0.5-0.2,0.8c-0.1,0.3-0.2,0.5-0.3,0.7
			c-0.1,0.2-0.3,0.3-0.4,0.5s-0.4,0.2-0.6,0.2c-0.4,0-0.8-0.2-1.2-0.6v2.4H124.1z M126.3,239.8c0.1,0,0.2,0,0.3-0.1s0.2-0.2,0.2-0.4
			s0.1-0.4,0.1-0.5c0-0.2,0-0.4,0-0.6l0-0.8c0-0.1,0-0.3,0-0.4c0-0.1,0-0.2,0-0.4c0-0.1,0-0.3,0-0.4c0-0.1,0-0.2-0.1-0.3
			c0-0.1-0.1-0.2-0.1-0.3c-0.1-0.1-0.1-0.1-0.2-0.2c-0.1,0-0.2-0.1-0.3-0.1c0,0-0.1,0-0.1,0c0,0-0.1,0-0.1,0s-0.1,0-0.1,0
			c0,0-0.1,0-0.1,0.1c0,0-0.1,0-0.1,0.1c0,0-0.1,0-0.1,0.1c-0.1,0-0.1,0.1-0.1,0.1v3.9C125.7,239.7,126,239.8,126.3,239.8z"/>
		<path fill="#FFFFFF" d="M129.2,242.6v-8.1h1.2v0.6c0.1-0.1,0.2-0.2,0.2-0.2s0.1-0.1,0.2-0.2c0.1-0.1,0.2-0.1,0.2-0.2
			c0.1,0,0.2-0.1,0.3-0.1c0.1,0,0.2,0,0.3,0c0.2,0,0.4,0,0.6,0.1c0.2,0.1,0.3,0.2,0.4,0.3s0.2,0.3,0.3,0.5s0.1,0.4,0.2,0.5
			c0,0.2,0.1,0.4,0.1,0.7c0,0.3,0,0.5,0,0.7s0,0.4,0,0.7v0.1c0,0.3,0,0.5,0,0.8s-0.1,0.5-0.2,0.8c-0.1,0.3-0.2,0.5-0.3,0.7
			c-0.1,0.2-0.3,0.3-0.4,0.5s-0.4,0.2-0.6,0.2c-0.4,0-0.8-0.2-1.2-0.6v2.4H129.2z M131.4,239.8c0.1,0,0.2,0,0.3-0.1s0.2-0.2,0.2-0.4
			s0.1-0.4,0.1-0.5c0-0.2,0-0.4,0-0.6l0-0.8c0-0.1,0-0.3,0-0.4c0-0.1,0-0.2,0-0.4c0-0.1,0-0.3,0-0.4c0-0.1,0-0.2-0.1-0.3
			c0-0.1-0.1-0.2-0.1-0.3c-0.1-0.1-0.1-0.1-0.2-0.2c-0.1,0-0.2-0.1-0.3-0.1c0,0-0.1,0-0.1,0c0,0-0.1,0-0.1,0s-0.1,0-0.1,0
			c0,0-0.1,0-0.1,0.1c0,0-0.1,0-0.1,0.1c0,0-0.1,0-0.1,0.1c-0.1,0-0.1,0.1-0.1,0.1v3.9C130.8,239.7,131.1,239.8,131.4,239.8z"/>
		<path fill="#FFFFFF" d="M134.3,240.7V232h1.2v8.8H134.3z"/>
		<path fill="#FFFFFF" d="M138.4,240.8c-0.3,0-0.6-0.1-0.8-0.2c-0.2-0.1-0.4-0.2-0.5-0.4c-0.1-0.2-0.2-0.4-0.3-0.6
			c-0.1-0.3-0.1-0.5-0.2-0.8c0-0.3,0-0.6-0.1-0.9c0-0.3,0-0.5,0-0.8c0-0.3,0-0.6,0.1-0.9c0-0.3,0.1-0.5,0.2-0.7
			c0.1-0.2,0.2-0.4,0.3-0.6c0.1-0.2,0.3-0.3,0.5-0.4s0.5-0.1,0.8-0.1c0.3,0,0.5,0,0.7,0.1c0.2,0.1,0.4,0.2,0.5,0.3s0.2,0.3,0.3,0.5
			c0.1,0.2,0.2,0.4,0.2,0.6c0,0.2,0.1,0.5,0.1,0.7c0,0.2,0,0.5,0,0.8v0.1h-2.5v0.3c0,0,0,0.1,0,0.2c0,0.1,0,0.2,0,0.4
			c0,0.1,0,0.3,0,0.4c0,0.1,0,0.2,0.1,0.4s0.1,0.2,0.1,0.3c0,0.1,0.1,0.2,0.2,0.2s0.2,0.1,0.3,0.1c0.1,0,0.2,0,0.3-0.1
			c0.1,0,0.1-0.1,0.2-0.2c0-0.1,0.1-0.2,0.1-0.3c0-0.1,0-0.2,0-0.4v-0.3h1.2v0.2c0,0.7-0.2,1.2-0.5,1.5S139.1,240.8,138.4,240.8z
			 M137.8,237h1.2v-0.4c0-0.2,0-0.3,0-0.4c0-0.1,0-0.2-0.1-0.4c0-0.1-0.1-0.2-0.2-0.3c-0.1-0.1-0.2-0.1-0.3-0.1
			c-0.1,0-0.2,0-0.3,0.1s-0.1,0.2-0.2,0.3c0,0.1-0.1,0.3-0.1,0.4c0,0.1,0,0.3,0,0.4V237z"/>
		<path fill="#FFFFFF" d="M142.7,240.8c-0.3,0-0.5-0.1-0.7-0.2s-0.4-0.4-0.5-0.6c-0.1-0.3-0.2-0.5-0.3-0.8s-0.1-0.6-0.1-0.9
			c0-0.2,0-0.5,0-1.1c0-0.2,0-0.4,0-0.6c0-0.2,0-0.4,0.1-0.5c0-0.2,0.1-0.4,0.1-0.5c0-0.1,0.1-0.3,0.2-0.4c0.1-0.1,0.2-0.2,0.3-0.3
			s0.2-0.2,0.4-0.2c0.1-0.1,0.3-0.1,0.5-0.1c0.1,0,0.3,0,0.4,0.1c0.1,0,0.2,0.1,0.3,0.2c0.1,0.1,0.2,0.2,0.3,0.2
			c0.1,0.1,0.2,0.1,0.3,0.3V232h1.2v8.7h-1.2v-0.6c-0.2,0.2-0.4,0.4-0.6,0.5C143.2,240.7,143,240.8,142.7,240.8z M143,239.8
			c0.3,0,0.6-0.1,0.9-0.2v-3.9c-0.3-0.2-0.6-0.2-0.9-0.2c-0.1,0-0.2,0-0.3,0.1c-0.1,0.1-0.1,0.1-0.2,0.3c0,0.1-0.1,0.2-0.1,0.4
			s0,0.3,0,0.4c0,0.7,0,1.3,0,1.7c0,0.2,0,0.4,0,0.6c0,0.2,0.1,0.3,0.1,0.5s0.1,0.3,0.2,0.3C142.8,239.7,142.9,239.8,143,239.8z"/>
		<path fill="#FFFFFF" d="M148.4,240.7V232h1.2v3.2c0.2-0.2,0.3-0.3,0.5-0.4c0.1-0.1,0.3-0.2,0.5-0.3c0.2-0.1,0.4-0.1,0.7-0.1
			c0.3,0,0.5,0.1,0.6,0.3s0.2,0.4,0.2,0.7v5.3h-1.2V236c0-0.2,0-0.4-0.1-0.5c-0.1-0.1-0.2-0.2-0.3-0.2c-0.3,0-0.5,0.1-0.8,0.4v4.9
			H148.4z"/>
		<path fill="#FFFFFF" d="M155,240.8c-0.3,0-0.6-0.1-0.8-0.2c-0.2-0.1-0.4-0.2-0.5-0.4c-0.1-0.2-0.2-0.4-0.3-0.6
			c-0.1-0.3-0.1-0.5-0.2-0.8c0-0.3,0-0.6-0.1-0.9c0-0.3,0-0.5,0-0.8c0-0.3,0-0.6,0.1-0.9c0-0.3,0.1-0.5,0.2-0.7
			c0.1-0.2,0.2-0.4,0.3-0.6c0.1-0.2,0.3-0.3,0.5-0.4s0.5-0.1,0.8-0.1c0.3,0,0.5,0,0.7,0.1c0.2,0.1,0.4,0.2,0.5,0.3
			c0.1,0.1,0.2,0.3,0.3,0.5c0.1,0.2,0.2,0.4,0.2,0.6c0,0.2,0.1,0.5,0.1,0.7c0,0.2,0,0.5,0,0.8v0.1h-2.5v0.3c0,0,0,0.1,0,0.2
			c0,0.1,0,0.2,0,0.4c0,0.1,0,0.3,0,0.4c0,0.1,0,0.2,0.1,0.4s0.1,0.2,0.1,0.3c0,0.1,0.1,0.2,0.2,0.2c0.1,0,0.2,0.1,0.3,0.1
			c0.1,0,0.2,0,0.3-0.1c0.1,0,0.1-0.1,0.2-0.2c0-0.1,0.1-0.2,0.1-0.3c0-0.1,0-0.2,0-0.4v-0.3h1.2v0.2c0,0.7-0.2,1.2-0.5,1.5
			C156.1,240.6,155.6,240.8,155,240.8z M154.4,237h1.2v-0.4c0-0.2,0-0.3,0-0.4c0-0.1,0-0.2-0.1-0.4c0-0.1-0.1-0.2-0.2-0.3
			c-0.1-0.1-0.2-0.1-0.3-0.1c-0.1,0-0.2,0-0.3,0.1c-0.1,0.1-0.2,0.2-0.2,0.3c0,0.1-0.1,0.3-0.1,0.4c0,0.1,0,0.3,0,0.4V237z"/>
		<path fill="#FFFFFF" d="M157.8,240.7v-6.2h1.2v0.8c0.1-0.2,0.3-0.5,0.6-0.6c0.2-0.2,0.5-0.3,0.8-0.3c0,0,0.1,0,0.2,0v1.4
			c-0.2-0.1-0.5-0.1-0.7-0.1c-0.3,0-0.5,0.1-0.6,0.2c-0.2,0.2-0.2,0.4-0.2,0.6v4.2H157.8z"/>
		<path fill="#FFFFFF" d="M163.2,240.7v-6.2h1.2v0.7c0.4-0.5,1-0.8,1.6-0.8c0.3,0,0.5,0.1,0.7,0.2c0.1,0.1,0.2,0.3,0.3,0.6
			c0.2-0.3,0.4-0.5,0.7-0.6c0.2-0.1,0.5-0.2,0.9-0.2c0.1,0,0.2,0,0.3,0c0.1,0,0.2,0,0.2,0.1c0.1,0,0.1,0.1,0.2,0.1
			c0,0.1,0.1,0.1,0.1,0.2c0,0.1,0.1,0.1,0.1,0.2c0,0.1,0,0.2,0,0.2c0,0.1,0,0.2,0,0.3c0,0.1,0,0.2,0,0.3s0,0.2,0,0.3
			c0,0,0,0.1,0,0.1v4.5h-1.2v-4.6c0,0,0,0,0-0.1c0-0.1,0-0.2,0-0.2c0-0.1,0-0.1,0-0.2c0-0.1,0-0.1-0.1-0.2c0,0-0.1-0.1-0.2-0.1
			c-0.1,0-0.3,0-0.4,0.1c-0.1,0.1-0.2,0.1-0.3,0.1c-0.1,0-0.2,0.1-0.3,0.2v4.9h-1.2v-4.5c0,0,0,0,0-0.1c0-0.1,0-0.2,0-0.2
			c0,0,0-0.1,0-0.2c0-0.1,0-0.1,0-0.2c0,0,0-0.1-0.1-0.1c0,0-0.1,0-0.2,0c-0.3,0-0.6,0.1-0.9,0.4v4.9H163.2z"/>
		<path fill="#FFFFFF" d="M172.3,240.8c-0.3,0-0.6-0.1-0.8-0.2c-0.2-0.1-0.4-0.2-0.5-0.4c-0.1-0.2-0.2-0.4-0.3-0.6
			c-0.1-0.3-0.1-0.5-0.2-0.8c0-0.3,0-0.6-0.1-0.9c0-0.3,0-0.5,0-0.8c0-0.3,0-0.6,0.1-0.9c0-0.3,0.1-0.5,0.2-0.7
			c0.1-0.2,0.2-0.4,0.3-0.6c0.1-0.2,0.3-0.3,0.5-0.4s0.5-0.1,0.8-0.1c0.3,0,0.5,0,0.7,0.1c0.2,0.1,0.4,0.2,0.5,0.3
			c0.1,0.1,0.2,0.3,0.3,0.5c0.1,0.2,0.2,0.4,0.2,0.6c0,0.2,0.1,0.5,0.1,0.7c0,0.2,0,0.5,0,0.8v0.1h-2.5v0.3c0,0,0,0.1,0,0.2
			c0,0.1,0,0.2,0,0.4c0,0.1,0,0.3,0,0.4c0,0.1,0,0.2,0.1,0.4s0.1,0.2,0.1,0.3c0,0.1,0.1,0.2,0.2,0.2c0.1,0,0.2,0.1,0.3,0.1
			c0.1,0,0.2,0,0.3-0.1c0.1,0,0.1-0.1,0.2-0.2c0-0.1,0.1-0.2,0.1-0.3c0-0.1,0-0.2,0-0.4v-0.3h1.2v0.2c0,0.7-0.2,1.2-0.5,1.5
			C173.4,240.6,172.9,240.8,172.3,240.8z M171.7,237h1.2v-0.4c0-0.2,0-0.3,0-0.4c0-0.1,0-0.2-0.1-0.4c0-0.1-0.1-0.2-0.2-0.3
			c-0.1-0.1-0.2-0.1-0.3-0.1c-0.1,0-0.2,0-0.3,0.1c-0.1,0.1-0.2,0.2-0.2,0.3c0,0.1-0.1,0.3-0.1,0.4c0,0.1,0,0.3,0,0.4V237z"/>
		<path fill="#FFFFFF" d="M175.1,240.7v-6.2h1.2v0.7c0.4-0.5,1-0.8,1.6-0.8c0.3,0,0.5,0.1,0.7,0.2c0.1,0.1,0.2,0.3,0.3,0.6
			c0.2-0.3,0.4-0.5,0.7-0.6c0.2-0.1,0.5-0.2,0.9-0.2c0.1,0,0.2,0,0.3,0c0.1,0,0.2,0,0.2,0.1c0.1,0,0.1,0.1,0.2,0.1
			c0,0.1,0.1,0.1,0.1,0.2c0,0.1,0.1,0.1,0.1,0.2c0,0.1,0,0.2,0,0.2c0,0.1,0,0.2,0,0.3c0,0.1,0,0.2,0,0.3s0,0.2,0,0.3
			c0,0,0,0.1,0,0.1v4.5h-1.2v-4.6c0,0,0,0,0-0.1c0-0.1,0-0.2,0-0.2c0-0.1,0-0.1,0-0.2c0-0.1,0-0.1-0.1-0.2c0,0-0.1-0.1-0.2-0.1
			c-0.1,0-0.3,0-0.4,0.1c-0.1,0.1-0.2,0.1-0.3,0.1c-0.1,0-0.2,0.1-0.3,0.2v4.9h-1.2v-4.5c0,0,0,0,0-0.1c0-0.1,0-0.2,0-0.2
			c0,0,0-0.1,0-0.2c0-0.1,0-0.1,0-0.2c0,0,0-0.1-0.1-0.1c0,0-0.1,0-0.2,0c-0.3,0-0.6,0.1-0.9,0.4v4.9H175.1z"/>
		<path fill="#FFFFFF" d="M185,240.8c-0.3,0-0.5-0.1-0.7-0.2c-0.2-0.1-0.4-0.3-0.6-0.5v0.6h-1.2V232h1.2v3.1
			c0.1-0.1,0.2-0.2,0.3-0.3c0.1-0.1,0.1-0.1,0.3-0.2c0.1-0.1,0.2-0.1,0.3-0.2c0.1,0,0.3-0.1,0.4-0.1c0.2,0,0.4,0,0.6,0.1
			c0.2,0.1,0.3,0.2,0.4,0.3s0.2,0.3,0.3,0.5c0.1,0.2,0.1,0.4,0.2,0.5c0,0.2,0.1,0.4,0.1,0.7c0,0.3,0,0.5,0,0.7c0,0.2,0,0.4,0,0.7
			v0.1c0,0.3,0,0.5,0,0.8c0,0.3-0.1,0.5-0.2,0.8s-0.2,0.5-0.3,0.7c-0.1,0.2-0.3,0.3-0.4,0.5C185.4,240.7,185.2,240.8,185,240.8z
			 M184.6,239.8c0.1,0,0.2,0,0.3-0.1c0.1-0.1,0.2-0.2,0.2-0.4c0-0.2,0.1-0.4,0.1-0.5c0-0.2,0-0.4,0-0.6c0-0.2,0-0.4,0-0.7
			c0-0.3,0-0.5,0-0.7s0-0.3,0-0.4c0-0.1,0-0.2,0-0.3c0-0.1-0.1-0.2-0.1-0.3s-0.1-0.1-0.2-0.2c-0.1,0-0.2-0.1-0.3-0.1
			c-0.3,0-0.7,0.1-0.9,0.2v3.9C184,239.7,184.3,239.8,184.6,239.8z"/>
		<path fill="#FFFFFF" d="M189.3,240.8c-0.3,0-0.6-0.1-0.8-0.2c-0.2-0.1-0.4-0.2-0.5-0.4c-0.1-0.2-0.2-0.4-0.3-0.6
			c-0.1-0.3-0.1-0.5-0.2-0.8c0-0.3,0-0.6-0.1-0.9c0-0.3,0-0.5,0-0.8c0-0.3,0-0.6,0.1-0.9c0-0.3,0.1-0.5,0.2-0.7
			c0.1-0.2,0.2-0.4,0.3-0.6c0.1-0.2,0.3-0.3,0.5-0.4s0.5-0.1,0.8-0.1c0.3,0,0.5,0,0.7,0.1c0.2,0.1,0.4,0.2,0.5,0.3
			c0.1,0.1,0.2,0.3,0.3,0.5c0.1,0.2,0.2,0.4,0.2,0.6c0,0.2,0.1,0.5,0.1,0.7c0,0.2,0,0.5,0,0.8v0.1h-2.5v0.3c0,0,0,0.1,0,0.2
			c0,0.1,0,0.2,0,0.4c0,0.1,0,0.3,0,0.4c0,0.1,0,0.2,0.1,0.4s0.1,0.2,0.1,0.3c0,0.1,0.1,0.2,0.2,0.2c0.1,0,0.2,0.1,0.3,0.1
			c0.1,0,0.2,0,0.3-0.1c0.1,0,0.1-0.1,0.2-0.2c0-0.1,0.1-0.2,0.1-0.3c0-0.1,0-0.2,0-0.4v-0.3h1.2v0.2c0,0.7-0.2,1.2-0.5,1.5
			C190.4,240.6,189.9,240.8,189.3,240.8z M188.7,237h1.2v-0.4c0-0.2,0-0.3,0-0.4c0-0.1,0-0.2-0.1-0.4c0-0.1-0.1-0.2-0.2-0.3
			c-0.1-0.1-0.2-0.1-0.3-0.1c-0.1,0-0.2,0-0.3,0.1c-0.1,0.1-0.2,0.2-0.2,0.3c0,0.1-0.1,0.3-0.1,0.4c0,0.1,0,0.3,0,0.4V237z"/>
		<path fill="#FFFFFF" d="M192.1,240.7v-6.2h1.2v0.8c0.1-0.2,0.3-0.5,0.6-0.6c0.2-0.2,0.5-0.3,0.8-0.3c0,0,0.1,0,0.2,0v1.4
			c-0.2-0.1-0.5-0.1-0.7-0.1c-0.3,0-0.5,0.1-0.6,0.2c-0.2,0.2-0.2,0.4-0.2,0.6v4.2H192.1z"/>
		<path fill="#FFFFFF" d="M197.1,240.8c-0.5,0-0.9-0.2-1.2-0.5c-0.3-0.3-0.5-0.7-0.6-1.2l0.9-0.3c0.2,0.6,0.5,0.9,0.9,0.9
			c0.2,0,0.4-0.1,0.5-0.2c0.1-0.1,0.2-0.3,0.2-0.5c0-0.3-0.1-0.5-0.3-0.7l-1.2-0.9c-0.1-0.1-0.3-0.2-0.4-0.3
			c-0.1-0.1-0.2-0.2-0.3-0.3c-0.1-0.1-0.2-0.3-0.2-0.4c-0.1-0.2-0.1-0.3-0.1-0.5c0-0.5,0.2-0.9,0.5-1.2c0.3-0.3,0.8-0.4,1.4-0.4
			c0.3,0,0.5,0,0.7,0.1c0.2,0.1,0.4,0.2,0.5,0.4c0.1,0.2,0.3,0.3,0.4,0.5c0.1,0.2,0.2,0.4,0.2,0.6l-0.9,0.3c0-0.1-0.1-0.2-0.1-0.3
			c0-0.1-0.1-0.2-0.2-0.3c-0.1-0.1-0.2-0.2-0.3-0.2c-0.1-0.1-0.2-0.1-0.3-0.1c-0.2,0-0.4,0.1-0.5,0.2c-0.1,0.1-0.2,0.3-0.2,0.5
			c0,0.2,0.1,0.4,0.3,0.5l1.2,0.9c0.1,0.1,0.3,0.2,0.4,0.3c0.1,0.1,0.2,0.2,0.3,0.4c0.1,0.1,0.2,0.3,0.2,0.5s0.1,0.3,0.1,0.5
			c0,0.5-0.2,0.9-0.5,1.2C198.1,240.7,197.7,240.8,197.1,240.8z"/>
		<path fill="#FFFFFF" d="M199.9,242l-0.3-0.6c0.2,0,0.4,0,0.5-0.1c0.1-0.1,0.1-0.3,0.1-0.5h-0.6v-1.2h1.2c0,0.5,0,0.9,0,1.2
			c0,0.2,0,0.3,0,0.4c0,0.1,0,0.2-0.1,0.4c0,0.1-0.1,0.2-0.2,0.3c-0.1,0.1-0.2,0.1-0.3,0.2C200.2,242,200,242,199.9,242z"/>
		<path fill="#FFFFFF" d="M115.7,252.8c-0.5,0-0.9-0.2-1.2-0.5c-0.3-0.3-0.5-0.7-0.6-1.2l0.9-0.3c0.2,0.6,0.5,0.9,0.9,0.9
			c0.2,0,0.4-0.1,0.5-0.2c0.1-0.1,0.2-0.3,0.2-0.5c0-0.3-0.1-0.5-0.3-0.7l-1.2-0.9c-0.1-0.1-0.3-0.2-0.4-0.3s-0.2-0.2-0.3-0.3
			c-0.1-0.1-0.2-0.3-0.2-0.4c-0.1-0.2-0.1-0.3-0.1-0.5c0-0.5,0.2-0.9,0.5-1.2s0.8-0.4,1.4-0.4c0.3,0,0.5,0,0.7,0.1
			c0.2,0.1,0.4,0.2,0.5,0.4s0.3,0.3,0.4,0.5s0.2,0.4,0.2,0.6l-0.9,0.3c0-0.1-0.1-0.2-0.1-0.3c0-0.1-0.1-0.2-0.2-0.3
			c-0.1-0.1-0.2-0.2-0.3-0.2c-0.1-0.1-0.2-0.1-0.3-0.1c-0.2,0-0.4,0.1-0.5,0.2c-0.1,0.1-0.2,0.3-0.2,0.5c0,0.2,0.1,0.4,0.3,0.5
			l1.2,0.9c0.1,0.1,0.3,0.2,0.4,0.3s0.2,0.2,0.3,0.4c0.1,0.1,0.2,0.3,0.2,0.5s0.1,0.3,0.1,0.5c0,0.5-0.2,0.9-0.5,1.2
			S116.3,252.8,115.7,252.8z"/>
		<path fill="#FFFFFF" d="M118.3,252.7V244h1.2v3.2c0.2-0.2,0.3-0.3,0.5-0.4c0.1-0.1,0.3-0.2,0.5-0.3c0.2-0.1,0.4-0.1,0.7-0.1
			c0.3,0,0.5,0.1,0.6,0.3s0.2,0.4,0.2,0.7v5.3h-1.2V248c0-0.2,0-0.4-0.1-0.5c-0.1-0.1-0.2-0.2-0.3-0.2c-0.3,0-0.5,0.1-0.8,0.4v4.9
			H118.3z"/>
		<path fill="#FFFFFF" d="M126.4,252.2c-0.3,0.4-0.8,0.6-1.4,0.6s-1.2-0.2-1.4-0.6s-0.4-1-0.4-1.7v-1.9c0-0.7,0.1-1.3,0.4-1.7
			s0.8-0.6,1.4-0.6s1.2,0.2,1.4,0.6s0.4,1,0.4,1.7v1.9C126.8,251.3,126.6,251.8,126.4,252.2z M124.7,251.7c0.1,0,0.1,0,0.2,0
			s0.2,0,0.2,0c0.1,0,0.1-0.1,0.2-0.1c0,0,0.1-0.1,0.1-0.2s0.1-0.1,0.1-0.2c0-0.1,0-0.1,0-0.2c0-0.1,0-0.2,0-0.2c0-0.1,0-0.2,0-0.3
			v-1.9c0-0.1,0-0.2,0-0.3c0-0.1,0-0.1,0-0.2c0-0.1,0-0.2,0-0.2c0-0.1,0-0.1-0.1-0.2s-0.1-0.1-0.1-0.2c0,0-0.1-0.1-0.2-0.1
			c-0.1,0-0.1,0-0.2,0s-0.2,0-0.2,0c-0.1,0-0.1,0.1-0.2,0.1c0,0-0.1,0.1-0.1,0.2s-0.1,0.1-0.1,0.2c0,0.1,0,0.1,0,0.2
			c0,0.1,0,0.2,0,0.2c0,0.1,0,0.2,0,0.3v1.9c0,0.1,0,0.2,0,0.3c0,0.1,0,0.1,0,0.2c0,0.1,0,0.2,0,0.2c0,0.1,0,0.1,0.1,0.2
			s0.1,0.1,0.1,0.2C124.6,251.7,124.6,251.7,124.7,251.7z"/>
		<path fill="#FFFFFF" d="M128.5,252.7l-1.2-6.2h1.1l0.7,4.7l0.7-4.7h1.1l0.7,4.7l0.7-4.7h1.1l-1.2,6.2H131l-0.7-4.3l-0.7,4.3H128.5
			z"/>
		<path fill="#FFFFFF" d="M134.1,245.5v-1.2h1.2v1.2H134.1z M134.1,252.7v-6.2h1.2v6.2H134.1z"/>
		<path fill="#FFFFFF" d="M136.6,252.7v-6.2h1.2v0.7c0.2-0.2,0.3-0.3,0.5-0.4c0.1-0.1,0.3-0.2,0.5-0.3c0.2-0.1,0.4-0.1,0.7-0.1
			c0.3,0,0.5,0.1,0.6,0.3s0.2,0.4,0.2,0.7v5.3h-1.2V248c0-0.2,0-0.4-0.1-0.5c-0.1-0.1-0.2-0.1-0.4-0.1c-0.1,0-0.2,0-0.3,0.1
			s-0.2,0.1-0.2,0.1c-0.1,0-0.1,0.1-0.2,0.2v4.9H136.6z"/>
		<path fill="#FFFFFF" d="M143.4,254.6c-0.2,0-0.3,0-0.4,0c-0.1,0-0.2,0-0.4,0c-0.2,0-0.3,0-0.4,0c-0.1,0-0.2,0-0.4-0.1
			c-0.1,0-0.3-0.1-0.4-0.1c-0.1,0-0.2-0.1-0.3-0.2c-0.1-0.1-0.2-0.1-0.2-0.2c0-0.1-0.1-0.2-0.1-0.3c0-0.3,0.1-0.6,0.3-0.8
			c0.2-0.2,0.4-0.4,0.7-0.6c-0.2,0-0.3-0.1-0.4-0.2s-0.2-0.2-0.2-0.3c0-0.1,0-0.1,0-0.2c0-0.1,0-0.1,0-0.2c0,0,0-0.1,0.1-0.2
			c0-0.1,0.1-0.1,0.1-0.2c0,0,0.1-0.1,0.1-0.2c0-0.1,0.1-0.1,0.1-0.1s0.1-0.1,0.1-0.1s0.1-0.1,0.1-0.1c-0.4-0.5-0.6-1.1-0.6-1.9
			c0-0.4,0.1-0.8,0.2-1.2c0.1-0.3,0.3-0.6,0.6-0.8c0.3-0.2,0.6-0.3,1-0.3c0.2,0,0.4,0,0.6,0.1c0.2,0.1,0.3,0.1,0.4,0.2
			c0.1,0.1,0.2,0.2,0.3,0.4c0.2-0.5,0.6-0.7,1.1-0.7c0,0,0,0,0,0s0,0,0,0s0,0,0,0v1c0,0,0,0-0.1,0c-0.1,0-0.2,0-0.3,0
			c-0.1,0-0.2,0-0.2,0c-0.1,0-0.2,0.1-0.2,0.1c0.1,0.1,0.1,0.3,0.2,0.5s0.1,0.4,0.1,0.6c0,0.4-0.1,0.8-0.2,1.2
			c-0.1,0.3-0.3,0.6-0.6,0.8c-0.3,0.2-0.6,0.3-1,0.3l-0.6-0.1c0,0,0,0,0,0.1c0,0,0,0.1-0.1,0.1c0,0,0,0.1,0,0.1c0,0,0,0.1,0,0.1
			c0,0.1,0,0.2,0.1,0.2s0.2,0.1,0.3,0.1c0.1,0,0.3,0,0.4,0.1c0.1,0,0.3,0,0.4,0c0.2,0,0.3,0,0.3,0c0.2,0,0.4,0.1,0.5,0.1
			s0.3,0.1,0.4,0.1c0.2,0.1,0.3,0.1,0.4,0.2c0.1,0.1,0.2,0.2,0.2,0.4c0.1,0.1,0.1,0.3,0.1,0.5c0,0.2,0,0.4-0.1,0.6
			c-0.1,0.2-0.2,0.3-0.3,0.4c-0.1,0.1-0.3,0.2-0.5,0.3c-0.2,0.1-0.4,0.1-0.6,0.2C143.9,254.6,143.6,254.6,143.4,254.6z M143.4,253.7
			c0.1,0,0.2,0,0.2,0c0.1,0,0.2,0,0.2,0s0.2,0,0.2,0c0.1,0,0.1,0,0.2-0.1c0.1,0,0.1-0.1,0.1-0.1s0-0.1,0-0.2c0-0.3-0.3-0.6-1-0.6
			l-1-0.1c-0.1,0.1-0.2,0.2-0.3,0.4c-0.1,0.2-0.1,0.4-0.1,0.5c0,0.1,0,0.1,0.1,0.1c0,0,0.1,0.1,0.2,0.1s0.1,0,0.2,0
			c0.1,0,0.2,0,0.3,0c0.1,0,0.2,0,0.3,0s0.2,0,0.3,0C143.3,253.7,143.4,253.7,143.4,253.7z M143.1,250c0.5,0,0.8-0.4,0.8-1.3
			c0-0.2,0-0.3,0-0.5s-0.1-0.3-0.1-0.4c-0.1-0.1-0.1-0.3-0.2-0.3s-0.2-0.1-0.4-0.1c-0.2,0-0.3,0-0.4,0.1s-0.2,0.2-0.2,0.3
			c-0.1,0.1-0.1,0.3-0.1,0.4s0,0.3,0,0.5C142.3,249.5,142.6,250,143.1,250z"/>
		<path fill="#FFFFFF" d="M149.7,252.8c-0.3,0-0.6-0.1-0.8-0.2c-0.2-0.1-0.4-0.2-0.5-0.4c-0.1-0.2-0.2-0.4-0.3-0.6
			c-0.1-0.3-0.1-0.5-0.2-0.8c0-0.3,0-0.6-0.1-0.9c0-0.3,0-0.5,0-0.8c0-0.3,0-0.6,0.1-0.9c0-0.3,0.1-0.5,0.2-0.7
			c0.1-0.2,0.2-0.4,0.3-0.6c0.1-0.2,0.3-0.3,0.5-0.4s0.5-0.1,0.8-0.1c0.3,0,0.5,0,0.7,0.1c0.2,0.1,0.4,0.2,0.5,0.3
			c0.1,0.1,0.2,0.3,0.3,0.5c0.1,0.2,0.2,0.4,0.2,0.6c0,0.2,0.1,0.5,0.1,0.7c0,0.2,0,0.5,0,0.8v0.1h-2.5v0.3c0,0,0,0.1,0,0.2
			c0,0.1,0,0.2,0,0.4c0,0.1,0,0.3,0,0.4c0,0.1,0,0.2,0.1,0.4s0.1,0.2,0.1,0.3c0,0.1,0.1,0.2,0.2,0.2c0.1,0,0.2,0.1,0.3,0.1
			c0.1,0,0.2,0,0.3-0.1c0.1,0,0.1-0.1,0.2-0.2c0-0.1,0.1-0.2,0.1-0.3c0-0.1,0-0.2,0-0.4v-0.3h1.2v0.2c0,0.7-0.2,1.2-0.5,1.5
			C150.8,252.6,150.4,252.8,149.7,252.8z M149.1,249h1.2v-0.4c0-0.2,0-0.3,0-0.4c0-0.1,0-0.2-0.1-0.4c0-0.1-0.1-0.2-0.2-0.3
			c-0.1-0.1-0.2-0.1-0.3-0.1c-0.1,0-0.2,0-0.3,0.1c-0.1,0.1-0.2,0.2-0.2,0.3c0,0.1-0.1,0.3-0.1,0.4c0,0.1,0,0.3,0,0.4V249z"/>
		<path fill="#FFFFFF" d="M152.5,252.7v-6.2h1.2v0.7c0.4-0.5,1-0.8,1.6-0.8c0.3,0,0.5,0.1,0.7,0.2c0.1,0.1,0.2,0.3,0.3,0.6
			c0.2-0.3,0.4-0.5,0.7-0.6c0.2-0.1,0.5-0.2,0.9-0.2c0.1,0,0.2,0,0.3,0c0.1,0,0.2,0,0.2,0.1c0.1,0,0.1,0.1,0.2,0.1
			c0,0.1,0.1,0.1,0.1,0.2c0,0.1,0.1,0.1,0.1,0.2c0,0.1,0,0.2,0,0.2c0,0.1,0,0.2,0,0.3c0,0.1,0,0.2,0,0.3s0,0.2,0,0.3
			c0,0,0,0.1,0,0.1v4.5h-1.2v-4.6c0,0,0,0,0-0.1c0-0.1,0-0.2,0-0.2c0-0.1,0-0.1,0-0.2c0-0.1,0-0.1-0.1-0.2c0,0-0.1-0.1-0.2-0.1
			c-0.1,0-0.3,0-0.4,0.1c-0.1,0.1-0.2,0.1-0.3,0.1c-0.1,0-0.2,0.1-0.3,0.2v4.9H155v-4.5c0,0,0,0,0-0.1c0-0.1,0-0.2,0-0.2
			c0,0,0-0.1,0-0.2c0-0.1,0-0.1,0-0.2c0,0,0-0.1-0.1-0.1c0,0-0.1,0-0.2,0c-0.3,0-0.6,0.1-0.9,0.4v4.9H152.5z"/>
		<path fill="#FFFFFF" d="M159.9,254.6v-8.1h1.2v0.6c0.1-0.1,0.2-0.2,0.2-0.2s0.1-0.1,0.2-0.2c0.1-0.1,0.2-0.1,0.2-0.2
			c0.1,0,0.2-0.1,0.3-0.1c0.1,0,0.2,0,0.3,0c0.2,0,0.4,0,0.6,0.1c0.2,0.1,0.3,0.2,0.4,0.3s0.2,0.3,0.3,0.5c0.1,0.2,0.1,0.4,0.2,0.5
			c0,0.2,0.1,0.4,0.1,0.7c0,0.3,0,0.5,0,0.7c0,0.2,0,0.4,0,0.7v0.1c0,0.3,0,0.5,0,0.8c0,0.3-0.1,0.5-0.2,0.8
			c-0.1,0.3-0.2,0.5-0.3,0.7c-0.1,0.2-0.3,0.3-0.4,0.5c-0.2,0.1-0.4,0.2-0.6,0.2c-0.4,0-0.8-0.2-1.2-0.6v2.4H159.9z M162.1,251.8
			c0.1,0,0.2,0,0.3-0.1c0.1-0.1,0.2-0.2,0.2-0.4c0-0.2,0.1-0.4,0.1-0.5c0-0.2,0-0.4,0-0.6l0-0.8c0-0.1,0-0.3,0-0.4
			c0-0.1,0-0.2,0-0.4c0-0.1,0-0.3,0-0.4c0-0.1,0-0.2-0.1-0.3c0-0.1-0.1-0.2-0.1-0.3c-0.1-0.1-0.1-0.1-0.2-0.2
			c-0.1,0-0.2-0.1-0.3-0.1c0,0-0.1,0-0.1,0c0,0-0.1,0-0.1,0c0,0-0.1,0-0.1,0c0,0-0.1,0-0.1,0.1c0,0-0.1,0-0.1,0.1c0,0-0.1,0-0.1,0.1
			c-0.1,0-0.1,0.1-0.1,0.1v3.9C161.4,251.7,161.7,251.8,162.1,251.8z"/>
		<path fill="#FFFFFF" d="M166,252.8c-0.3,0-0.6-0.2-0.9-0.5c-0.2-0.3-0.4-0.6-0.4-1c0-0.3,0.1-0.6,0.2-0.8c0.1-0.2,0.2-0.4,0.3-0.6
			c0.1-0.1,0.3-0.3,0.6-0.5c0.3-0.2,0.5-0.3,0.6-0.3s0.4-0.2,0.7-0.3c0.1,0,0.1,0,0.1-0.1v-0.4c0-0.3,0-0.6-0.1-0.7
			c-0.1-0.2-0.3-0.3-0.5-0.3c-0.2,0-0.4,0.1-0.5,0.2c-0.1,0.1-0.1,0.4-0.2,0.6c0,0,0,0.1,0,0.2h-1.2c0-0.6,0.2-1.1,0.5-1.4
			c0.3-0.4,0.8-0.5,1.4-0.5c0.6,0,1,0.2,1.4,0.5c0.3,0.4,0.5,0.8,0.5,1.4v2.8c0,0.7,0.1,1.2,0.2,1.6h-1.2l-0.2-0.9
			c-0.1,0.1-0.1,0.2-0.2,0.3c0,0.1-0.1,0.2-0.2,0.3c-0.1,0.1-0.2,0.2-0.2,0.2c-0.1,0.1-0.2,0.1-0.3,0.1
			C166.3,252.8,166.2,252.8,166,252.8z M166.7,251.8c0.1,0,0.2,0,0.3-0.1c0.1-0.1,0.1-0.1,0.2-0.2c0,0,0.1-0.1,0.2-0.2c0,0,0,0,0,0
			v-1.7c-0.1,0-0.1,0.1-0.3,0.2c-0.1,0.1-0.2,0.1-0.3,0.2c-0.1,0-0.2,0.1-0.3,0.2c-0.1,0.1-0.2,0.2-0.2,0.2
			c-0.1,0.1-0.1,0.2-0.1,0.3c0,0.1-0.1,0.2-0.1,0.3C166,251.5,166.3,251.8,166.7,251.8z"/>
		<path fill="#FFFFFF" d="M171.2,252.8c-0.5,0-0.8-0.1-1.1-0.4c-0.2-0.3-0.3-0.6-0.3-1.1v-3.9h-0.6v-0.9h0.6v-2.2h1.2v2.2h0.9v0.9
			H171v3.6c0,0.2,0,0.4,0.1,0.6s0.2,0.2,0.4,0.2c0.1,0,0.2,0,0.4,0v1C171.6,252.8,171.4,252.8,171.2,252.8z"/>
		<path fill="#FFFFFF" d="M172.9,252.7V244h1.2v3.2c0.2-0.2,0.3-0.3,0.5-0.4c0.1-0.1,0.3-0.2,0.5-0.3c0.2-0.1,0.4-0.1,0.7-0.1
			c0.3,0,0.5,0.1,0.6,0.3s0.2,0.4,0.2,0.7v5.3h-1.2V248c0-0.2,0-0.4-0.1-0.5c-0.1-0.1-0.2-0.2-0.3-0.2c-0.3,0-0.5,0.1-0.8,0.4v4.9
			H172.9z"/>
		<path fill="#FFFFFF" d="M177.5,254.3v-0.9c0.2,0,0.4,0,0.6,0c0.1,0,0.3-0.1,0.3-0.2c0.1-0.1,0.1-0.2,0.1-0.3c0-0.1,0-0.2,0-0.4
			l-1.4-6h1.2c0.5,2.7,0.7,4.1,0.8,4.4c0.1-0.4,0.1-0.9,0.2-1.4c0.1-0.5,0.2-1,0.3-1.6c0.1-0.6,0.2-1,0.3-1.4h1.2l-1.6,6.6
			c-0.1,0.5-0.3,0.8-0.7,1c-0.3,0.2-0.8,0.3-1.4,0.3H177.5z"/>
		<path fill="#FFFFFF" d="M181.6,252.7v-1.2h1.2v1.2H181.6z"/>
	</g>
	<g>
	</g>
	<g>
	</g>
	<g>
	</g>
	<g>
	</g>
	<g>
	</g>
	<g>
	</g>
</g>
</svg>
