<?xml version="1.0" encoding="utf-8"?>
<!-- Generator: Adobe Illustrator 19.1.0, SVG Export Plug-In . SVG Version: 6.00 Build 0)  -->
<svg version="1.1" xmlns="http://www.w3.org/2000/svg" xmlns:xlink="http://www.w3.org/1999/xlink" x="0px" y="0px" width="224.9px"
	 height="218.4px" viewBox="0 0 224.9 218.4" enable-background="new 0 0 224.9 218.4" xml:space="preserve">
<g id="bck">
	<path opacity="0.39" fill="#FFFFFF" d="M165.6,156.6c-3.5-0.7-6.5-1.6-9.5-2.7c-6.4-2.3-12.4-5.4-21.7-8
		c-4.9-1.4-10.8-2.7-18.1-3.7c-10.5-1.4-19.4,0.6-28,3.6c-6.8,2.3-13.3,5.2-20.3,7.4c-7.2,2.3-15,3.9-23.8,3.3
		c-11,0-38.7-8.3-33.7-50.6c0.3-2.5,0.7-5.1,1.2-7.9c1.8-9.2,4.9-19.7,9.8-31.8C52.9-11.1,111.3-6.5,143.8,9.8
		c5.8,2.9,11.3,6.6,16.5,11h0c1.9,1.6,3.7,3.2,5.5,5c12.8,12.5,23.1,29,30,47.2c1,2.7,2,5.4,2.9,8.2c2.8,8.7,4.8,17.8,5.9,26.8
		C209.2,145.2,180.8,159.4,165.6,156.6z"/>
</g>
<g id="body">
	<path fill="#9BBDAC" d="M64.6,142.2l-4.3,5.1l-1.6,2l-16.5-8.8c0.7-0.4,1.3-0.8,2-1.3c0.3-0.2,0.5-0.5,0.8-0.7
		c3.7-3.4,7.1-9.2,9.4-13.8c0.6-1.1,1-2.1,1.5-3c1-2,1.5-3.5,1.6-3.6c1.3,4.7,2.6,9.1,3.8,13.2C62.4,135.3,63.5,139,64.6,142.2z"/>
	<path fill="#9BBDAC" d="M204.6,151.7l-17.3,8l-12-23.5l-1.9-3.7c0.5-0.7,1-1.4,1.5-2.1c4.8-6.9,9.7-14.6,13.9-22.9
		c0.1,0.1,0.8,1.7,1.9,4.1c2.2,5,6.1,13.7,9.1,22.2c2.1,5.8,3.8,11.4,4.5,15.7C204.5,150.3,204.6,151.1,204.6,151.7z"/>
	<path fill="#9BBDAC" d="M148.2,127.8c0.1-0.2,0.1-0.4,0.2-0.7c-0.1,0.3-0.2,0.6-0.3,0.9C148.1,128,148.2,127.9,148.2,127.8z
		 M85.7,143.6c0,0.4,0,0.9-0.1,1.3C85.7,144.5,85.7,144.1,85.7,143.6z M85.7,143.3c0-0.3-0.1-0.5-0.1-0.8c0,0.2,0.1,0.4,0.1,0.6
		C85.7,143.2,85.7,143.3,85.7,143.3z M85.5,142C85.5,142,85.5,141.9,85.5,142C85.4,141.9,85.5,142,85.5,142c0,0.1,0,0.2,0,0.2
		C85.5,142.2,85.5,142.1,85.5,142z M85.4,141.8C85.4,141.8,85.4,141.9,85.4,141.8C85.4,141.8,85.4,141.8,85.4,141.8
		C85.4,141.8,85.4,141.8,85.4,141.8z M84.6,138.3c0.1,0.5,0.2,1.1,0.4,1.6c0.1,0.3,0.2,0.7,0.2,1c-0.2-1-0.5-2.1-0.7-3.2
		C84.5,137.9,84.6,138.1,84.6,138.3z M83,131c0.1,0.3,0.2,0.7,0.2,1.1c0.3,1.5,0.6,3,1,4.5c0.1,0.4,0.2,0.7,0.2,1.1
		c-0.4-1.8-0.8-3.7-1.2-5.6C83.2,131.7,83.1,131.4,83,131z M82.1,126.3c0.1,0.5,0.2,1,0.3,1.6c0.1,0.5,0.2,1.1,0.3,1.6
		c0,0.2,0.1,0.3,0.1,0.4c0,0.2,0.1,0.4,0.1,0.6c-0.1-0.4-0.1-0.7-0.2-1.1C82.5,128.4,82.3,127.4,82.1,126.3z M81.4,110.6
		c-0.1,0.1-0.1,0.3-0.2,0.4c0,0.1-0.1,0.2-0.1,0.3C81.2,111.1,81.3,110.8,81.4,110.6c0.2-0.3,0.5-0.7,0.8-1.1
		C81.9,109.9,81.6,110.3,81.4,110.6z M80.7,112.7c0-0.1,0-0.2,0.1-0.3c0,0,0,0,0,0.1C80.7,112.6,80.7,112.6,80.7,112.7z M80.7,112.8
		c0,0.1,0,0.2,0,0.2C80.6,112.9,80.6,112.8,80.7,112.8C80.7,112.7,80.7,112.7,80.7,112.8z M80.6,115.2c0,0.2,0,0.3,0,0.5
		c0-0.5-0.1-1-0.1-1.4C80.5,114.5,80.5,114.9,80.6,115.2z M80.6,113.4c0,0.1,0,0.1,0,0.2c0-0.1,0-0.2,0-0.3
		C80.6,113.3,80.6,113.4,80.6,113.4z"/>
	<path fill="#9BBDAC" d="M199.7,72.1c0,0.4,0,0.7,0,1.1c-0.1,1.3-0.2,2.7-0.4,4c0,0.4-0.1,0.7-0.1,1.1c-0.1,0.9-0.3,1.9-0.5,2.9
		c-0.1,0.8-0.3,1.5-0.5,2.3c-0.1,0.3-0.1,0.6-0.2,0.8c-0.2,0.7-0.4,1.5-0.6,2.2c-2.1,7.2-5.1,14.3-8.5,21c0,0,0,0,0,0
		c-0.9,1.7-1.8,3.4-2.7,5c-0.6,1.1-1.2,2.2-1.9,3.3c-0.5,0.8-1,1.6-1.4,2.4c-0.5,0.8-1,1.6-1.5,2.4c-1,1.6-2,3.1-3,4.6
		c-1.3,2-2.7,4-4,5.8c-0.3,0.5-0.7,0.9-1,1.4c0,0,0,0,0,0c-0.6,0.8-1.1,1.5-1.7,2.3c-0.3,0.5-0.7,1-1.1,1.4c-0.5,0.7-1,1.4-1.5,2
		c-0.4,0.5-0.8,1-1.1,1.5c-0.3,0.4-0.6,0.7-0.8,1.1c-0.3,0.4-0.6,0.7-0.9,1.1c-0.9,1.1-1.7,2.1-2.5,3.1c-3,3.6-5.6,6.6-7.7,8.9
		c-6.4-2.3-12.4-5.4-21.7-8c2.4-2.8,5.5-6.8,8.1-11.1c0.1-0.2,0.3-0.5,0.4-0.7c0.1-0.2,0.2-0.4,0.3-0.6c0.2-0.3,0.4-0.7,0.6-1.1
		c0.4-0.7,0.8-1.5,1.1-2.2c0.3-0.6,0.5-1.2,0.8-1.8c0.1-0.2,0.2-0.4,0.2-0.5c0.1-0.3,0.2-0.6,0.4-1c0.1-0.3,0.2-0.5,0.3-0.8
		c0.3-1,0.6-1.9,0.8-2.8c0-0.2,0.1-0.4,0.1-0.6c0-0.1,0-0.2,0-0.2c0.1-0.3,0.1-0.6,0.1-1c0-0.3,0.1-0.6,0.1-0.9c0-0.1,0-0.1,0-0.2
		c0-0.3,0-0.6,0-1c0-4.5-2-8.6-7.2-11.5c-16.5-9.2-44.3-5.8-54.8,2.7c0,0,0,0,0,0c-1.4,1.1-2.5,2.3-3.2,3.6c-0.6,1.2-1,2.4-0.9,3.7
		c0,0.4,0,0.9,0.1,1.3c0,0.5,0.1,1,0.1,1.5v0c0,0.3,0.1,0.6,0.1,0.9c0.2,1.9,0.5,3.8,0.9,5.7c0,0.3,0.1,0.5,0.2,0.8
		c0.2,1.2,0.5,2.3,0.8,3.5c0.2,0.7,0.4,1.4,0.5,2.1c0.3,1.1,0.6,2.3,0.9,3.3c0.2,0.6,0.3,1.1,0.5,1.6c0.1,0.3,0.2,0.7,0.3,1
		c0.2,0.5,0.3,1.1,0.5,1.6c0.2,0.6,0.4,1.2,0.6,1.7c0.1,0.4,0.3,0.8,0.4,1.2c0.2,0.7,0.5,1.3,0.7,1.9c-6.8,2.3-13.3,5.2-20.3,7.4
		c-0.1-0.5-0.2-1-0.4-1.5c-0.1-0.4-0.2-0.8-0.4-1.2c-0.5-1.3-1-3-1.7-5c-0.4-1.1-0.7-2.2-1.1-3.4c-1-3.2-2.2-6.9-3.4-10.9
		c-1.2-4.1-2.5-8.5-3.8-13.2c-0.3-1.3-0.7-2.6-1.1-3.9c-0.2-0.8-0.4-1.6-0.6-2.3c0.7-0.2,1.3-0.5,1.9-0.7c0.4-0.2,0.9-0.3,1.3-0.6
		c2.4-1.1,4.5-2.4,6.3-3.9c1.5-1.2,2.9-2.6,4-4c3.5-4.2,5.6-9,6.8-13c0,0,0,0,0-0.1c1.2-4,1.5-7.1,1.6-8.1c0-0.2,0-0.3,0-0.3
		s-1.1,1.4-3.2,3.7c-0.4,0.5-0.9,0.9-1.4,1.4c-1.1,1.1-2.4,2.4-3.8,3.9c-2.8,2.7-6.2,5.8-10.3,9.2c-1.7,1.4-3.4,2.8-5.3,4.2
		c-6.5,5-15.5,7.9-28,6.3c-6.4-0.8-11.3-2.2-15-4C-3.2,99.2-0.8,87.1,2.7,79.3c0.2-0.5,0.4-1,0.7-1.4c1.7-3.4,3.4-5.7,3.4-5.7
		c0.1,0.3,0.3,0.5,0.5,0.7c1.1,1.1,3.1,0.9,4.6,0.5c1.1-0.3,2-0.6,2.1-0.7c-0.2,0.2-4.5,4.8-6.9,10.3c-1.3,2.9-2.1,6.1-1.3,8.9
		c0.6,2.4,2.3,4.5,5.6,6c0,0,0,0,0,0c0.1,0.1,0.2,0.1,0.4,0.2c2.1,0.9,4.8,1.6,8.2,1.9c5,0.5,9-0.7,12.3-3c1.5-1,2.8-2.3,3.9-3.8
		c2.6-3.3,4.6-7.6,6-12.1c2.5-8.1,3.4-17.1,3.7-23.7c0.2-5,0.1-8.5,0.1-9c0,0,0-0.1,0-0.1c0.3-5.1,1.2-9.5,2.7-13
		c0.6-1.4,1.4-2.7,2.2-3.8c0.1-0.2,0.3-0.3,0.5-0.5c1-1.2,2.1-2.4,3.3-3.5c2.9-2.7,6.3-5,10-6.8c0,0,0,0,0,0c0,0,0,0,0,0
		c3.4-1.7,7.1-3,11-4h0c1.7-0.5,3.5-0.9,5.4-1.2h0c2.9-0.6,5.9-1,9-1.3c0,0,0,0,0,0c12.9-1.3,27-0.6,40.2,0.9
		c5.5,0.6,10.9,1.4,16,2.2c0.9,0.1,1.7,0.3,2.6,0.5c0.6,0.1,1.1,0.2,1.7,0.3c0.2,0,0.5,0.1,0.8,0.2c0.4,0.1,0.7,0.2,1.1,0.2
		c0.3,0.1,0.7,0.2,1,0.3c0.6,0.1,1.2,0.3,1.7,0.5c0.6,0.2,1.2,0.3,1.7,0.5c0.5,0.1,1,0.3,1.4,0.5c0.3,0.1,0.5,0.2,0.8,0.3
		c0.4,0.1,0.8,0.3,1.2,0.4h0c1.3,0.5,2.5,0.9,3.7,1.5c0.4,0.2,0.7,0.3,1.1,0.5c0.2,0.1,0.5,0.2,0.7,0.3c0.4,0.2,0.8,0.4,1.2,0.6
		c1.4,0.7,2.8,1.4,4.2,2.2c0.4,0.2,0.8,0.5,1.2,0.7c0.5,0.3,1,0.6,1.5,0.9c0.4,0.2,0.8,0.5,1.2,0.7c0.5,0.3,1,0.6,1.4,1
		c0.5,0.3,1,0.7,1.4,1c0.7,0.5,1.4,1.1,2.1,1.6c0.4,0.3,0.8,0.6,1.1,0.9c0.5,0.4,0.9,0.8,1.4,1.2c0,0,0.1,0.1,0.1,0.1
		c0.4,0.4,0.9,0.8,1.3,1.2c0.4,0.4,0.9,0.9,1.3,1.3c0.4,0.4,0.8,0.9,1.2,1.3c0.3,0.3,0.6,0.7,0.9,1c1.3,1.5,2.5,3.1,3.7,4.7
		c0.3,0.4,0.5,0.7,0.8,1.1c0.2,0.2,0.3,0.5,0.5,0.7c0.2,0.3,0.4,0.6,0.6,0.9c0.2,0.3,0.4,0.7,0.6,1c0.3,0.5,0.6,1,0.9,1.6
		c0.2,0.3,0.3,0.6,0.5,0.9c0.2,0.5,0.5,0.9,0.7,1.4c0.2,0.4,0.4,0.9,0.6,1.3c0.1,0.2,0.1,0.3,0.2,0.5c0,0.1,0.1,0.2,0.1,0.3
		c0.2,0.4,0.3,0.7,0.4,1.1c0.6,1.6,1.1,3.3,1.5,5c0.1,0.2,0.1,0.5,0.2,0.7c0.1,0.5,0.2,1,0.3,1.5c0,0,0,0,0,0s0,0,0,0
		C199.5,65,199.8,68.5,199.7,72.1z"/>
	<path fill="#9BBDAC" d="M65.7,20.5c-0.1,0-0.2,0-0.2,0c-0.1,0-0.1,0-0.2,0C65.4,20.5,65.5,20.5,65.7,20.5z"/>
	<path fill="#9BBDAC" d="M179.4,121.1c0.4-0.7,0.9-1.5,1.3-2.2C180.3,119.7,179.8,120.4,179.4,121.1z"/>
	<path fill="#9BBDAC" d="M178,123.4c0.5-0.8,0.9-1.5,1.4-2.3c-0.2,0.3-0.4,0.6-0.5,0.9C178.6,122.5,178.3,123,178,123.4z"/>
	<path fill="#9BBDAC" d="M180.7,118.9c0.6-1.1,1.3-2.3,1.9-3.4c-0.6,1.1-1.2,2.2-1.8,3.3C180.7,118.9,180.7,118.9,180.7,118.9z"/>
	<path fill="#9BBDAC" d="M185.1,110.7c-0.2,0.5-0.5,1-0.7,1.4c-0.6,1.1-1.2,2.3-1.8,3.4c0.6-1.1,1.2-2.2,1.8-3.4
		C184.6,111.6,184.8,111.2,185.1,110.7z"/>
	<path fill="#9BBDAC" d="M186.9,107c-0.3,0.7-0.6,1.3-0.9,2C186.2,108.3,186.5,107.7,186.9,107C186.9,107,186.9,107,186.9,107z"/>
	<path fill="#9BBDAC" d="M188.9,102.4c-0.2,0.5-0.4,1.1-0.7,1.6C188.4,103.5,188.6,103,188.9,102.4
		C188.8,102.5,188.8,102.4,188.9,102.4z"/>
	<path fill="#9BBDAC" d="M189.7,100.3c0.1-0.2,0.2-0.5,0.3-0.7c-0.1,0.3-0.2,0.6-0.3,0.9C189.7,100.5,189.7,100.4,189.7,100.3z"/>
	<path fill="#9BBDAC" d="M190,99.6c0.2-0.5,0.4-1,0.6-1.5c-0.1,0.3-0.2,0.6-0.3,0.9c0,0.1-0.1,0.2-0.1,0.2
		C190.1,99.4,190,99.5,190,99.6z"/>
	<path fill="#9BBDAC" d="M191.5,95.5c-0.3,0.9-0.6,1.8-1,2.7c0.1-0.3,0.2-0.6,0.3-0.9c0.1-0.3,0.2-0.6,0.3-0.9
		C191.3,96.1,191.4,95.8,191.5,95.5z"/>
	<path fill="#9BBDAC" d="M191.9,94.2c0,0.1-0.1,0.3-0.1,0.4c-0.1,0.3-0.2,0.6-0.3,0.9c0.1-0.3,0.2-0.6,0.3-0.9
		C191.8,94.5,191.9,94.3,191.9,94.2z"/>
	<path fill="#9BBDAC" d="M192.4,92.8c0-0.1,0.1-0.3,0.1-0.4c-0.1,0.2-0.1,0.5-0.2,0.7C192.3,93,192.3,92.9,192.4,92.8z"/>
	
		<ellipse transform="matrix(-0.9971 -7.629651e-02 7.629651e-02 -0.9971 127.4866 158.3247)" fill="#231F20" cx="66.8" cy="76.7" rx="3.8" ry="4.6"/>
	<path fill="#82A092" d="M65.7,20.5c-0.1,0-0.2,0-0.2,0c-0.1,0-0.1,0-0.2,0C65.4,20.5,65.5,20.5,65.7,20.5z"/>
	<path fill="#82A092" d="M179.4,121.1c0.4-0.7,0.9-1.5,1.3-2.2C180.3,119.7,179.8,120.4,179.4,121.1z"/>
	<path fill="#82A092" d="M178,123.4c0.5-0.8,0.9-1.5,1.4-2.3c-0.2,0.3-0.4,0.6-0.5,0.9C178.6,122.5,178.3,123,178,123.4z"/>
	<path fill="#82A092" d="M180.7,118.9c0.6-1.1,1.3-2.3,1.9-3.4c-0.6,1.1-1.2,2.2-1.8,3.3C180.7,118.9,180.7,118.9,180.7,118.9z"/>
	<path fill="#82A092" d="M185.1,110.7c-0.2,0.5-0.5,1-0.7,1.4c-0.6,1.1-1.2,2.3-1.8,3.4c0.6-1.1,1.2-2.2,1.8-3.4
		C184.6,111.6,184.8,111.2,185.1,110.7z"/>
	<path fill="#82A092" d="M186.9,107c-0.3,0.7-0.6,1.3-0.9,2C186.2,108.3,186.5,107.7,186.9,107C186.9,107,186.9,107,186.9,107z"/>
	<path fill="#82A092" d="M188.9,102.4c-0.2,0.5-0.4,1.1-0.7,1.6C188.4,103.5,188.6,103,188.9,102.4
		C188.8,102.5,188.8,102.4,188.9,102.4z"/>
	<path fill="#82A092" d="M189.7,100.3c0.1-0.2,0.2-0.5,0.3-0.7c-0.1,0.3-0.2,0.6-0.3,0.9C189.7,100.5,189.7,100.4,189.7,100.3z"/>
	<path fill="#82A092" d="M190,99.6c0.2-0.5,0.4-1,0.6-1.5c-0.1,0.3-0.2,0.6-0.3,0.9c0,0.1-0.1,0.2-0.1,0.2
		C190.1,99.4,190,99.5,190,99.6z"/>
	<path fill="#82A092" d="M191.5,95.5c-0.3,0.9-0.6,1.8-1,2.7c0.1-0.3,0.2-0.6,0.3-0.9c0.1-0.3,0.2-0.6,0.3-0.9
		C191.3,96.1,191.4,95.8,191.5,95.5z"/>
	<path fill="#82A092" d="M191.9,94.2c0,0.1-0.1,0.3-0.1,0.4c-0.1,0.3-0.2,0.6-0.3,0.9c0.1-0.3,0.2-0.6,0.3-0.9
		C191.8,94.5,191.9,94.3,191.9,94.2z"/>
	<path fill="#82A092" d="M192.4,92.8c0-0.1,0.1-0.3,0.1-0.4c-0.1,0.2-0.1,0.5-0.2,0.7C192.3,93,192.3,92.9,192.4,92.8z"/>
	<path fill="#FFFFFF" d="M65.6,8.8l-0.9,11.8c0,0,0,0,0,0c0.3-0.1,3.6-0.9,8.6,0c4.5,0.8,10.5,2.8,17.1,8l6.6-9.5
		c0,0-0.4-0.4-1.2-1.1c-1.1-1-3-2.5-5.8-3.9C84.9,11.3,76.9,8.5,65.6,8.8z"/>
	<polygon fill="#ED1F2E" points="79.8,12.6 76.4,11.7 76.2,14.8 72.8,14 72.1,15.8 75.8,16.4 74.7,18.8 78.3,19.6 78.3,16.8 
		81.1,17.7 82.6,15.7 79,15 	"/>
	<path fill="#82A092" d="M80.6,113.3c0,0.1,0,0.2,0,0.3c0-0.1,0-0.1,0-0.2C80.6,113.4,80.6,113.3,80.6,113.3z"/>
	<path fill="#82A092" d="M80.5,114.2c0,0.4,0,0.9,0.1,1.4c0-0.2,0-0.3,0-0.5C80.5,114.9,80.5,114.5,80.5,114.2z"/>
	<path fill="#82A092" d="M80.7,112.7c0,0.1,0,0.2,0,0.2C80.6,112.9,80.6,112.8,80.7,112.7C80.7,112.7,80.7,112.7,80.7,112.7z"/>
	<path fill="#82A092" d="M80.7,112.5C80.7,112.5,80.7,112.4,80.7,112.5c0,0,0,0.1,0,0.2C80.7,112.6,80.7,112.6,80.7,112.5z"/>
	<path fill="#82A092" d="M82.3,109.5c-0.3,0.4-0.6,0.8-0.8,1.1c-0.1,0.2-0.2,0.5-0.4,0.7c0-0.1,0.1-0.2,0.1-0.3
		c0.1-0.1,0.1-0.3,0.2-0.4C81.6,110.3,81.9,109.9,82.3,109.5z"/>
	<path fill="#82A092" d="M82.7,129.5c0.1,0.4,0.1,0.7,0.2,1.1c0-0.2-0.1-0.4-0.1-0.6C82.8,129.8,82.8,129.7,82.7,129.5
		c-0.1-0.5-0.2-1.1-0.3-1.6c-0.1-0.5-0.2-1-0.3-1.6C82.3,127.4,82.5,128.4,82.7,129.5z"/>
	<path fill="#82A092" d="M83.3,132.1c0.4,1.9,0.8,3.8,1.2,5.6c-0.1-0.4-0.2-0.7-0.2-1.1C83.9,135.1,83.6,133.6,83.3,132.1
		c-0.1-0.3-0.2-0.7-0.2-1C83.1,131.4,83.2,131.7,83.3,132.1z"/>
	<path fill="#82A092" d="M84.5,137.7c0.2,1.1,0.5,2.2,0.7,3.2c-0.1-0.3-0.2-0.7-0.2-1c-0.1-0.5-0.2-1.1-0.4-1.6
		C84.6,138.1,84.5,137.9,84.5,137.7z"/>
	<path fill="#82A092" d="M85.4,141.8C85.4,141.8,85.4,141.8,85.4,141.8C85.4,141.9,85.4,141.8,85.4,141.8
		C85.4,141.8,85.4,141.8,85.4,141.8z"/>
	<path fill="#82A092" d="M85.5,142.2c0-0.1,0-0.2-0.1-0.2c0,0,0-0.1,0-0.1c0,0,0,0.1,0,0.1C85.5,142.1,85.5,142.2,85.5,142.2z"/>
	<path fill="#82A092" d="M85.7,143.1c0-0.2,0-0.4-0.1-0.6c0,0.2,0.1,0.5,0.1,0.8C85.7,143.3,85.7,143.2,85.7,143.1z"/>
	<path fill="#82A092" d="M85.6,145c0.1-0.5,0.1-0.9,0.1-1.3C85.7,144.1,85.7,144.5,85.6,145z"/>
	<path fill="#82A092" d="M148.1,128.1c0.1-0.3,0.2-0.6,0.3-0.9c-0.1,0.2-0.1,0.4-0.2,0.7C148.2,127.9,148.1,128,148.1,128.1z"/>
	<path fill="#82A092" d="M58.8,99.4c-1.7,1.4-3.4,2.8-5.3,4.2c-6.5,5-15.5,7.9-28,6.3c-30-3.8-27.2-20.8-22.8-30.7
		c-0.7,4.3-1,9.4,0.2,13.8c2.7,9.7,19.2,18.6,38,13.8C47.9,105.2,53.9,102.3,58.8,99.4z"/>
	<path fill="#82A092" d="M199.7,72.1c0,0.4,0,0.7,0,1.1c-0.1,1.3-0.2,2.7-0.4,4c0,0.4-0.1,0.7-0.1,1.1c-0.1,0.9-0.3,1.9-0.5,2.9
		c-0.1,0.8-0.3,1.5-0.5,2.3c-0.1,0.3-0.1,0.6-0.2,0.8c-0.2,0.7-0.4,1.5-0.6,2.2c-2.1,7.2-5.1,14.3-8.5,21c0,0,0,0,0,0
		c-0.9,1.7-1.8,3.4-2.7,5c-0.6,1.1-1.2,2.2-1.9,3.3c-0.5,0.8-1,1.6-1.4,2.4c-0.5,0.8-1,1.6-1.5,2.4c-1,1.6-2,3.1-3,4.6
		c-1.3,2-2.7,4-4,5.8c-0.3,0.5-0.7,0.9-1,1.4c0,0,0,0,0,0c-0.6,0.8-1.1,1.5-1.7,2.3c-0.3,0.5-0.7,1-1.1,1.4c-0.5,0.7-1,1.4-1.5,2
		c-0.4,0.5-0.8,1-1.1,1.5c-0.3,0.4-0.6,0.7-0.8,1.1c-0.3,0.4-0.6,0.7-0.9,1.1c-0.9,1.1-1.7,2.1-2.5,3.1c-3,3.6-5.6,6.6-7.7,8.9
		c-6.4-2.3-12.4-5.4-21.7-8c2.4-2.8,5.5-6.8,8.1-11.1c0.1-0.2,0.3-0.5,0.4-0.7c0.1-0.2,0.2-0.4,0.3-0.6c0.2-0.3,0.4-0.7,0.6-1.1
		c0.4-0.7,0.8-1.5,1.1-2.2c0.3-0.6,0.5-1.2,0.8-1.8c0.1-0.2,0.2-0.4,0.2-0.5c0.1-0.3,0.2-0.6,0.4-1c0.1-0.3,0.2-0.5,0.3-0.8
		c0.3-1,0.6-1.9,0.8-2.8c0-0.2,0.1-0.4,0.1-0.6c0-0.1,0-0.2,0-0.2c0.1-0.3,0.1-0.6,0.1-1c0-0.3,0.1-0.6,0.1-0.9c0-0.1,0-0.1,0-0.2
		c0-0.3,0-0.6,0-1c0-4.5-2-8.6-7.2-11.5c-16.5-9.2-44.3-5.8-54.8,2.7c0,0,0,0,0,0c-1.4,1.1-2.5,2.3-3.2,3.6c-0.6,1.2-1,2.4-0.9,3.7
		c0,0.4,0,0.9,0.1,1.3c0,0.5,0.1,1,0.1,1.5v0c0,0.3,0.1,0.6,0.1,0.9c0.2,1.9,0.5,3.8,0.9,5.7c0,0.3,0.1,0.5,0.2,0.8
		c0.2,1.2,0.5,2.3,0.8,3.5c0.2,0.7,0.4,1.4,0.5,2.1c0.3,1.1,0.6,2.3,0.9,3.3c0.2,0.6,0.3,1.1,0.5,1.6c0.1,0.3,0.2,0.7,0.3,1
		c0.2,0.5,0.3,1.1,0.5,1.6c0.2,0.6,0.4,1.2,0.6,1.7c0.1,0.4,0.3,0.8,0.4,1.2c0.2,0.7,0.5,1.3,0.7,1.9c-6.8,2.3-13.3,5.2-20.3,7.4
		c-0.1-0.5-0.2-1-0.4-1.5c-0.1-0.4-0.2-0.8-0.4-1.2c-0.5-1.3-1-3-1.7-5c0,0,4.5,6.3,13,1.5s-1-16.8,1.9-33.5
		c2.9-16.7,67.4-22.3,69.4,0.6c2,22.9-11.6,29.6-3,34.7c8.6,5.2,40.2-32.2,47-58.3c1.5-5.8,2.2-11.8,1.9-17.7
		c-0.7-18.6-10.4-36.4-30-47.2c-1.9-1-3.8-2-5.9-2.9c-6.9-3-17.4-5.6-29.6-7.9c5.5,0.6,10.9,1.4,16,2.2c0.9,0.1,1.7,0.3,2.6,0.5
		c0.6,0.1,1.1,0.2,1.7,0.3c0.2,0,0.5,0.1,0.8,0.2c0.4,0.1,0.7,0.2,1.1,0.2c0.3,0.1,0.7,0.2,1,0.3c0.6,0.1,1.2,0.3,1.7,0.5
		c0.6,0.2,1.2,0.3,1.7,0.5c0.5,0.1,1,0.3,1.4,0.5c0.3,0.1,0.5,0.2,0.8,0.3c0.4,0.1,0.8,0.3,1.2,0.4h0c1.3,0.5,2.5,0.9,3.7,1.5
		c0.4,0.2,0.7,0.3,1.1,0.5c0.2,0.1,0.5,0.2,0.7,0.3c0.4,0.2,0.8,0.4,1.2,0.6c1.4,0.7,2.8,1.4,4.2,2.2c0.4,0.2,0.8,0.5,1.2,0.7
		c0.5,0.3,1,0.6,1.5,0.9c0.4,0.2,0.8,0.5,1.2,0.7c0.5,0.3,1,0.6,1.4,1c0.5,0.3,1,0.7,1.4,1c0.7,0.5,1.4,1.1,2.1,1.6
		c0.4,0.3,0.8,0.6,1.1,0.9c0.5,0.4,0.9,0.8,1.4,1.2c0,0,0.1,0.1,0.1,0.1c0.4,0.4,0.9,0.8,1.3,1.2c0.4,0.4,0.9,0.9,1.3,1.3
		c0.4,0.4,0.8,0.9,1.2,1.3c0.3,0.3,0.6,0.7,0.9,1c1.3,1.5,2.5,3.1,3.7,4.7c0.3,0.4,0.5,0.7,0.8,1.1c0.2,0.2,0.3,0.5,0.5,0.7
		c0.2,0.3,0.4,0.6,0.6,0.9c0.2,0.3,0.4,0.7,0.6,1c0.3,0.5,0.6,1,0.9,1.6c0.2,0.3,0.3,0.6,0.5,0.9c0.2,0.5,0.5,0.9,0.7,1.4
		c0.2,0.4,0.4,0.9,0.6,1.3c0.1,0.2,0.1,0.3,0.2,0.5c0,0.1,0.1,0.2,0.1,0.3c0.2,0.4,0.3,0.7,0.4,1.1c0.6,1.6,1.1,3.3,1.5,5
		c0.1,0.2,0.1,0.5,0.2,0.7c0.1,0.5,0.2,1,0.3,1.5c0,0,0,0,0,0s0,0,0,0C199.5,65,199.8,68.5,199.7,72.1z"/>
	<path fill="#82A092" d="M64.6,142.2l-4.3,5.1l-1.6,2l-16.5-8.8c0.7-0.4,1.3-0.8,2-1.3c0.3-0.2,0.5-0.5,0.8-0.7
		c9.4,8.3,15.3,2.5,15.3,2.5l-5.9-16.3c0.6-1.1,1-2.1,1.5-3c1-2,1.5-3.5,1.6-3.6c1.3,4.7,2.6,9.1,3.8,13.2
		C62.4,135.3,63.5,139,64.6,142.2z"/>
	<path fill="#82A092" d="M204.6,151.7l-17.3,8l-12-23.5l-1.9-3.7c0.5-0.7,1-1.4,1.5-2.1c4.9,9.2,14,23.9,21,22
		c5.6-1.5,5.3-10.8,4-18.6c2.1,5.8,3.8,11.4,4.5,15.7C204.5,150.3,204.6,151.1,204.6,151.7z"/>
	<path fill="#FFFFFF" d="M65.7,73.7c0,0,4.7-1.9,3.7,4.2C69.4,77.8,69.3,74.6,65.7,73.7z"/>
</g>
<g id="tail">
	<path fill="none" stroke="#82A092" stroke-miterlimit="10" d="M191.6,49.4c0,0,19.5,34.5,25,33.6"/>
	<path fill="#82A092" d="M214.5,82.8c7.8,9.1,10.4-3.7,10.4-3.7C218,76.4,214.5,82.8,214.5,82.8z"/>
</g>
<g id="ear">
	<g>
		<path fill="#82A092" d="M96.1,34.2c0,0,0.5,0,1.4,0.3c0.9,0.3,2.1,0.7,3.6,1.6c3,1.6,7,4.5,11.1,8.6c1,1,2.1,2.1,3.1,3.4
			c1,1.3,1.9,2.8,2.2,4.8c0.1,1,0.1,2-0.3,3c-0.3,1-0.8,1.8-1.4,2.6c-1.1,1.5-2.4,2.7-3.1,4c-0.4,0.6-0.5,1.3-0.5,1.9
			c0,0.6,0.3,1.6,0.5,2.5c0.4,1.8,0.8,3.7,1.1,5.6c0.5,3.8,0.8,7.9-0.1,11.9c-0.5,2-1.4,4.1-2.9,5.7c-1.5,1.7-3.6,2.8-5.6,3.2
			c-2.1,0.5-4.1,0.5-6.1,0.2l-0.2,0l0,0l-0.1,0l-0.1,0l-0.3-0.1l-0.7-0.1c-0.2,0-0.4-0.1-0.7-0.1l-0.8-0.2c-1-0.3-1.9-0.7-2.8-1.2
			c-1.8-0.9-3.2-2.2-4.4-3.6c-1.2-1.4-2.2-2.9-3-4.4c-1.6-3.1-2.5-6.2-3.1-9c-1.2-5.7-1.3-10.6-1.3-14c0-1.7,0.1-3,0.1-3.9
			c0.1-0.9,0.1-1.4,0.1-1.4s0,1.9,0.3,5.3c0.3,3.3,0.9,8.1,2.4,13.6c0.4,1.4,0.8,2.8,1.4,4.2c0.5,1.4,1.2,2.8,2,4.2
			c0.8,1.4,1.7,2.7,2.8,3.9c1.1,1.2,2.4,2.2,3.8,2.9c2.7,1.4,6.6,1.8,9.9,1.1c1.6-0.4,3-1.2,4.1-2.4c1-1.2,1.8-2.8,2.1-4.5
			c0.8-3.4,0.6-7.2,0.1-10.8c-0.3-1.8-0.6-3.6-0.9-5.4c-0.2-0.9-0.4-1.7-0.5-3c0-1.2,0.3-2.4,0.9-3.3c1.1-1.8,2.5-3,3.5-4.3
			c1-1.2,1.6-2.5,1.4-3.8c-0.1-1.3-0.8-2.7-1.6-3.9c-0.8-1.2-1.8-2.4-2.7-3.4c-1.9-2.1-3.7-4-5.4-5.6c-1.7-1.5-3.3-2.8-4.7-3.7
			c-1.4-0.9-2.5-1.6-3.4-1.9C96.6,34.3,96.1,34.2,96.1,34.2z"/>
	</g>
	<g>
		<rect x="77.4" y="156.9" fill="none" width="114.3" height="61.5"/>
		<path fill="#553278" d="M78.4,173.6v-16.7h7v2.3h-3.6v4.5h2.5v2.4h-2.5v5.1h3.6v2.3H78.4z"/>
		<path fill="#553278" d="M86.4,173.6v-12.1h3.1v0.9c0.3-0.3,0.6-0.6,1-0.8c0.4-0.2,0.8-0.3,1.2-0.3c0.4,0,0.8,0.1,1.1,0.4
			c0.3,0.3,0.6,0.6,0.8,1c0.3-0.4,0.7-0.7,1.1-1c0.4-0.2,0.9-0.4,1.4-0.4c0.4,0,0.8,0.1,1.2,0.4c0.3,0.3,0.6,0.6,0.8,1
			c0.2,0.4,0.3,0.8,0.3,1.2v9.8h-3.1v-9.1c0-0.1,0-0.2,0-0.3c0-0.1,0-0.2,0-0.3c0-0.1-0.1-0.2-0.1-0.3c-0.1-0.1-0.2-0.1-0.3-0.1
			c-0.2,0-0.5,0.2-0.9,0.7v9.3h-3.1v-9.1c0-0.6-0.1-0.9-0.4-0.9c-0.2,0-0.5,0.2-0.9,0.7v9.3H86.4z"/>
		<path fill="#553278" d="M100,170.5v-5.1c0-1.3,0.3-2.3,0.9-3c0.6-0.7,1.6-1.1,2.9-1.1c1.3,0,2.3,0.4,2.9,1.1
			c0.6,0.7,0.9,1.7,0.9,3v5.1c0,1-0.4,1.8-1.1,2.5c-0.7,0.6-1.6,1-2.7,1c-0.7,0-1.3-0.1-1.9-0.4c-0.6-0.3-1-0.7-1.4-1.2
			C100.1,171.7,100,171.1,100,170.5z M104.4,170.5v-6c0-0.6-0.2-0.9-0.7-0.9c-0.4,0-0.6,0.3-0.6,0.9v6c0,0.1,0,0.2,0,0.3
			c0,0.1,0,0.2,0.1,0.3c0,0.1,0.1,0.2,0.2,0.3c0.1,0.1,0.2,0.1,0.4,0.1C104.2,171.5,104.4,171.2,104.4,170.5z"/>
		<path fill="#553278" d="M109.3,169.5v-5.9h-0.9v-2.1h0.9v-4h3.1v4h1.5v2.1h-1.5v6.6c0,0.3,0.1,0.6,0.2,0.7s0.3,0.2,0.7,0.2
			c0.4,0,0.7,0,0.9-0.1v2.4c-0.4,0.1-1.1,0.2-2,0.2c-0.4,0-0.7,0-1-0.1c-0.3-0.1-0.5-0.2-0.7-0.3c-0.2-0.1-0.4-0.3-0.5-0.6
			c-0.1-0.2-0.3-0.5-0.3-0.7c-0.1-0.2-0.1-0.5-0.2-0.8c0-0.3-0.1-0.6-0.1-0.9C109.4,170.1,109.3,169.8,109.3,169.5z"/>
		<path fill="#553278" d="M115.4,160.5v-2.9h3.1v2.9H115.4z M115.4,173.6v-12.1h3.1v12.1H115.4z"/>
		<path fill="#553278" d="M120.1,170.5v-5.1c0-1.3,0.3-2.3,0.9-3c0.6-0.7,1.6-1.1,2.9-1.1c1.3,0,2.3,0.4,2.9,1.1
			c0.6,0.7,0.9,1.7,0.9,3v5.1c0,1-0.4,1.8-1.1,2.5c-0.7,0.6-1.6,1-2.7,1c-0.7,0-1.3-0.1-1.9-0.4c-0.6-0.3-1-0.7-1.4-1.2
			C120.3,171.7,120.1,171.1,120.1,170.5z M124.6,170.5v-6c0-0.6-0.2-0.9-0.7-0.9c-0.4,0-0.6,0.3-0.6,0.9v6c0,0.1,0,0.2,0,0.3
			c0,0.1,0,0.2,0.1,0.3c0,0.1,0.1,0.2,0.2,0.3c0.1,0.1,0.2,0.1,0.4,0.1C124.3,171.5,124.6,171.2,124.6,170.5z"/>
		<path fill="#553278" d="M129.3,173.6v-12.1h3.1v0.9c0.3-0.3,0.7-0.6,1.1-0.8c0.4-0.2,0.9-0.3,1.3-0.3c0.4,0,0.8,0.1,1.1,0.4
			c0.3,0.3,0.6,0.6,0.8,1c0.2,0.4,0.2,0.8,0.2,1.2v9.8h-3.1v-9.2c0-0.5-0.2-0.8-0.5-0.8c0,0-0.1,0-0.1,0c0,0-0.1,0-0.1,0
			c0,0-0.1,0-0.1,0.1c0,0-0.1,0-0.1,0.1s-0.1,0.1-0.1,0.1c0,0-0.1,0.1-0.1,0.1c0,0-0.1,0.1-0.1,0.1c0,0,0,0-0.1,0.1l-0.1,0.1v9.4
			H129.3z"/>
		<path fill="#553278" d="M138.1,170.7l2.4-0.9c0.1,0.2,0.1,0.3,0.1,0.4c0,0.1,0.1,0.3,0.2,0.4c0.1,0.2,0.2,0.3,0.3,0.5
			c0.1,0.1,0.2,0.2,0.3,0.3s0.3,0.1,0.4,0.1c0.4,0,0.6-0.2,0.6-0.7c0-0.2,0-0.3-0.1-0.5c-0.1-0.2-0.2-0.3-0.2-0.5
			c-0.1-0.1-0.2-0.3-0.4-0.5c-0.2-0.2-0.4-0.4-0.5-0.5c-0.1-0.1-0.3-0.3-0.6-0.5l-0.5-0.4c-0.7-0.6-1.2-1.1-1.6-1.7
			s-0.6-1.2-0.6-1.9c0-0.5,0.1-1,0.3-1.4s0.5-0.8,0.9-1s0.8-0.5,1.2-0.6c0.5-0.1,0.9-0.2,1.5-0.2c0.5,0,0.9,0.1,1.3,0.3
			c0.4,0.2,0.8,0.4,1.1,0.8s0.6,0.7,0.8,1.1c0.2,0.4,0.4,0.8,0.5,1.3l-2.2,0.8c-0.1-0.2-0.1-0.3-0.2-0.5c0-0.1-0.1-0.3-0.2-0.5
			c-0.1-0.2-0.2-0.4-0.3-0.5c-0.1-0.1-0.2-0.2-0.4-0.3s-0.3-0.1-0.5-0.1c-0.2,0-0.4,0.1-0.5,0.2c-0.1,0.2-0.2,0.3-0.2,0.5
			c0,0.3,0.1,0.6,0.5,0.9c0.3,0.3,0.7,0.7,1.2,1.2l0.6,0.5c0.3,0.3,0.6,0.5,0.8,0.8c0.2,0.2,0.5,0.5,0.7,0.8s0.4,0.6,0.5,1
			c0.1,0.3,0.2,0.7,0.2,1c0,1-0.3,1.8-1,2.4s-1.5,1-2.5,1c-0.9,0-1.8-0.3-2.4-0.9S138.3,171.7,138.1,170.7z"/>
		<path fill="#FFFFFF" d="M78,185.6v-8.8h3.4v0.9h-2.2v2.8h1.6v0.9h-1.6v3.1h2.2v0.9H78z"/>
		<path fill="#FFFFFF" d="M82.2,185.6v-8.8h1.2v8.8H82.2z"/>
		<path fill="#FFFFFF" d="M86.3,185.7c-0.3,0-0.6-0.1-0.8-0.2c-0.2-0.1-0.4-0.2-0.5-0.4c-0.1-0.2-0.2-0.4-0.3-0.6
			c-0.1-0.3-0.1-0.5-0.2-0.8c0-0.3,0-0.6-0.1-0.9c0-0.3,0-0.5,0-0.8c0-0.3,0-0.6,0.1-0.9c0-0.3,0.1-0.5,0.2-0.7
			c0.1-0.2,0.2-0.4,0.3-0.6c0.1-0.2,0.3-0.3,0.5-0.4s0.5-0.1,0.8-0.1c0.3,0,0.5,0,0.7,0.1c0.2,0.1,0.4,0.2,0.5,0.3s0.2,0.3,0.3,0.5
			c0.1,0.2,0.2,0.4,0.2,0.6c0,0.2,0.1,0.5,0.1,0.7c0,0.2,0,0.5,0,0.8v0.1h-2.5v0.3c0,0,0,0.1,0,0.2c0,0.1,0,0.2,0,0.4
			c0,0.1,0,0.3,0,0.4c0,0.1,0,0.2,0.1,0.4s0.1,0.2,0.1,0.3c0,0.1,0.1,0.2,0.2,0.2s0.2,0.1,0.3,0.1c0.1,0,0.2,0,0.3-0.1
			c0.1,0,0.1-0.1,0.2-0.2c0-0.1,0.1-0.2,0.1-0.3c0-0.1,0-0.2,0-0.4v-0.3h1.2v0.2c0,0.7-0.2,1.2-0.5,1.5S86.9,185.7,86.3,185.7z
			 M85.7,181.9h1.2v-0.4c0-0.2,0-0.3,0-0.4c0-0.1,0-0.2-0.1-0.4c0-0.1-0.1-0.2-0.2-0.3c-0.1-0.1-0.2-0.1-0.3-0.1
			c-0.1,0-0.2,0-0.3,0.1s-0.1,0.2-0.2,0.3c0,0.1-0.1,0.3-0.1,0.4c0,0.1,0,0.3,0,0.4V181.9z"/>
		<path fill="#FFFFFF" d="M89.1,187.5v-8.1h1.2v0.6c0.1-0.1,0.2-0.2,0.2-0.2s0.1-0.1,0.2-0.2c0.1-0.1,0.2-0.1,0.2-0.2
			c0.1,0,0.2-0.1,0.3-0.1c0.1,0,0.2,0,0.3,0c0.2,0,0.4,0,0.6,0.1c0.2,0.1,0.3,0.2,0.4,0.3s0.2,0.3,0.3,0.5s0.1,0.4,0.2,0.5
			c0,0.2,0.1,0.4,0.1,0.7c0,0.3,0,0.5,0,0.7s0,0.4,0,0.7v0.1c0,0.3,0,0.5,0,0.8s-0.1,0.5-0.2,0.8c-0.1,0.3-0.2,0.5-0.3,0.7
			c-0.1,0.2-0.3,0.3-0.4,0.5s-0.4,0.2-0.6,0.2c-0.4,0-0.8-0.2-1.2-0.6v2.4H89.1z M91.3,184.7c0.1,0,0.2,0,0.3-0.1s0.2-0.2,0.2-0.4
			s0.1-0.4,0.1-0.5c0-0.2,0-0.4,0-0.6l0-0.8c0-0.1,0-0.3,0-0.4c0-0.1,0-0.2,0-0.4c0-0.1,0-0.3,0-0.4c0-0.1,0-0.2-0.1-0.3
			c0-0.1-0.1-0.2-0.1-0.3c-0.1-0.1-0.1-0.1-0.2-0.2c-0.1,0-0.2-0.1-0.3-0.1c0,0-0.1,0-0.1,0c0,0-0.1,0-0.1,0s-0.1,0-0.1,0
			c0,0-0.1,0-0.1,0.1c0,0-0.1,0-0.1,0.1c0,0-0.1,0-0.1,0.1c-0.1,0-0.1,0.1-0.1,0.1v3.9C90.6,184.6,90.9,184.7,91.3,184.7z"/>
		<path fill="#FFFFFF" d="M94.2,185.6v-8.8h1.2v3.2c0.2-0.2,0.3-0.3,0.5-0.4c0.1-0.1,0.3-0.2,0.5-0.3c0.2-0.1,0.4-0.1,0.7-0.1
			c0.3,0,0.5,0.1,0.6,0.3s0.2,0.4,0.2,0.7v5.3h-1.2v-4.7c0-0.2,0-0.4-0.1-0.5c-0.1-0.1-0.2-0.2-0.3-0.2c-0.3,0-0.5,0.1-0.8,0.4v4.9
			H94.2z"/>
		<path fill="#FFFFFF" d="M100.1,185.7c-0.3,0-0.6-0.2-0.9-0.5c-0.2-0.3-0.4-0.6-0.4-1c0-0.3,0.1-0.6,0.2-0.8
			c0.1-0.2,0.2-0.4,0.3-0.6c0.1-0.1,0.3-0.3,0.6-0.5c0.3-0.2,0.5-0.3,0.6-0.3s0.4-0.2,0.7-0.3c0.1,0,0.1,0,0.1-0.1v-0.4
			c0-0.3,0-0.6-0.1-0.7c-0.1-0.2-0.3-0.3-0.5-0.3c-0.2,0-0.4,0.1-0.5,0.2c-0.1,0.1-0.1,0.4-0.2,0.6c0,0,0,0.1,0,0.2h-1.2
			c0-0.6,0.2-1.1,0.5-1.4c0.3-0.4,0.8-0.5,1.4-0.5c0.6,0,1,0.2,1.4,0.5c0.3,0.4,0.5,0.8,0.5,1.4v2.8c0,0.7,0.1,1.2,0.2,1.6h-1.2
			l-0.2-0.9c-0.1,0.1-0.1,0.2-0.2,0.3c0,0.1-0.1,0.2-0.2,0.3c-0.1,0.1-0.2,0.2-0.2,0.2c-0.1,0.1-0.2,0.1-0.3,0.1
			C100.4,185.7,100.3,185.7,100.1,185.7z M100.7,184.7c0.1,0,0.2,0,0.3-0.1c0.1-0.1,0.1-0.1,0.2-0.2s0.1-0.1,0.2-0.2c0,0,0,0,0,0
			v-1.7c-0.1,0-0.1,0.1-0.3,0.2c-0.1,0.1-0.2,0.1-0.3,0.2c-0.1,0-0.2,0.1-0.3,0.2s-0.2,0.2-0.2,0.2c-0.1,0.1-0.1,0.2-0.1,0.3
			c0,0.1-0.1,0.2-0.1,0.3C100.1,184.4,100.3,184.7,100.7,184.7z"/>
		<path fill="#FFFFFF" d="M103.7,185.6v-6.2h1.2v0.7c0.2-0.2,0.3-0.3,0.5-0.4c0.1-0.1,0.3-0.2,0.5-0.3c0.2-0.1,0.4-0.1,0.7-0.1
			c0.3,0,0.5,0.1,0.6,0.3s0.2,0.4,0.2,0.7v5.3h-1.2v-4.7c0-0.2,0-0.4-0.1-0.5c-0.1-0.1-0.2-0.1-0.4-0.1c-0.1,0-0.2,0-0.3,0.1
			s-0.2,0.1-0.2,0.1c-0.1,0-0.1,0.1-0.2,0.2v4.9H103.7z"/>
		<path fill="#FFFFFF" d="M110.3,185.7c-0.5,0-0.8-0.1-1.1-0.4c-0.2-0.3-0.3-0.6-0.3-1.1v-3.9h-0.6v-0.9h0.6v-2.2h1.2v2.2h0.9v0.9
			h-0.9v3.6c0,0.2,0,0.4,0.1,0.6s0.2,0.2,0.4,0.2c0.1,0,0.2,0,0.4,0v1C110.7,185.7,110.5,185.7,110.3,185.7z"/>
		<path fill="#FFFFFF" d="M113.6,185.7c-0.5,0-0.9-0.2-1.2-0.5c-0.3-0.3-0.5-0.7-0.6-1.2l0.9-0.3c0.2,0.6,0.5,0.9,0.9,0.9
			c0.2,0,0.4-0.1,0.5-0.2c0.1-0.1,0.2-0.3,0.2-0.5c0-0.3-0.1-0.5-0.3-0.7l-1.2-0.9c-0.1-0.1-0.3-0.2-0.4-0.3
			c-0.1-0.1-0.2-0.2-0.3-0.3c-0.1-0.1-0.2-0.3-0.2-0.4c0-0.2-0.1-0.3-0.1-0.5c0-0.5,0.2-0.9,0.5-1.2c0.3-0.3,0.8-0.4,1.4-0.4
			c0.3,0,0.5,0,0.7,0.1c0.2,0.1,0.4,0.2,0.5,0.4c0.1,0.2,0.3,0.3,0.4,0.5c0.1,0.2,0.2,0.4,0.2,0.6l-0.9,0.3c0-0.1-0.1-0.2-0.1-0.3
			c0-0.1-0.1-0.2-0.2-0.3c-0.1-0.1-0.2-0.2-0.3-0.2c-0.1-0.1-0.2-0.1-0.3-0.1c-0.2,0-0.4,0.1-0.5,0.2c-0.1,0.1-0.2,0.3-0.2,0.5
			c0,0.2,0.1,0.4,0.3,0.5l1.2,0.9c0.1,0.1,0.3,0.2,0.4,0.3c0.1,0.1,0.2,0.2,0.3,0.4c0.1,0.1,0.2,0.3,0.2,0.5s0.1,0.3,0.1,0.5
			c0,0.5-0.2,0.9-0.5,1.2C114.6,185.6,114.2,185.7,113.6,185.7z"/>
		<path fill="#FFFFFF" d="M118.6,185.6v-5.3H118v-0.9h0.6v-0.2c0-0.3,0-0.5,0-0.7c0-0.2,0.1-0.4,0.1-0.5c0.1-0.2,0.1-0.3,0.2-0.4
			s0.2-0.2,0.4-0.2c0.2-0.1,0.4-0.1,0.6-0.1c0.2,0,0.5,0,0.8,0.1v0.9c0,0-0.1,0-0.2,0c-0.1,0-0.2,0-0.2,0c-0.2,0-0.3,0.1-0.4,0.2
			s-0.1,0.3-0.1,0.6v0.5h0.9v0.9h-0.9v5.3H118.6z"/>
		<path fill="#FFFFFF" d="M123.1,185.7c-0.3,0-0.6-0.1-0.8-0.2c-0.2-0.1-0.4-0.2-0.5-0.4c-0.1-0.2-0.2-0.4-0.3-0.6
			c-0.1-0.3-0.1-0.5-0.2-0.8c0-0.3,0-0.6-0.1-0.9c0-0.3,0-0.5,0-0.8c0-0.3,0-0.6,0.1-0.9c0-0.3,0.1-0.5,0.2-0.7
			c0.1-0.2,0.2-0.4,0.3-0.6c0.1-0.2,0.3-0.3,0.5-0.4s0.5-0.1,0.8-0.1c0.3,0,0.5,0,0.7,0.1c0.2,0.1,0.4,0.2,0.5,0.3
			c0.1,0.1,0.2,0.3,0.3,0.5c0.1,0.2,0.2,0.4,0.2,0.6c0,0.2,0.1,0.5,0.1,0.7c0,0.2,0,0.5,0,0.8v0.1h-2.5v0.3c0,0,0,0.1,0,0.2
			c0,0.1,0,0.2,0,0.4c0,0.1,0,0.3,0,0.4c0,0.1,0,0.2,0.1,0.4s0.1,0.2,0.1,0.3c0,0.1,0.1,0.2,0.2,0.2c0.1,0,0.2,0.1,0.3,0.1
			c0.1,0,0.2,0,0.3-0.1c0.1,0,0.1-0.1,0.2-0.2c0-0.1,0.1-0.2,0.1-0.3c0-0.1,0-0.2,0-0.4v-0.3h1.2v0.2c0,0.7-0.2,1.2-0.5,1.5
			C124.2,185.5,123.7,185.7,123.1,185.7z M122.5,181.9h1.2v-0.4c0-0.2,0-0.3,0-0.4c0-0.1,0-0.2-0.1-0.4c0-0.1-0.1-0.2-0.2-0.3
			c-0.1-0.1-0.2-0.1-0.3-0.1c-0.1,0-0.2,0-0.3,0.1c-0.1,0.1-0.1,0.2-0.2,0.3c0,0.1-0.1,0.3-0.1,0.4c0,0.1,0,0.3,0,0.4V181.9z"/>
		<path fill="#FFFFFF" d="M127.7,185.7c-0.3,0-0.6-0.1-0.8-0.2c-0.2-0.1-0.4-0.2-0.5-0.4c-0.1-0.2-0.2-0.4-0.3-0.6
			c-0.1-0.3-0.1-0.5-0.2-0.8c0-0.3,0-0.6-0.1-0.9c0-0.3,0-0.5,0-0.8c0-0.3,0-0.6,0.1-0.9c0-0.3,0.1-0.5,0.2-0.7
			c0.1-0.2,0.2-0.4,0.3-0.6c0.1-0.2,0.3-0.3,0.5-0.4s0.5-0.1,0.8-0.1c0.3,0,0.5,0,0.7,0.1c0.2,0.1,0.4,0.2,0.5,0.3
			c0.1,0.1,0.2,0.3,0.3,0.5c0.1,0.2,0.2,0.4,0.2,0.6c0,0.2,0.1,0.5,0.1,0.7c0,0.2,0,0.5,0,0.8v0.1h-2.5v0.3c0,0,0,0.1,0,0.2
			c0,0.1,0,0.2,0,0.4c0,0.1,0,0.3,0,0.4c0,0.1,0,0.2,0.1,0.4s0.1,0.2,0.1,0.3c0,0.1,0.1,0.2,0.2,0.2c0.1,0,0.2,0.1,0.3,0.1
			c0.1,0,0.2,0,0.3-0.1c0.1,0,0.1-0.1,0.2-0.2c0-0.1,0.1-0.2,0.1-0.3c0-0.1,0-0.2,0-0.4v-0.3h1.2v0.2c0,0.7-0.2,1.2-0.5,1.5
			C128.8,185.5,128.3,185.7,127.7,185.7z M127.1,181.9h1.2v-0.4c0-0.2,0-0.3,0-0.4c0-0.1,0-0.2-0.1-0.4c0-0.1-0.1-0.2-0.2-0.3
			c-0.1-0.1-0.2-0.1-0.3-0.1c-0.1,0-0.2,0-0.3,0.1c-0.1,0.1-0.1,0.2-0.2,0.3c0,0.1-0.1,0.3-0.1,0.4c0,0.1,0,0.3,0,0.4V181.9z"/>
		<path fill="#FFFFFF" d="M131.9,185.7c-0.3,0-0.5-0.1-0.7-0.2c-0.2-0.2-0.4-0.4-0.5-0.6c-0.1-0.3-0.2-0.5-0.3-0.8
			c-0.1-0.3-0.1-0.6-0.1-0.9c0-0.2,0-0.5,0-1.1c0-0.2,0-0.4,0-0.6c0-0.2,0-0.4,0.1-0.5c0-0.2,0.1-0.4,0.1-0.5c0-0.1,0.1-0.3,0.2-0.4
			c0.1-0.1,0.2-0.2,0.3-0.3c0.1-0.1,0.2-0.2,0.4-0.2c0.1-0.1,0.3-0.1,0.5-0.1c0.1,0,0.3,0,0.4,0.1c0.1,0,0.2,0.1,0.3,0.2
			c0.1,0.1,0.2,0.2,0.3,0.2c0.1,0.1,0.2,0.1,0.3,0.3v-3.1h1.2v8.7h-1.2v-0.6c-0.2,0.2-0.4,0.4-0.6,0.5
			C132.4,185.7,132.2,185.7,131.9,185.7z M132.2,184.7c0.3,0,0.6-0.1,0.9-0.2v-3.9c-0.3-0.2-0.6-0.2-0.9-0.2c-0.1,0-0.2,0-0.3,0.1
			c-0.1,0.1-0.1,0.1-0.2,0.3c0,0.1-0.1,0.2-0.1,0.4s0,0.3,0,0.4c0,0.7,0,1.3,0,1.7c0,0.2,0,0.4,0,0.6c0,0.2,0.1,0.3,0.1,0.5
			s0.1,0.3,0.2,0.3C132,184.6,132.1,184.7,132.2,184.7z"/>
		<path fill="#FFFFFF" d="M138.7,185.7c-0.3,0-0.6-0.2-0.9-0.5c-0.2-0.3-0.4-0.6-0.4-1c0-0.3,0.1-0.6,0.2-0.8
			c0.1-0.2,0.2-0.4,0.3-0.6c0.1-0.1,0.3-0.3,0.6-0.5c0.3-0.2,0.5-0.3,0.6-0.3s0.4-0.2,0.7-0.3c0.1,0,0.1,0,0.1-0.1v-0.4
			c0-0.3,0-0.6-0.1-0.7c-0.1-0.2-0.3-0.3-0.5-0.3c-0.2,0-0.4,0.1-0.5,0.2c-0.1,0.1-0.1,0.4-0.2,0.6c0,0,0,0.1,0,0.2h-1.2
			c0-0.6,0.2-1.1,0.5-1.4c0.3-0.4,0.8-0.5,1.4-0.5c0.6,0,1,0.2,1.4,0.5c0.3,0.4,0.5,0.8,0.5,1.4v2.8c0,0.7,0.1,1.2,0.2,1.6h-1.2
			l-0.2-0.9c-0.1,0.1-0.1,0.2-0.2,0.3c0,0.1-0.1,0.2-0.2,0.3c-0.1,0.1-0.2,0.2-0.2,0.2c-0.1,0.1-0.2,0.1-0.3,0.1
			C139,185.7,138.9,185.7,138.7,185.7z M139.3,184.7c0.1,0,0.2,0,0.3-0.1c0.1-0.1,0.1-0.1,0.2-0.2c0,0,0.1-0.1,0.2-0.2c0,0,0,0,0,0
			v-1.7c-0.1,0-0.1,0.1-0.3,0.2c-0.1,0.1-0.2,0.1-0.3,0.2c-0.1,0-0.2,0.1-0.3,0.2c-0.1,0.1-0.2,0.2-0.2,0.2
			c-0.1,0.1-0.1,0.2-0.1,0.3c0,0.1-0.1,0.2-0.1,0.3C138.7,184.4,138.9,184.7,139.3,184.7z"/>
		<path fill="#FFFFFF" d="M142.3,185.6v-6.2h1.2v0.7c0.2-0.2,0.3-0.3,0.5-0.4c0.1-0.1,0.3-0.2,0.5-0.3c0.2-0.1,0.4-0.1,0.7-0.1
			c0.3,0,0.5,0.1,0.6,0.3s0.2,0.4,0.2,0.7v5.3h-1.2v-4.7c0-0.2,0-0.4-0.1-0.5c-0.1-0.1-0.2-0.1-0.4-0.1c-0.1,0-0.2,0-0.3,0.1
			c-0.1,0-0.2,0.1-0.2,0.1c-0.1,0-0.1,0.1-0.2,0.2v4.9H142.3z"/>
		<path fill="#FFFFFF" d="M148.6,185.7c-0.3,0-0.5-0.1-0.7-0.2c-0.2-0.2-0.4-0.4-0.5-0.6c-0.1-0.3-0.2-0.5-0.3-0.8
			c-0.1-0.3-0.1-0.6-0.1-0.9c0-0.2,0-0.5,0-1.1c0-0.2,0-0.4,0-0.6c0-0.2,0-0.4,0.1-0.5c0-0.2,0.1-0.4,0.1-0.5c0-0.1,0.1-0.3,0.2-0.4
			c0.1-0.1,0.2-0.2,0.3-0.3c0.1-0.1,0.2-0.2,0.4-0.2c0.1-0.1,0.3-0.1,0.5-0.1c0.1,0,0.3,0,0.4,0.1c0.1,0,0.2,0.1,0.3,0.2
			c0.1,0.1,0.2,0.2,0.3,0.2c0.1,0.1,0.2,0.1,0.3,0.3v-3.1h1.2v8.7h-1.2v-0.6c-0.2,0.2-0.4,0.4-0.6,0.5
			C149.1,185.7,148.8,185.7,148.6,185.7z M148.9,184.7c0.3,0,0.6-0.1,0.9-0.2v-3.9c-0.3-0.2-0.6-0.2-0.9-0.2c-0.1,0-0.2,0-0.3,0.1
			c-0.1,0.1-0.1,0.1-0.2,0.3c0,0.1-0.1,0.2-0.1,0.4s0,0.3,0,0.4c0,0.7,0,1.3,0,1.7c0,0.2,0,0.4,0,0.6c0,0.2,0.1,0.3,0.1,0.5
			s0.1,0.3,0.2,0.3C148.7,184.6,148.8,184.7,148.9,184.7z"/>
		<path fill="#FFFFFF" d="M155,185.6l-1.2-6.2h1.1l0.7,4.7l0.7-4.7h1.1l0.7,4.7l0.7-4.7h1.1l-1.2,6.2h-1.2l-0.7-4.3l-0.7,4.3H155z"
			/>
		<path fill="#FFFFFF" d="M161.6,185.7c-0.3,0-0.6-0.2-0.9-0.5c-0.2-0.3-0.4-0.6-0.4-1c0-0.3,0.1-0.6,0.2-0.8
			c0.1-0.2,0.2-0.4,0.3-0.6c0.1-0.1,0.3-0.3,0.6-0.5c0.3-0.2,0.5-0.3,0.6-0.3s0.4-0.2,0.7-0.3c0.1,0,0.1,0,0.1-0.1v-0.4
			c0-0.3,0-0.6-0.1-0.7c-0.1-0.2-0.3-0.3-0.5-0.3c-0.2,0-0.4,0.1-0.5,0.2c-0.1,0.1-0.1,0.4-0.2,0.6c0,0,0,0.1,0,0.2h-1.2
			c0-0.6,0.2-1.1,0.5-1.4c0.3-0.4,0.8-0.5,1.4-0.5c0.6,0,1,0.2,1.4,0.5c0.3,0.4,0.5,0.8,0.5,1.4v2.8c0,0.7,0.1,1.2,0.2,1.6H163
			l-0.2-0.9c-0.1,0.1-0.1,0.2-0.2,0.3c0,0.1-0.1,0.2-0.2,0.3c-0.1,0.1-0.2,0.2-0.2,0.2c-0.1,0.1-0.2,0.1-0.3,0.1
			C161.9,185.7,161.7,185.7,161.6,185.7z M162.2,184.7c0.1,0,0.2,0,0.3-0.1c0.1-0.1,0.1-0.1,0.2-0.2c0,0,0.1-0.1,0.2-0.2
			c0,0,0,0,0,0v-1.7c-0.1,0-0.1,0.1-0.3,0.2c-0.1,0.1-0.2,0.1-0.3,0.2c-0.1,0-0.2,0.1-0.3,0.2c-0.1,0.1-0.2,0.2-0.2,0.2
			c-0.1,0.1-0.1,0.2-0.1,0.3c0,0.1-0.1,0.2-0.1,0.3C161.6,184.4,161.8,184.7,162.2,184.7z"/>
		<path fill="#FFFFFF" d="M165.2,178.4v-1.2h1.2v1.2H165.2z M165.2,185.6v-6.2h1.2v6.2H165.2z"/>
		<path fill="#FFFFFF" d="M169.4,185.7c-0.5,0-0.8-0.1-1.1-0.4c-0.2-0.3-0.3-0.6-0.3-1.1v-3.9h-0.6v-0.9h0.6v-2.2h1.2v2.2h0.9v0.9
			h-0.9v3.6c0,0.2,0,0.4,0.1,0.6s0.2,0.2,0.4,0.2c0.1,0,0.2,0,0.4,0v1C169.9,185.7,169.6,185.7,169.4,185.7z"/>
		<path fill="#FFFFFF" d="M173.5,185.6v-5.3h-0.6v-0.9h0.6v-0.2c0-0.3,0-0.5,0-0.7c0-0.2,0.1-0.4,0.1-0.5c0.1-0.2,0.1-0.3,0.2-0.4
			s0.2-0.2,0.4-0.2c0.2-0.1,0.4-0.1,0.6-0.1c0.2,0,0.5,0,0.8,0.1v0.9c0,0-0.1,0-0.2,0c-0.1,0-0.2,0-0.2,0c-0.2,0-0.3,0.1-0.4,0.2
			s-0.1,0.3-0.1,0.6v0.5h0.9v0.9h-0.9v5.3H173.5z"/>
		<path fill="#FFFFFF" d="M179.4,185.1c-0.3,0.4-0.8,0.6-1.4,0.6c-0.7,0-1.2-0.2-1.4-0.6c-0.3-0.4-0.4-1-0.4-1.7v-1.9
			c0-0.7,0.1-1.3,0.4-1.7c0.3-0.4,0.8-0.6,1.4-0.6c0.7,0,1.2,0.2,1.4,0.6c0.3,0.4,0.4,1,0.4,1.7v1.9
			C179.8,184.2,179.7,184.7,179.4,185.1z M177.7,184.6c0.1,0,0.1,0,0.2,0s0.2,0,0.2,0c0.1,0,0.1-0.1,0.2-0.1c0,0,0.1-0.1,0.1-0.2
			s0.1-0.1,0.1-0.2c0-0.1,0-0.1,0-0.2c0-0.1,0-0.2,0-0.2c0-0.1,0-0.2,0-0.3v-1.9c0-0.1,0-0.2,0-0.3c0-0.1,0-0.1,0-0.2
			c0-0.1,0-0.2,0-0.2c0-0.1,0-0.1-0.1-0.2s-0.1-0.1-0.1-0.2c0,0-0.1-0.1-0.2-0.1c-0.1,0-0.1,0-0.2,0s-0.2,0-0.2,0
			c-0.1,0-0.1,0.1-0.2,0.1c0,0-0.1,0.1-0.1,0.2s-0.1,0.1-0.1,0.2c0,0.1,0,0.1,0,0.2c0,0.1,0,0.2,0,0.2c0,0.1,0,0.2,0,0.3v1.9
			c0,0.1,0,0.2,0,0.3c0,0.1,0,0.1,0,0.2c0,0.1,0,0.2,0,0.2c0,0.1,0,0.1,0.1,0.2s0.1,0.1,0.1,0.2
			C177.6,184.6,177.7,184.6,177.7,184.6z"/>
		<path fill="#FFFFFF" d="M180.9,185.6v-6.2h1.2v0.8c0.1-0.2,0.3-0.5,0.6-0.6c0.2-0.2,0.5-0.3,0.8-0.3c0,0,0.1,0,0.2,0v1.4
			c-0.2-0.1-0.5-0.1-0.7-0.1c-0.3,0-0.5,0.1-0.6,0.2c-0.2,0.2-0.2,0.4-0.2,0.6v4.2H180.9z"/>
		<path fill="#FFFFFF" d="M79.5,197.7c-0.3,0-0.6-0.1-0.8-0.2c-0.2-0.1-0.4-0.2-0.5-0.4c-0.1-0.2-0.2-0.4-0.3-0.6
			c-0.1-0.3-0.1-0.5-0.2-0.8c0-0.3,0-0.5-0.1-0.9c0-0.3,0-0.5,0-0.8c0-0.3,0-0.6,0.1-0.9s0.1-0.5,0.2-0.8c0.1-0.3,0.2-0.5,0.3-0.6
			s0.3-0.3,0.5-0.4c0.2-0.1,0.5-0.2,0.8-0.2c0.7,0,1.1,0.2,1.4,0.5c0.3,0.4,0.4,0.9,0.5,1.6v0.2h-1.2v-0.2c0-0.2,0-0.3,0-0.4
			s0-0.2-0.1-0.4s-0.1-0.2-0.2-0.3s-0.2-0.1-0.3-0.1s-0.2,0-0.3,0.1s-0.1,0.2-0.2,0.3s-0.1,0.3-0.1,0.4c0,0.1,0,0.3,0,0.5
			c0,0.4,0,1,0,1.8c0,0.2,0,0.3,0,0.5c0,0.1,0.1,0.3,0.1,0.4c0,0.1,0.1,0.2,0.2,0.3s0.2,0.1,0.3,0.1c0.1,0,0.2,0,0.3-0.1
			c0.1,0,0.1-0.1,0.2-0.2c0-0.1,0.1-0.1,0.1-0.2c0-0.1,0-0.2,0-0.3c0-0.1,0-0.2,0-0.3v-0.2h1.2v0.2c0,0.3-0.1,0.6-0.1,0.9
			c-0.1,0.3-0.2,0.5-0.3,0.7c-0.1,0.2-0.3,0.3-0.6,0.4C80.1,197.7,79.9,197.7,79.5,197.7z"/>
		<path fill="#FFFFFF" d="M82.2,197.6v-6.2h1.2v0.8c0.1-0.2,0.3-0.5,0.6-0.6c0.2-0.2,0.5-0.3,0.8-0.3c0,0,0.1,0,0.2,0v1.4
			c-0.2-0.1-0.5-0.1-0.7-0.1c-0.3,0-0.5,0.1-0.6,0.2s-0.2,0.4-0.2,0.6v4.2H82.2z"/>
		<path fill="#FFFFFF" d="M85.6,190.4v-1.2h1.2v1.2H85.6z M85.6,197.6v-6.2h1.2v6.2H85.6z"/>
		<path fill="#FFFFFF" d="M88.1,199.5v-8.1h1.2v0.6c0.1-0.1,0.2-0.2,0.2-0.2s0.1-0.1,0.2-0.2c0.1-0.1,0.2-0.1,0.2-0.2
			c0.1,0,0.2-0.1,0.3-0.1c0.1,0,0.2,0,0.3,0c0.2,0,0.4,0,0.6,0.1c0.2,0.1,0.3,0.2,0.4,0.3s0.2,0.3,0.3,0.5s0.1,0.4,0.2,0.5
			c0,0.2,0.1,0.4,0.1,0.7c0,0.3,0,0.5,0,0.7s0,0.4,0,0.7v0.1c0,0.3,0,0.5,0,0.8s-0.1,0.5-0.2,0.8c-0.1,0.3-0.2,0.5-0.3,0.7
			c-0.1,0.2-0.3,0.3-0.4,0.5s-0.4,0.2-0.6,0.2c-0.4,0-0.8-0.2-1.2-0.6v2.4H88.1z M90.3,196.7c0.1,0,0.2,0,0.3-0.1s0.2-0.2,0.2-0.4
			s0.1-0.4,0.1-0.5c0-0.2,0-0.4,0-0.6l0-0.8c0-0.1,0-0.3,0-0.4c0-0.1,0-0.2,0-0.4c0-0.1,0-0.3,0-0.4c0-0.1,0-0.2-0.1-0.3
			c0-0.1-0.1-0.2-0.1-0.3c-0.1-0.1-0.1-0.1-0.2-0.2c-0.1,0-0.2-0.1-0.3-0.1c0,0-0.1,0-0.1,0c0,0-0.1,0-0.1,0s-0.1,0-0.1,0
			c0,0-0.1,0-0.1,0.1c0,0-0.1,0-0.1,0.1c0,0-0.1,0-0.1,0.1c-0.1,0-0.1,0.1-0.1,0.1v3.9C89.6,196.6,89.9,196.7,90.3,196.7z"/>
		<path fill="#FFFFFF" d="M93.2,199.5v-8.1h1.2v0.6c0.1-0.1,0.2-0.2,0.2-0.2s0.1-0.1,0.2-0.2c0.1-0.1,0.2-0.1,0.2-0.2
			c0.1,0,0.2-0.1,0.3-0.1c0.1,0,0.2,0,0.3,0c0.2,0,0.4,0,0.6,0.1c0.2,0.1,0.3,0.2,0.4,0.3s0.2,0.3,0.3,0.5s0.1,0.4,0.2,0.5
			c0,0.2,0.1,0.4,0.1,0.7c0,0.3,0,0.5,0,0.7s0,0.4,0,0.7v0.1c0,0.3,0,0.5,0,0.8s-0.1,0.5-0.2,0.8c-0.1,0.3-0.2,0.5-0.3,0.7
			c-0.1,0.2-0.3,0.3-0.4,0.5s-0.4,0.2-0.6,0.2c-0.4,0-0.8-0.2-1.2-0.6v2.4H93.2z M95.3,196.7c0.1,0,0.2,0,0.3-0.1s0.2-0.2,0.2-0.4
			s0.1-0.4,0.1-0.5c0-0.2,0-0.4,0-0.6l0-0.8c0-0.1,0-0.3,0-0.4c0-0.1,0-0.2,0-0.4c0-0.1,0-0.3,0-0.4c0-0.1,0-0.2-0.1-0.3
			c0-0.1-0.1-0.2-0.1-0.3c-0.1-0.1-0.1-0.1-0.2-0.2c-0.1,0-0.2-0.1-0.3-0.1c0,0-0.1,0-0.1,0c0,0-0.1,0-0.1,0s-0.1,0-0.1,0
			c0,0-0.1,0-0.1,0.1c0,0-0.1,0-0.1,0.1c0,0-0.1,0-0.1,0.1c-0.1,0-0.1,0.1-0.1,0.1v3.9C94.7,196.6,95,196.7,95.3,196.7z"/>
		<path fill="#FFFFFF" d="M98.2,197.6v-8.8h1.2v8.8H98.2z"/>
		<path fill="#FFFFFF" d="M102.4,197.7c-0.3,0-0.6-0.1-0.8-0.2c-0.2-0.1-0.4-0.2-0.5-0.4c-0.1-0.2-0.2-0.4-0.3-0.6
			c-0.1-0.3-0.1-0.5-0.2-0.8c0-0.3,0-0.6-0.1-0.9c0-0.3,0-0.5,0-0.8c0-0.3,0-0.6,0.1-0.9c0-0.3,0.1-0.5,0.2-0.7
			c0.1-0.2,0.2-0.4,0.3-0.6c0.1-0.2,0.3-0.3,0.5-0.4s0.5-0.1,0.8-0.1c0.3,0,0.5,0,0.7,0.1c0.2,0.1,0.4,0.2,0.5,0.3s0.2,0.3,0.3,0.5
			c0.1,0.2,0.2,0.4,0.2,0.6c0,0.2,0.1,0.5,0.1,0.7c0,0.2,0,0.5,0,0.8v0.1h-2.5v0.3c0,0,0,0.1,0,0.2c0,0.1,0,0.2,0,0.4
			c0,0.1,0,0.3,0,0.4c0,0.1,0,0.2,0.1,0.4s0.1,0.2,0.1,0.3c0,0.1,0.1,0.2,0.2,0.2s0.2,0.1,0.3,0.1c0.1,0,0.2,0,0.3-0.1
			c0.1,0,0.1-0.1,0.2-0.2c0-0.1,0.1-0.2,0.1-0.3c0-0.1,0-0.2,0-0.4v-0.3h1.2v0.2c0,0.7-0.2,1.2-0.5,1.5S103,197.7,102.4,197.7z
			 M101.8,193.9h1.2v-0.4c0-0.2,0-0.3,0-0.4c0-0.1,0-0.2-0.1-0.4c0-0.1-0.1-0.2-0.2-0.3c-0.1-0.1-0.2-0.1-0.3-0.1
			c-0.1,0-0.2,0-0.3,0.1s-0.1,0.2-0.2,0.3c0,0.1-0.1,0.3-0.1,0.4c0,0.1,0,0.3,0,0.4V193.9z"/>
		<path fill="#FFFFFF" d="M106.6,197.7c-0.3,0-0.5-0.1-0.7-0.2s-0.4-0.4-0.5-0.6c-0.1-0.3-0.2-0.5-0.3-0.8s-0.1-0.6-0.1-0.9
			c0-0.2,0-0.5,0-1.1c0-0.2,0-0.4,0-0.6c0-0.2,0-0.4,0.1-0.5c0-0.2,0.1-0.4,0.1-0.5c0-0.1,0.1-0.3,0.2-0.4c0.1-0.1,0.2-0.2,0.3-0.3
			s0.2-0.2,0.4-0.2c0.1-0.1,0.3-0.1,0.5-0.1c0.1,0,0.3,0,0.4,0.1c0.1,0,0.2,0.1,0.3,0.2c0.1,0.1,0.2,0.2,0.3,0.2
			c0.1,0.1,0.2,0.1,0.3,0.3v-3.1h1.2v8.7h-1.2v-0.6c-0.2,0.2-0.4,0.4-0.6,0.5C107.1,197.7,106.9,197.7,106.6,197.7z M106.9,196.7
			c0.3,0,0.6-0.1,0.9-0.2v-3.9c-0.3-0.2-0.6-0.2-0.9-0.2c-0.1,0-0.2,0-0.3,0.1c-0.1,0.1-0.1,0.1-0.2,0.3c0,0.1-0.1,0.2-0.1,0.4
			s0,0.3,0,0.4c0,0.7,0,1.3,0,1.7c0,0.2,0,0.4,0,0.6c0,0.2,0.1,0.3,0.1,0.5s0.1,0.3,0.2,0.3C106.7,196.6,106.8,196.7,106.9,196.7z"
			/>
		<path fill="#FFFFFF" d="M112.3,197.6v-8.8h1.2v3.2c0.2-0.2,0.3-0.3,0.5-0.4c0.1-0.1,0.3-0.2,0.5-0.3c0.2-0.1,0.4-0.1,0.7-0.1
			c0.3,0,0.5,0.1,0.6,0.3s0.2,0.4,0.2,0.7v5.3h-1.2v-4.7c0-0.2,0-0.4-0.1-0.5c-0.1-0.1-0.2-0.2-0.3-0.2c-0.3,0-0.5,0.1-0.8,0.4v4.9
			H112.3z"/>
		<path fill="#FFFFFF" d="M118.9,197.7c-0.3,0-0.6-0.1-0.8-0.2c-0.2-0.1-0.4-0.2-0.5-0.4c-0.1-0.2-0.2-0.4-0.3-0.6
			c-0.1-0.3-0.1-0.5-0.2-0.8c0-0.3,0-0.6-0.1-0.9c0-0.3,0-0.5,0-0.8c0-0.3,0-0.6,0.1-0.9c0-0.3,0.1-0.5,0.2-0.7
			c0.1-0.2,0.2-0.4,0.3-0.6c0.1-0.2,0.3-0.3,0.5-0.4s0.5-0.1,0.8-0.1c0.3,0,0.5,0,0.7,0.1c0.2,0.1,0.4,0.2,0.5,0.3
			c0.1,0.1,0.2,0.3,0.3,0.5c0.1,0.2,0.2,0.4,0.2,0.6c0,0.2,0.1,0.5,0.1,0.7c0,0.2,0,0.5,0,0.8v0.1h-2.5v0.3c0,0,0,0.1,0,0.2
			c0,0.1,0,0.2,0,0.4c0,0.1,0,0.3,0,0.4c0,0.1,0,0.2,0.1,0.4s0.1,0.2,0.1,0.3c0,0.1,0.1,0.2,0.2,0.2c0.1,0,0.2,0.1,0.3,0.1
			c0.1,0,0.2,0,0.3-0.1c0.1,0,0.1-0.1,0.2-0.2c0-0.1,0.1-0.2,0.1-0.3c0-0.1,0-0.2,0-0.4v-0.3h1.2v0.2c0,0.7-0.2,1.2-0.5,1.5
			C120,197.5,119.6,197.7,118.9,197.7z M118.3,193.9h1.2v-0.4c0-0.2,0-0.3,0-0.4c0-0.1,0-0.2-0.1-0.4c0-0.1-0.1-0.2-0.2-0.3
			c-0.1-0.1-0.2-0.1-0.3-0.1c-0.1,0-0.2,0-0.3,0.1c-0.1,0.1-0.1,0.2-0.2,0.3c0,0.1-0.1,0.3-0.1,0.4c0,0.1,0,0.3,0,0.4V193.9z"/>
		<path fill="#FFFFFF" d="M121.7,197.6v-6.2h1.2v0.8c0.1-0.2,0.3-0.5,0.6-0.6c0.2-0.2,0.5-0.3,0.8-0.3c0,0,0.1,0,0.2,0v1.4
			c-0.2-0.1-0.5-0.1-0.7-0.1c-0.3,0-0.5,0.1-0.6,0.2c-0.2,0.2-0.2,0.4-0.2,0.6v4.2H121.7z"/>
		<path fill="#FFFFFF" d="M127.1,197.6v-6.2h1.2v0.7c0.4-0.5,1-0.8,1.6-0.8c0.3,0,0.5,0.1,0.7,0.2c0.1,0.1,0.2,0.3,0.3,0.6
			c0.2-0.3,0.4-0.5,0.7-0.6c0.2-0.1,0.5-0.2,0.9-0.2c0.1,0,0.2,0,0.3,0c0.1,0,0.2,0,0.2,0.1c0.1,0,0.1,0.1,0.2,0.1
			c0,0.1,0.1,0.1,0.1,0.2c0,0.1,0.1,0.1,0.1,0.2c0,0.1,0,0.2,0,0.2c0,0.1,0,0.2,0,0.3c0,0.1,0,0.2,0,0.3s0,0.2,0,0.3
			c0,0,0,0.1,0,0.1v4.5h-1.2v-4.6c0,0,0,0,0-0.1c0-0.1,0-0.2,0-0.2c0-0.1,0-0.1,0-0.2c0-0.1,0-0.1-0.1-0.2c0,0-0.1-0.1-0.2-0.1
			c-0.1,0-0.3,0-0.4,0.1c-0.1,0.1-0.2,0.1-0.3,0.1c-0.1,0-0.2,0.1-0.3,0.2v4.9h-1.2v-4.5c0,0,0,0,0-0.1c0-0.1,0-0.2,0-0.2
			c0,0,0-0.1,0-0.2c0-0.1,0-0.1,0-0.2c0,0-0.1-0.1-0.1-0.1c0,0-0.1,0-0.2,0c-0.3,0-0.6,0.1-0.9,0.4v4.9H127.1z"/>
		<path fill="#FFFFFF" d="M136.2,197.7c-0.3,0-0.6-0.1-0.8-0.2c-0.2-0.1-0.4-0.2-0.5-0.4c-0.1-0.2-0.2-0.4-0.3-0.6
			c-0.1-0.3-0.1-0.5-0.2-0.8c0-0.3,0-0.6-0.1-0.9c0-0.3,0-0.5,0-0.8c0-0.3,0-0.6,0.1-0.9c0-0.3,0.1-0.5,0.2-0.7
			c0.1-0.2,0.2-0.4,0.3-0.6c0.1-0.2,0.3-0.3,0.5-0.4s0.5-0.1,0.8-0.1c0.3,0,0.5,0,0.7,0.1c0.2,0.1,0.4,0.2,0.5,0.3
			c0.1,0.1,0.2,0.3,0.3,0.5c0.1,0.2,0.2,0.4,0.2,0.6c0,0.2,0.1,0.5,0.1,0.7c0,0.2,0,0.5,0,0.8v0.1h-2.5v0.3c0,0,0,0.1,0,0.2
			c0,0.1,0,0.2,0,0.4c0,0.1,0,0.3,0,0.4c0,0.1,0,0.2,0.1,0.4s0.1,0.2,0.1,0.3c0,0.1,0.1,0.2,0.2,0.2c0.1,0,0.2,0.1,0.3,0.1
			c0.1,0,0.2,0,0.3-0.1c0.1,0,0.1-0.1,0.2-0.2c0-0.1,0.1-0.2,0.1-0.3c0-0.1,0-0.2,0-0.4v-0.3h1.2v0.2c0,0.7-0.2,1.2-0.5,1.5
			C137.3,197.5,136.9,197.7,136.2,197.7z M135.6,193.9h1.2v-0.4c0-0.2,0-0.3,0-0.4c0-0.1,0-0.2-0.1-0.4c0-0.1-0.1-0.2-0.2-0.3
			c-0.1-0.1-0.2-0.1-0.3-0.1c-0.1,0-0.2,0-0.3,0.1c-0.1,0.1-0.1,0.2-0.2,0.3c0,0.1-0.1,0.3-0.1,0.4c0,0.1,0,0.3,0,0.4V193.9z"/>
		<path fill="#FFFFFF" d="M139,197.6v-6.2h1.2v0.7c0.4-0.5,1-0.8,1.6-0.8c0.3,0,0.5,0.1,0.7,0.2c0.1,0.1,0.2,0.3,0.3,0.6
			c0.2-0.3,0.4-0.5,0.7-0.6c0.2-0.1,0.5-0.2,0.9-0.2c0.1,0,0.2,0,0.3,0c0.1,0,0.2,0,0.2,0.1c0.1,0,0.1,0.1,0.2,0.1
			c0,0.1,0.1,0.1,0.1,0.2c0,0.1,0.1,0.1,0.1,0.2c0,0.1,0,0.2,0,0.2c0,0.1,0,0.2,0,0.3c0,0.1,0,0.2,0,0.3s0,0.2,0,0.3
			c0,0,0,0.1,0,0.1v4.5H144v-4.6c0,0,0,0,0-0.1c0-0.1,0-0.2,0-0.2c0-0.1,0-0.1,0-0.2c0-0.1,0-0.1-0.1-0.2c0,0-0.1-0.1-0.2-0.1
			c-0.1,0-0.3,0-0.4,0.1c-0.1,0.1-0.2,0.1-0.3,0.1c-0.1,0-0.2,0.1-0.3,0.2v4.9h-1.2v-4.5c0,0,0,0,0-0.1c0-0.1,0-0.2,0-0.2
			c0,0,0-0.1,0-0.2c0-0.1,0-0.1,0-0.2c0,0-0.1-0.1-0.1-0.1c0,0-0.1,0-0.2,0c-0.3,0-0.6,0.1-0.9,0.4v4.9H139z"/>
		<path fill="#FFFFFF" d="M148.9,197.7c-0.3,0-0.5-0.1-0.7-0.2c-0.2-0.1-0.4-0.3-0.6-0.5v0.6h-1.2v-8.7h1.2v3.1
			c0.1-0.1,0.2-0.2,0.3-0.3c0.1-0.1,0.1-0.1,0.3-0.2c0.1-0.1,0.2-0.1,0.3-0.2c0.1,0,0.3-0.1,0.4-0.1c0.2,0,0.4,0,0.6,0.1
			c0.2,0.1,0.3,0.2,0.4,0.3s0.2,0.3,0.3,0.5c0.1,0.2,0.1,0.4,0.2,0.5c0,0.2,0.1,0.4,0.1,0.7c0,0.3,0,0.5,0,0.7c0,0.2,0,0.4,0,0.7
			v0.1c0,0.3,0,0.5,0,0.8c0,0.3-0.1,0.5-0.2,0.8s-0.2,0.5-0.3,0.7c-0.1,0.2-0.3,0.3-0.4,0.5C149.3,197.6,149.1,197.7,148.9,197.7z
			 M148.6,196.7c0.1,0,0.2,0,0.3-0.1c0.1-0.1,0.2-0.2,0.2-0.4c0-0.2,0.1-0.4,0.1-0.5c0-0.2,0-0.4,0-0.6c0-0.2,0-0.4,0-0.7
			c0-0.3,0-0.5,0-0.7s0-0.3,0-0.4c0-0.1,0-0.2,0-0.3c0-0.1-0.1-0.2-0.1-0.3s-0.1-0.1-0.2-0.2c-0.1,0-0.2-0.1-0.3-0.1
			c-0.3,0-0.7,0.1-0.9,0.2v3.9C148,196.6,148.3,196.7,148.6,196.7z"/>
		<path fill="#FFFFFF" d="M153.2,197.7c-0.3,0-0.6-0.1-0.8-0.2c-0.2-0.1-0.4-0.2-0.5-0.4c-0.1-0.2-0.2-0.4-0.3-0.6
			c-0.1-0.3-0.1-0.5-0.2-0.8c0-0.3,0-0.6-0.1-0.9c0-0.3,0-0.5,0-0.8c0-0.3,0-0.6,0.1-0.9c0-0.3,0.1-0.5,0.2-0.7
			c0.1-0.2,0.2-0.4,0.3-0.6c0.1-0.2,0.3-0.3,0.5-0.4s0.5-0.1,0.8-0.1c0.3,0,0.5,0,0.7,0.1c0.2,0.1,0.4,0.2,0.5,0.3
			c0.1,0.1,0.2,0.3,0.3,0.5c0.1,0.2,0.2,0.4,0.2,0.6c0,0.2,0.1,0.5,0.1,0.7c0,0.2,0,0.5,0,0.8v0.1h-2.5v0.3c0,0,0,0.1,0,0.2
			c0,0.1,0,0.2,0,0.4c0,0.1,0,0.3,0,0.4c0,0.1,0,0.2,0.1,0.4s0.1,0.2,0.1,0.3c0,0.1,0.1,0.2,0.2,0.2c0.1,0,0.2,0.1,0.3,0.1
			c0.1,0,0.2,0,0.3-0.1c0.1,0,0.1-0.1,0.2-0.2c0-0.1,0.1-0.2,0.1-0.3c0-0.1,0-0.2,0-0.4v-0.3h1.2v0.2c0,0.7-0.2,1.2-0.5,1.5
			C154.3,197.5,153.9,197.7,153.2,197.7z M152.6,193.9h1.2v-0.4c0-0.2,0-0.3,0-0.4c0-0.1,0-0.2-0.1-0.4c0-0.1-0.1-0.2-0.2-0.3
			c-0.1-0.1-0.2-0.1-0.3-0.1c-0.1,0-0.2,0-0.3,0.1c-0.1,0.1-0.1,0.2-0.2,0.3c0,0.1-0.1,0.3-0.1,0.4c0,0.1,0,0.3,0,0.4V193.9z"/>
		<path fill="#FFFFFF" d="M156,197.6v-6.2h1.2v0.8c0.1-0.2,0.3-0.5,0.6-0.6c0.2-0.2,0.5-0.3,0.8-0.3c0,0,0.1,0,0.2,0v1.4
			c-0.2-0.1-0.5-0.1-0.7-0.1c-0.3,0-0.5,0.1-0.6,0.2c-0.2,0.2-0.2,0.4-0.2,0.6v4.2H156z"/>
		<path fill="#FFFFFF" d="M161,197.7c-0.5,0-0.9-0.2-1.2-0.5c-0.3-0.3-0.5-0.7-0.6-1.2l0.9-0.3c0.2,0.6,0.5,0.9,0.9,0.9
			c0.2,0,0.4-0.1,0.5-0.2c0.1-0.1,0.2-0.3,0.2-0.5c0-0.3-0.1-0.5-0.3-0.7l-1.2-0.9c-0.1-0.1-0.3-0.2-0.4-0.3
			c-0.1-0.1-0.2-0.2-0.3-0.3c-0.1-0.1-0.2-0.3-0.2-0.4c0-0.2-0.1-0.3-0.1-0.5c0-0.5,0.2-0.9,0.5-1.2c0.3-0.3,0.8-0.4,1.4-0.4
			c0.3,0,0.5,0,0.7,0.1c0.2,0.1,0.4,0.2,0.5,0.4c0.1,0.2,0.3,0.3,0.4,0.5c0.1,0.2,0.2,0.4,0.2,0.6l-0.9,0.3c0-0.1-0.1-0.2-0.1-0.3
			c0-0.1-0.1-0.2-0.2-0.3c-0.1-0.1-0.2-0.2-0.3-0.2c-0.1-0.1-0.2-0.1-0.3-0.1c-0.2,0-0.4,0.1-0.5,0.2c-0.1,0.1-0.2,0.3-0.2,0.5
			c0,0.2,0.1,0.4,0.3,0.5l1.2,0.9c0.1,0.1,0.3,0.2,0.4,0.3c0.1,0.1,0.2,0.2,0.3,0.4c0.1,0.1,0.2,0.3,0.2,0.5s0.1,0.3,0.1,0.5
			c0,0.5-0.2,0.9-0.5,1.2C162.1,197.6,161.6,197.7,161,197.7z"/>
		<path fill="#FFFFFF" d="M163.8,198.9l-0.3-0.6c0.2,0,0.4,0,0.5-0.1c0.1-0.1,0.1-0.3,0.1-0.5h-0.6v-1.2h1.2c0,0.5,0,0.9,0,1.2
			c0,0.2,0,0.3,0,0.4c0,0.1,0,0.2-0.1,0.4c0,0.1-0.1,0.2-0.2,0.3c-0.1,0.1-0.2,0.1-0.3,0.2C164.1,198.9,164,198.9,163.8,198.9z"/>
		<path fill="#FFFFFF" d="M79.6,209.7c-0.5,0-0.9-0.2-1.2-0.5c-0.3-0.3-0.5-0.7-0.6-1.2l0.9-0.3c0.2,0.6,0.5,0.9,0.9,0.9
			c0.2,0,0.4-0.1,0.5-0.2c0.1-0.1,0.2-0.3,0.2-0.5c0-0.3-0.1-0.5-0.3-0.7l-1.2-0.9c-0.1-0.1-0.3-0.2-0.4-0.3s-0.2-0.2-0.3-0.3
			c-0.1-0.1-0.2-0.3-0.2-0.4c-0.1-0.2-0.1-0.3-0.1-0.5c0-0.5,0.2-0.9,0.5-1.2s0.8-0.4,1.4-0.4c0.3,0,0.5,0,0.7,0.1
			c0.2,0.1,0.4,0.2,0.5,0.4s0.3,0.3,0.4,0.5s0.2,0.4,0.2,0.6l-0.9,0.3c0-0.1-0.1-0.2-0.1-0.3c0-0.1-0.1-0.2-0.2-0.3
			c-0.1-0.1-0.2-0.2-0.3-0.2c-0.1-0.1-0.2-0.1-0.3-0.1c-0.2,0-0.4,0.1-0.5,0.2c-0.1,0.1-0.2,0.3-0.2,0.5c0,0.2,0.1,0.4,0.3,0.5
			l1.2,0.9c0.1,0.1,0.3,0.2,0.4,0.3s0.2,0.2,0.3,0.4c0.1,0.1,0.2,0.3,0.2,0.5s0.1,0.3,0.1,0.5c0,0.5-0.2,0.9-0.5,1.2
			S80.2,209.7,79.6,209.7z"/>
		<path fill="#FFFFFF" d="M82.2,209.6v-8.8h1.2v3.2c0.2-0.2,0.3-0.3,0.5-0.4c0.1-0.1,0.3-0.2,0.5-0.3c0.2-0.1,0.4-0.1,0.7-0.1
			c0.3,0,0.5,0.1,0.6,0.3s0.2,0.4,0.2,0.7v5.3h-1.2v-4.7c0-0.2,0-0.4-0.1-0.5c-0.1-0.1-0.2-0.2-0.3-0.2c-0.3,0-0.5,0.1-0.8,0.4v4.9
			H82.2z"/>
		<path fill="#FFFFFF" d="M90.3,209.1c-0.3,0.4-0.8,0.6-1.4,0.6s-1.2-0.2-1.4-0.6s-0.4-1-0.4-1.7v-1.9c0-0.7,0.1-1.3,0.4-1.7
			s0.8-0.6,1.4-0.6s1.2,0.2,1.4,0.6s0.4,1,0.4,1.7v1.9C90.7,208.2,90.6,208.7,90.3,209.1z M88.6,208.6c0.1,0,0.1,0,0.2,0
			s0.2,0,0.2,0c0.1,0,0.1-0.1,0.2-0.1c0,0,0.1-0.1,0.1-0.2s0.1-0.1,0.1-0.2c0-0.1,0-0.1,0-0.2c0-0.1,0-0.2,0-0.2c0-0.1,0-0.2,0-0.3
			v-1.9c0-0.1,0-0.2,0-0.3c0-0.1,0-0.1,0-0.2c0-0.1,0-0.2,0-0.2c0-0.1,0-0.1-0.1-0.2s-0.1-0.1-0.1-0.2c0,0-0.1-0.1-0.2-0.1
			c-0.1,0-0.1,0-0.2,0s-0.2,0-0.2,0c-0.1,0-0.1,0.1-0.2,0.1c0,0-0.1,0.1-0.1,0.2s-0.1,0.1-0.1,0.2c0,0.1,0,0.1,0,0.2
			c0,0.1,0,0.2,0,0.2c0,0.1,0,0.2,0,0.3v1.9c0,0.1,0,0.2,0,0.3c0,0.1,0,0.1,0,0.2c0,0.1,0,0.2,0,0.2c0,0.1,0,0.1,0.1,0.2
			s0.1,0.1,0.1,0.2C88.5,208.6,88.5,208.6,88.6,208.6z"/>
		<path fill="#FFFFFF" d="M92.4,209.6l-1.2-6.2h1.1l0.7,4.7l0.7-4.7h1.1l0.7,4.7l0.7-4.7h1.1l-1.2,6.2H95l-0.7-4.3l-0.7,4.3H92.4z"
			/>
		<path fill="#FFFFFF" d="M98.1,202.4v-1.2h1.2v1.2H98.1z M98.1,209.6v-6.2h1.2v6.2H98.1z"/>
		<path fill="#FFFFFF" d="M100.5,209.6v-6.2h1.2v0.7c0.2-0.2,0.3-0.3,0.5-0.4c0.1-0.1,0.3-0.2,0.5-0.3c0.2-0.1,0.4-0.1,0.7-0.1
			c0.3,0,0.5,0.1,0.6,0.3s0.2,0.4,0.2,0.7v5.3H103v-4.7c0-0.2,0-0.4-0.1-0.5c-0.1-0.1-0.2-0.1-0.4-0.1c-0.1,0-0.2,0-0.3,0.1
			s-0.2,0.1-0.2,0.1c-0.1,0-0.1,0.1-0.2,0.2v4.9H100.5z"/>
		<path fill="#FFFFFF" d="M107.3,211.5c-0.2,0-0.3,0-0.4,0c-0.1,0-0.2,0-0.4,0c-0.2,0-0.3,0-0.4,0c-0.1,0-0.2,0-0.4-0.1
			c-0.1,0-0.3-0.1-0.4-0.1c-0.1,0-0.2-0.1-0.3-0.2c-0.1-0.1-0.2-0.1-0.2-0.2c0-0.1-0.1-0.2-0.1-0.3c0-0.3,0.1-0.6,0.3-0.8
			c0.2-0.2,0.4-0.4,0.7-0.6c-0.2,0-0.3-0.1-0.4-0.2s-0.2-0.2-0.2-0.3c0-0.1,0-0.1,0-0.2c0-0.1,0-0.1,0-0.2c0,0,0-0.1,0.1-0.2
			c0-0.1,0.1-0.1,0.1-0.2c0,0,0.1-0.1,0.1-0.2c0-0.1,0.1-0.1,0.1-0.1s0.1-0.1,0.1-0.1s0.1-0.1,0.1-0.1c-0.4-0.5-0.6-1.1-0.6-1.9
			c0-0.4,0.1-0.8,0.2-1.2c0.1-0.3,0.3-0.6,0.6-0.8c0.3-0.2,0.6-0.3,1-0.3c0.2,0,0.4,0,0.6,0.1c0.2,0.1,0.3,0.1,0.4,0.2
			c0.1,0.1,0.2,0.2,0.3,0.4c0.2-0.5,0.6-0.7,1.1-0.7c0,0,0,0,0,0s0,0,0,0s0,0,0,0v1c0,0,0,0-0.1,0c-0.1,0-0.2,0-0.3,0
			c-0.1,0-0.2,0-0.2,0s-0.2,0.1-0.2,0.1c0.1,0.1,0.1,0.3,0.2,0.5s0.1,0.4,0.1,0.6c0,0.4-0.1,0.8-0.2,1.2c-0.1,0.3-0.3,0.6-0.6,0.8
			c-0.3,0.2-0.6,0.3-1,0.3l-0.6-0.1c0,0,0,0,0,0.1c0,0,0,0.1-0.1,0.1c0,0,0,0.1,0,0.1c0,0,0,0.1,0,0.1c0,0.1,0,0.2,0.1,0.2
			s0.2,0.1,0.3,0.1c0.1,0,0.3,0,0.4,0.1c0.1,0,0.3,0,0.4,0c0.2,0,0.3,0,0.3,0c0.2,0,0.4,0.1,0.5,0.1s0.3,0.1,0.4,0.1
			c0.2,0.1,0.3,0.1,0.4,0.2c0.1,0.1,0.2,0.2,0.2,0.4c0.1,0.1,0.1,0.3,0.1,0.5c0,0.2,0,0.4-0.1,0.6c-0.1,0.2-0.2,0.3-0.3,0.4
			c-0.1,0.1-0.3,0.2-0.5,0.3c-0.2,0.1-0.4,0.1-0.6,0.2C107.8,211.5,107.6,211.5,107.3,211.5z M107.3,210.6c0.1,0,0.2,0,0.2,0
			c0.1,0,0.2,0,0.2,0s0.2,0,0.2,0c0.1,0,0.1,0,0.2-0.1c0.1,0,0.1-0.1,0.1-0.1s0-0.1,0-0.2c0-0.3-0.3-0.6-1-0.6l-1-0.1
			c-0.1,0.1-0.2,0.2-0.3,0.4c-0.1,0.2-0.1,0.4-0.1,0.5c0,0.1,0,0.1,0.1,0.1c0,0,0.1,0.1,0.2,0.1s0.1,0,0.2,0c0.1,0,0.2,0,0.3,0
			c0.1,0,0.2,0,0.3,0s0.2,0,0.3,0C107.2,210.6,107.3,210.6,107.3,210.6z M107,206.9c0.5,0,0.8-0.4,0.8-1.3c0-0.2,0-0.3,0-0.5
			s-0.1-0.3-0.1-0.4c-0.1-0.1-0.1-0.3-0.2-0.3s-0.2-0.1-0.4-0.1c-0.2,0-0.3,0-0.4,0.1s-0.2,0.2-0.2,0.3c-0.1,0.1-0.1,0.3-0.1,0.4
			s0,0.3,0,0.5C106.2,206.4,106.5,206.9,107,206.9z"/>
		<path fill="#FFFFFF" d="M113.7,209.7c-0.3,0-0.6-0.1-0.8-0.2c-0.2-0.1-0.4-0.2-0.5-0.4c-0.1-0.2-0.2-0.4-0.3-0.6
			c-0.1-0.3-0.1-0.5-0.2-0.8c0-0.3,0-0.6-0.1-0.9c0-0.3,0-0.5,0-0.8c0-0.3,0-0.6,0.1-0.9c0-0.3,0.1-0.5,0.2-0.7
			c0.1-0.2,0.2-0.4,0.3-0.6c0.1-0.2,0.3-0.3,0.5-0.4s0.5-0.1,0.8-0.1c0.3,0,0.5,0,0.7,0.1c0.2,0.1,0.4,0.2,0.5,0.3
			c0.1,0.1,0.2,0.3,0.3,0.5c0.1,0.2,0.2,0.4,0.2,0.6c0,0.2,0.1,0.5,0.1,0.7c0,0.2,0,0.5,0,0.8v0.1H113v0.3c0,0,0,0.1,0,0.2
			c0,0.1,0,0.2,0,0.4c0,0.1,0,0.3,0,0.4c0,0.1,0,0.2,0.1,0.4s0.1,0.2,0.1,0.3c0,0.1,0.1,0.2,0.2,0.2c0.1,0,0.2,0.1,0.3,0.1
			c0.1,0,0.2,0,0.3-0.1c0.1,0,0.1-0.1,0.2-0.2c0-0.1,0.1-0.2,0.1-0.3c0-0.1,0-0.2,0-0.4v-0.3h1.2v0.2c0,0.7-0.2,1.2-0.5,1.5
			C114.7,209.5,114.3,209.7,113.7,209.7z M113,205.9h1.2v-0.4c0-0.2,0-0.3,0-0.4c0-0.1,0-0.2-0.1-0.4c0-0.1-0.1-0.2-0.2-0.3
			c-0.1-0.1-0.2-0.1-0.3-0.1c-0.1,0-0.2,0-0.3,0.1c-0.1,0.1-0.1,0.2-0.2,0.3c0,0.1-0.1,0.3-0.1,0.4c0,0.1,0,0.3,0,0.4V205.9z"/>
		<path fill="#FFFFFF" d="M116.5,209.6v-6.2h1.2v0.7c0.4-0.5,1-0.8,1.6-0.8c0.3,0,0.5,0.1,0.7,0.2c0.1,0.1,0.2,0.3,0.3,0.6
			c0.2-0.3,0.4-0.5,0.7-0.6c0.2-0.1,0.5-0.2,0.9-0.2c0.1,0,0.2,0,0.3,0c0.1,0,0.2,0,0.2,0.1c0.1,0,0.1,0.1,0.2,0.1
			c0,0.1,0.1,0.1,0.1,0.2c0,0.1,0.1,0.1,0.1,0.2c0,0.1,0,0.2,0,0.2c0,0.1,0,0.2,0,0.3c0,0.1,0,0.2,0,0.3s0,0.2,0,0.3
			c0,0,0,0.1,0,0.1v4.5h-1.2v-4.6c0,0,0,0,0-0.1c0-0.1,0-0.2,0-0.2c0-0.1,0-0.1,0-0.2c0-0.1,0-0.1-0.1-0.2c0,0-0.1-0.1-0.2-0.1
			c-0.1,0-0.3,0-0.4,0.1c-0.1,0.1-0.2,0.1-0.3,0.1c-0.1,0-0.2,0.1-0.3,0.2v4.9H119v-4.5c0,0,0,0,0-0.1c0-0.1,0-0.2,0-0.2
			c0,0,0-0.1,0-0.2c0-0.1,0-0.1,0-0.2c0,0-0.1-0.1-0.1-0.1c0,0-0.1,0-0.2,0c-0.3,0-0.6,0.1-0.9,0.4v4.9H116.5z"/>
		<path fill="#FFFFFF" d="M123.8,211.5v-8.1h1.2v0.6c0.1-0.1,0.2-0.2,0.2-0.2s0.1-0.1,0.2-0.2c0.1-0.1,0.2-0.1,0.2-0.2
			c0.1,0,0.2-0.1,0.3-0.1c0.1,0,0.2,0,0.3,0c0.2,0,0.4,0,0.6,0.1c0.2,0.1,0.3,0.2,0.4,0.3s0.2,0.3,0.3,0.5c0.1,0.2,0.1,0.4,0.2,0.5
			c0,0.2,0.1,0.4,0.1,0.7c0,0.3,0,0.5,0,0.7c0,0.2,0,0.4,0,0.7v0.1c0,0.3,0,0.5,0,0.8c0,0.3-0.1,0.5-0.2,0.8
			c-0.1,0.3-0.2,0.5-0.3,0.7c-0.1,0.2-0.3,0.3-0.4,0.5c-0.2,0.1-0.4,0.2-0.6,0.2c-0.4,0-0.8-0.2-1.2-0.6v2.4H123.8z M126,208.7
			c0.1,0,0.2,0,0.3-0.1c0.1-0.1,0.2-0.2,0.2-0.4c0-0.2,0.1-0.4,0.1-0.5c0-0.2,0-0.4,0-0.6l0-0.8c0-0.1,0-0.3,0-0.4
			c0-0.1,0-0.2,0-0.4c0-0.1,0-0.3,0-0.4c0-0.1,0-0.2-0.1-0.3c0-0.1-0.1-0.2-0.1-0.3c0-0.1-0.1-0.1-0.2-0.2c-0.1,0-0.2-0.1-0.3-0.1
			c0,0-0.1,0-0.1,0c0,0-0.1,0-0.1,0c0,0-0.1,0-0.1,0c0,0-0.1,0-0.1,0.1c0,0-0.1,0-0.1,0.1c0,0-0.1,0-0.1,0.1c-0.1,0-0.1,0.1-0.1,0.1
			v3.9C125.3,208.6,125.6,208.7,126,208.7z"/>
		<path fill="#FFFFFF" d="M130,209.7c-0.3,0-0.6-0.2-0.9-0.5c-0.2-0.3-0.4-0.6-0.4-1c0-0.3,0.1-0.6,0.2-0.8c0.1-0.2,0.2-0.4,0.3-0.6
			c0.1-0.1,0.3-0.3,0.6-0.5c0.3-0.2,0.5-0.3,0.6-0.3s0.4-0.2,0.7-0.3c0.1,0,0.1,0,0.1-0.1v-0.4c0-0.3,0-0.6-0.1-0.7
			c-0.1-0.2-0.3-0.3-0.5-0.3c-0.2,0-0.4,0.1-0.5,0.2c-0.1,0.1-0.1,0.4-0.2,0.6c0,0,0,0.1,0,0.2h-1.2c0-0.6,0.2-1.1,0.5-1.4
			c0.3-0.4,0.8-0.5,1.4-0.5c0.6,0,1,0.2,1.4,0.5c0.3,0.4,0.5,0.8,0.5,1.4v2.8c0,0.7,0.1,1.2,0.2,1.6h-1.2l-0.2-0.9
			c-0.1,0.1-0.1,0.2-0.2,0.3c0,0.1-0.1,0.2-0.2,0.3c-0.1,0.1-0.2,0.2-0.2,0.2c-0.1,0.1-0.2,0.1-0.3,0.1
			C130.2,209.7,130.1,209.7,130,209.7z M130.6,208.7c0.1,0,0.2,0,0.3-0.1c0.1-0.1,0.1-0.1,0.2-0.2c0,0,0.1-0.1,0.2-0.2c0,0,0,0,0,0
			v-1.7c-0.1,0-0.1,0.1-0.3,0.2c-0.1,0.1-0.2,0.1-0.3,0.2c-0.1,0-0.2,0.1-0.3,0.2c-0.1,0.1-0.2,0.2-0.2,0.2
			c-0.1,0.1-0.1,0.2-0.1,0.3c0,0.1-0.1,0.2-0.1,0.3C130,208.4,130.2,208.7,130.6,208.7z"/>
		<path fill="#FFFFFF" d="M135.1,209.7c-0.5,0-0.8-0.1-1.1-0.4c-0.2-0.3-0.3-0.6-0.3-1.1v-3.9h-0.6v-0.9h0.6v-2.2h1.2v2.2h0.9v0.9
			h-0.9v3.6c0,0.2,0,0.4,0.1,0.6s0.2,0.2,0.4,0.2c0.1,0,0.2,0,0.4,0v1C135.6,209.7,135.3,209.7,135.1,209.7z"/>
		<path fill="#FFFFFF" d="M136.8,209.6v-8.8h1.2v3.2c0.2-0.2,0.3-0.3,0.5-0.4c0.1-0.1,0.3-0.2,0.5-0.3c0.2-0.1,0.4-0.1,0.7-0.1
			c0.3,0,0.5,0.1,0.6,0.3s0.2,0.4,0.2,0.7v5.3h-1.2v-4.7c0-0.2,0-0.4-0.1-0.5c-0.1-0.1-0.2-0.2-0.3-0.2c-0.3,0-0.5,0.1-0.8,0.4v4.9
			H136.8z"/>
		<path fill="#FFFFFF" d="M141.4,211.2v-0.9c0.2,0,0.4,0,0.6,0c0.1,0,0.3-0.1,0.3-0.2c0.1-0.1,0.1-0.2,0.1-0.3c0-0.1,0-0.2,0-0.4
			l-1.4-6h1.2c0.5,2.7,0.7,4.1,0.8,4.4c0.1-0.4,0.1-0.9,0.2-1.4c0.1-0.5,0.2-1,0.3-1.6c0.1-0.6,0.2-1,0.3-1.4h1.2l-1.6,6.6
			c-0.1,0.5-0.3,0.8-0.7,1c-0.3,0.2-0.8,0.3-1.4,0.3H141.4z"/>
		<path fill="#FFFFFF" d="M145.5,209.6v-1.2h1.2v1.2H145.5z"/>
	</g>
	<g>
	</g>
	<g>
	</g>
	<g>
	</g>
	<g>
	</g>
	<g>
	</g>
	<g>
	</g>
</g>
</svg>
