<?xml version="1.0" encoding="utf-8"?>
<!-- Generator: Adobe Illustrator 19.1.0, SVG Export Plug-In . SVG Version: 6.00 Build 0)  -->
<svg version="1.1" xmlns="http://www.w3.org/2000/svg" xmlns:xlink="http://www.w3.org/1999/xlink" x="0px" y="0px" width="86.8px"
	 height="77.6px" viewBox="0 0 86.8 77.6" enable-background="new 0 0 86.8 77.6" xml:space="preserve">
<g id="butterfly">
</g>
<g id="moth">
	<g>
		<rect x="0" y="1.2" fill="none" width="86.8" height="76.4"/>
		<path fill="#553278" d="M1,17.8V1.2h7v2.3H4.4V8h2.5v2.4H4.4v5.1H8v2.3H1z"/>
		<path fill="#553278" d="M10.7,16.8c0-0.8-0.2-2-0.5-3.5C9.9,11.7,9.5,10.1,9,8.5C8.6,6.8,8.4,5.9,8.3,5.7h2.8l1.1,6.8l1-6.8h2.9
			l-2.6,12.4c-0.1,0.4-0.2,0.8-0.4,1.1c-0.2,0.3-0.4,0.6-0.7,0.7c-0.2,0.2-0.5,0.3-0.9,0.4c-0.3,0.1-0.7,0.2-1,0.2
			c-0.3,0-0.7,0.1-1.2,0.1H9v-2.2c0.6,0,1.1-0.2,1.3-0.4C10.6,17.9,10.7,17.4,10.7,16.8z"/>
		<path fill="#553278" d="M16.9,14.7V9.6c0-1.3,0.3-2.3,0.9-3c0.6-0.7,1.5-1.1,2.8-1.1c1.3,0,2.2,0.4,2.8,1.1c0.6,0.7,0.9,1.7,0.9,3
			v2.5H20v2.7c0,0.7,0.2,1,0.6,1c0.4,0,0.6-0.4,0.6-1.1v-1.3h3.1v1.4c0,1-0.4,1.8-1.1,2.5c-0.7,0.6-1.6,1-2.6,1s-1.9-0.3-2.6-1
			C17.3,16.5,16.9,15.7,16.9,14.7z M20,10.4h1.2V8.7c0-0.6-0.2-0.9-0.6-0.9c-0.4,0-0.6,0.3-0.6,0.9V10.4z"/>
		<path fill="#553278" d="M25.2,14.9l2.4-0.9c0.1,0.2,0.1,0.3,0.1,0.4c0,0.1,0.1,0.3,0.2,0.4c0.1,0.2,0.2,0.3,0.3,0.5
			c0.1,0.1,0.2,0.2,0.3,0.3c0.1,0.1,0.3,0.1,0.4,0.1c0.4,0,0.6-0.2,0.6-0.7c0-0.2,0-0.3-0.1-0.5c-0.1-0.2-0.2-0.3-0.2-0.5
			c-0.1-0.1-0.2-0.3-0.4-0.5c-0.2-0.2-0.4-0.4-0.5-0.5S28,13,27.7,12.7l-0.5-0.4c-0.7-0.6-1.2-1.1-1.6-1.7c-0.4-0.6-0.6-1.2-0.6-1.9
			c0-0.5,0.1-1,0.3-1.4c0.2-0.4,0.5-0.8,0.9-1s0.8-0.5,1.2-0.6C28,5.5,28.5,5.5,29,5.5c0.5,0,0.9,0.1,1.3,0.3
			c0.4,0.2,0.8,0.4,1.1,0.8c0.3,0.3,0.6,0.7,0.8,1.1c0.2,0.4,0.4,0.8,0.5,1.3l-2.2,0.8c-0.1-0.2-0.1-0.3-0.2-0.5
			c0-0.1-0.1-0.3-0.2-0.5c-0.1-0.2-0.2-0.4-0.3-0.5c-0.1-0.1-0.2-0.2-0.4-0.3c-0.1-0.1-0.3-0.1-0.5-0.1c-0.2,0-0.4,0.1-0.5,0.2
			c-0.1,0.2-0.2,0.3-0.2,0.5c0,0.3,0.1,0.6,0.5,0.9c0.3,0.3,0.7,0.7,1.2,1.2l0.6,0.5c0.3,0.3,0.6,0.5,0.8,0.8
			c0.2,0.2,0.5,0.5,0.7,0.8c0.2,0.3,0.4,0.6,0.5,1c0.1,0.3,0.2,0.7,0.2,1c0,1-0.3,1.8-1,2.4c-0.7,0.6-1.5,1-2.5,1
			c-0.9,0-1.8-0.3-2.4-0.9C26,16.7,25.5,15.9,25.2,14.9z"/>
		<path fill="#553278" d="M33.8,4.7V1.8H37v2.9H33.8z M33.8,17.8V5.7H37v12.1H33.8z"/>
		<path fill="#553278" d="M40.9,14.7c0,0.1,0.1,0.3,0.3,0.4c0.2,0.1,0.5,0.2,0.8,0.2c0.3,0.1,0.7,0.1,1.1,0.2
			c0.4,0.1,0.8,0.2,1.2,0.3c0.4,0.1,0.8,0.2,1.1,0.4c0.3,0.2,0.6,0.4,0.8,0.6c0.2,0.3,0.3,0.6,0.3,1c0,0.5-0.1,1-0.2,1.3
			s-0.4,0.7-0.6,0.9c-0.2,0.2-0.6,0.4-0.9,0.6c-0.4,0.1-0.7,0.2-1.1,0.3C43.4,21,43,21,42.5,21c-3,0-4.5-0.7-4.5-2.2
			c0-0.4,0.1-0.9,0.4-1.3c0.2-0.4,0.5-0.8,0.9-1c-0.3-0.1-0.5-0.3-0.7-0.5c-0.2-0.2-0.4-0.3-0.4-0.5c0-0.4,0.4-1.1,1.2-2.1
			c-0.6-1.2-0.9-2.3-0.9-3.5c0-0.6,0.1-1.2,0.2-1.7c0.1-0.5,0.4-1,0.6-1.4c0.3-0.4,0.7-0.8,1.2-1c0.5-0.3,1-0.4,1.7-0.4
			c1,0,1.7,0.3,2.2,0.8c0.5-0.5,1.2-0.8,2.3-0.8H47l-0.3,2.2c-0.6,0-1.1,0.1-1.3,0.4c0.3,0.5,0.4,1.2,0.4,2.1c0,0.6-0.1,1.1-0.2,1.6
			c-0.2,0.5-0.4,0.9-0.7,1.3c-0.3,0.4-0.7,0.7-1.2,0.9s-1,0.3-1.6,0.3c-0.1,0-0.3,0-0.4,0c-0.2,0-0.3,0-0.4-0.1l-0.2,0
			C41,14.5,40.9,14.6,40.9,14.7z M41.2,17.1h-0.2c-0.3,0.4-0.4,0.8-0.4,1.2c0,0.4,0.7,0.5,2.1,0.5c0,0,0,0,0.1,0
			c0.7,0,1.1-0.2,1.1-0.6c0-0.1,0-0.3-0.1-0.4c-0.1-0.1-0.2-0.2-0.4-0.3c-0.2-0.1-0.3-0.1-0.5-0.2c-0.2,0-0.3-0.1-0.6-0.1
			c-0.2,0-0.4,0-0.5-0.1C41.5,17.1,41.4,17.1,41.2,17.1z M42.1,12c0.5,0,0.8-0.7,0.8-2.2c0-1.5-0.2-2.2-0.7-2.2
			c-0.1,0-0.2,0-0.3,0.1c-0.1,0.1-0.2,0.2-0.2,0.3c-0.1,0.1-0.1,0.3-0.1,0.4c0,0.1-0.1,0.3-0.1,0.5c0,0.2,0,0.4,0,0.5
			c0,0.1,0,0.3,0,0.5C41.4,11.3,41.7,12,42.1,12z"/>
		<path fill="#553278" d="M47.7,17.8V1.2h3.1v5.5c0.3-0.3,0.7-0.6,1.1-0.8c0.4-0.2,0.8-0.3,1.3-0.3c0.4,0,0.8,0.1,1.1,0.4
			c0.3,0.3,0.6,0.6,0.8,1s0.2,0.8,0.2,1.2v9.8h-3.1V8.9c0,0,0-0.1,0-0.2c0-0.1,0-0.2,0-0.2c0-0.1,0-0.1,0-0.2c0-0.1,0-0.1,0-0.2
			c0,0,0-0.1-0.1-0.2S52,7.9,51.9,7.9c-0.1,0-0.1,0-0.2,0c-0.1,0-0.3,0-0.4,0.1c-0.1,0.1-0.2,0.2-0.3,0.3s-0.1,0.2-0.3,0.3v9.3H47.7
			z"/>
		<path fill="#553278" d="M57.2,13.7V7.8h-0.9V5.7h0.9v-4h3.1v4h1.5v2.1h-1.5v6.6c0,0.3,0.1,0.6,0.2,0.7c0.1,0.2,0.3,0.2,0.7,0.2
			c0.4,0,0.7,0,0.9-0.1v2.4c-0.4,0.1-1.1,0.2-2,0.2c-0.4,0-0.7,0-1-0.1c-0.3-0.1-0.5-0.2-0.7-0.3c-0.2-0.1-0.4-0.3-0.5-0.6
			c-0.1-0.2-0.3-0.5-0.3-0.7c-0.1-0.2-0.1-0.5-0.2-0.8c0-0.3-0.1-0.6-0.1-0.9C57.2,14.3,57.2,14,57.2,13.7z"/>
		<path fill="#FFFFFF" d="M0.6,34.8v-8.8h3.4V27H1.9v2.8h1.6v0.9H1.9v3.1h2.2v0.9H0.6z"/>
		<path fill="#FFFFFF" d="M6.4,34.9c-0.3,0-0.6-0.2-0.9-0.5c-0.2-0.3-0.4-0.6-0.4-1c0-0.3,0.1-0.6,0.2-0.8c0.1-0.2,0.2-0.4,0.3-0.6
			c0.1-0.1,0.3-0.3,0.6-0.5c0.3-0.2,0.5-0.3,0.6-0.3s0.4-0.2,0.7-0.3c0.1,0,0.1,0,0.1-0.1v-0.4c0-0.3,0-0.6-0.1-0.7
			c-0.1-0.2-0.3-0.3-0.5-0.3c-0.2,0-0.4,0.1-0.5,0.2c-0.1,0.1-0.1,0.4-0.2,0.6c0,0,0,0.1,0,0.2H5.1c0-0.6,0.2-1.1,0.5-1.4
			c0.3-0.4,0.8-0.5,1.4-0.5c0.6,0,1,0.2,1.4,0.5c0.3,0.4,0.5,0.8,0.5,1.4v2.8c0,0.7,0.1,1.2,0.2,1.6H7.8l-0.2-0.9
			c-0.1,0.1-0.1,0.2-0.2,0.3c0,0.1-0.1,0.2-0.2,0.3c-0.1,0.1-0.2,0.2-0.2,0.2c-0.1,0.1-0.2,0.1-0.3,0.1C6.6,34.9,6.5,34.9,6.4,34.9z
			 M7,33.9c0.1,0,0.2,0,0.3-0.1c0.1-0.1,0.1-0.1,0.2-0.2s0.1-0.1,0.2-0.2c0,0,0,0,0,0v-1.7c-0.1,0-0.1,0.1-0.3,0.2
			C7.2,32,7.1,32,7.1,32.1c-0.1,0-0.2,0.1-0.3,0.2s-0.2,0.2-0.2,0.2c-0.1,0.1-0.1,0.2-0.1,0.3c0,0.1-0.1,0.2-0.1,0.3
			C6.4,33.7,6.6,33.9,7,33.9z"/>
		<path fill="#FFFFFF" d="M12.4,36.7c-0.2,0-0.3,0-0.4,0c-0.1,0-0.2,0-0.4,0c-0.2,0-0.3,0-0.4,0c-0.1,0-0.2,0-0.4-0.1
			c-0.1,0-0.3-0.1-0.4-0.1c-0.1,0-0.2-0.1-0.3-0.2c-0.1-0.1-0.2-0.1-0.2-0.2c0-0.1-0.1-0.2-0.1-0.3c0-0.3,0.1-0.6,0.3-0.8
			c0.2-0.2,0.4-0.4,0.7-0.6c-0.2,0-0.3-0.1-0.4-0.2s-0.2-0.2-0.2-0.3c0-0.1,0-0.1,0-0.2c0-0.1,0-0.1,0-0.2c0-0.1,0-0.1,0.1-0.2
			c0-0.1,0.1-0.1,0.1-0.2c0,0,0.1-0.1,0.1-0.2c0-0.1,0.1-0.1,0.1-0.1s0.1-0.1,0.1-0.1s0.1-0.1,0.1-0.1c-0.4-0.5-0.6-1.1-0.6-1.9
			c0-0.4,0.1-0.8,0.2-1.2c0.1-0.3,0.3-0.6,0.6-0.8c0.3-0.2,0.6-0.3,1-0.3c0.2,0,0.4,0,0.6,0.1c0.2,0.1,0.3,0.1,0.4,0.2
			c0.1,0.1,0.2,0.2,0.3,0.4c0.2-0.5,0.6-0.7,1.1-0.7c0,0,0,0,0,0s0,0,0,0s0,0,0,0v1c0,0,0,0-0.1,0c-0.1,0-0.2,0-0.3,0
			c-0.1,0-0.2,0-0.2,0s-0.2,0.1-0.2,0.1c0.1,0.1,0.1,0.3,0.2,0.5s0.1,0.4,0.1,0.6c0,0.4-0.1,0.8-0.2,1.2c-0.1,0.3-0.3,0.6-0.6,0.8
			c-0.3,0.2-0.6,0.3-1,0.3L11.5,33c0,0,0,0,0,0.1c0,0,0,0.1-0.1,0.1c0,0,0,0.1,0,0.1c0,0,0,0.1,0,0.1c0,0.1,0,0.2,0.1,0.2
			s0.2,0.1,0.3,0.1c0.1,0,0.3,0,0.4,0.1c0.1,0,0.3,0,0.4,0c0.2,0,0.3,0,0.3,0c0.2,0,0.4,0.1,0.5,0.1s0.3,0.1,0.4,0.1
			c0.2,0.1,0.3,0.1,0.4,0.2c0.1,0.1,0.2,0.2,0.2,0.4c0.1,0.1,0.1,0.3,0.1,0.5c0,0.2,0,0.4-0.1,0.6c-0.1,0.2-0.2,0.3-0.3,0.4
			s-0.3,0.2-0.5,0.3c-0.2,0.1-0.4,0.1-0.6,0.2C12.9,36.7,12.7,36.7,12.4,36.7z M12.4,35.8c0.1,0,0.2,0,0.2,0c0.1,0,0.2,0,0.2,0
			s0.2,0,0.2,0c0.1,0,0.1,0,0.2-0.1c0.1,0,0.1-0.1,0.1-0.1s0-0.1,0-0.2c0-0.3-0.3-0.6-1-0.6l-1-0.1c-0.1,0.1-0.2,0.2-0.3,0.4
			c-0.1,0.2-0.1,0.4-0.1,0.5c0,0.1,0,0.1,0.1,0.1c0,0,0.1,0.1,0.2,0.1s0.1,0,0.2,0c0.1,0,0.2,0,0.3,0c0.1,0,0.2,0,0.3,0s0.2,0,0.3,0
			C12.3,35.8,12.4,35.8,12.4,35.8z M12.1,32.1c0.5,0,0.8-0.4,0.8-1.3c0-0.2,0-0.3,0-0.5s-0.1-0.3-0.1-0.4c-0.1-0.1-0.1-0.3-0.2-0.3
			s-0.2-0.1-0.4-0.1c-0.2,0-0.3,0-0.4,0.1s-0.2,0.2-0.2,0.3c-0.1,0.1-0.1,0.3-0.1,0.4s0,0.3,0,0.5C11.3,31.7,11.6,32.1,12.1,32.1z"
			/>
		<path fill="#FFFFFF" d="M15.5,34.8v-8.8h1.2v8.8H15.5z"/>
		<path fill="#FFFFFF" d="M20.1,34.9c-0.3,0-0.6-0.1-0.8-0.2c-0.2-0.1-0.4-0.2-0.5-0.4c-0.1-0.2-0.2-0.4-0.3-0.6
			c-0.1-0.3-0.1-0.5-0.2-0.8c0-0.3,0-0.6-0.1-0.9c0-0.3,0-0.5,0-0.8c0-0.3,0-0.6,0.1-0.9c0-0.3,0.1-0.5,0.2-0.7
			c0.1-0.2,0.2-0.4,0.3-0.6c0.1-0.2,0.3-0.3,0.5-0.4s0.5-0.1,0.8-0.1c0.3,0,0.5,0,0.7,0.1c0.2,0.1,0.4,0.2,0.5,0.3s0.2,0.3,0.3,0.5
			c0.1,0.2,0.2,0.4,0.2,0.6c0,0.2,0.1,0.5,0.1,0.7c0,0.2,0,0.5,0,0.8v0.1h-2.5V32c0,0,0,0.1,0,0.2c0,0.1,0,0.2,0,0.4
			c0,0.1,0,0.3,0,0.4c0,0.1,0,0.2,0.1,0.4s0.1,0.2,0.1,0.3c0,0.1,0.1,0.2,0.2,0.2s0.2,0.1,0.3,0.1c0.1,0,0.2,0,0.3-0.1
			c0.1-0.1,0.1-0.1,0.2-0.2c0-0.1,0.1-0.2,0.1-0.3c0-0.1,0-0.2,0-0.4v-0.3H22v0.2c0,0.7-0.2,1.2-0.5,1.5S20.7,34.9,20.1,34.9z
			 M19.5,31.1h1.2v-0.4c0-0.2,0-0.3,0-0.4c0-0.1,0-0.2-0.1-0.4c0-0.1-0.1-0.2-0.2-0.3c-0.1-0.1-0.2-0.1-0.3-0.1
			c-0.1,0-0.2,0-0.3,0.1s-0.1,0.2-0.2,0.3c0,0.1-0.1,0.3-0.1,0.4c0,0.1,0,0.3,0,0.4V31.1z"/>
		<path fill="#FFFFFF" d="M25,34.9c-0.5,0-0.9-0.2-1.2-0.5c-0.3-0.3-0.5-0.7-0.6-1.2l0.9-0.3c0.2,0.6,0.5,0.9,0.9,0.9
			c0.2,0,0.4-0.1,0.5-0.2c0.1-0.1,0.2-0.3,0.2-0.5c0-0.3-0.1-0.5-0.3-0.7l-1.2-0.9c-0.1-0.1-0.3-0.2-0.4-0.3s-0.2-0.2-0.3-0.3
			c-0.1-0.1-0.2-0.3-0.2-0.4c-0.1-0.1-0.1-0.3-0.1-0.5c0-0.5,0.2-0.9,0.5-1.2s0.8-0.4,1.4-0.4c0.3,0,0.5,0,0.7,0.1
			c0.2,0.1,0.4,0.2,0.5,0.4s0.3,0.3,0.4,0.5s0.2,0.4,0.2,0.6L26,30.5c0-0.1-0.1-0.2-0.1-0.3c0-0.1-0.1-0.2-0.2-0.3
			c-0.1-0.1-0.2-0.2-0.3-0.2c-0.1-0.1-0.2-0.1-0.3-0.1c-0.2,0-0.4,0.1-0.5,0.2c-0.1,0.1-0.2,0.3-0.2,0.5c0,0.2,0.1,0.4,0.3,0.5
			l1.2,0.9c0.1,0.1,0.3,0.2,0.4,0.3s0.2,0.2,0.3,0.4c0.1,0.1,0.2,0.3,0.2,0.5s0.1,0.3,0.1,0.5c0,0.5-0.2,0.9-0.5,1.2
			S25.6,34.9,25,34.9z"/>
		<path fill="#FFFFFF" d="M33.2,34.9c-0.3,0-0.5-0.1-0.7-0.2c-0.2-0.1-0.4-0.3-0.6-0.5v0.6h-1.2v-8.7h1.2v3.1
			c0.1-0.1,0.2-0.2,0.3-0.3c0.1-0.1,0.1-0.1,0.3-0.2c0.1-0.1,0.2-0.1,0.3-0.2s0.3-0.1,0.4-0.1c0.2,0,0.4,0,0.6,0.1
			c0.2,0.1,0.3,0.2,0.4,0.3s0.2,0.3,0.3,0.5c0.1,0.2,0.1,0.4,0.2,0.5c0,0.2,0.1,0.4,0.1,0.7c0,0.3,0,0.5,0,0.7s0,0.4,0,0.7V32
			c0,0.3,0,0.5,0,0.8s-0.1,0.5-0.2,0.8s-0.2,0.5-0.3,0.7c-0.1,0.2-0.3,0.3-0.4,0.5S33.4,34.9,33.2,34.9z M32.9,33.9
			c0.1,0,0.2,0,0.3-0.1s0.2-0.2,0.2-0.4s0.1-0.4,0.1-0.5c0-0.2,0-0.4,0-0.6c0-0.2,0-0.4,0-0.7c0-0.3,0-0.5,0-0.7s0-0.3,0-0.4
			c0-0.1,0-0.2,0-0.3c0-0.1-0.1-0.2-0.1-0.3s-0.1-0.1-0.2-0.2c-0.1-0.1-0.2-0.1-0.3-0.1c-0.3,0-0.7,0.1-0.9,0.2v3.9
			C32.3,33.8,32.6,33.9,32.9,33.9z"/>
		<path fill="#FFFFFF" d="M39.5,34.4c-0.3,0.4-0.8,0.6-1.4,0.6s-1.2-0.2-1.4-0.6s-0.4-1-0.4-1.7v-1.9c0-0.7,0.1-1.3,0.4-1.7
			s0.8-0.6,1.4-0.6s1.2,0.2,1.4,0.6s0.4,1,0.4,1.7v1.9C39.9,33.4,39.8,34,39.5,34.4z M37.8,33.9c0.1,0,0.1,0,0.2,0s0.2,0,0.2,0
			c0.1,0,0.1-0.1,0.2-0.1c0,0,0.1-0.1,0.1-0.2s0.1-0.1,0.1-0.2c0-0.1,0-0.1,0-0.2c0-0.1,0-0.2,0-0.2c0-0.1,0-0.2,0-0.3v-1.9
			c0-0.1,0-0.2,0-0.3c0-0.1,0-0.1,0-0.2c0-0.1,0-0.2,0-0.2c0-0.1,0-0.1-0.1-0.2s-0.1-0.1-0.1-0.2c0,0-0.1-0.1-0.2-0.1
			c-0.1,0-0.1,0-0.2,0s-0.2,0-0.2,0c-0.1,0-0.1,0.1-0.2,0.1c0,0-0.1,0.1-0.1,0.2S37.5,30,37.5,30c0,0.1,0,0.1,0,0.2
			c0,0.1,0,0.2,0,0.2c0,0.1,0,0.2,0,0.3v1.9c0,0.1,0,0.2,0,0.3c0,0.1,0,0.1,0,0.2c0,0.1,0,0.2,0,0.2c0,0.1,0,0.1,0.1,0.2
			s0.1,0.1,0.1,0.2C37.7,33.8,37.7,33.8,37.8,33.9z"/>
		<path fill="#FFFFFF" d="M42.5,34.9c-0.3,0-0.6-0.2-0.9-0.5c-0.2-0.3-0.4-0.6-0.4-1c0-0.3,0.1-0.6,0.2-0.8c0.1-0.2,0.2-0.4,0.3-0.6
			c0.1-0.1,0.3-0.3,0.6-0.5c0.3-0.2,0.5-0.3,0.6-0.3s0.4-0.2,0.7-0.3c0.1,0,0.1,0,0.1-0.1v-0.4c0-0.3,0-0.6-0.1-0.7
			c-0.1-0.2-0.3-0.3-0.5-0.3c-0.2,0-0.4,0.1-0.5,0.2c-0.1,0.1-0.1,0.4-0.2,0.6c0,0,0,0.1,0,0.2h-1.2c0-0.6,0.2-1.1,0.5-1.4
			c0.3-0.4,0.8-0.5,1.4-0.5c0.6,0,1,0.2,1.4,0.5c0.3,0.4,0.5,0.8,0.5,1.4v2.8c0,0.7,0.1,1.2,0.2,1.6h-1.2l-0.2-0.9
			c-0.1,0.1-0.1,0.2-0.2,0.3c0,0.1-0.1,0.2-0.2,0.3c-0.1,0.1-0.2,0.2-0.2,0.2c-0.1,0.1-0.2,0.1-0.3,0.1
			C42.8,34.9,42.7,34.9,42.5,34.9z M43.1,33.9c0.1,0,0.2,0,0.3-0.1c0.1-0.1,0.1-0.1,0.2-0.2c0,0,0.1-0.1,0.2-0.2c0,0,0,0,0,0v-1.7
			c-0.1,0-0.1,0.1-0.3,0.2c-0.1,0.1-0.2,0.1-0.3,0.2c-0.1,0-0.2,0.1-0.3,0.2s-0.2,0.2-0.2,0.2c-0.1,0.1-0.1,0.2-0.1,0.3
			c0,0.1-0.1,0.2-0.1,0.3C42.5,33.7,42.7,33.9,43.1,33.9z"/>
		<path fill="#FFFFFF" d="M48.2,34.9c-0.5,0-0.9-0.2-1.2-0.5c-0.3-0.3-0.5-0.7-0.6-1.2l0.9-0.3c0.2,0.6,0.5,0.9,0.9,0.9
			c0.2,0,0.4-0.1,0.5-0.2c0.1-0.1,0.2-0.3,0.2-0.5c0-0.3-0.1-0.5-0.3-0.7l-1.2-0.9c-0.1-0.1-0.3-0.2-0.4-0.3
			c-0.1-0.1-0.2-0.2-0.3-0.3c-0.1-0.1-0.2-0.3-0.2-0.4c0-0.1-0.1-0.3-0.1-0.5c0-0.5,0.2-0.9,0.5-1.2c0.3-0.3,0.8-0.4,1.4-0.4
			c0.3,0,0.5,0,0.7,0.1c0.2,0.1,0.4,0.2,0.5,0.4c0.1,0.2,0.3,0.3,0.4,0.5c0.1,0.2,0.2,0.4,0.2,0.6l-0.9,0.3c0-0.1-0.1-0.2-0.1-0.3
			c0-0.1-0.1-0.2-0.2-0.3c-0.1-0.1-0.2-0.2-0.3-0.2c-0.1-0.1-0.2-0.1-0.3-0.1c-0.2,0-0.4,0.1-0.5,0.2c-0.1,0.1-0.2,0.3-0.2,0.5
			c0,0.2,0.1,0.4,0.3,0.5l1.2,0.9c0.1,0.1,0.3,0.2,0.4,0.3c0.1,0.1,0.2,0.2,0.3,0.4c0.1,0.1,0.2,0.3,0.2,0.5s0.1,0.3,0.1,0.5
			c0,0.5-0.2,0.9-0.5,1.2C49.3,34.8,48.8,34.9,48.2,34.9z"/>
		<path fill="#FFFFFF" d="M53.1,34.9c-0.5,0-0.8-0.1-1.1-0.4c-0.2-0.2-0.3-0.6-0.3-1.1v-3.9h-0.6v-0.9h0.6v-2.2h1.2v2.2h0.9v0.9
			h-0.9v3.6c0,0.3,0,0.4,0.1,0.6s0.2,0.2,0.4,0.2c0.1,0,0.2,0,0.4,0v1C53.6,34.9,53.3,34.9,53.1,34.9z"/>
		<path fill="#FFFFFF" d="M58.8,34.8l-1.4-6.2h1.2l0.9,4.7l0.8-4.7h1.2L60,34.8H58.8z"/>
		<path fill="#FFFFFF" d="M62.6,27.7v-1.2h1.2v1.2H62.6z M62.6,34.8v-6.2h1.2v6.2H62.6z"/>
		<path fill="#FFFFFF" d="M67.2,34.9c-0.5,0-0.9-0.2-1.2-0.5c-0.3-0.3-0.5-0.7-0.6-1.2l0.9-0.3c0.2,0.6,0.5,0.9,0.9,0.9
			c0.2,0,0.4-0.1,0.5-0.2c0.1-0.1,0.2-0.3,0.2-0.5c0-0.3-0.1-0.5-0.3-0.7l-1.2-0.9c-0.1-0.1-0.3-0.2-0.4-0.3
			c-0.1-0.1-0.2-0.2-0.3-0.3c-0.1-0.1-0.2-0.3-0.2-0.4c0-0.1-0.1-0.3-0.1-0.5c0-0.5,0.2-0.9,0.5-1.2c0.3-0.3,0.8-0.4,1.4-0.4
			c0.3,0,0.5,0,0.7,0.1c0.2,0.1,0.4,0.2,0.5,0.4c0.1,0.2,0.3,0.3,0.4,0.5c0.1,0.2,0.2,0.4,0.2,0.6l-0.9,0.3c0-0.1-0.1-0.2-0.1-0.3
			c0-0.1-0.1-0.2-0.2-0.3c-0.1-0.1-0.2-0.2-0.3-0.2c-0.1-0.1-0.2-0.1-0.3-0.1c-0.2,0-0.4,0.1-0.5,0.2c-0.1,0.1-0.2,0.3-0.2,0.5
			c0,0.2,0.1,0.4,0.3,0.5l1.2,0.9c0.1,0.1,0.3,0.2,0.4,0.3c0.1,0.1,0.2,0.2,0.3,0.4c0.1,0.1,0.2,0.3,0.2,0.5s0.1,0.3,0.1,0.5
			c0,0.5-0.2,0.9-0.5,1.2C68.2,34.8,67.8,34.9,67.2,34.9z"/>
		<path fill="#FFFFFF" d="M70.4,27.7v-1.2h1.2v1.2H70.4z M70.4,34.8v-6.2h1.2v6.2H70.4z"/>
		<path fill="#FFFFFF" d="M76.6,34.4c-0.3,0.4-0.8,0.6-1.4,0.6c-0.7,0-1.2-0.2-1.4-0.6c-0.3-0.4-0.4-1-0.4-1.7v-1.9
			c0-0.7,0.1-1.3,0.4-1.7c0.3-0.4,0.8-0.6,1.4-0.6c0.7,0,1.2,0.2,1.4,0.6c0.3,0.4,0.4,1,0.4,1.7v1.9C77,33.4,76.8,34,76.6,34.4z
			 M74.9,33.9c0.1,0,0.1,0,0.2,0s0.2,0,0.2,0c0.1,0,0.1-0.1,0.2-0.1c0,0,0.1-0.1,0.1-0.2s0.1-0.1,0.1-0.2c0-0.1,0-0.1,0-0.2
			c0-0.1,0-0.2,0-0.2c0-0.1,0-0.2,0-0.3v-1.9c0-0.1,0-0.2,0-0.3c0-0.1,0-0.1,0-0.2c0-0.1,0-0.2,0-0.2c0-0.1,0-0.1-0.1-0.2
			s-0.1-0.1-0.1-0.2c0,0-0.1-0.1-0.2-0.1c-0.1,0-0.1,0-0.2,0s-0.2,0-0.2,0c-0.1,0-0.1,0.1-0.2,0.1c0,0-0.1,0.1-0.1,0.2
			S74.6,30,74.5,30c0,0.1,0,0.1,0,0.2c0,0.1,0,0.2,0,0.2c0,0.1,0,0.2,0,0.3v1.9c0,0.1,0,0.2,0,0.3c0,0.1,0,0.1,0,0.2
			c0,0.1,0,0.2,0,0.2c0,0.1,0,0.1,0.1,0.2s0.1,0.1,0.1,0.2C74.8,33.8,74.8,33.8,74.9,33.9z"/>
		<path fill="#FFFFFF" d="M78.5,34.8v-6.2h1.2v0.7c0.2-0.2,0.3-0.3,0.5-0.4c0.1-0.1,0.3-0.2,0.5-0.3c0.2-0.1,0.4-0.1,0.7-0.1
			c0.3,0,0.5,0.1,0.6,0.3s0.2,0.4,0.2,0.7v5.3H81v-4.7c0-0.2,0-0.4-0.1-0.5c-0.1-0.1-0.2-0.1-0.4-0.1c-0.1,0-0.2,0-0.3,0.1
			c-0.1,0-0.2,0.1-0.2,0.1c-0.1,0-0.1,0.1-0.2,0.2v4.9H78.5z"/>
		<path fill="#F9C53D" d="M6.8,62.1c-2.1,0-3.6-0.6-4.5-1.8c-0.9-1.2-1.4-2.9-1.4-5.2c0-1.5,0.2-2.6,0.6-3.5c0.4-0.9,1.1-1.6,2-2.2
			c-0.8-0.6-1.3-1.3-1.7-2.1s-0.5-1.9-0.5-3.1c0-2,0.5-3.5,1.4-4.5S4.9,38,6.8,38c1.8,0,3.2,0.5,4.2,1.6c0.9,1.1,1.4,2.6,1.4,4.5
			c0,1.3-0.2,2.3-0.5,3.1c-0.4,0.8-0.9,1.5-1.7,2.1c0.9,0.6,1.5,1.3,1.9,2.2s0.6,2.1,0.6,3.5c0,2.2-0.5,4-1.4,5.2
			C10.3,61.5,8.8,62.1,6.8,62.1z M5.6,59.1c0.3,0.2,0.7,0.2,1.1,0.2s0.8-0.1,1.1-0.2s0.6-0.4,0.7-0.6s0.3-0.6,0.4-0.9
			c0.1-0.4,0.2-0.8,0.2-1.1s0-0.8,0-1.3c0-0.6,0-1.1-0.1-1.5c-0.1-0.4-0.2-0.9-0.4-1.3S8.4,51.6,8,51.4s-0.8-0.3-1.3-0.3
			s-0.9,0.1-1.3,0.3c-0.3,0.2-0.6,0.5-0.8,0.9c-0.2,0.4-0.3,0.8-0.4,1.3c-0.1,0.4-0.1,1-0.1,1.5c0,0.5,0,0.9,0,1.3
			c0,0.4,0.1,0.7,0.2,1.1c0.1,0.4,0.2,0.7,0.4,0.9C5.1,58.7,5.3,58.9,5.6,59.1z M6.8,47.8c0.4,0,0.8-0.1,1.1-0.3
			c0.3-0.2,0.5-0.5,0.7-0.9c0.1-0.4,0.2-0.8,0.3-1.2s0.1-0.8,0.1-1.4c0-2.2-0.7-3.4-2.1-3.4c-1.4,0-2.1,1.1-2.1,3.4
			c0,0.5,0,1,0.1,1.4c0.1,0.4,0.1,0.8,0.3,1.2s0.4,0.7,0.7,0.9C5.9,47.7,6.3,47.8,6.8,47.8z"/>
		<path fill="#F9C53D" d="M23.2,61.8V41.2H19v-3h11.8v3h-4.2v20.6H23.2z"/>
		<path fill="#F9C53D" d="M32.6,61.8V38.2H36v23.6H32.6z"/>
		<path fill="#F9C53D" d="M39.6,61.8V38.2h4.7l3.3,18.1L51,38.2h4.7v23.6h-3.4V43.2l-3.4,18.6h-2.5L43,43.2v18.6H39.6z"/>
		<path fill="#F9C53D" d="M59,61.8V38.2h9.3v2.5h-5.9v7.6h4.2v2.5h-4.2v8.4h5.9v2.5H59z"/>
		<path fill="#F9C53D" d="M76.5,62.1c-2.1,0-3.8-0.6-4.9-1.9c-1.1-1.2-1.7-3-1.9-5.1l3.4-0.8c0.2,3.4,1.3,5.1,3.4,5.1
			c1.7,0,2.5-0.8,2.5-2.5c0-0.5-0.1-1-0.2-1.4c-0.1-0.4-0.3-0.8-0.6-1.2c-0.3-0.4-0.5-0.6-0.8-0.9c-0.2-0.2-0.5-0.5-0.9-0.8
			l-4.2-3.4c-0.8-0.6-1.4-1.4-1.9-2.3c-0.5-0.9-0.7-2-0.7-3.2c0-1.7,0.5-3.1,1.6-4.2s2.5-1.5,4.3-1.5c1.9,0,3.4,0.5,4.6,1.4
			c1.1,0.9,1.8,2.3,2.1,4c0,0.2,0.1,0.4,0.1,0.8L79,45c0-0.1,0-0.4-0.1-0.7c-0.1-1.1-0.5-1.9-1-2.6c-0.5-0.6-1.3-1-2.3-1
			c-0.8,0-1.4,0.2-1.9,0.7c-0.4,0.5-0.7,1.1-0.7,1.9c0,1.3,0.6,2.4,1.7,3.3L79,50c2.2,1.8,3.4,4,3.4,6.5c0,1.7-0.5,3.1-1.6,4.1
			C79.8,61.6,78.3,62.1,76.5,62.1z"/>
		<path fill="#FFFFFF" d="M2.2,73.9c-0.5,0-0.9-0.2-1.2-0.5c-0.3-0.3-0.5-0.7-0.6-1.2L1.3,72c0.2,0.6,0.5,0.9,0.9,0.9
			c0.2,0,0.4-0.1,0.5-0.2c0.1-0.1,0.2-0.3,0.2-0.5c0-0.3-0.1-0.5-0.3-0.7l-1.2-0.9c-0.1-0.1-0.3-0.2-0.4-0.3s-0.2-0.2-0.3-0.3
			c-0.1-0.1-0.2-0.3-0.2-0.4c-0.1-0.1-0.1-0.3-0.1-0.5c0-0.5,0.2-0.9,0.5-1.2s0.8-0.4,1.4-0.4c0.3,0,0.5,0,0.7,0.1
			c0.2,0.1,0.4,0.2,0.5,0.4s0.3,0.3,0.4,0.5s0.2,0.4,0.2,0.6l-0.9,0.3c0-0.1-0.1-0.2-0.1-0.3c0-0.1-0.1-0.2-0.2-0.3
			c-0.1-0.1-0.2-0.2-0.3-0.2c-0.1-0.1-0.2-0.1-0.3-0.1c-0.2,0-0.4,0.1-0.5,0.2c-0.1,0.1-0.2,0.3-0.2,0.5c0,0.2,0.1,0.4,0.3,0.5
			l1.2,0.9c0.1,0.1,0.3,0.2,0.4,0.3s0.2,0.2,0.3,0.4C3.9,71.4,4,71.6,4,71.8s0.1,0.3,0.1,0.5c0,0.5-0.2,0.9-0.5,1.2
			S2.8,73.9,2.2,73.9z"/>
		<path fill="#FFFFFF" d="M4.7,73.8v-8.8H6v3.2c0.2-0.2,0.3-0.3,0.5-0.4c0.1-0.1,0.3-0.2,0.5-0.3c0.2-0.1,0.4-0.1,0.7-0.1
			c0.3,0,0.5,0.1,0.6,0.3s0.2,0.4,0.2,0.7v5.3H7.2v-4.7c0-0.2,0-0.4-0.1-0.5c-0.1-0.1-0.2-0.2-0.3-0.2c-0.3,0-0.5,0.1-0.8,0.4v4.9
			H4.7z"/>
		<path fill="#FFFFFF" d="M10.6,73.9c-0.3,0-0.6-0.2-0.9-0.5c-0.2-0.3-0.4-0.6-0.4-1c0-0.3,0.1-0.6,0.2-0.8c0.1-0.2,0.2-0.4,0.3-0.6
			c0.1-0.1,0.3-0.3,0.6-0.5c0.3-0.2,0.5-0.3,0.6-0.3s0.4-0.2,0.7-0.3c0.1,0,0.1,0,0.1-0.1v-0.4c0-0.3,0-0.6-0.1-0.7
			c-0.1-0.2-0.3-0.3-0.5-0.3c-0.2,0-0.4,0.1-0.5,0.2c-0.1,0.1-0.1,0.4-0.2,0.6c0,0,0,0.1,0,0.2H9.3c0-0.6,0.2-1.1,0.5-1.4
			c0.3-0.4,0.8-0.5,1.4-0.5c0.6,0,1,0.2,1.4,0.5c0.3,0.4,0.5,0.8,0.5,1.4v2.8c0,0.7,0.1,1.2,0.2,1.6H12l-0.2-0.9
			c-0.1,0.1-0.1,0.2-0.2,0.3c0,0.1-0.1,0.2-0.2,0.3c-0.1,0.1-0.2,0.2-0.2,0.2c-0.1,0.1-0.2,0.1-0.3,0.1
			C10.9,73.9,10.7,73.9,10.6,73.9z M11.2,72.9c0.1,0,0.2,0,0.3-0.1c0.1-0.1,0.1-0.1,0.2-0.2s0.1-0.1,0.2-0.2c0,0,0,0,0,0v-1.7
			c-0.1,0-0.1,0.1-0.3,0.2c-0.1,0.1-0.2,0.1-0.3,0.2c-0.1,0-0.2,0.1-0.3,0.2s-0.2,0.2-0.2,0.2c-0.1,0.1-0.1,0.2-0.1,0.3
			c0,0.1-0.1,0.2-0.1,0.3C10.6,72.7,10.8,72.9,11.2,72.9z"/>
		<path fill="#FFFFFF" d="M14.1,73.8v-6.2h1.2v0.8c0.1-0.2,0.3-0.5,0.6-0.6c0.2-0.2,0.5-0.3,0.8-0.3c0,0,0.1,0,0.2,0v1.4
			c-0.2-0.1-0.5-0.1-0.7-0.1c-0.3,0-0.5,0.1-0.6,0.2s-0.2,0.4-0.2,0.6v4.2H14.1z"/>
		<path fill="#FFFFFF" d="M17.3,75.7v-8.1h1.2v0.6c0.1-0.1,0.2-0.2,0.2-0.2s0.1-0.1,0.2-0.2c0.1-0.1,0.2-0.1,0.2-0.2
			c0.1,0,0.2-0.1,0.3-0.1c0.1,0,0.2,0,0.3,0c0.2,0,0.4,0,0.6,0.1c0.2,0.1,0.3,0.2,0.4,0.3s0.2,0.3,0.3,0.5s0.1,0.4,0.2,0.5
			c0,0.2,0.1,0.4,0.1,0.7c0,0.3,0,0.5,0,0.7s0,0.4,0,0.7V71c0,0.3,0,0.5,0,0.8s-0.1,0.5-0.2,0.8c-0.1,0.3-0.2,0.5-0.3,0.7
			c-0.1,0.2-0.3,0.3-0.4,0.5s-0.4,0.2-0.6,0.2c-0.4,0-0.8-0.2-1.2-0.6v2.4H17.3z M19.5,72.9c0.1,0,0.2,0,0.3-0.1s0.2-0.2,0.2-0.4
			s0.1-0.4,0.1-0.5c0-0.2,0-0.4,0-0.6l0-0.8c0-0.1,0-0.3,0-0.4c0-0.1,0-0.2,0-0.4c0-0.1,0-0.3,0-0.4c0-0.1,0-0.2-0.1-0.3
			c0-0.1-0.1-0.2-0.1-0.3c-0.1-0.1-0.1-0.1-0.2-0.2c-0.1,0-0.2-0.1-0.3-0.1c0,0-0.1,0-0.1,0c0,0-0.1,0-0.1,0s-0.1,0-0.1,0
			c0,0-0.1,0-0.1,0.1c0,0-0.1,0-0.1,0.1c0,0-0.1,0-0.1,0.1c-0.1,0-0.1,0.1-0.1,0.1v3.9C18.9,72.8,19.2,72.9,19.5,72.9z"/>
		<path fill="#FFFFFF" d="M24.1,73.9c-0.3,0-0.6-0.1-0.8-0.2c-0.2-0.1-0.4-0.2-0.5-0.4c-0.1-0.2-0.2-0.4-0.3-0.6
			c-0.1-0.3-0.1-0.5-0.2-0.8c0-0.3,0-0.6-0.1-0.9c0-0.3,0-0.5,0-0.8c0-0.3,0-0.6,0.1-0.9c0-0.3,0.1-0.5,0.2-0.7
			c0.1-0.2,0.2-0.4,0.3-0.6c0.1-0.2,0.3-0.3,0.5-0.4s0.5-0.1,0.8-0.1c0.3,0,0.5,0,0.7,0.1c0.2,0.1,0.4,0.2,0.5,0.3s0.2,0.3,0.3,0.5
			c0.1,0.2,0.2,0.4,0.2,0.6c0,0.2,0.1,0.5,0.1,0.7c0,0.2,0,0.5,0,0.8v0.1h-2.5V71c0,0,0,0.1,0,0.2c0,0.1,0,0.2,0,0.4
			c0,0.1,0,0.3,0,0.4c0,0.1,0,0.2,0.1,0.4s0.1,0.2,0.1,0.3c0,0.1,0.1,0.2,0.2,0.2s0.2,0.1,0.3,0.1c0.1,0,0.2,0,0.3-0.1
			c0.1-0.1,0.1-0.1,0.2-0.2c0-0.1,0.1-0.2,0.1-0.3c0-0.1,0-0.2,0-0.4v-0.3H26v0.2c0,0.7-0.2,1.2-0.5,1.5S24.7,73.9,24.1,73.9z
			 M23.5,70.1h1.2v-0.4c0-0.2,0-0.3,0-0.4c0-0.1,0-0.2-0.1-0.4c0-0.1-0.1-0.2-0.2-0.3c-0.1-0.1-0.2-0.1-0.3-0.1
			c-0.1,0-0.2,0-0.3,0.1s-0.1,0.2-0.2,0.3c0,0.1-0.1,0.3-0.1,0.4c0,0.1,0,0.3,0,0.4V70.1z"/>
		<path fill="#FFFFFF" d="M26.8,73.8v-6.2H28v0.8c0.1-0.2,0.3-0.5,0.6-0.6c0.2-0.2,0.5-0.3,0.8-0.3c0,0,0.1,0,0.2,0v1.4
			c-0.2-0.1-0.5-0.1-0.7-0.1c-0.3,0-0.5,0.1-0.6,0.2S28,69.4,28,69.6v4.2H26.8z"/>
		<path fill="#FFFFFF" d="M33.7,73.9c-0.5,0-0.8-0.1-1.1-0.4c-0.2-0.2-0.3-0.6-0.3-1.1v-3.9h-0.6v-0.9h0.6v-2.2h1.2v2.2h0.9v0.9
			h-0.9v3.6c0,0.3,0,0.4,0.1,0.6s0.2,0.2,0.4,0.2c0.1,0,0.2,0,0.4,0v1C34.2,73.9,33.9,73.9,33.7,73.9z"/>
		<path fill="#FFFFFF" d="M35.3,73.8v-8.8h1.2v3.2c0.2-0.2,0.3-0.3,0.5-0.4c0.1-0.1,0.3-0.2,0.5-0.3c0.2-0.1,0.4-0.1,0.7-0.1
			c0.3,0,0.5,0.1,0.6,0.3s0.2,0.4,0.2,0.7v5.3h-1.2v-4.7c0-0.2,0-0.4-0.1-0.5c-0.1-0.1-0.2-0.2-0.3-0.2c-0.3,0-0.5,0.1-0.8,0.4v4.9
			H35.3z"/>
		<path fill="#FFFFFF" d="M41.1,73.9c-0.3,0-0.6-0.2-0.9-0.5c-0.2-0.3-0.4-0.6-0.4-1c0-0.3,0.1-0.6,0.2-0.8c0.1-0.2,0.2-0.4,0.3-0.6
			c0.1-0.1,0.3-0.3,0.6-0.5c0.3-0.2,0.5-0.3,0.6-0.3s0.4-0.2,0.7-0.3c0.1,0,0.1,0,0.1-0.1v-0.4c0-0.3,0-0.6-0.1-0.7
			c-0.1-0.2-0.3-0.3-0.5-0.3c-0.2,0-0.4,0.1-0.5,0.2c-0.1,0.1-0.1,0.4-0.2,0.6c0,0,0,0.1,0,0.2h-1.2c0-0.6,0.2-1.1,0.5-1.4
			c0.3-0.4,0.8-0.5,1.4-0.5c0.6,0,1,0.2,1.4,0.5c0.3,0.4,0.5,0.8,0.5,1.4v2.8c0,0.7,0.1,1.2,0.2,1.6h-1.2l-0.2-0.9
			c-0.1,0.1-0.1,0.2-0.2,0.3c0,0.1-0.1,0.2-0.2,0.3c-0.1,0.1-0.2,0.2-0.2,0.2c-0.1,0.1-0.2,0.1-0.3,0.1
			C41.4,73.9,41.3,73.9,41.1,73.9z M41.8,72.9c0.1,0,0.2,0,0.3-0.1c0.1-0.1,0.1-0.1,0.2-0.2s0.1-0.1,0.2-0.2c0,0,0,0,0,0v-1.7
			c-0.1,0-0.1,0.1-0.3,0.2C42,71,41.9,71,41.9,71.1c-0.1,0-0.2,0.1-0.3,0.2s-0.2,0.2-0.2,0.2c-0.1,0.1-0.1,0.2-0.1,0.3
			c0,0.1-0.1,0.2-0.1,0.3C41.1,72.7,41.4,72.9,41.8,72.9z"/>
		<path fill="#FFFFFF" d="M44.6,73.8v-6.2h1.2v0.7c0.2-0.2,0.3-0.3,0.5-0.4c0.1-0.1,0.3-0.2,0.5-0.3c0.2-0.1,0.4-0.1,0.7-0.1
			c0.3,0,0.5,0.1,0.6,0.3s0.2,0.4,0.2,0.7v5.3h-1.2v-4.7c0-0.2,0-0.4-0.1-0.5c-0.1-0.1-0.2-0.1-0.4-0.1c-0.1,0-0.2,0-0.3,0.1
			c-0.1,0-0.2,0.1-0.2,0.1c-0.1,0-0.1,0.1-0.2,0.2v4.9H44.6z"/>
		<path fill="#FFFFFF" d="M51.3,73.8v-8.8h1.2v3.2c0.2-0.2,0.3-0.3,0.5-0.4c0.1-0.1,0.3-0.2,0.5-0.3c0.2-0.1,0.4-0.1,0.7-0.1
			c0.3,0,0.5,0.1,0.6,0.3s0.2,0.4,0.2,0.7v5.3h-1.2v-4.7c0-0.2,0-0.4-0.1-0.5c-0.1-0.1-0.2-0.2-0.3-0.2c-0.3,0-0.5,0.1-0.8,0.4v4.9
			H51.3z"/>
		<path fill="#FFFFFF" d="M56.9,73.9c-0.3,0-0.5-0.1-0.7-0.3c-0.2-0.2-0.2-0.4-0.2-0.7v-5.3h1.2v4.9c0,0.1,0,0.2,0.1,0.3
			c0.1,0.1,0.2,0.1,0.3,0.1c0.1,0,0.1,0,0.2,0c0.1,0,0.1,0,0.2-0.1c0.1,0,0.1-0.1,0.1-0.1c0,0,0.1-0.1,0.2-0.1
			c0.1-0.1,0.1-0.1,0.1-0.1v-4.9h1.2v6.2h-1.2v-0.7c-0.1,0.1-0.2,0.2-0.3,0.2c-0.1,0-0.1,0.1-0.3,0.2s-0.2,0.1-0.3,0.2
			c-0.1,0-0.2,0.1-0.3,0.1C57.2,73.9,57.1,73.9,56.9,73.9z"/>
		<path fill="#FFFFFF" d="M60.8,73.8v-6.2H62v0.7c0.4-0.5,1-0.8,1.6-0.8c0.3,0,0.5,0.1,0.7,0.2c0.1,0.1,0.2,0.3,0.3,0.6
			c0.2-0.3,0.4-0.5,0.7-0.6c0.2-0.1,0.5-0.2,0.9-0.2c0.1,0,0.2,0,0.3,0c0.1,0,0.2,0,0.2,0.1c0.1,0,0.1,0.1,0.2,0.1
			c0,0.1,0.1,0.1,0.1,0.2c0,0,0.1,0.1,0.1,0.2c0,0.1,0,0.2,0,0.2c0,0.1,0,0.2,0,0.3c0,0.1,0,0.2,0,0.3s0,0.2,0,0.3c0,0,0,0.1,0,0.1
			v4.5h-1.2v-4.6c0,0,0,0,0-0.1c0-0.1,0-0.2,0-0.2c0-0.1,0-0.1,0-0.2c0-0.1,0-0.1-0.1-0.2c0,0-0.1-0.1-0.2-0.1c-0.1,0-0.3,0-0.4,0.1
			c-0.1,0-0.2,0.1-0.3,0.1c-0.1,0-0.2,0.1-0.3,0.2v4.9h-1.2v-4.5c0,0,0,0,0-0.1c0-0.1,0-0.2,0-0.2c0,0,0-0.1,0-0.2
			c0-0.1,0-0.1,0-0.2c0,0-0.1-0.1-0.1-0.1c0,0-0.1,0-0.2,0c-0.3,0-0.6,0.1-0.9,0.4v4.9H60.8z"/>
		<path fill="#FFFFFF" d="M69.1,73.9c-0.3,0-0.6-0.2-0.9-0.5c-0.2-0.3-0.4-0.6-0.4-1c0-0.3,0.1-0.6,0.2-0.8c0.1-0.2,0.2-0.4,0.3-0.6
			c0.1-0.1,0.3-0.3,0.6-0.5c0.3-0.2,0.5-0.3,0.6-0.3s0.4-0.2,0.7-0.3c0.1,0,0.1,0,0.1-0.1v-0.4c0-0.3,0-0.6-0.1-0.7
			c-0.1-0.2-0.3-0.3-0.5-0.3c-0.2,0-0.4,0.1-0.5,0.2c-0.1,0.1-0.1,0.4-0.2,0.6c0,0,0,0.1,0,0.2h-1.2c0-0.6,0.2-1.1,0.5-1.4
			c0.3-0.4,0.8-0.5,1.4-0.5c0.6,0,1,0.2,1.4,0.5c0.3,0.4,0.5,0.8,0.5,1.4v2.8c0,0.7,0.1,1.2,0.2,1.6h-1.2l-0.2-0.9
			c-0.1,0.1-0.1,0.2-0.2,0.3c0,0.1-0.1,0.2-0.2,0.3c-0.1,0.1-0.2,0.2-0.2,0.2c-0.1,0.1-0.2,0.1-0.3,0.1
			C69.4,73.9,69.2,73.9,69.1,73.9z M69.7,72.9c0.1,0,0.2,0,0.3-0.1c0.1-0.1,0.1-0.1,0.2-0.2c0,0,0.1-0.1,0.2-0.2c0,0,0,0,0,0v-1.7
			c-0.1,0-0.1,0.1-0.3,0.2C70,71,69.9,71,69.8,71.1c-0.1,0-0.2,0.1-0.3,0.2c-0.1,0.1-0.2,0.2-0.2,0.2c-0.1,0.1-0.1,0.2-0.1,0.3
			c0,0.1-0.1,0.2-0.1,0.3C69.1,72.7,69.3,72.9,69.7,72.9z"/>
		<path fill="#FFFFFF" d="M72.6,73.8v-6.2h1.2v0.7c0.2-0.2,0.3-0.3,0.5-0.4c0.1-0.1,0.3-0.2,0.5-0.3c0.2-0.1,0.4-0.1,0.7-0.1
			c0.3,0,0.5,0.1,0.6,0.3s0.2,0.4,0.2,0.7v5.3h-1.2v-4.7c0-0.2,0-0.4-0.1-0.5c-0.1-0.1-0.2-0.1-0.4-0.1c-0.1,0-0.2,0-0.3,0.1
			c-0.1,0-0.2,0.1-0.2,0.1c-0.1,0-0.1,0.1-0.2,0.2v4.9H72.6z"/>
		<path fill="#FFFFFF" d="M79,73.9c-0.5,0-0.9-0.2-1.2-0.5c-0.3-0.3-0.5-0.7-0.6-1.2L78,72c0.2,0.6,0.5,0.9,0.9,0.9
			c0.2,0,0.4-0.1,0.5-0.2c0.1-0.1,0.2-0.3,0.2-0.5c0-0.3-0.1-0.5-0.3-0.7L78,70.6c-0.1-0.1-0.3-0.2-0.4-0.3
			c-0.1-0.1-0.2-0.2-0.3-0.3c-0.1-0.1-0.2-0.3-0.2-0.4c0-0.1-0.1-0.3-0.1-0.5c0-0.5,0.2-0.9,0.5-1.2c0.3-0.3,0.8-0.4,1.4-0.4
			c0.3,0,0.5,0,0.7,0.1c0.2,0.1,0.4,0.2,0.5,0.4c0.1,0.2,0.3,0.3,0.4,0.5c0.1,0.2,0.2,0.4,0.2,0.6l-0.9,0.3c0-0.1-0.1-0.2-0.1-0.3
			c0-0.1-0.1-0.2-0.2-0.3c-0.1-0.1-0.2-0.2-0.3-0.2c-0.1-0.1-0.2-0.1-0.3-0.1c-0.2,0-0.4,0.1-0.5,0.2c-0.1,0.1-0.2,0.3-0.2,0.5
			c0,0.2,0.1,0.4,0.3,0.5l1.2,0.9c0.1,0.1,0.3,0.2,0.4,0.3c0.1,0.1,0.2,0.2,0.3,0.4c0.1,0.1,0.2,0.3,0.2,0.5s0.1,0.3,0.1,0.5
			c0,0.5-0.2,0.9-0.5,1.2C80,73.8,79.5,73.9,79,73.9z"/>
	</g>
</g>
<g id="grasshopper">
</g>
<g id="front">
	<g>
	</g>
	<g>
	</g>
	<g>
	</g>
	<g>
	</g>
	<g>
	</g>
	<g>
	</g>
</g>
</svg>
