<?xml version="1.0" encoding="utf-8"?>
<!-- Generator: Adobe Illustrator 19.1.0, SVG Export Plug-In . SVG Version: 6.00 Build 0)  -->
<svg version="1.1" id="fungi-text" xmlns="http://www.w3.org/2000/svg" xmlns:xlink="http://www.w3.org/1999/xlink" x="0px" y="0px"
	 width="120.6px" height="141.2px" viewBox="0 0 120.6 141.2" enable-background="new 0 0 120.6 141.2" xml:space="preserve">
<g>
	<rect x="19.6" y="10" fill="none" width="96" height="65.1"/>
	<path fill="#F9C53D" d="M21.6,38V10h11v3h-7v9h5v3h-5v13H21.6z"/>
	<path fill="#F9C53D" d="M45.4,37.8c-0.9,0.3-2,0.5-3.2,0.5c-1.2,0-2.3-0.2-3.2-0.5c-0.9-0.3-1.7-0.8-2.3-1.4
		c-0.6-0.6-1.1-1.3-1.5-2.2s-0.6-1.8-0.8-2.8s-0.2-2.2-0.2-3.4V10h4v18c0,0.9,0,1.6,0.1,2.2c0,0.6,0.1,1.2,0.3,1.9
		c0.2,0.7,0.4,1.2,0.6,1.6c0.3,0.4,0.7,0.7,1.2,1c0.5,0.3,1.1,0.4,1.8,0.4s1.3-0.1,1.8-0.4c0.5-0.3,0.9-0.6,1.2-1
		c0.3-0.4,0.5-0.9,0.6-1.6c0.2-0.7,0.3-1.3,0.3-1.9c0-0.6,0.1-1.3,0.1-2.2V10h4v18c0,1.3-0.1,2.4-0.2,3.4s-0.4,2-0.8,2.8
		s-0.9,1.6-1.5,2.2S46.4,37.5,45.4,37.8z"/>
	<path fill="#F9C53D" d="M54,38V10h3l7,17.3V10h4v28h-2.8L58,19.4V38H54z"/>
	<path fill="#F9C53D" d="M79.5,38.3c-1.3,0-2.4-0.2-3.3-0.5s-1.7-0.9-2.3-1.5s-1.1-1.4-1.4-2.4s-0.6-2-0.7-3.1
		c-0.1-1.1-0.2-2.3-0.2-3.7V20c0-6.9,2.7-10.3,8.2-10.3c1.3,0,2.4,0.2,3.4,0.6s1.7,1,2.3,1.7s1,1.6,1.3,2.6c0.3,1,0.5,2.2,0.5,3.5
		c0,0.2,0,0.5,0,0.9h-4v-0.8c0-0.7,0-1.2-0.1-1.7C83.1,16,83,15.5,82.9,15c-0.2-0.5-0.4-0.8-0.6-1.1c-0.3-0.3-0.6-0.5-1-0.7
		S80.3,13,79.7,13c-0.8,0-1.5,0.1-2.1,0.4s-1,0.7-1.3,1.3c-0.3,0.6-0.5,1.2-0.6,1.9c-0.1,0.7-0.2,1.5-0.2,2.4v9c0,0.7,0,1.3,0.1,1.8
		c0,0.5,0.1,1.1,0.2,1.6c0.1,0.6,0.2,1,0.4,1.4s0.4,0.8,0.7,1.1s0.6,0.6,1.1,0.8s0.9,0.3,1.5,0.3c0.7,0,1.2-0.1,1.7-0.4
		c0.5-0.3,0.9-0.6,1.2-1c0.3-0.4,0.5-0.9,0.7-1.6c0.2-0.6,0.3-1.3,0.3-1.9s0.1-1.3,0.1-2.1v-1h-4v-3h8v14h-3l-1-3
		C82.7,37.2,81.4,38.3,79.5,38.3z"/>
	<path fill="#F9C53D" d="M90.9,38V10h4v28H90.9z"/>
	<path fill="#FFFFFF" d="M27,66.2c-0.8,0-1.5-0.1-2.2-0.4c-0.7-0.3-1.2-0.6-1.7-1.1c-0.5-0.5-0.8-1-1.1-1.7
		c-0.3-0.7-0.5-1.4-0.7-2.1c-0.1-0.8-0.2-1.6-0.2-2.4v-7.6c0-1,0.1-1.9,0.2-2.7c0.1-0.8,0.3-1.6,0.6-2.4c0.3-0.8,0.6-1.4,1.1-1.9
		s1-0.9,1.7-1.3c0.7-0.3,1.5-0.5,2.4-0.5c1.9,0,3.4,0.5,4.4,1.6c1,1.1,1.5,2.6,1.5,4.5h-3.4c0-1.1-0.2-2-0.5-2.5
		c-0.4-0.6-1-0.8-2-0.8c-1.7,0-2.5,1.7-2.5,5.1v3.4c0.7-1.1,1.8-1.7,3.4-1.7c0.9,0,1.8,0.2,2.4,0.5c0.7,0.3,1.2,0.8,1.6,1.4
		c0.4,0.6,0.6,1.3,0.8,2.1c0.2,0.8,0.3,1.7,0.3,2.7c0,1.1-0.1,2.1-0.3,3c-0.2,0.9-0.6,1.7-1,2.5c-0.5,0.7-1.1,1.3-1.8,1.7
		C28.9,66,28,66.2,27,66.2z M25.8,63.1c0.3,0.2,0.8,0.4,1.2,0.4s0.9-0.1,1.2-0.4c0.3-0.2,0.6-0.6,0.8-1s0.3-0.9,0.4-1.3
		c0.1-0.5,0.1-1,0.1-1.5c0-0.3,0-0.6,0-0.8c0-0.2,0-0.4,0-0.7c0-0.3,0-0.6-0.1-0.7c0-0.2-0.1-0.4-0.1-0.7c0-0.3-0.1-0.5-0.2-0.6
		c-0.1-0.1-0.1-0.3-0.2-0.5c-0.1-0.2-0.2-0.3-0.3-0.5s-0.3-0.2-0.4-0.3s-0.3-0.2-0.6-0.2s-0.4-0.1-0.7-0.1c-1.1,0-1.9,0.6-2.5,1.7
		v3.4c0,0.6,0,1.1,0.1,1.5s0.2,0.9,0.4,1.3C25.2,62.5,25.4,62.9,25.8,63.1z"/>
	<path fill="#FFFFFF" d="M41,66.2c-1.9,0-3.4-0.5-4.4-1.6c-1-1.1-1.5-2.6-1.5-4.5h3.4c0,1.1,0.2,2,0.5,2.5s1,0.8,2,0.8
		c1.7,0,2.5-1.7,2.5-5.1V55c-0.7,1.1-1.8,1.7-3.4,1.7c-0.9,0-1.8-0.2-2.4-0.5c-0.7-0.3-1.2-0.8-1.6-1.4c-0.4-0.6-0.6-1.3-0.8-2.1
		s-0.3-1.7-0.3-2.7c0-1.1,0.1-2.1,0.3-3c0.2-0.9,0.6-1.7,1-2.5s1.1-1.3,1.8-1.7c0.8-0.4,1.7-0.6,2.7-0.6c0.8,0,1.5,0.1,2.2,0.4
		c0.7,0.3,1.2,0.6,1.7,1.1c0.5,0.5,0.8,1,1.1,1.7c0.3,0.7,0.5,1.4,0.7,2.1c0.1,0.8,0.2,1.6,0.2,2.4v7.6c0,1-0.1,1.9-0.2,2.7
		c-0.1,0.8-0.3,1.6-0.6,2.4c-0.3,0.8-0.6,1.4-1.1,1.9s-1,0.9-1.7,1.3C42.7,66.1,41.9,66.2,41,66.2z M41,54.2c1.1,0,1.9-0.6,2.5-1.7
		v-3.4c0-0.6,0-1.1-0.1-1.5c-0.1-0.5-0.2-0.9-0.4-1.3s-0.4-0.8-0.8-1c-0.3-0.2-0.8-0.4-1.2-0.4s-0.9,0.1-1.2,0.4
		c-0.3,0.2-0.6,0.6-0.8,1c-0.2,0.4-0.3,0.9-0.4,1.3c-0.1,0.5-0.1,1-0.1,1.5c0,0.3,0,0.6,0,0.8c0,0.2,0,0.4,0,0.7
		c0,0.3,0,0.6,0.1,0.7c0,0.2,0.1,0.4,0.1,0.7c0,0.3,0.1,0.5,0.2,0.6c0.1,0.1,0.1,0.3,0.2,0.5c0.1,0.2,0.2,0.3,0.3,0.5
		s0.3,0.2,0.4,0.3s0.3,0.2,0.6,0.2C40.5,54.1,40.8,54.2,41,54.2z"/>
	<path fill="#FFFFFF" d="M49,66v-3.4h3.4V66H49z"/>
	<path fill="#FFFFFF" d="M60.4,66.2c-1.3,0-2.4-0.3-3.3-0.9c-0.9-0.6-1.6-1.4-2-2.5c-0.4-1-0.6-2.2-0.6-3.6V49.1
		c0-2.2,0.5-3.9,1.5-5.1c1-1.2,2.5-1.9,4.4-1.9c2,0,3.4,0.6,4.4,1.9c1,1.2,1.5,3,1.5,5.1v10.1c0,2.1-0.5,3.8-1.5,5.1
		C63.8,65.6,62.3,66.2,60.4,66.2z M60.4,63.4c1.7,0,2.5-1.4,2.5-4.2V49.1c0-0.5,0-0.9-0.1-1.3c0-0.4-0.1-0.8-0.2-1.1
		c-0.1-0.4-0.3-0.7-0.4-1c-0.2-0.3-0.4-0.5-0.7-0.6s-0.7-0.2-1.1-0.2s-0.8,0.1-1.1,0.2s-0.6,0.4-0.7,0.6c-0.2,0.3-0.3,0.6-0.4,1
		c-0.1,0.4-0.2,0.8-0.2,1.1c0,0.4-0.1,0.8-0.1,1.3v10.1c0,0.6,0,1.1,0.1,1.5c0.1,0.5,0.2,0.9,0.4,1.3c0.2,0.4,0.4,0.8,0.8,1
		C59.5,63.3,59.9,63.4,60.4,63.4z"/>
	<path fill="#FFFFFF" d="M74.7,66.2c-1.3,0-2.4-0.3-3.3-0.9c-0.9-0.6-1.6-1.4-2-2.5c-0.4-1-0.6-2.2-0.6-3.6V49.1
		c0-2.2,0.5-3.9,1.5-5.1c1-1.2,2.5-1.9,4.4-1.9c2,0,3.4,0.6,4.4,1.9c1,1.2,1.5,3,1.5,5.1v10.1c0,2.1-0.5,3.8-1.5,5.1
		C78.1,65.6,76.7,66.2,74.7,66.2z M74.7,63.4c1.7,0,2.5-1.4,2.5-4.2V49.1c0-0.5,0-0.9-0.1-1.3c0-0.4-0.1-0.8-0.2-1.1
		c-0.1-0.4-0.3-0.7-0.4-1c-0.2-0.3-0.4-0.5-0.7-0.6s-0.7-0.2-1.1-0.2S74,45,73.7,45.1s-0.6,0.4-0.7,0.6c-0.2,0.3-0.3,0.6-0.4,1
		c-0.1,0.4-0.2,0.8-0.2,1.1c0,0.4-0.1,0.8-0.1,1.3v10.1c0,0.6,0,1.1,0.1,1.5c0.1,0.5,0.2,0.9,0.4,1.3c0.2,0.4,0.4,0.8,0.8,1
		C73.8,63.3,74.3,63.4,74.7,63.4z"/>
	<path fill="#FFFFFF" d="M89.1,66.2c-1.3,0-2.4-0.3-3.3-0.9c-0.9-0.6-1.6-1.4-2-2.5c-0.4-1-0.6-2.2-0.6-3.6V49.1
		c0-2.2,0.5-3.9,1.5-5.1c1-1.2,2.5-1.9,4.4-1.9c2,0,3.4,0.6,4.4,1.9c1,1.2,1.5,3,1.5,5.1v10.1c0,2.1-0.5,3.8-1.5,5.1
		C92.5,65.6,91,66.2,89.1,66.2z M89.1,63.4c1.7,0,2.5-1.4,2.5-4.2V49.1c0-0.5,0-0.9-0.1-1.3c0-0.4-0.1-0.8-0.2-1.1
		c-0.1-0.4-0.3-0.7-0.4-1c-0.2-0.3-0.4-0.5-0.7-0.6s-0.7-0.2-1.1-0.2S88.3,45,88,45.1s-0.6,0.4-0.7,0.6c-0.2,0.3-0.3,0.6-0.4,1
		c-0.1,0.4-0.2,0.8-0.2,1.1c0,0.4-0.1,0.8-0.1,1.3v10.1c0,0.6,0,1.1,0.1,1.5c0.1,0.5,0.2,0.9,0.4,1.3c0.2,0.4,0.4,0.8,0.8,1
		C88.2,63.3,88.6,63.4,89.1,63.4z"/>
</g>
<g>
	<path fill="#F9C53D" d="M18.9,103.1l5.6-26.2h3.8l5.6,26.2h-3.8l-1.4-6.6H24l-1.4,6.6H18.9z M24.5,93.7h3.8l-1.9-11.2L24.5,93.7z"
		/>
	<path fill="#F9C53D" d="M36,103.1V76.9h3.8v23.4h6.6v2.8H36z"/>
	<path fill="#F9C53D" d="M55.1,103.4c-1.2,0-2.2-0.2-3.1-0.5s-1.6-0.8-2.2-1.4s-1-1.3-1.3-2.2s-0.6-1.9-0.7-2.9s-0.2-2.2-0.2-3.5
		v-6.7c0-6.4,2.5-9.6,7.6-9.6c1.2,0,2.3,0.2,3.2,0.5c0.9,0.4,1.6,0.9,2.2,1.6s1,1.5,1.3,2.5c0.3,0.9,0.4,2,0.5,3.3
		c0,0.2,0,0.4,0,0.8h-3.8v-0.8c0-0.6,0-1.1-0.1-1.6c-0.1-0.4-0.2-0.9-0.3-1.3s-0.3-0.8-0.6-1s-0.6-0.5-1-0.6
		c-0.4-0.2-0.9-0.2-1.4-0.2c-0.8,0-1.4,0.1-1.9,0.4c-0.5,0.3-0.9,0.7-1.2,1.2c-0.3,0.5-0.5,1.1-0.6,1.8c-0.1,0.6-0.2,1.4-0.2,2.2
		v8.4c0,0.6,0,1.2,0.1,1.7c0,0.5,0.1,1,0.2,1.5s0.2,1,0.4,1.4s0.4,0.7,0.7,1c0.3,0.3,0.6,0.5,1,0.7c0.4,0.2,0.9,0.2,1.4,0.2
		c0.6,0,1.2-0.1,1.6-0.4s0.8-0.6,1.1-0.9s0.5-0.9,0.6-1.5s0.3-1.2,0.3-1.8s0.1-1.3,0.1-2v-0.9h-3.8V90h7.5v13.1h-2.8l-0.9-2.8
		C58.1,102.4,56.8,103.4,55.1,103.4z"/>
	<path fill="#F9C53D" d="M64,103.1l5.6-26.2h3.8l5.6,26.2h-3.8l-1.4-6.6h-4.7l-1.4,6.6H64z M69.6,93.7h3.8l-1.9-11.2L69.6,93.7z"/>
	<path fill="#F9C53D" d="M81.1,103.1V76.9h10.3v2.8h-6.6v8.4h4.7v2.8h-4.7v9.4h6.6v2.8H81.1z"/>
	<path fill="#FFFFFF" d="M19.5,128.1v-3.2l5.7-8.1c0.1-0.1,0.2-0.3,0.4-0.6c0.2-0.3,0.4-0.5,0.5-0.6c0.1-0.1,0.2-0.3,0.4-0.6
		c0.2-0.3,0.3-0.5,0.4-0.7c0.1-0.2,0.2-0.4,0.3-0.7s0.2-0.5,0.3-0.8c0.1-0.2,0.1-0.5,0.1-0.8c0-0.3,0.1-0.6,0.1-0.9
		c0-0.9-0.2-1.7-0.6-2.3c-0.4-0.6-1-0.9-1.8-0.9c-0.5,0-0.9,0.1-1.2,0.3s-0.6,0.5-0.8,1s-0.3,0.8-0.4,1.3c-0.1,0.5-0.1,0.9-0.1,1.5
		v0.8h-3.2v-0.8c0-2.1,0.5-3.8,1.4-5s2.4-1.8,4.3-1.8c1.8,0,3.3,0.5,4.2,1.6c1,1,1.5,2.5,1.5,4.4c0,0.7-0.1,1.4-0.2,2
		s-0.3,1.2-0.6,1.8s-0.5,1-0.7,1.4s-0.5,0.8-0.9,1.4l-5.7,7.3h8.1v3.2H19.5z"/>
	<path fill="#FFFFFF" d="M38.7,128.3c-0.8,0-1.5-0.1-2.1-0.4s-1.2-0.6-1.6-1.1s-0.8-1-1.1-1.6c-0.3-0.6-0.5-1.3-0.7-2.1
		c-0.1-0.7-0.2-1.5-0.2-2.4v-7.3c0-0.9,0.1-1.8,0.2-2.6c0.1-0.8,0.3-1.5,0.6-2.3c0.3-0.7,0.6-1.3,1-1.8s1-0.9,1.6-1.2
		s1.4-0.4,2.3-0.4c1.8,0,3.2,0.5,4.2,1.6c1,1,1.5,2.5,1.5,4.4h-3.3c0-1.1-0.2-1.9-0.5-2.4s-1-0.8-1.9-0.8c-1.6,0-2.4,1.6-2.4,4.9
		v3.2c0.6-1.1,1.7-1.6,3.2-1.6c0.9,0,1.7,0.2,2.3,0.5c0.6,0.3,1.2,0.8,1.5,1.4c0.4,0.6,0.6,1.3,0.8,2c0.2,0.8,0.2,1.6,0.2,2.6
		c0,1.1-0.1,2-0.3,2.9c-0.2,0.9-0.5,1.7-1,2.4s-1,1.2-1.8,1.6C40.6,128.2,39.7,128.3,38.7,128.3z M37.5,125.3
		c0.3,0.2,0.7,0.3,1.2,0.3s0.9-0.1,1.2-0.3s0.6-0.5,0.8-1s0.3-0.8,0.4-1.3c0.1-0.5,0.1-0.9,0.1-1.5c0-0.3,0-0.6,0-0.7
		c0-0.2,0-0.4,0-0.7s0-0.5-0.1-0.7c0-0.2-0.1-0.4-0.1-0.6s-0.1-0.5-0.1-0.6c-0.1-0.1-0.1-0.3-0.2-0.5c-0.1-0.2-0.2-0.3-0.3-0.4
		s-0.3-0.2-0.4-0.3s-0.3-0.2-0.5-0.2s-0.4-0.1-0.7-0.1c-1,0-1.9,0.5-2.4,1.6v3.2c0,0.5,0,1,0.1,1.5s0.2,0.9,0.4,1.3
		S37.2,125.1,37.5,125.3z"/>
	<path fill="#FFFFFF" d="M46.2,128.1v-3.2h3.2v3.2H46.2z"/>
	<path fill="#FFFFFF" d="M57.1,128.3c-1.8,0-3.2-0.5-4.2-1.6c-1-1-1.5-2.5-1.5-4.4h3.2c0,1.1,0.2,1.9,0.5,2.4s1,0.8,1.9,0.8
		c1.6,0,2.4-1.6,2.4-4.9v-3.2c-0.6,1.1-1.7,1.6-3.2,1.6c-0.9,0-1.7-0.2-2.3-0.5c-0.6-0.3-1.2-0.8-1.5-1.4c-0.4-0.6-0.6-1.3-0.8-2
		c-0.2-0.8-0.2-1.6-0.2-2.6c0-1.1,0.1-2,0.3-2.9c0.2-0.9,0.5-1.7,1-2.4c0.4-0.7,1-1.2,1.8-1.6c0.7-0.4,1.6-0.6,2.6-0.6
		c0.8,0,1.5,0.1,2.1,0.4s1.2,0.6,1.6,1.1s0.8,1,1.1,1.6c0.3,0.6,0.5,1.3,0.7,2.1c0.1,0.7,0.2,1.5,0.2,2.4v7.3c0,0.9-0.1,1.8-0.2,2.6
		c-0.1,0.8-0.3,1.5-0.6,2.3c-0.3,0.7-0.6,1.3-1,1.8c-0.4,0.5-1,0.9-1.6,1.2S57.9,128.3,57.1,128.3z M57.1,116.7c1,0,1.8-0.5,2.4-1.6
		v-3.2c0-0.5,0-1-0.1-1.5s-0.2-0.9-0.4-1.3s-0.4-0.7-0.8-1s-0.7-0.3-1.2-0.3c-0.5,0-0.9,0.1-1.2,0.3s-0.6,0.5-0.8,1
		s-0.3,0.8-0.4,1.3c-0.1,0.5-0.1,0.9-0.1,1.5c0,0.3,0,0.6,0,0.7c0,0.2,0,0.4,0,0.7s0,0.5,0.1,0.7c0,0.2,0.1,0.4,0.1,0.6
		s0.1,0.5,0.1,0.6c0.1,0.1,0.1,0.3,0.2,0.5c0.1,0.2,0.2,0.3,0.3,0.4c0.1,0.1,0.3,0.2,0.4,0.3s0.3,0.2,0.5,0.2S56.8,116.7,57.1,116.7
		z"/>
	<path fill="#FFFFFF" d="M70.9,128.3c-1.2,0-2.3-0.3-3.2-0.9s-1.5-1.4-1.9-2.4c-0.4-1-0.6-2.2-0.6-3.5v-9.8c0-2.1,0.5-3.7,1.4-4.9
		c0.9-1.2,2.4-1.8,4.3-1.8c1.9,0,3.3,0.6,4.3,1.8s1.4,2.8,1.4,4.9v9.8c0,2-0.5,3.7-1.5,4.9C74.1,127.7,72.7,128.3,70.9,128.3z
		 M70.9,125.7c1.6,0,2.4-1.4,2.4-4.1v-9.8c0-0.5,0-0.9-0.1-1.2c0-0.4-0.1-0.7-0.2-1.1c-0.1-0.4-0.2-0.7-0.4-0.9s-0.4-0.4-0.7-0.6
		c-0.3-0.2-0.6-0.2-1.1-0.2s-0.8,0.1-1.1,0.2c-0.3,0.2-0.5,0.4-0.7,0.6s-0.3,0.6-0.4,0.9c-0.1,0.4-0.2,0.7-0.2,1.1
		c0,0.4-0.1,0.8-0.1,1.2v9.8c0,0.5,0,1,0.1,1.5s0.2,0.9,0.4,1.3s0.4,0.7,0.8,1C70,125.6,70.4,125.7,70.9,125.7z"/>
	<path fill="#FFFFFF" d="M84.7,128.3c-1.2,0-2.3-0.3-3.2-0.9s-1.5-1.4-1.9-2.4c-0.4-1-0.6-2.2-0.6-3.5v-9.8c0-2.1,0.5-3.7,1.4-4.9
		c0.9-1.2,2.4-1.8,4.3-1.8c1.9,0,3.3,0.6,4.3,1.8s1.4,2.8,1.4,4.9v9.8c0,2-0.5,3.7-1.5,4.9C88,127.7,86.5,128.3,84.7,128.3z
		 M84.7,125.7c1.6,0,2.4-1.4,2.4-4.1v-9.8c0-0.5,0-0.9-0.1-1.2c0-0.4-0.1-0.7-0.2-1.1c-0.1-0.4-0.2-0.7-0.4-0.9s-0.4-0.4-0.7-0.6
		c-0.3-0.2-0.6-0.2-1.1-0.2s-0.8,0.1-1.1,0.2c-0.3,0.2-0.5,0.4-0.7,0.6s-0.3,0.6-0.4,0.9c-0.1,0.4-0.2,0.7-0.2,1.1
		c0,0.4-0.1,0.8-0.1,1.2v9.8c0,0.5,0,1,0.1,1.5s0.2,0.9,0.4,1.3s0.4,0.7,0.8,1C83.8,125.6,84.2,125.7,84.7,125.7z"/>
</g>
<g>
</g>
<g>
</g>
<g>
</g>
<g>
</g>
<g>
</g>
<g>
</g>
</svg>
