<?xml version="1.0" encoding="utf-8"?>
<!-- Generator: Adobe Illustrator 19.1.0, SVG Export Plug-In . SVG Version: 6.00 Build 0)  -->
<svg version="1.1" id="graph" xmlns="http://www.w3.org/2000/svg" xmlns:xlink="http://www.w3.org/1999/xlink" x="0px" y="0px"
	 width="358.6px" height="214.9px" viewBox="0 0 358.6 214.9" enable-background="new 0 0 358.6 214.9" xml:space="preserve">
<path fill="#5B87DA" d="M358.6,51.5V204c0,6-4.8,10.8-10.8,10.8H48.2c-6,0-10.8-4.8-10.8-10.8V10.8c0-6,4.8-10.8,10.8-10.8h56.8
	c6,0,10.8,4.8,10.8,10.8v19.1c0,6,4.8,10.8,10.8,10.8h221.1C353.8,40.7,358.6,45.6,358.6,51.5z"/>
<g>
	<g>
		<line fill="none" stroke="#FFFFFF" stroke-width="3" stroke-miterlimit="10" x1="137.2" y1="111" x2="140.2" y2="111"/>
		
			<line fill="none" stroke="#FFFFFF" stroke-width="3" stroke-miterlimit="10" stroke-dasharray="5.7914,8.6871" x1="148.9" y1="111" x2="318.3" y2="111"/>
		<line fill="none" stroke="#FFFFFF" stroke-width="3" stroke-miterlimit="10" x1="322.6" y1="111" x2="325.6" y2="111"/>
	</g>
</g>
<g>
	<g>
		<line fill="none" stroke="#FFFFFF" stroke-width="3" stroke-miterlimit="10" x1="155.1" y1="154.3" x2="158.1" y2="154.3"/>
		
			<line fill="none" stroke="#FFFFFF" stroke-width="3" stroke-miterlimit="10" stroke-dasharray="5.6744,8.5116" x1="166.6" y1="154.3" x2="275.8" y2="154.3"/>
		<line fill="none" stroke="#FFFFFF" stroke-width="3" stroke-miterlimit="10" x1="280.1" y1="154.3" x2="283.1" y2="154.3"/>
	</g>
</g>
<g>
	<g>
		<line fill="none" stroke="#FFFFFF" stroke-width="3" stroke-miterlimit="10" x1="185.4" y1="66.6" x2="188.4" y2="66.6"/>
		
			<line fill="none" stroke="#FFFFFF" stroke-width="3" stroke-miterlimit="10" stroke-dasharray="5.9216,8.8825" x1="197.3" y1="66.6" x2="340.9" y2="66.6"/>
		<line fill="none" stroke="#FFFFFF" stroke-width="3" stroke-miterlimit="10" x1="345.4" y1="66.6" x2="348.4" y2="66.6"/>
	</g>
</g>
<linearGradient id="SVGID_1_" gradientUnits="userSpaceOnUse" x1="66.9555" y1="89.5535" x2="66.9555" y2="34.1044">
	<stop  offset="0.1516" style="stop-color:#120E4F"/>
	<stop  offset="0.7406" style="stop-color:#2A2F7D"/>
</linearGradient>
<path fill="url(#SVGID_1_)" d="M75.8,60.2c0,0-1.6-1.9-1.8-4c-0.2-2.1,0.5-4,0-4.7c-0.5-0.7-4.4-4.9-8.1-7.3
	c-3.7-2.4-11.3-9.6-12.1-10.1c-0.9-0.4,1.6,3.1,1.6,3.1l-3.6-2.5c0,0-1.4,0.1,2.1,3.1c-2.6-0.9-3.6-1.5-2.9-0.5
	c0.7,1,2.1,1.8,2.1,1.8s-0.6,1.1,1.2,2.3c-1-0.4-0.9,0.6,0.4,1.5c0,0-2.6-0.4,1.2,2.4c-1.3-0.4-1,0.6,3,3.1c0,0-2.8,0.9,0.4,2.2
	c0,0-1,0.7-0.6,1.4s-0.6,1.4,0,1.5c0,0-0.2,1.6,0.6,1.6c0,0-0.7,1.9,0.9,1.9c0,0-0.1,1.6,0.8,1.6c0,0-0.7,1.4,0.4,1.6
	c0,0-0.7,0.9-0.5,2.1c-2.6,0.6-5.3,1.9-5.3,1.9S46.4,65.3,47,66c0.6,0.7,0.6,0.7,0.6,0.7s-2.1,0.7-0.1,0.9c0,0-1.4,0.5,2.6,0.9
	c4,0.4,5.9-0.6,5.9-0.6s3.1,0.7,5.9,0.1c1.3-0.4,2.9,0.6,5.1,0.9c0,0.5,1.6,1.2,1.6,1.2s-1.4,1,1.1,1.3c-0.4,0.6-0.4,0.8,1.4,0.9
	c-1.1,1.2,1.3,1.8,1.3,1.8s-1.2,1.1,1,1.1c0.1,1.1-0.1,1.9,1.4,1.3c0,1.4,1.1,0.7,1.1,0.7s-1.2,1.3,1,1.3c0,0-1.1,4.6,0.9,2.9
	c0.7,2.6,1.1,3.1,1.9,1.9c-0.3,1.3-0.3,2.6,0.9,2.2c0,0,0.2,3.3,1.4,1.4c0,0,0.2,5.6,1.9,0.6c0.4,2.4,0.9,2.9,1.6,0.7
	c0.9,0.1,2-0.2,2.1-3.3c0.1-3.1-0.7-14-1.6-14.8s-5.6-2.8-5.4-3.4c0.1-0.6,1.8-0.9,2.4-2c0.8,0.4,0.8,0.9,0.8,0.9s0.6-1.3-0.1-1.9
	c0.2-1.1-0.2-2.1-1.4-2.4C80.9,60.9,77.4,60.3,75.8,60.2z"/>
<g>
	<rect x="286.6" y="48.7" fill="none" width="72" height="27.7"/>
	<path fill="#F7EA84" d="M287.2,57.8h2.6c0,0,0,0.1,0,0.2c0,0.2,0,0.3,0,0.4c0,0.1,0,0.2,0,0.4c0,0.2,0,0.3,0.1,0.4
		c0,0.1,0.1,0.2,0.1,0.4c0.1,0.1,0.1,0.2,0.2,0.3c0.1,0.1,0.2,0.1,0.3,0.2c0.1,0.1,0.2,0.1,0.4,0.1s0.3,0,0.4-0.1s0.2-0.1,0.3-0.2
		c0.1-0.1,0.1-0.2,0.2-0.3c0-0.1,0.1-0.2,0.1-0.3c0-0.1,0-0.2,0.1-0.4c0-0.2,0-0.3,0-0.4c0-0.1,0-0.2,0-0.3c0-0.6-0.2-1.1-0.5-1.5
		s-0.8-0.5-1.4-0.5v-2.6c0.3,0,0.6,0,0.8,0c0.2,0,0.4-0.1,0.6-0.2c0.2-0.1,0.3-0.3,0.4-0.5c0.1-0.2,0.1-0.5,0.1-0.8
		c0-0.2,0-0.4,0-0.5c0-0.2-0.1-0.3-0.1-0.5c-0.1-0.2-0.2-0.3-0.3-0.4c-0.1-0.1-0.3-0.1-0.5-0.1c-0.1,0-0.3,0-0.4,0.1
		c-0.1,0.1-0.2,0.1-0.3,0.2s-0.1,0.2-0.2,0.3c0,0.1-0.1,0.3-0.1,0.4c0,0.1,0,0.3-0.1,0.4c0,0.2,0,0.3,0,0.4c0,0.1,0,0.2,0,0.4
		c0,0.1,0,0.1,0,0.1h-2.6v-0.9c0-1.2,0.3-2.1,1-2.8c0.6-0.7,1.5-1,2.7-1c1.2,0,2,0.3,2.7,1c0.6,0.7,1,1.6,1,2.7
		c0,0.6-0.1,1.1-0.4,1.6s-0.6,0.9-1,1.2c0.5,0.4,0.8,0.8,1,1.4c0.2,0.6,0.3,1.2,0.3,1.9c0,0.6-0.1,1.2-0.2,1.7
		c-0.1,0.5-0.3,0.9-0.6,1.3c-0.3,0.4-0.7,0.7-1.1,0.9c-0.5,0.2-1,0.3-1.7,0.3c-0.6,0-1-0.1-1.5-0.2c-0.4-0.1-0.8-0.3-1-0.6
		c-0.3-0.2-0.5-0.5-0.7-0.9s-0.3-0.7-0.4-1.1c-0.1-0.4-0.1-0.9-0.1-1.4V57.8z"/>
	<path fill="#F7EA84" d="M302.5,52.1c0,0.6-0.1,1.2-0.3,1.8c-0.2,0.6-0.5,1.1-0.8,1.7c-0.3,0.5-0.7,1-1,1.4
		c-0.3,0.4-0.7,0.9-1.2,1.4c-0.4,0.5-0.8,0.9-1,1.2h4.2v2.6h-7.2v-2.3l3.3-4.7c0.2-0.3,0.3-0.5,0.5-0.7c0.1-0.2,0.3-0.4,0.4-0.7
		c0.1-0.3,0.3-0.5,0.3-0.8c0.1-0.3,0.1-0.5,0.1-0.8c0-0.2,0-0.3-0.1-0.5c0-0.2-0.1-0.3-0.2-0.5s-0.2-0.3-0.3-0.4
		c-0.1-0.1-0.3-0.1-0.5-0.1c-0.1,0-0.3,0-0.4,0.1c-0.1,0.1-0.2,0.2-0.3,0.3c-0.1,0.1-0.1,0.2-0.2,0.4c-0.1,0.1-0.1,0.3-0.1,0.5
		c0,0.2,0,0.3-0.1,0.5c0,0.2,0,0.3,0,0.5c0,0.1,0,0.3,0,0.4c0,0.1,0,0.1,0,0.2h-2.6v-0.9c0-0.5,0-1,0.1-1.4s0.2-0.8,0.4-1.2
		s0.4-0.7,0.7-0.9c0.3-0.2,0.6-0.4,1-0.6s0.9-0.2,1.4-0.2c1.1,0,2,0.3,2.7,1C302.2,50.1,302.5,51,302.5,52.1z"/>
	<path fill="#F7EA84" d="M303.5,58.2v-5.6c0-0.6,0.1-1.2,0.2-1.7c0.1-0.5,0.4-1,0.6-1.3s0.7-0.7,1.1-0.9s1-0.3,1.7-0.3
		c0.6,0,1.2,0.1,1.6,0.3c0.5,0.2,0.9,0.5,1.1,0.9c0.3,0.4,0.5,0.8,0.6,1.3c0.1,0.5,0.2,1.1,0.2,1.7v5.6c0,0.6-0.1,1.1-0.2,1.6
		c-0.2,0.5-0.4,1-0.7,1.3c-0.3,0.4-0.7,0.7-1.1,0.9s-1,0.3-1.6,0.3c-0.6,0-1.1-0.1-1.6-0.3c-0.5-0.2-0.9-0.5-1.1-0.9
		s-0.5-0.8-0.7-1.3C303.6,59.4,303.5,58.8,303.5,58.2z M308.2,58.2v-5.6c0-1.3-0.3-2-1-2c-0.2,0-0.3,0-0.5,0.1
		c-0.1,0.1-0.2,0.2-0.3,0.3c-0.1,0.1-0.1,0.3-0.2,0.5c0,0.2-0.1,0.4-0.1,0.5c0,0.1,0,0.3,0,0.5v5.6c0,0.2,0,0.3,0,0.5
		c0,0.1,0,0.3,0.1,0.5c0,0.2,0.1,0.4,0.2,0.5s0.2,0.3,0.3,0.3c0.1,0.1,0.3,0.1,0.4,0.1c0.2,0,0.4-0.1,0.5-0.2
		c0.1-0.1,0.3-0.3,0.3-0.5s0.1-0.4,0.1-0.6S308.2,58.4,308.2,58.2z"/>
	<path fill="#F7EA84" d="M315.3,62.2V48.7h2.5v7.1l1.6-3.4h2.7l-2.4,4.1l2.4,5.7h-2.6l-1.3-4.4l-0.3,0.6v3.8H315.3z"/>
	<path fill="#F7EA84" d="M322.6,62.2v-9.8h2.5v0.7c0.2-0.3,0.5-0.5,0.8-0.7c0.3-0.2,0.7-0.3,1-0.3c0.3,0,0.6,0.1,0.9,0.3
		c0.3,0.2,0.5,0.5,0.6,0.8c0.2-0.3,0.5-0.6,0.9-0.8s0.7-0.3,1.1-0.3c0.3,0,0.7,0.1,0.9,0.3c0.3,0.2,0.5,0.5,0.6,0.8
		c0.1,0.3,0.2,0.7,0.2,1v7.9h-2.5v-7.4c0-0.1,0-0.2,0-0.2c0-0.1,0-0.1,0-0.2c0-0.1-0.1-0.2-0.1-0.2s-0.1-0.1-0.2-0.1
		c-0.2,0-0.4,0.2-0.7,0.6v7.6h-2.5v-7.4c0-0.5-0.1-0.7-0.3-0.7c-0.2,0-0.4,0.2-0.7,0.6v7.6H322.6z"/>
	<path fill="#F7EA84" d="M333.7,62.2l4.3-13.8h1.4L335,62.2H333.7z"/>
	<path fill="#F7EA84" d="M340.5,62.2V48.7h2.5v4.4c0.2-0.3,0.5-0.5,0.9-0.7c0.3-0.2,0.7-0.3,1-0.3c0.3,0,0.7,0.1,0.9,0.3
		c0.3,0.2,0.5,0.5,0.6,0.8s0.2,0.7,0.2,1v7.9h-2.5V55c0,0,0-0.1,0-0.1c0-0.1,0-0.1,0-0.2c0,0,0-0.1,0-0.2c0-0.1,0-0.1,0-0.2
		s0-0.1-0.1-0.1c0,0-0.1-0.1-0.1-0.1c0,0-0.1,0-0.2,0c-0.1,0-0.2,0-0.3,0.1s-0.2,0.1-0.2,0.2c0,0.1-0.1,0.1-0.2,0.2v7.6H340.5z"/>
</g>
<g>
	<rect x="266.7" y="93" fill="none" width="72" height="27.7"/>
	<path fill="#F7EA84" d="M268.4,106.6V96.5H267v-2c0.1-0.1,0.3-0.2,0.6-0.3c0.2-0.1,0.4-0.2,0.5-0.3s0.3-0.2,0.4-0.3
		c0.2-0.2,0.3-0.4,0.4-0.6h2v13.6H268.4z"/>
	<path fill="#F7EA84" d="M272.9,106.6l2.3-11.3H272V93h5.8v1.3l-2.3,12.2H272.9z"/>
	<path fill="#F7EA84" d="M278.6,102.6V97c0-0.6,0.1-1.2,0.2-1.7c0.1-0.5,0.4-1,0.6-1.3s0.7-0.7,1.1-0.9s1-0.3,1.7-0.3
		c0.6,0,1.2,0.1,1.6,0.3c0.5,0.2,0.9,0.5,1.1,0.9c0.3,0.4,0.5,0.8,0.6,1.3c0.1,0.5,0.2,1.1,0.2,1.7v5.6c0,0.6-0.1,1.1-0.2,1.6
		c-0.2,0.5-0.4,1-0.7,1.3c-0.3,0.4-0.7,0.7-1.1,0.9s-1,0.3-1.6,0.3c-0.6,0-1.1-0.1-1.6-0.3c-0.5-0.2-0.9-0.5-1.1-0.9
		s-0.5-0.8-0.7-1.3C278.7,103.7,278.6,103.2,278.6,102.6z M283.3,102.6V97c0-1.3-0.3-2-1-2c-0.2,0-0.3,0-0.5,0.1
		c-0.1,0.1-0.2,0.2-0.3,0.3c-0.1,0.1-0.1,0.3-0.2,0.5c0,0.2-0.1,0.4-0.1,0.5c0,0.1,0,0.3,0,0.5v5.6c0,0.2,0,0.3,0,0.5
		c0,0.1,0,0.3,0.1,0.5c0,0.2,0.1,0.4,0.2,0.5s0.2,0.3,0.3,0.3c0.1,0.1,0.3,0.1,0.4,0.1c0.2,0,0.4-0.1,0.5-0.2
		c0.1-0.1,0.3-0.3,0.3-0.5s0.1-0.4,0.1-0.6S283.3,102.8,283.3,102.6z"/>
	<path fill="#F7EA84" d="M290.4,106.6V93h2.5v7.1l1.6-3.4h2.7l-2.4,4.1l2.4,5.7h-2.6l-1.3-4.4l-0.3,0.6v3.8H290.4z"/>
	<path fill="#F7EA84" d="M297.7,106.6v-9.8h2.5v0.7c0.2-0.3,0.5-0.5,0.8-0.7c0.3-0.2,0.7-0.3,1-0.3c0.3,0,0.6,0.1,0.9,0.3
		c0.3,0.2,0.5,0.5,0.6,0.8c0.2-0.3,0.5-0.6,0.9-0.8s0.7-0.3,1.1-0.3c0.3,0,0.7,0.1,0.9,0.3c0.3,0.2,0.5,0.5,0.6,0.8
		c0.1,0.3,0.2,0.7,0.2,1v7.9h-2.5v-7.4c0-0.1,0-0.2,0-0.2c0-0.1,0-0.1,0-0.2c0-0.1-0.1-0.2-0.1-0.2s-0.1-0.1-0.2-0.1
		c-0.2,0-0.4,0.2-0.7,0.6v7.6h-2.5v-7.4c0-0.5-0.1-0.7-0.3-0.7c-0.2,0-0.4,0.2-0.7,0.6v7.6H297.7z"/>
	<path fill="#F7EA84" d="M308.8,106.6l4.3-13.8h1.4l-4.4,13.8H308.8z"/>
	<path fill="#F7EA84" d="M315.5,106.6V93h2.5v4.4c0.2-0.3,0.5-0.5,0.9-0.7c0.3-0.2,0.7-0.3,1-0.3c0.3,0,0.7,0.1,0.9,0.3
		c0.3,0.2,0.5,0.5,0.6,0.8s0.2,0.7,0.2,1v7.9h-2.5v-7.2c0,0,0-0.1,0-0.1c0-0.1,0-0.1,0-0.2c0,0,0-0.1,0-0.2c0-0.1,0-0.1,0-0.2
		s0-0.1-0.1-0.1c0,0-0.1-0.1-0.1-0.1c0,0-0.1,0-0.2,0c-0.1,0-0.2,0-0.3,0.1s-0.2,0.1-0.2,0.2c0,0.1-0.1,0.1-0.2,0.2v7.6H315.5z"/>
</g>
<g>
	<rect x="226" y="135.4" fill="none" width="72" height="15.4"/>
	<path fill="#F7EA84" d="M227.7,148.9v-10.1h-1.4v-2c0.1-0.1,0.3-0.2,0.6-0.3c0.2-0.1,0.4-0.2,0.5-0.3s0.3-0.2,0.4-0.3
		c0.2-0.2,0.3-0.4,0.4-0.6h2v13.6H227.7z"/>
	<path fill="#F7EA84" d="M238.8,138.8c0,0.6-0.1,1.2-0.3,1.8c-0.2,0.6-0.5,1.1-0.8,1.7c-0.3,0.5-0.7,1-1,1.4
		c-0.3,0.4-0.7,0.9-1.2,1.4c-0.4,0.5-0.8,0.9-1,1.2h4.2v2.6h-7.2v-2.3l3.3-4.7c0.2-0.3,0.3-0.5,0.5-0.7c0.1-0.2,0.3-0.4,0.4-0.7
		c0.1-0.3,0.3-0.5,0.3-0.8c0.1-0.3,0.1-0.5,0.1-0.8c0-0.2,0-0.3-0.1-0.5c0-0.2-0.1-0.3-0.2-0.5s-0.2-0.3-0.3-0.4
		c-0.1-0.1-0.3-0.1-0.5-0.1c-0.1,0-0.3,0-0.4,0.1c-0.1,0.1-0.2,0.2-0.3,0.3c-0.1,0.1-0.1,0.2-0.2,0.4c-0.1,0.1-0.1,0.3-0.1,0.5
		c0,0.2,0,0.3-0.1,0.5c0,0.2,0,0.3,0,0.5c0,0.1,0,0.3,0,0.4c0,0.1,0,0.1,0,0.2h-2.6v-0.9c0-0.5,0-1,0.1-1.4s0.2-0.8,0.4-1.2
		s0.4-0.7,0.7-0.9c0.3-0.2,0.6-0.4,1-0.6s0.9-0.2,1.4-0.2c1.1,0,2,0.3,2.7,1C238.4,136.8,238.8,137.7,238.8,138.8z"/>
	<path fill="#F7EA84" d="M239.8,144.9v-5.6c0-0.6,0.1-1.2,0.2-1.7c0.1-0.5,0.4-1,0.6-1.3s0.7-0.7,1.1-0.9s1-0.3,1.7-0.3
		c0.6,0,1.2,0.1,1.6,0.3c0.5,0.2,0.9,0.5,1.1,0.9c0.3,0.4,0.5,0.8,0.6,1.3c0.1,0.5,0.2,1.1,0.2,1.7v5.6c0,0.6-0.1,1.1-0.2,1.6
		c-0.2,0.5-0.4,1-0.7,1.3c-0.3,0.4-0.7,0.7-1.1,0.9s-1,0.3-1.6,0.3c-0.6,0-1.1-0.1-1.6-0.3c-0.5-0.2-0.9-0.5-1.1-0.9
		s-0.5-0.8-0.7-1.3C239.8,146.1,239.8,145.5,239.8,144.9z M244.4,144.9v-5.6c0-1.3-0.3-2-1-2c-0.2,0-0.3,0-0.5,0.1
		c-0.1,0.1-0.2,0.2-0.3,0.3c-0.1,0.1-0.1,0.3-0.2,0.5c0,0.2-0.1,0.4-0.1,0.5c0,0.1,0,0.3,0,0.5v5.6c0,0.2,0,0.3,0,0.5
		c0,0.1,0,0.3,0.1,0.5c0,0.2,0.1,0.4,0.2,0.5s0.2,0.3,0.3,0.3c0.1,0.1,0.3,0.1,0.4,0.1c0.2,0,0.4-0.1,0.5-0.2
		c0.1-0.1,0.3-0.3,0.3-0.5s0.1-0.4,0.1-0.6S244.4,145.1,244.4,144.9z"/>
	<path fill="#F7EA84" d="M251.5,148.9v-13.5h2.5v7.1l1.6-3.4h2.7l-2.4,4.1l2.4,5.7h-2.6l-1.3-4.4l-0.3,0.6v3.8H251.5z"/>
	<path fill="#F7EA84" d="M258.9,148.9v-9.8h2.5v0.7c0.2-0.3,0.5-0.5,0.8-0.7c0.3-0.2,0.7-0.3,1-0.3c0.3,0,0.6,0.1,0.9,0.3
		c0.3,0.2,0.5,0.5,0.6,0.8c0.2-0.3,0.5-0.6,0.9-0.8s0.7-0.3,1.1-0.3c0.3,0,0.7,0.1,0.9,0.3c0.3,0.2,0.5,0.5,0.6,0.8
		c0.1,0.3,0.2,0.7,0.2,1v7.9h-2.5v-7.4c0-0.1,0-0.2,0-0.2c0-0.1,0-0.1,0-0.2c0-0.1-0.1-0.2-0.1-0.2s-0.1-0.1-0.2-0.1
		c-0.2,0-0.4,0.2-0.7,0.6v7.6h-2.5v-7.4c0-0.5-0.1-0.7-0.3-0.7c-0.2,0-0.4,0.2-0.7,0.6v7.6H258.9z"/>
	<path fill="#F7EA84" d="M269.9,148.9l4.3-13.8h1.4l-4.4,13.8H269.9z"/>
	<path fill="#F7EA84" d="M276.7,148.9v-13.5h2.5v4.4c0.2-0.3,0.5-0.5,0.9-0.7c0.3-0.2,0.7-0.3,1-0.3c0.3,0,0.7,0.1,0.9,0.3
		c0.3,0.2,0.5,0.5,0.6,0.8s0.2,0.7,0.2,1v7.9h-2.5v-7.2c0,0,0-0.1,0-0.1c0-0.1,0-0.1,0-0.2c0,0,0-0.1,0-0.2c0-0.1,0-0.1,0-0.2
		s0-0.1-0.1-0.1c0,0-0.1-0.1-0.1-0.1c0,0-0.1,0-0.2,0c-0.1,0-0.2,0-0.3,0.1s-0.2,0.1-0.2,0.2c0,0.1-0.1,0.1-0.2,0.2v7.6H276.7z"/>
</g>
<g>
	<g>
		<line fill="none" stroke="#FFFFFF" stroke-width="3" stroke-miterlimit="10" x1="142.9" y1="196.8" x2="145.9" y2="196.8"/>
		
			<line fill="none" stroke="#FFFFFF" stroke-width="3" stroke-miterlimit="10" stroke-dasharray="5.7755,8.6632" x1="154.5" y1="196.8" x2="251.3" y2="196.8"/>
		<line fill="none" stroke="#FFFFFF" stroke-width="3" stroke-miterlimit="10" x1="255.6" y1="196.8" x2="258.6" y2="196.8"/>
	</g>
</g>
<g>
	<rect x="201" y="177.9" fill="none" width="72" height="15.4"/>
	<path fill="#F7EA84" d="M201.8,187.1h2.6c0,0.2,0,0.5,0,0.6c0,0.2,0,0.4,0,0.5c0,0.2,0,0.4,0.1,0.5c0,0.1,0.1,0.2,0.2,0.4
		c0.1,0.1,0.1,0.2,0.2,0.2c0.1,0.1,0.2,0.1,0.3,0.1c0.2,0,0.3,0,0.4-0.1c0.1-0.1,0.2-0.2,0.3-0.3c0.1-0.1,0.1-0.2,0.2-0.4
		c0.1-0.1,0.1-0.3,0.1-0.5c0-0.2,0-0.3,0.1-0.5c0-0.2,0-0.3,0-0.5c0-0.2,0-0.3,0-0.5c0-0.1,0-0.2,0-0.2c0-0.2,0-0.3,0-0.4
		c0-0.1,0-0.3,0-0.4s-0.1-0.3-0.1-0.4c0-0.1-0.1-0.2-0.2-0.4c-0.1-0.1-0.2-0.2-0.3-0.3c-0.1-0.1-0.3-0.1-0.4-0.1
		c-0.2,0-0.5,0.1-0.7,0.3c-0.2,0.2-0.3,0.5-0.4,0.7H202v-7.8h6.5v2.6h-4v2.4c0.5-0.3,0.9-0.4,1.3-0.4c0.5,0,0.9,0.1,1.3,0.2
		c0.4,0.2,0.7,0.4,0.9,0.6s0.4,0.6,0.6,0.9c0.1,0.4,0.2,0.7,0.3,1.1c0.1,0.4,0.1,0.8,0.1,1.3c0,0.4,0,0.9-0.1,1.2s-0.1,0.8-0.2,1.2
		c-0.1,0.4-0.2,0.8-0.4,1.1c-0.2,0.3-0.4,0.6-0.7,0.8c-0.3,0.2-0.6,0.4-1,0.6c-0.4,0.1-0.8,0.2-1.3,0.2c-0.6,0-1-0.1-1.5-0.2
		c-0.4-0.2-0.8-0.4-1-0.6c-0.3-0.3-0.5-0.6-0.6-1c-0.2-0.4-0.3-0.8-0.3-1.2C201.8,188.1,201.8,187.6,201.8,187.1z"/>
	<path fill="#F7EA84" d="M210.1,187.4v-5.6c0-0.6,0.1-1.2,0.2-1.7c0.1-0.5,0.4-1,0.6-1.3c0.3-0.4,0.7-0.7,1.1-0.9
		c0.5-0.2,1-0.3,1.7-0.3c0.6,0,1.2,0.1,1.6,0.3c0.5,0.2,0.9,0.5,1.1,0.9c0.3,0.4,0.5,0.8,0.6,1.3c0.1,0.5,0.2,1.1,0.2,1.7v5.6
		c0,0.6-0.1,1.1-0.2,1.6c-0.2,0.5-0.4,1-0.7,1.3c-0.3,0.4-0.7,0.7-1.1,0.9s-1,0.3-1.6,0.3c-0.6,0-1.1-0.1-1.6-0.3
		c-0.5-0.2-0.9-0.5-1.1-0.9s-0.5-0.8-0.7-1.3C210.1,188.6,210.1,188,210.1,187.4z M214.7,187.4v-5.6c0-1.3-0.3-2-1-2
		c-0.2,0-0.3,0-0.5,0.1c-0.1,0.1-0.2,0.2-0.3,0.3c-0.1,0.1-0.1,0.3-0.2,0.5c0,0.2-0.1,0.4-0.1,0.5c0,0.1,0,0.3,0,0.5v5.6
		c0,0.2,0,0.3,0,0.5c0,0.1,0,0.3,0.1,0.5c0,0.2,0.1,0.4,0.2,0.5s0.2,0.3,0.3,0.3c0.1,0.1,0.3,0.1,0.4,0.1c0.2,0,0.4-0.1,0.5-0.2
		c0.1-0.1,0.3-0.3,0.3-0.5c0.1-0.2,0.1-0.4,0.1-0.6S214.7,187.6,214.7,187.4z"/>
	<path fill="#F7EA84" d="M221.8,191.4v-13.5h2.5v7.1l1.6-3.4h2.7l-2.4,4.1l2.4,5.7H226l-1.3-4.4l-0.3,0.6v3.8H221.8z"/>
	<path fill="#F7EA84" d="M229.2,191.4v-9.8h2.5v0.7c0.2-0.3,0.5-0.5,0.8-0.7c0.3-0.2,0.7-0.3,1-0.3c0.3,0,0.6,0.1,0.9,0.3
		c0.3,0.2,0.5,0.5,0.6,0.8c0.2-0.3,0.5-0.6,0.9-0.8c0.4-0.2,0.7-0.3,1.1-0.3c0.3,0,0.7,0.1,0.9,0.3c0.3,0.2,0.5,0.5,0.6,0.8
		c0.1,0.3,0.2,0.7,0.2,1v7.9h-2.5V184c0-0.1,0-0.2,0-0.2c0-0.1,0-0.1,0-0.2c0-0.1-0.1-0.2-0.1-0.2c-0.1,0-0.1-0.1-0.2-0.1
		c-0.2,0-0.4,0.2-0.7,0.6v7.6h-2.5V184c0-0.5-0.1-0.7-0.3-0.7c-0.2,0-0.4,0.2-0.7,0.6v7.6H229.2z"/>
	<path fill="#F7EA84" d="M240.2,191.4l4.3-13.8h1.4l-4.4,13.8H240.2z"/>
	<path fill="#F7EA84" d="M247,191.4v-13.5h2.5v4.4c0.2-0.3,0.5-0.5,0.9-0.7c0.3-0.2,0.7-0.3,1-0.3c0.3,0,0.7,0.1,0.9,0.3
		c0.3,0.2,0.5,0.5,0.6,0.8s0.2,0.7,0.2,1v7.9h-2.5v-7.2c0,0,0-0.1,0-0.1c0-0.1,0-0.1,0-0.2c0,0,0-0.1,0-0.2c0-0.1,0-0.1,0-0.2
		c0,0,0-0.1-0.1-0.1s-0.1-0.1-0.1-0.1c0,0-0.1,0-0.2,0c-0.1,0-0.2,0-0.3,0.1s-0.2,0.1-0.2,0.2c0,0.1-0.1,0.1-0.2,0.2v7.6H247z"/>
</g>
<linearGradient id="SVGID_2_" gradientUnits="userSpaceOnUse" x1="65.3295" y1="126.0099" x2="65.5115" y2="88.0388">
	<stop  offset="0.1516" style="stop-color:#120E4F"/>
	<stop  offset="0.7406" style="stop-color:#2A2F7D"/>
</linearGradient>
<path fill="url(#SVGID_2_)" d="M52.7,60.8c0,0,3.4,1.9,7.7,7.3s13.1,21,13.1,21s3,7.4,3.1,9.4c0.1,2-1.1,5.6,0,6.1
	c1.1,0.6,4,0.4,5.9,2s1.9,1.6,1.9,1.6s-2.6,2.1-3,2.4c-0.4,0.3-4.7,2.3-4.7,2.3s1.3,4.3,1.3,5.3s-2.1,8.3-2.7,9.7s-5.4,8.7-6.7,12.1
	S57.7,157.3,56,157.3s4.3-15.4,5.1-19.7c0.9-4.3,4.6-12.1,4.6-12.1s0.6-4.3,1-5c0.4-0.7-1.6-6.7-1.6-6.7s-4,0.3-7.9-1.3
	c-4.7-0.6-5.7-0.6-5.7-0.6s-4.6,0.4-4.6-0.6s-1.3-3.7,0-3.7s3.7,0.1,5.6-0.4c1.9-0.6,7-3.4,11.6-3.7c1.7-3.4,0.4-10,0.4-10
	s-5.1-11.7-5.1-13c0-1.3-2.1-5.4-2.3-7C56.3,71.9,50.4,60.5,52.7,60.8z"/>
<linearGradient id="SVGID_3_" gradientUnits="userSpaceOnUse" x1="62.5776" y1="178.1591" x2="62.5776" y2="126.3492">
	<stop  offset="0.1516" style="stop-color:#120E4F"/>
	<stop  offset="0.7406" style="stop-color:#2A2F7D"/>
</linearGradient>
<path fill="url(#SVGID_3_)" d="M51.1,141.8c0,0,18.7,1.1,32.3-2.7s11.7-3.7,14.7-3.7c3,0,7.7,1.1,7.7,1.1l6.1,0.4c0,0,1.3-1.7,3.7,1
	c0,0,1.1,0.1,3,0.7c1.9,0.6,2.9,0.3,2.9,0.3s2.4-1.3,2.9-1.3s0,1.9,0,1.9l-0.4,1.6c0,0,1.3,2.7,1.1,4.1c-0.1,1.4-1.4,4.1-1.4,4.1
	s0.6,1.9,0.3,2.8c-0.4,0.9-1.3,2.1-2.5,1.9c0,0-0.2,1.1-2.1,1.1c-1.9,0-3.3-1.5-3.3-1.5s-3.7-0.4-5.3-2.2c0,0-0.2,2.6-3.4,3.7
	c0,0-2.3,2.6-3.9,3.1c0,0,3.4,2.1,5.3,3.1c1.9,1,1.8,0.9,2.6,2c0.9,1.1,3.9,2.8,4.6,4.2c0.7,1.4,2.1,5.5,1.1,6
	c-1.1,0.5-3.1,0.4-4.4-0.6c-1.2-1.1-1.9-4.2-2.6-4.9c-0.6-0.6-2.1-1.6-3.2-2.6c-1.1-1.1-6.2-3-6.2-3s1.9,2.8,2.2,4s-0.7,2.5-2.2,2.9
	c-1.5,0.4-3.6-0.2-6.3,0c0,0-2.4-1-3.9-3.1c-1.5-2.1-0.5-2.9,0.6-2.7c1.1,0.1,0.7-0.6,2.4,0.5c1.7,1.1,2.3,1.4,2.3,1.4l2.4-0.1
	c0,0-0.6-1.4-2.2-2.8c-1.6-1.4-2.8-2.3-2.8-2.3s-3.3,1.6-8.6,2.1c-5.4,0.5-13.3-2.6-16.1-4.1c-2.8-1.4-6.8-2-13.7-0.9
	s-13,6.9-14.9,9c-1.9,2.1-2.6,2.4-5,2.8s-7.4,0.3-10.2,0.6s-5.7,2.9-6.5,4.4s-0.6,3.6-2.9,3.7c-2.3,0.1-2.8-1.9-2.8-1.9
	s-1.6,0.6-2-0.8s0.7-4.6,0.7-4.6s4.5-4.4,4.9-6c0,0,2.2,0.2,5.7-1.9s8.4-3.2,9.6-4.9c1.2-1.6,0.6-5,0.6-5s2.3-4.3,5.6-7.6
	c0,0-1.9-0.3-4.8-0.3s-5.9-1.6-10.8-3.1c-4.9-1.5-5.2-0.9-8.4-2.4c-3.2-1.5-7.4-3.9-10.3-7s-3.8-4.1-3.1-5.5s1.4-1.3,3.9,0.8
	c2.5,2.1,6.7,5.8,10.3,7c3.6,1.2,10.8,2.2,13.5,3.7c2.7,1.5,11.6,0.9,14.8,1.4C45.9,140.7,51.1,141.8,51.1,141.8z"/>
<g>
	<linearGradient id="SVGID_4_" gradientUnits="userSpaceOnUse" x1="76.8178" y1="212.1307" x2="76.8178" y2="163.5972">
		<stop  offset="0.1516" style="stop-color:#120E4F"/>
		<stop  offset="0.7406" style="stop-color:#2A2F7D"/>
	</linearGradient>
	<path fill="url(#SVGID_4_)" d="M126.3,209.9c0,0.8-1.5,0.7-4.8,0.9c-3.3,0.2-8.5-1.8-8.7-1.8l0.5,0.7l0.6-0.2l0.1,1l0.3-0.4
		l0.3,0.8l0.3-0.5c0,0,0.1,0.4-0.1,1.4c-1.6,1.4-8.5-1-9.9-1.6c-4.9,0-11.7-4.1-18.4-7.3c-9.5,1.4-24.6,0-25.1-0.5
		c-0.5-0.5,0.4-1.3,4-1.2s10-1.3,10-1.3c-4.6-1.6-9.5-3.5-12.8-5.3c0,0-2,0.8-3.7,0.7c-1.7-0.1,1.1-0.3,1.4-2
		c-3.8-2.3-6.8-4-9.3-5.3c0,0-1.1,1-1.9,0.8c-0.7-0.2,0.1-1.7,0.1-1.7c-7.1-3.6-8-2.8-8-2.8s-0.7,0.8-4.3,4.8c-3.6,4-9,7.2-8.6,6.5
		c7.4-12.9,5.6-16.1,3-23.8c-2.6-7.7-6.5-8.7-2.9-7.7c3.5,1,14.1,17.5,14.1,17.5s3.3-0.1,8.2-0.2c0,0,0,0,0,0l0.5,0
		c-0.2,0-0.3,0-0.5,0c0,0-0.4-1,0-1c0.4,0,1.6,0.9,1.6,0.9c6.1-0.1,14-0.1,21.3,0.3l0,0c2.7,0.1,2.9-1.9,3.5-2.4
		c0.6-0.6,1.1-8.7,1.2-10c0.1-1.3,1.1-0.9,3.7,2.3c2.6,3.1,3.7,10.4,3.7,10.4l2.1,1.4c12.9,3,28.7,17.4,31,19.7
		C121.6,205,126.2,209.2,126.3,209.9z"/>
</g>
<g>
	<rect x="52.4" y="7.6" fill="none" width="48.1" height="22.1"/>
	<path fill="#553278" d="M52.8,19.5l3.4-0.7c0,0.3,0,0.6,0,0.9c0,0.3,0,0.5,0.1,0.8c0.1,0.3,0.1,0.6,0.2,0.8
		c0.1,0.2,0.2,0.4,0.4,0.5c0.2,0.1,0.4,0.2,0.6,0.2c0.7,0,1-0.4,1-1.3c0-1.2-0.7-2.3-2-3.5l-1-0.9c-0.3-0.3-0.6-0.5-0.8-0.7
		c-0.2-0.2-0.4-0.4-0.7-0.8c-0.3-0.3-0.5-0.6-0.6-0.9c-0.2-0.3-0.3-0.6-0.4-1.1c-0.1-0.4-0.2-0.9-0.2-1.3c0-1.4,0.4-2.4,1.3-3.2
		c0.9-0.8,2-1.2,3.4-1.2c1.2,0,2.2,0.4,3,1.3c0.8,0.8,1.2,1.9,1.2,3l0,0.1c0,0.1,0,0.2,0,0.3l-3.5,0.5c0-0.1,0-0.2,0-0.3
		c0-0.1,0-0.3,0-0.4c0-0.2,0-0.4,0-0.6c0-0.2-0.1-0.4-0.2-0.6c-0.1-0.2-0.2-0.4-0.3-0.5c-0.1-0.1-0.3-0.2-0.5-0.2
		c-0.4,0-0.6,0.1-0.8,0.4c-0.2,0.3-0.3,0.6-0.3,1c0,0.3,0.1,0.7,0.2,1c0.1,0.3,0.3,0.6,0.5,0.8c0.2,0.3,0.4,0.5,0.6,0.7
		c0.2,0.2,0.4,0.4,0.7,0.6c0.3,0.3,0.5,0.4,0.7,0.6c0.5,0.4,0.9,0.8,1.2,1.2c0.3,0.4,0.6,0.8,0.9,1.2c0.3,0.5,0.5,1,0.7,1.5
		c0.1,0.5,0.2,1.1,0.2,1.7c0,1.2-0.4,2.1-1.3,2.9s-1.8,1.1-3,1.1c-0.8,0-1.5-0.1-2.1-0.4c-0.6-0.3-1.1-0.7-1.5-1.2
		c-0.4-0.5-0.7-1-0.8-1.6C53,20.8,52.9,20.2,52.8,19.5z"/>
	<path fill="#553278" d="M63.1,27.7V12.2h3.1V13c0.3-0.3,0.6-0.6,0.9-0.8c0.3-0.2,0.7-0.3,1.1-0.3c0.7,0,1.3,0.3,1.8,0.9
		s0.7,1.3,0.7,2V22c0,0.7-0.2,1.3-0.7,1.8c-0.5,0.5-1,0.8-1.7,0.8c-0.4,0-0.8-0.1-1.2-0.3c-0.4-0.2-0.7-0.5-0.9-0.9v4.4H63.1z
		 M67.6,21.3v-6.3c0-0.5-0.2-0.8-0.5-0.8c-0.2,0-0.5,0.2-0.9,0.7v6.6c0.3,0.4,0.6,0.7,0.9,0.7c0.1,0,0.3,0,0.3-0.1
		c0.1-0.1,0.1-0.2,0.1-0.3C67.6,21.6,67.6,21.5,67.6,21.3z"/>
	<path fill="#553278" d="M72.2,21.2V16c0-1.3,0.3-2.3,0.9-3c0.6-0.7,1.5-1.1,2.8-1.1c1.3,0,2.2,0.4,2.8,1.1c0.6,0.7,0.9,1.7,0.9,3
		v2.5h-4.3v2.7c0,0.7,0.2,1,0.6,1c0.4,0,0.6-0.4,0.6-1.1v-1.3h3.1v1.4c0,1-0.4,1.8-1.1,2.5c-0.7,0.6-1.6,1-2.6,1s-1.9-0.3-2.6-1
		C72.6,23,72.2,22.2,72.2,21.2z M75.3,16.9h1.2v-1.7c0-0.6-0.2-0.9-0.6-0.9c-0.4,0-0.6,0.3-0.6,0.9V16.9z"/>
	<path fill="#553278" d="M80.9,21.2V16c0-1.3,0.3-2.3,0.9-3c0.6-0.7,1.5-1.1,2.8-1.1c1.3,0,2.2,0.4,2.8,1.1c0.6,0.7,0.9,1.7,0.9,3
		v2.5H84v2.7c0,0.7,0.2,1,0.6,1c0.4,0,0.6-0.4,0.6-1.1v-1.3h3.1v1.4c0,1-0.4,1.8-1.1,2.5c-0.7,0.6-1.6,1-2.6,1s-1.9-0.3-2.6-1
		C81.3,23,80.9,22.2,80.9,21.2z M84,16.9h1.2v-1.7c0-0.6-0.2-0.9-0.6-0.9c-0.4,0-0.6,0.3-0.6,0.9V16.9z"/>
	<path fill="#553278" d="M89.6,22v-7.2c0-0.8,0.2-1.4,0.7-2s1.1-0.9,1.8-0.9c0.4,0,0.8,0.1,1.1,0.3c0.3,0.2,0.7,0.5,0.9,0.8V7.6h3.1
		v16.7h-3.1v-0.9c-0.2,0.4-0.6,0.7-0.9,0.9c-0.4,0.2-0.8,0.3-1.2,0.3c-0.7,0-1.3-0.3-1.7-0.8C89.9,23.3,89.6,22.7,89.6,22z
		 M94.2,21.5V15c-0.4-0.5-0.6-0.7-0.9-0.7c-0.3,0-0.5,0.3-0.5,0.8v6.3c0,0.2,0,0.3,0,0.4c0,0.1,0.1,0.2,0.1,0.3
		c0.1,0.1,0.2,0.1,0.3,0.1C93.6,22.2,93.8,22,94.2,21.5z"/>
</g>
<g>
	<rect x="90.3" y="62.5" fill="none" width="105.1" height="9.7"/>
	<path fill="#F7EA84" d="M90.8,68.6v-6.1h1.5c1,0,1.5,0.6,1.5,1.8c0,0.5-0.1,0.9-0.4,1.1c-0.3,0.3-0.6,0.4-1.1,0.4h-0.7v2.8H90.8z
		 M91.6,65.1h0.2c0.2,0,0.4,0,0.5,0c0.1,0,0.2-0.1,0.3-0.1c0.1-0.1,0.2-0.2,0.2-0.3c0-0.1,0.1-0.3,0.1-0.4c0-0.2,0-0.4,0-0.5
		s-0.1-0.2-0.2-0.3c-0.1-0.1-0.2-0.1-0.3-0.2c-0.1,0-0.3,0-0.5,0h-0.2V65.1z"/>
	<path fill="#F7EA84" d="M95.4,68.7c-0.2,0-0.4,0-0.6-0.1c-0.2-0.1-0.3-0.2-0.4-0.3c-0.1-0.1-0.2-0.3-0.2-0.5s-0.1-0.4-0.1-0.6
		c0-0.2,0-0.4,0-0.6c0-0.2,0-0.4,0-0.6c0-0.2,0-0.4,0-0.6c0-0.2,0.1-0.3,0.1-0.5s0.1-0.3,0.2-0.4c0.1-0.1,0.2-0.2,0.4-0.3
		c0.2-0.1,0.3-0.1,0.5-0.1c0.2,0,0.4,0,0.5,0.1c0.1,0,0.3,0.1,0.4,0.2c0.1,0.1,0.2,0.2,0.2,0.3c0.1,0.1,0.1,0.3,0.1,0.4
		s0.1,0.3,0.1,0.5c0,0.2,0,0.4,0,0.6v0.1H95v0.2c0,0,0,0.1,0,0.1c0,0.1,0,0.2,0,0.3c0,0.1,0,0.2,0,0.3c0,0.1,0,0.2,0,0.2
		c0,0.1,0,0.1,0.1,0.2s0.1,0.1,0.1,0.1c0.1,0,0.1,0.1,0.2,0.1c0.1,0,0.2,0,0.2-0.1s0.1-0.1,0.1-0.2c0-0.1,0-0.1,0.1-0.2s0-0.2,0-0.3
		v-0.2h0.9v0.2c0,0.5-0.1,0.8-0.3,1.1C96.2,68.6,95.9,68.7,95.4,68.7z M95,66h0.9v-0.3c0-0.1,0-0.2,0-0.3s0-0.2-0.1-0.3
		c0-0.1-0.1-0.2-0.1-0.2s-0.1-0.1-0.2-0.1c-0.1,0-0.2,0-0.2,0.1c-0.1,0-0.1,0.1-0.1,0.2c0,0.1,0,0.2-0.1,0.3c0,0.1,0,0.2,0,0.3V66z"
		/>
	<path fill="#F7EA84" d="M97.4,68.6v-4.4h0.9v0.6c0.1-0.2,0.2-0.3,0.4-0.5c0.2-0.1,0.4-0.2,0.6-0.2c0,0,0.1,0,0.1,0v1
		c-0.2-0.1-0.3-0.1-0.5-0.1c-0.2,0-0.3,0.1-0.4,0.2s-0.2,0.3-0.2,0.4v3H97.4z"/>
	<path fill="#F7EA84" d="M100.9,68.7c-0.2,0-0.4,0-0.6-0.1c-0.2-0.1-0.3-0.2-0.4-0.3c-0.1-0.1-0.2-0.3-0.2-0.5s-0.1-0.4-0.1-0.6
		c0-0.2,0-0.4,0-0.6c0-0.2,0-0.4,0-0.6c0-0.2,0-0.4,0-0.6c0-0.2,0.1-0.3,0.1-0.5s0.1-0.3,0.2-0.4c0.1-0.1,0.2-0.2,0.4-0.3
		c0.2-0.1,0.3-0.1,0.5-0.1c0.2,0,0.4,0,0.5,0.1c0.1,0,0.3,0.1,0.4,0.2c0.1,0.1,0.2,0.2,0.2,0.3c0.1,0.1,0.1,0.3,0.1,0.4
		s0.1,0.3,0.1,0.5c0,0.2,0,0.4,0,0.6v0.1h-1.8v0.2c0,0,0,0.1,0,0.1c0,0.1,0,0.2,0,0.3c0,0.1,0,0.2,0,0.3c0,0.1,0,0.2,0,0.2
		c0,0.1,0,0.1,0.1,0.2s0.1,0.1,0.1,0.1c0.1,0,0.1,0.1,0.2,0.1c0.1,0,0.2,0,0.2-0.1s0.1-0.1,0.1-0.2c0-0.1,0-0.1,0.1-0.2s0-0.2,0-0.3
		v-0.2h0.9v0.2c0,0.5-0.1,0.8-0.3,1.1C101.7,68.6,101.4,68.7,100.9,68.7z M100.5,66h0.9v-0.3c0-0.1,0-0.2,0-0.3s0-0.2-0.1-0.3
		c0-0.1-0.1-0.2-0.1-0.2s-0.1-0.1-0.2-0.1c-0.1,0-0.2,0-0.2,0.1c-0.1,0-0.1,0.1-0.1,0.2c0,0.1,0,0.2-0.1,0.3c0,0.1,0,0.2,0,0.3V66z"
		/>
	<path fill="#F7EA84" d="M104.3,70c-0.1,0-0.2,0-0.3,0s-0.2,0-0.3,0s-0.2,0-0.3,0s-0.2,0-0.3,0s-0.2,0-0.3-0.1
		c-0.1,0-0.1-0.1-0.2-0.1c-0.1,0-0.1-0.1-0.1-0.2c0-0.1,0-0.1,0-0.2c0-0.2,0.1-0.4,0.2-0.6c0.1-0.2,0.3-0.3,0.5-0.4
		c-0.1,0-0.2-0.1-0.3-0.1c-0.1-0.1-0.1-0.1-0.1-0.2c0,0,0-0.1,0-0.1c0,0,0-0.1,0-0.1s0-0.1,0.1-0.1c0,0,0-0.1,0.1-0.1
		c0,0,0-0.1,0.1-0.1s0.1-0.1,0.1-0.1c0,0,0,0,0.1-0.1c0,0,0.1-0.1,0.1-0.1c-0.3-0.3-0.4-0.8-0.4-1.3c0-0.3,0-0.6,0.1-0.8
		c0.1-0.2,0.2-0.4,0.4-0.6c0.2-0.1,0.4-0.2,0.7-0.2c0.2,0,0.3,0,0.4,0.1s0.2,0.1,0.3,0.2c0.1,0.1,0.2,0.2,0.2,0.3
		c0.2-0.3,0.4-0.5,0.7-0.5c0,0,0,0,0,0s0,0,0,0c0,0,0,0,0,0v0.7c0,0,0,0-0.1,0c-0.1,0-0.2,0-0.2,0c-0.1,0-0.1,0-0.2,0
		c-0.1,0-0.1,0-0.1,0.1c0,0.1,0.1,0.2,0.1,0.4c0,0.1,0,0.3,0,0.4c0,0.3,0,0.6-0.1,0.8c-0.1,0.2-0.2,0.4-0.4,0.6
		c-0.2,0.1-0.4,0.2-0.7,0.2l-0.4-0.1c0,0,0,0,0,0.1s0,0.1,0,0.1c0,0,0,0,0,0.1s0,0.1,0,0.1c0,0.1,0,0.1,0.1,0.2s0.1,0.1,0.2,0.1
		s0.2,0,0.3,0c0.1,0,0.2,0,0.3,0s0.2,0,0.2,0c0.1,0,0.2,0,0.3,0.1c0.1,0,0.2,0.1,0.3,0.1c0.1,0,0.2,0.1,0.3,0.2
		c0.1,0.1,0.1,0.1,0.2,0.2c0,0.1,0.1,0.2,0.1,0.3c0,0.2,0,0.3-0.1,0.4c-0.1,0.1-0.1,0.2-0.2,0.3s-0.2,0.1-0.3,0.2s-0.3,0.1-0.4,0.1
		C104.6,69.9,104.5,70,104.3,70z M104.3,69.3c0.1,0,0.1,0,0.2,0c0,0,0.1,0,0.2,0c0.1,0,0.1,0,0.2,0c0,0,0.1,0,0.1-0.1
		c0,0,0.1-0.1,0.1-0.1c0,0,0-0.1,0-0.1c0-0.2-0.2-0.4-0.7-0.4l-0.7-0.1c-0.1,0.1-0.2,0.2-0.2,0.3c-0.1,0.1-0.1,0.2-0.1,0.4
		c0,0,0,0.1,0,0.1s0.1,0,0.1,0.1c0,0,0.1,0,0.2,0c0.1,0,0.1,0,0.2,0c0.1,0,0.1,0,0.2,0s0.1,0,0.2,0
		C104.2,69.3,104.3,69.3,104.3,69.3z M104.1,66.7c0.4,0,0.5-0.3,0.5-0.9c0-0.1,0-0.2,0-0.3c0-0.1,0-0.2-0.1-0.3s-0.1-0.2-0.2-0.2
		c-0.1-0.1-0.2-0.1-0.3-0.1c-0.1,0-0.2,0-0.3,0.1c-0.1,0.1-0.1,0.1-0.2,0.2c0,0.1-0.1,0.2-0.1,0.3c0,0.1,0,0.2,0,0.3
		C103.5,66.4,103.7,66.7,104.1,66.7z"/>
	<path fill="#F7EA84" d="M106.1,68.6v-4.4h0.9v0.6c0.1-0.2,0.2-0.3,0.4-0.5c0.2-0.1,0.4-0.2,0.6-0.2c0,0,0.1,0,0.1,0v1
		c-0.2-0.1-0.3-0.1-0.5-0.1c-0.2,0-0.3,0.1-0.4,0.2s-0.2,0.3-0.2,0.4v3H106.1z"/>
	<path fill="#F7EA84" d="M108.5,63.6v-0.9h0.9v0.9H108.5z M108.5,68.6v-4.4h0.9v4.4H108.5z"/>
	<path fill="#F7EA84" d="M110.2,68.6v-4.4h0.9v0.5c0.1-0.1,0.2-0.2,0.3-0.3s0.2-0.1,0.3-0.2c0.1-0.1,0.3-0.1,0.5-0.1
		c0.2,0,0.3,0.1,0.5,0.2s0.2,0.3,0.2,0.5v3.7h-0.9v-3.3c0-0.2,0-0.3-0.1-0.3s-0.1-0.1-0.3-0.1c-0.1,0-0.1,0-0.2,0
		c-0.1,0-0.1,0.1-0.2,0.1s-0.1,0.1-0.2,0.1v3.5H110.2z"/>
	<path fill="#F7EA84" d="M114.8,68.7c-0.2,0-0.4,0-0.6-0.1c-0.2-0.1-0.3-0.2-0.4-0.3c-0.1-0.1-0.2-0.3-0.2-0.5s-0.1-0.4-0.1-0.6
		c0-0.2,0-0.4,0-0.6c0-0.2,0-0.4,0-0.6c0-0.2,0-0.4,0-0.6c0-0.2,0.1-0.3,0.1-0.5s0.1-0.3,0.2-0.4c0.1-0.1,0.2-0.2,0.4-0.3
		c0.2-0.1,0.3-0.1,0.5-0.1c0.2,0,0.4,0,0.5,0.1c0.1,0,0.3,0.1,0.4,0.2c0.1,0.1,0.2,0.2,0.2,0.3c0.1,0.1,0.1,0.3,0.1,0.4
		s0.1,0.3,0.1,0.5c0,0.2,0,0.4,0,0.6v0.1h-1.8v0.2c0,0,0,0.1,0,0.1c0,0.1,0,0.2,0,0.3c0,0.1,0,0.2,0,0.3c0,0.1,0,0.2,0,0.2
		c0,0.1,0,0.1,0.1,0.2s0.1,0.1,0.1,0.1c0.1,0,0.1,0.1,0.2,0.1c0.1,0,0.2,0,0.2-0.1s0.1-0.1,0.1-0.2c0-0.1,0-0.1,0.1-0.2s0-0.2,0-0.3
		v-0.2h0.9v0.2c0,0.5-0.1,0.8-0.3,1.1C115.6,68.6,115.2,68.7,114.8,68.7z M114.4,66h0.9v-0.3c0-0.1,0-0.2,0-0.3s0-0.2-0.1-0.3
		c0-0.1-0.1-0.2-0.1-0.2s-0.1-0.1-0.2-0.1c-0.1,0-0.2,0-0.2,0.1c-0.1,0-0.1,0.1-0.1,0.2c0,0.1,0,0.2-0.1,0.3c0,0.1,0,0.2,0,0.3V66z"
		/>
	<path fill="#F7EA84" d="M118.4,68.6v-3.7H118v-0.7h0.4v-0.2c0-0.2,0-0.3,0-0.5s0-0.3,0.1-0.4c0-0.1,0.1-0.2,0.2-0.3
		c0.1-0.1,0.2-0.1,0.3-0.2c0.1,0,0.3-0.1,0.4-0.1c0.1,0,0.3,0,0.5,0v0.6c0,0-0.1,0-0.1,0c-0.1,0-0.1,0-0.2,0c-0.1,0-0.2,0-0.3,0.1
		c0,0.1-0.1,0.2-0.1,0.4v0.3h0.7v0.7h-0.7v3.7H118.4z"/>
	<path fill="#F7EA84" d="M121.1,68.7c-0.2,0-0.5-0.1-0.6-0.3c-0.2-0.2-0.3-0.4-0.3-0.7c0-0.2,0-0.4,0.1-0.6c0.1-0.2,0.1-0.3,0.2-0.4
		s0.2-0.2,0.4-0.3s0.3-0.2,0.4-0.2s0.3-0.1,0.5-0.2c0,0,0.1,0,0.1,0v-0.3c0-0.2,0-0.4-0.1-0.5s-0.2-0.2-0.3-0.2
		c-0.2,0-0.3,0.1-0.3,0.2c-0.1,0.1-0.1,0.2-0.1,0.4c0,0,0,0.1,0,0.1h-0.9c0-0.4,0.1-0.8,0.4-1c0.2-0.2,0.6-0.4,1-0.4
		c0.4,0,0.7,0.1,1,0.4c0.2,0.3,0.4,0.6,0.4,1v2c0,0.5,0,0.8,0.1,1.1h-0.9L122,68c0,0.1-0.1,0.2-0.1,0.2c0,0-0.1,0.1-0.1,0.2
		s-0.1,0.1-0.2,0.2s-0.1,0.1-0.2,0.1C121.3,68.7,121.2,68.7,121.1,68.7z M121.5,68c0.1,0,0.1,0,0.2-0.1c0.1,0,0.1-0.1,0.1-0.1
		c0,0,0.1-0.1,0.1-0.1c0,0,0,0,0,0v-1.2c0,0-0.1,0.1-0.2,0.1s-0.2,0.1-0.2,0.1s-0.1,0.1-0.2,0.1c-0.1,0.1-0.1,0.1-0.2,0.2
		s-0.1,0.1-0.1,0.2s0,0.2,0,0.2C121.1,67.8,121.3,68,121.5,68z"/>
	<path fill="#F7EA84" d="M123.6,68.6v-6.1h0.9v6.1H123.6z"/>
	<path fill="#F7EA84" d="M126.4,68.7c-0.2,0-0.4,0-0.6-0.1c-0.2-0.1-0.3-0.2-0.4-0.3s-0.2-0.3-0.2-0.4s-0.1-0.4-0.1-0.5
		c0-0.2,0-0.4,0-0.6c0-0.2,0-0.4,0-0.6c0-0.2,0-0.4,0-0.6c0-0.2,0.1-0.4,0.1-0.5c0.1-0.2,0.1-0.3,0.2-0.4c0.1-0.1,0.2-0.2,0.4-0.3
		c0.2-0.1,0.3-0.1,0.6-0.1c0.5,0,0.8,0.1,1,0.4c0.2,0.2,0.3,0.6,0.3,1.1v0.1h-0.9v-0.1c0-0.1,0-0.2,0-0.3c0-0.1,0-0.2-0.1-0.2
		c0-0.1-0.1-0.1-0.1-0.2c-0.1,0-0.1-0.1-0.2-0.1s-0.2,0-0.2,0.1c-0.1,0.1-0.1,0.1-0.1,0.2c0,0.1-0.1,0.2-0.1,0.3s0,0.2,0,0.4
		c0,0.3,0,0.7,0,1.3c0,0.1,0,0.2,0,0.3s0,0.2,0.1,0.3c0,0.1,0.1,0.2,0.1,0.2c0.1,0,0.1,0.1,0.2,0.1c0.1,0,0.1,0,0.2,0
		c0.1,0,0.1-0.1,0.1-0.1c0,0,0.1-0.1,0.1-0.2c0-0.1,0-0.1,0-0.2s0-0.1,0-0.2v-0.1h0.9v0.1c0,0.2,0,0.4-0.1,0.6s-0.1,0.3-0.2,0.5
		c-0.1,0.1-0.2,0.2-0.4,0.3C126.8,68.7,126.6,68.7,126.4,68.7z"/>
	<path fill="#F7EA84" d="M130.5,68.3c-0.2,0.3-0.5,0.4-1,0.4s-0.8-0.1-1-0.4s-0.3-0.7-0.3-1.2v-1.3c0-0.5,0.1-0.9,0.3-1.2
		s0.5-0.4,1-0.4s0.8,0.1,1,0.4s0.3,0.7,0.3,1.2v1.3C130.8,67.6,130.7,68,130.5,68.3z M129.3,68c0,0,0.1,0,0.2,0s0.1,0,0.2,0
		c0,0,0.1,0,0.1-0.1c0,0,0.1-0.1,0.1-0.1c0-0.1,0-0.1,0-0.1c0,0,0-0.1,0-0.2s0-0.1,0-0.2c0,0,0-0.1,0-0.2v-1.3c0-0.1,0-0.1,0-0.2
		c0,0,0-0.1,0-0.2s0-0.1,0-0.2c0,0,0-0.1,0-0.1c0-0.1,0-0.1-0.1-0.1c0,0-0.1,0-0.1-0.1c0,0-0.1,0-0.2,0s-0.1,0-0.2,0
		c0,0-0.1,0-0.1,0.1c0,0-0.1,0.1-0.1,0.1c0,0.1,0,0.1,0,0.1c0,0,0,0.1,0,0.2s0,0.1,0,0.2c0,0,0,0.1,0,0.2v1.3c0,0.1,0,0.1,0,0.2
		c0,0,0,0.1,0,0.2s0,0.1,0,0.2c0,0,0,0.1,0,0.1c0,0.1,0,0.1,0.1,0.1C129.2,67.9,129.2,67.9,129.3,68z"/>
	<path fill="#F7EA84" d="M131.5,68.6v-4.4h0.9v0.5c0.1-0.1,0.2-0.2,0.3-0.3s0.2-0.1,0.3-0.2c0.1-0.1,0.3-0.1,0.5-0.1
		c0.2,0,0.3,0.1,0.5,0.2s0.2,0.3,0.2,0.5v3.7h-0.9v-3.3c0-0.2,0-0.3-0.1-0.3s-0.1-0.1-0.3-0.1c-0.1,0-0.1,0-0.2,0
		c-0.1,0-0.1,0.1-0.2,0.1s-0.1,0.1-0.2,0.1v3.5H131.5z"/>
	<path fill="#F7EA84" d="M136.8,68.6l-0.8-4.4h0.8l0.5,3.3l0.5-3.3h0.8l0.5,3.3l0.5-3.3h0.8l-0.8,4.4h-0.8l-0.5-3l-0.5,3H136.8z"/>
	<path fill="#F7EA84" d="M140.7,68.6v-6.1h0.9v2.2c0.1-0.1,0.2-0.2,0.3-0.3s0.2-0.1,0.3-0.2c0.1-0.1,0.3-0.1,0.5-0.1
		c0.2,0,0.3,0.1,0.5,0.2s0.2,0.3,0.2,0.5v3.7h-0.9v-3.3c0-0.2,0-0.3-0.1-0.3c0-0.1-0.1-0.1-0.2-0.1c-0.2,0-0.4,0.1-0.6,0.3v3.5
		H140.7z"/>
	<path fill="#F7EA84" d="M144.1,63.6v-0.9h0.9v0.9H144.1z M144.1,68.6v-4.4h0.9v4.4H144.1z"/>
	<path fill="#F7EA84" d="M145.8,68.6v-6.1h0.9v6.1H145.8z"/>
	<path fill="#F7EA84" d="M148.7,68.7c-0.2,0-0.4,0-0.6-0.1c-0.2-0.1-0.3-0.2-0.4-0.3c-0.1-0.1-0.2-0.3-0.2-0.5s-0.1-0.4-0.1-0.6
		c0-0.2,0-0.4,0-0.6c0-0.2,0-0.4,0-0.6c0-0.2,0-0.4,0-0.6c0-0.2,0.1-0.3,0.1-0.5s0.1-0.3,0.2-0.4c0.1-0.1,0.2-0.2,0.4-0.3
		c0.2-0.1,0.3-0.1,0.5-0.1c0.2,0,0.4,0,0.5,0.1c0.1,0,0.3,0.1,0.4,0.2c0.1,0.1,0.2,0.2,0.2,0.3c0.1,0.1,0.1,0.3,0.1,0.4
		s0.1,0.3,0.1,0.5c0,0.2,0,0.4,0,0.6v0.1h-1.8v0.2c0,0,0,0.1,0,0.1c0,0.1,0,0.2,0,0.3c0,0.1,0,0.2,0,0.3c0,0.1,0,0.2,0,0.2
		c0,0.1,0,0.1,0.1,0.2s0.1,0.1,0.1,0.1c0.1,0,0.1,0.1,0.2,0.1c0.1,0,0.2,0,0.2-0.1s0.1-0.1,0.1-0.2c0-0.1,0-0.1,0.1-0.2s0-0.2,0-0.3
		v-0.2h0.9v0.2c0,0.5-0.1,0.8-0.3,1.1C149.5,68.6,149.1,68.7,148.7,68.7z M148.3,66h0.9v-0.3c0-0.1,0-0.2,0-0.3s0-0.2-0.1-0.3
		c0-0.1-0.1-0.2-0.1-0.2s-0.1-0.1-0.2-0.1c-0.1,0-0.2,0-0.2,0.1c-0.1,0-0.1,0.1-0.1,0.2c0,0.1,0,0.2-0.1,0.3c0,0.1,0,0.2,0,0.3V66z"
		/>
	<path fill="#F7EA84" d="M153.1,68.7c-0.2,0-0.4-0.1-0.5-0.2c-0.1-0.1-0.3-0.3-0.3-0.4c-0.1-0.2-0.1-0.4-0.2-0.6
		c0-0.2-0.1-0.4-0.1-0.7c0-0.1,0-0.4,0-0.8c0-0.2,0-0.3,0-0.4s0-0.2,0-0.4c0-0.1,0-0.2,0.1-0.4c0-0.1,0.1-0.2,0.1-0.3
		s0.1-0.2,0.2-0.2c0.1-0.1,0.2-0.1,0.3-0.1s0.2-0.1,0.3-0.1c0.1,0,0.2,0,0.3,0c0.1,0,0.2,0.1,0.2,0.1s0.1,0.1,0.2,0.1
		c0,0,0.1,0.1,0.2,0.2v-2.2h0.9v6.1H154v-0.4c-0.1,0.1-0.3,0.2-0.4,0.3C153.4,68.7,153.3,68.7,153.1,68.7z M153.3,68
		c0.2,0,0.4,0,0.7-0.1v-2.8c-0.2-0.1-0.4-0.2-0.7-0.2c-0.1,0-0.2,0-0.2,0.1s-0.1,0.1-0.1,0.2s-0.1,0.2-0.1,0.2c0,0.1,0,0.2,0,0.3
		c0,0.5,0,0.9,0,1.2c0,0.1,0,0.3,0,0.4c0,0.1,0,0.2,0.1,0.3c0,0.1,0.1,0.2,0.1,0.2C153.2,68,153.2,68,153.3,68z"/>
	<path fill="#F7EA84" d="M155.7,63.6v-0.9h0.9v0.9H155.7z M155.7,68.6v-4.4h0.9v4.4H155.7z"/>
	<path fill="#F7EA84" d="M158.1,68.6l-1-4.4h0.8l0.6,3.3l0.6-3.3h0.8l-1,4.4H158.1z"/>
	<path fill="#F7EA84" d="M160.4,63.6v-0.9h0.9v0.9H160.4z M160.4,68.6v-4.4h0.9v4.4H160.4z"/>
	<path fill="#F7EA84" d="M162.2,68.6v-4.4h0.9v0.5c0.1-0.1,0.2-0.2,0.3-0.3s0.2-0.1,0.3-0.2c0.1-0.1,0.3-0.1,0.5-0.1
		c0.2,0,0.3,0.1,0.5,0.2s0.2,0.3,0.2,0.5v3.7h-0.9v-3.3c0-0.2,0-0.3-0.1-0.3s-0.1-0.1-0.3-0.1c-0.1,0-0.1,0-0.2,0
		c-0.1,0-0.1,0.1-0.2,0.1s-0.1,0.1-0.2,0.1v3.5H162.2z"/>
	<path fill="#F7EA84" d="M166.9,70c-0.1,0-0.2,0-0.3,0s-0.2,0-0.3,0s-0.2,0-0.3,0s-0.2,0-0.3,0s-0.2,0-0.3-0.1
		c-0.1,0-0.1-0.1-0.2-0.1c-0.1,0-0.1-0.1-0.1-0.2c0-0.1,0-0.1,0-0.2c0-0.2,0.1-0.4,0.2-0.6c0.1-0.2,0.3-0.3,0.5-0.4
		c-0.1,0-0.2-0.1-0.3-0.1c-0.1-0.1-0.1-0.1-0.1-0.2c0,0,0-0.1,0-0.1c0,0,0-0.1,0-0.1s0-0.1,0.1-0.1c0,0,0-0.1,0.1-0.1
		c0,0,0-0.1,0.1-0.1s0.1-0.1,0.1-0.1c0,0,0,0,0.1-0.1c0,0,0.1-0.1,0.1-0.1c-0.3-0.3-0.4-0.8-0.4-1.3c0-0.3,0-0.6,0.1-0.8
		c0.1-0.2,0.2-0.4,0.4-0.6c0.2-0.1,0.4-0.2,0.7-0.2c0.2,0,0.3,0,0.4,0.1s0.2,0.1,0.3,0.2c0.1,0.1,0.2,0.2,0.2,0.3
		c0.2-0.3,0.4-0.5,0.7-0.5c0,0,0,0,0,0s0,0,0,0c0,0,0,0,0,0v0.7c0,0,0,0-0.1,0c-0.1,0-0.2,0-0.2,0c-0.1,0-0.1,0-0.2,0
		c-0.1,0-0.1,0-0.1,0.1c0,0.1,0.1,0.2,0.1,0.4c0,0.1,0,0.3,0,0.4c0,0.3,0,0.6-0.1,0.8c-0.1,0.2-0.2,0.4-0.4,0.6
		c-0.2,0.1-0.4,0.2-0.7,0.2l-0.4-0.1c0,0,0,0,0,0.1s0,0.1,0,0.1c0,0,0,0,0,0.1s0,0.1,0,0.1c0,0.1,0,0.1,0.1,0.2s0.1,0.1,0.2,0.1
		s0.2,0,0.3,0c0.1,0,0.2,0,0.3,0s0.2,0,0.2,0c0.1,0,0.2,0,0.3,0.1c0.1,0,0.2,0.1,0.3,0.1c0.1,0,0.2,0.1,0.3,0.2
		c0.1,0.1,0.1,0.1,0.2,0.2c0,0.1,0.1,0.2,0.1,0.3c0,0.2,0,0.3-0.1,0.4c-0.1,0.1-0.1,0.2-0.2,0.3s-0.2,0.1-0.3,0.2s-0.3,0.1-0.4,0.1
		C167.2,69.9,167.1,70,166.9,70z M166.9,69.3c0.1,0,0.1,0,0.2,0c0,0,0.1,0,0.2,0c0.1,0,0.1,0,0.2,0c0,0,0.1,0,0.1-0.1
		c0,0,0.1-0.1,0.1-0.1c0,0,0-0.1,0-0.1c0-0.2-0.2-0.4-0.7-0.4l-0.7-0.1c-0.1,0.1-0.2,0.2-0.2,0.3c-0.1,0.1-0.1,0.2-0.1,0.4
		c0,0,0,0.1,0,0.1s0.1,0,0.1,0.1c0,0,0.1,0,0.2,0c0.1,0,0.1,0,0.2,0c0.1,0,0.1,0,0.2,0s0.1,0,0.2,0
		C166.9,69.3,166.9,69.3,166.9,69.3z M166.7,66.7c0.4,0,0.5-0.3,0.5-0.9c0-0.1,0-0.2,0-0.3c0-0.1,0-0.2-0.1-0.3s-0.1-0.2-0.2-0.2
		c-0.1-0.1-0.2-0.1-0.3-0.1c-0.1,0-0.2,0-0.3,0.1c-0.1,0.1-0.1,0.1-0.2,0.2c0,0.1-0.1,0.2-0.1,0.3c0,0.1,0,0.2,0,0.3
		C166.2,66.4,166.3,66.7,166.7,66.7z"/>
</g>
<g>
	<rect x="91.3" y="100.6" fill="none" width="161.6" height="19.3"/>
	<path fill="#F7EA84" d="M92.4,106.7l-1.1-6.1h0.9l0.4,2.8l0.2,1.8l0.2-1.8l0.4-2.8h0.9l0.4,2.8l0.2,1.8l0.2-1.8l0.4-2.8h0.9
		l-1.1,6.1h-0.9l-0.4-2.8l-0.2-1.8l-0.2,1.8l-0.4,2.8H92.4z"/>
	<path fill="#F7EA84" d="M97,106.7v-6.1h0.9v2.2c0.1-0.1,0.2-0.2,0.3-0.3s0.2-0.1,0.3-0.2c0.1-0.1,0.3-0.1,0.5-0.1
		c0.2,0,0.3,0.1,0.5,0.2s0.2,0.3,0.2,0.5v3.7h-0.9v-3.3c0-0.2,0-0.3-0.1-0.3c0-0.1-0.1-0.1-0.2-0.1c-0.2,0-0.4,0.1-0.6,0.3v3.5H97z"
		/>
	<path fill="#F7EA84" d="M100.4,101.7v-0.9h0.9v0.9H100.4z M100.4,106.7v-4.4h0.9v4.4H100.4z"/>
	<path fill="#F7EA84" d="M103.4,106.8c-0.3,0-0.6-0.1-0.8-0.3c-0.2-0.2-0.2-0.4-0.2-0.8V103h-0.4v-0.7h0.4v-1.5h0.9v1.5h0.7v0.7
		h-0.7v2.6c0,0.2,0,0.3,0.1,0.4s0.1,0.1,0.3,0.1c0.1,0,0.2,0,0.3,0v0.7C103.7,106.7,103.5,106.8,103.4,106.8z"/>
	<path fill="#F7EA84" d="M105.8,106.8c-0.2,0-0.4,0-0.6-0.1c-0.2-0.1-0.3-0.2-0.4-0.3c-0.1-0.1-0.2-0.3-0.2-0.5s-0.1-0.4-0.1-0.6
		c0-0.2,0-0.4,0-0.6c0-0.2,0-0.4,0-0.6c0-0.2,0-0.4,0-0.6c0-0.2,0.1-0.3,0.1-0.5s0.1-0.3,0.2-0.4c0.1-0.1,0.2-0.2,0.4-0.3
		c0.2-0.1,0.3-0.1,0.5-0.1c0.2,0,0.4,0,0.5,0.1c0.1,0,0.3,0.1,0.4,0.2c0.1,0.1,0.2,0.2,0.2,0.3c0.1,0.1,0.1,0.3,0.1,0.4
		s0.1,0.3,0.1,0.5c0,0.2,0,0.4,0,0.6v0.1h-1.8v0.2c0,0,0,0.1,0,0.1c0,0.1,0,0.2,0,0.3c0,0.1,0,0.2,0,0.3c0,0.1,0,0.2,0,0.2
		c0,0.1,0,0.1,0.1,0.2s0.1,0.1,0.1,0.1c0.1,0,0.1,0.1,0.2,0.1c0.1,0,0.2,0,0.2-0.1s0.1-0.1,0.1-0.2c0-0.1,0-0.1,0.1-0.2s0-0.2,0-0.3
		v-0.2h0.9v0.2c0,0.5-0.1,0.8-0.3,1.1C106.5,106.6,106.2,106.8,105.8,106.8z M105.3,104.1h0.9v-0.3c0-0.1,0-0.2,0-0.3s0-0.2-0.1-0.3
		c0-0.1-0.1-0.2-0.1-0.2s-0.1-0.1-0.2-0.1c-0.1,0-0.2,0-0.2,0.1c-0.1,0-0.1,0.1-0.1,0.2c0,0.1,0,0.2-0.1,0.3c0,0.1,0,0.2,0,0.3
		V104.1z"/>
	<path fill="#F7EA84" d="M110.4,106.8c-0.3,0-0.6-0.1-0.8-0.3c-0.2-0.2-0.2-0.4-0.2-0.8V103h-0.4v-0.7h0.4v-1.5h0.9v1.5h0.7v0.7
		h-0.7v2.6c0,0.2,0,0.3,0.1,0.4s0.1,0.1,0.3,0.1c0.1,0,0.2,0,0.3,0v0.7C110.7,106.7,110.5,106.8,110.4,106.8z"/>
	<path fill="#F7EA84" d="M111.5,106.7v-6.1h0.9v2.2c0.1-0.1,0.2-0.2,0.3-0.3s0.2-0.1,0.3-0.2c0.1-0.1,0.3-0.1,0.5-0.1
		c0.2,0,0.3,0.1,0.5,0.2s0.2,0.3,0.2,0.5v3.7h-0.9v-3.3c0-0.2,0-0.3-0.1-0.3c0-0.1-0.1-0.1-0.2-0.1c-0.2,0-0.4,0.1-0.6,0.3v3.5
		H111.5z"/>
	<path fill="#F7EA84" d="M114.9,106.7v-4.4h0.9v0.6c0.1-0.2,0.2-0.3,0.4-0.5c0.2-0.1,0.4-0.2,0.6-0.2c0,0,0.1,0,0.1,0v1
		c-0.2-0.1-0.3-0.1-0.5-0.1c-0.2,0-0.3,0.1-0.4,0.2s-0.2,0.3-0.2,0.4v3H114.9z"/>
	<path fill="#F7EA84" d="M119.5,106.3c-0.2,0.3-0.5,0.4-1,0.4s-0.8-0.1-1-0.4s-0.3-0.7-0.3-1.2v-1.3c0-0.5,0.1-0.9,0.3-1.2
		s0.5-0.4,1-0.4s0.8,0.1,1,0.4s0.3,0.7,0.3,1.2v1.3C119.8,105.7,119.7,106.1,119.5,106.3z M118.3,106c0,0,0.1,0,0.2,0s0.1,0,0.2,0
		c0,0,0.1,0,0.1-0.1c0,0,0.1-0.1,0.1-0.1c0-0.1,0-0.1,0-0.1c0,0,0-0.1,0-0.2s0-0.1,0-0.2c0,0,0-0.1,0-0.2v-1.3c0-0.1,0-0.1,0-0.2
		c0,0,0-0.1,0-0.2s0-0.1,0-0.2c0,0,0-0.1,0-0.1c0-0.1,0-0.1-0.1-0.1c0,0-0.1,0-0.1-0.1c0,0-0.1,0-0.2,0s-0.1,0-0.2,0
		c0,0-0.1,0-0.1,0.1c0,0-0.1,0.1-0.1,0.1c0,0.1,0,0.1,0,0.1c0,0,0,0.1,0,0.2s0,0.1,0,0.2c0,0,0,0.1,0,0.2v1.3c0,0.1,0,0.1,0,0.2
		c0,0,0,0.1,0,0.2s0,0.1,0,0.2c0,0,0,0.1,0,0.1c0,0.1,0,0.1,0.1,0.1C118.2,106,118.3,106,118.3,106z"/>
	<path fill="#F7EA84" d="M121.3,106.8c-0.2,0-0.5-0.1-0.6-0.3c-0.2-0.2-0.3-0.4-0.3-0.7c0-0.2,0-0.4,0.1-0.6
		c0.1-0.2,0.1-0.3,0.2-0.4s0.2-0.2,0.4-0.3s0.3-0.2,0.4-0.2s0.3-0.1,0.5-0.2c0,0,0.1,0,0.1,0v-0.3c0-0.2,0-0.4-0.1-0.5
		s-0.2-0.2-0.3-0.2c-0.2,0-0.3,0.1-0.3,0.2c-0.1,0.1-0.1,0.2-0.1,0.4c0,0,0,0.1,0,0.1h-0.9c0-0.4,0.1-0.8,0.4-1
		c0.2-0.2,0.6-0.4,1-0.4c0.4,0,0.7,0.1,1,0.4c0.2,0.3,0.4,0.6,0.4,1v2c0,0.5,0,0.8,0.1,1.1h-0.9l-0.1-0.7c0,0.1-0.1,0.2-0.1,0.2
		c0,0-0.1,0.1-0.1,0.2s-0.1,0.1-0.2,0.2s-0.1,0.1-0.2,0.1C121.5,106.7,121.4,106.8,121.3,106.8z M121.7,106c0.1,0,0.1,0,0.2-0.1
		c0.1,0,0.1-0.1,0.1-0.1c0,0,0.1-0.1,0.1-0.1c0,0,0,0,0,0v-1.2c0,0-0.1,0.1-0.2,0.1s-0.2,0.1-0.2,0.1s-0.1,0.1-0.2,0.1
		c-0.1,0.1-0.1,0.1-0.2,0.2s-0.1,0.1-0.1,0.2s0,0.2,0,0.2C121.3,105.9,121.4,106,121.7,106z"/>
	<path fill="#F7EA84" d="M124.9,106.8c-0.3,0-0.6-0.1-0.8-0.3c-0.2-0.2-0.2-0.4-0.2-0.8V103h-0.4v-0.7h0.4v-1.5h0.9v1.5h0.7v0.7
		h-0.7v2.6c0,0.2,0,0.3,0.1,0.4s0.1,0.1,0.3,0.1c0.1,0,0.2,0,0.3,0v0.7C125.2,106.7,125,106.8,124.9,106.8z"/>
	<path fill="#F7EA84" d="M127.3,106.8c-0.2,0-0.4,0-0.6-0.1c-0.2-0.1-0.3-0.2-0.4-0.3c-0.1-0.1-0.2-0.3-0.2-0.5s-0.1-0.4-0.1-0.6
		c0-0.2,0-0.4,0-0.6c0-0.2,0-0.4,0-0.6c0-0.2,0-0.4,0-0.6c0-0.2,0.1-0.3,0.1-0.5s0.1-0.3,0.2-0.4c0.1-0.1,0.2-0.2,0.4-0.3
		c0.2-0.1,0.3-0.1,0.5-0.1c0.2,0,0.4,0,0.5,0.1c0.1,0,0.3,0.1,0.4,0.2c0.1,0.1,0.2,0.2,0.2,0.3c0.1,0.1,0.1,0.3,0.1,0.4
		s0.1,0.3,0.1,0.5c0,0.2,0,0.4,0,0.6v0.1h-1.8v0.2c0,0,0,0.1,0,0.1c0,0.1,0,0.2,0,0.3c0,0.1,0,0.2,0,0.3c0,0.1,0,0.2,0,0.2
		c0,0.1,0,0.1,0.1,0.2s0.1,0.1,0.1,0.1c0.1,0,0.1,0.1,0.2,0.1c0.1,0,0.2,0,0.2-0.1s0.1-0.1,0.1-0.2c0-0.1,0-0.1,0.1-0.2s0-0.2,0-0.3
		v-0.2h0.9v0.2c0,0.5-0.1,0.8-0.3,1.1C128,106.6,127.7,106.8,127.3,106.8z M126.8,104.1h0.9v-0.3c0-0.1,0-0.2,0-0.3s0-0.2-0.1-0.3
		c0-0.1-0.1-0.2-0.1-0.2s-0.1-0.1-0.2-0.1c-0.1,0-0.2,0-0.2,0.1c-0.1,0-0.1,0.1-0.1,0.2c0,0.1,0,0.2-0.1,0.3c0,0.1,0,0.2,0,0.3
		V104.1z"/>
	<path fill="#F7EA84" d="M130.2,106.8c-0.2,0-0.4-0.1-0.5-0.2c-0.1-0.1-0.3-0.3-0.3-0.4c-0.1-0.2-0.1-0.4-0.2-0.6
		c0-0.2-0.1-0.4-0.1-0.7c0-0.1,0-0.4,0-0.8c0-0.2,0-0.3,0-0.4s0-0.2,0-0.4c0-0.1,0-0.2,0.1-0.4c0-0.1,0.1-0.2,0.1-0.3
		s0.1-0.2,0.2-0.2c0.1-0.1,0.2-0.1,0.3-0.1s0.2-0.1,0.3-0.1c0.1,0,0.2,0,0.3,0c0.1,0,0.2,0.1,0.2,0.1s0.1,0.1,0.2,0.1
		c0,0,0.1,0.1,0.2,0.2v-2.2h0.9v6.1h-0.9v-0.4c-0.1,0.1-0.3,0.2-0.4,0.3C130.6,106.7,130.4,106.8,130.2,106.8z M130.5,106
		c0.2,0,0.4,0,0.7-0.1v-2.8c-0.2-0.1-0.4-0.2-0.7-0.2c-0.1,0-0.2,0-0.2,0.1s-0.1,0.1-0.1,0.2s-0.1,0.2-0.1,0.2c0,0.1,0,0.2,0,0.3
		c0,0.5,0,0.9,0,1.2c0,0.1,0,0.3,0,0.4c0,0.1,0,0.2,0.1,0.3c0,0.1,0.1,0.2,0.1,0.2C130.3,106,130.4,106,130.5,106z"/>
	<path fill="#F7EA84" d="M134.2,106.7v-4.4h0.9v0.5c0.1-0.1,0.2-0.2,0.3-0.3s0.2-0.1,0.3-0.2c0.1-0.1,0.3-0.1,0.5-0.1
		c0.2,0,0.3,0.1,0.5,0.2s0.2,0.3,0.2,0.5v3.7H136v-3.3c0-0.2,0-0.3-0.1-0.3s-0.1-0.1-0.3-0.1c-0.1,0-0.1,0-0.2,0
		c-0.1,0-0.1,0.1-0.2,0.1s-0.1,0.1-0.2,0.1v3.5H134.2z"/>
	<path fill="#F7EA84" d="M138.9,106.8c-0.2,0-0.4,0-0.6-0.1c-0.2-0.1-0.3-0.2-0.4-0.3c-0.1-0.1-0.2-0.3-0.2-0.5s-0.1-0.4-0.1-0.6
		c0-0.2,0-0.4,0-0.6c0-0.2,0-0.4,0-0.6c0-0.2,0-0.4,0-0.6c0-0.2,0.1-0.3,0.1-0.5s0.1-0.3,0.2-0.4c0.1-0.1,0.2-0.2,0.4-0.3
		c0.2-0.1,0.3-0.1,0.5-0.1c0.2,0,0.4,0,0.5,0.1c0.1,0,0.3,0.1,0.4,0.2c0.1,0.1,0.2,0.2,0.2,0.3c0.1,0.1,0.1,0.3,0.1,0.4
		s0.1,0.3,0.1,0.5c0,0.2,0,0.4,0,0.6v0.1h-1.8v0.2c0,0,0,0.1,0,0.1c0,0.1,0,0.2,0,0.3c0,0.1,0,0.2,0,0.3c0,0.1,0,0.2,0,0.2
		c0,0.1,0,0.1,0.1,0.2s0.1,0.1,0.1,0.1c0.1,0,0.1,0.1,0.2,0.1c0.1,0,0.2,0,0.2-0.1s0.1-0.1,0.1-0.2c0-0.1,0-0.1,0.1-0.2s0-0.2,0-0.3
		v-0.2h0.9v0.2c0,0.5-0.1,0.8-0.3,1.1C139.6,106.6,139.3,106.8,138.9,106.8z M138.4,104.1h0.9v-0.3c0-0.1,0-0.2,0-0.3s0-0.2-0.1-0.3
		c0-0.1-0.1-0.2-0.1-0.2s-0.1-0.1-0.2-0.1c-0.1,0-0.2,0-0.2,0.1c-0.1,0-0.1,0.1-0.1,0.2c0,0.1,0,0.2-0.1,0.3c0,0.1,0,0.2,0,0.3
		V104.1z"/>
	<path fill="#F7EA84" d="M142.1,106.8c-0.2,0-0.4,0-0.6-0.1c-0.2-0.1-0.3-0.2-0.4-0.3c-0.1-0.1-0.2-0.3-0.2-0.5s-0.1-0.4-0.1-0.6
		c0-0.2,0-0.4,0-0.6c0-0.2,0-0.4,0-0.6c0-0.2,0-0.4,0-0.6c0-0.2,0.1-0.3,0.1-0.5s0.1-0.3,0.2-0.4c0.1-0.1,0.2-0.2,0.4-0.3
		c0.2-0.1,0.3-0.1,0.5-0.1c0.2,0,0.4,0,0.5,0.1c0.1,0,0.3,0.1,0.4,0.2c0.1,0.1,0.2,0.2,0.2,0.3c0.1,0.1,0.1,0.3,0.1,0.4
		s0.1,0.3,0.1,0.5c0,0.2,0,0.4,0,0.6v0.1h-1.8v0.2c0,0,0,0.1,0,0.1c0,0.1,0,0.2,0,0.3c0,0.1,0,0.2,0,0.3c0,0.1,0,0.2,0,0.2
		c0,0.1,0,0.1,0.1,0.2s0.1,0.1,0.1,0.1c0.1,0,0.1,0.1,0.2,0.1c0.1,0,0.2,0,0.2-0.1s0.1-0.1,0.1-0.2c0-0.1,0-0.1,0.1-0.2s0-0.2,0-0.3
		v-0.2h0.9v0.2c0,0.5-0.1,0.8-0.3,1.1C142.8,106.6,142.5,106.8,142.1,106.8z M141.6,104.1h0.9v-0.3c0-0.1,0-0.2,0-0.3s0-0.2-0.1-0.3
		c0-0.1-0.1-0.2-0.1-0.2s-0.1-0.1-0.2-0.1c-0.1,0-0.2,0-0.2,0.1c-0.1,0-0.1,0.1-0.1,0.2c0,0.1,0,0.2-0.1,0.3c0,0.1,0,0.2,0,0.3
		V104.1z"/>
	<path fill="#F7EA84" d="M145,106.8c-0.2,0-0.4-0.1-0.5-0.2c-0.1-0.1-0.3-0.3-0.3-0.4c-0.1-0.2-0.1-0.4-0.2-0.6
		c0-0.2-0.1-0.4-0.1-0.7c0-0.1,0-0.4,0-0.8c0-0.2,0-0.3,0-0.4s0-0.2,0-0.4c0-0.1,0-0.2,0.1-0.4c0-0.1,0.1-0.2,0.1-0.3
		s0.1-0.2,0.2-0.2c0.1-0.1,0.2-0.1,0.3-0.1s0.2-0.1,0.3-0.1c0.1,0,0.2,0,0.3,0c0.1,0,0.2,0.1,0.2,0.1s0.1,0.1,0.2,0.1
		c0,0,0.1,0.1,0.2,0.2v-2.2h0.9v6.1h-0.9v-0.4c-0.1,0.1-0.3,0.2-0.4,0.3C145.4,106.7,145.2,106.8,145,106.8z M145.2,106
		c0.2,0,0.4,0,0.7-0.1v-2.8c-0.2-0.1-0.4-0.2-0.7-0.2c-0.1,0-0.2,0-0.2,0.1s-0.1,0.1-0.1,0.2s-0.1,0.2-0.1,0.2c0,0.1,0,0.2,0,0.3
		c0,0.5,0,0.9,0,1.2c0,0.1,0,0.3,0,0.4c0,0.1,0,0.2,0.1,0.3c0,0.1,0.1,0.2,0.1,0.2C145.1,106,145.2,106,145.2,106z"/>
	<path fill="#F7EA84" d="M147.6,106.7v-6.1h0.9v6.1H147.6z"/>
	<path fill="#F7EA84" d="M150.5,106.8c-0.2,0-0.4,0-0.6-0.1c-0.2-0.1-0.3-0.2-0.4-0.3c-0.1-0.1-0.2-0.3-0.2-0.5s-0.1-0.4-0.1-0.6
		c0-0.2,0-0.4,0-0.6c0-0.2,0-0.4,0-0.6c0-0.2,0-0.4,0-0.6c0-0.2,0.1-0.3,0.1-0.5s0.1-0.3,0.2-0.4c0.1-0.1,0.2-0.2,0.4-0.3
		c0.2-0.1,0.3-0.1,0.5-0.1c0.2,0,0.4,0,0.5,0.1c0.1,0,0.3,0.1,0.4,0.2c0.1,0.1,0.2,0.2,0.2,0.3c0.1,0.1,0.1,0.3,0.1,0.4
		s0.1,0.3,0.1,0.5c0,0.2,0,0.4,0,0.6v0.1h-1.8v0.2c0,0,0,0.1,0,0.1c0,0.1,0,0.2,0,0.3c0,0.1,0,0.2,0,0.3c0,0.1,0,0.2,0,0.2
		c0,0.1,0,0.1,0.1,0.2s0.1,0.1,0.1,0.1c0.1,0,0.1,0.1,0.2,0.1c0.1,0,0.2,0,0.2-0.1s0.1-0.1,0.1-0.2c0-0.1,0-0.1,0.1-0.2s0-0.2,0-0.3
		v-0.2h0.9v0.2c0,0.5-0.1,0.8-0.3,1.1C151.2,106.6,150.9,106.8,150.5,106.8z M150.1,104.1h0.9v-0.3c0-0.1,0-0.2,0-0.3s0-0.2-0.1-0.3
		c0-0.1-0.1-0.2-0.1-0.2s-0.1-0.1-0.2-0.1c-0.1,0-0.2,0-0.2,0.1c-0.1,0-0.1,0.1-0.1,0.2c0,0.1,0,0.2-0.1,0.3c0,0.1,0,0.2,0,0.3
		V104.1z"/>
	<path fill="#F7EA84" d="M155.1,106.8c-0.3,0-0.6-0.1-0.8-0.3c-0.2-0.2-0.2-0.4-0.2-0.8V103h-0.4v-0.7h0.4v-1.5h0.9v1.5h0.7v0.7H155
		v2.6c0,0.2,0,0.3,0.1,0.4s0.1,0.1,0.3,0.1c0.1,0,0.2,0,0.3,0v0.7C155.4,106.7,155.2,106.8,155.1,106.8z"/>
	<path fill="#F7EA84" d="M157,106.8c-0.2,0-0.5-0.1-0.6-0.3c-0.2-0.2-0.3-0.4-0.3-0.7c0-0.2,0-0.4,0.1-0.6c0.1-0.2,0.1-0.3,0.2-0.4
		s0.2-0.2,0.4-0.3s0.3-0.2,0.4-0.2s0.3-0.1,0.5-0.2c0,0,0.1,0,0.1,0v-0.3c0-0.2,0-0.4-0.1-0.5s-0.2-0.2-0.3-0.2
		c-0.2,0-0.3,0.1-0.3,0.2c-0.1,0.1-0.1,0.2-0.1,0.4c0,0,0,0.1,0,0.1h-0.9c0-0.4,0.1-0.8,0.4-1c0.2-0.2,0.6-0.4,1-0.4
		c0.4,0,0.7,0.1,1,0.4c0.2,0.3,0.4,0.6,0.4,1v2c0,0.5,0,0.8,0.1,1.1H158l-0.1-0.7c0,0.1-0.1,0.2-0.1,0.2c0,0-0.1,0.1-0.1,0.2
		s-0.1,0.1-0.2,0.2s-0.1,0.1-0.2,0.1C157.2,106.7,157.1,106.8,157,106.8z M157.5,106c0.1,0,0.1,0,0.2-0.1c0.1,0,0.1-0.1,0.1-0.1
		c0,0,0.1-0.1,0.1-0.1c0,0,0,0,0,0v-1.2c0,0-0.1,0.1-0.2,0.1s-0.2,0.1-0.2,0.1s-0.1,0.1-0.2,0.1c-0.1,0.1-0.1,0.1-0.2,0.2
		s-0.1,0.1-0.1,0.2s0,0.2,0,0.2C157,105.9,157.2,106,157.5,106z"/>
	<path fill="#F7EA84" d="M159.6,101.7v-0.9h0.9v0.9H159.6z M159.6,106.7v-4.4h0.9v4.4H159.6z"/>
	<path fill="#F7EA84" d="M161.3,106.7v-6.1h0.9v6.1H161.3z"/>
	<path fill="#F7EA84" d="M164.4,101.7v-0.9h0.9v0.9H164.4z M164.4,106.7v-4.4h0.9v4.4H164.4z"/>
	<path fill="#F7EA84" d="M167.2,106.8c-0.4,0-0.6-0.1-0.9-0.3c-0.2-0.2-0.4-0.5-0.4-0.8l0.7-0.2c0.2,0.4,0.4,0.7,0.7,0.7
		c0.1,0,0.2,0,0.3-0.1c0.1-0.1,0.1-0.2,0.1-0.3c0-0.2-0.1-0.4-0.2-0.5l-0.9-0.7c-0.1-0.1-0.2-0.1-0.2-0.2c-0.1-0.1-0.1-0.1-0.2-0.2
		c-0.1-0.1-0.1-0.2-0.2-0.3c0-0.1-0.1-0.2-0.1-0.3c0-0.4,0.1-0.7,0.4-0.9c0.2-0.2,0.6-0.3,1-0.3c0.2,0,0.4,0,0.5,0.1
		s0.3,0.1,0.4,0.3c0.1,0.1,0.2,0.2,0.3,0.4c0.1,0.1,0.1,0.3,0.2,0.4l-0.7,0.2c0-0.1-0.1-0.2-0.1-0.2s-0.1-0.1-0.1-0.2
		c-0.1-0.1-0.1-0.1-0.2-0.2s-0.2-0.1-0.2-0.1c-0.1,0-0.2,0-0.3,0.1c-0.1,0.1-0.1,0.2-0.1,0.3c0,0.1,0.1,0.3,0.2,0.4l0.9,0.7
		c0.1,0.1,0.2,0.2,0.3,0.2c0.1,0.1,0.1,0.2,0.2,0.2s0.1,0.2,0.2,0.3c0,0.1,0.1,0.2,0.1,0.4c0,0.4-0.1,0.7-0.4,0.9
		C168,106.7,167.6,106.8,167.2,106.8z"/>
	<path fill="#F7EA84" d="M171.7,106.8c-0.3,0-0.6-0.1-0.8-0.3c-0.2-0.2-0.2-0.4-0.2-0.8V103h-0.4v-0.7h0.4v-1.5h0.9v1.5h0.7v0.7
		h-0.7v2.6c0,0.2,0,0.3,0.1,0.4s0.1,0.1,0.3,0.1c0.1,0,0.2,0,0.3,0v0.7C172,106.7,171.9,106.8,171.7,106.8z"/>
	<path fill="#F7EA84" d="M172.9,106.7v-6.1h0.9v2.2c0.1-0.1,0.2-0.2,0.3-0.3s0.2-0.1,0.3-0.2c0.1-0.1,0.3-0.1,0.5-0.1
		c0.2,0,0.3,0.1,0.5,0.2s0.2,0.3,0.2,0.5v3.7h-0.9v-3.3c0-0.2,0-0.3-0.1-0.3c0-0.1-0.1-0.1-0.2-0.1c-0.2,0-0.4,0.1-0.6,0.3v3.5
		H172.9z"/>
	<path fill="#F7EA84" d="M177.5,106.8c-0.2,0-0.4,0-0.6-0.1c-0.2-0.1-0.3-0.2-0.4-0.3c-0.1-0.1-0.2-0.3-0.2-0.5s-0.1-0.4-0.1-0.6
		c0-0.2,0-0.4,0-0.6c0-0.2,0-0.4,0-0.6c0-0.2,0-0.4,0-0.6c0-0.2,0.1-0.3,0.1-0.5s0.1-0.3,0.2-0.4c0.1-0.1,0.2-0.2,0.4-0.3
		c0.2-0.1,0.3-0.1,0.5-0.1c0.2,0,0.4,0,0.5,0.1c0.1,0,0.3,0.1,0.4,0.2c0.1,0.1,0.2,0.2,0.2,0.3c0.1,0.1,0.1,0.3,0.1,0.4
		s0.1,0.3,0.1,0.5c0,0.2,0,0.4,0,0.6v0.1h-1.8v0.2c0,0,0,0.1,0,0.1c0,0.1,0,0.2,0,0.3c0,0.1,0,0.2,0,0.3c0,0.1,0,0.2,0,0.2
		c0,0.1,0,0.1,0.1,0.2s0.1,0.1,0.1,0.1c0.1,0,0.1,0.1,0.2,0.1c0.1,0,0.2,0,0.2-0.1s0.1-0.1,0.1-0.2c0-0.1,0-0.1,0.1-0.2s0-0.2,0-0.3
		v-0.2h0.9v0.2c0,0.5-0.1,0.8-0.3,1.1C178.3,106.6,178,106.8,177.5,106.8z M177.1,104.1h0.9v-0.3c0-0.1,0-0.2,0-0.3s0-0.2-0.1-0.3
		c0-0.1-0.1-0.2-0.1-0.2s-0.1-0.1-0.2-0.1c-0.1,0-0.2,0-0.2,0.1c-0.1,0-0.1,0.1-0.1,0.2c0,0.1,0,0.2-0.1,0.3c0,0.1,0,0.2,0,0.3
		V104.1z"/>
	<path fill="#F7EA84" d="M181.1,106.7V103h-0.4v-0.7h0.4v-0.2c0-0.2,0-0.3,0-0.5s0-0.3,0.1-0.4c0-0.1,0.1-0.2,0.2-0.3
		c0.1-0.1,0.2-0.1,0.3-0.2c0.1,0,0.3-0.1,0.4-0.1c0.1,0,0.3,0,0.5,0v0.6c0,0-0.1,0-0.1,0c-0.1,0-0.1,0-0.2,0c-0.1,0-0.2,0-0.3,0.1
		c0,0.1-0.1,0.2-0.1,0.4v0.3h0.7v0.7H182v3.7H181.1z"/>
	<path fill="#F7EA84" d="M183.8,106.8c-0.2,0-0.5-0.1-0.6-0.3c-0.2-0.2-0.3-0.4-0.3-0.7c0-0.2,0-0.4,0.1-0.6
		c0.1-0.2,0.1-0.3,0.2-0.4s0.2-0.2,0.4-0.3s0.3-0.2,0.4-0.2s0.3-0.1,0.5-0.2c0,0,0.1,0,0.1,0v-0.3c0-0.2,0-0.4-0.1-0.5
		s-0.2-0.2-0.3-0.2c-0.2,0-0.3,0.1-0.3,0.2c-0.1,0.1-0.1,0.2-0.1,0.4c0,0,0,0.1,0,0.1H183c0-0.4,0.1-0.8,0.4-1
		c0.2-0.2,0.6-0.4,1-0.4c0.4,0,0.7,0.1,1,0.4c0.2,0.3,0.4,0.6,0.4,1v2c0,0.5,0,0.8,0.1,1.1h-0.9l-0.1-0.7c0,0.1-0.1,0.2-0.1,0.2
		c0,0-0.1,0.1-0.1,0.2s-0.1,0.1-0.2,0.2s-0.1,0.1-0.2,0.1C184,106.7,183.9,106.8,183.8,106.8z M184.3,106c0.1,0,0.1,0,0.2-0.1
		c0.1,0,0.1-0.1,0.1-0.1c0,0,0.1-0.1,0.1-0.1c0,0,0,0,0,0v-1.2c0,0-0.1,0.1-0.2,0.1s-0.2,0.1-0.2,0.1s-0.1,0.1-0.2,0.1
		c-0.1,0.1-0.1,0.1-0.2,0.2s-0.1,0.1-0.1,0.2s0,0.2,0,0.2C183.8,105.9,184,106,184.3,106z"/>
	<path fill="#F7EA84" d="M187.5,106.8c-0.4,0-0.6-0.1-0.9-0.3c-0.2-0.2-0.4-0.5-0.4-0.8l0.7-0.2c0.2,0.4,0.4,0.7,0.7,0.7
		c0.1,0,0.2,0,0.3-0.1c0.1-0.1,0.1-0.2,0.1-0.3c0-0.2-0.1-0.4-0.2-0.5l-0.9-0.7c-0.1-0.1-0.2-0.1-0.2-0.2c-0.1-0.1-0.1-0.1-0.2-0.2
		c-0.1-0.1-0.1-0.2-0.2-0.3c0-0.1-0.1-0.2-0.1-0.3c0-0.4,0.1-0.7,0.4-0.9c0.2-0.2,0.6-0.3,1-0.3c0.2,0,0.4,0,0.5,0.1
		s0.3,0.1,0.4,0.3c0.1,0.1,0.2,0.2,0.3,0.4c0.1,0.1,0.1,0.3,0.2,0.4l-0.7,0.2c0-0.1-0.1-0.2-0.1-0.2s-0.1-0.1-0.1-0.2
		c-0.1-0.1-0.1-0.1-0.2-0.2s-0.2-0.1-0.2-0.1c-0.1,0-0.2,0-0.3,0.1c-0.1,0.1-0.1,0.2-0.1,0.3c0,0.1,0.1,0.3,0.2,0.4l0.9,0.7
		c0.1,0.1,0.2,0.2,0.3,0.2c0.1,0.1,0.1,0.2,0.2,0.2s0.1,0.2,0.2,0.3c0,0.1,0.1,0.2,0.1,0.4c0,0.4-0.1,0.7-0.4,0.9
		C188.2,106.7,187.9,106.8,187.5,106.8z"/>
	<path fill="#F7EA84" d="M190.5,106.8c-0.3,0-0.6-0.1-0.8-0.3c-0.2-0.2-0.2-0.4-0.2-0.8V103h-0.4v-0.7h0.4v-1.5h0.9v1.5h0.7v0.7
		h-0.7v2.6c0,0.2,0,0.3,0.1,0.4s0.1,0.1,0.3,0.1c0.1,0,0.2,0,0.3,0v0.7C190.9,106.7,190.7,106.8,190.5,106.8z"/>
	<path fill="#F7EA84" d="M192.9,106.8c-0.2,0-0.4,0-0.6-0.1c-0.2-0.1-0.3-0.2-0.4-0.3c-0.1-0.1-0.2-0.3-0.2-0.5s-0.1-0.4-0.1-0.6
		c0-0.2,0-0.4,0-0.6c0-0.2,0-0.4,0-0.6c0-0.2,0-0.4,0-0.6c0-0.2,0.1-0.3,0.1-0.5s0.1-0.3,0.2-0.4c0.1-0.1,0.2-0.2,0.4-0.3
		c0.2-0.1,0.3-0.1,0.5-0.1c0.2,0,0.4,0,0.5,0.1c0.1,0,0.3,0.1,0.4,0.2c0.1,0.1,0.2,0.2,0.2,0.3c0.1,0.1,0.1,0.3,0.1,0.4
		s0.1,0.3,0.1,0.5c0,0.2,0,0.4,0,0.6v0.1h-1.8v0.2c0,0,0,0.1,0,0.1c0,0.1,0,0.2,0,0.3c0,0.1,0,0.2,0,0.3c0,0.1,0,0.2,0,0.2
		c0,0.1,0,0.1,0.1,0.2s0.1,0.1,0.1,0.1c0.1,0,0.1,0.1,0.2,0.1c0.1,0,0.2,0,0.2-0.1s0.1-0.1,0.1-0.2c0-0.1,0-0.1,0.1-0.2s0-0.2,0-0.3
		v-0.2h0.9v0.2c0,0.5-0.1,0.8-0.3,1.1C193.7,106.6,193.4,106.8,192.9,106.8z M192.5,104.1h0.9v-0.3c0-0.1,0-0.2,0-0.3s0-0.2-0.1-0.3
		c0-0.1-0.1-0.2-0.1-0.2s-0.1-0.1-0.2-0.1c-0.1,0-0.2,0-0.2,0.1c-0.1,0-0.1,0.1-0.1,0.2c0,0.1,0,0.2-0.1,0.3c0,0.1,0,0.2,0,0.3
		V104.1z"/>
	<path fill="#F7EA84" d="M196,106.8c-0.4,0-0.6-0.1-0.9-0.3c-0.2-0.2-0.4-0.5-0.4-0.8l0.7-0.2c0.2,0.4,0.4,0.7,0.7,0.7
		c0.1,0,0.2,0,0.3-0.1c0.1-0.1,0.1-0.2,0.1-0.3c0-0.2-0.1-0.4-0.2-0.5l-0.9-0.7c-0.1-0.1-0.2-0.1-0.2-0.2c-0.1-0.1-0.1-0.1-0.2-0.2
		c-0.1-0.1-0.1-0.2-0.2-0.3c0-0.1-0.1-0.2-0.1-0.3c0-0.4,0.1-0.7,0.4-0.9c0.2-0.2,0.6-0.3,1-0.3c0.2,0,0.4,0,0.5,0.1
		s0.3,0.1,0.4,0.3c0.1,0.1,0.2,0.2,0.3,0.4c0.1,0.1,0.1,0.3,0.2,0.4l-0.7,0.2c0-0.1-0.1-0.2-0.1-0.2s-0.1-0.1-0.1-0.2
		c-0.1-0.1-0.1-0.1-0.2-0.2s-0.2-0.1-0.2-0.1c-0.1,0-0.2,0-0.3,0.1c-0.1,0.1-0.1,0.2-0.1,0.3c0,0.1,0.1,0.3,0.2,0.4l0.9,0.7
		c0.1,0.1,0.2,0.2,0.3,0.2c0.1,0.1,0.1,0.2,0.2,0.2s0.1,0.2,0.2,0.3c0,0.1,0.1,0.2,0.1,0.4c0,0.4-0.1,0.7-0.4,0.9
		C196.8,106.7,196.4,106.8,196,106.8z"/>
	<path fill="#F7EA84" d="M199.1,106.8c-0.3,0-0.6-0.1-0.8-0.3c-0.2-0.2-0.2-0.4-0.2-0.8V103h-0.4v-0.7h0.4v-1.5h0.9v1.5h0.7v0.7H199
		v2.6c0,0.2,0,0.3,0.1,0.4s0.1,0.1,0.3,0.1c0.1,0,0.2,0,0.3,0v0.7C199.4,106.7,199.2,106.8,199.1,106.8z"/>
	<path fill="#F7EA84" d="M201.9,106.7V103h-0.4v-0.7h0.4v-0.2c0-0.2,0-0.3,0-0.5s0-0.3,0.1-0.4c0-0.1,0.1-0.2,0.2-0.3
		c0.1-0.1,0.2-0.1,0.3-0.2c0.1,0,0.3-0.1,0.4-0.1c0.1,0,0.3,0,0.5,0v0.6c0,0-0.1,0-0.1,0c-0.1,0-0.1,0-0.2,0c-0.1,0-0.2,0-0.3,0.1
		c0,0.1-0.1,0.2-0.1,0.4v0.3h0.7v0.7h-0.7v3.7H201.9z"/>
	<path fill="#F7EA84" d="M203.9,106.7v-6.1h0.9v6.1H203.9z"/>
	<path fill="#F7EA84" d="M205.4,107.8v-0.7c0.2,0,0.3,0,0.4,0c0.1,0,0.2-0.1,0.2-0.1c0.1-0.1,0.1-0.1,0.1-0.2c0-0.1,0-0.2,0-0.3
		l-1-4.2h0.9c0.3,1.9,0.5,2.9,0.6,3.1c0-0.3,0.1-0.6,0.2-1c0.1-0.3,0.1-0.7,0.2-1.1c0.1-0.4,0.1-0.7,0.2-1h0.9l-1.1,4.6
		c-0.1,0.3-0.2,0.5-0.5,0.7C206.2,107.7,205.9,107.8,205.4,107.8L205.4,107.8z"/>
	<path fill="#F7EA84" d="M208.5,101.7v-0.9h0.9v0.9H208.5z M208.5,106.7v-4.4h0.9v4.4H208.5z"/>
	<path fill="#F7EA84" d="M210.3,106.7v-4.4h0.9v0.5c0.1-0.1,0.2-0.2,0.3-0.3s0.2-0.1,0.3-0.2c0.1-0.1,0.3-0.1,0.5-0.1
		c0.2,0,0.3,0.1,0.5,0.2s0.2,0.3,0.2,0.5v3.7H212v-3.3c0-0.2,0-0.3-0.1-0.3c0-0.1-0.1-0.1-0.3-0.1c-0.1,0-0.2,0-0.2,0
		c-0.1,0-0.1,0.1-0.2,0.1c0,0-0.1,0.1-0.2,0.1v3.5H210.3z"/>
	<path fill="#F7EA84" d="M215,108c-0.1,0-0.2,0-0.3,0s-0.2,0-0.3,0c-0.1,0-0.2,0-0.3,0c-0.1,0-0.2,0-0.3,0s-0.2,0-0.3-0.1
		s-0.1-0.1-0.2-0.1c-0.1,0-0.1-0.1-0.1-0.2c0-0.1,0-0.1,0-0.2c0-0.2,0.1-0.4,0.2-0.6c0.1-0.2,0.3-0.3,0.5-0.4
		c-0.1,0-0.2-0.1-0.3-0.1c-0.1-0.1-0.1-0.1-0.1-0.2c0,0,0-0.1,0-0.1c0,0,0-0.1,0-0.1c0,0,0-0.1,0.1-0.1c0,0,0-0.1,0.1-0.1
		s0-0.1,0.1-0.1s0.1-0.1,0.1-0.1c0,0,0,0,0.1-0.1c0,0,0.1-0.1,0.1-0.1c-0.3-0.3-0.4-0.8-0.4-1.3c0-0.3,0-0.6,0.1-0.8
		c0.1-0.2,0.2-0.4,0.4-0.6c0.2-0.1,0.4-0.2,0.7-0.2c0.2,0,0.3,0,0.4,0.1c0.1,0,0.2,0.1,0.3,0.2s0.2,0.2,0.2,0.3
		c0.2-0.3,0.4-0.5,0.7-0.5c0,0,0,0,0,0s0,0,0,0c0,0,0,0,0,0v0.7c0,0,0,0-0.1,0c-0.1,0-0.2,0-0.2,0c-0.1,0-0.1,0-0.2,0
		c-0.1,0-0.1,0-0.1,0.1c0,0.1,0.1,0.2,0.1,0.4c0,0.1,0,0.3,0,0.4c0,0.3,0,0.6-0.1,0.8c-0.1,0.2-0.2,0.4-0.4,0.6
		c-0.2,0.1-0.4,0.2-0.7,0.2l-0.4-0.1c0,0,0,0,0,0.1c0,0,0,0.1,0,0.1c0,0,0,0,0,0.1c0,0,0,0.1,0,0.1c0,0.1,0,0.1,0.1,0.2
		c0.1,0,0.1,0.1,0.2,0.1c0.1,0,0.2,0,0.3,0c0.1,0,0.2,0,0.3,0c0.1,0,0.2,0,0.2,0c0.1,0,0.2,0,0.3,0.1c0.1,0,0.2,0.1,0.3,0.1
		c0.1,0,0.2,0.1,0.3,0.2c0.1,0.1,0.1,0.1,0.2,0.2c0,0.1,0.1,0.2,0.1,0.3c0,0.2,0,0.3-0.1,0.4c-0.1,0.1-0.1,0.2-0.2,0.3
		c-0.1,0.1-0.2,0.1-0.3,0.2c-0.1,0.1-0.3,0.1-0.4,0.1C215.3,108,215.2,108,215,108z M215,107.4c0.1,0,0.1,0,0.2,0c0,0,0.1,0,0.2,0
		c0.1,0,0.1,0,0.2,0s0.1,0,0.1-0.1c0,0,0.1-0.1,0.1-0.1c0,0,0-0.1,0-0.1c0-0.2-0.2-0.4-0.7-0.4l-0.7-0.1c-0.1,0.1-0.2,0.2-0.2,0.3
		c-0.1,0.1-0.1,0.2-0.1,0.4c0,0,0,0.1,0,0.1c0,0,0.1,0,0.1,0.1c0,0,0.1,0,0.2,0c0.1,0,0.1,0,0.2,0c0.1,0,0.1,0,0.2,0
		c0.1,0,0.1,0,0.2,0C215,107.4,215,107.4,215,107.4z M214.8,104.8c0.4,0,0.5-0.3,0.5-0.9c0-0.1,0-0.2,0-0.3c0-0.1,0-0.2-0.1-0.3
		c0-0.1-0.1-0.2-0.2-0.2c-0.1-0.1-0.2-0.1-0.3-0.1c-0.1,0-0.2,0-0.3,0.1c-0.1,0.1-0.1,0.1-0.2,0.2c0,0.1-0.1,0.2-0.1,0.3
		c0,0.1,0,0.2,0,0.3C214.3,104.5,214.4,104.8,214.8,104.8z"/>
	<path fill="#F7EA84" d="M220,106.8c-0.2,0-0.3,0-0.5-0.1c-0.1-0.1-0.3-0.2-0.4-0.3v0.4h-0.9v-6.1h0.9v2.2c0.1-0.1,0.1-0.1,0.2-0.2
		s0.1-0.1,0.2-0.1c0.1-0.1,0.2-0.1,0.2-0.1c0.1,0,0.2,0,0.3,0c0.1,0,0.3,0,0.4,0.1s0.2,0.1,0.3,0.2s0.1,0.2,0.2,0.3
		c0.1,0.1,0.1,0.3,0.1,0.4c0,0.1,0,0.3,0.1,0.5s0,0.4,0,0.5c0,0.1,0,0.3,0,0.5v0.1c0,0.2,0,0.4,0,0.6c0,0.2-0.1,0.4-0.1,0.5
		c-0.1,0.2-0.1,0.3-0.2,0.5c-0.1,0.1-0.2,0.2-0.3,0.3C220.3,106.7,220.1,106.8,220,106.8z M219.8,106c0.1,0,0.2,0,0.2-0.1
		s0.1-0.2,0.1-0.3c0-0.1,0-0.3,0.1-0.4c0-0.1,0-0.3,0-0.4c0-0.1,0-0.3,0-0.5c0-0.2,0-0.4,0-0.5c0-0.1,0-0.2,0-0.3c0-0.1,0-0.2,0-0.2
		c0-0.1,0-0.2-0.1-0.2c0-0.1-0.1-0.1-0.1-0.1s-0.1-0.1-0.2-0.1c-0.2,0-0.5,0.1-0.7,0.2v2.8C219.3,106,219.5,106,219.8,106z"/>
	<path fill="#F7EA84" d="M221.8,101.7v-0.9h0.9v0.9H221.8z M221.8,106.7v-4.4h0.9v4.4H221.8z"/>
	<path fill="#F7EA84" d="M223.5,106.7v-4.4h0.9v0.6c0.1-0.2,0.2-0.3,0.4-0.5c0.2-0.1,0.4-0.2,0.6-0.2c0,0,0.1,0,0.1,0v1
		c-0.2-0.1-0.3-0.1-0.5-0.1c-0.2,0-0.3,0.1-0.4,0.2c-0.1,0.1-0.2,0.3-0.2,0.4v3H223.5z"/>
	<path fill="#F7EA84" d="M226.9,106.8c-0.2,0-0.4-0.1-0.5-0.2c-0.1-0.1-0.3-0.3-0.3-0.4c-0.1-0.2-0.1-0.4-0.2-0.6
		c0-0.2-0.1-0.4-0.1-0.7c0-0.1,0-0.4,0-0.8c0-0.2,0-0.3,0-0.4c0-0.1,0-0.2,0-0.4s0-0.2,0.1-0.4s0.1-0.2,0.1-0.3s0.1-0.2,0.2-0.2
		c0.1-0.1,0.2-0.1,0.3-0.1s0.2-0.1,0.3-0.1c0.1,0,0.2,0,0.3,0c0.1,0,0.2,0.1,0.2,0.1c0.1,0.1,0.1,0.1,0.2,0.1c0,0,0.1,0.1,0.2,0.2
		v-2.2h0.9v6.1h-0.9v-0.4c-0.1,0.1-0.3,0.2-0.4,0.3C227.2,106.7,227.1,106.8,226.9,106.8z M227.1,106c0.2,0,0.4,0,0.7-0.1v-2.8
		c-0.2-0.1-0.4-0.2-0.7-0.2c-0.1,0-0.2,0-0.2,0.1c-0.1,0-0.1,0.1-0.1,0.2c0,0.1-0.1,0.2-0.1,0.2c0,0.1,0,0.2,0,0.3
		c0,0.5,0,0.9,0,1.2c0,0.1,0,0.3,0,0.4c0,0.1,0,0.2,0.1,0.3c0,0.1,0.1,0.2,0.1,0.2C227,106,227,106,227.1,106z"/>
	<path fill="#F7EA84" d="M230.9,101.7v-0.9h0.9v0.9H230.9z M230.9,106.7v-4.4h0.9v4.4H230.9z"/>
	<path fill="#F7EA84" d="M232.6,106.7v-4.4h0.9v0.5c0.1-0.1,0.2-0.2,0.3-0.3s0.2-0.1,0.3-0.2c0.1-0.1,0.3-0.1,0.5-0.1
		c0.2,0,0.3,0.1,0.5,0.2s0.2,0.3,0.2,0.5v3.7h-0.9v-3.3c0-0.2,0-0.3-0.1-0.3c0-0.1-0.1-0.1-0.3-0.1c-0.1,0-0.2,0-0.2,0
		c-0.1,0-0.1,0.1-0.2,0.1c0,0-0.1,0.1-0.2,0.1v3.5H232.6z"/>
	<path fill="#F7EA84" d="M237.4,106.7v-6.1h0.9v6.1H237.4z"/>
	<path fill="#F7EA84" d="M240.3,106.8c-0.2,0-0.4,0-0.6-0.1s-0.3-0.2-0.4-0.3c-0.1-0.1-0.2-0.3-0.2-0.5c-0.1-0.2-0.1-0.4-0.1-0.6
		c0-0.2,0-0.4,0-0.6c0-0.2,0-0.4,0-0.6c0-0.2,0-0.4,0-0.6c0-0.2,0.1-0.3,0.1-0.5c0.1-0.2,0.1-0.3,0.2-0.4c0.1-0.1,0.2-0.2,0.4-0.3
		c0.2-0.1,0.3-0.1,0.5-0.1c0.2,0,0.4,0,0.5,0.1s0.3,0.1,0.4,0.2c0.1,0.1,0.2,0.2,0.2,0.3c0.1,0.1,0.1,0.3,0.1,0.4
		c0,0.2,0.1,0.3,0.1,0.5s0,0.4,0,0.6v0.1h-1.8v0.2c0,0,0,0.1,0,0.1c0,0.1,0,0.2,0,0.3c0,0.1,0,0.2,0,0.3c0,0.1,0,0.2,0,0.2
		c0,0.1,0,0.1,0.1,0.2c0,0.1,0.1,0.1,0.1,0.1c0.1,0,0.1,0.1,0.2,0.1c0.1,0,0.2,0,0.2-0.1c0.1,0,0.1-0.1,0.1-0.2s0-0.1,0.1-0.2
		c0-0.1,0-0.2,0-0.3v-0.2h0.9v0.2c0,0.5-0.1,0.8-0.3,1.1C241.1,106.6,240.8,106.8,240.3,106.8z M239.9,104.1h0.9v-0.3
		c0-0.1,0-0.2,0-0.3c0-0.1,0-0.2-0.1-0.3s-0.1-0.2-0.1-0.2c-0.1,0-0.1-0.1-0.2-0.1c-0.1,0-0.2,0-0.2,0.1c-0.1,0-0.1,0.1-0.1,0.2
		c0,0.1,0,0.2-0.1,0.3c0,0.1,0,0.2,0,0.3V104.1z"/>
	<path fill="#F7EA84" d="M242.9,106.7l-1-4.4h0.8l0.6,3.3l0.6-3.3h0.8l-1,4.4H242.9z"/>
	<path fill="#F7EA84" d="M246.5,106.8c-0.2,0-0.4,0-0.6-0.1c-0.2-0.1-0.3-0.2-0.4-0.3c-0.1-0.1-0.2-0.3-0.2-0.5
		c-0.1-0.2-0.1-0.4-0.1-0.6s0-0.4,0-0.6c0-0.2,0-0.4,0-0.6c0-0.2,0-0.4,0-0.6c0-0.2,0.1-0.3,0.1-0.5c0.1-0.2,0.1-0.3,0.2-0.4
		s0.2-0.2,0.4-0.3c0.2-0.1,0.3-0.1,0.5-0.1c0.2,0,0.4,0,0.5,0.1c0.1,0,0.3,0.1,0.4,0.2c0.1,0.1,0.2,0.2,0.2,0.3
		c0.1,0.1,0.1,0.3,0.1,0.4c0,0.2,0.1,0.3,0.1,0.5c0,0.2,0,0.4,0,0.6v0.1H246v0.2c0,0,0,0.1,0,0.1c0,0.1,0,0.2,0,0.3
		c0,0.1,0,0.2,0,0.3c0,0.1,0,0.2,0,0.2c0,0.1,0,0.1,0.1,0.2c0,0.1,0.1,0.1,0.1,0.1c0.1,0,0.1,0.1,0.2,0.1c0.1,0,0.2,0,0.2-0.1
		c0.1,0,0.1-0.1,0.1-0.2c0-0.1,0-0.1,0.1-0.2c0-0.1,0-0.2,0-0.3v-0.2h0.9v0.2c0,0.5-0.1,0.8-0.3,1.1
		C247.2,106.6,246.9,106.8,246.5,106.8z M246,104.1h0.9v-0.3c0-0.1,0-0.2,0-0.3c0-0.1,0-0.2-0.1-0.3c0-0.1-0.1-0.2-0.1-0.2
		c-0.1,0-0.1-0.1-0.2-0.1c-0.1,0-0.2,0-0.2,0.1c-0.1,0-0.1,0.1-0.1,0.2s0,0.2-0.1,0.3c0,0.1,0,0.2,0,0.3V104.1z"/>
	<path fill="#F7EA84" d="M248.4,106.7v-6.1h0.9v6.1H248.4z"/>
	<path fill="#F7EA84" d="M91.9,113.7V110h-0.4v-0.7h0.4v-0.2c0-0.2,0-0.3,0-0.5s0-0.3,0.1-0.4c0-0.1,0.1-0.2,0.2-0.3
		c0.1-0.1,0.2-0.1,0.3-0.2c0.1,0,0.3-0.1,0.4-0.1c0.1,0,0.3,0,0.5,0v0.6c0,0-0.1,0-0.1,0c-0.1,0-0.1,0-0.2,0c-0.1,0-0.2,0-0.3,0.1
		c0,0.1-0.1,0.2-0.1,0.4v0.3h0.7v0.7h-0.7v3.7H91.9z"/>
	<path fill="#F7EA84" d="M93.9,113.7v-6.1h0.9v6.1H93.9z"/>
	<path fill="#F7EA84" d="M95.6,108.7v-0.9h0.9v0.9H95.6z M95.6,113.7v-4.4h0.9v4.4H95.6z"/>
	<path fill="#F7EA84" d="M98.7,115c-0.1,0-0.2,0-0.3,0s-0.2,0-0.3,0s-0.2,0-0.3,0s-0.2,0-0.3,0s-0.2,0-0.3-0.1
		c-0.1,0-0.1-0.1-0.2-0.1c-0.1,0-0.1-0.1-0.1-0.2c0-0.1,0-0.1,0-0.2c0-0.2,0.1-0.4,0.2-0.6c0.1-0.2,0.3-0.3,0.5-0.4
		c-0.1,0-0.2-0.1-0.3-0.1c-0.1-0.1-0.1-0.1-0.1-0.2c0,0,0-0.1,0-0.1c0,0,0-0.1,0-0.1s0-0.1,0.1-0.1c0,0,0-0.1,0.1-0.1
		c0,0,0-0.1,0.1-0.1s0.1-0.1,0.1-0.1c0,0,0,0,0.1-0.1c0,0,0.1-0.1,0.1-0.1c-0.3-0.3-0.4-0.8-0.4-1.3c0-0.3,0-0.6,0.1-0.8
		c0.1-0.2,0.2-0.4,0.4-0.6c0.2-0.1,0.4-0.2,0.7-0.2c0.2,0,0.3,0,0.4,0.1s0.2,0.1,0.3,0.2c0.1,0.1,0.2,0.2,0.2,0.3
		c0.2-0.3,0.4-0.5,0.7-0.5c0,0,0,0,0,0s0,0,0,0c0,0,0,0,0,0v0.7c0,0,0,0-0.1,0c-0.1,0-0.2,0-0.2,0c-0.1,0-0.1,0-0.2,0
		c-0.1,0-0.1,0-0.1,0.1c0,0.1,0.1,0.2,0.1,0.4c0,0.1,0,0.3,0,0.4c0,0.3,0,0.6-0.1,0.8c-0.1,0.2-0.2,0.4-0.4,0.6
		c-0.2,0.1-0.4,0.2-0.7,0.2l-0.4-0.1c0,0,0,0,0,0.1s0,0.1,0,0.1c0,0,0,0,0,0.1s0,0.1,0,0.1c0,0.1,0,0.1,0.1,0.2s0.1,0.1,0.2,0.1
		s0.2,0,0.3,0c0.1,0,0.2,0,0.3,0s0.2,0,0.2,0c0.1,0,0.2,0,0.3,0.1c0.1,0,0.2,0.1,0.3,0.1c0.1,0,0.2,0.1,0.3,0.2
		c0.1,0.1,0.1,0.1,0.2,0.2c0,0.1,0.1,0.2,0.1,0.3c0,0.2,0,0.3-0.1,0.4c-0.1,0.1-0.1,0.2-0.2,0.3s-0.2,0.1-0.3,0.2s-0.3,0.1-0.4,0.1
		C99,115,98.8,115,98.7,115z M98.7,114.4c0.1,0,0.1,0,0.2,0c0,0,0.1,0,0.2,0c0.1,0,0.1,0,0.2,0c0,0,0.1,0,0.1-0.1
		c0,0,0.1-0.1,0.1-0.1c0,0,0-0.1,0-0.1c0-0.2-0.2-0.4-0.7-0.4l-0.7-0.1c-0.1,0.1-0.2,0.2-0.2,0.3c-0.1,0.1-0.1,0.2-0.1,0.4
		c0,0,0,0.1,0,0.1s0.1,0,0.1,0.1c0,0,0.1,0,0.2,0c0.1,0,0.1,0,0.2,0c0.1,0,0.1,0,0.2,0s0.1,0,0.2,0
		C98.6,114.4,98.6,114.4,98.7,114.4z M98.4,111.8c0.4,0,0.5-0.3,0.5-0.9c0-0.1,0-0.2,0-0.3c0-0.1,0-0.2-0.1-0.3s-0.1-0.2-0.2-0.2
		c-0.1-0.1-0.2-0.1-0.3-0.1c-0.1,0-0.2,0-0.3,0.1c-0.1,0.1-0.1,0.1-0.2,0.2c0,0.1-0.1,0.2-0.1,0.3c0,0.1,0,0.2,0,0.3
		C97.9,111.5,98.1,111.8,98.4,111.8z"/>
	<path fill="#F7EA84" d="M100.4,113.7v-6.1h0.9v2.2c0.1-0.1,0.2-0.2,0.3-0.3s0.2-0.1,0.3-0.2c0.1-0.1,0.3-0.1,0.5-0.1
		c0.2,0,0.3,0.1,0.5,0.2s0.2,0.3,0.2,0.5v3.7h-0.9v-3.3c0-0.2,0-0.3-0.1-0.3c0-0.1-0.1-0.1-0.2-0.1c-0.2,0-0.4,0.1-0.6,0.3v3.5
		H100.4z"/>
	<path fill="#F7EA84" d="M105,113.8c-0.3,0-0.6-0.1-0.8-0.3c-0.2-0.2-0.2-0.4-0.2-0.8V110h-0.4v-0.7h0.4v-1.5h0.9v1.5h0.7v0.7h-0.7
		v2.6c0,0.2,0,0.3,0.1,0.4s0.1,0.1,0.3,0.1c0.1,0,0.2,0,0.3,0v0.7C105.4,113.7,105.2,113.8,105,113.8z"/>
</g>
<g>
	<rect x="127" y="144.4" fill="none" width="93.1" height="13.9"/>
	<path fill="#F7EA84" d="M127.4,150.5v-6.1h2.4v0.7h-1.5v2h1.1v0.7h-1.1v2.8H127.4z"/>
	<path fill="#F7EA84" d="M130.8,150.5c-0.2,0-0.5-0.1-0.6-0.3c-0.2-0.2-0.3-0.4-0.3-0.7c0-0.2,0-0.4,0.1-0.6
		c0.1-0.2,0.1-0.3,0.2-0.4s0.2-0.2,0.4-0.3s0.3-0.2,0.4-0.2s0.3-0.1,0.5-0.2c0,0,0.1,0,0.1,0v-0.3c0-0.2,0-0.4-0.1-0.5
		s-0.2-0.2-0.3-0.2c-0.2,0-0.3,0.1-0.3,0.2c-0.1,0.1-0.1,0.2-0.1,0.4c0,0,0,0.1,0,0.1H130c0-0.4,0.1-0.8,0.4-1
		c0.2-0.2,0.6-0.4,1-0.4c0.4,0,0.7,0.1,1,0.4c0.2,0.3,0.4,0.6,0.4,1v2c0,0.5,0,0.8,0.1,1.1h-0.9l-0.1-0.7c0,0.1-0.1,0.2-0.1,0.2
		c0,0-0.1,0.1-0.1,0.2s-0.1,0.1-0.2,0.2s-0.1,0.1-0.2,0.1C131,150.5,130.9,150.5,130.8,150.5z M131.3,149.8c0.1,0,0.1,0,0.2-0.1
		c0.1,0,0.1-0.1,0.1-0.1c0,0,0.1-0.1,0.1-0.1c0,0,0,0,0,0v-1.2c0,0-0.1,0.1-0.2,0.1s-0.2,0.1-0.2,0.1s-0.1,0.1-0.2,0.1
		c-0.1,0.1-0.1,0.1-0.2,0.2s-0.1,0.1-0.1,0.2s0,0.2,0,0.2C130.8,149.6,131,149.8,131.3,149.8z"/>
	<path fill="#F7EA84" d="M134.5,150.5c-0.4,0-0.6-0.1-0.9-0.3c-0.2-0.2-0.4-0.5-0.4-0.8l0.7-0.2c0.2,0.4,0.4,0.7,0.7,0.7
		c0.1,0,0.2,0,0.3-0.1c0.1-0.1,0.1-0.2,0.1-0.3c0-0.2-0.1-0.4-0.2-0.5l-0.9-0.7c-0.1-0.1-0.2-0.1-0.2-0.2c-0.1-0.1-0.1-0.1-0.2-0.2
		c-0.1-0.1-0.1-0.2-0.2-0.3c0-0.1-0.1-0.2-0.1-0.3c0-0.4,0.1-0.7,0.4-0.9c0.2-0.2,0.6-0.3,1-0.3c0.2,0,0.4,0,0.5,0.1
		s0.3,0.1,0.4,0.3c0.1,0.1,0.2,0.2,0.3,0.4c0.1,0.1,0.1,0.3,0.2,0.4l-0.7,0.2c0-0.1-0.1-0.2-0.1-0.2s-0.1-0.1-0.1-0.2
		c-0.1-0.1-0.1-0.1-0.2-0.2s-0.2-0.1-0.2-0.1c-0.1,0-0.2,0-0.3,0.1c-0.1,0.1-0.1,0.2-0.1,0.3c0,0.1,0.1,0.3,0.2,0.4l0.9,0.7
		c0.1,0.1,0.2,0.2,0.3,0.2c0.1,0.1,0.1,0.2,0.2,0.2s0.1,0.2,0.2,0.3c0,0.1,0.1,0.2,0.1,0.4c0,0.4-0.1,0.7-0.4,0.9
		C135.2,150.4,134.9,150.5,134.5,150.5z"/>
	<path fill="#F7EA84" d="M137.6,150.5c-0.3,0-0.6-0.1-0.8-0.3c-0.2-0.2-0.2-0.4-0.2-0.8v-2.7h-0.4v-0.7h0.4v-1.5h0.9v1.5h0.7v0.7
		h-0.7v2.6c0,0.2,0,0.3,0.1,0.4s0.1,0.1,0.3,0.1c0.1,0,0.2,0,0.3,0v0.7C137.9,150.5,137.7,150.5,137.6,150.5z"/>
	<path fill="#F7EA84" d="M140,150.5c-0.2,0-0.4,0-0.6-0.1c-0.2-0.1-0.3-0.2-0.4-0.3c-0.1-0.1-0.2-0.3-0.2-0.5s-0.1-0.4-0.1-0.6
		c0-0.2,0-0.4,0-0.6c0-0.2,0-0.4,0-0.6c0-0.2,0-0.4,0-0.6c0-0.2,0.1-0.3,0.1-0.5s0.1-0.3,0.2-0.4c0.1-0.1,0.2-0.2,0.4-0.3
		c0.2-0.1,0.3-0.1,0.5-0.1c0.2,0,0.4,0,0.5,0.1c0.1,0,0.3,0.1,0.4,0.2c0.1,0.1,0.2,0.2,0.2,0.3c0.1,0.1,0.1,0.3,0.1,0.4
		s0.1,0.3,0.1,0.5c0,0.2,0,0.4,0,0.6v0.1h-1.8v0.2c0,0,0,0.1,0,0.1c0,0.1,0,0.2,0,0.3c0,0.1,0,0.2,0,0.3c0,0.1,0,0.2,0,0.2
		c0,0.1,0,0.1,0.1,0.2s0.1,0.1,0.1,0.1c0.1,0,0.1,0.1,0.2,0.1c0.1,0,0.2,0,0.2-0.1s0.1-0.1,0.1-0.2c0-0.1,0-0.1,0.1-0.2s0-0.2,0-0.3
		V149h0.9v0.2c0,0.5-0.1,0.8-0.3,1.1C140.7,150.4,140.4,150.5,140,150.5z M139.5,147.9h0.9v-0.3c0-0.1,0-0.2,0-0.3s0-0.2-0.1-0.3
		c0-0.1-0.1-0.2-0.1-0.2s-0.1-0.1-0.2-0.1c-0.1,0-0.2,0-0.2,0.1c-0.1,0-0.1,0.1-0.1,0.2c0,0.1,0,0.2-0.1,0.3c0,0.1,0,0.2,0,0.3
		V147.9z"/>
	<path fill="#F7EA84" d="M143.1,150.5c-0.4,0-0.6-0.1-0.9-0.3c-0.2-0.2-0.4-0.5-0.4-0.8l0.7-0.2c0.2,0.4,0.4,0.7,0.7,0.7
		c0.1,0,0.2,0,0.3-0.1c0.1-0.1,0.1-0.2,0.1-0.3c0-0.2-0.1-0.4-0.2-0.5l-0.9-0.7c-0.1-0.1-0.2-0.1-0.2-0.2c-0.1-0.1-0.1-0.1-0.2-0.2
		c-0.1-0.1-0.1-0.2-0.2-0.3c0-0.1-0.1-0.2-0.1-0.3c0-0.4,0.1-0.7,0.4-0.9c0.2-0.2,0.6-0.3,1-0.3c0.2,0,0.4,0,0.5,0.1
		s0.3,0.1,0.4,0.3c0.1,0.1,0.2,0.2,0.3,0.4c0.1,0.1,0.1,0.3,0.2,0.4l-0.7,0.2c0-0.1-0.1-0.2-0.1-0.2s-0.1-0.1-0.1-0.2
		c-0.1-0.1-0.1-0.1-0.2-0.2s-0.2-0.1-0.2-0.1c-0.1,0-0.2,0-0.3,0.1c-0.1,0.1-0.1,0.2-0.1,0.3c0,0.1,0.1,0.3,0.2,0.4l0.9,0.7
		c0.1,0.1,0.2,0.2,0.3,0.2c0.1,0.1,0.1,0.2,0.2,0.2s0.1,0.2,0.2,0.3c0,0.1,0.1,0.2,0.1,0.4c0,0.4-0.1,0.7-0.4,0.9
		C143.8,150.4,143.5,150.5,143.1,150.5z"/>
	<path fill="#F7EA84" d="M146.1,150.5c-0.3,0-0.6-0.1-0.8-0.3c-0.2-0.2-0.2-0.4-0.2-0.8v-2.7h-0.4v-0.7h0.4v-1.5h0.9v1.5h0.7v0.7
		H146v2.6c0,0.2,0,0.3,0.1,0.4s0.1,0.1,0.3,0.1c0.1,0,0.2,0,0.3,0v0.7C146.4,150.5,146.3,150.5,146.1,150.5z"/>
	<path fill="#F7EA84" d="M148.7,150.5v-4.4h0.9v0.6c0.1-0.2,0.2-0.3,0.4-0.5c0.2-0.1,0.4-0.2,0.6-0.2c0,0,0.1,0,0.1,0v1
		c-0.2-0.1-0.3-0.1-0.5-0.1c-0.2,0-0.3,0.1-0.4,0.2s-0.2,0.3-0.2,0.4v3H148.7z"/>
	<path fill="#F7EA84" d="M151.7,150.5c-0.2,0-0.3-0.1-0.5-0.2s-0.2-0.3-0.2-0.5v-3.7h0.9v3.5c0,0.1,0,0.2,0.1,0.2
		c0.1,0.1,0.1,0.1,0.2,0.1c0,0,0.1,0,0.1,0s0.1,0,0.1-0.1c0,0,0.1-0.1,0.1-0.1c0,0,0.1,0,0.1-0.1c0,0,0.1-0.1,0.1-0.1v-3.5h0.9v4.4
		h-0.9V150c-0.1,0.1-0.1,0.1-0.2,0.2c0,0-0.1,0.1-0.2,0.1c-0.1,0.1-0.2,0.1-0.2,0.1c-0.1,0-0.1,0.1-0.2,0.1S151.8,150.5,151.7,150.5
		z"/>
	<path fill="#F7EA84" d="M154.5,150.5v-4.4h0.9v0.5c0.1-0.1,0.2-0.2,0.3-0.3s0.2-0.1,0.3-0.2c0.1-0.1,0.3-0.1,0.5-0.1
		c0.2,0,0.3,0.1,0.5,0.2s0.2,0.3,0.2,0.5v3.7h-0.9v-3.3c0-0.2,0-0.3-0.1-0.3s-0.1-0.1-0.3-0.1c-0.1,0-0.1,0-0.2,0
		c-0.1,0-0.1,0.1-0.2,0.1s-0.1,0.1-0.2,0.1v3.5H154.5z"/>
	<path fill="#F7EA84" d="M157.8,150.5v-4.4h0.9v0.5c0.1-0.1,0.2-0.2,0.3-0.3s0.2-0.1,0.3-0.2c0.1-0.1,0.3-0.1,0.5-0.1
		c0.2,0,0.3,0.1,0.5,0.2s0.2,0.3,0.2,0.5v3.7h-0.9v-3.3c0-0.2,0-0.3-0.1-0.3s-0.1-0.1-0.3-0.1c-0.1,0-0.1,0-0.2,0
		c-0.1,0-0.1,0.1-0.2,0.1s-0.1,0.1-0.2,0.1v3.5H157.8z"/>
	<path fill="#F7EA84" d="M161.3,145.5v-0.9h0.9v0.9H161.3z M161.3,150.5v-4.4h0.9v4.4H161.3z"/>
	<path fill="#F7EA84" d="M163,150.5v-4.4h0.9v0.5c0.1-0.1,0.2-0.2,0.3-0.3s0.2-0.1,0.3-0.2c0.1-0.1,0.3-0.1,0.5-0.1
		c0.2,0,0.3,0.1,0.5,0.2s0.2,0.3,0.2,0.5v3.7h-0.9v-3.3c0-0.2,0-0.3-0.1-0.3s-0.1-0.1-0.3-0.1c-0.1,0-0.1,0-0.2,0
		c-0.1,0-0.1,0.1-0.2,0.1s-0.1,0.1-0.2,0.1v3.5H163z"/>
	<path fill="#F7EA84" d="M167.8,151.8c-0.1,0-0.2,0-0.3,0s-0.2,0-0.3,0s-0.2,0-0.3,0s-0.2,0-0.3,0s-0.2,0-0.3-0.1
		c-0.1,0-0.1-0.1-0.2-0.1c-0.1,0-0.1-0.1-0.1-0.2c0-0.1,0-0.1,0-0.2c0-0.2,0.1-0.4,0.2-0.6c0.1-0.2,0.3-0.3,0.5-0.4
		c-0.1,0-0.2-0.1-0.3-0.1c-0.1-0.1-0.1-0.1-0.1-0.2c0,0,0-0.1,0-0.1c0,0,0-0.1,0-0.1s0-0.1,0.1-0.1c0,0,0-0.1,0.1-0.1
		c0,0,0-0.1,0.1-0.1s0.1-0.1,0.1-0.1c0,0,0,0,0.1-0.1c0,0,0.1-0.1,0.1-0.1c-0.3-0.3-0.4-0.8-0.4-1.3c0-0.3,0-0.6,0.1-0.8
		c0.1-0.2,0.2-0.4,0.4-0.6c0.2-0.1,0.4-0.2,0.7-0.2c0.2,0,0.3,0,0.4,0.1s0.2,0.1,0.3,0.2c0.1,0.1,0.2,0.2,0.2,0.3
		c0.2-0.3,0.4-0.5,0.7-0.5c0,0,0,0,0,0s0,0,0,0c0,0,0,0,0,0v0.7c0,0,0,0-0.1,0c-0.1,0-0.2,0-0.2,0c-0.1,0-0.1,0-0.2,0
		c-0.1,0-0.1,0-0.1,0.1c0,0.1,0.1,0.2,0.1,0.4c0,0.1,0,0.3,0,0.4c0,0.3,0,0.6-0.1,0.8c-0.1,0.2-0.2,0.4-0.4,0.6
		c-0.2,0.1-0.4,0.2-0.7,0.2l-0.4-0.1c0,0,0,0,0,0.1s0,0.1,0,0.1c0,0,0,0,0,0.1s0,0.1,0,0.1c0,0.1,0,0.1,0.1,0.2s0.1,0.1,0.2,0.1
		s0.2,0,0.3,0c0.1,0,0.2,0,0.3,0s0.2,0,0.2,0c0.1,0,0.2,0,0.3,0.1c0.1,0,0.2,0.1,0.3,0.1c0.1,0,0.2,0.1,0.3,0.2
		c0.1,0.1,0.1,0.1,0.2,0.2c0,0.1,0.1,0.2,0.1,0.3c0,0.2,0,0.3-0.1,0.4c-0.1,0.1-0.1,0.2-0.2,0.3s-0.2,0.1-0.3,0.2s-0.3,0.1-0.4,0.1
		C168.1,151.8,167.9,151.8,167.8,151.8z M167.8,151.1c0.1,0,0.1,0,0.2,0c0,0,0.1,0,0.2,0c0.1,0,0.1,0,0.2,0c0,0,0.1,0,0.1-0.1
		c0,0,0.1-0.1,0.1-0.1c0,0,0-0.1,0-0.1c0-0.2-0.2-0.4-0.7-0.4l-0.7-0.1c-0.1,0.1-0.2,0.2-0.2,0.3c-0.1,0.1-0.1,0.2-0.1,0.4
		c0,0,0,0.1,0,0.1s0.1,0,0.1,0.1c0,0,0.1,0,0.2,0c0.1,0,0.1,0,0.2,0c0.1,0,0.1,0,0.2,0s0.1,0,0.2,0
		C167.7,151.1,167.7,151.1,167.8,151.1z M167.5,148.6c0.4,0,0.5-0.3,0.5-0.9c0-0.1,0-0.2,0-0.3c0-0.1,0-0.2-0.1-0.3
		s-0.1-0.2-0.2-0.2c-0.1-0.1-0.2-0.1-0.3-0.1c-0.1,0-0.2,0-0.3,0.1c-0.1,0.1-0.1,0.1-0.2,0.2c0,0.1-0.1,0.2-0.1,0.3
		c0,0.1,0,0.2,0,0.3C167,148.3,167.2,148.6,167.5,148.6z"/>
	<path fill="#F7EA84" d="M171.7,150.5c-0.2,0-0.5-0.1-0.6-0.3c-0.2-0.2-0.3-0.4-0.3-0.7c0-0.2,0-0.4,0.1-0.6
		c0.1-0.2,0.1-0.3,0.2-0.4s0.2-0.2,0.4-0.3s0.3-0.2,0.4-0.2s0.3-0.1,0.5-0.2c0,0,0.1,0,0.1,0v-0.3c0-0.2,0-0.4-0.1-0.5
		s-0.2-0.2-0.3-0.2c-0.2,0-0.3,0.1-0.3,0.2c-0.1,0.1-0.1,0.2-0.1,0.4c0,0,0,0.1,0,0.1h-0.9c0-0.4,0.1-0.8,0.4-1
		c0.2-0.2,0.6-0.4,1-0.4c0.4,0,0.7,0.1,1,0.4c0.2,0.3,0.4,0.6,0.4,1v2c0,0.5,0,0.8,0.1,1.1h-0.9l-0.1-0.7c0,0.1-0.1,0.2-0.1,0.2
		c0,0-0.1,0.1-0.1,0.2s-0.1,0.1-0.2,0.2s-0.1,0.1-0.2,0.1C171.9,150.5,171.8,150.5,171.7,150.5z M172.2,149.8c0.1,0,0.1,0,0.2-0.1
		c0.1,0,0.1-0.1,0.1-0.1c0,0,0.1-0.1,0.1-0.1c0,0,0,0,0,0v-1.2c0,0-0.1,0.1-0.2,0.1s-0.2,0.1-0.2,0.1s-0.1,0.1-0.2,0.1
		c-0.1,0.1-0.1,0.1-0.2,0.2s-0.1,0.1-0.1,0.2s0,0.2,0,0.2C171.7,149.6,171.9,149.8,172.2,149.8z"/>
	<path fill="#F7EA84" d="M174.2,150.5v-4.4h0.9v0.5c0.1-0.1,0.2-0.2,0.3-0.3s0.2-0.1,0.3-0.2c0.1-0.1,0.3-0.1,0.5-0.1
		c0.2,0,0.3,0.1,0.5,0.2s0.2,0.3,0.2,0.5v3.7H176v-3.3c0-0.2,0-0.3-0.1-0.3s-0.1-0.1-0.3-0.1c-0.1,0-0.1,0-0.2,0
		c-0.1,0-0.1,0.1-0.2,0.1s-0.1,0.1-0.2,0.1v3.5H174.2z"/>
	<path fill="#F7EA84" d="M177.7,145.5v-0.9h0.9v0.9H177.7z M177.7,150.5v-4.4h0.9v4.4H177.7z"/>
	<path fill="#F7EA84" d="M179.4,150.5v-4.4h0.9v0.5c0.3-0.4,0.7-0.6,1.1-0.6c0.2,0,0.4,0,0.5,0.1c0.1,0.1,0.2,0.2,0.2,0.4
		c0.1-0.2,0.3-0.3,0.5-0.4c0.2-0.1,0.4-0.1,0.6-0.1c0.1,0,0.1,0,0.2,0c0.1,0,0.1,0,0.2,0.1s0.1,0.1,0.1,0.1c0,0,0.1,0.1,0.1,0.1
		c0,0,0,0.1,0.1,0.2c0,0.1,0,0.1,0,0.2s0,0.1,0,0.2s0,0.2,0,0.2s0,0.1,0,0.2c0,0,0,0,0,0v3.2h-0.9v-3.2c0,0,0,0,0-0.1
		c0-0.1,0-0.1,0-0.2s0-0.1,0-0.1c0-0.1,0-0.1-0.1-0.1c0,0-0.1,0-0.1,0c-0.1,0-0.2,0-0.3,0.1s-0.2,0.1-0.2,0.1c0,0-0.1,0.1-0.2,0.1
		v3.4h-0.9v-3.2c0,0,0,0,0-0.1c0-0.1,0-0.1,0-0.1c0,0,0-0.1,0-0.1c0-0.1,0-0.1,0-0.1c0,0,0,0-0.1-0.1c0,0-0.1,0-0.1,0
		c-0.2,0-0.4,0.1-0.7,0.3v3.4H179.4z"/>
	<path fill="#F7EA84" d="M185.3,150.5c-0.2,0-0.5-0.1-0.6-0.3c-0.2-0.2-0.3-0.4-0.3-0.7c0-0.2,0-0.4,0.1-0.6
		c0.1-0.2,0.1-0.3,0.2-0.4s0.2-0.2,0.4-0.3s0.3-0.2,0.4-0.2s0.3-0.1,0.5-0.2c0,0,0.1,0,0.1,0v-0.3c0-0.2,0-0.4-0.1-0.5
		s-0.2-0.2-0.3-0.2c-0.2,0-0.3,0.1-0.3,0.2c-0.1,0.1-0.1,0.2-0.1,0.4c0,0,0,0.1,0,0.1h-0.9c0-0.4,0.1-0.8,0.4-1
		c0.2-0.2,0.6-0.4,1-0.4c0.4,0,0.7,0.1,1,0.4c0.2,0.3,0.4,0.6,0.4,1v2c0,0.5,0,0.8,0.1,1.1h-0.9l-0.1-0.7c0,0.1-0.1,0.2-0.1,0.2
		c0,0-0.1,0.1-0.1,0.2s-0.1,0.1-0.2,0.2s-0.1,0.1-0.2,0.1C185.5,150.5,185.4,150.5,185.3,150.5z M185.7,149.8c0.1,0,0.1,0,0.2-0.1
		c0.1,0,0.1-0.1,0.1-0.1c0,0,0.1-0.1,0.1-0.1c0,0,0,0,0,0v-1.2c0,0-0.1,0.1-0.2,0.1s-0.2,0.1-0.2,0.1s-0.1,0.1-0.2,0.1
		c-0.1,0.1-0.1,0.1-0.2,0.2s-0.1,0.1-0.1,0.2s0,0.2,0,0.2C185.3,149.6,185.4,149.8,185.7,149.8z"/>
	<path fill="#F7EA84" d="M187.8,150.5v-6.1h0.9v6.1H187.8z"/>
	<path fill="#F7EA84" d="M190.9,145.5v-0.9h0.9v0.9H190.9z M190.9,150.5v-4.4h0.9v4.4H190.9z"/>
	<path fill="#F7EA84" d="M193.7,150.5c-0.4,0-0.6-0.1-0.9-0.3c-0.2-0.2-0.4-0.5-0.4-0.8l0.7-0.2c0.2,0.4,0.4,0.7,0.7,0.7
		c0.1,0,0.2,0,0.3-0.1c0.1-0.1,0.1-0.2,0.1-0.3c0-0.2-0.1-0.4-0.2-0.5l-0.9-0.7c-0.1-0.1-0.2-0.1-0.2-0.2c-0.1-0.1-0.1-0.1-0.2-0.2
		c-0.1-0.1-0.1-0.2-0.2-0.3c0-0.1-0.1-0.2-0.1-0.3c0-0.4,0.1-0.7,0.4-0.9c0.2-0.2,0.6-0.3,1-0.3c0.2,0,0.4,0,0.5,0.1
		s0.3,0.1,0.4,0.3c0.1,0.1,0.2,0.2,0.3,0.4c0.1,0.1,0.1,0.3,0.2,0.4l-0.7,0.2c0-0.1-0.1-0.2-0.1-0.2s-0.1-0.1-0.1-0.2
		c-0.1-0.1-0.1-0.1-0.2-0.2s-0.2-0.1-0.2-0.1c-0.1,0-0.2,0-0.3,0.1c-0.1,0.1-0.1,0.2-0.1,0.3c0,0.1,0.1,0.3,0.2,0.4l0.9,0.7
		c0.1,0.1,0.2,0.2,0.3,0.2c0.1,0.1,0.1,0.2,0.2,0.2s0.1,0.2,0.2,0.3c0,0.1,0.1,0.2,0.1,0.4c0,0.4-0.1,0.7-0.4,0.9
		C194.5,150.4,194.1,150.5,193.7,150.5z"/>
	<path fill="#F7EA84" d="M197.8,150.5c-0.2,0-0.5-0.1-0.6-0.3c-0.2-0.2-0.3-0.4-0.3-0.7c0-0.2,0-0.4,0.1-0.6
		c0.1-0.2,0.1-0.3,0.2-0.4s0.2-0.2,0.4-0.3s0.3-0.2,0.4-0.2s0.3-0.1,0.5-0.2c0,0,0.1,0,0.1,0v-0.3c0-0.2,0-0.4-0.1-0.5
		s-0.2-0.2-0.3-0.2c-0.2,0-0.3,0.1-0.3,0.2c-0.1,0.1-0.1,0.2-0.1,0.4c0,0,0,0.1,0,0.1h-0.9c0-0.4,0.1-0.8,0.4-1
		c0.2-0.2,0.6-0.4,1-0.4c0.4,0,0.7,0.1,1,0.4c0.2,0.3,0.4,0.6,0.4,1v2c0,0.5,0,0.8,0.1,1.1h-0.9l-0.1-0.7c0,0.1-0.1,0.2-0.1,0.2
		c0,0-0.1,0.1-0.1,0.2s-0.1,0.1-0.2,0.2s-0.1,0.1-0.2,0.1C198,150.5,197.9,150.5,197.8,150.5z M198.2,149.8c0.1,0,0.1,0,0.2-0.1
		c0.1,0,0.1-0.1,0.1-0.1c0,0,0.1-0.1,0.1-0.1c0,0,0,0,0,0v-1.2c0,0-0.1,0.1-0.2,0.1s-0.2,0.1-0.2,0.1s-0.1,0.1-0.2,0.1
		c-0.1,0.1-0.1,0.1-0.2,0.2s-0.1,0.1-0.1,0.2s0,0.2,0,0.2C197.8,149.6,197.9,149.8,198.2,149.8z"/>
	<path fill="#F7EA84" d="M128.5,156.5c-0.2,0-0.4,0-0.6-0.1c-0.2-0.1-0.3-0.2-0.4-0.3s-0.2-0.3-0.2-0.4s-0.1-0.4-0.1-0.5
		c0-0.2,0-0.4,0-0.6c0-0.2,0-0.4,0-0.6c0-0.2,0-0.4,0-0.6c0-0.2,0.1-0.4,0.1-0.5c0.1-0.2,0.1-0.3,0.2-0.4c0.1-0.1,0.2-0.2,0.4-0.3
		c0.2-0.1,0.3-0.1,0.6-0.1c0.5,0,0.8,0.1,1,0.4c0.2,0.2,0.3,0.6,0.3,1.1v0.1h-0.9v-0.1c0-0.1,0-0.2,0-0.3c0-0.1,0-0.2-0.1-0.2
		c0-0.1-0.1-0.1-0.1-0.2c-0.1,0-0.1-0.1-0.2-0.1s-0.2,0-0.2,0.1c-0.1,0.1-0.1,0.1-0.1,0.2c0,0.1-0.1,0.2-0.1,0.3s0,0.2,0,0.4
		c0,0.3,0,0.7,0,1.3c0,0.1,0,0.2,0,0.3s0,0.2,0.1,0.3c0,0.1,0.1,0.2,0.1,0.2c0.1,0,0.1,0.1,0.2,0.1c0.1,0,0.1,0,0.2,0
		c0.1,0,0.1-0.1,0.1-0.1c0,0,0.1-0.1,0.1-0.2c0-0.1,0-0.1,0-0.2s0-0.1,0-0.2V155h0.9v0.1c0,0.2,0,0.4-0.1,0.6s-0.1,0.3-0.2,0.5
		c-0.1,0.1-0.2,0.2-0.4,0.3C128.9,156.5,128.7,156.5,128.5,156.5z"/>
	<path fill="#F7EA84" d="M130.3,156.5v-6.1h0.9v2.2c0.1-0.1,0.2-0.2,0.3-0.3s0.2-0.1,0.3-0.2c0.1-0.1,0.3-0.1,0.5-0.1
		c0.2,0,0.3,0.1,0.5,0.2s0.2,0.3,0.2,0.5v3.7h-0.9v-3.3c0-0.2,0-0.3-0.1-0.3c0-0.1-0.1-0.1-0.2-0.1c-0.2,0-0.4,0.1-0.6,0.3v3.5
		H130.3z"/>
	<path fill="#F7EA84" d="M134.9,156.5c-0.2,0-0.4,0-0.6-0.1c-0.2-0.1-0.3-0.2-0.4-0.3c-0.1-0.1-0.2-0.3-0.2-0.5s-0.1-0.4-0.1-0.6
		c0-0.2,0-0.4,0-0.6c0-0.2,0-0.4,0-0.6c0-0.2,0-0.4,0-0.6c0-0.2,0.1-0.3,0.1-0.5s0.1-0.3,0.2-0.4c0.1-0.1,0.2-0.2,0.4-0.3
		c0.2-0.1,0.3-0.1,0.5-0.1c0.2,0,0.4,0,0.5,0.1c0.1,0,0.3,0.1,0.4,0.2c0.1,0.1,0.2,0.2,0.2,0.3c0.1,0.1,0.1,0.3,0.1,0.4
		s0.1,0.3,0.1,0.5c0,0.2,0,0.4,0,0.6v0.1h-1.8v0.2c0,0,0,0.1,0,0.1c0,0.1,0,0.2,0,0.3c0,0.1,0,0.2,0,0.3c0,0.1,0,0.2,0,0.2
		c0,0.1,0,0.1,0.1,0.2s0.1,0.1,0.1,0.1c0.1,0,0.1,0.1,0.2,0.1c0.1,0,0.2,0,0.2-0.1s0.1-0.1,0.1-0.2c0-0.1,0-0.1,0.1-0.2s0-0.2,0-0.3
		V155h0.9v0.2c0,0.5-0.1,0.8-0.3,1.1C135.7,156.4,135.4,156.5,134.9,156.5z M134.5,153.9h0.9v-0.3c0-0.1,0-0.2,0-0.3s0-0.2-0.1-0.3
		c0-0.1-0.1-0.2-0.1-0.2s-0.1-0.1-0.2-0.1c-0.1,0-0.2,0-0.2,0.1c-0.1,0-0.1,0.1-0.1,0.2c0,0.1,0,0.2-0.1,0.3c0,0.1,0,0.2,0,0.3
		V153.9z"/>
	<path fill="#F7EA84" d="M138.1,156.5c-0.2,0-0.4,0-0.6-0.1c-0.2-0.1-0.3-0.2-0.4-0.3c-0.1-0.1-0.2-0.3-0.2-0.5s-0.1-0.4-0.1-0.6
		c0-0.2,0-0.4,0-0.6c0-0.2,0-0.4,0-0.6c0-0.2,0-0.4,0-0.6c0-0.2,0.1-0.3,0.1-0.5s0.1-0.3,0.2-0.4c0.1-0.1,0.2-0.2,0.4-0.3
		c0.2-0.1,0.3-0.1,0.5-0.1c0.2,0,0.4,0,0.5,0.1c0.1,0,0.3,0.1,0.4,0.2c0.1,0.1,0.2,0.2,0.2,0.3c0.1,0.1,0.1,0.3,0.1,0.4
		s0.1,0.3,0.1,0.5c0,0.2,0,0.4,0,0.6v0.1h-1.8v0.2c0,0,0,0.1,0,0.1c0,0.1,0,0.2,0,0.3c0,0.1,0,0.2,0,0.3c0,0.1,0,0.2,0,0.2
		c0,0.1,0,0.1,0.1,0.2s0.1,0.1,0.1,0.1c0.1,0,0.1,0.1,0.2,0.1c0.1,0,0.2,0,0.2-0.1s0.1-0.1,0.1-0.2c0-0.1,0-0.1,0.1-0.2s0-0.2,0-0.3
		V155h0.9v0.2c0,0.5-0.1,0.8-0.3,1.1C138.9,156.4,138.6,156.5,138.1,156.5z M137.7,153.9h0.9v-0.3c0-0.1,0-0.2,0-0.3s0-0.2-0.1-0.3
		c0-0.1-0.1-0.2-0.1-0.2s-0.1-0.1-0.2-0.1c-0.1,0-0.2,0-0.2,0.1c-0.1,0-0.1,0.1-0.1,0.2c0,0.1,0,0.2-0.1,0.3c0,0.1,0,0.2,0,0.3
		V153.9z"/>
	<path fill="#F7EA84" d="M141.3,156.5c-0.3,0-0.6-0.1-0.8-0.3c-0.2-0.2-0.2-0.4-0.2-0.8v-2.7h-0.4v-0.7h0.4v-1.5h0.9v1.5h0.7v0.7
		h-0.7v2.6c0,0.2,0,0.3,0.1,0.4s0.1,0.1,0.3,0.1c0.1,0,0.2,0,0.3,0v0.7C141.6,156.5,141.4,156.5,141.3,156.5z"/>
	<path fill="#F7EA84" d="M143.2,156.5c-0.2,0-0.5-0.1-0.6-0.3c-0.2-0.2-0.3-0.4-0.3-0.7c0-0.2,0-0.4,0.1-0.6
		c0.1-0.2,0.1-0.3,0.2-0.4s0.2-0.2,0.4-0.3s0.3-0.2,0.4-0.2s0.3-0.1,0.5-0.2c0,0,0.1,0,0.1,0v-0.3c0-0.2,0-0.4-0.1-0.5
		s-0.2-0.2-0.3-0.2c-0.2,0-0.3,0.1-0.3,0.2c-0.1,0.1-0.1,0.2-0.1,0.4c0,0,0,0.1,0,0.1h-0.9c0-0.4,0.1-0.8,0.4-1
		c0.2-0.2,0.6-0.4,1-0.4c0.4,0,0.7,0.1,1,0.4c0.2,0.3,0.4,0.6,0.4,1v2c0,0.5,0,0.8,0.1,1.1h-0.9l-0.1-0.7c0,0.1-0.1,0.2-0.1,0.2
		c0,0-0.1,0.1-0.1,0.2s-0.1,0.1-0.2,0.2s-0.1,0.1-0.2,0.1C143.4,156.5,143.3,156.5,143.2,156.5z M143.7,155.8c0.1,0,0.1,0,0.2-0.1
		c0.1,0,0.1-0.1,0.1-0.1c0,0,0.1-0.1,0.1-0.1c0,0,0,0,0,0v-1.2c0,0-0.1,0.1-0.2,0.1s-0.2,0.1-0.2,0.1s-0.1,0.1-0.2,0.1
		c-0.1,0.1-0.1,0.1-0.2,0.2s-0.1,0.1-0.1,0.2s0,0.2,0,0.2C143.2,155.6,143.4,155.8,143.7,155.8z"/>
	<path fill="#F7EA84" d="M145.7,156.5v-6.1h0.9v2.2c0.1-0.1,0.2-0.2,0.3-0.3s0.2-0.1,0.3-0.2c0.1-0.1,0.3-0.1,0.5-0.1
		c0.2,0,0.3,0.1,0.5,0.2s0.2,0.3,0.2,0.5v3.7h-0.9v-3.3c0-0.2,0-0.3-0.1-0.3c0-0.1-0.1-0.1-0.2-0.1c-0.2,0-0.4,0.1-0.6,0.3v3.5
		H145.7z"/>
</g>
<g>
	<rect x="121" y="180.8" fill="none" width="72.2" height="18"/>
	<path fill="#F7EA84" d="M121.4,187v-6.1h2.4v0.7h-1.5v2h1.1v0.7h-1.1v2.8H121.4z"/>
	<path fill="#F7EA84" d="M124.9,187c-0.2,0-0.5-0.1-0.6-0.3c-0.2-0.2-0.3-0.4-0.3-0.7c0-0.2,0-0.4,0.1-0.6c0.1-0.2,0.1-0.3,0.2-0.4
		s0.2-0.2,0.4-0.3s0.3-0.2,0.4-0.2s0.3-0.1,0.5-0.2c0,0,0.1,0,0.1,0v-0.3c0-0.2,0-0.4-0.1-0.5s-0.2-0.2-0.3-0.2
		c-0.2,0-0.3,0.1-0.3,0.2c-0.1,0.1-0.1,0.2-0.1,0.4c0,0,0,0.1,0,0.1H124c0-0.4,0.1-0.8,0.4-1c0.2-0.2,0.6-0.4,1-0.4
		c0.4,0,0.7,0.1,1,0.4c0.2,0.3,0.4,0.6,0.4,1v2c0,0.5,0,0.8,0.1,1.1h-0.9l-0.1-0.7c0,0.1-0.1,0.2-0.1,0.2c0,0-0.1,0.1-0.1,0.2
		s-0.1,0.1-0.2,0.2s-0.1,0.1-0.2,0.1C125.1,187,125,187,124.9,187z M125.3,186.3c0.1,0,0.1,0,0.2-0.1c0.1,0,0.1-0.1,0.1-0.1
		c0,0,0.1-0.1,0.1-0.1c0,0,0,0,0,0v-1.2c0,0-0.1,0.1-0.2,0.1s-0.2,0.1-0.2,0.1s-0.1,0.1-0.2,0.1c-0.1,0.1-0.1,0.1-0.2,0.2
		s-0.1,0.1-0.1,0.2s0,0.2,0,0.2C124.9,186.1,125,186.3,125.3,186.3z"/>
	<path fill="#F7EA84" d="M128.5,187c-0.4,0-0.6-0.1-0.9-0.3c-0.2-0.2-0.4-0.5-0.4-0.8l0.7-0.2c0.2,0.4,0.4,0.7,0.7,0.7
		c0.1,0,0.2,0,0.3-0.1c0.1-0.1,0.1-0.2,0.1-0.3c0-0.2-0.1-0.4-0.2-0.5l-0.9-0.7c-0.1-0.1-0.2-0.1-0.2-0.2c-0.1-0.1-0.1-0.1-0.2-0.2
		c-0.1-0.1-0.1-0.2-0.2-0.3c0-0.1-0.1-0.2-0.1-0.3c0-0.4,0.1-0.7,0.4-0.9c0.2-0.2,0.6-0.3,1-0.3c0.2,0,0.4,0,0.5,0.1
		s0.3,0.1,0.4,0.3c0.1,0.1,0.2,0.2,0.3,0.4c0.1,0.1,0.1,0.3,0.2,0.4l-0.7,0.2c0-0.1-0.1-0.2-0.1-0.2s-0.1-0.1-0.1-0.2
		c-0.1-0.1-0.1-0.1-0.2-0.2s-0.2-0.1-0.2-0.1c-0.1,0-0.2,0-0.3,0.1c-0.1,0.1-0.1,0.2-0.1,0.3c0,0.1,0.1,0.3,0.2,0.4l0.9,0.7
		c0.1,0.1,0.2,0.2,0.3,0.2c0.1,0.1,0.1,0.2,0.2,0.2s0.1,0.2,0.2,0.3c0,0.1,0.1,0.2,0.1,0.4c0,0.4-0.1,0.7-0.4,0.9
		C129.3,186.9,128.9,187,128.5,187z"/>
	<path fill="#F7EA84" d="M131.6,187c-0.3,0-0.6-0.1-0.8-0.3c-0.2-0.2-0.2-0.4-0.2-0.8v-2.7h-0.4v-0.7h0.4v-1.5h0.9v1.5h0.7v0.7h-0.7
		v2.6c0,0.2,0,0.3,0.1,0.4s0.1,0.1,0.3,0.1c0.1,0,0.2,0,0.3,0v0.7C131.9,187,131.7,187,131.6,187z"/>
	<path fill="#F7EA84" d="M134,187c-0.2,0-0.4,0-0.6-0.1c-0.2-0.1-0.3-0.2-0.4-0.3c-0.1-0.1-0.2-0.3-0.2-0.5s-0.1-0.4-0.1-0.6
		c0-0.2,0-0.4,0-0.6c0-0.2,0-0.4,0-0.6c0-0.2,0-0.4,0-0.6c0-0.2,0.1-0.3,0.1-0.5s0.1-0.3,0.2-0.4c0.1-0.1,0.2-0.2,0.4-0.3
		c0.2-0.1,0.3-0.1,0.5-0.1c0.2,0,0.4,0,0.5,0.1c0.1,0,0.3,0.1,0.4,0.2c0.1,0.1,0.2,0.2,0.2,0.3c0.1,0.1,0.1,0.3,0.1,0.4
		s0.1,0.3,0.1,0.5c0,0.2,0,0.4,0,0.6v0.1h-1.8v0.2c0,0,0,0.1,0,0.1c0,0.1,0,0.2,0,0.3c0,0.1,0,0.2,0,0.3c0,0.1,0,0.2,0,0.2
		c0,0.1,0,0.1,0.1,0.2s0.1,0.1,0.1,0.1c0.1,0,0.1,0.1,0.2,0.1c0.1,0,0.2,0,0.2-0.1s0.1-0.1,0.1-0.2c0-0.1,0-0.1,0.1-0.2s0-0.2,0-0.3
		v-0.2h0.9v0.2c0,0.5-0.1,0.8-0.3,1.1C134.8,186.9,134.4,187,134,187z M133.6,184.3h0.9v-0.3c0-0.1,0-0.2,0-0.3s0-0.2-0.1-0.3
		c0-0.1-0.1-0.2-0.1-0.2s-0.1-0.1-0.2-0.1c-0.1,0-0.2,0-0.2,0.1c-0.1,0-0.1,0.1-0.1,0.2c0,0.1,0,0.2-0.1,0.3c0,0.1,0,0.2,0,0.3
		V184.3z"/>
	<path fill="#F7EA84" d="M137.1,187c-0.4,0-0.6-0.1-0.9-0.3c-0.2-0.2-0.4-0.5-0.4-0.8l0.7-0.2c0.2,0.4,0.4,0.7,0.7,0.7
		c0.1,0,0.2,0,0.3-0.1c0.1-0.1,0.1-0.2,0.1-0.3c0-0.2-0.1-0.4-0.2-0.5l-0.9-0.7c-0.1-0.1-0.2-0.1-0.2-0.2c-0.1-0.1-0.1-0.1-0.2-0.2
		c-0.1-0.1-0.1-0.2-0.2-0.3c0-0.1-0.1-0.2-0.1-0.3c0-0.4,0.1-0.7,0.4-0.9c0.2-0.2,0.6-0.3,1-0.3c0.2,0,0.4,0,0.5,0.1
		s0.3,0.1,0.4,0.3c0.1,0.1,0.2,0.2,0.3,0.4c0.1,0.1,0.1,0.3,0.2,0.4l-0.7,0.2c0-0.1-0.1-0.2-0.1-0.2s-0.1-0.1-0.1-0.2
		c-0.1-0.1-0.1-0.1-0.2-0.2s-0.2-0.1-0.2-0.1c-0.1,0-0.2,0-0.3,0.1c-0.1,0.1-0.1,0.2-0.1,0.3c0,0.1,0.1,0.3,0.2,0.4l0.9,0.7
		c0.1,0.1,0.2,0.2,0.3,0.2c0.1,0.1,0.1,0.2,0.2,0.2s0.1,0.2,0.2,0.3c0,0.1,0.1,0.2,0.1,0.4c0,0.4-0.1,0.7-0.4,0.9
		C137.8,186.9,137.5,187,137.1,187z"/>
	<path fill="#F7EA84" d="M140.2,187c-0.3,0-0.6-0.1-0.8-0.3c-0.2-0.2-0.2-0.4-0.2-0.8v-2.7h-0.4v-0.7h0.4v-1.5h0.9v1.5h0.7v0.7H140
		v2.6c0,0.2,0,0.3,0.1,0.4s0.1,0.1,0.3,0.1c0.1,0,0.2,0,0.3,0v0.7C140.5,187,140.3,187,140.2,187z"/>
	<path fill="#F7EA84" d="M143.9,187c-0.4,0-0.6-0.1-0.9-0.3c-0.2-0.2-0.4-0.5-0.4-0.8l0.7-0.2c0.2,0.4,0.4,0.7,0.7,0.7
		c0.1,0,0.2,0,0.3-0.1c0.1-0.1,0.1-0.2,0.1-0.3c0-0.2-0.1-0.4-0.2-0.5l-0.9-0.7c-0.1-0.1-0.2-0.1-0.2-0.2c-0.1-0.1-0.1-0.1-0.2-0.2
		c-0.1-0.1-0.1-0.2-0.2-0.3c0-0.1-0.1-0.2-0.1-0.3c0-0.4,0.1-0.7,0.4-0.9c0.2-0.2,0.6-0.3,1-0.3c0.2,0,0.4,0,0.5,0.1
		s0.3,0.1,0.4,0.3c0.1,0.1,0.2,0.2,0.3,0.4c0.1,0.1,0.1,0.3,0.2,0.4l-0.7,0.2c0-0.1-0.1-0.2-0.1-0.2s-0.1-0.1-0.1-0.2
		c-0.1-0.1-0.1-0.1-0.2-0.2s-0.2-0.1-0.2-0.1c-0.1,0-0.2,0-0.3,0.1c-0.1,0.1-0.1,0.2-0.1,0.3c0,0.1,0.1,0.3,0.2,0.4l0.9,0.7
		c0.1,0.1,0.2,0.2,0.3,0.2c0.1,0.1,0.1,0.2,0.2,0.2s0.1,0.2,0.2,0.3c0,0.1,0.1,0.2,0.1,0.4c0,0.4-0.1,0.7-0.4,0.9
		C144.6,186.9,144.3,187,143.9,187z"/>
	<path fill="#F7EA84" d="M146.2,187l-0.8-4.4h0.8l0.5,3.3l0.5-3.3h0.8l0.5,3.3l0.5-3.3h0.8l-0.8,4.4H148l-0.5-3l-0.5,3H146.2z"/>
	<path fill="#F7EA84" d="M150.2,181.9v-0.9h0.9v0.9H150.2z M150.2,187v-4.4h0.9v4.4H150.2z"/>
	<path fill="#F7EA84" d="M151.9,187v-4.4h0.9v0.5c0.3-0.4,0.7-0.6,1.1-0.6c0.2,0,0.4,0,0.5,0.1c0.1,0.1,0.2,0.2,0.2,0.4
		c0.1-0.2,0.3-0.3,0.5-0.4c0.2-0.1,0.4-0.1,0.6-0.1c0.1,0,0.1,0,0.2,0c0.1,0,0.1,0,0.2,0.1s0.1,0.1,0.1,0.1c0,0,0.1,0.1,0.1,0.1
		c0,0,0,0.1,0.1,0.2c0,0.1,0,0.1,0,0.2s0,0.1,0,0.2s0,0.2,0,0.2s0,0.1,0,0.2c0,0,0,0,0,0v3.2h-0.9v-3.2c0,0,0,0,0-0.1
		c0-0.1,0-0.1,0-0.2s0-0.1,0-0.1c0-0.1,0-0.1-0.1-0.1c0,0-0.1,0-0.1,0c-0.1,0-0.2,0-0.3,0.1s-0.2,0.1-0.2,0.1c0,0-0.1,0.1-0.2,0.1
		v3.4h-0.9v-3.2c0,0,0,0,0-0.1c0-0.1,0-0.1,0-0.1c0,0,0-0.1,0-0.1c0-0.1,0-0.1,0-0.1c0,0,0,0-0.1-0.1c0,0-0.1,0-0.1,0
		c-0.2,0-0.4,0.1-0.7,0.3v3.4H151.9z"/>
	<path fill="#F7EA84" d="M157,187v-4.4h0.9v0.5c0.3-0.4,0.7-0.6,1.1-0.6c0.2,0,0.4,0,0.5,0.1c0.1,0.1,0.2,0.2,0.2,0.4
		c0.1-0.2,0.3-0.3,0.5-0.4c0.2-0.1,0.4-0.1,0.6-0.1c0.1,0,0.1,0,0.2,0c0.1,0,0.1,0,0.2,0.1s0.1,0.1,0.1,0.1c0,0,0.1,0.1,0.1,0.1
		c0,0,0,0.1,0.1,0.2c0,0.1,0,0.1,0,0.2s0,0.1,0,0.2s0,0.2,0,0.2s0,0.1,0,0.2c0,0,0,0,0,0v3.2h-0.9v-3.2c0,0,0,0,0-0.1
		c0-0.1,0-0.1,0-0.2s0-0.1,0-0.1c0-0.1,0-0.1-0.1-0.1c0,0-0.1,0-0.1,0c-0.1,0-0.2,0-0.3,0.1s-0.2,0.1-0.2,0.1c0,0-0.1,0.1-0.2,0.1
		v3.4h-0.9v-3.2c0,0,0,0,0-0.1c0-0.1,0-0.1,0-0.1c0,0,0-0.1,0-0.1c0-0.1,0-0.1,0-0.1c0,0,0,0-0.1-0.1c0,0-0.1,0-0.1,0
		c-0.2,0-0.4,0.1-0.7,0.3v3.4H157z"/>
	<path fill="#F7EA84" d="M162.2,181.9v-0.9h0.9v0.9H162.2z M162.2,187v-4.4h0.9v4.4H162.2z"/>
	<path fill="#F7EA84" d="M163.9,187v-4.4h0.9v0.5c0.1-0.1,0.2-0.2,0.3-0.3s0.2-0.1,0.3-0.2c0.1-0.1,0.3-0.1,0.5-0.1
		c0.2,0,0.3,0.1,0.5,0.2s0.2,0.3,0.2,0.5v3.7h-0.9v-3.3c0-0.2,0-0.3-0.1-0.3s-0.1-0.1-0.3-0.1c-0.1,0-0.1,0-0.2,0
		c-0.1,0-0.1,0.1-0.2,0.1s-0.1,0.1-0.2,0.1v3.5H163.9z"/>
	<path fill="#F7EA84" d="M168.7,188.3c-0.1,0-0.2,0-0.3,0s-0.2,0-0.3,0s-0.2,0-0.3,0s-0.2,0-0.3,0s-0.2,0-0.3-0.1
		c-0.1,0-0.1-0.1-0.2-0.1c-0.1,0-0.1-0.1-0.1-0.2c0-0.1,0-0.1,0-0.2c0-0.2,0.1-0.4,0.2-0.6c0.1-0.2,0.3-0.3,0.5-0.4
		c-0.1,0-0.2-0.1-0.3-0.1c-0.1-0.1-0.1-0.1-0.1-0.2c0,0,0-0.1,0-0.1c0,0,0-0.1,0-0.1s0-0.1,0.1-0.1c0,0,0-0.1,0.1-0.1
		c0,0,0-0.1,0.1-0.1s0.1-0.1,0.1-0.1c0,0,0,0,0.1-0.1c0,0,0.1-0.1,0.1-0.1c-0.3-0.3-0.4-0.8-0.4-1.3c0-0.3,0-0.6,0.1-0.8
		c0.1-0.2,0.2-0.4,0.4-0.6c0.2-0.1,0.4-0.2,0.7-0.2c0.2,0,0.3,0,0.4,0.1s0.2,0.1,0.3,0.2c0.1,0.1,0.2,0.2,0.2,0.3
		c0.2-0.3,0.4-0.5,0.7-0.5c0,0,0,0,0,0s0,0,0,0c0,0,0,0,0,0v0.7c0,0,0,0-0.1,0c-0.1,0-0.2,0-0.2,0c-0.1,0-0.1,0-0.2,0
		c-0.1,0-0.1,0-0.1,0.1c0,0.1,0.1,0.2,0.1,0.4c0,0.1,0,0.3,0,0.4c0,0.3,0,0.6-0.1,0.8c-0.1,0.2-0.2,0.4-0.4,0.6
		c-0.2,0.1-0.4,0.2-0.7,0.2l-0.4-0.1c0,0,0,0,0,0.1s0,0.1,0,0.1c0,0,0,0,0,0.1s0,0.1,0,0.1c0,0.1,0,0.1,0.1,0.2s0.1,0.1,0.2,0.1
		s0.2,0,0.3,0c0.1,0,0.2,0,0.3,0s0.2,0,0.2,0c0.1,0,0.2,0,0.3,0.1c0.1,0,0.2,0.1,0.3,0.1c0.1,0,0.2,0.1,0.3,0.2
		c0.1,0.1,0.1,0.1,0.2,0.2c0,0.1,0.1,0.2,0.1,0.3c0,0.2,0,0.3-0.1,0.4c-0.1,0.1-0.1,0.2-0.2,0.3s-0.2,0.1-0.3,0.2s-0.3,0.1-0.4,0.1
		C169,188.3,168.9,188.3,168.7,188.3z M168.7,187.6c0.1,0,0.1,0,0.2,0c0,0,0.1,0,0.2,0c0.1,0,0.1,0,0.2,0c0,0,0.1,0,0.1-0.1
		c0,0,0.1-0.1,0.1-0.1c0,0,0-0.1,0-0.1c0-0.2-0.2-0.4-0.7-0.4l-0.7-0.1c-0.1,0.1-0.2,0.2-0.2,0.3c-0.1,0.1-0.1,0.2-0.1,0.4
		c0,0,0,0.1,0,0.1s0.1,0,0.1,0.1c0,0,0.1,0,0.2,0c0.1,0,0.1,0,0.2,0c0.1,0,0.1,0,0.2,0s0.1,0,0.2,0
		C168.6,187.6,168.7,187.6,168.7,187.6z M168.5,185.1c0.4,0,0.5-0.3,0.5-0.9c0-0.1,0-0.2,0-0.3c0-0.1,0-0.2-0.1-0.3
		s-0.1-0.2-0.2-0.2c-0.1-0.1-0.2-0.1-0.3-0.1c-0.1,0-0.2,0-0.3,0.1c-0.1,0.1-0.1,0.1-0.2,0.2c0,0.1-0.1,0.2-0.1,0.3
		c0,0.1,0,0.2,0,0.3C167.9,184.7,168.1,185.1,168.5,185.1z"/>
	<path fill="#F7EA84" d="M172.1,187v-3.7h-0.4v-0.7h0.4v-0.2c0-0.2,0-0.3,0-0.5s0-0.3,0.1-0.4c0-0.1,0.1-0.2,0.2-0.3
		c0.1-0.1,0.2-0.1,0.3-0.2c0.1,0,0.3-0.1,0.4-0.1c0.1,0,0.3,0,0.5,0v0.6c0,0-0.1,0-0.1,0c-0.1,0-0.1,0-0.2,0c-0.1,0-0.2,0-0.3,0.1
		c0,0.1-0.1,0.2-0.1,0.4v0.3h0.7v0.7H173v3.7H172.1z"/>
	<path fill="#F7EA84" d="M174.1,181.9v-0.9h0.9v0.9H174.1z M174.1,187v-4.4h0.9v4.4H174.1z"/>
	<path fill="#F7EA84" d="M176.9,187c-0.4,0-0.6-0.1-0.9-0.3c-0.2-0.2-0.4-0.5-0.4-0.8l0.7-0.2c0.2,0.4,0.4,0.7,0.7,0.7
		c0.1,0,0.2,0,0.3-0.1c0.1-0.1,0.1-0.2,0.1-0.3c0-0.2-0.1-0.4-0.2-0.5l-0.9-0.7c-0.1-0.1-0.2-0.1-0.2-0.2c-0.1-0.1-0.1-0.1-0.2-0.2
		c-0.1-0.1-0.1-0.2-0.2-0.3c0-0.1-0.1-0.2-0.1-0.3c0-0.4,0.1-0.7,0.4-0.9c0.2-0.2,0.6-0.3,1-0.3c0.2,0,0.4,0,0.5,0.1
		s0.3,0.1,0.4,0.3c0.1,0.1,0.2,0.2,0.3,0.4c0.1,0.1,0.1,0.3,0.2,0.4l-0.7,0.2c0-0.1-0.1-0.2-0.1-0.2s-0.1-0.1-0.1-0.2
		c-0.1-0.1-0.1-0.1-0.2-0.2s-0.2-0.1-0.2-0.1c-0.1,0-0.2,0-0.3,0.1c-0.1,0.1-0.1,0.2-0.1,0.3c0,0.1,0.1,0.3,0.2,0.4l0.9,0.7
		c0.1,0.1,0.2,0.2,0.3,0.2c0.1,0.1,0.1,0.2,0.2,0.2s0.1,0.2,0.2,0.3c0,0.1,0.1,0.2,0.1,0.4c0,0.4-0.1,0.7-0.4,0.9
		C177.7,186.9,177.3,187,176.9,187z"/>
	<path fill="#F7EA84" d="M178.8,187v-6.1h0.9v2.2c0.1-0.1,0.2-0.2,0.3-0.3s0.2-0.1,0.3-0.2c0.1-0.1,0.3-0.1,0.5-0.1
		c0.2,0,0.3,0.1,0.5,0.2s0.2,0.3,0.2,0.5v3.7h-0.9v-3.3c0-0.2,0-0.3-0.1-0.3c0-0.1-0.1-0.1-0.2-0.1c-0.2,0-0.4,0.1-0.6,0.3v3.5
		H178.8z"/>
	<path fill="#F7EA84" d="M183.6,181.9v-0.9h0.9v0.9H183.6z M183.6,187v-4.4h0.9v4.4H183.6z"/>
	<path fill="#F7EA84" d="M186.5,187c-0.4,0-0.6-0.1-0.9-0.3c-0.2-0.2-0.4-0.5-0.4-0.8l0.7-0.2c0.2,0.4,0.4,0.7,0.7,0.7
		c0.1,0,0.2,0,0.3-0.1c0.1-0.1,0.1-0.2,0.1-0.3c0-0.2-0.1-0.4-0.2-0.5l-0.9-0.7c-0.1-0.1-0.2-0.1-0.2-0.2c-0.1-0.1-0.1-0.1-0.2-0.2
		c-0.1-0.1-0.1-0.2-0.2-0.3c0-0.1-0.1-0.2-0.1-0.3c0-0.4,0.1-0.7,0.4-0.9c0.2-0.2,0.6-0.3,1-0.3c0.2,0,0.4,0,0.5,0.1
		s0.3,0.1,0.4,0.3c0.1,0.1,0.2,0.2,0.3,0.4c0.1,0.1,0.1,0.3,0.2,0.4l-0.7,0.2c0-0.1-0.1-0.2-0.1-0.2s-0.1-0.1-0.1-0.2
		c-0.1-0.1-0.1-0.1-0.2-0.2s-0.2-0.1-0.2-0.1c-0.1,0-0.2,0-0.3,0.1c-0.1,0.1-0.1,0.2-0.1,0.3c0,0.1,0.1,0.3,0.2,0.4l0.9,0.7
		c0.1,0.1,0.2,0.2,0.3,0.2c0.1,0.1,0.1,0.2,0.2,0.2s0.1,0.2,0.2,0.3c0,0.1,0.1,0.2,0.1,0.4c0,0.4-0.1,0.7-0.4,0.9
		C187.2,186.9,186.9,187,186.5,187z"/>
	<path fill="#F7EA84" d="M122.6,193c-0.3,0-0.6-0.1-0.8-0.3c-0.2-0.2-0.2-0.4-0.2-0.8v-2.7h-0.4v-0.7h0.4v-1.5h0.9v1.5h0.7v0.7h-0.7
		v2.6c0,0.2,0,0.3,0.1,0.4s0.1,0.1,0.3,0.1c0.1,0,0.2,0,0.3,0v0.7C122.9,193,122.8,193,122.6,193z"/>
	<path fill="#F7EA84" d="M123.8,193v-6.1h0.9v2.2c0.1-0.1,0.2-0.2,0.3-0.3s0.2-0.1,0.3-0.2c0.1-0.1,0.3-0.1,0.5-0.1
		c0.2,0,0.3,0.1,0.5,0.2s0.2,0.3,0.2,0.5v3.7h-0.9v-3.3c0-0.2,0-0.3-0.1-0.3c0-0.1-0.1-0.1-0.2-0.1c-0.2,0-0.4,0.1-0.6,0.3v3.5
		H123.8z"/>
	<path fill="#F7EA84" d="M128.4,193c-0.2,0-0.4,0-0.6-0.1c-0.2-0.1-0.3-0.2-0.4-0.3c-0.1-0.1-0.2-0.3-0.2-0.5s-0.1-0.4-0.1-0.6
		c0-0.2,0-0.4,0-0.6c0-0.2,0-0.4,0-0.6c0-0.2,0-0.4,0-0.6c0-0.2,0.1-0.3,0.1-0.5s0.1-0.3,0.2-0.4c0.1-0.1,0.2-0.2,0.4-0.3
		c0.2-0.1,0.3-0.1,0.5-0.1c0.2,0,0.4,0,0.5,0.1c0.1,0,0.3,0.1,0.4,0.2c0.1,0.1,0.2,0.2,0.2,0.3c0.1,0.1,0.1,0.3,0.1,0.4
		s0.1,0.3,0.1,0.5c0,0.2,0,0.4,0,0.6v0.1H128v0.2c0,0,0,0.1,0,0.1c0,0.1,0,0.2,0,0.3c0,0.1,0,0.2,0,0.3c0,0.1,0,0.2,0,0.2
		c0,0.1,0,0.1,0.1,0.2s0.1,0.1,0.1,0.1c0.1,0,0.1,0.1,0.2,0.1c0.1,0,0.2,0,0.2-0.1s0.1-0.1,0.1-0.2c0-0.1,0-0.1,0.1-0.2s0-0.2,0-0.3
		v-0.2h0.9v0.2c0,0.5-0.1,0.8-0.3,1.1C129.2,192.9,128.9,193,128.4,193z M128,190.3h0.9v-0.3c0-0.1,0-0.2,0-0.3s0-0.2-0.1-0.3
		c0-0.1-0.1-0.2-0.1-0.2s-0.1-0.1-0.2-0.1c-0.1,0-0.2,0-0.2,0.1c-0.1,0-0.1,0.1-0.1,0.2c0,0.1,0,0.2-0.1,0.3c0,0.1,0,0.2,0,0.3
		V190.3z"/>
	<path fill="#F7EA84" d="M132.9,193c-0.4,0-0.6-0.1-0.9-0.3c-0.2-0.2-0.4-0.5-0.4-0.8l0.7-0.2c0.2,0.4,0.4,0.7,0.7,0.7
		c0.1,0,0.2,0,0.3-0.1c0.1-0.1,0.1-0.2,0.1-0.3c0-0.2-0.1-0.4-0.2-0.5l-0.9-0.7c-0.1-0.1-0.2-0.1-0.2-0.2c-0.1-0.1-0.1-0.1-0.2-0.2
		c-0.1-0.1-0.1-0.2-0.2-0.3c0-0.1-0.1-0.2-0.1-0.3c0-0.4,0.1-0.7,0.4-0.9c0.2-0.2,0.6-0.3,1-0.3c0.2,0,0.4,0,0.5,0.1
		s0.3,0.1,0.4,0.3c0.1,0.1,0.2,0.2,0.3,0.4c0.1,0.1,0.1,0.3,0.2,0.4l-0.7,0.2c0-0.1-0.1-0.2-0.1-0.2s-0.1-0.1-0.1-0.2
		c-0.1-0.1-0.1-0.1-0.2-0.2s-0.2-0.1-0.2-0.1c-0.1,0-0.2,0-0.3,0.1c-0.1,0.1-0.1,0.2-0.1,0.3c0,0.1,0.1,0.3,0.2,0.4l0.9,0.7
		c0.1,0.1,0.2,0.2,0.3,0.2c0.1,0.1,0.1,0.2,0.2,0.2s0.1,0.2,0.2,0.3c0,0.1,0.1,0.2,0.1,0.4c0,0.4-0.1,0.7-0.4,0.9
		C133.7,192.9,133.3,193,132.9,193z"/>
	<path fill="#F7EA84" d="M134.8,193v-6.1h0.9v2.2c0.1-0.1,0.2-0.2,0.3-0.3s0.2-0.1,0.3-0.2c0.1-0.1,0.3-0.1,0.5-0.1
		c0.2,0,0.3,0.1,0.5,0.2s0.2,0.3,0.2,0.5v3.7h-0.9v-3.3c0-0.2,0-0.3-0.1-0.3c0-0.1-0.1-0.1-0.2-0.1c-0.2,0-0.4,0.1-0.6,0.3v3.5
		H134.8z"/>
	<path fill="#F7EA84" d="M140.4,192.6c-0.2,0.3-0.5,0.4-1,0.4s-0.8-0.1-1-0.4s-0.3-0.7-0.3-1.2v-1.3c0-0.5,0.1-0.9,0.3-1.2
		s0.5-0.4,1-0.4s0.8,0.1,1,0.4s0.3,0.7,0.3,1.2v1.3C140.7,192,140.6,192.3,140.4,192.6z M139.2,192.3c0,0,0.1,0,0.2,0s0.1,0,0.2,0
		c0,0,0.1,0,0.1-0.1c0,0,0.1-0.1,0.1-0.1c0-0.1,0-0.1,0-0.1c0,0,0-0.1,0-0.2s0-0.1,0-0.2c0,0,0-0.1,0-0.2v-1.3c0-0.1,0-0.1,0-0.2
		c0,0,0-0.1,0-0.2s0-0.1,0-0.2c0,0,0-0.1,0-0.1c0-0.1,0-0.1-0.1-0.1c0,0-0.1,0-0.1-0.1c0,0-0.1,0-0.2,0s-0.1,0-0.2,0
		c0,0-0.1,0-0.1,0.1c0,0-0.1,0.1-0.1,0.1c0,0.1,0,0.1,0,0.1c0,0,0,0.1,0,0.2s0,0.1,0,0.2c0,0,0,0.1,0,0.2v1.3c0,0.1,0,0.1,0,0.2
		c0,0,0,0.1,0,0.2s0,0.1,0,0.2c0,0,0,0.1,0,0.1c0,0.1,0,0.1,0.1,0.1C139.2,192.2,139.2,192.3,139.2,192.3z"/>
	<path fill="#F7EA84" d="M141.4,193v-4.4h0.9v0.6c0.1-0.2,0.2-0.3,0.4-0.5c0.2-0.1,0.4-0.2,0.6-0.2c0,0,0.1,0,0.1,0v1
		c-0.2-0.1-0.3-0.1-0.5-0.1c-0.2,0-0.3,0.1-0.4,0.2s-0.2,0.3-0.2,0.4v3H141.4z"/>
	<path fill="#F7EA84" d="M145,193c-0.3,0-0.6-0.1-0.8-0.3c-0.2-0.2-0.2-0.4-0.2-0.8v-2.7h-0.4v-0.7h0.4v-1.5h0.9v1.5h0.7v0.7h-0.7
		v2.6c0,0.2,0,0.3,0.1,0.4s0.1,0.1,0.3,0.1c0.1,0,0.2,0,0.3,0v0.7C145.3,193,145.2,193,145,193z"/>
	<path fill="#F7EA84" d="M147.4,193c-0.3,0-0.6-0.1-0.8-0.3c-0.2-0.2-0.2-0.4-0.2-0.8v-2.7H146v-0.7h0.4v-1.5h0.9v1.5h0.7v0.7h-0.7
		v2.6c0,0.2,0,0.3,0.1,0.4s0.1,0.1,0.3,0.1c0.1,0,0.2,0,0.3,0v0.7C147.7,193,147.6,193,147.4,193z"/>
	<path fill="#F7EA84" d="M149.4,193c-0.2,0-0.5-0.1-0.6-0.3c-0.2-0.2-0.3-0.4-0.3-0.7c0-0.2,0-0.4,0.1-0.6c0.1-0.2,0.1-0.3,0.2-0.4
		s0.2-0.2,0.4-0.3s0.3-0.2,0.4-0.2s0.3-0.1,0.5-0.2c0,0,0.1,0,0.1,0v-0.3c0-0.2,0-0.4-0.1-0.5s-0.2-0.2-0.3-0.2
		c-0.2,0-0.3,0.1-0.3,0.2c-0.1,0.1-0.1,0.2-0.1,0.4c0,0,0,0.1,0,0.1h-0.9c0-0.4,0.1-0.8,0.4-1c0.2-0.2,0.6-0.4,1-0.4
		c0.4,0,0.7,0.1,1,0.4c0.2,0.3,0.4,0.6,0.4,1v2c0,0.5,0,0.8,0.1,1.1h-0.9l-0.1-0.7c0,0.1-0.1,0.2-0.1,0.2c0,0-0.1,0.1-0.1,0.2
		s-0.1,0.1-0.2,0.2s-0.1,0.1-0.2,0.1C149.5,193,149.5,193,149.4,193z M149.8,192.3c0.1,0,0.1,0,0.2-0.1c0.1,0,0.1-0.1,0.1-0.1
		c0,0,0.1-0.1,0.1-0.1c0,0,0,0,0,0v-1.2c0,0-0.1,0.1-0.2,0.1s-0.2,0.1-0.2,0.1s-0.1,0.1-0.2,0.1c-0.1,0.1-0.1,0.1-0.2,0.2
		s-0.1,0.1-0.1,0.2s0,0.2,0,0.2C149.4,192.1,149.5,192.3,149.8,192.3z"/>
	<path fill="#F7EA84" d="M151.9,187.9v-0.9h0.9v0.9H151.9z M151.9,193v-4.4h0.9v4.4H151.9z"/>
	<path fill="#F7EA84" d="M153.6,193v-6.1h0.9v6.1H153.6z"/>
	<path fill="#F7EA84" d="M156.7,193v-4.4h0.9v0.5c0.3-0.4,0.7-0.6,1.1-0.6c0.2,0,0.4,0,0.5,0.1c0.1,0.1,0.2,0.2,0.2,0.4
		c0.1-0.2,0.3-0.3,0.5-0.4c0.2-0.1,0.4-0.1,0.6-0.1c0.1,0,0.1,0,0.2,0c0.1,0,0.1,0,0.2,0.1s0.1,0.1,0.1,0.1c0,0,0.1,0.1,0.1,0.1
		c0,0,0,0.1,0.1,0.2c0,0.1,0,0.1,0,0.2s0,0.1,0,0.2s0,0.2,0,0.2s0,0.1,0,0.2c0,0,0,0,0,0v3.2h-0.9v-3.2c0,0,0,0,0-0.1
		c0-0.1,0-0.1,0-0.2s0-0.1,0-0.1c0-0.1,0-0.1-0.1-0.1c0,0-0.1,0-0.1,0c-0.1,0-0.2,0-0.3,0.1s-0.2,0.1-0.2,0.1c0,0-0.1,0.1-0.2,0.1
		v3.4h-0.9v-3.2c0,0,0,0,0-0.1c0-0.1,0-0.1,0-0.1c0,0,0-0.1,0-0.1c0-0.1,0-0.1,0-0.1c0,0,0,0-0.1-0.1c0,0-0.1,0-0.1,0
		c-0.2,0-0.4,0.1-0.7,0.3v3.4H156.7z"/>
	<path fill="#F7EA84" d="M162.6,193c-0.2,0-0.5-0.1-0.6-0.3c-0.2-0.2-0.3-0.4-0.3-0.7c0-0.2,0-0.4,0.1-0.6c0.1-0.2,0.1-0.3,0.2-0.4
		s0.2-0.2,0.4-0.3s0.3-0.2,0.4-0.2s0.3-0.1,0.5-0.2c0,0,0.1,0,0.1,0v-0.3c0-0.2,0-0.4-0.1-0.5s-0.2-0.2-0.3-0.2
		c-0.2,0-0.3,0.1-0.3,0.2c-0.1,0.1-0.1,0.2-0.1,0.4c0,0,0,0.1,0,0.1h-0.9c0-0.4,0.1-0.8,0.4-1c0.2-0.2,0.6-0.4,1-0.4
		c0.4,0,0.7,0.1,1,0.4c0.2,0.3,0.4,0.6,0.4,1v2c0,0.5,0,0.8,0.1,1.1h-0.9l-0.1-0.7c0,0.1-0.1,0.2-0.1,0.2c0,0-0.1,0.1-0.1,0.2
		s-0.1,0.1-0.2,0.2s-0.1,0.1-0.2,0.1C162.8,193,162.7,193,162.6,193z M163,192.3c0.1,0,0.1,0,0.2-0.1c0.1,0,0.1-0.1,0.1-0.1
		c0,0,0.1-0.1,0.1-0.1c0,0,0,0,0,0v-1.2c0,0-0.1,0.1-0.2,0.1s-0.2,0.1-0.2,0.1s-0.1,0.1-0.2,0.1c-0.1,0.1-0.1,0.1-0.2,0.2
		s-0.1,0.1-0.1,0.2s0,0.2,0,0.2C162.6,192.1,162.7,192.3,163,192.3z"/>
	<path fill="#F7EA84" d="M165.1,193v-6.1h0.9v3.4l1.1-1.6h0.9l-1,1.5l1,2.8h-0.9l-0.7-2.1l-0.4,0.6v1.5H165.1z"/>
	<path fill="#F7EA84" d="M170.6,192.6c-0.2,0.3-0.5,0.4-1,0.4s-0.8-0.1-1-0.4s-0.3-0.7-0.3-1.2v-1.3c0-0.5,0.1-0.9,0.3-1.2
		s0.5-0.4,1-0.4s0.8,0.1,1,0.4s0.3,0.7,0.3,1.2v1.3C170.9,192,170.8,192.3,170.6,192.6z M169.4,192.3c0,0,0.1,0,0.2,0s0.1,0,0.2,0
		c0,0,0.1,0,0.1-0.1c0,0,0.1-0.1,0.1-0.1c0-0.1,0-0.1,0-0.1c0,0,0-0.1,0-0.2s0-0.1,0-0.2c0,0,0-0.1,0-0.2v-1.3c0-0.1,0-0.1,0-0.2
		c0,0,0-0.1,0-0.2s0-0.1,0-0.2c0,0,0-0.1,0-0.1c0-0.1,0-0.1-0.1-0.1c0,0-0.1,0-0.1-0.1c0,0-0.1,0-0.2,0s-0.1,0-0.2,0
		c0,0-0.1,0-0.1,0.1c0,0-0.1,0.1-0.1,0.1c0,0.1,0,0.1,0,0.1c0,0,0,0.1,0,0.2s0,0.1,0,0.2c0,0,0,0.1,0,0.2v1.3c0,0.1,0,0.1,0,0.2
		c0,0,0,0.1,0,0.2s0,0.1,0,0.2c0,0,0,0.1,0,0.1c0,0.1,0,0.1,0.1,0.1C169.3,192.2,169.3,192.3,169.4,192.3z"/>
	<path fill="#F7EA84" d="M174.2,193c-0.4,0-0.6-0.1-0.9-0.3c-0.2-0.2-0.4-0.5-0.4-0.8l0.7-0.2c0.2,0.4,0.4,0.7,0.7,0.7
		c0.1,0,0.2,0,0.3-0.1c0.1-0.1,0.1-0.2,0.1-0.3c0-0.2-0.1-0.4-0.2-0.5l-0.9-0.7c-0.1-0.1-0.2-0.1-0.2-0.2c-0.1-0.1-0.1-0.1-0.2-0.2
		c-0.1-0.1-0.1-0.2-0.2-0.3c0-0.1-0.1-0.2-0.1-0.3c0-0.4,0.1-0.7,0.4-0.9c0.2-0.2,0.6-0.3,1-0.3c0.2,0,0.4,0,0.5,0.1
		s0.3,0.1,0.4,0.3c0.1,0.1,0.2,0.2,0.3,0.4c0.1,0.1,0.1,0.3,0.2,0.4l-0.7,0.2c0-0.1-0.1-0.2-0.1-0.2s-0.1-0.1-0.1-0.2
		c-0.1-0.1-0.1-0.1-0.2-0.2s-0.2-0.1-0.2-0.1c-0.1,0-0.2,0-0.3,0.1c-0.1,0.1-0.1,0.2-0.1,0.3c0,0.1,0.1,0.3,0.2,0.4l0.9,0.7
		c0.1,0.1,0.2,0.2,0.3,0.2c0.1,0.1,0.1,0.2,0.2,0.2s0.1,0.2,0.2,0.3c0,0.1,0.1,0.2,0.1,0.4c0,0.4-0.1,0.7-0.4,0.9
		C174.9,192.9,174.6,193,174.2,193z"/>
	<path fill="#F7EA84" d="M176,193v-6.1h0.9v2.2c0.1-0.1,0.2-0.2,0.3-0.3s0.2-0.1,0.3-0.2c0.1-0.1,0.3-0.1,0.5-0.1
		c0.2,0,0.3,0.1,0.5,0.2s0.2,0.3,0.2,0.5v3.7h-0.9v-3.3c0-0.2,0-0.3-0.1-0.3c0-0.1-0.1-0.1-0.2-0.1c-0.2,0-0.4,0.1-0.6,0.3v3.5H176z
		"/>
	<path fill="#F7EA84" d="M180.2,193c-0.2,0-0.5-0.1-0.6-0.3c-0.2-0.2-0.3-0.4-0.3-0.7c0-0.2,0-0.4,0.1-0.6c0.1-0.2,0.1-0.3,0.2-0.4
		s0.2-0.2,0.4-0.3s0.3-0.2,0.4-0.2s0.3-0.1,0.5-0.2c0,0,0.1,0,0.1,0v-0.3c0-0.2,0-0.4-0.1-0.5s-0.2-0.2-0.3-0.2
		c-0.2,0-0.3,0.1-0.3,0.2c-0.1,0.1-0.1,0.2-0.1,0.4c0,0,0,0.1,0,0.1h-0.9c0-0.4,0.1-0.8,0.4-1c0.2-0.2,0.6-0.4,1-0.4
		c0.4,0,0.7,0.1,1,0.4c0.2,0.3,0.4,0.6,0.4,1v2c0,0.5,0,0.8,0.1,1.1h-0.9l-0.1-0.7c0,0.1-0.1,0.2-0.1,0.2c0,0-0.1,0.1-0.1,0.2
		s-0.1,0.1-0.2,0.2s-0.1,0.1-0.2,0.1C180.3,193,180.2,193,180.2,193z M180.6,192.3c0.1,0,0.1,0,0.2-0.1c0.1,0,0.1-0.1,0.1-0.1
		c0,0,0.1-0.1,0.1-0.1c0,0,0,0,0,0v-1.2c0,0-0.1,0.1-0.2,0.1s-0.2,0.1-0.2,0.1s-0.1,0.1-0.2,0.1c-0.1,0.1-0.1,0.1-0.2,0.2
		s-0.1,0.1-0.1,0.2s0,0.2,0,0.2C180.2,192.1,180.3,192.3,180.6,192.3z"/>
	<path fill="#F7EA84" d="M182.7,193v-4.4h0.9v0.6c0.1-0.2,0.2-0.3,0.4-0.5c0.2-0.1,0.4-0.2,0.6-0.2c0,0,0.1,0,0.1,0v1
		c-0.2-0.1-0.3-0.1-0.5-0.1c-0.2,0-0.3,0.1-0.4,0.2s-0.2,0.3-0.2,0.4v3H182.7z"/>
	<path fill="#F7EA84" d="M185,193v-6.1h0.9v3.4l1.1-1.6h0.9l-1,1.5l1,2.8H187l-0.7-2.1l-0.4,0.6v1.5H185z"/>
</g>
<g>
</g>
<g>
</g>
<g>
</g>
<g>
</g>
<g>
</g>
<g>
</g>
</svg>
