<?xml version="1.0" encoding="utf-8"?>
<!-- Generator: Adobe Illustrator 19.1.0, SVG Export Plug-In . SVG Version: 6.00 Build 0)  -->
<svg version="1.1" id="hearing" xmlns="http://www.w3.org/2000/svg" xmlns:xlink="http://www.w3.org/1999/xlink" x="0px" y="0px"
	 width="231.4px" height="45.2px" viewBox="0 0 231.4 45.2" enable-background="new 0 0 231.4 45.2" xml:space="preserve">
<g>
	<rect x="0" y="1.1" fill="none" width="231.4" height="41"/>
	<path fill="#553278" d="M1,17.8V1.1h3.4V8h2.4V1.1h3.4v16.7H6.8v-7.4H4.4v7.4H1z"/>
	<path fill="#553278" d="M11.9,14.7V9.6c0-1.3,0.3-2.3,0.9-3c0.6-0.7,1.5-1.1,2.8-1.1c1.3,0,2.2,0.4,2.8,1.1c0.6,0.7,0.9,1.7,0.9,3
		v2.5H15v2.7c0,0.7,0.2,1,0.6,1c0.4,0,0.6-0.4,0.6-1.1v-1.3h3.1v1.4c0,1-0.4,1.8-1.1,2.5c-0.7,0.6-1.6,1-2.6,1s-1.9-0.3-2.6-1
		C12.3,16.5,11.9,15.7,11.9,14.7z M15,10.4h1.2V8.7c0-0.6-0.2-0.9-0.6-0.9c-0.4,0-0.6,0.3-0.6,0.9V10.4z"/>
	<path fill="#553278" d="M25.7,17.8l-0.3-1.3c-0.2,0.6-0.5,1-0.9,1.2c-0.4,0.2-0.9,0.3-1.5,0.3c-0.4,0-0.8-0.1-1.2-0.3
		s-0.6-0.4-0.8-0.7c-0.2-0.3-0.3-0.6-0.4-0.9c-0.1-0.3-0.1-0.7-0.1-1.1c0-0.4,0-0.8,0.1-1.2c0.1-0.4,0.2-0.7,0.3-1
		c0.1-0.3,0.3-0.5,0.6-0.8c0.2-0.3,0.5-0.5,0.7-0.6c0.2-0.2,0.5-0.4,0.9-0.5c0.4-0.2,0.7-0.3,0.9-0.5c0.3-0.1,0.6-0.3,1-0.4v-1
		c0-0.4-0.1-0.7-0.2-1c-0.1-0.2-0.3-0.3-0.5-0.3c-0.2,0-0.3,0-0.4,0.1c-0.1,0.1-0.2,0.2-0.2,0.3c0,0.1-0.1,0.3-0.1,0.4
		c0,0.1,0,0.3,0,0.5v0.7h-3c0-1.4,0.3-2.5,1-3.2c0.7-0.7,1.7-1.1,3-1.1c0.9,0,1.7,0.3,2.4,1c0.7,0.7,1,1.5,1,2.4v5.8
		c0,1,0.1,2.1,0.4,3.2H25.7z M25,15.1v-3c-1,0.8-1.5,1.7-1.5,2.7c0,0.2,0,0.5,0.1,0.6c0.1,0.2,0.3,0.3,0.5,0.3c0.1,0,0.3,0,0.4-0.1
		c0.1-0.1,0.2-0.2,0.3-0.2C24.8,15.4,24.9,15.3,25,15.1z"/>
	<path fill="#553278" d="M29.8,17.8V5.7h3.1v1c0.5-0.8,1-1.2,1.7-1.2c0.2,0,0.5,0,0.8,0.1v2.6c-0.6-0.1-1-0.1-1.2-0.1
		c-0.4,0-0.8,0.1-1,0.4c-0.2,0.3-0.3,0.6-0.3,1.1v8.1H29.8z"/>
	<path fill="#553278" d="M36.5,4.7V1.8h3.1v2.9H36.5z M36.5,17.8V5.7h3.1v12.1H36.5z"/>
	<path fill="#553278" d="M41.4,17.8V5.7h3.1v0.9c0.3-0.3,0.7-0.6,1.1-0.8c0.4-0.2,0.9-0.3,1.3-0.3c0.4,0,0.8,0.1,1.1,0.4
		c0.3,0.3,0.6,0.6,0.8,1C48.9,7.3,49,7.7,49,8.1v9.8h-3.1V8.6c0-0.5-0.2-0.8-0.5-0.8c0,0-0.1,0-0.1,0c0,0-0.1,0-0.1,0
		c0,0-0.1,0-0.1,0.1c0,0-0.1,0-0.1,0.1c0,0-0.1,0.1-0.1,0.1c0,0-0.1,0.1-0.1,0.1c0,0-0.1,0.1-0.1,0.1c0,0,0,0-0.1,0.1l-0.1,0.1v9.4
		H41.4z"/>
	<path fill="#553278" d="M52.9,14.7c0,0.1,0.1,0.3,0.3,0.4c0.2,0.1,0.5,0.2,0.8,0.2c0.3,0.1,0.7,0.1,1.1,0.2
		c0.4,0.1,0.8,0.2,1.2,0.3c0.4,0.1,0.8,0.2,1.1,0.4c0.3,0.2,0.6,0.4,0.8,0.6c0.2,0.3,0.3,0.6,0.3,1c0,0.5-0.1,1-0.2,1.4
		c-0.2,0.4-0.4,0.7-0.6,0.9c-0.2,0.2-0.6,0.4-0.9,0.6c-0.4,0.1-0.7,0.2-1.1,0.3C55.4,21,54.9,21,54.5,21c-3,0-4.5-0.7-4.5-2.2
		c0-0.4,0.1-0.9,0.4-1.3c0.2-0.4,0.5-0.8,0.9-1c-0.3-0.1-0.5-0.3-0.7-0.5c-0.2-0.2-0.4-0.3-0.4-0.5c0-0.4,0.4-1.1,1.2-2.1
		c-0.6-1.2-0.9-2.3-0.9-3.5c0-0.6,0.1-1.2,0.2-1.7c0.1-0.5,0.4-1,0.6-1.4c0.3-0.4,0.7-0.8,1.2-1c0.5-0.3,1-0.4,1.7-0.4
		c1,0,1.7,0.3,2.2,0.8c0.5-0.5,1.2-0.8,2.3-0.8H59l-0.3,2.2c-0.6,0-1.1,0.1-1.3,0.4c0.3,0.5,0.4,1.2,0.4,2.1c0,0.6-0.1,1.1-0.2,1.6
		c-0.2,0.5-0.4,0.9-0.7,1.3c-0.3,0.4-0.7,0.7-1.2,0.9c-0.5,0.2-1,0.3-1.6,0.3c-0.1,0-0.3,0-0.4,0c-0.2,0-0.3,0-0.4-0.1l-0.2,0
		C52.9,14.5,52.9,14.6,52.9,14.7z M53.1,17.1h-0.2c-0.3,0.4-0.4,0.8-0.4,1.2c0,0.4,0.7,0.5,2.1,0.5c0,0,0,0,0.1,0
		c0.7,0,1.1-0.2,1.1-0.6c0-0.1,0-0.3-0.1-0.4c-0.1-0.1-0.2-0.2-0.4-0.3c-0.2-0.1-0.3-0.1-0.5-0.2c-0.2,0-0.3-0.1-0.6-0.1
		c-0.2,0-0.4,0-0.5-0.1C53.5,17.1,53.3,17.1,53.1,17.1z M54.1,12c0.5,0,0.8-0.7,0.8-2.2c0-1.5-0.2-2.2-0.7-2.2c-0.1,0-0.2,0-0.3,0.1
		c-0.1,0.1-0.2,0.2-0.2,0.3c-0.1,0.1-0.1,0.3-0.1,0.4c0,0.1-0.1,0.3-0.1,0.5c0,0.2,0,0.4,0,0.5c0,0.1,0,0.3,0,0.5
		C53.4,11.3,53.6,12,54.1,12z"/>
	<path fill="#553278" d="M59.6,17.8l5.4-17h1.7l-5.4,17H59.6z"/>
	<path fill="#553278" d="M67.8,14.8V9.6c0-1.3,0.3-2.3,0.9-3c0.6-0.7,1.5-1.1,2.8-1.1c1.3,0,2.2,0.4,2.8,1.1c0.6,0.7,0.9,1.7,0.9,3
		v1.1h-3.1V9.2c0-0.5,0-0.8-0.1-1.1c-0.1-0.2-0.3-0.3-0.5-0.3c-0.4,0-0.6,0.3-0.6,0.9v6c0,0.7,0.2,1,0.6,1c0.1,0,0.3,0,0.4-0.1
		c0.1-0.1,0.2-0.2,0.2-0.3c0-0.1,0.1-0.3,0.1-0.5c0-0.2,0-0.4,0-0.7v-1.3h3.1v1.8c0,0.7-0.2,1.3-0.5,1.8c-0.3,0.5-0.8,0.9-1.4,1.2
		c-0.6,0.3-1.2,0.4-1.8,0.4c-1,0-1.9-0.3-2.6-0.9C68.2,16.6,67.8,15.8,67.8,14.8z"/>
	<path fill="#553278" d="M76.4,14.7V9.6c0-1.3,0.3-2.3,0.9-3c0.6-0.7,1.6-1.1,2.9-1.1c1.3,0,2.3,0.4,2.9,1.1c0.6,0.7,0.9,1.7,0.9,3
		v5.1c0,1-0.4,1.8-1.1,2.5c-0.7,0.6-1.6,1-2.7,1c-0.7,0-1.3-0.1-1.9-0.4c-0.6-0.3-1-0.7-1.4-1.2C76.6,16,76.4,15.4,76.4,14.7z
		 M80.9,14.7v-6c0-0.6-0.2-0.9-0.7-0.9c-0.4,0-0.6,0.3-0.6,0.9v6c0,0.1,0,0.2,0,0.3c0,0.1,0,0.2,0.1,0.3c0,0.1,0.1,0.2,0.2,0.3
		c0.1,0.1,0.2,0.1,0.4,0.1C80.6,15.8,80.9,15.4,80.9,14.7z"/>
	<path fill="#553278" d="M85.6,17.8V5.7h3.1v0.9c0.3-0.3,0.6-0.6,1-0.8c0.4-0.2,0.8-0.3,1.2-0.3c0.4,0,0.8,0.1,1.1,0.4
		c0.3,0.3,0.6,0.6,0.8,1c0.3-0.4,0.7-0.7,1.1-1c0.4-0.2,0.9-0.4,1.4-0.4c0.4,0,0.8,0.1,1.2,0.4c0.3,0.3,0.6,0.6,0.8,1
		c0.2,0.4,0.3,0.8,0.3,1.2v9.8h-3.1V8.7c0-0.1,0-0.2,0-0.3c0-0.1,0-0.2,0-0.3c0-0.1-0.1-0.2-0.1-0.3c-0.1-0.1-0.2-0.1-0.3-0.1
		c-0.2,0-0.5,0.2-0.9,0.7v9.3H90V8.7c0-0.6-0.1-0.9-0.4-0.9c-0.2,0-0.5,0.2-0.9,0.7v9.3H85.6z"/>
	<path fill="#553278" d="M99.2,17.8V5.7h3.1v0.9c0.3-0.3,0.6-0.6,1-0.8c0.4-0.2,0.8-0.3,1.2-0.3c0.4,0,0.8,0.1,1.1,0.4
		c0.3,0.3,0.6,0.6,0.8,1c0.3-0.4,0.7-0.7,1.1-1c0.4-0.2,0.9-0.4,1.4-0.4c0.4,0,0.8,0.1,1.2,0.4c0.3,0.3,0.6,0.6,0.8,1
		c0.2,0.4,0.3,0.8,0.3,1.2v9.8h-3.1V8.7c0-0.1,0-0.2,0-0.3c0-0.1,0-0.2,0-0.3c0-0.1-0.1-0.2-0.1-0.3c-0.1-0.1-0.2-0.1-0.3-0.1
		c-0.2,0-0.5,0.2-0.9,0.7v9.3h-3.1V8.7c0-0.6-0.1-0.9-0.4-0.9c-0.2,0-0.5,0.2-0.9,0.7v9.3H99.2z"/>
	<path fill="#553278" d="M112.8,15.5V5.7h3.1v9c0,0.7,0.1,1,0.4,1c0.3,0,0.6-0.2,1-0.7V5.7h3.1v12.1h-3.1v-1
		c-0.3,0.4-0.7,0.7-1.1,0.9c-0.4,0.2-0.8,0.4-1.3,0.4c-0.6,0-1.2-0.3-1.5-0.8C113,16.8,112.8,16.2,112.8,15.5z"/>
	<path fill="#553278" d="M122.2,17.8V5.7h3.1v0.9c0.3-0.3,0.7-0.6,1.1-0.8c0.4-0.2,0.9-0.3,1.3-0.3c0.4,0,0.8,0.1,1.1,0.4
		c0.3,0.3,0.6,0.6,0.8,1c0.2,0.4,0.2,0.8,0.2,1.2v9.8h-3.1V8.6c0-0.5-0.2-0.8-0.5-0.8c0,0-0.1,0-0.1,0c0,0-0.1,0-0.1,0
		c0,0-0.1,0-0.1,0.1c0,0-0.1,0-0.1,0.1c0,0-0.1,0.1-0.1,0.1s-0.1,0.1-0.1,0.1c0,0-0.1,0.1-0.1,0.1c0,0,0,0-0.1,0.1l-0.1,0.1v9.4
		H122.2z"/>
	<path fill="#553278" d="M131.6,4.7V1.8h3.1v2.9H131.6z M131.6,17.8V5.7h3.1v12.1H131.6z"/>
	<path fill="#553278" d="M136.3,14.8V9.6c0-1.3,0.3-2.3,0.9-3c0.6-0.7,1.5-1.1,2.8-1.1c1.3,0,2.2,0.4,2.8,1.1c0.6,0.7,0.9,1.7,0.9,3
		v1.1h-3.1V9.2c0-0.5,0-0.8-0.1-1.1c-0.1-0.2-0.3-0.3-0.5-0.3c-0.4,0-0.6,0.3-0.6,0.9v6c0,0.7,0.2,1,0.6,1c0.1,0,0.3,0,0.4-0.1
		c0.1-0.1,0.2-0.2,0.2-0.3c0-0.1,0.1-0.3,0.1-0.5c0-0.2,0-0.4,0-0.7v-1.3h3.1v1.8c0,0.7-0.2,1.3-0.5,1.8c-0.3,0.5-0.8,0.9-1.4,1.2
		s-1.2,0.4-1.8,0.4c-1,0-1.9-0.3-2.6-0.9C136.7,16.6,136.3,15.8,136.3,14.8z"/>
	<path fill="#553278" d="M150,17.8l-0.3-1.3c-0.2,0.6-0.5,1-0.9,1.2c-0.4,0.2-0.9,0.3-1.5,0.3c-0.4,0-0.8-0.1-1.2-0.3
		s-0.6-0.4-0.8-0.7c-0.2-0.3-0.3-0.6-0.4-0.9c-0.1-0.3-0.1-0.7-0.1-1.1c0-0.4,0-0.8,0.1-1.2c0.1-0.4,0.2-0.7,0.3-1
		c0.1-0.3,0.3-0.5,0.6-0.8c0.2-0.3,0.5-0.5,0.7-0.6c0.2-0.2,0.5-0.4,0.9-0.5c0.4-0.2,0.7-0.3,0.9-0.5c0.3-0.1,0.6-0.3,1-0.4v-1
		c0-0.4-0.1-0.7-0.2-1c-0.1-0.2-0.3-0.3-0.5-0.3c-0.2,0-0.3,0-0.4,0.1C148.1,8,148,8.1,148,8.3c0,0.1-0.1,0.3-0.1,0.4
		c0,0.1,0,0.3,0,0.5v0.7h-3c0-1.4,0.3-2.5,1-3.2c0.7-0.7,1.7-1.1,3-1.1c0.9,0,1.7,0.3,2.4,1c0.7,0.7,1,1.5,1,2.4v5.8
		c0,1,0.1,2.1,0.4,3.2H150z M149.3,15.1v-3c-1,0.8-1.5,1.7-1.5,2.7c0,0.2,0,0.5,0.1,0.6c0.1,0.2,0.3,0.3,0.5,0.3
		c0.1,0,0.3,0,0.4-0.1c0.1-0.1,0.2-0.2,0.3-0.2C149.1,15.4,149.2,15.3,149.3,15.1z"/>
	<path fill="#553278" d="M154.3,13.7V7.8h-0.9V5.7h0.9v-4h3.1v4h1.5v2.1h-1.5v6.6c0,0.3,0.1,0.6,0.2,0.7c0.1,0.2,0.3,0.2,0.7,0.2
		c0.4,0,0.7,0,0.9-0.1v2.4c-0.4,0.1-1.1,0.2-2,0.2c-0.4,0-0.7,0-1-0.1s-0.5-0.2-0.7-0.3c-0.2-0.1-0.4-0.3-0.5-0.6s-0.3-0.5-0.3-0.7
		c-0.1-0.2-0.1-0.5-0.2-0.8c0-0.3-0.1-0.6-0.1-0.9C154.4,14.3,154.3,14,154.3,13.7z"/>
	<path fill="#553278" d="M160.4,4.7V1.8h3.1v2.9H160.4z M160.4,17.8V5.7h3.1v12.1H160.4z"/>
	<path fill="#553278" d="M165.1,14.7V9.6c0-1.3,0.3-2.3,0.9-3c0.6-0.7,1.6-1.1,2.9-1.1s2.3,0.4,2.9,1.1c0.6,0.7,0.9,1.7,0.9,3v5.1
		c0,1-0.4,1.8-1.1,2.5c-0.7,0.6-1.6,1-2.7,1c-0.7,0-1.3-0.1-1.9-0.4c-0.6-0.3-1-0.7-1.4-1.2C165.3,16,165.1,15.4,165.1,14.7z
		 M169.6,14.7v-6c0-0.6-0.2-0.9-0.7-0.9c-0.4,0-0.6,0.3-0.6,0.9v6c0,0.1,0,0.2,0,0.3c0,0.1,0,0.2,0.1,0.3c0,0.1,0.1,0.2,0.2,0.3
		c0.1,0.1,0.2,0.1,0.4,0.1C169.3,15.8,169.6,15.4,169.6,14.7z"/>
	<path fill="#553278" d="M174.3,17.8V5.7h3.1v0.9c0.3-0.3,0.7-0.6,1.1-0.8c0.4-0.2,0.9-0.3,1.3-0.3c0.4,0,0.8,0.1,1.1,0.4
		c0.3,0.3,0.6,0.6,0.8,1c0.2,0.4,0.2,0.8,0.2,1.2v9.8h-3.1V8.6c0-0.5-0.2-0.8-0.5-0.8c0,0-0.1,0-0.1,0c0,0-0.1,0-0.1,0
		c0,0-0.1,0-0.1,0.1c0,0-0.1,0-0.1,0.1c0,0-0.1,0.1-0.1,0.1s-0.1,0.1-0.1,0.1c0,0-0.1,0.1-0.1,0.1c0,0,0,0-0.1,0.1l-0.1,0.1v9.4
		H174.3z"/>
	<path fill="#553278" d="M187.4,17.8V5.7h3.1v1c0.5-0.8,1-1.2,1.7-1.2c0.2,0,0.5,0,0.8,0.1v2.6c-0.6-0.1-1-0.1-1.2-0.1
		c-0.4,0-0.8,0.1-1,0.4c-0.2,0.3-0.3,0.6-0.3,1.1v8.1H187.4z"/>
	<path fill="#553278" d="M198.7,17.8l-0.3-1.3c-0.2,0.6-0.5,1-0.9,1.2c-0.4,0.2-0.9,0.3-1.5,0.3c-0.4,0-0.8-0.1-1.2-0.3
		s-0.6-0.4-0.8-0.7c-0.2-0.3-0.3-0.6-0.4-0.9c-0.1-0.3-0.1-0.7-0.1-1.1c0-0.4,0-0.8,0.1-1.2c0.1-0.4,0.2-0.7,0.3-1
		c0.1-0.3,0.3-0.5,0.6-0.8c0.2-0.3,0.5-0.5,0.7-0.6c0.2-0.2,0.5-0.4,0.9-0.5c0.4-0.2,0.7-0.3,0.9-0.5c0.3-0.1,0.6-0.3,1-0.4v-1
		c0-0.4-0.1-0.7-0.2-1c-0.1-0.2-0.3-0.3-0.5-0.3c-0.2,0-0.3,0-0.4,0.1c-0.1,0.1-0.2,0.2-0.2,0.3c0,0.1-0.1,0.3-0.1,0.4
		c0,0.1,0,0.3,0,0.5v0.7h-3c0-1.4,0.3-2.5,1-3.2c0.7-0.7,1.7-1.1,3-1.1c0.9,0,1.7,0.3,2.4,1c0.7,0.7,1,1.5,1,2.4v5.8
		c0,1,0.1,2.1,0.4,3.2H198.7z M198,15.1v-3c-1,0.8-1.5,1.7-1.5,2.7c0,0.2,0,0.5,0.1,0.6c0.1,0.2,0.3,0.3,0.5,0.3
		c0.1,0,0.3,0,0.4-0.1c0.1-0.1,0.2-0.2,0.3-0.2C197.8,15.4,197.9,15.3,198,15.1z"/>
	<path fill="#553278" d="M202.8,17.8V5.7h3.1v0.9c0.3-0.3,0.7-0.6,1.1-0.8c0.4-0.2,0.9-0.3,1.3-0.3c0.4,0,0.8,0.1,1.1,0.4
		c0.3,0.3,0.6,0.6,0.8,1c0.2,0.4,0.2,0.8,0.2,1.2v9.8h-3.1V8.6c0-0.5-0.2-0.8-0.5-0.8c0,0-0.1,0-0.1,0c0,0-0.1,0-0.1,0
		c0,0-0.1,0-0.1,0.1c0,0-0.1,0-0.1,0.1c0,0-0.1,0.1-0.1,0.1s-0.1,0.1-0.1,0.1c0,0-0.1,0.1-0.1,0.1c0,0,0,0-0.1,0.1L206,8.5v9.4
		H202.8z"/>
	<path fill="#553278" d="M214.3,14.7c0,0.1,0.1,0.3,0.3,0.4c0.2,0.1,0.5,0.2,0.8,0.2c0.3,0.1,0.7,0.1,1.1,0.2
		c0.4,0.1,0.8,0.2,1.2,0.3c0.4,0.1,0.8,0.2,1.1,0.4c0.3,0.2,0.6,0.4,0.8,0.6c0.2,0.3,0.3,0.6,0.3,1c0,0.5-0.1,1-0.2,1.4
		c-0.2,0.4-0.4,0.7-0.6,0.9c-0.2,0.2-0.6,0.4-0.9,0.6c-0.4,0.1-0.7,0.2-1.1,0.3c-0.4,0.1-0.8,0.1-1.3,0.1c-3,0-4.5-0.7-4.5-2.2
		c0-0.4,0.1-0.9,0.4-1.3c0.2-0.4,0.5-0.8,0.9-1c-0.3-0.1-0.5-0.3-0.7-0.5c-0.2-0.2-0.4-0.3-0.4-0.5c0-0.4,0.4-1.1,1.2-2.1
		c-0.6-1.2-0.9-2.3-0.9-3.5c0-0.6,0.1-1.2,0.2-1.7c0.1-0.5,0.4-1,0.6-1.4c0.3-0.4,0.7-0.8,1.2-1c0.5-0.3,1-0.4,1.7-0.4
		c1,0,1.7,0.3,2.2,0.8c0.5-0.5,1.2-0.8,2.3-0.8h0.4l-0.3,2.2c-0.6,0-1.1,0.1-1.3,0.4c0.3,0.5,0.4,1.2,0.4,2.1c0,0.6-0.1,1.1-0.2,1.6
		c-0.2,0.5-0.4,0.9-0.7,1.3c-0.3,0.4-0.7,0.7-1.2,0.9s-1,0.3-1.6,0.3c-0.1,0-0.3,0-0.4,0c-0.2,0-0.3,0-0.4-0.1l-0.2,0
		C214.4,14.5,214.3,14.6,214.3,14.7z M214.6,17.1h-0.2c-0.3,0.4-0.4,0.8-0.4,1.2c0,0.4,0.7,0.5,2.1,0.5c0,0,0,0,0.1,0
		c0.7,0,1.1-0.2,1.1-0.6c0-0.1,0-0.3-0.1-0.4c-0.1-0.1-0.2-0.2-0.4-0.3c-0.2-0.1-0.3-0.1-0.5-0.2c-0.2,0-0.3-0.1-0.6-0.1
		c-0.2,0-0.4,0-0.5-0.1C215,17.1,214.8,17.1,214.6,17.1z M215.6,12c0.5,0,0.8-0.7,0.8-2.2c0-1.5-0.2-2.2-0.7-2.2
		c-0.1,0-0.2,0-0.3,0.1c-0.1,0.1-0.2,0.2-0.2,0.3C215,8.1,215,8.3,215,8.4c0,0.1-0.1,0.3-0.1,0.5c0,0.2,0,0.4,0,0.5
		c0,0.1,0,0.3,0,0.5C214.9,11.3,215.1,12,215.6,12z"/>
	<path fill="#553278" d="M220.7,14.7V9.6c0-1.3,0.3-2.3,0.9-3c0.6-0.7,1.5-1.1,2.8-1.1c1.3,0,2.2,0.4,2.8,1.1c0.6,0.7,0.9,1.7,0.9,3
		v2.5h-4.3v2.7c0,0.7,0.2,1,0.6,1c0.4,0,0.6-0.4,0.6-1.1v-1.3h3.1v1.4c0,1-0.4,1.8-1.1,2.5c-0.7,0.6-1.6,1-2.6,1s-1.9-0.3-2.6-1
		C221.1,16.5,220.7,15.7,220.7,14.7z M223.8,10.4h1.2V8.7c0-0.6-0.2-0.9-0.6-0.9c-0.4,0-0.6,0.3-0.6,0.9V10.4z"/>
	<path fill="#FFFFFF" d="M1.6,38.8l-1.6-8.8h1.2l0.6,4.1l0.3,2.5l0.3-2.5l0.6-4.1h1.3l0.6,4.1l0.3,2.5l0.3-2.5l0.6-4.1h1.2L6,38.8
		H4.7l-0.6-4.1l-0.3-2.5l-0.3,2.5l-0.6,4.1H1.6z"/>
	<path fill="#FFFFFF" d="M8.2,38.8v-8.8h1.2v3.2c0.2-0.2,0.3-0.3,0.5-0.4s0.3-0.2,0.5-0.3s0.4-0.1,0.7-0.1c0.3,0,0.5,0.1,0.6,0.3
		s0.2,0.4,0.2,0.7v5.3h-1.2v-4.7c0-0.2,0-0.4-0.1-0.5s-0.2-0.2-0.3-0.2c-0.3,0-0.5,0.1-0.8,0.4v4.9H8.2z"/>
	<path fill="#FFFFFF" d="M14.1,38.9c-0.3,0-0.6-0.2-0.9-0.5s-0.4-0.6-0.4-1c0-0.3,0.1-0.6,0.2-0.8s0.2-0.4,0.3-0.6s0.3-0.3,0.6-0.5
		s0.5-0.3,0.6-0.3s0.4-0.2,0.7-0.3c0.1,0,0.1,0,0.1-0.1v-0.4c0-0.3,0-0.6-0.1-0.7s-0.3-0.3-0.5-0.3c-0.2,0-0.4,0.1-0.5,0.2
		s-0.1,0.4-0.2,0.6c0,0,0,0.1,0,0.2h-1.2c0-0.6,0.2-1.1,0.5-1.4s0.8-0.5,1.4-0.5c0.6,0,1,0.2,1.4,0.5s0.5,0.8,0.5,1.4v2.8
		c0,0.7,0.1,1.2,0.2,1.6h-1.2l-0.2-0.9c-0.1,0.1-0.1,0.2-0.2,0.3s-0.1,0.2-0.2,0.3s-0.2,0.2-0.2,0.2s-0.2,0.1-0.3,0.1
		S14.3,38.9,14.1,38.9z M14.7,37.9c0.1,0,0.2,0,0.3-0.1s0.1-0.1,0.2-0.2s0.1-0.1,0.2-0.2c0,0,0,0,0,0v-1.7c-0.1,0-0.1,0.1-0.3,0.2
		s-0.2,0.1-0.3,0.2s-0.2,0.1-0.3,0.2s-0.2,0.2-0.2,0.2s-0.1,0.2-0.1,0.3s-0.1,0.2-0.1,0.3C14.1,37.7,14.3,37.9,14.7,37.9z"/>
	<path fill="#FFFFFF" d="M17.7,38.8v-8.8h1.2v8.8H17.7z"/>
	<path fill="#FFFFFF" d="M21.8,38.9c-0.3,0-0.6-0.1-0.8-0.2s-0.4-0.2-0.5-0.4s-0.2-0.4-0.3-0.6S20,37.2,20,36.9s0-0.6-0.1-0.9
		c0-0.3,0-0.5,0-0.8c0-0.3,0-0.6,0.1-0.9s0.1-0.5,0.2-0.7s0.2-0.4,0.3-0.6s0.3-0.3,0.5-0.4s0.5-0.1,0.8-0.1c0.3,0,0.5,0,0.7,0.1
		s0.4,0.2,0.5,0.3s0.2,0.3,0.3,0.5s0.2,0.4,0.2,0.6s0.1,0.5,0.1,0.7s0,0.5,0,0.8v0.1h-2.5V36c0,0,0,0.1,0,0.2c0,0.1,0,0.2,0,0.4
		s0,0.3,0,0.4s0,0.2,0.1,0.4s0.1,0.2,0.1,0.3s0.1,0.2,0.2,0.2s0.2,0.1,0.3,0.1c0.1,0,0.2,0,0.3-0.1s0.1-0.1,0.2-0.2s0.1-0.2,0.1-0.3
		s0-0.2,0-0.4v-0.3h1.2v0.2c0,0.7-0.2,1.2-0.5,1.5S22.4,38.9,21.8,38.9z M21.2,35.1h1.2v-0.4c0-0.2,0-0.3,0-0.4s0-0.2-0.1-0.4
		s-0.1-0.2-0.2-0.3s-0.2-0.1-0.3-0.1c-0.1,0-0.2,0-0.3,0.1s-0.1,0.2-0.2,0.3s-0.1,0.3-0.1,0.4s0,0.3,0,0.4V35.1z"/>
	<path fill="#FFFFFF" d="M26.3,38.9c-0.5,0-0.9-0.2-1.2-0.5s-0.5-0.7-0.6-1.2l0.9-0.3c0.2,0.6,0.5,0.9,0.9,0.9
		c0.2,0,0.4-0.1,0.5-0.2s0.2-0.3,0.2-0.5c0-0.3-0.1-0.5-0.3-0.7l-1.2-0.9c-0.1-0.1-0.3-0.2-0.4-0.3s-0.2-0.2-0.3-0.3
		s-0.2-0.3-0.2-0.4s-0.1-0.3-0.1-0.5c0-0.5,0.2-0.9,0.5-1.2s0.8-0.4,1.4-0.4c0.3,0,0.5,0,0.7,0.1s0.4,0.2,0.5,0.4s0.3,0.3,0.4,0.5
		s0.2,0.4,0.2,0.6l-0.9,0.3c0-0.1-0.1-0.2-0.1-0.3s-0.1-0.2-0.2-0.3s-0.2-0.2-0.3-0.2s-0.2-0.1-0.3-0.1c-0.2,0-0.4,0.1-0.5,0.2
		s-0.2,0.3-0.2,0.5c0,0.2,0.1,0.4,0.3,0.5l1.2,0.9c0.1,0.1,0.3,0.2,0.4,0.3s0.2,0.2,0.3,0.4s0.2,0.3,0.2,0.5s0.1,0.3,0.1,0.5
		c0,0.5-0.2,0.9-0.5,1.2S26.8,38.9,26.3,38.9z"/>
	<path fill="#FFFFFF" d="M29.3,32.6L28.9,32c0.2,0,0.4,0,0.5-0.1s0.1-0.3,0.1-0.5h-0.6v-1.2h1.2c0,0.5,0,0.9,0,1.2
		c0,0.2,0,0.3,0,0.4s0,0.2-0.1,0.4s-0.1,0.2-0.2,0.3s-0.2,0.1-0.3,0.2S29.4,32.6,29.3,32.6z"/>
	<path fill="#FFFFFF" d="M35.1,38.9c-0.5,0-0.9-0.2-1.2-0.5s-0.5-0.7-0.6-1.2l0.9-0.3c0.2,0.6,0.5,0.9,0.9,0.9
		c0.2,0,0.4-0.1,0.5-0.2s0.2-0.3,0.2-0.5c0-0.3-0.1-0.5-0.3-0.7l-1.2-0.9c-0.1-0.1-0.3-0.2-0.4-0.3s-0.2-0.2-0.3-0.3
		s-0.2-0.3-0.2-0.4s-0.1-0.3-0.1-0.5c0-0.5,0.2-0.9,0.5-1.2s0.8-0.4,1.4-0.4c0.3,0,0.5,0,0.7,0.1s0.4,0.2,0.5,0.4s0.3,0.3,0.4,0.5
		s0.2,0.4,0.2,0.6L36,34.5c0-0.1-0.1-0.2-0.1-0.3s-0.1-0.2-0.2-0.3s-0.2-0.2-0.3-0.2s-0.2-0.1-0.3-0.1c-0.2,0-0.4,0.1-0.5,0.2
		s-0.2,0.3-0.2,0.5c0,0.2,0.1,0.4,0.3,0.5l1.2,0.9c0.1,0.1,0.3,0.2,0.4,0.3s0.2,0.2,0.3,0.4s0.2,0.3,0.2,0.5s0.1,0.3,0.1,0.5
		c0,0.5-0.2,0.9-0.5,1.2S35.6,38.9,35.1,38.9z"/>
	<path fill="#FFFFFF" d="M40.9,38.4c-0.3,0.4-0.8,0.6-1.4,0.6s-1.2-0.2-1.4-0.6s-0.4-1-0.4-1.7v-1.9c0-0.7,0.1-1.3,0.4-1.7
		s0.8-0.6,1.4-0.6s1.2,0.2,1.4,0.6s0.4,1,0.4,1.7v1.9C41.3,37.4,41.2,38,40.9,38.4z M39.2,37.9c0.1,0,0.1,0,0.2,0s0.2,0,0.2,0
		s0.1-0.1,0.2-0.1s0.1-0.1,0.1-0.2s0.1-0.1,0.1-0.2s0-0.1,0-0.2s0-0.2,0-0.2s0-0.2,0-0.3v-1.9c0-0.1,0-0.2,0-0.3s0-0.1,0-0.2
		s0-0.2,0-0.2s0-0.1-0.1-0.2s-0.1-0.1-0.1-0.2s-0.1-0.1-0.2-0.1s-0.1,0-0.2,0s-0.2,0-0.2,0s-0.1,0.1-0.2,0.1s-0.1,0.1-0.1,0.2
		S38.9,34,38.9,34s0,0.1,0,0.2s0,0.2,0,0.2s0,0.2,0,0.3v1.9c0,0.1,0,0.2,0,0.3s0,0.1,0,0.2s0,0.2,0,0.2s0,0.1,0.1,0.2
		s0.1,0.1,0.1,0.2S39.2,37.8,39.2,37.9z"/>
	<path fill="#FFFFFF" d="M43.2,38.9c-0.3,0-0.5-0.1-0.7-0.3s-0.2-0.4-0.2-0.7v-5.3h1.2v4.9c0,0.1,0,0.2,0.1,0.3S43.9,38,44,38
		c0.1,0,0.1,0,0.2,0s0.1,0,0.2-0.1s0.1-0.1,0.1-0.1s0.1-0.1,0.2-0.1s0.1-0.1,0.1-0.1v-4.9h1.2v6.2h-1.2v-0.7
		c-0.1,0.1-0.2,0.2-0.3,0.2s-0.1,0.1-0.3,0.2s-0.2,0.1-0.3,0.2s-0.2,0.1-0.3,0.1S43.4,38.9,43.2,38.9z"/>
	<path fill="#FFFFFF" d="M47.2,38.8v-6.2h1.2v0.7c0.2-0.2,0.3-0.3,0.5-0.4s0.3-0.2,0.5-0.3s0.4-0.1,0.7-0.1c0.3,0,0.5,0.1,0.6,0.3
		s0.2,0.4,0.2,0.7v5.3h-1.2v-4.7c0-0.2,0-0.4-0.1-0.5s-0.2-0.1-0.4-0.1c-0.1,0-0.2,0-0.3,0.1s-0.2,0.1-0.2,0.1s-0.1,0.1-0.2,0.2v4.9
		H47.2z"/>
	<path fill="#FFFFFF" d="M53.5,38.9c-0.3,0-0.5-0.1-0.7-0.2s-0.4-0.4-0.5-0.6s-0.2-0.5-0.3-0.8s-0.1-0.6-0.1-0.9c0-0.2,0-0.5,0-1.1
		c0-0.2,0-0.4,0-0.6s0-0.4,0.1-0.5s0.1-0.4,0.1-0.5s0.1-0.3,0.2-0.4s0.2-0.2,0.3-0.3s0.2-0.2,0.4-0.2s0.3-0.1,0.5-0.1
		c0.1,0,0.3,0,0.4,0.1s0.2,0.1,0.3,0.2s0.2,0.2,0.3,0.2s0.2,0.1,0.3,0.3v-3.1H56v8.7h-1.2v-0.6c-0.2,0.2-0.4,0.4-0.6,0.5
		S53.7,38.9,53.5,38.9z M53.8,37.9c0.3,0,0.6-0.1,0.9-0.2v-3.9c-0.3-0.2-0.6-0.2-0.9-0.2c-0.1,0-0.2,0-0.3,0.1s-0.1,0.1-0.2,0.3
		s-0.1,0.2-0.1,0.4s0,0.3,0,0.4c0,0.7,0,1.3,0,1.7c0,0.2,0,0.4,0,0.6s0.1,0.3,0.1,0.5s0.1,0.3,0.2,0.3S53.7,37.9,53.8,37.9z"/>
	<path fill="#FFFFFF" d="M58.8,38.9c-0.5,0-0.9-0.2-1.2-0.5s-0.5-0.7-0.6-1.2l0.9-0.3c0.2,0.6,0.5,0.9,0.9,0.9
		c0.2,0,0.4-0.1,0.5-0.2s0.2-0.3,0.2-0.5c0-0.3-0.1-0.5-0.3-0.7l-1.2-0.9c-0.1-0.1-0.3-0.2-0.4-0.3s-0.2-0.2-0.3-0.3
		S57,34.8,57,34.6s-0.1-0.3-0.1-0.5c0-0.5,0.2-0.9,0.5-1.2s0.8-0.4,1.4-0.4c0.3,0,0.5,0,0.7,0.1s0.4,0.2,0.5,0.4s0.3,0.3,0.4,0.5
		s0.2,0.4,0.2,0.6l-0.9,0.3c0-0.1-0.1-0.2-0.1-0.3s-0.1-0.2-0.2-0.3s-0.2-0.2-0.3-0.2s-0.2-0.1-0.3-0.1c-0.2,0-0.4,0.1-0.5,0.2
		s-0.2,0.3-0.2,0.5c0,0.2,0.1,0.4,0.3,0.5l1.2,0.9c0.1,0.1,0.3,0.2,0.4,0.3s0.2,0.2,0.3,0.4s0.2,0.3,0.2,0.5s0.1,0.3,0.1,0.5
		c0,0.5-0.2,0.9-0.5,1.2S59.4,38.9,58.8,38.9z"/>
	<path fill="#FFFFFF" d="M65.2,38.9c-0.5,0-0.8-0.1-1.1-0.4s-0.3-0.6-0.3-1.1v-3.9h-0.6v-0.9h0.6v-2.2H65v2.2H66v0.9H65v3.6
		c0,0.3,0,0.4,0.1,0.6s0.2,0.2,0.4,0.2c0.1,0,0.2,0,0.4,0v1C65.6,38.9,65.4,38.9,65.2,38.9z"/>
	<path fill="#FFFFFF" d="M66.9,38.8v-6.2h1.2v0.8c0.1-0.2,0.3-0.5,0.6-0.6s0.5-0.3,0.8-0.3c0,0,0.1,0,0.2,0v1.4
		c-0.2-0.1-0.5-0.1-0.7-0.1c-0.3,0-0.5,0.1-0.6,0.2s-0.2,0.4-0.2,0.6v4.2H66.9z"/>
	<path fill="#FFFFFF" d="M71.3,38.9c-0.3,0-0.6-0.2-0.9-0.5s-0.4-0.6-0.4-1c0-0.3,0.1-0.6,0.2-0.8s0.2-0.4,0.3-0.6s0.3-0.3,0.6-0.5
		s0.5-0.3,0.6-0.3s0.4-0.2,0.7-0.3c0.1,0,0.1,0,0.1-0.1v-0.4c0-0.3,0-0.6-0.1-0.7s-0.3-0.3-0.5-0.3c-0.2,0-0.4,0.1-0.5,0.2
		s-0.1,0.4-0.2,0.6c0,0,0,0.1,0,0.2h-1.2c0-0.6,0.2-1.1,0.5-1.4s0.8-0.5,1.4-0.5c0.6,0,1,0.2,1.4,0.5s0.5,0.8,0.5,1.4v2.8
		c0,0.7,0.1,1.2,0.2,1.6h-1.2l-0.2-0.9c-0.1,0.1-0.1,0.2-0.2,0.3s-0.1,0.2-0.2,0.3s-0.2,0.2-0.2,0.2s-0.2,0.1-0.3,0.1
		S71.5,38.9,71.3,38.9z M72,37.9c0.1,0,0.2,0,0.3-0.1s0.1-0.1,0.2-0.2s0.1-0.1,0.2-0.2c0,0,0,0,0,0v-1.7c-0.1,0-0.1,0.1-0.3,0.2
		S72.1,36,72,36.1s-0.2,0.1-0.3,0.2s-0.2,0.2-0.2,0.2s-0.1,0.2-0.1,0.3s-0.1,0.2-0.1,0.3C71.3,37.7,71.6,37.9,72,37.9z"/>
	<path fill="#FFFFFF" d="M75.8,38.8l-1.4-6.2h1.2l0.9,4.7l0.8-4.7h1.2l-1.4,6.2H75.8z"/>
	<path fill="#FFFFFF" d="M80.9,38.9c-0.3,0-0.6-0.1-0.8-0.2s-0.4-0.2-0.5-0.4s-0.2-0.4-0.3-0.6s-0.1-0.5-0.2-0.8s0-0.6-0.1-0.9
		c0-0.3,0-0.5,0-0.8c0-0.3,0-0.6,0.1-0.9s0.1-0.5,0.2-0.7s0.2-0.4,0.3-0.6s0.3-0.3,0.5-0.4s0.5-0.1,0.8-0.1c0.3,0,0.5,0,0.7,0.1
		s0.4,0.2,0.5,0.3s0.2,0.3,0.3,0.5s0.2,0.4,0.2,0.6s0.1,0.5,0.1,0.7s0,0.5,0,0.8v0.1h-2.5V36c0,0,0,0.1,0,0.2c0,0.1,0,0.2,0,0.4
		s0,0.3,0,0.4s0,0.2,0.1,0.4s0.1,0.2,0.1,0.3s0.1,0.2,0.2,0.2s0.2,0.1,0.3,0.1c0.1,0,0.2,0,0.3-0.1s0.1-0.1,0.2-0.2s0.1-0.2,0.1-0.3
		s0-0.2,0-0.4v-0.3h1.2v0.2c0,0.7-0.2,1.2-0.5,1.5S81.5,38.9,80.9,38.9z M80.2,35.1h1.2v-0.4c0-0.2,0-0.3,0-0.4s0-0.2-0.1-0.4
		s-0.1-0.2-0.2-0.3s-0.2-0.1-0.3-0.1c-0.1,0-0.2,0-0.3,0.1s-0.1,0.2-0.2,0.3s-0.1,0.3-0.1,0.4s0,0.3,0,0.4V35.1z"/>
	<path fill="#FFFFFF" d="M83.7,38.8v-8.8h1.2v8.8H83.7z"/>
	<path fill="#FFFFFF" d="M88.9,38.9c-0.3,0-0.5-0.1-0.7-0.3S88,38.2,88,37.9v-5.3h1.2v4.9c0,0.1,0,0.2,0.1,0.3s0.2,0.1,0.3,0.1
		c0.1,0,0.1,0,0.2,0s0.1,0,0.2-0.1s0.1-0.1,0.1-0.1s0.1-0.1,0.2-0.1s0.1-0.1,0.1-0.1v-4.9h1.2v6.2h-1.2v-0.7
		c-0.1,0.1-0.2,0.2-0.3,0.2s-0.1,0.1-0.3,0.2s-0.2,0.1-0.3,0.2s-0.2,0.1-0.3,0.1S89.1,38.9,88.9,38.9z"/>
	<path fill="#FFFFFF" d="M92.9,40.7v-8.1h1.2v0.6c0.1-0.1,0.2-0.2,0.2-0.2s0.1-0.1,0.2-0.2s0.2-0.1,0.2-0.2s0.2-0.1,0.3-0.1
		s0.2,0,0.3,0c0.2,0,0.4,0,0.6,0.1s0.3,0.2,0.4,0.3s0.2,0.3,0.3,0.5s0.1,0.4,0.2,0.5s0.1,0.4,0.1,0.7s0,0.5,0,0.7s0,0.4,0,0.7V36
		c0,0.3,0,0.5,0,0.8s-0.1,0.5-0.2,0.8s-0.2,0.5-0.3,0.7s-0.3,0.3-0.4,0.5s-0.4,0.2-0.6,0.2c-0.4,0-0.8-0.2-1.2-0.6v2.4H92.9z
		 M95.1,37.9c0.1,0,0.2,0,0.3-0.1s0.2-0.2,0.2-0.4s0.1-0.4,0.1-0.5s0-0.4,0-0.6l0-0.8c0-0.1,0-0.3,0-0.4s0-0.2,0-0.4s0-0.3,0-0.4
		s0-0.2-0.1-0.3s-0.1-0.2-0.1-0.3s-0.1-0.1-0.2-0.2s-0.2-0.1-0.3-0.1c0,0-0.1,0-0.1,0s-0.1,0-0.1,0s-0.1,0-0.1,0s-0.1,0-0.1,0.1
		s-0.1,0-0.1,0.1s-0.1,0-0.1,0.1s-0.1,0.1-0.1,0.1v3.9C94.4,37.8,94.7,37.9,95.1,37.9z"/>
	<path fill="#FFFFFF" d="M101.7,38.9c-0.5,0-0.8-0.1-1.1-0.4s-0.3-0.6-0.3-1.1v-3.9h-0.6v-0.9h0.6v-2.2h1.2v2.2h0.9v0.9h-0.9v3.6
		c0,0.3,0,0.4,0.1,0.6s0.2,0.2,0.4,0.2c0.1,0,0.2,0,0.4,0v1C102.2,38.9,101.9,38.9,101.7,38.9z"/>
	<path fill="#FFFFFF" d="M106.6,38.4c-0.3,0.4-0.8,0.6-1.4,0.6s-1.2-0.2-1.4-0.6s-0.4-1-0.4-1.7v-1.9c0-0.7,0.1-1.3,0.4-1.7
		s0.8-0.6,1.4-0.6s1.2,0.2,1.4,0.6s0.4,1,0.4,1.7v1.9C107,37.4,106.9,38,106.6,38.4z M104.9,37.9c0.1,0,0.1,0,0.2,0s0.2,0,0.2,0
		s0.1-0.1,0.2-0.1s0.1-0.1,0.1-0.2s0.1-0.1,0.1-0.2s0-0.1,0-0.2s0-0.2,0-0.2s0-0.2,0-0.3v-1.9c0-0.1,0-0.2,0-0.3s0-0.1,0-0.2
		s0-0.2,0-0.2s0-0.1-0.1-0.2s-0.1-0.1-0.1-0.2s-0.1-0.1-0.2-0.1s-0.1,0-0.2,0s-0.2,0-0.2,0s-0.1,0.1-0.2,0.1s-0.1,0.1-0.1,0.2
		s-0.1,0.1-0.1,0.2s0,0.1,0,0.2s0,0.2,0,0.2s0,0.2,0,0.3v1.9c0,0.1,0,0.2,0,0.3s0,0.1,0,0.2s0,0.2,0,0.2s0,0.1,0.1,0.2
		s0.1,0.1,0.1,0.2S104.8,37.8,104.9,37.9z"/>
	<path fill="#F9C53D" d="M112,38.8V25.1h-1.9v-1.9c1.3-0.4,2.1-1.1,2.5-1.9h1.9v17.5H112z"/>
	<path fill="#F9C53D" d="M120.8,39c-1.5,0-2.7-0.4-3.3-1.3s-1-2.2-1-3.8c0-1.1,0.1-2,0.4-2.6s0.8-1.2,1.4-1.6
		c-0.6-0.4-1-0.9-1.2-1.6s-0.4-1.4-0.4-2.3c0-1.4,0.3-2.6,1-3.4s1.7-1.2,3.1-1.2c1.4,0,2.4,0.4,3.1,1.2c0.7,0.8,1,1.9,1,3.4
		c0,0.9-0.1,1.7-0.4,2.3s-0.7,1.1-1.2,1.6c0.7,0.4,1.1,1,1.4,1.6c0.3,0.7,0.4,1.5,0.4,2.6c0,1.7-0.3,2.9-1,3.8
		C123.4,38.6,122.3,39,120.8,39z M119.9,36.8c0.2,0.1,0.5,0.2,0.8,0.2s0.6-0.1,0.8-0.2s0.4-0.3,0.5-0.4c0.1-0.2,0.2-0.4,0.3-0.7
		c0.1-0.3,0.1-0.6,0.1-0.8s0-0.6,0-1c0-0.4,0-0.8-0.1-1.1c-0.1-0.3-0.1-0.6-0.3-0.9c-0.1-0.3-0.3-0.5-0.6-0.7s-0.6-0.2-0.9-0.2
		c-0.4,0-0.7,0.1-0.9,0.2s-0.5,0.4-0.6,0.7s-0.2,0.6-0.3,0.9s-0.1,0.7-0.1,1.1c0,0.4,0,0.7,0,1s0.1,0.6,0.1,0.8s0.2,0.5,0.3,0.7
		S119.7,36.7,119.9,36.8z M120.8,28.5c0.3,0,0.6-0.1,0.8-0.2c0.2-0.1,0.4-0.4,0.5-0.6c0.1-0.3,0.2-0.6,0.2-0.9c0-0.3,0.1-0.6,0.1-1
		c0-1.7-0.5-2.5-1.6-2.5c-1.1,0-1.6,0.8-1.6,2.5c0,0.4,0,0.7,0.1,1s0.1,0.6,0.2,0.9s0.3,0.5,0.5,0.6S120.4,28.5,120.8,28.5z"/>
	<path fill="#F9C53D" d="M131.1,39c-1,0-1.8-0.2-2.4-0.7c-0.7-0.4-1.2-1.1-1.5-1.8c-0.3-0.8-0.5-1.7-0.5-2.7v-7.5
		c0-1.6,0.4-2.9,1.1-3.8c0.7-0.9,1.8-1.4,3.3-1.4c1.5,0,2.5,0.5,3.3,1.4s1.1,2.2,1.1,3.8v7.5c0,1.6-0.4,2.8-1.1,3.8
		C133.6,38.6,132.5,39,131.1,39z M131.1,37c1.2,0,1.9-1,1.9-3.1v-7.5c0-0.4,0-0.7,0-0.9c0-0.3-0.1-0.6-0.2-0.8
		c-0.1-0.3-0.2-0.5-0.3-0.7c-0.1-0.2-0.3-0.3-0.5-0.5c-0.2-0.1-0.5-0.2-0.8-0.2s-0.6,0.1-0.8,0.2c-0.2,0.1-0.4,0.3-0.5,0.5
		c-0.1,0.2-0.2,0.4-0.3,0.7c-0.1,0.3-0.1,0.6-0.2,0.8c0,0.3,0,0.6,0,0.9v7.5c0,0.4,0,0.8,0.1,1.1c0.1,0.3,0.1,0.7,0.3,1
		c0.1,0.3,0.3,0.6,0.6,0.7S130.7,37,131.1,37z"/>
	<path fill="#F9C53D" d="M141.7,39c-1,0-1.8-0.2-2.4-0.7c-0.7-0.4-1.2-1.1-1.5-1.8c-0.3-0.8-0.5-1.7-0.5-2.7v-7.5
		c0-1.6,0.4-2.9,1.1-3.8c0.7-0.9,1.8-1.4,3.3-1.4c1.5,0,2.5,0.5,3.3,1.4s1.1,2.2,1.1,3.8v7.5c0,1.6-0.4,2.8-1.1,3.8
		C144.2,38.6,143.1,39,141.7,39z M141.7,37c1.2,0,1.9-1,1.9-3.1v-7.5c0-0.4,0-0.7,0-0.9c0-0.3-0.1-0.6-0.2-0.8
		c-0.1-0.3-0.2-0.5-0.3-0.7c-0.1-0.2-0.3-0.3-0.5-0.5c-0.2-0.1-0.5-0.2-0.8-0.2s-0.6,0.1-0.8,0.2c-0.2,0.1-0.4,0.3-0.5,0.5
		c-0.1,0.2-0.2,0.4-0.3,0.7c-0.1,0.3-0.1,0.6-0.2,0.8c0,0.3,0,0.6,0,0.9v7.5c0,0.4,0,0.8,0.1,1.1c0.1,0.3,0.1,0.7,0.3,1
		c0.1,0.3,0.3,0.6,0.6,0.7S141.3,37,141.7,37z"/>
	<path fill="#FFFFFF" d="M149.6,38.8v-8.8h1.2v4.8l1.6-2.3h1.2l-1.4,2.2l1.4,4.1h-1.2l-0.9-3l-0.6,0.8v2.2H149.6z"/>
	<path fill="#FFFFFF" d="M154.3,38.8v-6.2h1.2v0.7c0.4-0.5,1-0.8,1.6-0.8c0.3,0,0.5,0.1,0.7,0.2c0.1,0.1,0.2,0.3,0.3,0.6
		c0.2-0.3,0.4-0.5,0.7-0.6c0.2-0.1,0.5-0.2,0.9-0.2c0.1,0,0.2,0,0.3,0s0.2,0,0.2,0.1c0.1,0,0.1,0.1,0.2,0.1c0,0.1,0.1,0.1,0.1,0.2
		c0,0.1,0.1,0.1,0.1,0.2c0,0.1,0,0.2,0,0.2s0,0.2,0,0.3c0,0.1,0,0.2,0,0.3s0,0.2,0,0.3c0,0,0,0.1,0,0.1v4.5h-1.2v-4.6c0,0,0,0,0-0.1
		c0-0.1,0-0.2,0-0.2c0-0.1,0-0.1,0-0.2c0-0.1,0-0.1-0.1-0.2c0,0-0.1-0.1-0.2-0.1c-0.1,0-0.3,0-0.4,0.1s-0.2,0.1-0.3,0.1
		c-0.1,0-0.2,0.1-0.3,0.2v4.9h-1.2v-4.5c0,0,0,0,0-0.1c0-0.1,0-0.2,0-0.2s0-0.1,0-0.2c0-0.1,0-0.1,0-0.2s-0.1-0.1-0.1-0.1
		c0,0-0.1,0-0.2,0c-0.3,0-0.6,0.1-0.9,0.4v4.9H154.3z"/>
</g>
<g>
</g>
<g>
</g>
<g>
</g>
<g>
</g>
<g>
</g>
<g>
</g>
</svg>
