<?xml version="1.0" encoding="utf-8"?>
<!-- Generator: Adobe Illustrator 19.1.0, SVG Export Plug-In . SVG Version: 6.00 Build 0)  -->
<svg version="1.1" xmlns="http://www.w3.org/2000/svg" xmlns:xlink="http://www.w3.org/1999/xlink" x="0px" y="0px" width="288px"
	 height="288px" viewBox="0 0 288 288" enable-background="new 0 0 288 288" xml:space="preserve">
<g id="bck">
	<path opacity="0.39" fill="#FFFFFF" d="M87.6,167.3c0,0-42.8-47.6,20.2-84.5s134.7,22.1,109.7,58.1S114.1,191.6,87.6,167.3z"/>
</g>
<g id="butterfly">
	<g>
		<path fill="#000A8B" d="M114.6,177.2c0.8-0.3,0-2.4-0.2-2.9c-0.2-0.5,0-1.5-0.5-1.8c-0.5-0.3-0.7-1.3-1.2-2.2
			c-0.5-1-0.3-2.5-0.3-2.5s9.2,7.9,9.8,8.5c0.6,0.6,4.6,1.1,5.3,0.8c0.7-0.2,0.3-1,2.2-1.6c1.9-0.7,1.6-0.5,2-1.6
			c0.4-1.1,1.7-0.9,2.1-1.5c0.4-0.5,0.5-2.2,0.8-3s1.3-0.6,0.8-1.8c-0.5-1.2-0.6-3.1-0.1-3.8c0.4-0.7-0.4-1.4-1.2-2.4
			c-0.9-1,0.1-2.1-0.2-2.5c-2.8-1.8-6.1-2.6-6.1-2.6s1.8-0.6,3.2-1.5c2.6-1.9,1.3-2.4,1.7-3.9c0.4-1.5-0.2-2.5-0.2-2.5
			c1.2-2.5,0.2-5.1,0.2-5.1c1-1.7,0.2-3.5,0.2-3.5c0.7-1.6-0.3-2.8-0.3-2.8c0.5-1.4-0.9-2.6-0.9-2.6c-1-2.8-7.3-2.1-13.8,7.2
			c-6.5,9.3-7.4,18.5-7.4,18.5s-0.5-1.2-0.7-2.1c-0.4-1.8-3.1-2.1-2.4,0.7c0.2,0.9,0.6,2.1,0.6,2.1s-6-7-16.7-10.8
			c-10.7-3.8-16.2-0.8-15.4,2.1c0,0-0.4,1.9,0.8,2.7c0,0-0.1,1.6,1.4,2.5c0,0,0.4,2,2.2,2.8c0,0,0.7,2.8,3.1,4.1
			c0,0,0.1,1.2,1.3,2.2c1.2,1,0.4,2.1,3.7,2.2c1.6,0,3.4-0.6,3.4-0.6s-2.2,2.6-3.5,5.6c0,0.5,1.4,0.9,1.3,2.1
			c-0.1,1.3-0.3,2.4,0.4,2.7c0.7,0.3,1.8,2,2.1,3.2c0.3,1.2,1.1,0.5,1.7,1c0.6,0.5,1.7,1.8,2.4,2c0.6,0.2,1.6-0.7,2.6,0
			c1,0.6,0.6,0.7,2.6,0.2c2-0.6,2,0.3,2.7,0.1s3.7-2.9,3.8-3.7c0.2-0.8,3.1-12.6,3.1-12.6s1,1.1,1.2,2.2s0.6,1.9,0.3,2.5
			c-0.2,0.6,0.5,1.2,0.6,1.8C113.2,175.1,113.7,177.4,114.6,177.2z"/>
		<path fill="#000A8B" d="M107.7,157.6c0,0-1.3-2.1-2.9-3.4c-1.6-1.3-3.7-5-3.7-5"/>
		<path fill="#000A8B" d="M108.8,157.2c0,0-0.2-2.5,0.4-4.5c0.6-2,0.1-6.2,0.1-6.2"/>
	</g>
</g>
<g id="grasshopper">
	<path fill="#000A8B" d="M223,150.9c-0.6-1-5.2-6.8-5.5-6.4c-0.2,0.2-0.6,0-1.2-0.3c0.3-0.9-0.1-1.4-0.1-1.4
		c1.5-0.5,0.9-2.4,0.9-2.4c0.2-0.4-0.1-4.2-1.5-6.6c1.1-3.5,4.3-13.3,7.7-19.2c-1.1,1.8-6.3,10.6-8,18.8c-0.1-0.1-0.1-0.2-0.2-0.3
		c0,0,0,0,0,0c-0.1-2-0.5-6.3-1.3-8.1c-1-2.4-1.1-7.4-1.1-7.8c0,0.4-0.1,6.3,0.6,8.5c0.4,1.5,0.8,4.6,1,6.6
		c-0.2-0.2-0.5-0.3-0.8-0.3c-3.1-0.6-4.8,1.5-4.8,1.5c-2.5,0.2-6.4,2.6-6.4,2.6s-3.9,0.5-6.3,1.9c-1.5-0.2-4.9,0.3-8.8,1.1
		c-3.4-1.7-10.2-5.2-10.5-5.8c-0.4-0.9-4-5.8-6-5c-1.1-1.1-2.4-0.8-2.9,0.6c-0.5,1.4-2,0.3-1.9,1.1c0,0.7,0.4,9.8-0.2,14.2
		c-4.3,0.6-5.4,1-8.5,2.2c-3.1,1.3-0.3,3.2,0.8,3.2c-0.4,0.7,0.8,0.8,0.8,0.8s-0.9,0.7-0.6,1.6c0.2,0.8,3.4-0.9,3.4-0.9
		s0.2,0.8-2.1,2.1c2,1.2,3.8,1.8,5.4,2c0,0.6-0.2,1.3-0.9,1.2c-1.4-0.1-3.9,0.3-3.9,0.3s-3.6-0.9-4.8,1.1l-0.7,0.8l1.9-0.1
		c0,0-0.8-1.4,2.6-1.2c0,0-0.9,1.6,1.4,0.4c0,0,0.4,1.2,1.5,0c0,0,0.8,0.7,1.9-0.1c0,0,2.8,1.1,2.8-1.3c0-0.3,0-0.6,0-0.9
		c1.2,0,2-0.1,2-0.1c1.3,0.5,3.3,0,3.3,0s2,0.5,3.5-0.2c1.3,0.6,4,0.3,4,0.3s2.6,0.1,4-0.5c3.1,0.4,4.4-0.7,4.4-0.7s0.4,0.2,1,0.2
		c-0.4,1.6-1,4.1-1.9,4.3c-1.3,0.3-2.5,2.2-2.5,2.2s1.7,0.4,2.6-0.2c0.6-0.4,2.1-4.2,3-6.4c0.4-0.1,0.7-0.2,1.1-0.3
		c1.8,0.6,3.7-0.3,3.7-0.3s3.5-0.6,4.7-1.3c1.9,0.2,4.1-1.3,4.1-1.3s3-0.7,3.3-1.7c0.6-0.3,1.1-0.8,1.5-1.3c0.8,0.4,1.7,1,2.3,2
		c0.7-0.3,3.6,3.3,4.5,5.3c0.8,2,1.7,2.2,4,1.9c-1.3-0.7-1.3-1-2.4-1c-0.6-1.2-4.3-5.7-4.6-6.2c-0.3-0.5-0.1-1.7-1.1-2.3
		c-0.4-0.3-1.1-0.8-1.8-1.2c0.7-1.9,0.7-3.8,0.7-3.8s2.5,4,3.9,4.4c0.8-0.5,1.4-1.1,1.9-1.5l2.1,0.1l3.7,5.5c0,0,1.7,1.3,3.2,1
		c-0.3-0.8,0.6-1.6,1.6-1.4C226,150.7,225.2,149.7,223,150.9z M172.9,135.7l-0.1-0.2C172.8,135.6,172.8,135.7,172.9,135.7z
		 M166.7,143.9c0.3-2.2,0.5-4.9,0.2-6.4c-0.6-2.6,0.4-5.7,0.4-5.7s1.5,1.8,2.3,1.7c0,0,4.1,5.6,5.5,8.4
		C171.5,142.8,168.5,143.6,166.7,143.9z M175.9,141.7c-1-2-2.4-4.8-3-5.9l3.9,5.7C176.5,141.6,176.2,141.6,175.9,141.7z"/>
</g>
<g id="moth">
	<path fill="#000A8B" d="M141.5,61.1c0,0,6.5,11.6,5.1,14.7c-0.8,1.7-1.1,2.3-1.2,2.5c0,0,0,0,0,0s0,0.1,0,0
		c0.4-0.2,3.6-2.1,4.3-0.4c0.7,1.7,1.2,6-0.2,8.3c-0.6,1,0,1.9-0.4,2.7s-3.3,3.2-5.2,3.1c-1.8-0.1-2.7-0.8-3-0.2
		c-0.3,0.6,1.2-0.2,1.7,1.1c1.5-0.2,2.4,1.2,2.4,1.2s1.5-0.3,2.9,1.8c1.3,0.4,1.6,1.6,1.6,1.6s1-0.4,1.2,1.2c1,0,1.1,1.1,1.1,1.1
		s2.1,1.9,0.4,2.1c-0.9,0.1-1.4-0.1-1.4-0.1s-0.9,0.6-1.5-0.2c-1.3,0.9-1.6-0.2-1.6-0.2s-1.1,0.5-2.2-0.3c-2.5,0.1-3.2-1.3-3.2-1.3
		s-1.6,0.1-2.4-1.2c-1.4,0.4-1.6-1.3-1.9-0.7c-0.3,0.6,0.8,0.9,1.9,2.3c1.2,1.4,1.1,5.2,0.6,6c-0.4,0.8-1.5,0.9-1.9,2
		c-0.9,2.5-4.7,4.6-6.5,5.1c-1.7,0.5-2.2-3.3-2.2-3.7c0.1-0.1,0,0,0,0s0,0,0,0c-0.1,0.2-0.4,0.7-1.3,2.4c-1.6,3-14.8,4.8-14.8,4.8
		s-0.8-1.8,1-5.8c1.8-4.1,16.2-15,17.2-15.1c1,0,1-0.3,0.6-0.8s-0.5-1.8-0.5-1.8s-0.5-0.1-0.9-0.5c-0.5,0.1-1.8,0.6-2.9,1.8
		c-1.3,1.4-1.2,2.5-2.2,3.3c-1,0.9-1.7,1.9-1.7,1.9s0.6-1.4,1.3-2.1c0.7-0.7,1.6-2.6,2.2-3.6c0.4-0.7,2.1-1.4,3-1.7c0,0,0,0,0-0.1
		c-0.1-0.2-0.1-0.4-0.2-0.7c-1.5-0.8-0.4-2.3,0.8-1.6c0.2-0.1,0.4-0.2,0.6-0.3c0,0,0,0,0.1,0c-0.3-0.9-0.7-2.6-0.4-3.4
		c0.4-1.1,1.3-3,1.5-3.9c0.2-1,0.9-2.3,0.9-2.3s-0.4,1.2-0.5,2.5c-0.1,1.3-1,1.8-1.4,3.7c-0.2,1.6,0.2,2.9,0.3,3.4
		c0.6,0.1,1,0.4,1,0.4s1-0.7,1.7-0.7c0.7,0,0.9-0.1,0.3-1c-0.6-0.8-0.5-18.9,1.7-22.8C139.6,61.6,141.5,61.1,141.5,61.1z"/>
	<g>
	</g>
	<g>
	</g>
	<g>
	</g>
	<g>
	</g>
	<g>
	</g>
	<g>
	</g>
</g>
</svg>
