<?xml version="1.0" encoding="utf-8"?>
<!-- Generator: Adobe Illustrator 19.1.0, SVG Export Plug-In . SVG Version: 6.00 Build 0)  -->
<svg version="1.1" xmlns="http://www.w3.org/2000/svg" xmlns:xlink="http://www.w3.org/1999/xlink" x="0px" y="0px" width="155.4px"
	 height="141.2px" viewBox="0 0 155.4 141.2" enable-background="new 0 0 155.4 141.2" xml:space="preserve">
<g id="butterfly">
	<g>
		<path fill="#000A8B" d="M46.1,124.5c0.8-0.3,0-2.4-0.2-2.9c-0.2-0.5,0-1.5-0.5-1.8s-0.7-1.3-1.2-2.2c-0.5-1-0.3-2.5-0.3-2.5
			s9.2,7.9,9.8,8.5c0.6,0.6,4.6,1.1,5.3,0.8c0.7-0.2,0.3-1,2.2-1.6c1.9-0.7,1.6-0.5,2-1.6s1.7-0.9,2.1-1.5c0.4-0.5,0.5-2.2,0.8-3
			c0.3-0.7,1.3-0.6,0.8-1.8c-0.5-1.2-0.6-3.1-0.1-3.8c0.4-0.7-0.4-1.4-1.2-2.4c-0.9-1,0.1-2.1-0.2-2.5c-2.8-1.8-6.1-2.6-6.1-2.6
			s1.8-0.6,3.2-1.5c2.6-1.9,1.3-2.4,1.7-3.9c0.4-1.5-0.2-2.5-0.2-2.5c1.2-2.5,0.2-5.1,0.2-5.1c1-1.7,0.2-3.5,0.2-3.5
			c0.7-1.6-0.3-2.8-0.3-2.8c0.5-1.4-0.9-2.6-0.9-2.6c-1-2.8-7.3-2.1-13.8,7.2S42,107.3,42,107.3s-0.5-1.2-0.7-2.1
			c-0.4-1.8-3.1-2.1-2.4,0.7c0.2,0.9,0.6,2.1,0.6,2.1s-6-7-16.7-10.8c-10.7-3.8-16.2-0.8-15.4,2.1c0,0-0.4,1.9,0.8,2.7
			c0,0-0.1,1.6,1.4,2.5c0,0,0.4,2,2.2,2.8c0,0,0.7,2.8,3.1,4.1c0,0,0.1,1.2,1.3,2.2c1.2,1,0.4,2.1,3.7,2.2c1.6,0,3.4-0.6,3.4-0.6
			s-2.2,2.6-3.5,5.6c0,0.5,1.4,0.9,1.3,2.1c-0.1,1.3-0.3,2.4,0.4,2.7s1.8,2,2.1,3.2c0.3,1.2,1.1,0.5,1.7,1s1.7,1.8,2.4,2
			c0.6,0.2,1.6-0.7,2.6,0s0.6,0.7,2.6,0.2c2-0.6,2,0.3,2.7,0.1c0.7-0.2,3.7-2.9,3.8-3.7c0.2-0.8,3.1-12.6,3.1-12.6s1,1.1,1.2,2.2
			c0.2,1,0.6,1.9,0.3,2.5c-0.2,0.6,0.5,1.2,0.6,1.8C44.7,122.5,45.3,124.7,46.1,124.5z"/>
		<path fill="#000A8B" d="M39.3,104.9c0,0-1.3-2.1-2.9-3.4s-3.7-5-3.7-5"/>
		<path fill="#000A8B" d="M40.4,104.6c0,0-0.2-2.5,0.4-4.5c0.6-2,0.1-6.2,0.1-6.2"/>
	</g>
</g>
<g id="moth">
	<path fill="#000A8B" d="M37,13.4c0,0,6.5,11.6,5.1,14.7c-0.8,1.7-1.1,2.3-1.2,2.5c0,0,0,0,0,0s0,0.1,0,0c0.4-0.2,3.6-2.1,4.3-0.4
		c0.7,1.7,1.2,6-0.2,8.3c-0.6,1,0,1.9-0.4,2.7c-0.4,0.8-3.3,3.2-5.2,3.1c-1.8-0.1-2.7-0.8-3-0.2c-0.3,0.6,1.2-0.2,1.7,1.1
		c1.5-0.2,2.4,1.2,2.4,1.2s1.5-0.3,2.9,1.8c1.3,0.4,1.6,1.6,1.6,1.6s1-0.4,1.2,1.2c1,0,1.1,1.1,1.1,1.1s2.1,1.9,0.4,2.1
		c-0.9,0.1-1.4-0.1-1.4-0.1s-0.9,0.6-1.5-0.2c-1.3,0.9-1.6-0.2-1.6-0.2S42,54,40.9,53.2c-2.5,0.1-3.2-1.3-3.2-1.3s-1.6,0.1-2.4-1.2
		c-1.4,0.4-1.6-1.3-1.9-0.7c-0.3,0.6,0.8,0.9,1.9,2.3c1.2,1.4,1.1,5.2,0.6,6c-0.4,0.8-1.5,0.9-1.9,2c-0.9,2.5-4.7,4.6-6.5,5.1
		c-1.7,0.5-2.2-3.3-2.2-3.7c0.1-0.1,0,0,0,0s0,0,0,0c-0.1,0.2-0.4,0.7-1.3,2.4C22.5,67.2,9.3,69,9.3,69s-0.8-1.8,1-5.8
		c1.8-4.1,16.2-15,17.2-15.1c1,0,1-0.3,0.6-0.8c-0.4-0.5-0.5-1.8-0.5-1.8s-0.5-0.1-0.9-0.5c-0.5,0.1-1.8,0.6-2.9,1.8
		c-1.3,1.4-1.2,2.5-2.2,3.3c-1,0.9-1.7,1.9-1.7,1.9s0.6-1.4,1.3-2.1c0.7-0.7,1.6-2.6,2.2-3.6c0.4-0.7,2.1-1.4,3-1.7c0,0,0,0,0-0.1
		c-0.1-0.2-0.1-0.4-0.2-0.7c-1.5-0.8-0.4-2.3,0.8-1.6c0.2-0.1,0.4-0.2,0.6-0.3c0,0,0,0,0.1,0c-0.3-0.9-0.7-2.6-0.4-3.4
		c0.4-1.1,1.3-3,1.5-3.9c0.2-1,0.9-2.3,0.9-2.3s-0.4,1.2-0.5,2.5c-0.1,1.3-1,1.8-1.4,3.7c-0.2,1.6,0.2,2.9,0.3,3.4
		c0.6,0.1,1,0.4,1,0.4s1-0.7,1.7-0.7c0.7,0,0.9-0.1,0.3-1c-0.6-0.8-0.5-18.9,1.7-22.8C35.2,13.8,37,13.4,37,13.4z"/>
</g>
<g id="grasshopper">
	<path fill="#000A8B" d="M145,71.3c-0.6-1-5.2-6.8-5.5-6.4c-0.2,0.2-0.6,0-1.2-0.3c0.3-0.9-0.1-1.4-0.1-1.4c1.5-0.5,0.9-2.4,0.9-2.4
		c0.2-0.4-0.1-4.2-1.5-6.6c1.1-3.5,4.3-13.3,7.7-19.2c-1.1,1.8-6.3,10.6-8,18.8c-0.1-0.1-0.1-0.2-0.2-0.3c0,0,0,0,0,0
		c-0.1-2-0.5-6.3-1.3-8.1c-1-2.4-1.1-7.4-1.1-7.8c0,0.4-0.1,6.3,0.6,8.5c0.4,1.5,0.8,4.6,1,6.6c-0.2-0.2-0.5-0.3-0.8-0.3
		c-3.1-0.6-4.8,1.5-4.8,1.5c-2.5,0.2-6.4,2.6-6.4,2.6s-3.9,0.5-6.3,1.9c-1.5-0.2-4.9,0.3-8.8,1.1c-3.4-1.7-10.2-5.2-10.5-5.8
		c-0.4-0.9-4-5.8-6-5c-1.1-1.1-2.4-0.8-2.9,0.6c-0.5,1.4-2,0.3-1.9,1.1c0,0.7,0.4,9.8-0.2,14.2c-4.3,0.6-5.4,1-8.5,2.2
		c-3.1,1.3-0.3,3.2,0.8,3.2c-0.4,0.7,0.8,0.8,0.8,0.8s-0.9,0.7-0.6,1.6c0.2,0.8,3.4-0.9,3.4-0.9s0.2,0.8-2.1,2.1
		c2,1.2,3.8,1.8,5.4,2c0,0.6-0.2,1.3-0.9,1.2C84.5,76.7,82,77,82,77s-3.6-0.9-4.8,1.1L76.6,79l1.9-0.1c0,0-0.8-1.4,2.6-1.2
		c0,0-0.9,1.6,1.4,0.4c0,0,0.4,1.2,1.5,0c0,0,0.8,0.7,1.9-0.1c0,0,2.8,1.1,2.8-1.3c0-0.3,0-0.6,0-0.9c1.2,0,2-0.1,2-0.1
		c1.3,0.5,3.3,0,3.3,0s2,0.5,3.5-0.2c1.3,0.6,4,0.3,4,0.3s2.6,0.1,4-0.5c3.1,0.4,4.4-0.7,4.4-0.7s0.4,0.2,1,0.2
		c-0.4,1.6-1,4.1-1.9,4.3c-1.3,0.3-2.5,2.2-2.5,2.2s1.7,0.4,2.6-0.2c0.6-0.4,2.1-4.2,3-6.4c0.4-0.1,0.7-0.2,1.1-0.3
		c1.8,0.6,3.7-0.3,3.7-0.3s3.5-0.6,4.7-1.3c1.9,0.2,4.1-1.3,4.1-1.3s3-0.7,3.3-1.7c0.6-0.3,1.1-0.8,1.5-1.3c0.8,0.4,1.7,1,2.3,2
		c0.7-0.3,3.6,3.3,4.5,5.3c0.8,2,1.7,2.2,4,1.9c-1.3-0.7-1.3-1-2.4-1c-0.6-1.2-4.3-5.7-4.6-6.2s-0.1-1.7-1.1-2.3
		c-0.4-0.3-1.1-0.8-1.8-1.2c0.7-1.9,0.7-3.8,0.7-3.8s2.5,4,3.9,4.4c0.8-0.5,1.4-1.1,1.9-1.5l2.1,0.1l3.7,5.5c0,0,1.7,1.3,3.2,1
		c-0.3-0.8,0.6-1.6,1.6-1.4C148,71.1,147.3,70.1,145,71.3z M94.9,56.1L94.8,56C94.8,56,94.9,56.1,94.9,56.1z M88.7,64.3
		c0.3-2.2,0.5-4.9,0.2-6.4c-0.6-2.6,0.4-5.7,0.4-5.7s1.5,1.8,2.3,1.7c0,0,4.1,5.6,5.5,8.4C93.6,63.2,90.5,64,88.7,64.3z M98,62.1
		c-1-2-2.4-4.8-3-5.9l3.9,5.7C98.6,62,98.3,62,98,62.1z"/>
</g>
<g id="insects-text">
	<g>
		<path fill="#F9C53D" d="M47,32V11h3v21H47z"/>
		<path fill="#F9C53D" d="M53.2,32V11h2.2l5.2,13V11h3v21h-2.1l-5.4-14v14H53.2z"/>
		<path fill="#F9C53D" d="M72.2,32.2c-1.9,0-3.3-0.6-4.3-1.7s-1.6-2.6-1.7-4.5l3-0.8c0.1,3,1.1,4.5,3,4.5c1.5,0,2.2-0.8,2.2-2.2
			c0-0.4-0.1-0.9-0.2-1.2s-0.3-0.7-0.6-1s-0.5-0.6-0.7-0.8s-0.5-0.4-0.8-0.7l-3.8-3c-0.7-0.5-1.2-1.2-1.6-2.1s-0.6-1.8-0.6-2.8
			c0-1.5,0.5-2.8,1.4-3.7s2.2-1.4,3.8-1.4c1.7,0,3.1,0.4,4.1,1.2s1.6,2,1.9,3.5c0,0.2,0.1,0.4,0.1,0.7l-3,0.8c0-0.1,0-0.3-0.1-0.6
			c-0.1-1-0.4-1.7-0.9-2.3s-1.1-0.9-2-0.9c-0.7,0-1.3,0.2-1.7,0.6s-0.6,1-0.6,1.7c0,1.2,0.5,2.2,1.5,3l3.8,3c2,1.6,3,3.6,3,5.8
			c0,1.5-0.5,2.7-1.4,3.6S73.8,32.2,72.2,32.2z"/>
		<path fill="#F9C53D" d="M79.7,32V11h8.2v2.2h-5.2V20h3.8v2.2h-3.8v7.5h5.2V32H79.7z"/>
		<path fill="#F9C53D" d="M95.1,32.2c-0.9,0-1.7-0.1-2.3-0.4s-1.2-0.6-1.7-1s-0.8-1-1-1.7s-0.5-1.4-0.6-2.1s-0.2-1.6-0.2-2.5v-6
			c0-0.9,0.1-1.8,0.2-2.5s0.3-1.5,0.6-2.1s0.6-1.2,1-1.6s1-0.8,1.7-1s1.4-0.4,2.3-0.4c1,0,1.8,0.1,2.5,0.4s1.3,0.7,1.7,1.3
			s0.7,1.2,1,2s0.3,1.6,0.4,2.6c0,0.1,0,0.4,0,0.7h-3V17c0-0.4,0-0.8,0-1.1s-0.1-0.6-0.1-0.9s-0.2-0.6-0.3-0.8s-0.3-0.4-0.5-0.6
			s-0.4-0.3-0.7-0.4s-0.6-0.1-1-0.1c-0.5,0-0.9,0.1-1.2,0.2s-0.6,0.4-0.8,0.6s-0.3,0.6-0.5,1s-0.2,0.8-0.2,1.2s0,0.9,0,1.5v7.5
			c0,0.5,0,1,0.1,1.4s0.1,0.8,0.3,1.2s0.3,0.7,0.5,1s0.5,0.5,0.8,0.7s0.7,0.3,1.2,0.3s0.8-0.1,1.1-0.3s0.6-0.4,0.8-0.7
			s0.3-0.6,0.4-1s0.2-0.8,0.2-1.2s0-0.8,0-1.4v-0.8h3v0.8c0,1.1-0.1,2-0.3,2.9s-0.5,1.5-0.9,2.2s-1,1.1-1.7,1.4S96.2,32.2,95.1,32.2
			z"/>
		<path fill="#F9C53D" d="M105,32V13.6h-3.8V11h10.5v2.7H108V32H105z"/>
		<path fill="#F9C53D" d="M118.7,32.2c-1.9,0-3.3-0.6-4.3-1.7s-1.6-2.6-1.7-4.5l3-0.8c0.1,3,1.1,4.5,3,4.5c1.5,0,2.2-0.8,2.2-2.2
			c0-0.4-0.1-0.9-0.2-1.2s-0.3-0.7-0.6-1s-0.5-0.6-0.7-0.8s-0.5-0.4-0.8-0.7l-3.8-3c-0.7-0.5-1.2-1.2-1.6-2.1s-0.6-1.8-0.6-2.8
			c0-1.5,0.5-2.8,1.4-3.7s2.2-1.4,3.8-1.4c1.7,0,3.1,0.4,4.1,1.2s1.6,2,1.9,3.5c0,0.2,0.1,0.4,0.1,0.7l-3,0.8c0-0.1,0-0.3-0.1-0.6
			c-0.1-1-0.4-1.7-0.9-2.3s-1.1-0.9-2-0.9c-0.7,0-1.3,0.2-1.7,0.6s-0.6,1-0.6,1.7c0,1.2,0.5,2.2,1.5,3l3.8,3c2,1.6,3,3.6,3,5.8
			c0,1.5-0.5,2.7-1.4,3.6S120.3,32.2,118.7,32.2z"/>
		<path fill="#FFFFFF" d="M47.8,59l4.2-20h-6v-2.7h9.1v1.6L50.9,59H47.8z"/>
		<path fill="#FFFFFF" d="M62.7,59.2c-2,0-3.5-0.6-4.3-1.7c-0.9-1.1-1.3-2.8-1.3-5h3.2V53c0,0.4,0,0.8,0,1.1c0,0.3,0.1,0.6,0.2,1
			c0.1,0.3,0.2,0.6,0.4,0.8c0.2,0.2,0.4,0.4,0.6,0.5c0.3,0.1,0.6,0.2,1,0.2c0.3,0,0.6,0,0.8-0.1c0.2-0.1,0.4-0.2,0.6-0.3
			c0.2-0.1,0.3-0.3,0.5-0.5c0.1-0.2,0.2-0.4,0.3-0.6c0.1-0.2,0.2-0.4,0.2-0.7c0.1-0.3,0.1-0.6,0.1-0.8c0-0.2,0.1-0.5,0.1-0.9
			c0-0.4,0-0.7,0-0.9c0-0.2,0-0.5,0-0.9c0-0.2,0-0.3,0-0.4c0-0.4,0-0.7,0-0.9c0-0.3,0-0.5-0.1-0.8c0-0.3-0.1-0.6-0.2-0.8
			c-0.1-0.2-0.2-0.4-0.3-0.6c-0.1-0.2-0.3-0.4-0.4-0.5c-0.2-0.1-0.4-0.2-0.6-0.3c-0.2-0.1-0.5-0.1-0.8-0.1c-0.6,0-1.1,0.2-1.5,0.6
			c-0.4,0.4-0.7,0.8-0.9,1.3h-2.8V36.2h10.1v3.2h-7.1L60.3,45c0.9-0.5,2-0.8,3.2-0.8c0.7,0,1.4,0.1,1.9,0.3c0.6,0.2,1,0.5,1.4,0.9
			c0.4,0.4,0.7,0.9,0.9,1.4c0.2,0.6,0.4,1.2,0.5,1.8c0.1,0.6,0.1,1.4,0.1,2.1c0,1-0.1,1.9-0.2,2.6S68,55,67.7,55.7
			c-0.3,0.7-0.6,1.3-1,1.8c-0.4,0.5-1,0.9-1.7,1.2C64.4,59,63.6,59.2,62.7,59.2z"/>
		<path fill="#FFFFFF" d="M72.5,59V41.1H70v-2.4c1.6-0.6,2.7-1.4,3.2-2.4h2.4V59H72.5z"/>
		<path fill="#FFFFFF" d="M79.1,62.2l-0.8-1.6c0.6,0,1-0.1,1.3-0.4c0.2-0.3,0.4-0.7,0.4-1.2h-1.6v-3.2h3.2c0,1.2,0,2.2,0,3.1
			c0,0.5,0,0.8-0.1,1.2c0,0.3-0.1,0.6-0.2,0.9c-0.1,0.3-0.2,0.6-0.4,0.7c-0.2,0.2-0.4,0.3-0.7,0.4C79.9,62.2,79.5,62.2,79.1,62.2z"
			/>
		<path fill="#FFFFFF" d="M89.4,59.2c-1.2,0-2.3-0.3-3.2-0.9c-0.9-0.6-1.5-1.4-1.9-2.4c-0.4-1-0.6-2.2-0.6-3.5v-9.8
			c0-2.1,0.5-3.7,1.4-4.9c0.9-1.2,2.4-1.8,4.3-1.8c1.9,0,3.3,0.6,4.3,1.8s1.4,2.8,1.4,4.9v9.8c0,2-0.5,3.7-1.5,4.9
			C92.7,58.6,91.3,59.2,89.4,59.2z M89.4,56.5c1.6,0,2.4-1.4,2.4-4.1v-9.8c0-0.5,0-0.9-0.1-1.2c0-0.4-0.1-0.7-0.2-1.1
			c-0.1-0.4-0.2-0.7-0.4-0.9c-0.2-0.2-0.4-0.4-0.7-0.6c-0.3-0.2-0.6-0.2-1.1-0.2s-0.8,0.1-1.1,0.2c-0.3,0.2-0.5,0.4-0.7,0.6
			c-0.2,0.2-0.3,0.6-0.4,0.9c-0.1,0.4-0.2,0.7-0.2,1.1c0,0.4-0.1,0.8-0.1,1.2v9.8c0,0.5,0,1,0.1,1.5c0.1,0.4,0.2,0.9,0.4,1.3
			c0.2,0.4,0.4,0.7,0.8,1C88.5,56.4,88.9,56.5,89.4,56.5z"/>
		<path fill="#FFFFFF" d="M103.2,59.2c-1.2,0-2.3-0.3-3.2-0.9c-0.9-0.6-1.5-1.4-1.9-2.4c-0.4-1-0.6-2.2-0.6-3.5v-9.8
			c0-2.1,0.5-3.7,1.4-4.9c0.9-1.2,2.4-1.8,4.3-1.8c1.9,0,3.3,0.6,4.3,1.8s1.4,2.8,1.4,4.9v9.8c0,2-0.5,3.7-1.5,4.9
			C106.5,58.6,105.1,59.2,103.2,59.2z M103.2,56.5c1.6,0,2.4-1.4,2.4-4.1v-9.8c0-0.5,0-0.9-0.1-1.2c0-0.4-0.1-0.7-0.2-1.1
			c-0.1-0.4-0.2-0.7-0.4-0.9c-0.2-0.2-0.4-0.4-0.7-0.6c-0.3-0.2-0.6-0.2-1.1-0.2s-0.8,0.1-1.1,0.2c-0.3,0.2-0.5,0.4-0.7,0.6
			c-0.2,0.2-0.3,0.6-0.4,0.9c-0.1,0.4-0.2,0.7-0.2,1.1c0,0.4-0.1,0.8-0.1,1.2v9.8c0,0.5,0,1,0.1,1.5c0.1,0.4,0.2,0.9,0.4,1.3
			c0.2,0.4,0.4,0.7,0.8,1C102.4,56.4,102.8,56.5,103.2,56.5z"/>
		<path fill="#FFFFFF" d="M117,59.2c-1.2,0-2.3-0.3-3.2-0.9c-0.9-0.6-1.5-1.4-1.9-2.4c-0.4-1-0.6-2.2-0.6-3.5v-9.8
			c0-2.1,0.5-3.7,1.4-4.9c0.9-1.2,2.4-1.8,4.3-1.8c1.9,0,3.3,0.6,4.3,1.8s1.4,2.8,1.4,4.9v9.8c0,2-0.5,3.7-1.5,4.9
			C120.3,58.6,118.9,59.2,117,59.2z M117,56.5c1.6,0,2.4-1.4,2.4-4.1v-9.8c0-0.5,0-0.9-0.1-1.2c0-0.4-0.1-0.7-0.2-1.1
			c-0.1-0.4-0.2-0.7-0.4-0.9c-0.2-0.2-0.4-0.4-0.7-0.6c-0.3-0.2-0.6-0.2-1.1-0.2s-0.8,0.1-1.1,0.2c-0.3,0.2-0.5,0.4-0.7,0.6
			c-0.2,0.2-0.3,0.6-0.4,0.9c-0.1,0.4-0.2,0.7-0.2,1.1c0,0.4-0.1,0.8-0.1,1.2v9.8c0,0.5,0,1,0.1,1.5c0.1,0.4,0.2,0.9,0.4,1.3
			c0.2,0.4,0.4,0.7,0.8,1C116.2,56.4,116.6,56.5,117,56.5z"/>
	</g>
	<g>
		<path fill="#F9C53D" d="M46.4,99.1v-14h3.5c2.3,0,3.5,1.3,3.5,4c0,1.1-0.3,2-0.9,2.6s-1.5,0.9-2.6,0.9h-1.5v6.5H46.4z M48.4,91.1
			h0.5c0.5,0,0.8,0,1.1-0.1s0.5-0.1,0.8-0.3c0.2-0.1,0.4-0.3,0.5-0.6c0.1-0.3,0.1-0.6,0.1-1c0-0.5,0-0.9-0.1-1.2
			c-0.1-0.3-0.2-0.6-0.4-0.8s-0.4-0.3-0.8-0.4c-0.3-0.1-0.7-0.1-1.2-0.1h-0.5V91.1z"/>
		<path fill="#F9C53D" d="M54.5,99.1v-14H57c1.5,0,2.6,0.3,3.4,0.9c0.8,0.6,1.1,1.5,1.1,2.9c0,0.8-0.1,1.5-0.4,2.1s-0.7,0.9-1.3,1.2
			l2.2,7h-2l-2-6.5h-1.5v6.5H54.5z M56.5,91.1H57c0.8,0,1.5-0.2,1.9-0.5c0.4-0.4,0.6-0.9,0.6-1.7s-0.2-1.4-0.6-1.7
			c-0.4-0.4-1-0.5-1.9-0.5h-0.5V91.1z"/>
		<path fill="#F9C53D" d="M66.8,99.2c-0.7,0-1.3-0.1-1.8-0.3s-0.9-0.5-1.2-0.9c-0.3-0.4-0.5-0.9-0.6-1.4s-0.2-1.2-0.2-1.9v-5.1
			c0-0.7,0.1-1.4,0.2-1.9s0.4-1,0.6-1.4c0.3-0.4,0.7-0.7,1.2-0.9s1.1-0.3,1.8-0.3c1.4,0,2.3,0.4,3,1.2s0.9,1.9,0.9,3.4v5.1
			c0,0.7-0.1,1.4-0.2,1.9s-0.4,1-0.7,1.5s-0.7,0.7-1.2,0.9S67.5,99.2,66.8,99.2z M65.3,96.9c0.3,0.4,0.8,0.6,1.5,0.6
			s1.2-0.2,1.5-0.6s0.4-1,0.4-1.9V89c0-0.8-0.1-1.4-0.4-1.8s-0.8-0.6-1.5-0.6s-1.2,0.2-1.5,0.6s-0.4,1-0.4,1.8v6.1
			C64.9,95.9,65.1,96.5,65.3,96.9z"/>
		<path fill="#F9C53D" d="M73.9,99.1V86.9h-2.5v-1.8h7v1.8h-2.5v12.2H73.9z"/>
		<path fill="#F9C53D" d="M82.9,99.2c-0.7,0-1.3-0.1-1.8-0.3s-0.9-0.5-1.2-0.9s-0.5-0.9-0.6-1.4S79,95.3,79,94.6v-5.1
			c0-0.7,0.1-1.4,0.2-1.9s0.4-1,0.6-1.4s0.7-0.7,1.2-0.9s1.1-0.3,1.8-0.3c1.4,0,2.3,0.4,3,1.2s0.9,1.9,0.9,3.4v5.1
			c0,0.7-0.1,1.4-0.2,1.9s-0.4,1-0.7,1.5s-0.7,0.7-1.2,0.9S83.6,99.2,82.9,99.2z M81.4,96.9c0.3,0.4,0.8,0.6,1.5,0.6
			s1.2-0.2,1.5-0.6s0.4-1,0.4-1.9V89c0-0.8-0.1-1.4-0.4-1.8s-0.8-0.6-1.5-0.6s-1.2,0.2-1.5,0.6S81,88.2,81,89v6.1
			C81,95.9,81.2,96.5,81.4,96.9z"/>
		<path fill="#F9C53D" d="M88,99.1v-1.5l4.5-11h-4v-1.5h6v1.5l-4.5,11h4.5v1.5H88z"/>
		<path fill="#F9C53D" d="M99.5,99.2c-0.7,0-1.3-0.1-1.8-0.3s-0.9-0.5-1.2-0.9s-0.5-0.9-0.6-1.4s-0.2-1.2-0.2-1.9v-5.1
			c0-0.7,0.1-1.4,0.2-1.9s0.4-1,0.6-1.4s0.7-0.7,1.2-0.9s1.1-0.3,1.8-0.3c1.4,0,2.3,0.4,3,1.2s0.9,1.9,0.9,3.4v5.1
			c0,0.7-0.1,1.4-0.2,1.9s-0.4,1-0.7,1.5s-0.7,0.7-1.2,0.9S100.2,99.2,99.5,99.2z M98.1,96.9c0.3,0.4,0.8,0.6,1.5,0.6
			s1.2-0.2,1.5-0.6s0.4-1,0.4-1.9V89c0-0.8-0.1-1.4-0.4-1.8s-0.8-0.6-1.5-0.6s-1.2,0.2-1.5,0.6s-0.4,1-0.4,1.8v6.1
			C97.7,95.9,97.8,96.5,98.1,96.9z"/>
		<path fill="#F9C53D" d="M105.1,99.1v-14h5.5v1.5h-3.5v4.5h2.5v1.5h-2.5v5h3.5v1.5H105.1z"/>
		<path fill="#F9C53D" d="M111,99.1l3-14h2l3,14h-2l-0.8-3.5h-2.5l-0.8,3.5H111z M114,94.1h2l-1-6L114,94.1z"/>
		<path fill="#FFFFFF" d="M52.3,128.3c-1.9,0-3.4-0.5-4.4-1.6s-1.5-2.6-1.5-4.5v-0.8h3.4c0,0.5,0,1,0,1.4s0.1,0.8,0.2,1.1
			c0.1,0.4,0.2,0.7,0.4,0.9s0.4,0.4,0.7,0.6c0.3,0.2,0.7,0.2,1.1,0.2s0.8-0.1,1.1-0.2c0.3-0.1,0.6-0.3,0.7-0.6s0.3-0.5,0.4-0.9
			s0.2-0.8,0.2-1.1c0-0.4,0-0.8,0-1.4c0-1.4-0.3-2.4-0.8-3.1c-0.5-0.7-1.4-1.1-2.6-1.1v-3.4c1.2,0,2.1-0.3,2.6-0.8
			c0.5-0.5,0.8-1.4,0.8-2.6c0-1.1-0.2-2-0.6-2.5c-0.4-0.6-1-0.9-2-0.9c-0.4,0-0.8,0.1-1.1,0.2s-0.6,0.3-0.7,0.6
			c-0.2,0.2-0.3,0.5-0.4,0.9c-0.1,0.4-0.2,0.8-0.2,1.1c0,0.4,0,0.8,0,1.4h-3.4v-0.8c0-1.9,0.5-3.4,1.5-4.5c1-1.1,2.5-1.6,4.4-1.6
			c1.9,0,3.4,0.5,4.4,1.6c1,1.1,1.5,2.6,1.5,4.5c0,1.3-0.3,2.4-0.9,3.3c-0.6,0.9-1.4,1.4-2.5,1.8c1.1,0.4,1.9,1.1,2.5,2.1
			c0.6,1,0.9,2.3,0.9,3.8c0,2.2-0.5,3.9-1.4,5.2C55.9,127.7,54.4,128.3,52.3,128.3z"/>
		<path fill="#FFFFFF" d="M66.1,128.3c-1.3,0-2.4-0.3-3.3-0.9c-0.9-0.6-1.6-1.4-2-2.5c-0.4-1-0.6-2.2-0.6-3.6v-10.1
			c0-2.2,0.5-3.9,1.5-5.1c1-1.2,2.5-1.9,4.4-1.9c2,0,3.4,0.6,4.4,1.9c1,1.2,1.5,3,1.5,5.1v10.1c0,2.1-0.5,3.8-1.5,5.1
			C69.5,127.7,68,128.3,66.1,128.3z M66.1,125.5c1.7,0,2.5-1.4,2.5-4.2v-10.1c0-0.5,0-0.9-0.1-1.3c0-0.4-0.1-0.8-0.2-1.1
			c-0.1-0.4-0.3-0.7-0.4-1c-0.2-0.3-0.4-0.5-0.7-0.6s-0.7-0.2-1.1-0.2s-0.8,0.1-1.1,0.2s-0.6,0.4-0.7,0.6c-0.2,0.3-0.3,0.6-0.4,1
			c-0.1,0.4-0.2,0.8-0.2,1.1c0,0.4-0.1,0.8-0.1,1.3v10.1c0,0.6,0,1.1,0.1,1.5c0.1,0.5,0.2,0.9,0.4,1.3c0.2,0.4,0.4,0.8,0.8,1
			C65.2,125.4,65.6,125.5,66.1,125.5z"/>
		<path fill="#FFFFFF" d="M75.1,131.5l-0.8-1.7c0.6,0,1-0.1,1.3-0.4c0.3-0.3,0.4-0.7,0.4-1.3h-1.7v-3.4h3.4c0,1.3,0,2.3,0,3.2
			c0,0.5,0,0.9-0.1,1.2c0,0.3-0.1,0.6-0.2,1s-0.2,0.6-0.4,0.8c-0.2,0.2-0.4,0.3-0.7,0.5C75.9,131.4,75.5,131.5,75.1,131.5z"/>
		<path fill="#FFFFFF" d="M85.4,128.3c-2.1,0-3.6-0.6-4.5-1.8c-0.9-1.2-1.4-2.9-1.4-5.2c0-1.5,0.2-2.6,0.6-3.5
			c0.4-0.9,1.1-1.6,2-2.2c-0.8-0.6-1.3-1.3-1.7-2.1s-0.5-1.9-0.5-3.1c0-2,0.5-3.5,1.4-4.5s2.3-1.6,4.2-1.6c1.8,0,3.2,0.5,4.2,1.6
			c0.9,1.1,1.4,2.6,1.4,4.5c0,1.3-0.2,2.3-0.5,3.1c-0.4,0.8-0.9,1.5-1.7,2.1c0.9,0.6,1.5,1.3,1.9,2.2s0.6,2.1,0.6,3.5
			c0,2.2-0.5,4-1.4,5.2C89,127.7,87.5,128.3,85.4,128.3z M84.3,125.3c0.3,0.2,0.7,0.2,1.1,0.2s0.8-0.1,1.1-0.2s0.6-0.4,0.7-0.6
			c0.2-0.2,0.3-0.6,0.4-0.9c0.1-0.4,0.2-0.8,0.2-1.1c0-0.4,0-0.8,0-1.3c0-0.6,0-1.1-0.1-1.5s-0.2-0.9-0.4-1.3s-0.4-0.7-0.8-0.9
			c-0.3-0.2-0.8-0.3-1.3-0.3s-0.9,0.1-1.3,0.3c-0.3,0.2-0.6,0.5-0.8,0.9c-0.2,0.4-0.3,0.8-0.4,1.3c-0.1,0.4-0.1,1-0.1,1.5
			c0,0.5,0,0.9,0,1.3c0,0.4,0.1,0.7,0.2,1.1c0.1,0.4,0.2,0.7,0.4,0.9C83.7,125,84,125.2,84.3,125.3z M85.4,114.1
			c0.4,0,0.8-0.1,1.1-0.3c0.3-0.2,0.5-0.5,0.7-0.9c0.1-0.4,0.2-0.8,0.3-1.2c0-0.4,0.1-0.8,0.1-1.4c0-2.2-0.7-3.4-2.1-3.4
			c-1.4,0-2.1,1.1-2.1,3.4c0,0.5,0,1,0.1,1.4c0.1,0.4,0.1,0.8,0.3,1.2s0.4,0.7,0.7,0.9C84.6,114,85,114.1,85.4,114.1z"/>
		<path fill="#FFFFFF" d="M99.3,128.3c-1.3,0-2.4-0.3-3.3-0.9c-0.9-0.6-1.6-1.4-2-2.5c-0.4-1-0.6-2.2-0.6-3.6v-10.1
			c0-2.2,0.5-3.9,1.5-5.1c1-1.2,2.5-1.9,4.4-1.9c2,0,3.4,0.6,4.4,1.9c1,1.2,1.5,3,1.5,5.1v10.1c0,2.1-0.5,3.8-1.5,5.1
			C102.7,127.7,101.3,128.3,99.3,128.3z M99.3,125.5c1.7,0,2.5-1.4,2.5-4.2v-10.1c0-0.5,0-0.9-0.1-1.3c0-0.4-0.1-0.8-0.2-1.1
			c-0.1-0.4-0.3-0.7-0.4-1c-0.2-0.3-0.4-0.5-0.7-0.6s-0.7-0.2-1.1-0.2s-0.8,0.1-1.1,0.2s-0.6,0.4-0.7,0.6c-0.2,0.3-0.3,0.6-0.4,1
			c-0.1,0.4-0.2,0.8-0.2,1.1c0,0.4-0.1,0.8-0.1,1.3v10.1c0,0.6,0,1.1,0.1,1.5c0.1,0.5,0.2,0.9,0.4,1.3c0.2,0.4,0.4,0.8,0.8,1
			C98.4,125.4,98.8,125.5,99.3,125.5z"/>
		<path fill="#FFFFFF" d="M113.7,128.3c-1.3,0-2.4-0.3-3.3-0.9c-0.9-0.6-1.6-1.4-2-2.5c-0.4-1-0.6-2.2-0.6-3.6v-10.1
			c0-2.2,0.5-3.9,1.5-5.1c1-1.2,2.5-1.9,4.4-1.9c2,0,3.4,0.6,4.4,1.9c1,1.2,1.5,3,1.5,5.1v10.1c0,2.1-0.5,3.8-1.5,5.1
			C117.1,127.7,115.6,128.3,113.7,128.3z M113.7,125.5c1.7,0,2.5-1.4,2.5-4.2v-10.1c0-0.5,0-0.9-0.1-1.3c0-0.4-0.1-0.8-0.2-1.1
			c-0.1-0.4-0.3-0.7-0.4-1c-0.2-0.3-0.4-0.5-0.7-0.6s-0.7-0.2-1.1-0.2s-0.8,0.1-1.1,0.2s-0.6,0.4-0.7,0.6c-0.2,0.3-0.3,0.6-0.4,1
			c-0.1,0.4-0.2,0.8-0.2,1.1c0,0.4-0.1,0.8-0.1,1.3v10.1c0,0.6,0,1.1,0.1,1.5c0.1,0.5,0.2,0.9,0.4,1.3c0.2,0.4,0.4,0.8,0.8,1
			C112.8,125.4,113.2,125.5,113.7,125.5z"/>
	</g>
	<g>
	</g>
	<g>
	</g>
	<g>
	</g>
	<g>
	</g>
	<g>
	</g>
	<g>
	</g>
</g>
</svg>
