<?xml version="1.0" encoding="utf-8"?>
<!-- Generator: Adobe Illustrator 19.1.0, SVG Export Plug-In . SVG Version: 6.00 Build 0)  -->
<svg version="1.1" xmlns="http://www.w3.org/2000/svg" xmlns:xlink="http://www.w3.org/1999/xlink" x="0px" y="0px" width="211.7px"
	 height="186.7px" viewBox="0 0 211.7 186.7" enable-background="new 0 0 211.7 186.7" xml:space="preserve">
<g id="memory-bck">
	<path opacity="0.39" fill="#FFFFFF" d="M109,172.2c0,0,83.3-1.2,80.8-88.7C187.4-3.9,108.5,0.3,73.7,14.2S-77.9,177.1,109,172.2z"
		/>
</g>
<g id="memory-bird">
	<g>
		<path fill="#231F20" d="M186.4,115.5c-3.6-2.2-9.6-4.4-19.4-6.2V92.1c0,0,6.6,1.6,14.6,4c0,0,0,0,0,0
			C183.4,97.1,204.4,108.6,186.4,115.5z"/>
		<path fill="#FFFFFF" d="M180.9,58.8C180.9,58.8,180.9,58.8,180.9,58.8c-0.4-0.3-0.7-0.4-0.7-0.4c-0.3-0.1-0.5-0.3-0.8-0.4
			c0,0-0.1,0-0.1-0.1C152.9,46.7,139.4,79,139.4,79c-14,9.1-23.7,25.5-25.3,28.3c-0.1,0.3-0.2,0.4-0.2,0.4s-0.5,0.7-1.4,1.9
			c0.5-0.3,0.9-0.6,1.4-0.8c1.6-0.9,3.3-1.8,4.9-2.6c0-0.1,0.9-1.1,17.8-15.2c13.5-11.2,22.2-9.2,26-7.2c0,0,0,0,0.1,0
			c0.8,0.5,1.4,0.9,1.8,1.2c0.3,0.2,0.5,0.4,0.5,0.4c0.5,1,0.9,2,1.2,3c0.1,0.2,0.2,0.5,0.2,0.7c0.4,1.6,0.6,3.2,0.5,4.7v0.2
			c0.2,9.9-8.5,18.7-18.1,24.9c0,0,0,0,0,0c-0.3,0.2-0.5,0.3-0.7,0.5c-8,5.1-16.5,8.4-20.8,9.1c-3.7,0.9-7.4,2-10.8,3.2
			c-0.6,2.8-1.8,6.8-4.1,10.6c0.4,0.2,0.9,0.4,1.3,0.6c0,0,0,0,0,0c4.9,2,10.5,1.6,14.3,0.8c1.8-0.4,2.8-0.1,3.3,0.5
			c0.1,0.2,0.2,0.4,0.3,0.6c0.2,0.1,0.3,0.2,0.4,0.3c0.4,0.5,0.5,1.3,0.4,1.9c0,0.2-0.1,0.4-0.1,0.6c0.2-0.1,0.5-0.1,0.7-0.2
			c1.3-0.3,2.8-0.5,4.3-0.6c-0.4-2.3,2.7-3.2,11.7-8.3c11-6.2,25.2-35.4,25.7-46.1c0-0.7,0-1.4-0.1-1.9c-0.8-4.3-1.7-6.9-1.8-9.5
			c0,0,0-0.1,0-0.1c-0.1-2.4,0.5-4.9,2.6-8.8c0.5-1,1.3-1.8,2.3-2.6c0.1-0.1,0.2-0.2,0.4-0.3c-0.3-0.1-0.5-0.2-0.8-0.3
			c0,0,0,0-0.1,0c-1.4-0.6-3-1.4-3.7-2.4c-0.1-0.1-0.1-0.2-0.2-0.4c-0.1-0.2-0.1-0.4-0.2-0.6c6-2.3,8-4,8.5-5.2
			C181.9,59.8,181.4,59.2,180.9,58.8z M170.1,61.6c-0.2,1.5-1.5,2.6-3.1,2.6c-0.2,0-0.4,0-0.6-0.1c0,0,0,0,0,0
			c-1-0.2-1.8-0.8-2.2-1.7c-0.1-0.3-0.2-0.6-0.3-0.9c0-0.2-0.1-0.3-0.1-0.5c0-1.7,1.4-3.1,3.2-3.1c0.8,0,1.5,0.3,2,0.7h0
			c0,0,0.1,0.1,0.1,0.1c0.6,0.6,1,1.4,1,2.3C170.2,61.2,170.1,61.4,170.1,61.6z"/>
		<path fill="#E2E3E4" d="M131.5,145c-0.6-0.3-1.5-0.5-2.9-0.2c-3.8,0.8-9.4,1.1-14.3-0.8c0,0,0,0,0,0c-0.8-0.3-1.5-0.7-2.2-1.1
			c0.1-0.1,0.2-0.3,0.2-0.4c0.4,0.2,0.9,0.4,1.3,0.6c0,0,0,0,0,0c4.9,2,10.5,1.6,14.3,0.8c1.8-0.4,2.8-0.1,3.3,0.5
			C131.4,144.6,131.5,144.8,131.5,145z"/>
		<path fill="#E2E3E4" d="M179.3,70c-0.1,0-0.1,0.1-0.2,0.1c-0.3,0.2-0.6,0.4-0.8,0.6c-1,0.8-1.7,1.6-2.3,2.6
			c-2.1,4-2.7,6.4-2.6,8.8c0,0,0,0.1,0,0.1c0.1,2.6,1,5.1,1.8,9.5c0.1,0.5,0.1,1.2,0.1,1.9c-0.5,10.7-14.8,39.8-25.7,46.1
			c-9.1,5.2-12.1,6.1-11.7,8.3c-1.5,0.1-3,0.3-4.3,0.6c-0.5,0.1-0.9,0.2-1.4,0.3c0,0,0,0-0.1,0l-0.2-0.3c0,0,0.2-0.4,0.3-0.8
			c0.2-0.1,0.5-0.1,0.7-0.2c1.3-0.3,2.8-0.5,4.3-0.6c-0.4-2.3,2.7-3.2,11.7-8.3c11-6.2,25.2-35.4,25.7-46.1c0-0.7,0-1.4-0.1-1.9
			c-0.8-4.3-1.7-6.9-1.8-9.5c0,0,0-0.1,0-0.1c-0.1-2.4,0.5-4.9,2.6-8.8c0.5-1,1.3-1.8,2.3-2.6c0.1-0.1,0.2-0.2,0.4-0.3
			C178.8,69.8,179.3,70,179.3,70z"/>
		<path fill="#E2E3E4" d="M167,94.1c0.2,9.9-8.5,18.7-18.1,24.9c0,0,0,0,0,0c-0.3,0.2-0.5,0.3-0.7,0.5c-8,5.1-16.5,8.4-20.8,9.1
			c-3.7,0.9-7.4,2-10.8,3.2c-0.6,2.9-1.9,7.1-4.3,11c-0.2-0.1-0.3-0.2-0.5-0.3c2.7-4.2,4.1-8.6,4.8-11.8c3.5-1.3,7.1-2.4,10.8-3.2
			c4.3-0.7,12.7-4,20.8-9.1c0.3-0.1,0.5-0.3,0.7-0.5c0,0,0,0,0,0c2.2-1.5,4.4-3,6.5-4.8c0.1-0.1,0.2-0.2,0.4-0.3
			c2.4-2.1,4.6-4.3,6.4-6.6c0.2-0.3,0.4-0.5,0.6-0.8c0.2-0.3,0.5-0.7,0.7-1c0.2-0.3,0.4-0.6,0.6-0.9c1.2-2.1,2.2-4.2,2.6-6.5
			c0.1-0.3,0.1-0.6,0.2-0.9c0.1-0.4,0.1-0.7,0.1-1.1c0-0.3,0-0.5,0.1-0.7C167,94.3,167,94.2,167,94.1z"/>
		<path fill="#E2E3E4" d="M179.3,58C152.9,46.7,139.4,79,139.4,79c-15.3,9.9-25.5,28.7-25.5,28.7s-0.5,0.7-1.4,1.9
			c-1.2,0.7-2.4,1.4-3.5,2.2c2.2-3,3.5-4.7,3.5-4.7s10.1-18.8,25.5-28.7C138,78.4,151.9,44.9,179.3,58z"/>
		<path fill="#231F20" d="M152,166.7c0,3.9,26.9,7.1,21.1,7.1c-9.5,0-16.6-0.8-23-4.1c-6.4-3.2-10.8-2.6-11.1,1.6
			c-0.3-0.3-4.2-4,0-6.2c4.3-2.3,6.1-0.5,6.2-0.5L132.1,149c1.7-0.5,3.6-0.8,5.8-0.9c0.1,0.7,0.5,1.5,1.1,2.5
			C141.8,155.2,152,162.7,152,166.7z"/>
		<path fill="#E2E3E4" d="M82.4,163c2.4-1.5,6.3-4.7,10.9-8.5c-7.7,7.5-15.7,15.1-19.5,17.7l29.8-35.8c1.6-0.8,3.3-1.6,5-2.4
			L82.4,163z"/>
		<path fill="#FFFFFF" d="M116.4,130.8c-0.3,1.1-0.6,2.5-1.1,3.9c-0.8,2.5-2,5.2-3.8,7.9c-0.1-0.1-0.2-0.1-0.3-0.2
			c-0.8-0.6-1.6-1.2-2.3-1.9c-0.3-0.3-0.6-0.6-0.9-1c-3.2,3.3-8.9,9.1-14.9,15c0,0,0,0,0,0c-4.5,3.9-8.4,7-10.9,8.5l26.1-28.9
			C111.1,132.9,113.7,131.8,116.4,130.8z"/>
		<path fill="#4F4F51" d="M103.5,136.5l-3.8,4.5c-9,4.7-16.8,10-23.1,14.4c-5.9,7.9-11.1,15.1-14.4,19.6c2.1-3,9.1-12.6,17.3-23.6
			C86.1,146.8,94.2,141.2,103.5,136.5z"/>
		<path fill="#231F20" d="M99.8,141l-26,31.2c-0.7,0.5-1.3,0.8-1.7,0.9c-3.5,0.6-0.4-2.1,0-2.5c-0.7,0.5-11.9,8.2-10.3,5.3
			c0.1-0.1,0.2-0.3,0.4-0.6c0.1-0.1,0.2-0.2,0.2-0.3c3.3-4.5,8.6-11.7,14.4-19.6C83,151,90.8,145.6,99.8,141z"/>
		<path fill="#E2E3E4" d="M165,85.4c0,0-0.3,0.2-0.9,0.6c-2.7-2-11.8-6.7-27.4,6.3c-7.8,6.5-12.2,10.2-14.7,12.3
			c-1,0.5-2.1,0.9-3.2,1.5c0,0-1.1,0.6,17.8-15.2C155.6,75.2,165,85.4,165,85.4z"/>
		<path fill="#FFFFFF" d="M164.2,86.1c-3.5,2.4-16.7,11.4-30.2,14.5c-3.7,0.9-7.7,2.2-11.9,4.1c2.5-2.1,6.9-5.9,14.7-12.3
			C152.3,79.4,161.4,84,164.2,86.1z"/>
		<path fill="#231F20" d="M203.7,64c0,0-16.5,0.8-24.3,6c0,0-6-1.6-6.3-4.1c13.3-5.1,7.1-7.5,7.1-7.5C200.8,60.3,203.7,64,203.7,64z
			"/>
		<path fill="#231F20" d="M137.4,117.2c-5.1,2.8-6.7-3-6.7-3s-7.8,2.3-8.1-3.9c-4.8,0.5-3.8-4.1-3.8-4.1c-3.2,1.6-6.5,3.5-9.9,5.6
			c-9.5,6.2-19.2,14.9-27.5,26.1c-16.1,21.6-24.2,20.7-18.2,22.6c2.5,0.8,8.1-3.4,16.3-9.1c6.5-4.6,14.6-10.1,23.9-14.9
			c4.1-2.1,8.4-4,12.9-5.7c3.5-1.3,7.1-2.4,10.8-3.2c4.3-0.7,12.7-4,20.8-9.1C144.4,120.6,140.8,120,137.4,117.2z M109.3,127.8
			c-7.8,7.1-8.5,4.1-8.5,4.1s-5.9,2.3-9,2.9c-0.9,0.2-1.6,0.2-1.8,0.1c-0.9-0.5,4.6-5.7,7.9-8.3c0,0,0,0,0,0
			c1.2-0.9,2.1-1.5,2.4-1.4c1.2,0.3,0,5.3,0,5.3S117.1,120.6,109.3,127.8z"/>
		<path fill="#4F4F51" d="M155.3,113.2c-2,1.7-4.2,3.3-6.5,4.8c0,0,0,0,0,0c-0.3,0.2-0.5,0.3-0.7,0.5c-3.7,2.2-7.2,1.5-10.7-1.3
			c-5.1,2.8-6.7-3-6.7-3s-7.8,2.3-8-3.9c-4.8,0.5-3.8-4-3.8-4.1c0.4-0.2,0.8-0.4,1.2-0.6c-0.1,1.2,0,4,3.9,3.7c0.2,6.2,8,3.9,8,3.9
			s1.6,5.7,6.7,3c3.4,2.8,7,3.4,10.7,1.3c0.3-0.2,0.5-0.3,0.7-0.5c0,0,0,0,0,0C151.9,115.7,153.7,114.5,155.3,113.2z"/>
		<path fill="#231F20" d="M167,93.9v0.2c0,0.1,0,0.2,0,0.2c0,0.3,0,0.5-0.1,0.7c0,0.4-0.1,0.7-0.1,1.1c0,0.3-0.1,0.6-0.2,0.9
			c-0.5,2.2-1.4,4.4-2.6,6.5c-0.2,0.3-0.4,0.6-0.6,0.9c-0.2,0.3-0.5,0.7-0.7,1c-0.2,0.3-0.4,0.5-0.6,0.8c-1.8,2.4-4,4.6-6.4,6.6
			c-0.1,0.1-0.2,0.2-0.4,0.3c-1.7,1.3-3.4,2.6-5.2,3.7c0,0,0,0,0,0c-0.3,0.2-0.5,0.3-0.7,0.5c-3.7,2.2-7.2,1.5-10.7-1.3
			c-5.1,2.8-6.7-3-6.7-3s-7.8,2.3-8-3.9c-3.4,0.3-3.9-1.8-3.9-3.1c0-0.2,0-0.4,0-0.5c0.4-0.2,0.8-0.4,1.2-0.5
			c0.3-0.1,0.5-0.3,0.8-0.4c4.2-1.8,8.2-3.2,11.9-4.1c13.5-3.2,26.7-12.1,30.2-14.5c0.1-0.1,0.1-0.1,0.2-0.2
			c0.4-0.3,0.6-0.5,0.6-0.5c0.5,1,0.9,2,1.2,3c0.1,0.3,0.2,0.5,0.2,0.7C166.9,90.8,167,92.4,167,93.9z"/>
		<path fill="#FFFFFF" d="M109.3,127.8c-7.8,7.1-8.5,4.1-8.5,4.1s-5.9,2.3-9,2.9c-0.9,0.2-1.6,0.2-1.8,0.1c-0.9-0.5,4.6-5.7,7.9-8.3
			c0,0,0,0,0,0c1.2-0.9,2.1-1.5,2.4-1.4c1.2,0.3,0,5.3,0,5.3S117.1,120.6,109.3,127.8z"/>
		<circle fill="#231F20" cx="167" cy="61" r="3.2"/>
		<path fill="none" d="M170.1,130.1C170.1,130.1,170.2,130.1,170.1,130.1"/>
		<g>
			<g>
				<path fill="#CCB48F" d="M175.8,114.5c2.5-6.1,2-15.5-0.7-16.8c-2-0.9-4.8-0.7-6.7,1.1c1-4.2,5.5-5.2,8.2-3.9
					C179.9,96.5,179.9,109.2,175.8,114.5z"/>
				<path fill="#A68053" d="M175.8,114.5c0,0-0.1,0.1-0.1,0.1c0,0-6.7-5.9-7.5-12.7c-0.1-1.2-0.1-2.2,0.1-3.1c1.8-1.8,4.7-2,6.7-1.1
					C177.9,99,178.3,108.5,175.8,114.5z"/>
			</g>
			<g>
				<path fill="#CCB48F" d="M166.3,118c2.5-6.1,2-15.5-0.7-16.8c-2-0.9-4.8-0.7-6.7,1.1c1-4.2,5.5-5.2,8.2-3.9
					C170.4,99.9,170.4,112.6,166.3,118z"/>
				<path fill="#A68053" d="M166.3,118c0,0-0.1,0.1-0.1,0.1c0,0-6.7-5.9-7.5-12.7c-0.1-1.2-0.1-2.2,0.1-3.1c1.8-1.8,4.7-2,6.7-1.1
					C168.3,102.5,168.8,111.9,166.3,118z"/>
			</g>
			<g>
				<path fill="#CCB48F" d="M177.6,118.5c-1.8-6.3-0.3-15.6,2.6-16.6c2-0.7,4.9-0.1,6.5,1.9c-0.5-4.3-4.9-5.8-7.7-4.8
					C175.6,100.1,174.1,112.7,177.6,118.5z"/>
				<path fill="#A68053" d="M177.6,118.5c0,0,0,0.1,0.1,0.1c0,0,7.3-5.1,8.9-11.8c0.3-1.2,0.3-2.2,0.2-3.1c-1.6-2-4.5-2.6-6.5-1.9
					C177.3,102.9,175.8,112.2,177.6,118.5z"/>
			</g>
			<g>
				<path fill="#CCB48F" d="M176.6,123.8c1.1-6.5-1.3-15.6-4.3-16.3c-2.1-0.5-4.9,0.4-6.3,2.5c0.1-4.4,4.3-6.3,7.2-5.6
					C176.7,105.3,179.4,117.7,176.6,123.8z"/>
				<path fill="#A68053" d="M176.6,123.8c0,0,0,0.1-0.1,0.1c0,0-7.8-4.3-10-10.8c-0.4-1.1-0.5-2.1-0.5-3c1.4-2.2,4.2-3,6.3-2.5
					C175.2,108.3,177.7,117.4,176.6,123.8z"/>
			</g>
			<g>
				<path fill="#CCB48F" d="M153.7,123.1c5-4.2,9.1-12.7,7.3-15.2c-1.3-1.7-3.9-2.9-6.4-2.2c2.9-3.3,7.3-2,9.1,0.4
					C165.8,109.1,159.8,120.3,153.7,123.1z"/>
				<path fill="#A68053" d="M153.7,123.1c0,0-0.1,0-0.1,0.1c0,0-3.1-8.3-0.6-14.7c0.4-1.1,1-2,1.6-2.7c2.5-0.7,5.1,0.4,6.4,2.2
					C162.8,110.4,158.7,118.9,153.7,123.1z"/>
			</g>
			<g>
				<path fill="#CCB48F" d="M162.1,131.2c-3.7-5.4-5.3-14.7-2.9-16.6c1.7-1.3,4.6-1.7,6.8-0.4c-1.9-3.9-6.5-3.9-8.9-2
					C154.2,114.5,156.9,126.9,162.1,131.2z"/>
				<path fill="#A68053" d="M162.1,131.2c0,0,0.1,0.1,0.1,0.1c0,0,5.2-7.2,4.5-14c-0.1-1.2-0.4-2.2-0.8-3c-2.2-1.4-5.1-1-6.8,0.4
					C156.7,116.6,158.4,125.9,162.1,131.2z"/>
			</g>
			<g>
				<path fill="#CCB48F" d="M186,125.7c3.7-5.4,5.3-14.7,2.9-16.6c-1.7-1.3-4.6-1.7-6.8-0.4c1.9-3.9,6.5-3.9,8.9-2
					C193.9,109,191.2,121.4,186,125.7z"/>
				<path fill="#A68053" d="M186,125.7c0,0-0.1,0.1-0.1,0.1c0,0-5.2-7.2-4.5-14c0.1-1.2,0.4-2.2,0.8-3c2.2-1.4,5.1-1,6.8,0.4
					C191.4,111.1,189.7,120.4,186,125.7z"/>
			</g>
			<g>
				<path fill="#CCB48F" d="M181.9,129c-3.7-5.4-5.3-14.7-2.9-16.6c1.7-1.3,4.6-1.7,6.8-0.4c-1.9-3.9-6.5-3.9-8.9-2
					C174,112.3,176.7,124.7,181.9,129z"/>
				<path fill="#A68053" d="M181.9,129c0,0,0.1,0.1,0.1,0.1c0,0,5.2-7.2,4.5-14c-0.1-1.2-0.4-2.2-0.8-3c-2.2-1.4-5.1-1-6.8,0.4
					C176.5,114.4,178.2,123.7,181.9,129z"/>
			</g>
			<g>
				<path fill="#CCB48F" d="M175.8,132.8c-5-4.2-9.1-12.7-7.3-15.2c1.3-1.7,3.9-2.9,6.4-2.2c-2.9-3.3-7.3-2-9.1,0.4
					C163.7,118.7,169.6,130,175.8,132.8z"/>
				<path fill="#A68053" d="M175.8,132.8c0,0,0.1,0,0.1,0.1c0,0,3.1-8.3,0.6-14.7c-0.4-1.1-1-2-1.6-2.7c-2.5-0.7-5.1,0.4-6.4,2.2
					C166.7,120,170.7,128.6,175.8,132.8z"/>
			</g>
		</g>
		<path fill="#231F20" d="M193.2,132.6c-7.2,4.4-25.4,9-23,4.6c0,0-15.2,0.3-14.5-0.7c0.7-1,9.8-5.5,14.5-6.3
			c-1,0.1-12.4,1.4-13.6,0c-1.2-1.5,1.5-4.8,6-4.9c4.4-0.1,7.7-1.4,7.7-1.4s-4.5-0.9-4.2-1.4s1.4-2.4,8.8-3.9c0.9-0.2,1.9-0.4,3-0.6
			c0.3,0,0.6-0.1,0.9-0.2c0.2,0,0.4-0.1,0.5-0.1c0.1,0,0.2,0,0.3-0.1c0.3-0.1,0.7-0.1,1-0.2c2.4-0.4,4.8-0.8,6.9-1.2
			c3.7-0.8,12-3.6,12.5-5.3c1.1-3.5-8.2-10.3-18.3-14.9c10.1,3,22.6,7.2,27,10.8C216.6,113.4,200.4,128.2,193.2,132.6z"/>
		<path fill="#4F4F51" d="M200,110.9c-0.5,1.7-8.9,4.5-12.5,5.3c-2.1,0.5-4.6,0.8-6.9,1.2c-0.3,0.1-0.7,0.1-1,0.2
			c3-0.6,5.1-1.3,6.9-2.1c17.9-6.9-3-18.4-4.8-19.5C191.8,100.6,201.1,107.5,200,110.9z"/>
	</g>
</g>
<g id="memory-ear">
	<g>
		<rect x="26.7" y="21.8" fill="none" width="148" height="84.7"/>
		<path fill="#553278" d="M27.7,38.5V21.8H31v14.4h3.3v2.3H27.7z"/>
		<path fill="#553278" d="M35.2,35.4v-5.1c0-1.3,0.3-2.3,0.9-3c0.6-0.7,1.6-1.1,2.9-1.1c1.3,0,2.3,0.4,2.9,1.1
			c0.6,0.7,0.9,1.7,0.9,3v5.1c0,1-0.4,1.8-1.1,2.5c-0.7,0.6-1.6,1-2.7,1c-0.7,0-1.3-0.1-1.9-0.4c-0.6-0.3-1-0.7-1.4-1.2
			C35.3,36.6,35.2,36,35.2,35.4z M39.6,35.4v-6c0-0.6-0.2-0.9-0.7-0.9c-0.4,0-0.6,0.3-0.6,0.9v6c0,0.1,0,0.2,0,0.3
			c0,0.1,0,0.2,0.1,0.3c0,0.1,0.1,0.2,0.2,0.3c0.1,0.1,0.2,0.1,0.4,0.1C39.4,36.4,39.6,36.1,39.6,35.4z"/>
		<path fill="#553278" d="M44.3,38.5V26.4h3.1v0.9c0.3-0.3,0.7-0.6,1.1-0.8c0.4-0.2,0.9-0.3,1.3-0.3c0.4,0,0.8,0.1,1.1,0.4
			c0.3,0.3,0.6,0.6,0.8,1c0.2,0.4,0.2,0.8,0.2,1.2v9.8h-3.1v-9.2c0-0.5-0.2-0.8-0.5-0.8c0,0-0.1,0-0.1,0c0,0-0.1,0-0.1,0
			c0,0-0.1,0-0.1,0.1c0,0-0.1,0-0.1,0.1c0,0-0.1,0.1-0.1,0.1c0,0-0.1,0.1-0.1,0.1c0,0-0.1,0.1-0.1,0.1c0,0,0,0-0.1,0.1l-0.1,0.1v9.4
			H44.3z"/>
		<path fill="#553278" d="M55.8,35.4c0,0.1,0.1,0.3,0.3,0.4c0.2,0.1,0.5,0.2,0.8,0.2c0.3,0.1,0.7,0.1,1.1,0.2
			c0.4,0.1,0.8,0.2,1.2,0.3c0.4,0.1,0.8,0.2,1.1,0.4c0.3,0.2,0.6,0.4,0.8,0.6c0.2,0.3,0.3,0.6,0.3,1c0,0.5-0.1,1-0.2,1.4
			c-0.2,0.4-0.4,0.7-0.6,0.9c-0.2,0.2-0.6,0.4-0.9,0.6c-0.4,0.1-0.7,0.2-1.1,0.3c-0.4,0.1-0.8,0.1-1.3,0.1c-3,0-4.5-0.7-4.5-2.2
			c0-0.4,0.1-0.9,0.4-1.3c0.2-0.4,0.5-0.8,0.9-1c-0.3-0.1-0.5-0.3-0.7-0.5c-0.2-0.2-0.4-0.3-0.4-0.5c0-0.4,0.4-1.1,1.2-2.1
			c-0.6-1.2-0.9-2.3-0.9-3.5c0-0.6,0.1-1.2,0.2-1.7c0.1-0.5,0.4-1,0.6-1.4c0.3-0.4,0.7-0.8,1.2-1c0.5-0.3,1-0.4,1.7-0.4
			c1,0,1.7,0.3,2.2,0.8c0.5-0.5,1.2-0.8,2.3-0.8H62l-0.3,2.2c-0.6,0-1.1,0.1-1.3,0.4c0.3,0.5,0.4,1.2,0.4,2.1c0,0.6-0.1,1.1-0.2,1.6
			c-0.2,0.5-0.4,0.9-0.7,1.3c-0.3,0.4-0.7,0.7-1.2,0.9c-0.5,0.2-1,0.3-1.6,0.3c-0.1,0-0.3,0-0.4,0c-0.2,0-0.3,0-0.4-0.1l-0.2,0
			C55.9,35.2,55.8,35.3,55.8,35.4z M56.1,37.8h-0.2c-0.3,0.4-0.4,0.8-0.4,1.2c0,0.4,0.7,0.5,2.1,0.5c0,0,0,0,0.1,0
			c0.7,0,1.1-0.2,1.1-0.6c0-0.1,0-0.3-0.1-0.4c-0.1-0.1-0.2-0.2-0.4-0.3C58,38.1,57.8,38,57.7,38c-0.2,0-0.3-0.1-0.6-0.1
			c-0.2,0-0.4,0-0.5-0.1C56.5,37.8,56.3,37.8,56.1,37.8z M57.1,32.7c0.5,0,0.8-0.7,0.8-2.2c0-1.5-0.2-2.2-0.7-2.2
			c-0.1,0-0.2,0-0.3,0.1c-0.1,0.1-0.2,0.2-0.2,0.3c-0.1,0.1-0.1,0.3-0.1,0.4c0,0.1-0.1,0.3-0.1,0.5c0,0.2,0,0.4,0,0.5
			c0,0.1,0,0.3,0,0.5C56.4,32,56.6,32.7,57.1,32.7z"/>
		<path fill="#553278" d="M66.6,34.4v-5.9h-0.9v-2.1h0.9v-4h3.1v4h1.5v2.1h-1.5v6.6c0,0.3,0.1,0.6,0.2,0.7c0.1,0.2,0.3,0.2,0.7,0.2
			c0.4,0,0.7,0,0.9-0.1v2.4c-0.4,0.1-1.1,0.2-2,0.2c-0.4,0-0.7,0-1-0.1c-0.3-0.1-0.5-0.2-0.7-0.3c-0.2-0.1-0.4-0.3-0.5-0.6
			c-0.1-0.2-0.3-0.5-0.3-0.7c-0.1-0.2-0.1-0.5-0.2-0.8c0-0.3-0.1-0.6-0.1-0.9C66.6,35,66.6,34.7,66.6,34.4z"/>
		<path fill="#553278" d="M72.5,35.4v-5.1c0-1.3,0.3-2.3,0.9-3c0.6-0.7,1.5-1.1,2.8-1.1c1.3,0,2.2,0.4,2.8,1.1
			c0.6,0.7,0.9,1.7,0.9,3v2.5h-4.3v2.7c0,0.7,0.2,1,0.6,1c0.4,0,0.6-0.4,0.6-1.1V34h3.1v1.4c0,1-0.4,1.8-1.1,2.5
			c-0.7,0.6-1.6,1-2.6,1s-1.9-0.3-2.6-1C72.8,37.2,72.5,36.4,72.5,35.4z M75.6,31.1h1.2v-1.7c0-0.6-0.2-0.9-0.6-0.9
			c-0.4,0-0.6,0.3-0.6,0.9V31.1z"/>
		<path fill="#553278" d="M81.3,38.5V26.4h3.1v1c0.5-0.8,1-1.2,1.7-1.2c0.2,0,0.5,0,0.8,0.1V29c-0.6-0.1-1-0.1-1.2-0.1
			c-0.4,0-0.8,0.1-1,0.4c-0.2,0.3-0.3,0.6-0.3,1.1v8.1H81.3z"/>
		<path fill="#553278" d="M88,38.5V26.4h3.1v0.9c0.3-0.3,0.6-0.6,1-0.8c0.4-0.2,0.8-0.3,1.2-0.3c0.4,0,0.8,0.1,1.1,0.4
			s0.6,0.6,0.8,1c0.3-0.4,0.7-0.7,1.1-1c0.4-0.2,0.9-0.4,1.4-0.4c0.4,0,0.8,0.1,1.2,0.4c0.3,0.3,0.6,0.6,0.8,1
			c0.2,0.4,0.3,0.8,0.3,1.2v9.8h-3.1v-9.1c0-0.1,0-0.2,0-0.3c0-0.1,0-0.2,0-0.3s-0.1-0.2-0.1-0.3c-0.1-0.1-0.2-0.1-0.3-0.1
			c-0.2,0-0.5,0.2-0.9,0.7v9.3h-3.1v-9.1c0-0.6-0.1-0.9-0.4-0.9c-0.2,0-0.5,0.2-0.9,0.7v9.3H88z"/>
		<path fill="#553278" d="M105.4,38.5V26.4h3.1v0.9c0.3-0.3,0.6-0.6,1-0.8c0.4-0.2,0.8-0.3,1.2-0.3c0.4,0,0.8,0.1,1.1,0.4
			c0.3,0.3,0.6,0.6,0.8,1c0.3-0.4,0.7-0.7,1.1-1c0.4-0.2,0.9-0.4,1.4-0.4c0.4,0,0.8,0.1,1.2,0.4c0.3,0.3,0.6,0.6,0.8,1
			c0.2,0.4,0.3,0.8,0.3,1.2v9.8h-3.1v-9.1c0-0.1,0-0.2,0-0.3c0-0.1,0-0.2,0-0.3c0-0.1-0.1-0.2-0.1-0.3c-0.1-0.1-0.2-0.1-0.3-0.1
			c-0.2,0-0.5,0.2-0.9,0.7v9.3h-3.1v-9.1c0-0.6-0.1-0.9-0.4-0.9c-0.2,0-0.5,0.2-0.9,0.7v9.3H105.4z"/>
		<path fill="#553278" d="M118.9,35.4v-5.1c0-1.3,0.3-2.3,0.9-3c0.6-0.7,1.5-1.1,2.8-1.1c1.3,0,2.2,0.4,2.8,1.1
			c0.6,0.7,0.9,1.7,0.9,3v2.5h-4.3v2.7c0,0.7,0.2,1,0.6,1c0.4,0,0.6-0.4,0.6-1.1V34h3.1v1.4c0,1-0.4,1.8-1.1,2.5
			c-0.7,0.6-1.6,1-2.6,1s-1.9-0.3-2.6-1C119.3,37.2,118.9,36.4,118.9,35.4z M122.1,31.1h1.2v-1.7c0-0.6-0.2-0.9-0.6-0.9
			c-0.4,0-0.6,0.3-0.6,0.9V31.1z"/>
		<path fill="#553278" d="M127.8,38.5V26.4h3.1v0.9c0.3-0.3,0.6-0.6,1-0.8c0.4-0.2,0.8-0.3,1.2-0.3c0.4,0,0.8,0.1,1.1,0.4
			s0.6,0.6,0.8,1c0.3-0.4,0.7-0.7,1.1-1c0.4-0.2,0.9-0.4,1.4-0.4c0.4,0,0.8,0.1,1.2,0.4c0.3,0.3,0.6,0.6,0.8,1
			c0.2,0.4,0.3,0.8,0.3,1.2v9.8h-3.1v-9.1c0-0.1,0-0.2,0-0.3c0-0.1,0-0.2,0-0.3s-0.1-0.2-0.1-0.3c-0.1-0.1-0.2-0.1-0.3-0.1
			c-0.2,0-0.5,0.2-0.9,0.7v9.3h-3.1v-9.1c0-0.6-0.1-0.9-0.4-0.9c-0.2,0-0.5,0.2-0.9,0.7v9.3H127.8z"/>
		<path fill="#553278" d="M141.3,35.4v-5.1c0-1.3,0.3-2.3,0.9-3c0.6-0.7,1.6-1.1,2.9-1.1s2.3,0.4,2.9,1.1c0.6,0.7,0.9,1.7,0.9,3v5.1
			c0,1-0.4,1.8-1.1,2.5c-0.7,0.6-1.6,1-2.7,1c-0.7,0-1.3-0.1-1.9-0.4c-0.6-0.3-1-0.7-1.4-1.2C141.5,36.6,141.3,36,141.3,35.4z
			 M145.8,35.4v-6c0-0.6-0.2-0.9-0.7-0.9c-0.4,0-0.6,0.3-0.6,0.9v6c0,0.1,0,0.2,0,0.3c0,0.1,0,0.2,0.1,0.3c0,0.1,0.1,0.2,0.2,0.3
			c0.1,0.1,0.2,0.1,0.4,0.1C145.6,36.4,145.8,36.1,145.8,35.4z"/>
		<path fill="#553278" d="M150.5,38.5V26.4h3.1v1c0.5-0.8,1-1.2,1.7-1.2c0.2,0,0.5,0,0.8,0.1V29c-0.6-0.1-1-0.1-1.2-0.1
			c-0.4,0-0.8,0.1-1,0.4c-0.2,0.3-0.3,0.6-0.3,1.1v8.1H150.5z"/>
		<path fill="#553278" d="M158.8,37.4c0-0.8-0.2-2-0.5-3.5c-0.3-1.5-0.7-3.1-1.1-4.8c-0.4-1.6-0.7-2.5-0.7-2.7h2.8l1.1,6.8l1-6.8
			h2.9l-2.6,12.4c-0.1,0.4-0.2,0.8-0.4,1.1c-0.2,0.3-0.4,0.6-0.7,0.7c-0.2,0.2-0.5,0.3-0.9,0.4c-0.3,0.1-0.7,0.2-1,0.2
			c-0.3,0-0.7,0.1-1.2,0.1h-0.4v-2.2c0.6,0,1.1-0.2,1.3-0.4C158.6,38.5,158.8,38.1,158.8,37.4z"/>
		<path fill="#FFFFFF" d="M29.5,50.6c-0.4,0-0.7-0.1-1-0.2S28,50.2,27.9,50s-0.3-0.4-0.4-0.7s-0.2-0.6-0.2-0.9s-0.1-0.7-0.1-1.1
			v-2.5c0-0.4,0-0.7,0.1-1.1s0.1-0.6,0.2-0.9s0.3-0.5,0.4-0.7s0.4-0.3,0.7-0.4s0.6-0.2,1-0.2c0.4,0,0.8,0.1,1.1,0.2s0.5,0.3,0.7,0.5
			s0.3,0.5,0.4,0.8s0.1,0.7,0.2,1.1c0,0.1,0,0.2,0,0.3h-1.2v-0.3c0-0.2,0-0.3,0-0.4s0-0.2-0.1-0.4s-0.1-0.2-0.1-0.3
			s-0.1-0.2-0.2-0.2s-0.2-0.1-0.3-0.2s-0.3-0.1-0.4-0.1c-0.2,0-0.4,0-0.5,0.1s-0.3,0.1-0.3,0.3s-0.1,0.2-0.2,0.4s-0.1,0.3-0.1,0.5
			s0,0.4,0,0.6v3.1c0,0.2,0,0.4,0,0.6s0.1,0.3,0.1,0.5s0.1,0.3,0.2,0.4s0.2,0.2,0.3,0.3s0.3,0.1,0.5,0.1s0.3,0,0.5-0.1
			s0.2-0.2,0.3-0.3s0.1-0.3,0.2-0.4s0.1-0.3,0.1-0.5s0-0.4,0-0.6v-0.3h1.2v0.3c0,0.5,0,0.8-0.1,1.2s-0.2,0.6-0.4,0.9
			s-0.4,0.5-0.7,0.6S30,50.6,29.5,50.6z"/>
		<path fill="#FFFFFF" d="M32.6,50.5v-8.8h1.2v8.8H32.6z"/>
		<path fill="#FFFFFF" d="M36.1,50.6c-0.3,0-0.6-0.2-0.9-0.5s-0.4-0.6-0.4-1c0-0.3,0.1-0.6,0.2-0.8s0.2-0.4,0.3-0.6s0.3-0.3,0.6-0.5
			s0.5-0.3,0.6-0.3s0.4-0.2,0.7-0.3c0.1,0,0.1,0,0.1-0.1v-0.4c0-0.3,0-0.6-0.1-0.7s-0.3-0.3-0.5-0.3c-0.2,0-0.4,0.1-0.5,0.2
			s-0.1,0.4-0.2,0.6c0,0,0,0.1,0,0.2h-1.2c0-0.6,0.2-1.1,0.5-1.4s0.8-0.5,1.4-0.5c0.6,0,1,0.2,1.4,0.5s0.5,0.8,0.5,1.4V49
			c0,0.7,0.1,1.2,0.2,1.6h-1.2l-0.2-0.9c-0.1,0.1-0.1,0.2-0.2,0.3s-0.1,0.2-0.2,0.3s-0.2,0.2-0.2,0.2s-0.2,0.1-0.3,0.1
			S36.2,50.6,36.1,50.6z M36.7,49.6c0.1,0,0.2,0,0.3-0.1s0.1-0.1,0.2-0.2s0.1-0.1,0.2-0.2c0,0,0,0,0,0v-1.7c-0.1,0-0.1,0.1-0.3,0.2
			s-0.2,0.1-0.3,0.2s-0.2,0.1-0.3,0.2s-0.2,0.2-0.2,0.2s-0.1,0.2-0.1,0.3s-0.1,0.2-0.1,0.3C36.1,49.3,36.3,49.6,36.7,49.6z"/>
		<path fill="#FFFFFF" d="M39.7,50.5v-6.2h1.2v0.8c0.1-0.2,0.3-0.5,0.6-0.6s0.5-0.3,0.8-0.3c0,0,0.1,0,0.2,0v1.4
			c-0.2-0.1-0.5-0.1-0.7-0.1c-0.3,0-0.5,0.1-0.6,0.2s-0.2,0.4-0.2,0.6v4.2H39.7z"/>
		<path fill="#FFFFFF" d="M43,50.5v-8.8h1.2v4.8l1.6-2.3h1.2l-1.4,2.2l1.4,4.1h-1.2l-0.9-3l-0.6,0.8v2.2H43z"/>
		<path fill="#FFFFFF" d="M48.1,44.3l-0.3-0.6c0.2,0,0.4,0,0.5-0.1s0.1-0.3,0.1-0.5h-0.6v-1.2H49c0,0.5,0,0.9,0,1.2
			c0,0.2,0,0.3,0,0.4s0,0.2-0.1,0.4S48.8,44,48.8,44s-0.2,0.1-0.3,0.2S48.3,44.3,48.1,44.3z"/>
		<path fill="#FFFFFF" d="M51.9,50.6c-0.5,0-0.9-0.2-1.2-0.5S50.1,49.5,50,49l0.9-0.3c0.2,0.6,0.5,0.9,0.9,0.9
			c0.2,0,0.4-0.1,0.5-0.2s0.2-0.3,0.2-0.5c0-0.3-0.1-0.5-0.3-0.7l-1.2-0.9c-0.1-0.1-0.3-0.2-0.4-0.3s-0.2-0.2-0.3-0.3
			s-0.2-0.3-0.2-0.4S50,46,50,45.8c0-0.5,0.2-0.9,0.5-1.2s0.8-0.4,1.4-0.4c0.3,0,0.5,0,0.7,0.1s0.4,0.2,0.5,0.4s0.3,0.3,0.4,0.5
			s0.2,0.4,0.2,0.6l-0.9,0.3c0-0.1-0.1-0.2-0.1-0.3s-0.1-0.2-0.2-0.3s-0.2-0.2-0.3-0.2s-0.2-0.1-0.3-0.1c-0.2,0-0.4,0.1-0.5,0.2
			s-0.2,0.3-0.2,0.5c0,0.2,0.1,0.4,0.3,0.5l1.2,0.9c0.1,0.1,0.3,0.2,0.4,0.3s0.2,0.2,0.3,0.4s0.2,0.3,0.2,0.5s0.1,0.3,0.1,0.5
			c0,0.5-0.2,0.9-0.5,1.2S52.5,50.6,51.9,50.6z"/>
		<path fill="#FFFFFF" d="M56.6,50.5v-6.2h1.2v0.7c0.2-0.2,0.3-0.3,0.5-0.4s0.3-0.2,0.5-0.3s0.4-0.1,0.7-0.1c0.3,0,0.5,0.1,0.6,0.3
			s0.2,0.4,0.2,0.7v5.3h-1.2v-4.7c0-0.2,0-0.4-0.1-0.5s-0.2-0.1-0.4-0.1c-0.1,0-0.2,0-0.3,0.1s-0.2,0.1-0.2,0.1s-0.1,0.1-0.2,0.2
			v4.9H56.6z"/>
		<path fill="#FFFFFF" d="M62.3,50.6c-0.3,0-0.5-0.1-0.7-0.3s-0.2-0.4-0.2-0.7v-5.3h1.2v4.9c0,0.1,0,0.2,0.1,0.3s0.2,0.1,0.3,0.1
			c0.1,0,0.1,0,0.2,0s0.1,0,0.2-0.1s0.1-0.1,0.1-0.1s0.1-0.1,0.2-0.1s0.1-0.1,0.1-0.1v-4.9h1.2v6.2h-1.2v-0.7
			c-0.1,0.1-0.2,0.2-0.3,0.2s-0.1,0.1-0.3,0.2s-0.2,0.1-0.3,0.2s-0.2,0.1-0.3,0.1S62.4,50.6,62.3,50.6z"/>
		<path fill="#FFFFFF" d="M67.9,50.6c-0.5,0-0.8-0.1-1.1-0.4s-0.3-0.6-0.3-1.1v-3.9h-0.6v-0.9h0.6v-2.2h1.2v2.2h0.9v0.9h-0.9v3.6
			c0,0.3,0,0.4,0.1,0.6s0.2,0.2,0.4,0.2c0.1,0,0.2,0,0.4,0v1C68.4,50.6,68.1,50.6,67.9,50.6z"/>
		<path fill="#FFFFFF" d="M71.2,50.6c-0.3,0-0.6-0.1-0.8-0.2s-0.4-0.2-0.5-0.4s-0.2-0.4-0.3-0.6s-0.1-0.5-0.2-0.8s0-0.5-0.1-0.9
			c0-0.3,0-0.5,0-0.8c0-0.3,0-0.6,0.1-0.9s0.1-0.5,0.2-0.8s0.2-0.5,0.3-0.6s0.3-0.3,0.5-0.4s0.5-0.2,0.8-0.2c0.7,0,1.1,0.2,1.4,0.5
			s0.4,0.9,0.5,1.6v0.2h-1.2v-0.2c0-0.2,0-0.3,0-0.4s0-0.2-0.1-0.4s-0.1-0.2-0.2-0.3s-0.2-0.1-0.3-0.1s-0.2,0-0.3,0.1
			s-0.1,0.2-0.2,0.3s-0.1,0.3-0.1,0.4s0,0.3,0,0.5c0,0.4,0,1,0,1.8c0,0.2,0,0.3,0,0.5s0.1,0.3,0.1,0.4s0.1,0.2,0.2,0.3
			s0.2,0.1,0.3,0.1c0.1,0,0.2,0,0.3-0.1s0.1-0.1,0.2-0.2s0.1-0.1,0.1-0.2s0-0.2,0-0.3s0-0.2,0-0.3v-0.2H73v0.2
			c0,0.3-0.1,0.6-0.1,0.9s-0.2,0.5-0.3,0.7s-0.3,0.3-0.6,0.4S71.5,50.6,71.2,50.6z"/>
		<path fill="#FFFFFF" d="M73.8,50.5v-6.2h1.2v0.8c0.1-0.2,0.3-0.5,0.6-0.6s0.5-0.3,0.8-0.3c0,0,0.1,0,0.2,0v1.4
			c-0.2-0.1-0.5-0.1-0.7-0.1c-0.3,0-0.5,0.1-0.6,0.2s-0.2,0.4-0.2,0.6v4.2H73.8z"/>
		<path fill="#FFFFFF" d="M78.3,50.6c-0.3,0-0.6-0.2-0.9-0.5s-0.4-0.6-0.4-1c0-0.3,0.1-0.6,0.2-0.8s0.2-0.4,0.3-0.6s0.3-0.3,0.6-0.5
			s0.5-0.3,0.6-0.3s0.4-0.2,0.7-0.3c0.1,0,0.1,0,0.1-0.1v-0.4c0-0.3,0-0.6-0.1-0.7s-0.3-0.3-0.5-0.3c-0.2,0-0.4,0.1-0.5,0.2
			s-0.1,0.4-0.2,0.6c0,0,0,0.1,0,0.2H77c0-0.6,0.2-1.1,0.5-1.4s0.8-0.5,1.4-0.5c0.6,0,1,0.2,1.4,0.5s0.5,0.8,0.5,1.4V49
			c0,0.7,0.1,1.2,0.2,1.6h-1.2l-0.2-0.9c-0.1,0.1-0.1,0.2-0.2,0.3s-0.1,0.2-0.2,0.3S79,50.3,79,50.4s-0.2,0.1-0.3,0.1
			S78.4,50.6,78.3,50.6z M78.9,49.6c0.1,0,0.2,0,0.3-0.1s0.1-0.1,0.2-0.2s0.1-0.1,0.2-0.2c0,0,0,0,0,0v-1.7c-0.1,0-0.1,0.1-0.3,0.2
			s-0.2,0.1-0.3,0.2s-0.2,0.1-0.3,0.2s-0.2,0.2-0.2,0.2s-0.1,0.2-0.1,0.3s-0.1,0.2-0.1,0.3C78.3,49.3,78.5,49.6,78.9,49.6z"/>
		<path fill="#FFFFFF" d="M83.4,50.6c-0.3,0-0.6-0.1-0.8-0.2s-0.4-0.2-0.5-0.4s-0.2-0.4-0.3-0.6s-0.1-0.5-0.2-0.8s0-0.5-0.1-0.9
			c0-0.3,0-0.5,0-0.8c0-0.3,0-0.6,0.1-0.9s0.1-0.5,0.2-0.8s0.2-0.5,0.3-0.6s0.3-0.3,0.5-0.4s0.5-0.2,0.8-0.2c0.7,0,1.1,0.2,1.4,0.5
			c0.3,0.4,0.4,0.9,0.5,1.6v0.2H84v-0.2c0-0.2,0-0.3,0-0.4c0-0.1,0-0.2-0.1-0.4c0-0.1-0.1-0.2-0.2-0.3c-0.1-0.1-0.2-0.1-0.3-0.1
			c-0.1,0-0.2,0-0.3,0.1c-0.1,0.1-0.1,0.2-0.2,0.3s-0.1,0.3-0.1,0.4s0,0.3,0,0.5c0,0.4,0,1,0,1.8c0,0.2,0,0.3,0,0.5s0.1,0.3,0.1,0.4
			s0.1,0.2,0.2,0.3c0.1,0.1,0.2,0.1,0.3,0.1c0.1,0,0.2,0,0.3-0.1c0.1,0,0.1-0.1,0.2-0.2c0-0.1,0.1-0.1,0.1-0.2s0-0.2,0-0.3
			c0-0.1,0-0.2,0-0.3v-0.2h1.2v0.2c0,0.3,0,0.6-0.1,0.9c-0.1,0.3-0.2,0.5-0.3,0.7c-0.1,0.2-0.3,0.3-0.6,0.4S83.7,50.6,83.4,50.6z"/>
		<path fill="#FFFFFF" d="M86.1,50.5v-8.8h1.2v4.8l1.6-2.3h1.2l-1.4,2.2l1.4,4.1h-1.2l-0.9-3l-0.6,0.8v2.2H86.1z"/>
		<path fill="#FFFFFF" d="M92.4,50.6c-0.3,0-0.6-0.1-0.8-0.2c-0.2-0.1-0.4-0.2-0.5-0.4s-0.2-0.4-0.3-0.6c-0.1-0.3-0.1-0.5-0.2-0.8
			c0-0.3,0-0.6-0.1-0.9c0-0.3,0-0.5,0-0.8c0-0.3,0-0.6,0.1-0.9s0.1-0.5,0.2-0.7c0.1-0.2,0.2-0.4,0.3-0.6c0.1-0.2,0.3-0.3,0.5-0.4
			s0.5-0.1,0.8-0.1c0.3,0,0.5,0,0.7,0.1c0.2,0.1,0.4,0.2,0.5,0.3c0.1,0.1,0.2,0.3,0.3,0.5c0.1,0.2,0.2,0.4,0.2,0.6
			c0,0.2,0.1,0.5,0.1,0.7c0,0.2,0,0.5,0,0.8v0.1h-2.5v0.3c0,0,0,0.1,0,0.2c0,0.1,0,0.2,0,0.4s0,0.3,0,0.4c0,0.1,0,0.2,0.1,0.4
			s0.1,0.2,0.1,0.3c0,0.1,0.1,0.2,0.2,0.2c0.1,0,0.2,0.1,0.3,0.1c0.1,0,0.2,0,0.3-0.1c0.1-0.1,0.1-0.1,0.2-0.2
			c0-0.1,0.1-0.2,0.1-0.3c0-0.1,0-0.2,0-0.4v-0.3h1.2v0.2c0,0.7-0.2,1.2-0.5,1.5C93.5,50.4,93.1,50.6,92.4,50.6z M91.8,46.8h1.2
			v-0.4c0-0.2,0-0.3,0-0.4c0-0.1,0-0.2-0.1-0.4c0-0.1-0.1-0.2-0.2-0.3c-0.1-0.1-0.2-0.1-0.3-0.1c-0.1,0-0.2,0-0.3,0.1
			c-0.1,0.1-0.2,0.2-0.2,0.3c0,0.1-0.1,0.3-0.1,0.4c0,0.1,0,0.3,0,0.4V46.8z"/>
		<path fill="#FFFFFF" d="M95.2,50.5v-6.2h1.2v0.8c0.1-0.2,0.3-0.5,0.6-0.6c0.2-0.2,0.5-0.3,0.8-0.3c0,0,0.1,0,0.2,0v1.4
			c-0.2-0.1-0.5-0.1-0.7-0.1c-0.3,0-0.5,0.1-0.6,0.2c-0.2,0.2-0.2,0.4-0.2,0.6v4.2H95.2z"/>
		<path fill="#FFFFFF" d="M100.3,50.6c-0.5,0-0.9-0.2-1.2-0.5c-0.3-0.3-0.5-0.7-0.6-1.2l0.9-0.3c0.2,0.6,0.5,0.9,0.9,0.9
			c0.2,0,0.4-0.1,0.5-0.2c0.1-0.1,0.2-0.3,0.2-0.5c0-0.3-0.1-0.5-0.3-0.7l-1.2-0.9c-0.1-0.1-0.3-0.2-0.4-0.3
			c-0.1-0.1-0.2-0.2-0.3-0.3s-0.2-0.3-0.2-0.4c-0.1-0.1-0.1-0.3-0.1-0.5c0-0.5,0.2-0.9,0.5-1.2c0.3-0.3,0.8-0.4,1.4-0.4
			c0.3,0,0.5,0,0.7,0.1c0.2,0.1,0.4,0.2,0.5,0.4c0.1,0.2,0.3,0.3,0.4,0.5c0.1,0.2,0.2,0.4,0.2,0.6l-0.9,0.3c0-0.1-0.1-0.2-0.1-0.3
			c0-0.1-0.1-0.2-0.2-0.3c-0.1-0.1-0.2-0.2-0.3-0.2c-0.1-0.1-0.2-0.1-0.3-0.1c-0.2,0-0.4,0.1-0.5,0.2c-0.1,0.1-0.2,0.3-0.2,0.5
			c0,0.2,0.1,0.4,0.3,0.5l1.2,0.9c0.1,0.1,0.3,0.2,0.4,0.3c0.1,0.1,0.2,0.2,0.3,0.4c0.1,0.1,0.2,0.3,0.2,0.5s0.1,0.3,0.1,0.5
			c0,0.5-0.2,0.9-0.5,1.2C101.3,50.5,100.8,50.6,100.3,50.6z"/>
		<path fill="#FFFFFF" d="M104.9,50.5v-6.2h1.2v0.8c0.1-0.2,0.3-0.5,0.6-0.6c0.2-0.2,0.5-0.3,0.8-0.3c0,0,0.1,0,0.2,0v1.4
			c-0.2-0.1-0.5-0.1-0.7-0.1c-0.3,0-0.5,0.1-0.6,0.2c-0.2,0.2-0.2,0.4-0.2,0.6v4.2H104.9z"/>
		<path fill="#FFFFFF" d="M110,50.6c-0.3,0-0.6-0.1-0.8-0.2c-0.2-0.1-0.4-0.2-0.5-0.4s-0.2-0.4-0.3-0.6c-0.1-0.3-0.1-0.5-0.2-0.8
			c0-0.3,0-0.6-0.1-0.9c0-0.3,0-0.5,0-0.8c0-0.3,0-0.6,0.1-0.9s0.1-0.5,0.2-0.7c0.1-0.2,0.2-0.4,0.3-0.6c0.1-0.2,0.3-0.3,0.5-0.4
			s0.5-0.1,0.8-0.1c0.3,0,0.5,0,0.7,0.1c0.2,0.1,0.4,0.2,0.5,0.3c0.1,0.1,0.2,0.3,0.3,0.5c0.1,0.2,0.2,0.4,0.2,0.6
			c0,0.2,0.1,0.5,0.1,0.7c0,0.2,0,0.5,0,0.8v0.1h-2.5v0.3c0,0,0,0.1,0,0.2c0,0.1,0,0.2,0,0.4s0,0.3,0,0.4c0,0.1,0,0.2,0.1,0.4
			s0.1,0.2,0.1,0.3c0,0.1,0.1,0.2,0.2,0.2c0.1,0,0.2,0.1,0.3,0.1c0.1,0,0.2,0,0.3-0.1c0.1-0.1,0.1-0.1,0.2-0.2
			c0-0.1,0.1-0.2,0.1-0.3c0-0.1,0-0.2,0-0.4v-0.3h1.2v0.2c0,0.7-0.2,1.2-0.5,1.5C111.1,50.4,110.7,50.6,110,50.6z M109.4,46.8h1.2
			v-0.4c0-0.2,0-0.3,0-0.4c0-0.1,0-0.2-0.1-0.4c0-0.1-0.1-0.2-0.2-0.3c-0.1-0.1-0.2-0.1-0.3-0.1c-0.1,0-0.2,0-0.3,0.1
			c-0.1,0.1-0.2,0.2-0.2,0.3c0,0.1-0.1,0.3-0.1,0.4c0,0.1,0,0.3,0,0.4V46.8z"/>
		<path fill="#FFFFFF" d="M112.8,50.5v-6.2h1.2V45c0.4-0.5,1-0.8,1.6-0.8c0.3,0,0.5,0.1,0.7,0.2c0.1,0.1,0.2,0.3,0.3,0.6
			c0.2-0.3,0.4-0.5,0.7-0.6c0.2-0.1,0.5-0.2,0.9-0.2c0.1,0,0.2,0,0.3,0s0.2,0,0.2,0.1c0.1,0,0.1,0.1,0.2,0.1c0,0.1,0.1,0.1,0.1,0.2
			c0,0.1,0.1,0.1,0.1,0.2c0,0.1,0,0.2,0,0.2s0,0.2,0,0.3c0,0.1,0,0.2,0,0.3s0,0.2,0,0.3c0,0,0,0.1,0,0.1v4.5h-1.2V46c0,0,0,0,0-0.1
			c0-0.1,0-0.2,0-0.2c0-0.1,0-0.1,0-0.2c0-0.1,0-0.1-0.1-0.2c0,0-0.1-0.1-0.2-0.1c-0.1,0-0.3,0-0.4,0.1s-0.2,0.1-0.3,0.1
			c-0.1,0-0.2,0.1-0.3,0.2v4.9h-1.2V46c0,0,0,0,0-0.1c0-0.1,0-0.2,0-0.2s0-0.1,0-0.2c0-0.1,0-0.1,0-0.2s0-0.1-0.1-0.1
			c0,0-0.1,0-0.2,0c-0.3,0-0.6,0.1-0.9,0.4v4.9H112.8z"/>
		<path fill="#FFFFFF" d="M121.9,50.6c-0.3,0-0.6-0.1-0.8-0.2c-0.2-0.1-0.4-0.2-0.5-0.4s-0.2-0.4-0.3-0.6c-0.1-0.3-0.1-0.5-0.2-0.8
			c0-0.3,0-0.6-0.1-0.9c0-0.3,0-0.5,0-0.8c0-0.3,0-0.6,0.1-0.9s0.1-0.5,0.2-0.7c0.1-0.2,0.2-0.4,0.3-0.6c0.1-0.2,0.3-0.3,0.5-0.4
			s0.5-0.1,0.8-0.1c0.3,0,0.5,0,0.7,0.1c0.2,0.1,0.4,0.2,0.5,0.3c0.1,0.1,0.2,0.3,0.3,0.5c0.1,0.2,0.2,0.4,0.2,0.6
			c0,0.2,0.1,0.5,0.1,0.7c0,0.2,0,0.5,0,0.8v0.1h-2.5v0.3c0,0,0,0.1,0,0.2c0,0.1,0,0.2,0,0.4s0,0.3,0,0.4c0,0.1,0,0.2,0.1,0.4
			s0.1,0.2,0.1,0.3c0,0.1,0.1,0.2,0.2,0.2c0.1,0,0.2,0.1,0.3,0.1c0.1,0,0.2,0,0.3-0.1c0.1-0.1,0.1-0.1,0.2-0.2
			c0-0.1,0.1-0.2,0.1-0.3c0-0.1,0-0.2,0-0.4v-0.3h1.2v0.2c0,0.7-0.2,1.2-0.5,1.5C123,50.4,122.6,50.6,121.9,50.6z M121.3,46.8h1.2
			v-0.4c0-0.2,0-0.3,0-0.4c0-0.1,0-0.2-0.1-0.4c0-0.1-0.1-0.2-0.2-0.3c-0.1-0.1-0.2-0.1-0.3-0.1c-0.1,0-0.2,0-0.3,0.1
			c-0.1,0.1-0.2,0.2-0.2,0.3c0,0.1-0.1,0.3-0.1,0.4c0,0.1,0,0.3,0,0.4V46.8z"/>
		<path fill="#FFFFFF" d="M124.7,50.5v-6.2h1.2V45c0.4-0.5,1-0.8,1.6-0.8c0.3,0,0.5,0.1,0.7,0.2c0.1,0.1,0.2,0.3,0.3,0.6
			c0.2-0.3,0.4-0.5,0.7-0.6c0.2-0.1,0.5-0.2,0.9-0.2c0.1,0,0.2,0,0.3,0s0.2,0,0.2,0.1c0.1,0,0.1,0.1,0.2,0.1c0,0.1,0.1,0.1,0.1,0.2
			c0,0.1,0.1,0.1,0.1,0.2c0,0.1,0,0.2,0,0.2s0,0.2,0,0.3c0,0.1,0,0.2,0,0.3s0,0.2,0,0.3c0,0,0,0.1,0,0.1v4.5h-1.2V46c0,0,0,0,0-0.1
			c0-0.1,0-0.2,0-0.2c0-0.1,0-0.1,0-0.2c0-0.1,0-0.1-0.1-0.2c0,0-0.1-0.1-0.2-0.1c-0.1,0-0.3,0-0.4,0.1s-0.2,0.1-0.3,0.1
			c-0.1,0-0.2,0.1-0.3,0.2v4.9h-1.3V46c0,0,0,0,0-0.1c0-0.1,0-0.2,0-0.2s0-0.1,0-0.2c0-0.1,0-0.1,0-0.2s0-0.1-0.1-0.1
			c0,0-0.1,0-0.2,0c-0.3,0-0.6,0.1-0.9,0.4v4.9H124.7z"/>
		<path fill="#FFFFFF" d="M134.6,50.6c-0.3,0-0.5-0.1-0.7-0.2s-0.4-0.3-0.6-0.5v0.6h-1.2v-8.7h1.2v3.1c0.1-0.1,0.2-0.2,0.3-0.3
			s0.1-0.1,0.3-0.2s0.2-0.1,0.3-0.2c0.1,0,0.3-0.1,0.4-0.1c0.2,0,0.4,0,0.6,0.1s0.3,0.2,0.4,0.3s0.2,0.3,0.3,0.5
			c0.1,0.2,0.1,0.4,0.2,0.5c0,0.2,0.1,0.4,0.1,0.7s0,0.5,0,0.7c0,0.2,0,0.4,0,0.7v0.1c0,0.3,0,0.5,0,0.8c0,0.3-0.1,0.5-0.2,0.8
			s-0.2,0.5-0.3,0.7s-0.3,0.3-0.4,0.5C135,50.6,134.8,50.6,134.6,50.6z M134.3,49.6c0.1,0,0.2,0,0.3-0.1c0.1-0.1,0.2-0.2,0.2-0.4
			c0-0.2,0.1-0.4,0.1-0.5s0-0.4,0-0.6c0-0.2,0-0.4,0-0.7c0-0.3,0-0.5,0-0.7s0-0.3,0-0.4c0-0.1,0-0.2,0-0.3c0-0.1-0.1-0.2-0.1-0.3
			s-0.1-0.1-0.2-0.2s-0.2-0.1-0.3-0.1c-0.3,0-0.7,0.1-0.9,0.2v3.9C133.6,49.5,133.9,49.6,134.3,49.6z"/>
		<path fill="#FFFFFF" d="M138.9,50.6c-0.3,0-0.6-0.1-0.8-0.2c-0.2-0.1-0.4-0.2-0.5-0.4s-0.2-0.4-0.3-0.6c-0.1-0.3-0.1-0.5-0.2-0.8
			c0-0.3,0-0.6-0.1-0.9c0-0.3,0-0.5,0-0.8c0-0.3,0-0.6,0.1-0.9s0.1-0.5,0.2-0.7c0.1-0.2,0.2-0.4,0.3-0.6c0.1-0.2,0.3-0.3,0.5-0.4
			s0.5-0.1,0.8-0.1c0.3,0,0.5,0,0.7,0.1c0.2,0.1,0.4,0.2,0.5,0.3c0.1,0.1,0.2,0.3,0.3,0.5c0.1,0.2,0.2,0.4,0.2,0.6
			c0,0.2,0.1,0.5,0.1,0.7c0,0.2,0,0.5,0,0.8v0.1h-2.5v0.3c0,0,0,0.1,0,0.2c0,0.1,0,0.2,0,0.4s0,0.3,0,0.4c0,0.1,0,0.2,0.1,0.4
			s0.1,0.2,0.1,0.3c0,0.1,0.1,0.2,0.2,0.2c0.1,0,0.2,0.1,0.3,0.1c0.1,0,0.2,0,0.3-0.1c0.1-0.1,0.1-0.1,0.2-0.2
			c0-0.1,0.1-0.2,0.1-0.3c0-0.1,0-0.2,0-0.4v-0.3h1.2v0.2c0,0.7-0.2,1.2-0.5,1.5C140,50.4,139.5,50.6,138.9,50.6z M138.3,46.8h1.2
			v-0.4c0-0.2,0-0.3,0-0.4c0-0.1,0-0.2-0.1-0.4c0-0.1-0.1-0.2-0.2-0.3c-0.1-0.1-0.2-0.1-0.3-0.1c-0.1,0-0.2,0-0.3,0.1
			c-0.1,0.1-0.2,0.2-0.2,0.3c0,0.1-0.1,0.3-0.1,0.4c0,0.1,0,0.3,0,0.4V46.8z"/>
		<path fill="#FFFFFF" d="M141.7,50.5v-6.2h1.2v0.8c0.1-0.2,0.3-0.5,0.6-0.6c0.2-0.2,0.5-0.3,0.8-0.3c0,0,0.1,0,0.2,0v1.4
			c-0.2-0.1-0.5-0.1-0.7-0.1c-0.3,0-0.5,0.1-0.6,0.2c-0.2,0.2-0.2,0.4-0.2,0.6v4.2H141.7z"/>
		<path fill="#FFFFFF" d="M147.4,50.5v-5.3h-0.6v-0.9h0.6V44c0-0.3,0-0.5,0-0.7s0.1-0.4,0.1-0.5c0.1-0.2,0.1-0.3,0.2-0.4
			s0.2-0.2,0.4-0.2s0.4-0.1,0.6-0.1c0.2,0,0.5,0,0.8,0.1v0.9c0,0-0.1,0-0.2,0c-0.1,0-0.2,0-0.2,0c-0.2,0-0.3,0.1-0.4,0.2
			s-0.1,0.3-0.1,0.6v0.5h0.9v0.9h-0.9v5.3H147.4z"/>
		<path fill="#FFFFFF" d="M153.4,50c-0.3,0.4-0.8,0.6-1.4,0.6c-0.7,0-1.2-0.2-1.4-0.6c-0.3-0.4-0.4-1-0.4-1.7v-1.9
			c0-0.7,0.1-1.3,0.4-1.7c0.3-0.4,0.8-0.6,1.4-0.6c0.7,0,1.2,0.2,1.4,0.6c0.3,0.4,0.4,1,0.4,1.7v1.9C153.8,49.1,153.7,49.6,153.4,50
			z M151.7,49.5c0.1,0,0.1,0,0.2,0s0.2,0,0.2,0c0.1,0,0.1-0.1,0.2-0.1s0.1-0.1,0.1-0.2s0.1-0.1,0.1-0.2c0-0.1,0-0.1,0-0.2
			c0-0.1,0-0.2,0-0.2c0-0.1,0-0.2,0-0.3v-1.9c0-0.1,0-0.2,0-0.3c0-0.1,0-0.1,0-0.2c0-0.1,0-0.2,0-0.2c0-0.1,0-0.1-0.1-0.2
			s-0.1-0.1-0.1-0.2s-0.1-0.1-0.2-0.1c-0.1,0-0.1,0-0.2,0s-0.2,0-0.2,0c-0.1,0-0.1,0.1-0.2,0.1s-0.1,0.1-0.1,0.2s-0.1,0.1-0.1,0.2
			c0,0.1,0,0.1,0,0.2c0,0.1,0,0.2,0,0.2c0,0.1,0,0.2,0,0.3v1.9c0,0.1,0,0.2,0,0.3c0,0.1,0,0.1,0,0.2c0,0.1,0,0.2,0,0.2
			c0,0.1,0,0.1,0.1,0.2s0.1,0.1,0.1,0.2S151.6,49.5,151.7,49.5z"/>
		<path fill="#FFFFFF" d="M154.8,50.5v-6.2h1.2v0.8c0.1-0.2,0.3-0.5,0.6-0.6c0.2-0.2,0.5-0.3,0.8-0.3c0,0,0.1,0,0.2,0v1.4
			c-0.2-0.1-0.5-0.1-0.7-0.1c-0.3,0-0.5,0.1-0.6,0.2c-0.2,0.2-0.2,0.4-0.2,0.6v4.2H154.8z"/>
		<path fill="#FFFFFF" d="M28.3,62.6c-0.3,0-0.6-0.2-0.9-0.5s-0.4-0.6-0.4-1c0-0.3,0.1-0.6,0.2-0.8s0.2-0.4,0.3-0.6s0.3-0.3,0.6-0.5
			s0.5-0.3,0.6-0.3s0.4-0.2,0.7-0.3c0.1,0,0.1,0,0.1-0.1v-0.4c0-0.3,0-0.6-0.1-0.7s-0.3-0.3-0.5-0.3c-0.2,0-0.4,0.1-0.5,0.2
			s-0.1,0.4-0.2,0.6c0,0,0,0.1,0,0.2h-1.2c0-0.6,0.2-1.1,0.5-1.4s0.8-0.5,1.4-0.5c0.6,0,1,0.2,1.4,0.5s0.5,0.8,0.5,1.4V61
			c0,0.7,0.1,1.2,0.2,1.6h-1.2l-0.2-0.9c-0.1,0.1-0.1,0.2-0.2,0.3s-0.1,0.2-0.2,0.3s-0.2,0.2-0.2,0.2s-0.2,0.1-0.3,0.1
			S28.5,62.6,28.3,62.6z M28.9,61.6c0.1,0,0.2,0,0.3-0.1s0.1-0.1,0.2-0.2s0.1-0.1,0.2-0.2c0,0,0,0,0,0v-1.7c-0.1,0-0.1,0.1-0.3,0.2
			s-0.2,0.1-0.3,0.2s-0.2,0.1-0.3,0.2s-0.2,0.2-0.2,0.2s-0.1,0.2-0.1,0.3s-0.1,0.2-0.1,0.3C28.3,61.3,28.5,61.6,28.9,61.6z"/>
		<path fill="#FFFFFF" d="M33.5,62.6c-0.5,0-0.8-0.1-1.1-0.4S32,61.6,32,61.1v-3.9h-0.6v-0.9H32v-2.2h1.2v2.2h0.9v0.9h-0.9v3.6
			c0,0.3,0,0.4,0.1,0.6s0.2,0.2,0.4,0.2c0.1,0,0.2,0,0.4,0v1C33.9,62.6,33.7,62.6,33.5,62.6z"/>
		<path fill="#FFFFFF" d="M37.2,62.5v-8.8h1.2v8.8H37.2z"/>
		<path fill="#FFFFFF" d="M41.3,62.6c-0.3,0-0.6-0.1-0.8-0.2S40.1,62.2,40,62s-0.2-0.4-0.3-0.6s-0.1-0.5-0.2-0.8s0-0.6-0.1-0.9
			c0-0.3,0-0.5,0-0.8c0-0.3,0-0.6,0.1-0.9s0.1-0.5,0.2-0.7s0.2-0.4,0.3-0.6s0.3-0.3,0.5-0.4s0.5-0.1,0.8-0.1c0.3,0,0.5,0,0.7,0.1
			s0.4,0.2,0.5,0.3s0.2,0.3,0.3,0.5s0.2,0.4,0.2,0.6s0.1,0.5,0.1,0.7s0,0.5,0,0.8v0.1h-2.5v0.3c0,0,0,0.1,0,0.2c0,0.1,0,0.2,0,0.4
			s0,0.3,0,0.4s0,0.2,0.1,0.4s0.1,0.2,0.1,0.3s0.1,0.2,0.2,0.2s0.2,0.1,0.3,0.1c0.1,0,0.2,0,0.3-0.1s0.1-0.1,0.2-0.2
			s0.1-0.2,0.1-0.3s0-0.2,0-0.4v-0.3h1.2v0.2c0,0.7-0.2,1.2-0.5,1.5S41.9,62.6,41.3,62.6z M40.7,58.8h1.2v-0.4c0-0.2,0-0.3,0-0.4
			s0-0.2-0.1-0.4s-0.1-0.2-0.2-0.3s-0.2-0.1-0.3-0.1c-0.1,0-0.2,0-0.3,0.1s-0.1,0.2-0.2,0.3s-0.1,0.3-0.1,0.4s0,0.3,0,0.4V58.8z"/>
		<path fill="#FFFFFF" d="M45.2,62.6c-0.3,0-0.6-0.2-0.9-0.5s-0.4-0.6-0.4-1c0-0.3,0.1-0.6,0.2-0.8s0.2-0.4,0.3-0.6s0.3-0.3,0.6-0.5
			s0.5-0.3,0.6-0.3s0.4-0.2,0.7-0.3c0.1,0,0.1,0,0.1-0.1v-0.4c0-0.3,0-0.6-0.1-0.7s-0.3-0.3-0.5-0.3c-0.2,0-0.4,0.1-0.5,0.2
			s-0.1,0.4-0.2,0.6c0,0,0,0.1,0,0.2h-1.2c0-0.6,0.2-1.1,0.5-1.4s0.8-0.5,1.4-0.5c0.6,0,1,0.2,1.4,0.5s0.5,0.8,0.5,1.4V61
			c0,0.7,0.1,1.2,0.2,1.6h-1.2l-0.2-0.9c-0.1,0.1-0.1,0.2-0.2,0.3s-0.1,0.2-0.2,0.3s-0.2,0.2-0.2,0.2s-0.2,0.1-0.3,0.1
			S45.3,62.6,45.2,62.6z M45.8,61.6c0.1,0,0.2,0,0.3-0.1s0.1-0.1,0.2-0.2s0.1-0.1,0.2-0.2c0,0,0,0,0,0v-1.7c-0.1,0-0.1,0.1-0.3,0.2
			s-0.2,0.1-0.3,0.2s-0.2,0.1-0.3,0.2s-0.2,0.2-0.2,0.2s-0.1,0.2-0.1,0.3s-0.1,0.2-0.1,0.3C45.2,61.3,45.4,61.6,45.8,61.6z"/>
		<path fill="#FFFFFF" d="M50.4,62.6c-0.5,0-0.9-0.2-1.2-0.5s-0.5-0.7-0.6-1.2l0.9-0.3c0.2,0.6,0.5,0.9,0.9,0.9
			c0.2,0,0.4-0.1,0.5-0.2S51,61.2,51,61c0-0.3-0.1-0.5-0.3-0.7l-1.2-0.9c-0.1-0.1-0.3-0.2-0.4-0.3s-0.2-0.2-0.3-0.3
			s-0.2-0.3-0.2-0.4s-0.1-0.3-0.1-0.5c0-0.5,0.2-0.9,0.5-1.2s0.8-0.4,1.4-0.4c0.3,0,0.5,0,0.7,0.1s0.4,0.2,0.5,0.4s0.3,0.3,0.4,0.5
			s0.2,0.4,0.2,0.6l-0.9,0.3c0-0.1-0.1-0.2-0.1-0.3s-0.1-0.2-0.2-0.3s-0.2-0.2-0.3-0.2s-0.2-0.1-0.3-0.1c-0.2,0-0.4,0.1-0.5,0.2
			s-0.2,0.3-0.2,0.5c0,0.2,0.1,0.4,0.3,0.5l1.2,0.9c0.1,0.1,0.3,0.2,0.4,0.3s0.2,0.2,0.3,0.4s0.2,0.3,0.2,0.5s0.1,0.3,0.1,0.5
			c0,0.5-0.2,0.9-0.5,1.2S51,62.6,50.4,62.6z"/>
		<path fill="#FFFFFF" d="M54.8,62.6c-0.5,0-0.8-0.1-1.1-0.4s-0.3-0.6-0.3-1.1v-3.9h-0.6v-0.9h0.6v-2.2h1.2v2.2h0.9v0.9h-0.9v3.6
			c0,0.3,0,0.4,0.1,0.6s0.2,0.2,0.4,0.2c0.1,0,0.2,0,0.4,0v1C55.2,62.6,55,62.6,54.8,62.6z"/>
		<path fill="#FFFFFF" d="M58.5,62.5v-8.8h1.2v3.2c0.2-0.2,0.3-0.3,0.5-0.4s0.3-0.2,0.5-0.3s0.4-0.1,0.7-0.1c0.3,0,0.5,0.1,0.6,0.3
			s0.2,0.4,0.2,0.7v5.3H61v-4.7c0-0.2,0-0.4-0.1-0.5s-0.2-0.2-0.3-0.2c-0.3,0-0.5,0.1-0.8,0.4v4.9H58.5z"/>
		<path fill="#FFFFFF" d="M64.4,62.6c-0.3,0-0.6-0.2-0.9-0.5s-0.4-0.6-0.4-1c0-0.3,0.1-0.6,0.2-0.8s0.2-0.4,0.3-0.6s0.3-0.3,0.6-0.5
			s0.5-0.3,0.6-0.3s0.4-0.2,0.7-0.3c0.1,0,0.1,0,0.1-0.1v-0.4c0-0.3,0-0.6-0.1-0.7s-0.3-0.3-0.5-0.3c-0.2,0-0.4,0.1-0.5,0.2
			s-0.1,0.4-0.2,0.6c0,0,0,0.1,0,0.2h-1.2c0-0.6,0.2-1.1,0.5-1.4s0.8-0.5,1.4-0.5c0.6,0,1,0.2,1.4,0.5s0.5,0.8,0.5,1.4V61
			c0,0.7,0.1,1.2,0.2,1.6h-1.2l-0.2-0.9c-0.1,0.1-0.1,0.2-0.2,0.3s-0.1,0.2-0.2,0.3s-0.2,0.2-0.2,0.2s-0.2,0.1-0.3,0.1
			S64.6,62.6,64.4,62.6z M65,61.6c0.1,0,0.2,0,0.3-0.1s0.1-0.1,0.2-0.2s0.1-0.1,0.2-0.2c0,0,0,0,0,0v-1.7c-0.1,0-0.1,0.1-0.3,0.2
			s-0.2,0.1-0.3,0.2s-0.2,0.1-0.3,0.2s-0.2,0.2-0.2,0.2s-0.1,0.2-0.1,0.3s-0.1,0.2-0.1,0.3C64.4,61.3,64.6,61.6,65,61.6z"/>
		<path fill="#FFFFFF" d="M68,62.5v-8.8h1.2v8.8H68z"/>
		<path fill="#FFFFFF" d="M70.7,62.5v-5.3h-0.6v-0.9h0.6V56c0-0.3,0-0.5,0-0.7s0.1-0.4,0.1-0.5s0.1-0.3,0.2-0.4s0.2-0.2,0.4-0.2
			s0.4-0.1,0.6-0.1c0.2,0,0.5,0,0.8,0.1v0.9c0,0-0.1,0-0.2,0s-0.2,0-0.2,0c-0.2,0-0.3,0.1-0.4,0.2s-0.1,0.3-0.1,0.6v0.5h0.9v0.9
			h-0.9v5.3H70.7z"/>
		<path fill="#FFFFFF" d="M76.6,62.6c-0.3,0-0.6-0.2-0.9-0.5s-0.4-0.6-0.4-1c0-0.3,0.1-0.6,0.2-0.8s0.2-0.4,0.3-0.6s0.3-0.3,0.6-0.5
			s0.5-0.3,0.6-0.3s0.4-0.2,0.7-0.3c0.1,0,0.1,0,0.1-0.1v-0.4c0-0.3,0-0.6-0.1-0.7s-0.3-0.3-0.5-0.3c-0.2,0-0.4,0.1-0.5,0.2
			s-0.1,0.4-0.2,0.6c0,0,0,0.1,0,0.2h-1.2c0-0.6,0.2-1.1,0.5-1.4s0.8-0.5,1.4-0.5c0.6,0,1,0.2,1.4,0.5s0.5,0.8,0.5,1.4V61
			c0,0.7,0.1,1.2,0.2,1.6H78l-0.2-0.9c-0.1,0.1-0.1,0.2-0.2,0.3s-0.1,0.2-0.2,0.3s-0.2,0.2-0.2,0.2s-0.2,0.1-0.3,0.1
			S76.7,62.6,76.6,62.6z M77.2,61.6c0.1,0,0.2,0,0.3-0.1s0.1-0.1,0.2-0.2s0.1-0.1,0.2-0.2c0,0,0,0,0,0v-1.7c-0.1,0-0.1,0.1-0.3,0.2
			s-0.2,0.1-0.3,0.2s-0.2,0.1-0.3,0.2s-0.2,0.2-0.2,0.2s-0.1,0.2-0.1,0.3s-0.1,0.2-0.1,0.3C76.6,61.3,76.8,61.6,77.2,61.6z"/>
		<path fill="#FFFFFF" d="M82,64.1v-0.9c0.2,0,0.4,0,0.6,0s0.3-0.1,0.3-0.2s0.1-0.2,0.1-0.3c0-0.1,0-0.2,0-0.4l-1.4-6H83
			c0.5,2.7,0.7,4.1,0.8,4.4c0.1-0.4,0.1-0.9,0.2-1.4c0.1-0.5,0.2-1,0.3-1.6c0.1-0.6,0.2-1,0.3-1.4h1.2l-1.6,6.6
			c-0.1,0.5-0.3,0.8-0.7,1c-0.3,0.2-0.8,0.3-1.4,0.3H82z"/>
		<path fill="#FFFFFF" d="M88.1,62.6c-0.3,0-0.6-0.1-0.8-0.2c-0.2-0.1-0.4-0.2-0.5-0.4s-0.2-0.4-0.3-0.6c-0.1-0.3-0.1-0.5-0.2-0.8
			c0-0.3,0-0.6-0.1-0.9c0-0.3,0-0.5,0-0.8c0-0.3,0-0.6,0.1-0.9s0.1-0.5,0.2-0.7c0.1-0.2,0.2-0.4,0.3-0.6c0.1-0.2,0.3-0.3,0.5-0.4
			s0.5-0.1,0.8-0.1c0.3,0,0.5,0,0.7,0.1c0.2,0.1,0.4,0.2,0.5,0.3c0.1,0.1,0.2,0.3,0.3,0.5c0.1,0.2,0.2,0.4,0.2,0.6
			c0,0.2,0.1,0.5,0.1,0.7c0,0.2,0,0.5,0,0.8v0.1h-2.5v0.3c0,0,0,0.1,0,0.2c0,0.1,0,0.2,0,0.4s0,0.3,0,0.4c0,0.1,0,0.2,0.1,0.4
			s0.1,0.2,0.1,0.3c0,0.1,0.1,0.2,0.2,0.2c0.1,0,0.2,0.1,0.3,0.1c0.1,0,0.2,0,0.3-0.1c0.1-0.1,0.1-0.1,0.2-0.2
			c0-0.1,0.1-0.2,0.1-0.3c0-0.1,0-0.2,0-0.4v-0.3H90v0.2c0,0.7-0.2,1.2-0.5,1.5C89.2,62.4,88.8,62.6,88.1,62.6z M87.5,58.8h1.2v-0.4
			c0-0.2,0-0.3,0-0.4c0-0.1,0-0.2-0.1-0.4c0-0.1-0.1-0.2-0.2-0.3c-0.1-0.1-0.2-0.1-0.3-0.1c-0.1,0-0.2,0-0.3,0.1
			c-0.1,0.1-0.2,0.2-0.2,0.3c0,0.1-0.1,0.3-0.1,0.4c0,0.1,0,0.3,0,0.4V58.8z"/>
		<path fill="#FFFFFF" d="M92,62.6c-0.3,0-0.6-0.2-0.9-0.5c-0.2-0.3-0.4-0.6-0.4-1c0-0.3,0.1-0.6,0.2-0.8s0.2-0.4,0.3-0.6
			c0.1-0.1,0.3-0.3,0.6-0.5c0.3-0.2,0.5-0.3,0.6-0.3s0.4-0.2,0.7-0.3c0.1,0,0.1,0,0.1-0.1v-0.4c0-0.3,0-0.6-0.1-0.7
			s-0.3-0.3-0.5-0.3c-0.2,0-0.4,0.1-0.5,0.2S92,57.7,92,58c0,0,0,0.1,0,0.2h-1.2c0-0.6,0.2-1.1,0.5-1.4c0.3-0.4,0.8-0.5,1.4-0.5
			c0.6,0,1,0.2,1.4,0.5c0.3,0.4,0.5,0.8,0.5,1.4V61c0,0.7,0.1,1.2,0.2,1.6h-1.2l-0.2-0.9c-0.1,0.1-0.1,0.2-0.2,0.3
			c0,0.1-0.1,0.2-0.2,0.3s-0.2,0.2-0.2,0.2s-0.2,0.1-0.3,0.1S92.1,62.6,92,62.6z M92.6,61.6c0.1,0,0.2,0,0.3-0.1s0.1-0.1,0.2-0.2
			c0,0,0.1-0.1,0.2-0.2c0,0,0,0,0,0v-1.7c-0.1,0-0.1,0.1-0.3,0.2c-0.1,0.1-0.2,0.1-0.3,0.2c-0.1,0-0.2,0.1-0.3,0.2
			c-0.1,0.1-0.2,0.2-0.2,0.2c-0.1,0.1-0.1,0.2-0.1,0.3c0,0.1-0.1,0.2-0.1,0.3C92,61.3,92.2,61.6,92.6,61.6z"/>
		<path fill="#FFFFFF" d="M95.6,62.5v-6.2h1.2v0.8c0.1-0.2,0.3-0.5,0.6-0.6c0.2-0.2,0.5-0.3,0.8-0.3c0,0,0.1,0,0.2,0v1.4
			c-0.2-0.1-0.5-0.1-0.7-0.1c-0.3,0-0.5,0.1-0.6,0.2c-0.2,0.2-0.2,0.4-0.2,0.6v4.2H95.6z"/>
		<path fill="#FFFFFF" d="M101.7,62.5l-1.2-6.2h1.1l0.7,4.7l0.7-4.7h1.1l0.7,4.7l0.7-4.7h1.1l-1.2,6.2h-1.2l-0.7-4.3l-0.7,4.3H101.7
			z"/>
		<path fill="#FFFFFF" d="M107.3,62.5v-8.8h1.2v3.2c0.2-0.2,0.3-0.3,0.5-0.4s0.3-0.2,0.5-0.3c0.2-0.1,0.4-0.1,0.7-0.1
			c0.3,0,0.5,0.1,0.6,0.3s0.2,0.4,0.2,0.7v5.3h-1.2v-4.7c0-0.2,0-0.4-0.1-0.5s-0.2-0.2-0.3-0.2c-0.3,0-0.5,0.1-0.8,0.4v4.9H107.3z"
			/>
		<path fill="#FFFFFF" d="M113.9,62.6c-0.3,0-0.6-0.1-0.8-0.2c-0.2-0.1-0.4-0.2-0.5-0.4s-0.2-0.4-0.3-0.6c-0.1-0.3-0.1-0.5-0.2-0.8
			c0-0.3,0-0.6-0.1-0.9c0-0.3,0-0.5,0-0.8c0-0.3,0-0.6,0.1-0.9s0.1-0.5,0.2-0.7c0.1-0.2,0.2-0.4,0.3-0.6c0.1-0.2,0.3-0.3,0.5-0.4
			s0.5-0.1,0.8-0.1c0.3,0,0.5,0,0.7,0.1c0.2,0.1,0.4,0.2,0.5,0.3c0.1,0.1,0.2,0.3,0.3,0.5c0.1,0.2,0.2,0.4,0.2,0.6
			c0,0.2,0.1,0.5,0.1,0.7c0,0.2,0,0.5,0,0.8v0.1h-2.5v0.3c0,0,0,0.1,0,0.2c0,0.1,0,0.2,0,0.4s0,0.3,0,0.4c0,0.1,0,0.2,0.1,0.4
			s0.1,0.2,0.1,0.3c0,0.1,0.1,0.2,0.2,0.2c0.1,0,0.2,0.1,0.3,0.1c0.1,0,0.2,0,0.3-0.1c0.1-0.1,0.1-0.1,0.2-0.2
			c0-0.1,0.1-0.2,0.1-0.3c0-0.1,0-0.2,0-0.4v-0.3h1.2v0.2c0,0.7-0.2,1.2-0.5,1.5C114.9,62.4,114.5,62.6,113.9,62.6z M113.2,58.8h1.2
			v-0.4c0-0.2,0-0.3,0-0.4c0-0.1,0-0.2-0.1-0.4c0-0.1-0.1-0.2-0.2-0.3c-0.1-0.1-0.2-0.1-0.3-0.1c-0.1,0-0.2,0-0.3,0.1
			c-0.1,0.1-0.2,0.2-0.2,0.3c0,0.1-0.1,0.3-0.1,0.4c0,0.1,0,0.3,0,0.4V58.8z"/>
		<path fill="#FFFFFF" d="M116.7,62.5v-6.2h1.2v0.8c0.1-0.2,0.3-0.5,0.6-0.6c0.2-0.2,0.5-0.3,0.8-0.3c0,0,0.1,0,0.2,0v1.4
			c-0.2-0.1-0.5-0.1-0.7-0.1c-0.3,0-0.5,0.1-0.6,0.2c-0.2,0.2-0.2,0.4-0.2,0.6v4.2H116.7z"/>
		<path fill="#FFFFFF" d="M121.8,62.6c-0.3,0-0.6-0.1-0.8-0.2c-0.2-0.1-0.4-0.2-0.5-0.4s-0.2-0.4-0.3-0.6c-0.1-0.3-0.1-0.5-0.2-0.8
			c0-0.3,0-0.6-0.1-0.9c0-0.3,0-0.5,0-0.8c0-0.3,0-0.6,0.1-0.9s0.1-0.5,0.2-0.7c0.1-0.2,0.2-0.4,0.3-0.6c0.1-0.2,0.3-0.3,0.5-0.4
			s0.5-0.1,0.8-0.1c0.3,0,0.5,0,0.7,0.1c0.2,0.1,0.4,0.2,0.5,0.3c0.1,0.1,0.2,0.3,0.3,0.5c0.1,0.2,0.2,0.4,0.2,0.6
			c0,0.2,0.1,0.5,0.1,0.7c0,0.2,0,0.5,0,0.8v0.1h-2.5v0.3c0,0,0,0.1,0,0.2c0,0.1,0,0.2,0,0.4s0,0.3,0,0.4c0,0.1,0,0.2,0.1,0.4
			s0.1,0.2,0.1,0.3c0,0.1,0.1,0.2,0.2,0.2c0.1,0,0.2,0.1,0.3,0.1c0.1,0,0.2,0,0.3-0.1c0.1-0.1,0.1-0.1,0.2-0.2
			c0-0.1,0.1-0.2,0.1-0.3c0-0.1,0-0.2,0-0.4v-0.3h1.2v0.2c0,0.7-0.2,1.2-0.5,1.5C122.8,62.4,122.4,62.6,121.8,62.6z M121.1,58.8h1.2
			v-0.4c0-0.2,0-0.3,0-0.4c0-0.1,0-0.2-0.1-0.4c0-0.1-0.1-0.2-0.2-0.3c-0.1-0.1-0.2-0.1-0.3-0.1c-0.1,0-0.2,0-0.3,0.1
			c-0.1,0.1-0.2,0.2-0.2,0.3c0,0.1-0.1,0.3-0.1,0.4c0,0.1,0,0.3,0,0.4V58.8z"/>
		<path fill="#FFFFFF" d="M128.3,62.6c-0.5,0-0.8-0.1-1.1-0.4c-0.2-0.3-0.3-0.6-0.3-1.1v-3.9h-0.6v-0.9h0.6v-2.2h1.3v2.2h0.9v0.9
			h-0.9v3.6c0,0.3,0,0.4,0.1,0.6s0.2,0.2,0.4,0.2c0.1,0,0.2,0,0.4,0v1C128.8,62.6,128.5,62.6,128.3,62.6z"/>
		<path fill="#FFFFFF" d="M130,62.5v-8.8h1.2v3.2c0.2-0.2,0.3-0.3,0.5-0.4s0.3-0.2,0.5-0.3c0.2-0.1,0.4-0.1,0.7-0.1
			c0.3,0,0.5,0.1,0.6,0.3s0.2,0.4,0.2,0.7v5.3h-1.2v-4.7c0-0.2,0-0.4-0.1-0.5s-0.2-0.2-0.3-0.2c-0.3,0-0.5,0.1-0.8,0.4v4.9H130z"/>
		<path fill="#FFFFFF" d="M136.6,62.6c-0.3,0-0.6-0.1-0.8-0.2c-0.2-0.1-0.4-0.2-0.5-0.4s-0.2-0.4-0.3-0.6c-0.1-0.3-0.1-0.5-0.2-0.8
			c0-0.3,0-0.6-0.1-0.9c0-0.3,0-0.5,0-0.8c0-0.3,0-0.6,0.1-0.9s0.1-0.5,0.2-0.7c0.1-0.2,0.2-0.4,0.3-0.6c0.1-0.2,0.3-0.3,0.5-0.4
			s0.5-0.1,0.8-0.1c0.3,0,0.5,0,0.7,0.1c0.2,0.1,0.4,0.2,0.5,0.3c0.1,0.1,0.2,0.3,0.3,0.5c0.1,0.2,0.2,0.4,0.2,0.6
			c0,0.2,0.1,0.5,0.1,0.7c0,0.2,0,0.5,0,0.8v0.1H136v0.3c0,0,0,0.1,0,0.2c0,0.1,0,0.2,0,0.4s0,0.3,0,0.4c0,0.1,0,0.2,0.1,0.4
			s0.1,0.2,0.1,0.3c0,0.1,0.1,0.2,0.2,0.2c0.1,0,0.2,0.1,0.3,0.1c0.1,0,0.2,0,0.3-0.1c0.1-0.1,0.1-0.1,0.2-0.2
			c0-0.1,0.1-0.2,0.1-0.3c0-0.1,0-0.2,0-0.4v-0.3h1.2v0.2c0,0.7-0.2,1.2-0.5,1.5C137.7,62.4,137.2,62.6,136.6,62.6z M136,58.8h1.2
			v-0.4c0-0.2,0-0.3,0-0.4c0-0.1,0-0.2-0.1-0.4c0-0.1-0.1-0.2-0.2-0.3c-0.1-0.1-0.2-0.1-0.3-0.1c-0.1,0-0.2,0-0.3,0.1
			c-0.1,0.1-0.2,0.2-0.2,0.3c0,0.1-0.1,0.3-0.1,0.4c0,0.1,0,0.3,0,0.4V58.8z"/>
		<path fill="#FFFFFF" d="M139.2,64.1v-0.9c0.2,0,0.4,0,0.6,0c0.1,0,0.3-0.1,0.3-0.2c0.1-0.1,0.1-0.2,0.1-0.3c0-0.1,0-0.2,0-0.4
			l-1.4-6h1.2c0.5,2.7,0.7,4.1,0.8,4.4c0.1-0.4,0.1-0.9,0.2-1.4c0.1-0.5,0.2-1,0.3-1.6c0.1-0.6,0.2-1,0.3-1.4h1.2l-1.6,6.6
			c-0.1,0.5-0.3,0.8-0.7,1c-0.3,0.2-0.8,0.3-1.4,0.3H139.2z"/>
		<path fill="#FFFFFF" d="M27.2,76.4v-8.1h1.2v0.6c0.1-0.1,0.2-0.2,0.2-0.2s0.1-0.1,0.2-0.2s0.2-0.1,0.2-0.2s0.2-0.1,0.3-0.1
			s0.2,0,0.3,0c0.2,0,0.4,0,0.6,0.1s0.3,0.2,0.4,0.3s0.2,0.3,0.3,0.5s0.1,0.4,0.2,0.5s0.1,0.4,0.1,0.7s0,0.5,0,0.7s0,0.4,0,0.7v0.1
			c0,0.3,0,0.5,0,0.8s-0.1,0.5-0.2,0.8s-0.2,0.5-0.3,0.7s-0.3,0.3-0.4,0.5s-0.4,0.2-0.6,0.2c-0.4,0-0.8-0.2-1.2-0.6v2.4H27.2z
			 M29.4,73.6c0.1,0,0.2,0,0.3-0.1s0.2-0.2,0.2-0.4s0.1-0.4,0.1-0.5s0-0.4,0-0.6l0-0.8c0-0.1,0-0.3,0-0.4s0-0.2,0-0.4s0-0.3,0-0.4
			s0-0.2-0.1-0.3s-0.1-0.2-0.1-0.3s-0.1-0.1-0.2-0.2s-0.2-0.1-0.3-0.1c0,0-0.1,0-0.1,0s-0.1,0-0.1,0s-0.1,0-0.1,0s-0.1,0-0.1,0.1
			s-0.1,0-0.1,0.1s-0.1,0-0.1,0.1s-0.1,0.1-0.1,0.1v3.9C28.8,73.5,29.1,73.6,29.4,73.6z"/>
		<path fill="#FFFFFF" d="M33.2,74.6c-0.3,0-0.5-0.1-0.7-0.3s-0.2-0.4-0.2-0.7v-5.3h1.2v4.9c0,0.1,0,0.2,0.1,0.3s0.2,0.1,0.3,0.1
			c0.1,0,0.1,0,0.2,0s0.1,0,0.2-0.1s0.1-0.1,0.1-0.1s0.1-0.1,0.2-0.1s0.1-0.1,0.1-0.1v-4.9h1.2v6.2h-1.2v-0.7
			c-0.1,0.1-0.2,0.2-0.3,0.2s-0.1,0.1-0.3,0.2S34,74.4,34,74.5s-0.2,0.1-0.3,0.1S33.4,74.6,33.2,74.6z"/>
		<path fill="#FFFFFF" d="M38.9,74.6c-0.5,0-0.8-0.1-1.1-0.4s-0.3-0.6-0.3-1.1v-3.9h-0.6v-0.9h0.6v-2.2h1.2v2.2h0.9v0.9h-0.9v3.6
			c0,0.3,0,0.4,0.1,0.6s0.2,0.2,0.4,0.2c0.1,0,0.2,0,0.4,0v1C39.3,74.6,39.1,74.6,38.9,74.6z"/>
		<path fill="#FFFFFF" d="M44.2,74.6c-0.5,0-0.9-0.2-1.2-0.5s-0.5-0.7-0.6-1.2l0.9-0.3c0.2,0.6,0.5,0.9,0.9,0.9
			c0.2,0,0.4-0.1,0.5-0.2s0.2-0.3,0.2-0.5c0-0.3-0.1-0.5-0.3-0.7l-1.2-0.9c-0.1-0.1-0.3-0.2-0.4-0.3s-0.2-0.2-0.3-0.3
			s-0.2-0.3-0.2-0.4s-0.1-0.3-0.1-0.5c0-0.5,0.2-0.9,0.5-1.2s0.8-0.4,1.4-0.4c0.3,0,0.5,0,0.7,0.1s0.4,0.2,0.5,0.4s0.3,0.3,0.4,0.5
			s0.2,0.4,0.2,0.6l-0.9,0.3c0-0.1-0.1-0.2-0.1-0.3s-0.1-0.2-0.2-0.3s-0.2-0.2-0.3-0.2s-0.2-0.1-0.3-0.1c-0.2,0-0.4,0.1-0.5,0.2
			s-0.2,0.3-0.2,0.5c0,0.2,0.1,0.4,0.3,0.5l1.2,0.9c0.1,0.1,0.3,0.2,0.4,0.3s0.2,0.2,0.3,0.4s0.2,0.3,0.2,0.5s0.1,0.3,0.1,0.5
			c0,0.5-0.2,0.9-0.5,1.2S44.8,74.6,44.2,74.6z"/>
		<path fill="#FFFFFF" d="M48.6,74.6c-0.3,0-0.6-0.1-0.8-0.2s-0.4-0.2-0.5-0.4s-0.2-0.4-0.3-0.6s-0.1-0.5-0.2-0.8s0-0.6-0.1-0.9
			c0-0.3,0-0.5,0-0.8c0-0.3,0-0.6,0.1-0.9s0.1-0.5,0.2-0.7s0.2-0.4,0.3-0.6s0.3-0.3,0.5-0.4s0.5-0.1,0.8-0.1c0.3,0,0.5,0,0.7,0.1
			s0.4,0.2,0.5,0.3s0.2,0.3,0.3,0.5s0.2,0.4,0.2,0.6s0.1,0.5,0.1,0.7s0,0.5,0,0.8v0.1H48v0.3c0,0,0,0.1,0,0.2c0,0.1,0,0.2,0,0.4
			s0,0.3,0,0.4s0,0.2,0.1,0.4s0.1,0.2,0.1,0.3s0.1,0.2,0.2,0.2s0.2,0.1,0.3,0.1c0.1,0,0.2,0,0.3-0.1s0.1-0.1,0.2-0.2
			s0.1-0.2,0.1-0.3s0-0.2,0-0.4v-0.3h1.2v0.2c0,0.7-0.2,1.2-0.5,1.5S49.3,74.6,48.6,74.6z M48,70.8h1.2v-0.4c0-0.2,0-0.3,0-0.4
			s0-0.2-0.1-0.4S49,69.4,49,69.3s-0.2-0.1-0.3-0.1c-0.1,0-0.2,0-0.3,0.1s-0.1,0.2-0.2,0.3S48.1,69.9,48,70s0,0.3,0,0.4V70.8z"/>
		<path fill="#FFFFFF" d="M53.2,74.6c-0.3,0-0.6-0.1-0.8-0.2S52,74.2,51.9,74s-0.2-0.4-0.3-0.6s-0.1-0.5-0.2-0.8s0-0.6-0.1-0.9
			c0-0.3,0-0.5,0-0.8c0-0.3,0-0.6,0.1-0.9s0.1-0.5,0.2-0.7s0.2-0.4,0.3-0.6s0.3-0.3,0.5-0.4s0.5-0.1,0.8-0.1c0.3,0,0.5,0,0.7,0.1
			s0.4,0.2,0.5,0.3s0.2,0.3,0.3,0.5s0.2,0.4,0.2,0.6s0.1,0.5,0.1,0.7s0,0.5,0,0.8v0.1h-2.5v0.3c0,0,0,0.1,0,0.2c0,0.1,0,0.2,0,0.4
			s0,0.3,0,0.4s0,0.2,0.1,0.4s0.1,0.2,0.1,0.3s0.1,0.2,0.2,0.2s0.2,0.1,0.3,0.1c0.1,0,0.2,0,0.3-0.1s0.1-0.1,0.2-0.2
			s0.1-0.2,0.1-0.3s0-0.2,0-0.4v-0.3h1.2v0.2c0,0.7-0.2,1.2-0.5,1.5S53.8,74.6,53.2,74.6z M52.6,70.8h1.2v-0.4c0-0.2,0-0.3,0-0.4
			s0-0.2-0.1-0.4s-0.1-0.2-0.2-0.3s-0.2-0.1-0.3-0.1c-0.1,0-0.2,0-0.3,0.1s-0.1,0.2-0.2,0.3s-0.1,0.3-0.1,0.4s0,0.3,0,0.4V70.8z"/>
		<path fill="#FFFFFF" d="M57.4,74.6c-0.3,0-0.5-0.1-0.7-0.2s-0.4-0.4-0.5-0.6S56,73.2,56,72.9s-0.1-0.6-0.1-0.9c0-0.2,0-0.5,0-1.1
			c0-0.2,0-0.4,0-0.6s0-0.4,0.1-0.5s0.1-0.4,0.1-0.5s0.1-0.3,0.2-0.4s0.2-0.2,0.3-0.3s0.2-0.2,0.4-0.2s0.3-0.1,0.5-0.1
			c0.1,0,0.3,0,0.4,0.1s0.2,0.1,0.3,0.2s0.2,0.2,0.3,0.2s0.2,0.1,0.3,0.3v-3.1h1.2v8.7h-1.2V74c-0.2,0.2-0.4,0.4-0.6,0.5
			S57.7,74.6,57.4,74.6z M57.7,73.6c0.3,0,0.6-0.1,0.9-0.2v-3.9c-0.3-0.2-0.6-0.2-0.9-0.2c-0.1,0-0.2,0-0.3,0.1s-0.1,0.1-0.2,0.3
			s-0.1,0.2-0.1,0.4s0,0.3,0,0.4c0,0.7,0,1.3,0,1.7c0,0.2,0,0.4,0,0.6s0.1,0.3,0.1,0.5s0.1,0.3,0.2,0.3S57.6,73.6,57.7,73.6z"/>
		<path fill="#FFFFFF" d="M62.7,74.6c-0.5,0-0.9-0.2-1.2-0.5S61,73.5,60.9,73l0.9-0.3c0.2,0.6,0.5,0.9,0.9,0.9
			c0.2,0,0.4-0.1,0.5-0.2s0.2-0.3,0.2-0.5c0-0.3-0.1-0.5-0.3-0.7l-1.2-0.9c-0.1-0.1-0.3-0.2-0.4-0.3s-0.2-0.2-0.3-0.3
			s-0.2-0.3-0.2-0.4s-0.1-0.3-0.1-0.5c0-0.5,0.2-0.9,0.5-1.2s0.8-0.4,1.4-0.4c0.3,0,0.5,0,0.7,0.1s0.4,0.2,0.5,0.4s0.3,0.3,0.4,0.5
			s0.2,0.4,0.2,0.6l-0.9,0.3c0-0.1-0.1-0.2-0.1-0.3s-0.1-0.2-0.2-0.3s-0.2-0.2-0.3-0.2s-0.2-0.1-0.3-0.1c-0.2,0-0.4,0.1-0.5,0.2
			s-0.2,0.3-0.2,0.5c0,0.2,0.1,0.4,0.3,0.5l1.2,0.9c0.1,0.1,0.3,0.2,0.4,0.3s0.2,0.2,0.3,0.4s0.2,0.3,0.2,0.5s0.1,0.3,0.1,0.5
			c0,0.5-0.2,0.9-0.5,1.2S63.3,74.6,62.7,74.6z"/>
		<path fill="#FFFFFF" d="M68.5,74.6c-0.3,0-0.6-0.2-0.9-0.5s-0.4-0.6-0.4-1c0-0.3,0.1-0.6,0.2-0.8s0.2-0.4,0.3-0.6s0.3-0.3,0.6-0.5
			s0.5-0.3,0.6-0.3s0.4-0.2,0.7-0.3c0.1,0,0.1,0,0.1-0.1v-0.4c0-0.3,0-0.6-0.1-0.7s-0.3-0.3-0.5-0.3c-0.2,0-0.4,0.1-0.5,0.2
			s-0.1,0.4-0.2,0.6c0,0,0,0.1,0,0.2h-1.2c0-0.6,0.2-1.1,0.5-1.4s0.8-0.5,1.4-0.5c0.6,0,1,0.2,1.4,0.5s0.5,0.8,0.5,1.4V73
			c0,0.7,0.1,1.2,0.2,1.6h-1.2l-0.2-0.9c-0.1,0.1-0.1,0.2-0.2,0.3s-0.1,0.2-0.2,0.3s-0.2,0.2-0.2,0.2s-0.2,0.1-0.3,0.1
			S68.6,74.6,68.5,74.6z M69.1,73.6c0.1,0,0.2,0,0.3-0.1s0.1-0.1,0.2-0.2s0.1-0.1,0.2-0.2c0,0,0,0,0,0v-1.7c-0.1,0-0.1,0.1-0.3,0.2
			s-0.2,0.1-0.3,0.2s-0.2,0.1-0.3,0.2s-0.2,0.2-0.2,0.2s-0.1,0.2-0.1,0.3s-0.1,0.2-0.1,0.3C68.5,73.3,68.7,73.6,69.1,73.6z"/>
		<path fill="#FFFFFF" d="M72.1,74.5v-6.2h1.2v0.7c0.2-0.2,0.3-0.3,0.5-0.4s0.3-0.2,0.5-0.3s0.4-0.1,0.7-0.1c0.3,0,0.5,0.1,0.6,0.3
			s0.2,0.4,0.2,0.7v5.3h-1.2v-4.7c0-0.2,0-0.4-0.1-0.5s-0.2-0.1-0.4-0.1c-0.1,0-0.2,0-0.3,0.1s-0.2,0.1-0.2,0.1s-0.1,0.1-0.2,0.2
			v4.9H72.1z"/>
		<path fill="#FFFFFF" d="M78.4,74.6c-0.3,0-0.5-0.1-0.7-0.2s-0.4-0.4-0.5-0.6s-0.2-0.5-0.3-0.8s-0.1-0.6-0.1-0.9c0-0.2,0-0.5,0-1.1
			c0-0.2,0-0.4,0-0.6s0-0.4,0.1-0.5s0.1-0.4,0.1-0.5s0.1-0.3,0.2-0.4s0.2-0.2,0.3-0.3s0.2-0.2,0.4-0.2s0.3-0.1,0.5-0.1
			c0.1,0,0.3,0,0.4,0.1s0.2,0.1,0.3,0.2s0.2,0.2,0.3,0.2s0.2,0.1,0.3,0.3v-3.1h1.2v8.7h-1.2V74c-0.2,0.2-0.4,0.4-0.6,0.5
			S78.6,74.6,78.4,74.6z M78.7,73.6c0.3,0,0.6-0.1,0.9-0.2v-3.9c-0.3-0.2-0.6-0.2-0.9-0.2c-0.1,0-0.2,0-0.3,0.1s-0.1,0.1-0.2,0.3
			s-0.1,0.2-0.1,0.4s0,0.3,0,0.4c0,0.7,0,1.3,0,1.7c0,0.2,0,0.4,0,0.6s0.1,0.3,0.1,0.5s0.1,0.3,0.2,0.3S78.6,73.6,78.7,73.6z"/>
		<path fill="#FFFFFF" d="M85.8,74.6c-0.5,0-0.8-0.1-1.1-0.4c-0.2-0.3-0.3-0.6-0.3-1.1v-3.9h-0.6v-0.9h0.6v-2.2h1.2v2.2h0.9v0.9
			h-0.9v3.6c0,0.3,0,0.4,0.1,0.6s0.2,0.2,0.4,0.2c0.1,0,0.2,0,0.4,0v1C86.3,74.6,86,74.6,85.8,74.6z"/>
		<path fill="#FFFFFF" d="M87.5,74.5v-8.8h1.2v3.2c0.2-0.2,0.3-0.3,0.5-0.4s0.3-0.2,0.5-0.3c0.2-0.1,0.4-0.1,0.7-0.1
			c0.3,0,0.5,0.1,0.6,0.3s0.2,0.4,0.2,0.7v5.3H90v-4.7c0-0.2,0-0.4-0.1-0.5s-0.2-0.2-0.3-0.2c-0.3,0-0.5,0.1-0.8,0.4v4.9H87.5z"/>
		<path fill="#FFFFFF" d="M94.1,74.6c-0.3,0-0.6-0.1-0.8-0.2c-0.2-0.1-0.4-0.2-0.5-0.4s-0.2-0.4-0.3-0.6c-0.1-0.3-0.1-0.5-0.2-0.8
			c0-0.3,0-0.6-0.1-0.9c0-0.3,0-0.5,0-0.8c0-0.3,0-0.6,0.1-0.9s0.1-0.5,0.2-0.7c0.1-0.2,0.2-0.4,0.3-0.6c0.1-0.2,0.3-0.3,0.5-0.4
			s0.5-0.1,0.8-0.1c0.3,0,0.5,0,0.7,0.1c0.2,0.1,0.4,0.2,0.5,0.3c0.1,0.1,0.2,0.3,0.3,0.5c0.1,0.2,0.2,0.4,0.2,0.6
			c0,0.2,0.1,0.5,0.1,0.7c0,0.2,0,0.5,0,0.8v0.1h-2.5v0.3c0,0,0,0.1,0,0.2c0,0.1,0,0.2,0,0.4s0,0.3,0,0.4c0,0.1,0,0.2,0.1,0.4
			s0.1,0.2,0.1,0.3c0,0.1,0.1,0.2,0.2,0.2c0.1,0,0.2,0.1,0.3,0.1c0.1,0,0.2,0,0.3-0.1c0.1-0.1,0.1-0.1,0.2-0.2
			c0-0.1,0.1-0.2,0.1-0.3c0-0.1,0-0.2,0-0.4v-0.3H96v0.2c0,0.7-0.2,1.2-0.5,1.5C95.2,74.4,94.7,74.6,94.1,74.6z M93.5,70.8h1.2v-0.4
			c0-0.2,0-0.3,0-0.4c0-0.1,0-0.2-0.1-0.4c0-0.1-0.1-0.2-0.2-0.3c-0.1-0.1-0.2-0.1-0.3-0.1c-0.1,0-0.2,0-0.3,0.1
			c-0.1,0.1-0.2,0.2-0.2,0.3c0,0.1-0.1,0.3-0.1,0.4c0,0.1,0,0.3,0,0.4V70.8z"/>
		<path fill="#FFFFFF" d="M96.7,76.1v-0.9c0.2,0,0.4,0,0.6,0c0.1,0,0.3-0.1,0.3-0.2c0.1-0.1,0.1-0.2,0.1-0.3c0-0.1,0-0.2,0-0.4
			l-1.4-6h1.2c0.5,2.7,0.7,4.1,0.8,4.4c0.1-0.4,0.1-0.9,0.2-1.4c0.1-0.5,0.2-1,0.3-1.6c0.1-0.6,0.2-1,0.3-1.4h1.2l-1.6,6.6
			c-0.1,0.5-0.3,0.8-0.7,1c-0.3,0.2-0.8,0.3-1.4,0.3H96.7z"/>
		<path fill="#FFFFFF" d="M104.1,74.6c-0.3,0-0.5-0.1-0.7-0.3s-0.2-0.4-0.2-0.7v-5.3h1.2v4.9c0,0.1,0,0.2,0.1,0.3
			c0.1,0.1,0.2,0.1,0.3,0.1c0.1,0,0.1,0,0.2,0c0.1,0,0.1,0,0.2-0.1s0.1-0.1,0.1-0.1c0,0,0.1-0.1,0.2-0.1c0.1-0.1,0.1-0.1,0.1-0.1
			v-4.9h1.2v6.2h-1.2v-0.7c-0.1,0.1-0.2,0.2-0.3,0.2c-0.1,0-0.1,0.1-0.3,0.2s-0.2,0.1-0.3,0.2c-0.1,0-0.2,0.1-0.3,0.1
			C104.4,74.6,104.2,74.6,104.1,74.6z"/>
		<path fill="#FFFFFF" d="M109.6,74.6c-0.5,0-0.9-0.2-1.2-0.5c-0.3-0.3-0.5-0.7-0.6-1.2l0.9-0.3c0.2,0.6,0.5,0.9,0.9,0.9
			c0.2,0,0.4-0.1,0.5-0.2c0.1-0.1,0.2-0.3,0.2-0.5c0-0.3-0.1-0.5-0.3-0.7l-1.2-0.9c-0.1-0.1-0.3-0.2-0.4-0.3
			c-0.1-0.1-0.2-0.2-0.3-0.3s-0.2-0.3-0.2-0.4c-0.1-0.1-0.1-0.3-0.1-0.5c0-0.5,0.2-0.9,0.5-1.2c0.3-0.3,0.8-0.4,1.4-0.4
			c0.3,0,0.5,0,0.7,0.1c0.2,0.1,0.4,0.2,0.5,0.4c0.1,0.2,0.3,0.3,0.4,0.5c0.1,0.2,0.2,0.4,0.2,0.6l-0.9,0.3c0-0.1-0.1-0.2-0.1-0.3
			c0-0.1-0.1-0.2-0.2-0.3c-0.1-0.1-0.2-0.2-0.3-0.2c-0.1-0.1-0.2-0.1-0.3-0.1c-0.2,0-0.4,0.1-0.5,0.2c-0.1,0.1-0.2,0.3-0.2,0.5
			c0,0.2,0.1,0.4,0.3,0.5l1.2,0.9c0.1,0.1,0.3,0.2,0.4,0.3c0.1,0.1,0.2,0.2,0.3,0.4c0.1,0.1,0.2,0.3,0.2,0.5s0.1,0.3,0.1,0.5
			c0,0.5-0.2,0.9-0.5,1.2C110.7,74.5,110.2,74.6,109.6,74.6z"/>
		<path fill="#FFFFFF" d="M114,74.6c-0.3,0-0.6-0.1-0.8-0.2c-0.2-0.1-0.4-0.2-0.5-0.4s-0.2-0.4-0.3-0.6c-0.1-0.3-0.1-0.5-0.2-0.8
			c0-0.3,0-0.6-0.1-0.9c0-0.3,0-0.5,0-0.8c0-0.3,0-0.6,0.1-0.9s0.1-0.5,0.2-0.7c0.1-0.2,0.2-0.4,0.3-0.6c0.1-0.2,0.3-0.3,0.5-0.4
			s0.5-0.1,0.8-0.1c0.3,0,0.5,0,0.7,0.1c0.2,0.1,0.4,0.2,0.5,0.3c0.1,0.1,0.2,0.3,0.3,0.5c0.1,0.2,0.2,0.4,0.2,0.6
			c0,0.2,0.1,0.5,0.1,0.7c0,0.2,0,0.5,0,0.8v0.1h-2.5v0.3c0,0,0,0.1,0,0.2c0,0.1,0,0.2,0,0.4s0,0.3,0,0.4c0,0.1,0,0.2,0.1,0.4
			s0.1,0.2,0.1,0.3c0,0.1,0.1,0.2,0.2,0.2c0.1,0,0.2,0.1,0.3,0.1c0.1,0,0.2,0,0.3-0.1c0.1-0.1,0.1-0.1,0.2-0.2
			c0-0.1,0.1-0.2,0.1-0.3c0-0.1,0-0.2,0-0.4v-0.3h1.2v0.2c0,0.7-0.2,1.2-0.5,1.5C115.1,74.4,114.7,74.6,114,74.6z M113.4,70.8h1.2
			v-0.4c0-0.2,0-0.3,0-0.4c0-0.1,0-0.2-0.1-0.4c0-0.1-0.1-0.2-0.2-0.3c-0.1-0.1-0.2-0.1-0.3-0.1c-0.1,0-0.2,0-0.3,0.1
			c-0.1,0.1-0.2,0.2-0.2,0.3c0,0.1-0.1,0.3-0.1,0.4c0,0.1,0,0.3,0,0.4V70.8z"/>
		<path fill="#FFFFFF" d="M120.9,74.6c-0.8,0-1.3-0.2-1.7-0.7s-0.5-1.1-0.5-1.9h1.2v0.2c0,0.2,0,0.3,0,0.4c0,0.1,0,0.2,0.1,0.4
			s0.1,0.2,0.1,0.3c0.1,0.1,0.1,0.1,0.2,0.2c0.1,0.1,0.2,0.1,0.4,0.1c0.1,0,0.2,0,0.3,0s0.2-0.1,0.2-0.1c0.1,0,0.1-0.1,0.2-0.2
			c0.1-0.1,0.1-0.2,0.1-0.2s0.1-0.2,0.1-0.3c0-0.1,0-0.2,0.1-0.3c0-0.1,0-0.2,0-0.3c0-0.1,0-0.3,0-0.3s0-0.2,0-0.4
			c0-0.1,0-0.1,0-0.2c0-0.1,0-0.3,0-0.4c0-0.1,0-0.2,0-0.3s0-0.2-0.1-0.3c0-0.1-0.1-0.2-0.1-0.2c0-0.1-0.1-0.1-0.2-0.2
			c-0.1,0-0.1-0.1-0.2-0.1c-0.1,0-0.2,0-0.3,0c-0.2,0-0.4,0.1-0.6,0.2c-0.2,0.1-0.3,0.3-0.4,0.5h-1.1v-4.7h3.9V67h-2.7l-0.1,2.1
			c0.4-0.2,0.8-0.3,1.2-0.3c0.3,0,0.5,0,0.8,0.1c0.2,0.1,0.4,0.2,0.5,0.4c0.1,0.1,0.3,0.3,0.3,0.6c0.1,0.2,0.2,0.5,0.2,0.7
			c0,0.2,0.1,0.5,0.1,0.8c0,0.4,0,0.7-0.1,1s-0.1,0.6-0.2,0.9c-0.1,0.3-0.2,0.5-0.4,0.7c-0.2,0.2-0.4,0.3-0.6,0.5
			C121.6,74.6,121.3,74.6,120.9,74.6z"/>
		<path fill="#FFFFFF" d="M29,86.6c-0.5,0-0.8-0.1-1.1-0.4s-0.3-0.6-0.3-1.1v-3.9h-0.6v-0.9h0.6v-2.2h1.2v2.2h0.9v0.9h-0.9v3.6
			c0,0.3,0,0.4,0.1,0.6s0.2,0.2,0.4,0.2c0.1,0,0.2,0,0.4,0v1C29.4,86.6,29.2,86.6,29,86.6z"/>
		<path fill="#FFFFFF" d="M30.6,86.5v-8.8h1.2v3.2c0.2-0.2,0.3-0.3,0.5-0.4s0.3-0.2,0.5-0.3s0.4-0.1,0.7-0.1c0.3,0,0.5,0.1,0.6,0.3
			s0.2,0.4,0.2,0.7v5.3h-1.2v-4.7c0-0.2,0-0.4-0.1-0.5s-0.2-0.2-0.3-0.2c-0.3,0-0.5,0.1-0.8,0.4v4.9H30.6z"/>
		<path fill="#FFFFFF" d="M38.7,86c-0.3,0.4-0.8,0.6-1.4,0.6s-1.2-0.2-1.4-0.6s-0.4-1-0.4-1.7v-1.9c0-0.7,0.1-1.3,0.4-1.7
			s0.8-0.6,1.4-0.6s1.2,0.2,1.4,0.6s0.4,1,0.4,1.7v1.9C39.1,85.1,39,85.6,38.7,86z M37,85.5c0.1,0,0.1,0,0.2,0s0.2,0,0.2,0
			s0.1-0.1,0.2-0.1s0.1-0.1,0.1-0.2s0.1-0.1,0.1-0.2s0-0.1,0-0.2s0-0.2,0-0.2s0-0.2,0-0.3v-1.9c0-0.1,0-0.2,0-0.3s0-0.1,0-0.2
			s0-0.2,0-0.2s0-0.1-0.1-0.2s-0.1-0.1-0.1-0.2s-0.1-0.1-0.2-0.1s-0.1,0-0.2,0s-0.2,0-0.2,0s-0.1,0.1-0.2,0.1s-0.1,0.1-0.1,0.2
			s-0.1,0.1-0.1,0.2s0,0.1,0,0.2s0,0.2,0,0.2s0,0.2,0,0.3v1.9c0,0.1,0,0.2,0,0.3s0,0.1,0,0.2s0,0.2,0,0.2s0,0.1,0.1,0.2
			s0.1,0.1,0.1,0.2S36.9,85.5,37,85.5z"/>
		<path fill="#FFFFFF" d="M41,86.6c-0.3,0-0.5-0.1-0.7-0.3s-0.2-0.4-0.2-0.7v-5.3h1.2v4.9c0,0.1,0,0.2,0.1,0.3s0.2,0.1,0.3,0.1
			c0.1,0,0.1,0,0.2,0s0.1,0,0.2-0.1s0.1-0.1,0.1-0.1s0.1-0.1,0.2-0.1s0.1-0.1,0.1-0.1v-4.9h1.2v6.2h-1.2v-0.7
			c-0.1,0.1-0.2,0.2-0.3,0.2s-0.1,0.1-0.3,0.2s-0.2,0.1-0.3,0.2s-0.2,0.1-0.3,0.1S41.2,86.6,41,86.6z"/>
		<path fill="#FFFFFF" d="M46.6,86.6c-0.5,0-0.9-0.2-1.2-0.5s-0.5-0.7-0.6-1.2l0.9-0.3c0.2,0.6,0.5,0.9,0.9,0.9
			c0.2,0,0.4-0.1,0.5-0.2s0.2-0.3,0.2-0.5c0-0.3-0.1-0.5-0.3-0.7l-1.2-0.9c-0.1-0.1-0.3-0.2-0.4-0.3s-0.2-0.2-0.3-0.3
			s-0.2-0.3-0.2-0.4s-0.1-0.3-0.1-0.5c0-0.5,0.2-0.9,0.5-1.2s0.8-0.4,1.4-0.4c0.3,0,0.5,0,0.7,0.1s0.4,0.2,0.5,0.4s0.3,0.3,0.4,0.5
			s0.2,0.4,0.2,0.6l-0.9,0.3c0-0.1-0.1-0.2-0.1-0.3s-0.1-0.2-0.2-0.3s-0.2-0.2-0.3-0.2s-0.2-0.1-0.3-0.1c-0.2,0-0.4,0.1-0.5,0.2
			S46,81.6,46,81.8c0,0.2,0.1,0.4,0.3,0.5l1.2,0.9c0.1,0.1,0.3,0.2,0.4,0.3s0.2,0.2,0.3,0.4s0.2,0.3,0.2,0.5s0.1,0.3,0.1,0.5
			c0,0.5-0.2,0.9-0.5,1.2S47.2,86.6,46.6,86.6z"/>
		<path fill="#FFFFFF" d="M50.3,86.6c-0.3,0-0.6-0.2-0.9-0.5s-0.4-0.6-0.4-1c0-0.3,0.1-0.6,0.2-0.8s0.2-0.4,0.3-0.6s0.3-0.3,0.6-0.5
			s0.5-0.3,0.6-0.3s0.4-0.2,0.7-0.3c0.1,0,0.1,0,0.1-0.1v-0.4c0-0.3,0-0.6-0.1-0.7s-0.3-0.3-0.5-0.3c-0.2,0-0.4,0.1-0.5,0.2
			s-0.1,0.4-0.2,0.6c0,0,0,0.1,0,0.2h-1.2c0-0.6,0.2-1.1,0.5-1.4s0.8-0.5,1.4-0.5c0.6,0,1,0.2,1.4,0.5s0.5,0.8,0.5,1.4V85
			c0,0.7,0.1,1.2,0.2,1.6h-1.2l-0.2-0.9c-0.1,0.1-0.1,0.2-0.2,0.3s-0.1,0.2-0.2,0.3s-0.2,0.2-0.2,0.2s-0.2,0.1-0.3,0.1
			S50.5,86.6,50.3,86.6z M51,85.6c0.1,0,0.2,0,0.3-0.1s0.1-0.1,0.2-0.2s0.1-0.1,0.2-0.2c0,0,0,0,0,0v-1.7c-0.1,0-0.1,0.1-0.3,0.2
			s-0.2,0.1-0.3,0.2s-0.2,0.1-0.3,0.2s-0.2,0.2-0.2,0.2s-0.1,0.2-0.1,0.3s-0.1,0.2-0.1,0.3C50.3,85.3,50.5,85.6,51,85.6z"/>
		<path fill="#FFFFFF" d="M53.9,86.5v-6.2h1.2v0.7c0.2-0.2,0.3-0.3,0.5-0.4s0.3-0.2,0.5-0.3s0.4-0.1,0.7-0.1c0.3,0,0.5,0.1,0.6,0.3
			s0.2,0.4,0.2,0.7v5.3h-1.2v-4.7c0-0.2,0-0.4-0.1-0.5s-0.2-0.1-0.4-0.1c-0.1,0-0.2,0-0.3,0.1s-0.2,0.1-0.2,0.1s-0.1,0.1-0.2,0.2
			v4.9H53.9z"/>
		<path fill="#FFFFFF" d="M60.2,86.6c-0.3,0-0.5-0.1-0.7-0.2S59.1,86,59,85.7s-0.2-0.5-0.3-0.8s-0.1-0.6-0.1-0.9c0-0.2,0-0.5,0-1.1
			c0-0.2,0-0.4,0-0.6s0-0.4,0.1-0.5s0.1-0.4,0.1-0.5s0.1-0.3,0.2-0.4s0.2-0.2,0.3-0.3s0.2-0.2,0.4-0.2s0.3-0.1,0.5-0.1
			c0.1,0,0.3,0,0.4,0.1s0.2,0.1,0.3,0.2s0.2,0.2,0.3,0.2s0.2,0.1,0.3,0.3v-3.1h1.2v8.7h-1.2V86c-0.2,0.2-0.4,0.4-0.6,0.5
			S60.5,86.6,60.2,86.6z M60.5,85.6c0.3,0,0.6-0.1,0.9-0.2v-3.9c-0.3-0.2-0.6-0.2-0.9-0.2c-0.1,0-0.2,0-0.3,0.1s-0.1,0.1-0.2,0.3
			s-0.1,0.2-0.1,0.4s0,0.3,0,0.4c0,0.7,0,1.3,0,1.7c0,0.2,0,0.4,0,0.6S60,85,60,85.1s0.1,0.3,0.2,0.3S60.4,85.6,60.5,85.6z"/>
		<path fill="#FFFFFF" d="M67.5,86.6c-0.3,0-0.6-0.1-0.8-0.2s-0.4-0.2-0.5-0.4s-0.2-0.4-0.3-0.6s-0.1-0.5-0.2-0.8s0-0.5-0.1-0.9
			c0-0.3,0-0.5,0-0.8c0-0.3,0-0.6,0.1-0.9s0.1-0.5,0.2-0.8s0.2-0.5,0.3-0.6s0.3-0.3,0.5-0.4s0.5-0.2,0.8-0.2c0.7,0,1.1,0.2,1.4,0.5
			s0.4,0.9,0.5,1.6v0.2h-1.2v-0.2c0-0.2,0-0.3,0-0.4s0-0.2-0.1-0.4s-0.1-0.2-0.2-0.3s-0.2-0.1-0.3-0.1s-0.2,0-0.3,0.1
			S67,81.4,67,81.6s-0.1,0.3-0.1,0.4s0,0.3,0,0.5c0,0.4,0,1,0,1.8c0,0.2,0,0.3,0,0.5s0.1,0.3,0.1,0.4s0.1,0.2,0.2,0.3
			s0.2,0.1,0.3,0.1c0.1,0,0.2,0,0.3-0.1s0.1-0.1,0.2-0.2s0.1-0.1,0.1-0.2s0-0.2,0-0.3s0-0.2,0-0.3v-0.2h1.2v0.2
			c0,0.3-0.1,0.6-0.1,0.9S69,85.8,68.9,86s-0.3,0.3-0.6,0.4S67.8,86.6,67.5,86.6z"/>
		<path fill="#FFFFFF" d="M71.2,86.6c-0.3,0-0.6-0.2-0.9-0.5s-0.4-0.6-0.4-1c0-0.3,0.1-0.6,0.2-0.8s0.2-0.4,0.3-0.6s0.3-0.3,0.6-0.5
			s0.5-0.3,0.6-0.3s0.4-0.2,0.7-0.3c0.1,0,0.1,0,0.1-0.1v-0.4c0-0.3,0-0.6-0.1-0.7s-0.3-0.3-0.5-0.3c-0.2,0-0.4,0.1-0.5,0.2
			s-0.1,0.4-0.2,0.6c0,0,0,0.1,0,0.2H70c0-0.6,0.2-1.1,0.5-1.4s0.8-0.5,1.4-0.5c0.6,0,1,0.2,1.4,0.5s0.5,0.8,0.5,1.4V85
			c0,0.7,0.1,1.2,0.2,1.6h-1.2l-0.2-0.9c-0.1,0.1-0.1,0.2-0.2,0.3s-0.1,0.2-0.2,0.3s-0.2,0.2-0.2,0.2s-0.2,0.1-0.3,0.1
			S71.4,86.6,71.2,86.6z M71.8,85.6c0.1,0,0.2,0,0.3-0.1s0.1-0.1,0.2-0.2s0.1-0.1,0.2-0.2c0,0,0,0,0,0v-1.7c-0.1,0-0.1,0.1-0.3,0.2
			s-0.2,0.1-0.3,0.2s-0.2,0.1-0.3,0.2s-0.2,0.2-0.2,0.2s-0.1,0.2-0.1,0.3s-0.1,0.2-0.1,0.3C71.2,85.3,71.4,85.6,71.8,85.6z"/>
		<path fill="#FFFFFF" d="M76.4,86.6c-0.3,0-0.6-0.1-0.8-0.2s-0.4-0.2-0.5-0.4s-0.2-0.4-0.3-0.6s-0.1-0.5-0.2-0.8s0-0.5-0.1-0.9
			c0-0.3,0-0.5,0-0.8c0-0.3,0-0.6,0.1-0.9s0.1-0.5,0.2-0.8s0.2-0.5,0.3-0.6s0.3-0.3,0.5-0.4s0.5-0.2,0.8-0.2c0.7,0,1.1,0.2,1.4,0.5
			s0.4,0.9,0.5,1.6v0.2H77v-0.2c0-0.2,0-0.3,0-0.4s0-0.2-0.1-0.4s-0.1-0.2-0.2-0.3s-0.2-0.1-0.3-0.1s-0.2,0-0.3,0.1
			s-0.1,0.2-0.2,0.3s-0.1,0.3-0.1,0.4s0,0.3,0,0.5c0,0.4,0,1,0,1.8c0,0.2,0,0.3,0,0.5s0.1,0.3,0.1,0.4s0.1,0.2,0.2,0.3
			s0.2,0.1,0.3,0.1c0.1,0,0.2,0,0.3-0.1s0.1-0.1,0.2-0.2s0.1-0.1,0.1-0.2s0-0.2,0-0.3s0-0.2,0-0.3v-0.2h1.2v0.2
			c0,0.3-0.1,0.6-0.1,0.9s-0.2,0.5-0.3,0.7s-0.3,0.3-0.6,0.4S76.7,86.6,76.4,86.6z"/>
		<path fill="#FFFFFF" d="M79,86.5v-8.8h1.2v3.2c0.2-0.2,0.3-0.3,0.5-0.4s0.3-0.2,0.5-0.3s0.4-0.1,0.7-0.1c0.3,0,0.5,0.1,0.6,0.3
			s0.2,0.4,0.2,0.7v5.3h-1.2v-4.7c0-0.2,0-0.4-0.1-0.5s-0.2-0.2-0.3-0.2c-0.3,0-0.5,0.1-0.8,0.4v4.9H79z"/>
		<path fill="#FFFFFF" d="M85.6,86.6c-0.3,0-0.6-0.1-0.8-0.2c-0.2-0.1-0.4-0.2-0.5-0.4s-0.2-0.4-0.3-0.6c-0.1-0.3-0.1-0.5-0.2-0.8
			c0-0.3,0-0.6-0.1-0.9c0-0.3,0-0.5,0-0.8c0-0.3,0-0.6,0.1-0.9s0.1-0.5,0.2-0.7c0.1-0.2,0.2-0.4,0.3-0.6c0.1-0.2,0.3-0.3,0.5-0.4
			s0.5-0.1,0.8-0.1c0.3,0,0.5,0,0.7,0.1c0.2,0.1,0.4,0.2,0.5,0.3c0.1,0.1,0.2,0.3,0.3,0.5c0.1,0.2,0.2,0.4,0.2,0.6
			c0,0.2,0.1,0.5,0.1,0.7c0,0.2,0,0.5,0,0.8v0.1H85v0.3c0,0,0,0.1,0,0.2c0,0.1,0,0.2,0,0.4s0,0.3,0,0.4c0,0.1,0,0.2,0.1,0.4
			s0.1,0.2,0.1,0.3c0,0.1,0.1,0.2,0.2,0.2c0.1,0,0.2,0.1,0.3,0.1c0.1,0,0.2,0,0.3-0.1c0.1-0.1,0.1-0.1,0.2-0.2
			c0-0.1,0.1-0.2,0.1-0.3c0-0.1,0-0.2,0-0.4v-0.3h1.2v0.2c0,0.7-0.2,1.2-0.5,1.5C86.7,86.4,86.2,86.6,85.6,86.6z M85,82.8h1.2v-0.4
			c0-0.2,0-0.3,0-0.4c0-0.1,0-0.2-0.1-0.4c0-0.1-0.1-0.2-0.2-0.3c-0.1-0.1-0.2-0.1-0.3-0.1c-0.1,0-0.2,0-0.3,0.1
			c-0.1,0.1-0.2,0.2-0.2,0.3c0,0.1-0.1,0.3-0.1,0.4c0,0.1,0,0.3,0,0.4V82.8z"/>
		<path fill="#FFFFFF" d="M90,86.6c-0.5,0-0.9-0.2-1.2-0.5c-0.3-0.3-0.5-0.7-0.6-1.2l0.9-0.3c0.2,0.6,0.5,0.9,0.9,0.9
			c0.2,0,0.4-0.1,0.5-0.2c0.1-0.1,0.2-0.3,0.2-0.5c0-0.3-0.1-0.5-0.3-0.7l-1.2-0.9c-0.1-0.1-0.3-0.2-0.4-0.3
			c-0.1-0.1-0.2-0.2-0.3-0.3s-0.2-0.3-0.2-0.4c-0.1-0.1-0.1-0.3-0.1-0.5c0-0.5,0.2-0.9,0.5-1.2c0.3-0.3,0.8-0.4,1.4-0.4
			c0.3,0,0.5,0,0.7,0.1c0.2,0.1,0.4,0.2,0.5,0.4c0.1,0.2,0.3,0.3,0.4,0.5c0.1,0.2,0.2,0.4,0.2,0.6L91,82.2c0-0.1-0.1-0.2-0.1-0.3
			c0-0.1-0.1-0.2-0.2-0.3c-0.1-0.1-0.2-0.2-0.3-0.2c-0.1-0.1-0.2-0.1-0.3-0.1c-0.2,0-0.4,0.1-0.5,0.2c-0.1,0.1-0.2,0.3-0.2,0.5
			c0,0.2,0.1,0.4,0.3,0.5l1.2,0.9c0.1,0.1,0.3,0.2,0.4,0.3c0.1,0.1,0.2,0.2,0.3,0.4c0.1,0.1,0.2,0.3,0.2,0.5s0.1,0.3,0.1,0.5
			c0,0.5-0.2,0.9-0.5,1.2C91.1,86.5,90.6,86.6,90,86.6z"/>
		<path fill="#FFFFFF" d="M94.8,79.3v-1.2H96v1.2H94.8z M94.8,86.5v-6.2H96v6.2H94.8z"/>
		<path fill="#FFFFFF" d="M97.2,86.5v-6.2h1.2v0.7c0.2-0.2,0.3-0.3,0.5-0.4s0.3-0.2,0.5-0.3c0.2-0.1,0.4-0.1,0.7-0.1
			c0.3,0,0.5,0.1,0.6,0.3s0.2,0.4,0.2,0.7v5.3h-1.2v-4.7c0-0.2,0-0.4-0.1-0.5c-0.1-0.1-0.2-0.1-0.4-0.1c-0.1,0-0.2,0-0.3,0.1
			c-0.1,0-0.2,0.1-0.2,0.1c-0.1,0-0.1,0.1-0.2,0.2v4.9H97.2z"/>
		<path fill="#FFFFFF" d="M105.2,86.6c-0.3,0-0.6-0.2-0.9-0.5c-0.2-0.3-0.4-0.6-0.4-1c0-0.3,0.1-0.6,0.2-0.8s0.2-0.4,0.3-0.6
			c0.1-0.1,0.3-0.3,0.6-0.5c0.3-0.2,0.5-0.3,0.6-0.3s0.4-0.2,0.7-0.3c0.1,0,0.1,0,0.1-0.1v-0.4c0-0.3,0-0.6-0.1-0.7
			s-0.3-0.3-0.5-0.3c-0.2,0-0.4,0.1-0.5,0.2s-0.1,0.4-0.2,0.6c0,0,0,0.1,0,0.2h-1.2c0-0.6,0.2-1.1,0.5-1.4c0.3-0.4,0.8-0.5,1.4-0.5
			c0.6,0,1,0.2,1.4,0.5c0.3,0.4,0.5,0.8,0.5,1.4V85c0,0.7,0.1,1.2,0.2,1.6h-1.2l-0.2-0.9c-0.1,0.1-0.1,0.2-0.2,0.3
			c0,0.1-0.1,0.2-0.2,0.3s-0.2,0.2-0.2,0.2s-0.2,0.1-0.3,0.1S105.3,86.6,105.2,86.6z M105.8,85.6c0.1,0,0.2,0,0.3-0.1
			s0.1-0.1,0.2-0.2c0,0,0.1-0.1,0.2-0.2c0,0,0,0,0,0v-1.7c-0.1,0-0.1,0.1-0.3,0.2c-0.1,0.1-0.2,0.1-0.3,0.2c-0.1,0-0.2,0.1-0.3,0.2
			c-0.1,0.1-0.2,0.2-0.2,0.2c-0.1,0.1-0.1,0.2-0.1,0.3c0,0.1-0.1,0.2-0.1,0.3C105.2,85.3,105.4,85.6,105.8,85.6z"/>
		<path fill="#FFFFFF" d="M111.5,86.5v-6.9h-0.9v-0.9c0.6-0.2,1-0.5,1.2-0.9h0.9v8.8H111.5z"/>
		<path fill="#FFFFFF" d="M115.9,86.6c-0.8,0-1.3-0.2-1.7-0.7s-0.5-1.1-0.5-1.9h1.2v0.2c0,0.2,0,0.3,0,0.4c0,0.1,0,0.2,0.1,0.4
			s0.1,0.2,0.1,0.3c0.1,0.1,0.1,0.1,0.2,0.2c0.1,0.1,0.2,0.1,0.4,0.1c0.1,0,0.2,0,0.3,0s0.2-0.1,0.2-0.1c0.1,0,0.1-0.1,0.2-0.2
			c0.1-0.1,0.1-0.2,0.1-0.2s0.1-0.2,0.1-0.3c0-0.1,0-0.2,0.1-0.3c0-0.1,0-0.2,0-0.3c0-0.1,0-0.3,0-0.3s0-0.2,0-0.4
			c0-0.1,0-0.1,0-0.2c0-0.1,0-0.3,0-0.4c0-0.1,0-0.2,0-0.3s0-0.2-0.1-0.3c0-0.1-0.1-0.2-0.1-0.2c0-0.1-0.1-0.1-0.2-0.2
			c-0.1,0-0.1-0.1-0.2-0.1c-0.1,0-0.2,0-0.3,0c-0.2,0-0.4,0.1-0.6,0.2c-0.2,0.1-0.3,0.3-0.4,0.5H114v-4.7h3.9V79h-2.7l-0.1,2.1
			c0.4-0.2,0.8-0.3,1.2-0.3c0.3,0,0.5,0,0.8,0.1c0.2,0.1,0.4,0.2,0.5,0.4c0.1,0.1,0.3,0.3,0.3,0.6c0.1,0.2,0.2,0.5,0.2,0.7
			c0,0.2,0.1,0.5,0.1,0.8c0,0.4,0,0.7-0.1,1s-0.1,0.6-0.2,0.9c-0.1,0.3-0.2,0.5-0.4,0.7c-0.2,0.2-0.4,0.3-0.6,0.5
			C116.6,86.6,116.3,86.6,115.9,86.6z"/>
		<path fill="#FFFFFF" d="M27.2,98.5v-6.2h1.2V93c0.4-0.5,1-0.8,1.6-0.8c0.3,0,0.5,0.1,0.7,0.2s0.2,0.3,0.3,0.6
			c0.2-0.3,0.4-0.5,0.7-0.6s0.5-0.2,0.9-0.2c0.1,0,0.2,0,0.3,0s0.2,0,0.2,0.1s0.1,0.1,0.2,0.1s0.1,0.1,0.1,0.2s0.1,0.1,0.1,0.2
			s0,0.2,0,0.2s0,0.2,0,0.3c0,0.1,0,0.2,0,0.3s0,0.2,0,0.3c0,0,0,0.1,0,0.1v4.5h-1.2V94c0,0,0,0,0-0.1c0-0.1,0-0.2,0-0.2
			s0-0.1,0-0.2c0-0.1,0-0.1-0.1-0.2c0,0-0.1-0.1-0.2-0.1c-0.1,0-0.3,0-0.4,0.1c-0.1,0-0.2,0.1-0.3,0.1c-0.1,0-0.2,0.1-0.3,0.2v4.9
			h-1.2V94c0,0,0,0,0-0.1c0-0.1,0-0.2,0-0.2c0,0,0-0.1,0-0.2s0-0.1,0-0.2c0,0-0.1-0.1-0.1-0.1s-0.1,0-0.2,0c-0.3,0-0.6,0.1-0.9,0.4
			v4.9H27.2z"/>
		<path fill="#FFFFFF" d="M34.6,91.3v-1.2h1.2v1.2H34.6z M34.6,98.5v-6.2h1.2v6.2H34.6z"/>
		<path fill="#FFFFFF" d="M37.1,98.5v-8.7h1.2v8.7H37.1z"/>
		<path fill="#FFFFFF" d="M41.2,98.6c-0.3,0-0.6-0.1-0.8-0.2c-0.2-0.1-0.4-0.2-0.5-0.4c-0.1-0.2-0.2-0.4-0.3-0.6
			c-0.1-0.3-0.1-0.5-0.2-0.8c0-0.3,0-0.6-0.1-0.9c0-0.3,0-0.5,0-0.8c0-0.3,0-0.6,0.1-0.9c0-0.3,0.1-0.5,0.2-0.7
			c0.1-0.2,0.2-0.4,0.3-0.6s0.3-0.3,0.5-0.4s0.5-0.1,0.8-0.1c0.3,0,0.5,0,0.7,0.1s0.4,0.2,0.5,0.3s0.2,0.3,0.3,0.5
			c0.1,0.2,0.2,0.4,0.2,0.6c0,0.2,0.1,0.5,0.1,0.7c0,0.2,0,0.5,0,0.8v0.1h-2.5v0.3c0,0,0,0.1,0,0.2c0,0.1,0,0.2,0,0.4
			c0,0.1,0,0.3,0,0.4c0,0.1,0,0.2,0.1,0.4s0.1,0.2,0.1,0.3c0,0.1,0.1,0.2,0.2,0.2s0.2,0.1,0.3,0.1c0.1,0,0.2,0,0.3-0.1
			c0.1-0.1,0.1-0.1,0.2-0.2c0-0.1,0.1-0.2,0.1-0.3c0-0.1,0-0.2,0-0.4v-0.3h1.2v0.2c0,0.7-0.2,1.2-0.5,1.5S41.8,98.6,41.2,98.6z
			 M40.6,94.8h1.2v-0.4c0-0.2,0-0.3,0-0.4c0-0.1,0-0.2-0.1-0.4c0-0.1-0.1-0.2-0.2-0.3c-0.1-0.1-0.2-0.1-0.3-0.1
			c-0.1,0-0.2,0-0.3,0.1s-0.1,0.2-0.2,0.3c0,0.1-0.1,0.3-0.1,0.4c0,0.1,0,0.3,0,0.4V94.8z"/>
		<path fill="#FFFFFF" d="M47.1,98.6c-0.3,0-0.6-0.2-0.9-0.5c-0.2-0.3-0.4-0.6-0.4-1c0-0.3,0.1-0.6,0.2-0.8c0.1-0.2,0.2-0.4,0.3-0.6
			c0.1-0.1,0.3-0.3,0.6-0.5c0.3-0.2,0.5-0.3,0.6-0.3s0.4-0.2,0.7-0.3c0.1,0,0.1,0,0.1-0.1v-0.4c0-0.3,0-0.6-0.1-0.7
			c-0.1-0.2-0.3-0.3-0.5-0.3c-0.2,0-0.4,0.1-0.5,0.2c-0.1,0.1-0.1,0.4-0.2,0.6c0,0,0,0.1,0,0.2h-1.2c0-0.6,0.2-1.1,0.5-1.4
			s0.8-0.5,1.4-0.5c0.6,0,1,0.2,1.4,0.5c0.3,0.4,0.5,0.8,0.5,1.4V97c0,0.7,0.1,1.2,0.2,1.6h-1.2l-0.2-0.9c-0.1,0.1-0.1,0.2-0.2,0.3
			c0,0.1-0.1,0.2-0.2,0.3c-0.1,0.1-0.2,0.2-0.2,0.2c-0.1,0.1-0.2,0.1-0.3,0.1C47.4,98.6,47.3,98.6,47.1,98.6z M47.7,97.6
			c0.1,0,0.2,0,0.3-0.1c0.1-0.1,0.1-0.1,0.2-0.2s0.1-0.1,0.2-0.2c0,0,0,0,0,0v-1.7c-0.1,0-0.1,0.1-0.3,0.2c-0.1,0.1-0.2,0.1-0.3,0.2
			c-0.1,0-0.2,0.1-0.3,0.2s-0.2,0.2-0.2,0.2c-0.1,0.1-0.1,0.2-0.1,0.3c0,0.1-0.1,0.2-0.1,0.3C47.1,97.3,47.3,97.6,47.7,97.6z"/>
		<path fill="#FFFFFF" d="M50.7,98.5v-6.2h1.2v0.8c0.1-0.2,0.3-0.5,0.6-0.6s0.5-0.3,0.8-0.3c0,0,0.1,0,0.2,0v1.4
			c-0.2-0.1-0.5-0.1-0.7-0.1c-0.3,0-0.5,0.1-0.6,0.2s-0.2,0.4-0.2,0.6v4.2H50.7z"/>
		<path fill="#FFFFFF" d="M55.8,98.6c-0.3,0-0.6-0.1-0.8-0.2c-0.2-0.1-0.4-0.2-0.5-0.4c-0.1-0.2-0.2-0.4-0.3-0.6
			c-0.1-0.3-0.1-0.5-0.2-0.8c0-0.3,0-0.6-0.1-0.9c0-0.3,0-0.5,0-0.8c0-0.3,0-0.6,0.1-0.9c0-0.3,0.1-0.5,0.2-0.7
			c0.1-0.2,0.2-0.4,0.3-0.6s0.3-0.3,0.5-0.4s0.5-0.1,0.8-0.1c0.3,0,0.5,0,0.7,0.1s0.4,0.2,0.5,0.3s0.2,0.3,0.3,0.5
			c0.1,0.2,0.2,0.4,0.2,0.6c0,0.2,0.1,0.5,0.1,0.7c0,0.2,0,0.5,0,0.8v0.1h-2.5v0.3c0,0,0,0.1,0,0.2c0,0.1,0,0.2,0,0.4
			c0,0.1,0,0.3,0,0.4c0,0.1,0,0.2,0.1,0.4s0.1,0.2,0.1,0.3c0,0.1,0.1,0.2,0.2,0.2s0.2,0.1,0.3,0.1c0.1,0,0.2,0,0.3-0.1
			c0.1-0.1,0.1-0.1,0.2-0.2c0-0.1,0.1-0.2,0.1-0.3c0-0.1,0-0.2,0-0.4v-0.3h1.2v0.2c0,0.7-0.2,1.2-0.5,1.5S56.4,98.6,55.8,98.6z
			 M55.2,94.8h1.2v-0.4c0-0.2,0-0.3,0-0.4c0-0.1,0-0.2-0.1-0.4c0-0.1-0.1-0.2-0.2-0.3c-0.1-0.1-0.2-0.1-0.3-0.1
			c-0.1,0-0.2,0-0.3,0.1s-0.1,0.2-0.2,0.3c0,0.1-0.1,0.3-0.1,0.4c0,0.1,0,0.3,0,0.4V94.8z"/>
		<path fill="#FFFFFF" d="M59.7,98.6c-0.3,0-0.6-0.2-0.9-0.5c-0.2-0.3-0.4-0.6-0.4-1c0-0.3,0.1-0.6,0.2-0.8c0.1-0.2,0.2-0.4,0.3-0.6
			c0.1-0.1,0.3-0.3,0.6-0.5c0.3-0.2,0.5-0.3,0.6-0.3s0.4-0.2,0.7-0.3c0.1,0,0.1,0,0.1-0.1v-0.4c0-0.3,0-0.6-0.1-0.7
			c-0.1-0.2-0.3-0.3-0.5-0.3c-0.2,0-0.4,0.1-0.5,0.2c-0.1,0.1-0.1,0.4-0.2,0.6c0,0,0,0.1,0,0.2h-1.2c0-0.6,0.2-1.1,0.5-1.4
			s0.8-0.5,1.4-0.5c0.6,0,1,0.2,1.4,0.5c0.3,0.4,0.5,0.8,0.5,1.4V97c0,0.7,0.1,1.2,0.2,1.6h-1.2l-0.2-0.9c-0.1,0.1-0.1,0.2-0.2,0.3
			c0,0.1-0.1,0.2-0.2,0.3c-0.1,0.1-0.2,0.2-0.2,0.2c-0.1,0.1-0.2,0.1-0.3,0.1C59.9,98.6,59.8,98.6,59.7,98.6z M60.3,97.6
			c0.1,0,0.2,0,0.3-0.1c0.1-0.1,0.1-0.1,0.2-0.2s0.1-0.1,0.2-0.2c0,0,0,0,0,0v-1.7c-0.1,0-0.1,0.1-0.3,0.2c-0.1,0.1-0.2,0.1-0.3,0.2
			c-0.1,0-0.2,0.1-0.3,0.2s-0.2,0.2-0.2,0.2c-0.1,0.1-0.1,0.2-0.1,0.3c0,0.1-0.1,0.2-0.1,0.3C59.7,97.3,59.9,97.6,60.3,97.6z"/>
		<path fill="#FFFFFF" d="M63,98.5v-1.2h1.2v1.2H63z"/>
	</g>
	<g>
	</g>
	<g>
	</g>
	<g>
	</g>
	<g>
	</g>
	<g>
	</g>
	<g>
	</g>
</g>
</svg>
