<?xml version="1.0" encoding="utf-8"?>
<!-- Generator: Adobe Illustrator 19.1.0, SVG Export Plug-In . SVG Version: 6.00 Build 0)  -->
<svg version="1.1" xmlns="http://www.w3.org/2000/svg" xmlns:xlink="http://www.w3.org/1999/xlink" x="0px" y="0px" width="288px"
	 height="288px" viewBox="0 0 288 288" enable-background="new 0 0 288 288" xml:space="preserve">
<g id="bck">
	<path opacity="0.39" fill="#FFFFFF" d="M205.5,199.2c-0.2-0.1-0.5-0.3-0.8-0.4c-2.7-1.5-5.3-3-8.1-4.5c-0.3-0.1-0.5-0.3-0.8-0.4
		c-9.9-5.2-20.6-10.2-33.2-14.3c-3.3-1.1-6.6-2.1-9.8-2.9c-1.6-0.4-3.1-0.8-4.6-1.1c-0.1,0-0.3-0.1-0.4-0.1c-4.3-0.9-8.4-1.6-12.5-2
		c-1.7-0.2-3.4-0.3-5.1-0.4c-0.8-0.1-1.7-0.1-2.5-0.1h0c-1.6-0.1-3.1-0.1-4.6-0.1H123c-0.5,0-1,0-1.5,0h-0.4c-0.1,0-0.3,0-0.4,0
		c-0.3,0-0.6,0-0.9,0c-0.3,0-0.6,0-0.8,0c-3.8,0.1-7.5,0.5-11.1,1c-0.2,0-0.4,0.1-0.6,0.1c-0.2,0-0.4,0.1-0.6,0.1
		c-1.6,0.3-3.2,0.5-4.7,0.9c-0.1,0-0.2,0-0.3,0.1c-0.1,0-0.1,0-0.2,0c-2,0.4-3.9,0.9-5.8,1.4c-0.1,0-0.1,0-0.2,0
		C79.7,180.9,70,167.2,65,159C39,117.1,55,53.7,106.1,54c12.4,0.1,23.8,1.3,34.2,3.5c26.3,5.5,47,17.1,63.1,33.1
		c20.4,20.2,33.6,47.2,41.6,77.1C253.7,200.1,242.9,220,205.5,199.2z"/>
</g>
<g id="body">
	<path fill="#8D5738" d="M208.7,165c-0.9,12-2.2,24.7-3.2,34.2c-0.2-0.1-0.5-0.3-0.8-0.4c-2.7-1.5-5.3-3-8.1-4.5
		c-0.3-0.1-0.5-0.3-0.8-0.4c-9.9-5.2-20.6-10.2-33.2-14.3c-3.3-1.1-6.6-2.1-9.8-2.9c-1.6-0.4-3.1-0.8-4.6-1.1
		c-0.1,0-0.3-0.1-0.4-0.1c-4.3-0.9-8.4-1.6-12.5-2c-1.7-0.2-3.4-0.3-5.1-0.4c-0.8-0.1-1.7-0.1-2.5-0.1h0c-1.6-0.1-3.1-0.1-4.6-0.1
		H123c-0.5,0-1,0-1.5,0h-0.4c-0.1,0-0.3,0-0.4,0c-0.3,0-0.6,0-0.9,0c-0.3,0-0.6,0-0.8,0c-3.8,0.1-7.5,0.5-11.1,1
		c-0.2,0-0.4,0.1-0.6,0.1c-0.2,0-0.4,0.1-0.6,0.1c-1.6,0.3-3.2,0.5-4.7,0.9c-0.1,0-0.2,0-0.3,0.1c-0.1,0-0.1,0-0.2,0
		c-2,0.4-3.9,0.9-5.8,1.4c-1.1-3-2.4-6.4-3.7-10.2c-0.1-0.4-0.2-0.7-0.4-1.1c-0.6-1.9-1.3-3.8-1.9-5.7c-0.2-0.6-0.4-1.3-0.6-2
		c-1.3-4-2.6-8.3-3.8-12.6c-0.2-0.7-0.4-1.4-0.6-2.1c-0.4-1.4-0.7-2.7-1.1-4.1c-0.2-0.7-0.4-1.4-0.5-2.1c-0.2-1-0.5-2-0.7-3
		c-0.3-1.3-0.6-2.5-0.8-3.8c0-0.2-0.1-0.4-0.1-0.7c-0.8-4-1.6-7.9-2.1-11.7c0-0.1,0-0.2,0-0.3c-0.1-1.1-0.3-2.2-0.4-3.2
		c0-0.1,0-0.2,0-0.2c-0.2-1.5-0.3-2.9-0.4-4.3c0,0,0-0.1,0-0.1c-0.2-3.7-0.3-7.1,0-10.1c0.1-0.6,0.1-1.2,0.2-1.8
		c0.1-0.6,0.2-1.2,0.3-1.7c0.1-0.3,0.1-0.6,0.2-0.8c0.1-0.5,0.3-1.1,0.4-1.6c0.1-0.5,0.3-1,0.5-1.5c0.2-0.5,0.4-0.9,0.6-1.4
		c9.8-20.4,24.4-11.8,28.4-8.9c0.2-5.6,2.1-12.1,10-13.4c1.6-0.2,3-0.1,4.3,0.2c0.2-0.2,0.7-0.6,1.3-1.1c2.7-2.2,8.8-6.7,15.7-9.9
		c8-3.6,17.1-5.5,23.7,0c0,0,19.8-7,32.3,13.8c0.6,1,1.2,2.1,1.8,3.3c0.2,0.5,0.5,0.9,0.7,1.4c0.5,1,0.9,1.9,1.2,2.7
		c2,4.7,3,8.6,3.4,11.8c0.1,0.7,0.1,1.3,0.2,1.9c0.5,9.5-4.9,12.4-5.4,12.6c0,0,0,0,0,0s0,0,0,0c0,0,0,0.1,0.1,0.1
		c0.8,1.3,7.4,11.4,10.6,25.8C210.2,136.9,209.8,150.4,208.7,165z"/>
	<path fill="#D9BD8C" d="M161.8,100.8c0,6.6-4.9,12-10.9,12c-3.9,0-7.3-2.2-9.2-5.6c-1.1-1.9-1.7-4.1-1.7-6.4c0-6.6,4.9-12,10.9-12
		C156.9,88.7,161.8,94.1,161.8,100.8z"/>
	<path fill="#D9BD8C" d="M189.6,102.7c0,1.1-0.1,2.2-0.4,3.3c0,0,0,0,0,0c-1.3,5-5.5,8.7-10.5,8.7c-6,0-10.9-5.4-10.9-12
		c0-6.6,4.9-12,10.9-12C184.7,90.7,189.6,96.1,189.6,102.7z"/>
	<path fill="#8D5738" d="M109.8,89.8c0,0,0,0.1,0,0.2C109.8,89.8,109.8,89.8,109.8,89.8C109.8,89.7,109.8,89.7,109.8,89.8z"/>
	<path fill="#8D5738" d="M117.2,98.1c0.1,0.1,0.2,0.2,0.4,0.3c-0.3-0.2-0.7-0.5-1-0.8C116.8,97.8,117,98,117.2,98.1z"/>
	<path fill="#8D5738" d="M131.2,76.5c0.1,0.3,0.2,0.5,0.4,0.8c0-0.1-0.1-0.3-0.2-0.4C131.4,76.8,131.3,76.6,131.2,76.5z"/>
	<path fill="#D9BD8C" d="M177.8,125.2c0.3,1.1,0.5,2.2,0.6,3.4c0,0.3,0.1,0.5,0.1,0.8c0,0,0,0.1,0,0.1c0,0.2,0,0.5,0.1,0.7l0,0.6
		c-14.2,20-27.2,1.9-30.2-2.7c0,0,0,0,0,0c0-0.2,0-0.3,0.1-0.5c0-0.1,0-0.1,0-0.2c0-0.1,0-0.3,0.1-0.4c0-0.2,0.1-0.4,0.1-0.7
		c0,0,0-0.1,0-0.1c0-0.2,0.1-0.5,0.2-0.7c-10.2-2.5-7.3-18.3-7.3-18.3c1.9,3.3,5.3,5.6,9.2,5.6c6,0,10.9-5.4,10.9-12
		c5-2.1,5.9,1.9,5.9,1.9c0,6.6,4.9,12,10.9,12c5,0,9.2-3.7,10.5-8.7C189,107.2,185.7,125.5,177.8,125.2z"/>
	<path fill="#592C1C" d="M178.7,131.3c-14.3,31.6-30.3-1.9-30.3-1.9c0-0.4,0.1-0.9,0.2-1.3c2.9,4.6,16,22.7,30.2,2.7
		C178.7,131,178.7,131.2,178.7,131.3z"/>
	<path fill="#D9BD8C" d="M178.7,132.1c0,11.5-6.8,20.8-15.2,20.8s-15.2-9.3-15.2-20.8c0-0.9,0-1.8,0.1-2.7c0,0,16,33.6,30.3,1.9
		C178.7,131.6,178.7,131.8,178.7,132.1z"/>
	<path fill="#592C1C" d="M159.8,117.7c0,0-0.2,0.3-0.4,0.8c-0.1,0.3-0.2,0.6-0.3,0.9c0,0.4-0.1,0.8,0.1,1.2c0.1,0.4,0.4,0.7,0.8,1
		c0.4,0.3,0.9,0.5,1.4,0.7c0.5,0.2,1.1,0.3,1.7,0.4c0.3,0.1,0.6,0.1,0.9,0.1c0.3,0,0.6,0.1,0.9,0.1c0.7,0,1.2,0.1,1.8,0
		c0.6,0,1.2-0.1,1.6-0.3c0.5-0.2,0.8-0.4,0.9-0.8c0.1-0.4,0-0.9-0.1-1.3c-0.3-0.9-0.7-1.6-1-2c-0.3-0.5-0.5-0.7-0.5-0.7
		s0.3,0.2,0.7,0.6c0.2,0.2,0.5,0.5,0.7,0.8c0.3,0.3,0.5,0.7,0.8,1.2c0.2,0.5,0.5,1,0.4,1.8c-0.1,0.3-0.2,0.7-0.5,1
		c-0.2,0.3-0.6,0.5-0.9,0.7c-0.6,0.3-1.3,0.4-2,0.5c-0.7,0.1-1.4,0-2,0c-0.4,0-0.7-0.1-1-0.1c-0.3-0.1-0.7-0.1-1-0.1
		c-0.7-0.1-1.3-0.3-1.9-0.5c-0.6-0.2-1.2-0.6-1.6-1c-0.2-0.2-0.4-0.5-0.6-0.7c-0.1-0.3-0.2-0.6-0.3-0.8c-0.1-0.6,0-1.1,0.2-1.4
		c0.1-0.4,0.3-0.7,0.5-0.9C159.5,117.9,159.8,117.7,159.8,117.7z"/>
	<path fill="none" d="M128,71.5c-3,3.1-6.1,6.8-9.2,11.4c-0.8,1.2-1.7,2.6-2.5,3.9l-5.5,4.8c0,0,0,0,0,0"/>
	<path fill="none" d="M149,125.6c-1.1-0.3-2.3-0.9-3.4-1.6"/>
	<g>
		<path fill="#D9BD8C" d="M133.8,130.1c0,0,5.1-9.6,6,7.7L133.8,130.1z"/>
		<path fill="#3E2711" d="M133.8,130.1c0,0,0.1-0.2,0.2-0.6c0.2-0.4,0.5-1,1-1.6c0.3-0.3,0.6-0.6,1.1-0.8c0.2-0.1,0.5-0.2,0.9-0.1
			c0.3,0,0.6,0.2,0.9,0.3c0.5,0.4,0.8,0.8,1,1.3c0.2,0.5,0.4,1,0.6,1.4c0.3,1,0.4,2,0.5,2.9c0.1,0.5,0.1,0.9,0.1,1.3
			c0,0.4,0,0.8,0,1.2c0,0.7-0.1,1.3-0.1,1.8c0,0.4-0.1,0.7-0.1,0.7s-0.1-0.2-0.2-0.7c-0.1-0.4-0.2-1-0.4-1.7
			c-0.1-0.7-0.3-1.5-0.5-2.4c-0.1-0.4-0.2-0.9-0.3-1.3c-0.1-0.4-0.2-0.9-0.3-1.3c-0.1-0.4-0.3-0.9-0.4-1.3c-0.2-0.4-0.4-0.7-0.6-0.9
			c-0.2-0.2-0.4-0.3-0.8-0.2c-0.3,0.1-0.6,0.3-0.9,0.5c-0.5,0.4-1,0.9-1.2,1.2C134,129.9,133.8,130.1,133.8,130.1z"/>
	</g>
	<path fill="none" d="M198,73.7c0,0,0,0.2,0,0.5"/>
	<line fill="none" x1="160.3" y1="101.7" x2="160.3" y2="101.7"/>
	<path fill="#B8A278" d="M109.8,89.8c0,0,0,0.1,0,0.2C109.8,89.8,109.8,89.8,109.8,89.8C109.8,89.7,109.8,89.7,109.8,89.8z"/>
	<path fill="#B8A278" d="M117.2,98.1c0.1,0.1,0.2,0.2,0.4,0.3c-0.3-0.2-0.7-0.5-1-0.8C116.8,97.8,117,98,117.2,98.1z"/>
	<path fill="#B8A278" d="M131.2,76.5c0.1,0.3,0.2,0.5,0.4,0.8c0-0.1-0.1-0.3-0.2-0.4C131.4,76.8,131.3,76.6,131.2,76.5z"/>
	<path fill="#A67458" d="M84.3,106.9c0.6,14.9,13.3,56.1,17.1,68.2c-2,0.4-3.9,0.9-5.8,1.4c-1.1-3-2.4-6.4-3.7-10.2
		c-0.1-0.4-0.2-0.7-0.4-1.1c-0.6-1.9-1.3-3.8-1.9-5.7c-0.2-0.6-0.4-1.3-0.6-2c-1.3-4-2.6-8.3-3.8-12.6l-0.6-2.1
		c-0.4-1.4-0.7-2.7-1.1-4.1c-0.2-0.7-0.4-1.4-0.5-2.1c-0.2-1-0.5-2-0.7-3c-0.3-1.3-0.6-2.5-0.8-3.8c0-0.2-0.1-0.4-0.1-0.7
		c-0.8-4-1.5-7.9-2.1-11.7c0-0.1,0-0.2,0-0.3c-0.1-1.1-0.3-2.2-0.4-3.2c0-0.1,0-0.2,0-0.2c-0.2-1.5-0.3-2.9-0.4-4.3c0,0,0-0.1,0-0.1
		c-0.2-3.7-0.3-7.1,0-10.1c0.1-0.6,0.1-1.2,0.2-1.8c0.1-0.6,0.2-1.2,0.3-1.7c0.1-0.3,0.1-0.6,0.2-0.8c0.1-0.5,0.3-1.1,0.4-1.6
		c0.1-0.5,0.3-1,0.5-1.5c0.2-0.5,0.4-0.9,0.6-1.4c9.8-20.4,24.4-11.8,28.4-8.9c-0.1,3.2,0.3,6.2,0.6,7.7c0,0.1,0,0.2,0.1,0.3
		c0,0.1,0,0.1,0.1,0.2c0,0,0,0.1,0,0.1C96.8,78.8,83.7,90.3,84.3,106.9z"/>
	<path fill="#A67458" d="M203.6,92.4c0-0.2,0-0.5,0-0.7C203.6,92,203.6,92.2,203.6,92.4c0.5,9.5-4.9,12.4-5.4,12.6
		c6.4-30.2-15.6-39.5-33.8-40.4c-7.7-10.7-26.3-0.9-37,6.2c-1.2-1.1-2.5-2-4-2.4c0.2-0.2,0.7-0.6,1.3-1.1c5.8-4.7,27-20.2,39.4-9.9
		c0,0,19.8-7,32.3,13.8c0.6,1,1.2,2.1,1.8,3.3c0.2,0.5,0.5,0.9,0.7,1.4c0,0,6.6-3.3,8.6,1C209.3,81.2,208.2,96.1,203.6,92.4z"/>
	<path fill="#A67458" d="M208.7,165c-0.9,12-2.2,24.7-3.2,34.2c-0.2-0.1-0.5-0.3-0.8-0.4c-2.7-1.5-5.3-3-8.1-4.5
		c-0.3-0.1-0.5-0.3-0.8-0.4c14.5-50.7,3.3-86.3,2.5-88.7c0.8,1.3,7.4,11.4,10.6,25.8C210.2,136.9,209.8,150.4,208.7,165z"/>
	<path fill="#D9BD8C" d="M206.2,81.6c-1.5,7.6,0.2,9.4-2.6,10.9c-0.2-3.9-1.3-8.8-4.2-15.2C199.4,77.3,207.7,74,206.2,81.6z"/>
	<path fill="#B8A278" d="M203.6,92.4c2.9-1.5,1.1-3.3,2.6-10.9c1.5-7.6-6.8-4.3-6.8-4.3c-0.2-0.4-0.4-0.8-0.6-1.3c0,0,6.6-3.3,8.6,1
		S208.1,96.1,203.6,92.4z"/>
</g>
<g id="glasses">
	<path opacity="0.78" fill="#FFFFFF" d="M161.8,100.8c0,6.6-4.9,12-10.9,12c-3.9,0-7.3-2.2-9.2-5.6c-1.1-1.9-1.7-4.1-1.7-6.4
		c0-6.6,4.9-12,10.9-12C156.9,88.7,161.8,94.1,161.8,100.8z"/>
	<path opacity="0.78" fill="#FFFFFF" d="M189.6,102.7c0,1.1-0.1,2.2-0.4,3.3c0,0,0,0,0,0c-1.3,5-5.5,8.7-10.5,8.7
		c-6,0-10.9-5.4-10.9-12c0-6.6,4.9-12,10.9-12C184.7,90.7,189.6,96.1,189.6,102.7z"/>
	<g>
		<path fill="#231F20" d="M199.4,77.3c-0.1-0.1-0.1-0.2-0.2-0.4c0,0,0,0,0,0c-0.1-0.1-0.1-0.3-0.2-0.4c0,0,0,0,0-0.1
			c0,0,0-0.1,0-0.1c0-0.1-0.1-0.2-0.1-0.3c-0.1-0.2-0.2-0.5-0.3-0.7c-0.1-0.2-0.2-0.5-0.3-0.7c-0.1-0.1-0.1-0.3-0.2-0.4
			c0,0.1,0,0.2,0,0.3c0,0.1,0,0.1,0,0.2c0,0.1,0,0.3,0,0.4c0,0.2,0,0.4,0,0.7c0,0.1,0,0.2,0,0.3c0,0.2,0,0.5,0,0.7
			c0,0.2,0,0.5-0.1,0.8c0,0.4-0.1,0.8-0.1,1.2c-0.1,0.6-0.1,1.2-0.2,1.9v0c0,0.5-0.1,1-0.2,1.5c0,0.1,0,0.3-0.1,0.4
			c0,0.2,0,0.3-0.1,0.5c-0.2,1.2-0.4,2.6-0.6,4c-0.1,0.4-0.2,0.9-0.3,1.3c0,0.1,0,0.1,0,0.2c-0.1,0.4-0.2,0.7-0.3,1
			c-0.1,0.4-0.2,0.7-0.3,1c0,0.1-0.1,0.2-0.1,0.3c-0.1,0.3-0.2,0.7-0.3,1c-0.2,0.4-0.3,0.9-0.5,1.3c-0.2,0.4-0.3,0.8-0.5,1.2
			c-0.8,1.8-1.6,3.3-2.2,4.4c-0.2,0.3-0.3,0.5-0.4,0.7c-0.1,0.2-0.3,0.4-0.4,0.6c-0.1,0.2-0.2,0.3-0.3,0.4c-0.1,0.1-0.2,0.2-0.2,0.3
			c-0.1,0.1-0.2,0.2-0.2,0.3c0,0,0,0.1-0.1,0.1c0,0,0,0,0-0.1c0,0,0-0.1,0-0.1c0,0,0-0.1,0-0.1c-0.1-0.6-0.4-1.9-1.1-3.4
			c-0.1-0.2-0.2-0.4-0.3-0.6c-0.1-0.1-0.1-0.3-0.2-0.4c-0.1-0.2-0.2-0.4-0.3-0.5c-0.1-0.2-0.2-0.4-0.3-0.6c-0.4-0.7-0.9-1.4-1.4-2
			c-0.1-0.1-0.2-0.2-0.3-0.3c-0.1-0.1-0.2-0.2-0.3-0.3c-0.3-0.3-0.6-0.6-1-0.8c-1.5-1.2-3.5-1.9-6-1.7c-0.3,0-0.6,0-0.8,0.1
			c-0.5,0.1-1,0.2-1.5,0.3c-0.2,0.1-0.5,0.1-0.7,0.2c-0.1,0-0.2,0.1-0.3,0.1c-0.3,0.1-0.6,0.2-0.8,0.3c-0.2,0.1-0.3,0.1-0.4,0.2
			c-0.6,0.3-1.1,0.6-1.6,1c-0.1,0.1-0.3,0.2-0.4,0.3c0,0,0,0,0,0.1c-0.1,0.1-0.3,0.2-0.4,0.3c-0.1,0.1-0.1,0.1-0.2,0.2c0,0,0,0,0,0
			c0,0,0,0,0,0c0,0,0,0-0.1,0.1c0,0,0,0,0,0c0,0-0.1,0.1-0.1,0.1c-0.1,0.1-0.3,0.3-0.4,0.4c-0.1,0.1-0.1,0.1-0.2,0.2c0,0,0,0,0,0
			c0,0,0,0,0,0c-0.1,0.1-0.1,0.1-0.2,0.2c0,0-0.1,0.1-0.1,0.1c0,0,0,0,0,0c0,0,0,0,0,0c0,0-0.1,0.1-0.1,0.1c0,0,0,0,0,0
			c0,0.1-0.1,0.1-0.1,0.2c-0.2,0.3-0.4,0.6-0.6,0.9c-0.1,0.2-0.2,0.3-0.3,0.5c-0.1,0.1-0.1,0.2-0.2,0.3c-0.1,0.1-0.2,0.3-0.2,0.4
			c-0.2,0.4-0.4,0.8-0.5,1.1c0,0.1-0.1,0.2-0.1,0.3c-0.2,0.4-0.3,0.8-0.3,1c0,0,0,0,0,0c0,0,0,0.1,0,0.1c0,0.1,0,0.1,0,0.2
			c0,0,0,0,0,0c0,0,0,0.1,0,0.1c0,0,0,0,0,0c0,0,0,0,0,0s0,0,0,0c0,0,0,0,0,0c0,0,0,0,0,0c-2.5-1-4.3-0.8-5.2-0.6
			c-0.3,0.1-0.5,0.1-0.5,0.1c0,0,0,0,0,0c0-0.1,0-0.2-0.1-0.4c0-0.2-0.1-0.5-0.2-0.8c-0.1-0.3-0.1-0.6-0.2-0.8
			c0-0.2-0.1-0.3-0.1-0.4c-0.1-0.4-0.3-0.9-0.5-1.3c0-0.1-0.1-0.3-0.2-0.5c0,0,0,0,0,0c-0.1-0.3-0.3-0.6-0.5-0.9c0,0,0,0,0,0
			c-0.2-0.3-0.3-0.6-0.5-0.9c-0.2-0.3-0.3-0.5-0.5-0.8c-0.1-0.2-0.3-0.4-0.4-0.5c-0.2-0.2-0.4-0.4-0.5-0.6c-0.2-0.2-0.4-0.4-0.6-0.6
			c-0.1-0.1-0.2-0.1-0.2-0.2c-0.1-0.1-0.2-0.2-0.3-0.3c-0.9-0.8-2-1.4-3.3-1.8c-0.1,0-0.2-0.1-0.3-0.1c0,0,0,0-0.1,0
			c-0.2-0.1-0.5-0.2-0.8-0.2c0,0,0,0-0.1,0c-0.1,0-0.2,0-0.3-0.1c-0.1,0-0.3,0-0.4-0.1c-0.2,0-0.5-0.1-0.8-0.1c-0.3,0-0.5,0-0.8,0
			c-0.2,0-0.5,0-0.7,0c-0.6,0-1.2,0.2-1.8,0.3c-0.2,0-0.4,0.1-0.6,0.2c-0.2,0.1-0.5,0.2-0.7,0.3c-0.3,0.1-0.5,0.2-0.8,0.4
			c-0.2,0.1-0.3,0.2-0.5,0.3c-0.9,0.6-1.8,1.2-2.5,2c-0.1,0.1-0.2,0.2-0.2,0.2c-0.2,0.2-0.4,0.4-0.5,0.6c-0.8,0.9-1.4,1.7-1.8,2.4
			c-0.1,0.2-0.2,0.3-0.3,0.5c-0.1,0.2-0.2,0.4-0.3,0.6c0,0.1-0.1,0.1-0.1,0.1c0,0,0,0,0,0c0,0,0,0,0,0c0,0,0-0.1-0.1-0.2
			c0,0,0-0.1-0.1-0.2c0,0,0-0.1,0-0.2c0-0.1-0.1-0.2-0.1-0.3c0,0,0,0,0,0c-0.2-0.6-0.6-1.6-1-2.7c-0.1-0.2-0.2-0.5-0.3-0.7l-0.2-0.6
			c0-0.1,0-0.1-0.1-0.2c-0.3-0.9-0.7-1.9-1.1-2.9c-0.2-0.6-0.5-1.2-0.7-1.8c-0.2-0.6-0.5-1.2-0.7-1.9c-0.5-1.3-1-2.7-1.6-3.9
			c-0.2-0.4-0.3-0.8-0.5-1.1c-0.1-0.1-0.1-0.3-0.2-0.4c-0.2-0.6-0.5-1.1-0.7-1.7c-0.1-0.3-0.2-0.5-0.3-0.8c-0.2-0.5-0.5-1-0.7-1.4
			c0,0,0,0,0,0c-0.2-0.4-0.4-0.8-0.6-1.2c-0.2-0.3-0.3-0.6-0.5-0.9c-0.1-0.1-0.2-0.3-0.3-0.4c-0.1-0.1-0.2-0.2-0.3-0.4
			c-0.1-0.1-0.2-0.3-0.3-0.4c-0.1-0.1-0.2-0.2-0.3-0.3c-0.2-0.2-0.4-0.4-0.6-0.6c-0.1-0.1-0.2-0.2-0.4-0.3c-0.1,0-0.1-0.1-0.2-0.1
			c-0.1,0-0.1-0.1-0.2-0.1c-0.1-0.1-0.2-0.1-0.3-0.2c-0.1-0.1-0.2-0.1-0.3-0.2c0,0,0,0-0.1,0c-0.2-0.1-0.5-0.3-0.7-0.4
			c-0.2-0.1-0.5-0.2-0.7-0.3c-0.2-0.1-0.4-0.2-0.6-0.2c-0.3-0.1-0.5-0.2-0.8-0.3c-0.4-0.1-0.8-0.2-1.2-0.3c-0.2,0-0.3-0.1-0.5-0.1
			c-0.1,0-0.3,0-0.4-0.1c-0.1,0-0.2,0-0.3,0c-0.1,0-0.2,0-0.4,0c-0.1,0-0.2,0-0.3,0c0,0-0.1,0-0.1,0h-0.1c0,0-0.1,0-0.1,0
			c-0.2,0-0.2,0-0.2,0l0,0c0,0,0,0,0,0c0,0,0,0,0,0l-3.7,0.7h0c-0.4,0.3-0.8,0.6-1.2,1c-1.6,1.6-2.4,3.6-2.9,5.3c0,0,0,0,0,0
			c-0.6,2.3-0.6,4.1-0.6,4.3l3-0.1c0,0,0-4.8,2.6-7.5c0.9-0.9,2-1.4,3.4-1.6h0.1c0.5-0.1,0.9-0.1,1.4-0.1c1.2,0,2.5,0.9,3.9,2.4
			c2.1,2.4,4.4,6.5,6.6,12c0.1,0.2,0.2,0.5,0.3,0.7c0,0,0,0,0,0c2.5,6.5,4.2,12.8,4.6,14.1v0c-0.1,0.5-0.1,0.9-0.1,1.4
			c0,2.6,0.7,5,1.9,7.2c0.3,0.5,0.7,1.1,1,1.5c2.3,3,5.8,4.8,9.5,4.8c6.5,0,11.9-5.5,12.4-12.4c0.9-0.2,1.7-0.2,2.2,0
			c0.5,0.3,0.8,0.8,0.8,1c0.1,7.3,5.6,13.3,12.4,13.3c3.6,0,6.9-1.7,9.2-4.4c1.3-1.5,2.3-3.3,2.8-5.4l0.1-0.2v-0.1
			c0.2-0.9,0.4-1.9,0.4-2.9c1.5-1.7,6.5-8.1,8.3-17.2v0c0.5-2.3,0.7-4.8,0.7-7.4v0C199.9,78.2,199.7,77.8,199.4,77.3z M169.2,102.7
			v-0.2c0-0.1,0-0.2,0-0.3v0c0-0.1,0-0.2,0-0.2c0,0,0-0.1,0-0.1c0,0,0,0,0,0c0,0,0-0.1,0-0.1v0c0.4-5.3,4.5-9.5,9.4-9.5
			c5.2,0,9.4,4.7,9.4,10.5v0.1c0.1,0.8,0.1,1.9-0.1,3.1c0,0.1,0,0.2-0.1,0.4c-0.1,0.6-0.3,1.2-0.5,1.8c-0.1,0.2-0.1,0.3-0.2,0.5
			c-0.1,0.1-0.1,0.3-0.2,0.4c-0.1,0.3-0.3,0.5-0.4,0.8c-0.1,0.2-0.2,0.3-0.3,0.5c-0.1,0.2-0.3,0.4-0.4,0.6c-0.1,0.1-0.2,0.2-0.2,0.3
			c-0.1,0.1-0.2,0.2-0.3,0.3c-0.2,0.2-0.3,0.3-0.5,0.5c-0.2,0.1-0.3,0.3-0.5,0.4c-0.1,0.1-0.3,0.2-0.4,0.3c-0.2,0.1-0.3,0.2-0.5,0.3
			c-0.2,0.1-0.4,0.2-0.5,0.3c-0.2,0.1-0.4,0.2-0.6,0.2c-0.2,0.1-0.4,0.2-0.7,0.2c-0.2,0.1-0.4,0.1-0.6,0.1c-0.2,0-0.5,0.1-0.7,0.1
			c-0.2,0-0.3,0-0.5,0.1c-0.5,0-1,0-1.6,0c-0.3,0-0.5,0-0.8-0.1c-0.4,0-0.9-0.1-1.3-0.2c-0.2-0.1-0.4-0.1-0.7-0.2
			c-0.4-0.1-0.8-0.3-1.1-0.4c-0.4-0.2-0.7-0.4-1-0.6c0,0,0,0,0,0c-0.1-0.1-0.3-0.2-0.4-0.3c0,0,0,0-0.1-0.1c0,0-0.1,0-0.1-0.1
			c-0.2-0.2-0.5-0.4-0.7-0.6c-0.4-0.4-0.7-0.8-0.9-1.2c-0.2-0.3-0.4-0.5-0.5-0.8c0,0,0,0,0,0c-0.2-0.3-0.3-0.6-0.4-0.9
			c-0.2-0.4-0.3-0.8-0.4-1.2c-0.1-0.2-0.1-0.4-0.2-0.6c0-0.2-0.1-0.3-0.1-0.5c0-0.2-0.1-0.3-0.1-0.5c0-0.2-0.1-0.4-0.1-0.5
			c0-0.2,0-0.4-0.1-0.5c0-0.1,0-0.3,0-0.4c0-0.2,0-0.4,0-0.5c0-0.1,0-0.3,0-0.4c0-0.2,0-0.3,0-0.4
			C169.2,102.8,169.2,102.7,169.2,102.7z M157.5,109.3c-0.2,0.2-0.3,0.4-0.5,0.5c-0.1,0.1-0.2,0.2-0.4,0.3c-0.2,0.1-0.4,0.3-0.6,0.4
			c-0.2,0.1-0.4,0.3-0.6,0.4c-0.2,0.1-0.5,0.3-0.7,0.4c-0.1,0-0.2,0.1-0.3,0.1c-0.2,0.1-0.3,0.1-0.5,0.2c-1.2,0.4-2.6,0.4-4.2,0.2
			c-0.2,0-0.4-0.1-0.5-0.1c-0.2,0-0.3-0.1-0.5-0.1c-0.2,0-0.3-0.1-0.5-0.1c-0.2-0.1-0.4-0.1-0.6-0.2c0,0-0.1,0-0.1,0
			c-0.2-0.1-0.4-0.2-0.6-0.2c-0.3-0.1-0.5-0.2-0.8-0.4c0,0,0,0,0,0c-0.5-0.3-0.9-0.6-1.3-0.9c-0.1-0.1-0.3-0.2-0.4-0.3
			c-0.2-0.2-0.4-0.4-0.6-0.6c-0.1-0.1-0.2-0.3-0.4-0.4c-0.1-0.1-0.2-0.3-0.3-0.5c0-0.1-0.1-0.2-0.2-0.2c0,0,0,0,0,0
			c-0.1-0.2-0.2-0.4-0.3-0.5c-0.1-0.2-0.2-0.4-0.3-0.6c-0.2-0.4-0.3-0.8-0.4-1.2c-0.1-0.5-0.2-0.9-0.3-1.4c0-0.2-0.1-0.4-0.1-0.6
			c0-0.1,0-0.3,0-0.4c0,0,0-0.1,0-0.1c0-0.1,0-0.2,0-0.2c0-0.8,0-1.4,0-1.6c0,0,0-0.1,0-0.1c0-5.8,4.2-10.5,9.4-10.5
			c5.2,0,9.4,4.7,9.4,10.5c0,0.3,0,0.7,0,1c0,0,0,0,0,0c0,0,0,0,0,0c0,0,0,0,0,0c0.1,0.3,0,1-0.1,1.9c0,0.2-0.1,0.4-0.1,0.5
			c0,0.2-0.1,0.4-0.1,0.6c0,0.1-0.1,0.2-0.1,0.3c0,0.1-0.1,0.3-0.1,0.4c-0.1,0.3-0.2,0.6-0.3,0.8c-0.2,0.4-0.4,0.8-0.6,1.2
			c-0.1,0.1-0.2,0.3-0.2,0.4C158.2,108.4,157.9,108.9,157.5,109.3z"/>
		<path fill="#464547" d="M198,74.2c-0.1,1.5-0.4,6.6-1.5,13c-1.4,7.8-6.1,14.2-6.1,14.2s-2-11.7-11.3-11.2
			c-9.3,0.6-11.1,10-11.1,10c-3.5-1.4-5.7-0.5-5.7-0.5c-0.6-3.8-3.4-10.8-10.8-11.4c-7.4-0.6-11.6,7.8-11.6,7.8s-5.8-16.5-8.9-22.3
			c-3.1-5.8-10-5.7-10-5.7l-3.7,0.7c1.6-1.1,3.6-1.7,5.9-1.6c0.5,0,1,0.1,1.5,0.2c4,1.1,7.9,6.4,11.8,16.1c1.6,3.9,2.8,7.7,3.7,10.6
			c2.2-4,6.2-6.8,10.8-6.8c6.2,0,11.4,5,12.3,11.5c1.3-0.2,2.5-0.1,3.5,0.4c1.4-5.7,6.3-10,12-10c5.7,0,10.4,4.1,11.9,9.8
			c3-4.3,7.5-16.9,5.8-27.7C196.9,72.2,197.5,73.1,198,74.2z"/>
	</g>
	<path fill="#464547" d="M149.7,111.8c-9.4-1.7-8.2-11.1-8.2-11.1c0,2,0.5,4,1.5,5.7c1.8,3,4.7,4.8,7.9,4.8c4.9,0,9-4.2,9.4-9.5
		C160.6,103.3,158.7,113.5,149.7,111.8z"/>
	<path fill="#464547" d="M178.1,113.8c-10-0.5-8.8-12.1-8.8-12.1c0,0.3,0,0.6,0,1c0,5.8,4.2,10.5,9.4,10.5c4.2,0,7.9-3.1,9.1-7.6
		l0-0.1c0.2-0.9,0.4-1.8,0.4-2.8C188.6,106,186.7,114.3,178.1,113.8z"/>
	<ellipse fill="#010101" cx="152.9" cy="100.8" rx="2.8" ry="6.4"/>
	<ellipse fill="#010101" cx="176.1" cy="102.7" rx="2.6" ry="6"/>
</g>
<g id="ear">
	<path fill="#B8A278" d="M131.5,81.6C131.5,81.6,131.6,81.6,131.5,81.6c0,0-2.9-10.7-9.4-11.3c-6.5-0.6-11.2,4.2-11.4,16.3
		c-0.2,12.1,17.5,14,17.5,14l-2.6,2.1c-4.3-0.2-15.4-9.4-16.1-13.5c-0.2-1.5-0.7-4.4-0.6-7.6c0.2-5.6,2.1-12.2,10-13.4
		c1.6-0.2,3-0.1,4.3,0.2c8.5,2.5,10.6,16.8,10.7,17.7C133.4,84.1,132.6,82.6,131.5,81.6z"/>
	<path fill="#D9BD8C" d="M128.3,100.6c0,0-17.7-1.9-17.5-14c0.2-12.1,4.9-16.9,11.4-16.3c6.5,0.6,9.4,11.3,9.4,11.3
		c-5.2-5.5-14.4,1-15.3,5.3C115.2,92,128.3,100.6,128.3,100.6z"/>
</g>
<g id="calculator">
	<g>
		<path fill="#ADAFB2" d="M162.6,167.3l-22.8-29.4c0,0,0,0,0,0h0l0,0v0l-4.2-5.4l-1.8-2.3l-14.2-18.4l-29.1,20.4l-0.5,0.3l-0.9,0.6
			v0l1.2,1.5v0l0.7,0.8l0,0v0l13,15.4l0.1,0.1l0.1,0.1v0h0c0,0,0,0,0,0l4.8,5.6c0,0,0,0,0,0c0,0,0,0,0,0l0.5,0.6l0.1,0.1
			c0,0,0,0,0,0l0.6,0.7c0,0,0,0,0,0l0,0h0l0.4,0.4c0,0,0,0,0,0l0.4,0.4l10,11.9l0,0v0l0.4,0.5l0,0l0.4,0.4v0h0c0,0,0,0,0,0l0.1,0.1
			c0.2,0.3,0.8,1,1.5,2c0.7,0.9,1.6,2.1,2.6,3.3c3.2,4,7.2,8.9,7.9,9c0.4,0.1,4.1-2.3,8.7-5.3c1.9-1.3,4-2.7,6.1-4.2
			c5.9-4.1,11.7-8.1,13.3-9.3L162.6,167.3L162.6,167.3C162.6,167.3,162.6,167.3,162.6,167.3C162.6,167.3,162.6,167.3,162.6,167.3
			L162.6,167.3z M104.7,144.4L104.7,144.4l-4.4-6.1l-2.3-3.2l-0.6-0.8l22.1-17.2l5,6.5l2.6,3.4h0l-0.6,0.5L104.7,144.4z"/>
		<path fill="#4F4F51" d="M162.9,171.3c-0.1,0.4-4.2,3.3-9.4,6.6c-2.2,1.5-4.6,3-7,4.5c-6,3.9-11.6,7.3-12.3,7.3
			c-0.3,0-2.8-2.5-6.4-6.4c-0.1-0.1-0.1-0.1-0.2-0.2c-0.1-0.1-0.1-0.1-0.2-0.2c-1.5-1.6-3.2-3.5-5-5.5c-0.9-1.1-1.9-2.2-2.9-3.3
			c-5.7-6.4-12.1-13.7-17.6-20c0,0,0,0,0,0c0,0,0,0,0,0c-3.7-4.3-7-8.1-9.2-10.8c-0.2-0.3-0.5-0.6-0.7-0.9c-1.4-1.7-2.3-2.8-2.4-3.1
			c-0.9-1.8-0.4-6.3-0.4-6.3l1.2,1.5l0.7,0.8l13,15.4l0.1,0.1l0.1,0.1l0,0l4.8,5.7c0,0,0,0,0,0c0,0,0,0,0,0l0.5,0.6l0.1,0.1
			c0,0,0,0,0,0l0.6,0.7c0,0,0,0,0,0l0,0h0l0.4,0.4l0.4,0.4l10,11.9l0,0l0.4,0.5l0,0l0.4,0.4l0,0l0.1,0.1l1.7,2l2.8,3.3l7.6,9
			l8.2-5.5l6.1-4.1l14.1-9.4l0.1,0l0,0h0c0,0,0,0,0,0C162.7,167.5,163.1,170.4,162.9,171.3z"/>
	</g>
	<polygon fill="#4F4F51" points="119.5,117.1 127.2,127 126.5,127.5 119.5,118.4 98,135.1 97.4,134.3 	"/>
	<polygon fill="#FFFFFF" points="119.5,118.4 126.5,127.5 104.7,144.4 98,135.1 	"/>
	<path fill="#81B441" d="M115.7,123.1c0,0,0-0.1,0.1-0.2c0-0.1,0-0.2,0.1-0.2c0,0,0-0.1,0-0.1c0,0,0.1-0.1,0.1-0.1
		c0.3-0.3,0.7-0.6,1.1-0.9c0.4-0.3,0.8-0.7,1.1-0.9c0,0,0.1-0.1,0.1-0.1c0.1,0,0.1,0,0.2,0c0.1,0,0.2,0,0.3,0c0.1,0,0.2,0,0.2,0
		s0,0.1-0.1,0.2c0,0.1,0,0.2-0.1,0.2c0,0,0,0.1,0,0.1c0,0.1-0.1,0.1-0.1,0.1c-0.3,0.3-0.7,0.6-1.1,0.9c-0.4,0.3-0.8,0.7-1.1,0.9
		c0,0-0.1,0.1-0.1,0.1c-0.1,0-0.1,0-0.2,0c-0.1,0-0.2,0-0.3,0C115.8,123.1,115.7,123.1,115.7,123.1z"/>
	<path fill="#81B441" d="M118.3,126.9c0,0,0-0.1,0.1-0.2c0-0.1,0-0.2,0.1-0.2c0,0,0-0.1,0-0.1c0,0,0.1-0.1,0.1-0.1
		c0.3-0.3,0.7-0.6,1.1-0.9c0.4-0.3,0.8-0.7,1.1-0.9c0,0,0.1-0.1,0.1-0.1c0.1,0,0.1,0,0.2,0c0.1,0,0.2,0,0.3,0c0.1,0,0.2,0,0.2,0
		s0,0.1-0.1,0.2c0,0.1,0,0.2-0.1,0.2c0,0,0,0.1,0,0.1c0,0.1-0.1,0.1-0.1,0.1c-0.3,0.3-0.7,0.6-1.1,0.9c-0.4,0.3-0.8,0.7-1.1,0.9
		c0,0-0.1,0.1-0.1,0.1c-0.1,0-0.1,0-0.2,0c-0.1,0-0.2,0-0.3,0C118.4,126.9,118.3,126.9,118.3,126.9z"/>
	<path fill="#81B441" d="M104.4,138.3c0,0,0-0.1,0.1-0.2c0-0.1,0-0.2,0.1-0.2c0,0,0-0.1,0-0.1c0,0,0.1-0.1,0.1-0.1
		c0.3-0.3,0.7-0.6,1.1-0.9c0.4-0.3,0.8-0.7,1.1-0.9c0,0,0.1-0.1,0.1-0.1c0.1,0,0.1,0,0.2,0c0.1,0,0.2,0,0.3,0c0.1,0,0.2,0,0.2,0
		s0,0.1-0.1,0.2c0,0.1,0,0.2-0.1,0.2c0,0,0,0.1,0,0.1c0,0.1-0.1,0.1-0.1,0.1c-0.3,0.3-0.7,0.6-1.1,0.9c-0.4,0.3-0.8,0.7-1.1,0.9
		c0,0-0.1,0.1-0.1,0.1c-0.1,0-0.1,0-0.2,0c-0.1,0-0.2,0-0.3,0C104.5,138.3,104.4,138.3,104.4,138.3z"/>
	<path fill="#81B441" d="M120.8,130.2c0,0,0-0.1,0.1-0.2c0-0.1,0-0.2,0.1-0.2c0,0,0-0.1,0-0.1c0,0,0.1-0.1,0.1-0.1
		c0.3-0.3,0.7-0.6,1.1-0.9c0.4-0.3,0.8-0.7,1.1-0.9c0,0,0.1-0.1,0.1-0.1c0.1,0,0.1,0,0.2,0c0.1,0,0.2,0,0.3,0c0.1,0,0.2,0,0.2,0
		s0,0.1-0.1,0.2c0,0.1,0,0.2-0.1,0.2c0,0,0,0.1,0,0.1c0,0.1-0.1,0.1-0.1,0.1c-0.3,0.3-0.7,0.6-1.1,0.9c-0.4,0.3-0.8,0.7-1.1,0.9
		c0,0-0.1,0.1-0.1,0.1c-0.1,0-0.1,0-0.2,0c-0.1,0-0.2,0-0.3,0C120.9,130.2,120.8,130.2,120.8,130.2z"/>
	<path fill="#81B441" d="M119.3,120.9c0,0,0.1,0,0.2,0c0.1,0,0.1,0,0.2,0.1c0,0,0.1,0,0.1,0c0,0,0,0.1,0.1,0.1
		c0.2,0.3,0.5,0.7,0.8,1.1c0.3,0.4,0.6,0.8,0.8,1.1c0,0,0.1,0.1,0.1,0.1c0,0.1,0,0.1,0,0.1c0,0.1,0,0.2,0,0.2c0,0.1,0,0.2,0,0.2
		s-0.1,0-0.2,0c-0.1,0-0.1,0-0.2-0.1c0,0-0.1,0-0.1,0c-0.1,0,0-0.1-0.1-0.1c-0.2-0.3-0.5-0.7-0.8-1.1c-0.3-0.4-0.6-0.8-0.8-1.1
		c0,0-0.1-0.1-0.1-0.1c0-0.1,0-0.1,0-0.1c0-0.1,0-0.2,0-0.2C119.3,120.9,119.3,120.9,119.3,120.9z"/>
	<path fill="#81B441" d="M100.1,135.8c0,0,0.1,0,0.2,0c0.1,0,0.1,0,0.2,0.1c0,0,0.1,0,0.1,0c0,0,0,0.1,0.1,0.1
		c0.2,0.3,0.5,0.7,0.8,1.1c0.3,0.4,0.6,0.8,0.8,1.1c0,0,0.1,0.1,0.1,0.1c0,0.1,0,0.1,0,0.1c0,0.1,0,0.2,0,0.2c0,0.1,0,0.2,0,0.2
		s-0.1,0-0.2,0c-0.1,0-0.1,0-0.2-0.1c0,0-0.1,0-0.1,0c-0.1,0,0-0.1-0.1-0.1c-0.2-0.3-0.5-0.7-0.8-1.1c-0.3-0.4-0.6-0.8-0.8-1.1
		c0,0-0.1-0.1-0.1-0.1c0-0.1,0-0.1,0-0.1c0-0.1,0-0.2,0-0.2C100.1,135.8,100.1,135.8,100.1,135.8z"/>
	<path fill="#81B441" d="M102.7,139.2c0,0,0.1,0,0.2,0c0.1,0,0.1,0,0.2,0.1c0,0,0.1,0,0.1,0c0,0,0,0.1,0.1,0.1
		c0.2,0.3,0.5,0.7,0.8,1.1c0.3,0.4,0.6,0.8,0.8,1.1c0,0,0.1,0.1,0.1,0.1c0,0.1,0,0.1,0,0.1c0,0.1,0,0.2,0,0.2c0,0.1,0,0.2,0,0.2
		s-0.1,0-0.2,0c-0.1,0-0.1,0-0.2-0.1c0,0-0.1,0-0.1,0c-0.1,0,0-0.1-0.1-0.1c-0.2-0.3-0.5-0.7-0.8-1.1c-0.3-0.4-0.6-0.8-0.8-1.1
		c0,0-0.1-0.1-0.1-0.1c0-0.1,0-0.1,0-0.1c0-0.1,0-0.2,0-0.2C102.7,139.3,102.7,139.2,102.7,139.2z"/>
	<path fill="#81B441" d="M105,135.5c0,0,0.1,0,0.2,0c0.1,0,0.1,0,0.2,0.1c0,0,0.1,0,0.1,0c0,0,0,0.1,0.1,0.1
		c0.2,0.3,0.5,0.7,0.8,1.1c0.3,0.4,0.6,0.8,0.8,1.1c0,0,0.1,0.1,0.1,0.1c0,0.1,0,0.1,0,0.1c0,0.1,0,0.2,0,0.2c0,0.1,0,0.2,0,0.2
		s-0.1,0-0.2,0c-0.1,0-0.1,0-0.2-0.1c0,0-0.1,0-0.1,0c-0.1,0,0-0.1-0.1-0.1c-0.2-0.3-0.5-0.7-0.8-1.1c-0.3-0.4-0.6-0.8-0.8-1.1
		c0,0-0.1-0.1-0.1-0.1c0-0.1,0-0.1,0-0.1c0-0.1,0-0.2,0-0.2C105,135.6,105,135.5,105,135.5z"/>
	<path fill="#81B441" d="M122,124.3c0,0,0.1,0,0.2,0c0.1,0,0.1,0,0.2,0.1c0,0,0.1,0,0.1,0c0,0,0,0.1,0.1,0.1
		c0.2,0.3,0.5,0.7,0.8,1.1c0.3,0.4,0.6,0.8,0.8,1.1c0,0,0.1,0.1,0.1,0.1c0,0.1,0,0.1,0,0.1c0,0.1,0,0.2,0,0.2c0,0.1,0,0.2,0,0.2
		s-0.1,0-0.2,0c-0.1,0-0.1,0-0.2-0.1c0,0-0.1,0-0.1,0c-0.1,0,0-0.1-0.1-0.1c-0.2-0.3-0.5-0.7-0.8-1.1c-0.3-0.4-0.6-0.8-0.8-1.1
		c0,0-0.1-0.1-0.1-0.1c0-0.1,0-0.1,0-0.1c0-0.1,0-0.2,0-0.2C122,124.4,122,124.3,122,124.3z"/>
	<path fill="#81B441" d="M106.3,130.2c0,0,0-0.1,0.1-0.2c0-0.1,0-0.2,0.1-0.2c0,0,0-0.1,0-0.1c0,0,0.1-0.1,0.1-0.1
		c0.3-0.3,0.7-0.6,1.1-0.9c0.4-0.3,0.8-0.7,1.1-0.9c0,0,0.1-0.1,0.1-0.1c0.1,0,0.1,0,0.2,0c0.1,0,0.2,0,0.3,0c0.1,0,0.2,0,0.2,0
		s0,0.1-0.1,0.2c0,0.1,0,0.2-0.1,0.2c0,0,0,0.1,0,0.1c0,0.1-0.1,0.1-0.1,0.1c-0.3,0.3-0.7,0.6-1.1,0.9c-0.4,0.3-0.8,0.7-1.1,0.9
		c0,0-0.1,0.1-0.1,0.1c-0.1,0-0.1,0-0.2,0c-0.1,0-0.2,0-0.3,0C106.4,130.2,106.3,130.2,106.3,130.2z"/>
	<path fill="#81B441" d="M109,133.9c0,0,0-0.1,0.1-0.2c0-0.1,0-0.2,0.1-0.2c0,0,0-0.1,0-0.1c0,0,0.1-0.1,0.1-0.1
		c0.3-0.3,0.7-0.6,1.1-0.9c0.4-0.3,0.8-0.7,1.1-0.9c0,0,0.1-0.1,0.1-0.1c0.1,0,0.1,0,0.2,0c0.1,0,0.2,0,0.3,0c0.1,0,0.2,0,0.2,0
		s0,0.1-0.1,0.2c0,0.1,0,0.2-0.1,0.2c0,0,0,0.1,0,0.1c0,0.1-0.1,0.1-0.1,0.1c-0.3,0.3-0.7,0.6-1.1,0.9c-0.4,0.3-0.8,0.7-1.1,0.9
		c0,0-0.1,0.1-0.1,0.1c-0.1,0-0.1,0-0.2,0c-0.1,0-0.2,0-0.3,0C109.1,133.9,109,133.9,109,133.9z"/>
	<path fill="#81B441" d="M111.4,137.3c0,0,0-0.1,0.1-0.2c0-0.1,0-0.2,0.1-0.2c0,0,0-0.1,0-0.1c0,0,0.1-0.1,0.1-0.1
		c0.3-0.3,0.7-0.6,1.1-0.9c0.4-0.3,0.8-0.7,1.1-0.9c0,0,0.1-0.1,0.1-0.1c0.1,0,0.1,0,0.2,0c0.1,0,0.2,0,0.3,0c0.1,0,0.2,0,0.2,0
		s0,0.1-0.1,0.2c0,0.1,0,0.2-0.1,0.2c0,0,0,0.1,0,0.1c0,0.1-0.1,0.1-0.1,0.1c-0.3,0.3-0.7,0.6-1.1,0.9c-0.4,0.3-0.8,0.7-1.1,0.9
		c0,0-0.1,0.1-0.1,0.1c-0.1,0-0.1,0-0.2,0c-0.1,0-0.2,0-0.3,0C111.5,137.3,111.4,137.3,111.4,137.3z"/>
	<path fill="#81B441" d="M113.7,130.1c0,0,0-0.1,0.1-0.2c0-0.1,0-0.2,0.1-0.2c0,0,0-0.1,0-0.1c0,0,0.1-0.1,0.1-0.1
		c0.3-0.3,0.7-0.6,1.1-0.9c0.4-0.3,0.8-0.7,1.1-0.9c0,0,0.1-0.1,0.1-0.1c0.1,0,0.1,0,0.2,0c0.1,0,0.2,0,0.3,0c0.1,0,0.2,0,0.2,0
		s0,0.1-0.1,0.2c0,0.1,0,0.2-0.1,0.2c0,0,0,0.1,0,0.1c0,0.1-0.1,0.1-0.1,0.1c-0.3,0.3-0.7,0.6-1.1,0.9c-0.4,0.3-0.8,0.7-1.1,0.9
		c0,0-0.1,0.1-0.1,0.1c-0.1,0-0.1,0-0.2,0c-0.1,0-0.2,0-0.3,0C113.8,130.1,113.7,130.1,113.7,130.1z"/>
	<path fill="#81B441" d="M114.8,131.5c0,0,0-0.1,0.1-0.2c0-0.1,0-0.2,0.1-0.2c0,0,0-0.1,0-0.1c0,0,0.1-0.1,0.1-0.1
		c0.3-0.3,0.7-0.6,1.1-0.9c0.4-0.3,0.8-0.7,1.1-0.9c0,0,0.1-0.1,0.1-0.1c0.1,0,0.1,0,0.2,0c0.1,0,0.2,0,0.3,0c0.1,0,0.2,0,0.2,0
		s0,0.1-0.1,0.2c0,0.1,0,0.2-0.1,0.2c0,0,0,0.1,0,0.1c0,0.1-0.1,0.1-0.1,0.1c-0.3,0.3-0.7,0.6-1.1,0.9c-0.4,0.3-0.8,0.7-1.1,0.9
		c0,0-0.1,0.1-0.1,0.1c-0.1,0-0.1,0-0.2,0c-0.1,0-0.2,0-0.3,0C114.9,131.5,114.8,131.5,114.8,131.5z"/>
	<path fill="#81B441" d="M110,127.9c0,0,0.1,0,0.2,0c0.1,0,0.1,0,0.2,0.1c0,0,0.1,0,0.1,0c0,0,0,0.1,0.1,0.1
		c0.2,0.3,0.5,0.7,0.8,1.1c0.3,0.4,0.6,0.8,0.8,1.1c0,0,0.1,0.1,0.1,0.1c0,0.1,0,0.1,0,0.1c0,0.1,0,0.2,0,0.2c0,0.1,0,0.2,0,0.2
		s-0.1,0-0.2,0c-0.1,0-0.1,0-0.2-0.1c0,0-0.1,0-0.1,0c-0.1,0,0-0.1-0.1-0.1c-0.2-0.3-0.5-0.7-0.8-1.1c-0.3-0.4-0.6-0.8-0.8-1.1
		c0,0-0.1-0.1-0.1-0.1c0-0.1,0-0.1,0-0.1c0-0.1,0-0.2,0-0.2C110,128,110,127.9,110,127.9z"/>
	<path fill="#81B441" d="M108.7,134.3c0,0,0.1,0,0.2,0c0.1,0,0.1,0,0.2,0.1c0,0,0.1,0,0.1,0c0,0,0,0.1,0.1,0.1
		c0.2,0.3,0.5,0.7,0.8,1.1c0.3,0.4,0.6,0.8,0.8,1.1c0,0,0.1,0.1,0.1,0.1c0,0.1,0,0.1,0,0.1c0,0.1,0,0.2,0,0.2c0,0.1,0,0.2,0,0.2
		s-0.1,0-0.2,0c-0.1,0-0.1,0-0.2-0.1c0,0-0.1,0-0.1,0c-0.1,0,0-0.1-0.1-0.1c-0.2-0.3-0.5-0.7-0.8-1.1c-0.3-0.4-0.6-0.8-0.8-1.1
		c0,0-0.1-0.1-0.1-0.1c0-0.1,0-0.1,0-0.1c0-0.1,0-0.2,0-0.2C108.7,134.4,108.7,134.3,108.7,134.3z"/>
	<path fill="#FFFFFF" d="M116.7,154l-1.6,1.2c-0.7,0.5-1.7,0.4-2.3-0.3l-0.9-1.1c-0.5-0.7-0.4-1.7,0.3-2.3l1.6-1.2
		c0.7-0.5,1.7-0.4,2.3,0.3l0.9,1.1C117.6,152.5,117.4,153.5,116.7,154z"/>
	<path fill="#FFFFFF" d="M123,149.2l-1.6,1.2c-0.7,0.5-1.7,0.4-2.3-0.3l-0.9-1.1c-0.5-0.7-0.4-1.7,0.3-2.3l1.6-1.2
		c0.7-0.5,1.7-0.4,2.3,0.3l0.9,1.1C123.8,147.6,123.7,148.6,123,149.2z"/>
	<path fill="#FFFFFF" d="M129.8,143.9l-1.6,1.2c-0.7,0.5-1.7,0.4-2.3-0.3l-0.9-1.1c-0.5-0.7-0.4-1.7,0.3-2.3l1.6-1.2
		c0.7-0.5,1.7-0.4,2.3,0.3l0.9,1.1C130.7,142.3,130.5,143.3,129.8,143.9z"/>
	<path fill="#FFFFFF" d="M135.6,139.4l-1.6,1.2c-0.7,0.5-1.7,0.4-2.3-0.3l-0.9-1.1c-0.5-0.7-0.4-1.7,0.3-2.3l1.6-1.2
		c0.7-0.5,1.7-0.4,2.3,0.3l0.9,1.1C136.4,137.8,136.3,138.8,135.6,139.4z"/>
	<path fill="#FFFFFF" d="M140.4,145.6l-1.6,1.2c-0.7,0.5-1.7,0.4-2.3-0.3l-0.9-1.1c-0.5-0.7-0.4-1.7,0.3-2.3l1.6-1.2
		c0.7-0.5,1.7-0.4,2.3,0.3l0.9,1.1C141.3,144,141.1,145.1,140.4,145.6z"/>
	<path fill="#FFFFFF" d="M134.7,150.1l-1.6,1.2c-0.7,0.5-1.7,0.4-2.3-0.3l-0.9-1.1c-0.5-0.7-0.4-1.7,0.3-2.3l1.6-1.2
		c0.7-0.5,1.7-0.4,2.3,0.3l0.9,1.1C135.5,148.5,135.4,149.5,134.7,150.1z"/>
	<path fill="#FFFFFF" d="M127.8,155.4l-1.6,1.2c-0.7,0.5-1.7,0.4-2.3-0.3l-0.9-1.1c-0.5-0.7-0.4-1.7,0.3-2.3l1.6-1.2
		c0.7-0.5,1.7-0.4,2.3,0.3l0.9,1.1C128.7,153.8,128.5,154.8,127.8,155.4z"/>
	<path fill="#FFFFFF" d="M121.9,160.7l-1.6,1.2c-0.7,0.5-1.7,0.4-2.3-0.3l-0.9-1.1c-0.5-0.7-0.4-1.7,0.3-2.3l1.6-1.2
		c0.7-0.5,1.7-0.4,2.3,0.3l0.9,1.1C122.7,159.1,122.6,160.1,121.9,160.7z"/>
	<path fill="#FFFFFF" d="M127.2,167.5l-1.6,1.2c-0.7,0.5-1.7,0.4-2.3-0.3l-0.9-1.1c-0.5-0.7-0.4-1.7,0.3-2.3l1.6-1.2
		c0.7-0.5,1.7-0.4,2.3,0.3l0.9,1.1C128,165.9,127.9,166.9,127.2,167.5z"/>
	<path fill="#FFFFFF" d="M133.8,163l-1.6,1.2c-0.7,0.5-1.7,0.4-2.3-0.3l-0.9-1.1c-0.5-0.7-0.4-1.7,0.3-2.3l1.6-1.2
		c0.7-0.5,1.7-0.4,2.3,0.3l0.9,1.1C134.6,161.5,134.5,162.5,133.8,163z"/>
	<path fill="#FFFFFF" d="M140.3,157.3l-1.6,1.2c-0.7,0.5-1.7,0.4-2.3-0.3l-0.9-1.1c-0.5-0.7-0.4-1.7,0.3-2.3l1.6-1.2
		c0.7-0.5,1.7-0.4,2.3,0.3l0.9,1.1C141.1,155.8,141,156.8,140.3,157.3z"/>
	<path fill="#FFFFFF" d="M150.8,159.3l-1.3,1c-0.8,0.6-1.9,0.5-2.6-0.3l-5.5-7.1c-0.6-0.8-0.5-1.9,0.3-2.6l1.3-1
		c0.8-0.6,1.9-0.5,2.6,0.3l5.5,7.1C151.8,157.5,151.6,158.7,150.8,159.3z"/>
	<path fill="#FFFFFF" d="M145.2,163.7l-1.6,1.2c-0.7,0.5-1.7,0.4-2.3-0.3l-0.9-1.1c-0.5-0.7-0.4-1.7,0.3-2.3l1.6-1.2
		c0.7-0.5,1.7-0.4,2.3,0.3l0.9,1.1C146,162.1,145.9,163.1,145.2,163.7z"/>
	<path fill="#FFFFFF" d="M137.9,168.8l-1.6,1.2c-0.7,0.5-1.7,0.4-2.3-0.3l-0.9-1.1c-0.5-0.7-0.4-1.7,0.3-2.3l1.6-1.2
		c0.7-0.5,1.7-0.4,2.3,0.3l0.9,1.1C138.7,167.3,138.6,168.3,137.9,168.8z"/>
	<path fill="#FFFFFF" d="M132.2,173.2l-1.6,1.2c-0.7,0.5-1.7,0.4-2.3-0.3l-0.9-1.1c-0.5-0.7-0.4-1.7,0.3-2.3l1.6-1.2
		c0.7-0.5,1.7-0.4,2.3,0.3l0.9,1.1C133.1,171.7,132.9,172.7,132.2,173.2z"/>
	<g>
		<path fill="#D9BD8C" d="M127.2,185.5c-0.5,0.8-1.4,1.5-2.6,1.8c-1.2,0.3-2.5,0.2-3.8-0.2c-1.3-0.4-2.6-1.1-3.9-1.9
			c-1.3-0.9-2.4-2-3.5-3.1c-0.3-0.3-0.5-0.6-0.8-0.9l-0.8-1c-0.4-0.4-0.7-0.9-1-1.4c-0.1-0.2-0.3-0.4-0.4-0.6
			c-0.5-0.7-0.9-1.4-1.4-2.1c-0.2-0.3-0.3-0.6-0.5-0.9c-0.2-0.4-0.5-0.8-0.7-1.2c-0.4-0.7-0.8-1.4-1.1-2.2c-0.4-0.7-0.7-1.4-1-2.1
			s-0.6-1.4-0.9-2.1c-0.3-0.7-0.6-1.4-0.8-2c-0.3-0.7-0.5-1.3-0.8-2c-0.2-0.6-0.4-1.2-0.6-1.8c-0.3-1.2-0.5-2.3-0.7-3.3
			c-0.1-1-0.2-1.9-0.1-2.6c0-0.7,0.1-1.2,0.2-1.6c0,0,0-0.1,0-0.1c0-0.2,0.1-0.3,0.1-0.4c0,0,0,0,0-0.1c0,0,0,0,0,0.1
			c0,0,0-0.1,0-0.2c0.2-0.6,0.6-1.2,1-1.6c0.2-0.2,0.5-0.4,0.7-0.6c0.3-0.2,0.5-0.3,0.9-0.4c0.3-0.1,0.6-0.1,0.9-0.1
			c0.3,0,0.6,0.1,0.8,0.2c0.2,0.1,0.5,0.3,0.7,0.5c0.2,0.2,0.4,0.5,0.5,0.7c0.3,0.5,0.5,1.1,0.7,1.7c0.2,0.6,0.4,1.2,0.5,1.9
			c0.1,0.6,0.2,1.3,0.3,1.9c0.1,0.6,0.2,1.3,0.2,1.9l0.1,1.6l0.9-1.3c0.1-0.2,0.3-0.4,0.4-0.5c0.1-0.2,0.3-0.3,0.5-0.5
			c0.3-0.3,0.7-0.6,1-0.8c0.2-0.1,0.4-0.2,0.5-0.2c0.2,0,0.3,0,0.5,0c0.2,0,0.3,0.1,0.5,0.2c0.1,0.1,0.3,0.2,0.4,0.4
			c0.1,0.2,0.3,0.3,0.4,0.5c0.1,0.2,0.2,0.4,0.3,0.6c0.1,0.2,0.2,0.4,0.3,0.6s0.2,0.4,0.2,0.7c0.1,0.2,0.1,0.5,0.2,0.7
			c0.1,0.2,0.1,0.5,0.2,0.7c0.1,0.4,0.2,0.9,0.3,1.4l0.2,1.1l0.8-0.8c0.2-0.2,0.4-0.3,0.6-0.5c0.2-0.2,0.4-0.3,0.7-0.4
			c0.4-0.2,0.9-0.3,1.2-0.1c0.2,0.1,0.3,0.2,0.5,0.3c0.1,0.1,0.3,0.3,0.4,0.6c0.1,0.2,0.2,0.5,0.3,0.7c0.1,0.2,0.1,0.5,0.2,0.8
			c0,0.3,0.1,0.5,0.1,0.8c0,0.3,0.1,0.5,0.1,0.8c0.1,0.6,0.1,1.1,0.1,1.7c0,1.1,0,2.2-0.1,3.3v0c0,0,0,0.1,0,0.1c0,0.1,0,0.2,0,0.2
			c0,0.1,0,0.3,0,0.4c0,0.3,0.1,0.5,0.1,0.7c0.1,0.2,0.1,0.5,0.2,0.7c0.1,0.2,0.2,0.4,0.3,0.6c0.1,0.2,0.2,0.4,0.3,0.6l0.4,0.6
			c0.2,0.4,0.5,0.8,0.8,1.1c0.1,0.2,0.2,0.3,0.4,0.5l0,0c0.1,0.2,0.3,0.4,0.4,0.5c0.3,0.3,0.6,0.7,0.9,1c0.3,0.3,0.6,0.7,0.9,1
			l0.9,1c0,0,0,0,0.1,0.1c0,0,0,0,0,0c0,0.1,0.2,0.2,0.3,0.5c0.1,0.2,0.2,0.4,0.3,0.6c0.1,0.2,0.2,0.5,0.3,0.8c0,0,0,0.1,0,0.1
			C127.7,183.7,127.7,184.6,127.2,185.5z"/>
		<path fill="#D9BD8C" d="M123.9,178.1c-0.2-0.2-0.3-0.3-0.4-0.5l2.7,3l0.4,0.5l-0.9-1c-0.3-0.3-0.6-0.7-0.9-1
			C124.4,178.8,124.2,178.4,123.9,178.1z"/>
		<path fill="#D9BD8C" d="M102.7,163.4c0,0-1.8-5.6-0.7-9.5c0-0.1,0-0.2,0.1-0.2c0,0,0,0,0-0.1c0,0,0,0,0,0.1c0,0.1,0,0.2-0.1,0.4
			c0,0,0,0,0,0.1c-0.1,0.4-0.1,0.9-0.2,1.6c0,0.7,0,1.6,0.1,2.6c0.1,1,0.4,2.1,0.7,3.3c0.2,0.6,0.3,1.2,0.6,1.8
			c0.2,0.6,0.5,1.3,0.8,2c0.2,0.7,0.5,1.3,0.8,2c0.3,0.7,0.6,1.4,0.9,2.1s0.7,1.4,1,2.1c0.4,0.7,0.7,1.4,1.1,2.2
			c0.2,0.4,0.5,0.8,0.7,1.2c0.2,0.3,0.3,0.6,0.5,0.9c0.5,0.7,0.9,1.4,1.4,2.1c0.1,0.2,0.3,0.4,0.4,0.6c0.3,0.5,0.7,1,1,1.4l0.8,1
			c0.3,0.3,0.5,0.6,0.8,0.9c1.1,1.2,2.2,2.3,3.5,3.1c1.2,0.8,2.6,1.5,3.9,1.9c1.3,0.4,2.6,0.5,3.8,0.2c1.1-0.3,2.1-0.9,2.6-1.8
			c0.5-0.8,0.5-1.7,0.4-2.4c0,0,0-0.1,0-0.1c-0.1-0.3-0.2-0.6-0.3-0.8c-0.1-0.2-0.2-0.5-0.3-0.6c-0.2-0.2-0.3-0.4-0.3-0.5
			c0,0,0,0,0,0c0,0,0,0,0,0l0,0C132.7,188.3,114,197.1,102.7,163.4z"/>
		<path fill="#3E2711" d="M127.6,185.7c-0.5,1-1.5,1.8-2.8,2.2c-1.3,0.4-2.8,0.4-4.2,0c-1.5-0.4-2.9-1-4.3-1.9
			c-1.4-0.9-2.6-2-3.8-3.2c-0.3-0.3-0.6-0.6-0.9-0.9l-0.8-1c-0.6-0.6-1-1.3-1.5-2h0c0,0,0,0,0,0c-0.5-0.7-0.9-1.4-1.4-2.1
			c-0.3-0.5-0.5-0.9-0.8-1.3c-0.2-0.3-0.3-0.6-0.5-0.9c-0.4-0.7-0.7-1.5-1.1-2.2c-0.3-0.7-0.6-1.5-1-2.2c-0.3-0.7-0.6-1.4-0.9-2.2
			c-0.3-0.7-0.5-1.4-0.8-2.1c-0.2-0.7-0.5-1.3-0.7-2c-0.2-0.7-0.3-1.3-0.5-1.9c-0.5-2.5-0.5-4.7-0.4-6.1c0.1-0.7,0.2-1.3,0.4-1.6
			c0,0,0,0,0,0c0-0.1,0-0.1,0.1-0.2c0-0.1,0-0.2,0.1-0.2c0,0,0,0,0-0.1c0,0,0,0,0,0.1c0,0.1,0,0.2-0.1,0.4c0,0,0,0,0,0.1
			c-0.1,0.4-0.1,0.9-0.2,1.6c0,0.7,0,1.6,0.1,2.6c0.1,1,0.4,2.1,0.7,3.3c0.2,0.6,0.3,1.2,0.6,1.8c0.2,0.6,0.5,1.3,0.8,2
			c0.2,0.7,0.5,1.3,0.8,2c0.3,0.7,0.6,1.4,0.9,2.1s0.7,1.4,1,2.1c0.4,0.7,0.7,1.4,1.1,2.2c0.2,0.4,0.5,0.8,0.7,1.2
			c0.2,0.3,0.3,0.6,0.5,0.9c0.5,0.7,0.9,1.4,1.4,2.1c0.1,0.2,0.3,0.4,0.4,0.6c0.3,0.5,0.7,1,1,1.4l0.8,1c0.3,0.3,0.5,0.6,0.8,0.9
			c1.1,1.2,2.2,2.3,3.5,3.1c1.2,0.8,2.6,1.5,3.9,1.9c1.3,0.4,2.6,0.5,3.8,0.2c1.1-0.3,2.1-0.9,2.6-1.8c0.5-0.8,0.5-1.7,0.4-2.4
			c0,0,0-0.1,0-0.1c-0.1-0.3-0.2-0.6-0.3-0.8c-0.1-0.2-0.2-0.5-0.3-0.6c-0.2-0.2-0.3-0.4-0.3-0.5c0,0,0,0,0,0c0,0,0,0,0,0l0,0
			c0.1,0.1,0.2,0.2,0.3,0.3c0.1,0.1,0.3,0.3,0.4,0.6c0.2,0.2,0.3,0.6,0.4,0.9c0,0.1,0.1,0.2,0.1,0.4C128,184,128,184.9,127.6,185.7z
			"/>
	</g>
	<g>
		<path fill="#D9BD8C" d="M126.1,180.6l-2.7-3l0,0c-0.1-0.2-0.3-0.3-0.4-0.5c-0.3-0.4-0.5-0.7-0.8-1.1l-0.4-0.6
			c-0.1-0.2-0.2-0.4-0.3-0.6c-0.1-0.2-0.2-0.4-0.3-0.6c-0.1-0.2-0.2-0.4-0.2-0.7c-0.1-0.2-0.1-0.5-0.1-0.7c0-0.1,0-0.3,0-0.4
			c0-0.1,0-0.1,0-0.2c0,0,0-0.1,0-0.1v0c0.1-1.1,0.1-2.2,0.1-3.3c0-0.6,0-1.1-0.1-1.7c0-0.3,0-0.5-0.1-0.8c0-0.3-0.1-0.5-0.1-0.8
			c-0.1-0.3-0.1-0.5-0.2-0.8c-0.1-0.3-0.2-0.5-0.3-0.7c-0.1-0.2-0.2-0.4-0.4-0.6c-0.1-0.2-0.3-0.3-0.5-0.3c-0.3-0.1-0.8-0.1-1.2,0.1
			c-0.2,0.1-0.4,0.2-0.7,0.4c-0.2,0.1-0.4,0.3-0.6,0.5l-0.8,0.8l-0.2-1.1c-0.1-0.5-0.2-0.9-0.3-1.4c-0.1-0.2-0.1-0.5-0.2-0.7
			c-0.1-0.2-0.1-0.5-0.2-0.7c-0.1-0.2-0.1-0.4-0.2-0.7s-0.2-0.4-0.3-0.6c-0.1-0.2-0.2-0.4-0.3-0.6c-0.1-0.2-0.2-0.3-0.4-0.5
			c-0.1-0.1-0.3-0.3-0.4-0.4c-0.2-0.1-0.3-0.2-0.5-0.2c-0.2,0-0.3,0-0.5,0c-0.2,0-0.4,0.1-0.5,0.2c-0.3,0.2-0.7,0.5-1,0.8
			c-0.2,0.2-0.3,0.3-0.5,0.5c-0.1,0.2-0.3,0.4-0.4,0.5l-0.9,1.3l-0.1-1.6c0-0.6-0.1-1.3-0.2-1.9c-0.1-0.6-0.2-1.3-0.3-1.9
			c-0.1-0.6-0.3-1.2-0.5-1.9c-0.2-0.6-0.4-1.2-0.7-1.7c-0.2-0.3-0.3-0.5-0.5-0.7c-0.2-0.2-0.4-0.4-0.7-0.5c-0.2-0.1-0.5-0.2-0.8-0.2
			c-0.3,0-0.6,0-0.9,0.1c-0.3,0.1-0.6,0.2-0.9,0.4c-0.3,0.2-0.5,0.4-0.7,0.6c-0.4,0.5-0.8,1-1,1.6c0.4-1.2,1.1-2.1,2.2-2.7
			c4-2,5.2,5.4,5.5,7.9c0,0.3,0,0.5,0.1,0.6c0,0.1,0,0.2,0,0.2s0-0.1,0.1-0.1c0.1-0.1,0.2-0.3,0.4-0.5c1.2-1.5,4.4-4.4,6.2,3.8
			c0,0.1,0.1,0.2,0.1,0.4c0,0.1,0,0.2,0.1,0.3c0,0,0.1-0.1,0.2-0.2c0.1-0.1,0.2-0.1,0.3-0.2c1.4-1.1,5.3-2.8,4.2,9.1
			C121.5,172,120.3,173.8,126.1,180.6z"/>
		<path fill="#3E2711" d="M126.5,181l-0.9-1c-0.3-0.3-0.6-0.7-0.9-1c-0.3-0.3-0.6-0.7-0.9-1c-0.2-0.2-0.3-0.3-0.4-0.5l0,0
			c-0.1-0.2-0.3-0.3-0.4-0.5c-0.3-0.4-0.5-0.7-0.8-1.1l-0.4-0.6c-0.1-0.2-0.2-0.4-0.3-0.6c-0.1-0.2-0.2-0.4-0.3-0.6
			c-0.1-0.2-0.2-0.4-0.2-0.7c-0.1-0.2-0.1-0.5-0.1-0.7c0-0.1,0-0.3,0-0.4c0-0.1,0-0.1,0-0.2c0,0,0-0.1,0-0.1v0
			c0.1-1.1,0.1-2.2,0.1-3.3c0-0.6,0-1.1-0.1-1.7c0-0.3,0-0.5-0.1-0.8c0-0.3-0.1-0.5-0.1-0.8c-0.1-0.3-0.1-0.5-0.2-0.8
			c-0.1-0.3-0.2-0.5-0.3-0.7c-0.1-0.2-0.2-0.4-0.4-0.6c-0.1-0.2-0.3-0.3-0.5-0.3c-0.3-0.1-0.8-0.1-1.2,0.1c-0.2,0.1-0.4,0.2-0.7,0.4
			c-0.2,0.1-0.4,0.3-0.6,0.5l-0.8,0.8l-0.2-1.1c-0.1-0.5-0.2-0.9-0.3-1.4c-0.1-0.2-0.1-0.5-0.2-0.7c-0.1-0.2-0.1-0.5-0.2-0.7
			c-0.1-0.2-0.1-0.4-0.2-0.7s-0.2-0.4-0.3-0.6c-0.1-0.2-0.2-0.4-0.3-0.6c-0.1-0.2-0.2-0.3-0.4-0.5c-0.1-0.1-0.3-0.3-0.4-0.4
			c-0.2-0.1-0.3-0.2-0.5-0.2c-0.2,0-0.3,0-0.5,0c-0.2,0-0.4,0.1-0.5,0.2c-0.3,0.2-0.7,0.5-1,0.8c-0.2,0.2-0.3,0.3-0.5,0.5
			c-0.1,0.2-0.3,0.4-0.4,0.5l-0.9,1.3l-0.1-1.6c0-0.6-0.1-1.3-0.2-1.9c-0.1-0.6-0.2-1.3-0.3-1.9c-0.1-0.6-0.3-1.2-0.5-1.9
			c-0.2-0.6-0.4-1.2-0.7-1.7c-0.2-0.3-0.3-0.5-0.5-0.7c-0.2-0.2-0.4-0.4-0.7-0.5c-0.2-0.1-0.5-0.2-0.8-0.2c-0.3,0-0.6,0-0.9,0.1
			c-0.3,0.1-0.6,0.2-0.9,0.4c-0.3,0.2-0.5,0.4-0.7,0.6c-0.4,0.5-0.8,1-1,1.6c0.2-0.6,0.4-1.2,0.9-1.8c0.2-0.3,0.4-0.5,0.7-0.7
			c0.3-0.2,0.6-0.4,0.9-0.5c0.3-0.1,0.7-0.2,1-0.3c0.4,0,0.7,0,1.1,0.2c0.3,0.1,0.6,0.4,0.9,0.6c0.3,0.2,0.5,0.5,0.7,0.8
			c0.8,1.1,1.2,2.4,1.5,3.7c0.2,0.7,0.3,1.3,0.4,2c0,0.2,0.1,0.5,0.1,0.7c0-0.1,0.1-0.1,0.1-0.2c0.4-0.4,0.8-0.7,1.3-1
			c0.2-0.1,0.5-0.3,0.8-0.3c0.3-0.1,0.6-0.1,1,0c0.3,0,0.6,0.2,0.9,0.3c0.3,0.2,0.5,0.4,0.7,0.6c0.2,0.2,0.4,0.4,0.5,0.7
			c0.2,0.2,0.3,0.5,0.4,0.7c0.1,0.2,0.2,0.5,0.3,0.7c0.1,0.2,0.2,0.5,0.3,0.7c0.1,0.2,0.2,0.5,0.2,0.7c0.1,0.2,0.1,0.5,0.2,0.7
			c0,0.2,0.1,0.3,0.1,0.5c0.2-0.2,0.5-0.3,0.8-0.4c0.3-0.1,0.6-0.2,1-0.3c0.4,0,0.8,0,1.1,0.1c0.4,0.1,0.7,0.4,0.9,0.7
			c0.2,0.3,0.4,0.6,0.5,0.9c0.1,0.3,0.2,0.6,0.3,0.9c0.1,0.3,0.1,0.6,0.2,0.9c0,0.3,0.1,0.6,0.1,0.9c0,0.3,0.1,0.6,0.1,0.9
			c0,0.6,0,1.2,0,1.8c0,1.2-0.1,2.3-0.3,3.5l-0.1,0.2c0,0,0,0,0,0c0,0,0,0.1,0,0.1c0,0.1,0,0.2,0,0.3c0,0.2,0,0.4,0.1,0.6
			s0.1,0.4,0.2,0.6c0.1,0.2,0.1,0.4,0.2,0.6c0.1,0.2,0.2,0.4,0.3,0.6l0.3,0.6c0.2,0.4,0.4,0.8,0.7,1.1c0.2,0.4,0.5,0.8,0.7,1.1
			c0.2,0.4,0.5,0.7,0.8,1.1C125.5,179.6,126,180.3,126.5,181z"/>
	</g>
	<g>
	</g>
	<g>
	</g>
	<g>
	</g>
	<g>
	</g>
	<g>
	</g>
	<g>
	</g>
</g>
</svg>
