<?xml version="1.0" encoding="utf-8"?>
<!-- Generator: Adobe Illustrator 19.1.0, SVG Export Plug-In . SVG Version: 6.00 Build 0)  -->
<svg version="1.1" xmlns="http://www.w3.org/2000/svg" xmlns:xlink="http://www.w3.org/1999/xlink" x="0px" y="0px" width="211.7px"
	 height="222.3px" viewBox="0 0 211.7 222.3" enable-background="new 0 0 211.7 222.3" xml:space="preserve">
<g id="monkey-back">
	<path opacity="0.39" fill="#FFFFFF" d="M169.4,145.3c-0.2-0.1-0.5-0.3-0.8-0.4c-2.7-1.5-5.3-3-8.1-4.5c-0.3-0.1-0.5-0.3-0.8-0.4
		c-9.9-5.2-20.6-10.2-33.2-14.3c-3.3-1.1-6.6-2.1-9.8-2.9c-1.6-0.4-3.1-0.8-4.6-1.1c-0.1,0-0.3-0.1-0.4-0.1c-4.3-0.9-8.4-1.6-12.5-2
		c-1.7-0.2-3.4-0.3-5.1-0.4c-0.8-0.1-1.7-0.1-2.5-0.1h0c-1.6-0.1-3.1-0.1-4.6-0.1h-0.1c-0.5,0-1,0-1.5,0H85c-0.1,0-0.3,0-0.4,0
		c-0.3,0-0.6,0-0.9,0c-0.3,0-0.6,0-0.8,0c-3.8,0.1-7.5,0.5-11.1,1c-0.2,0-0.4,0.1-0.6,0.1c-0.2,0-0.4,0.1-0.6,0.1
		c-1.6,0.3-3.2,0.5-4.7,0.9c-0.1,0-0.2,0-0.3,0.1c-0.1,0-0.1,0-0.2,0c-2,0.4-3.9,0.9-5.8,1.4c-0.1,0-0.1,0-0.2,0
		c-15.7,4.3-25.4-9.4-30.5-17.5C2.9,63.2,18.9-0.3,70,0c12.4,0.1,23.8,1.3,34.2,3.5c26.3,5.5,47,17.1,63.1,33.1
		c20.4,20.2,33.6,47.2,41.6,77.1C217.6,146.2,206.8,166,169.4,145.3z"/>
</g>
<g id="monkey-body">
	<path fill="#8D5738" d="M172.6,111c-0.9,12-2.2,24.7-3.2,34.2c-0.2-0.1-0.5-0.3-0.8-0.4c-2.7-1.5-5.3-3-8.1-4.5
		c-0.3-0.1-0.5-0.3-0.8-0.4c-9.9-5.2-20.6-10.2-33.2-14.3c-3.3-1.1-6.6-2.1-9.8-2.9c-1.6-0.4-3.1-0.8-4.6-1.1
		c-0.1,0-0.3-0.1-0.4-0.1c-4.3-0.9-8.4-1.6-12.5-2c-1.7-0.2-3.4-0.3-5.1-0.4c-0.8-0.1-1.7-0.1-2.5-0.1h0c-1.6-0.1-3.1-0.1-4.6-0.1
		h-0.1c-0.5,0-1,0-1.5,0H85c-0.1,0-0.3,0-0.4,0c-0.3,0-0.6,0-0.9,0c-0.3,0-0.6,0-0.8,0c-3.8,0.1-7.5,0.5-11.1,1
		c-0.2,0-0.4,0.1-0.6,0.1c-0.2,0-0.4,0.1-0.6,0.1c-1.6,0.3-3.2,0.5-4.7,0.9c-0.1,0-0.2,0-0.3,0.1c-0.1,0-0.1,0-0.2,0
		c-2,0.4-3.9,0.9-5.8,1.4c-1.1-3-2.4-6.4-3.7-10.2c-0.1-0.4-0.2-0.7-0.4-1.1c-0.6-1.9-1.3-3.8-1.9-5.7c-0.2-0.6-0.4-1.3-0.6-2
		c-1.3-4-2.6-8.3-3.8-12.6c-0.2-0.7-0.4-1.4-0.6-2.1c-0.4-1.4-0.7-2.7-1.1-4.1c-0.2-0.7-0.4-1.4-0.5-2.1c-0.2-1-0.5-2-0.7-3
		c-0.3-1.3-0.6-2.5-0.8-3.8c0-0.2-0.1-0.4-0.1-0.7c-0.8-4-1.6-7.9-2.1-11.7c0-0.1,0-0.2,0-0.3c-0.1-1.1-0.3-2.2-0.4-3.2
		c0-0.1,0-0.2,0-0.2c-0.2-1.5-0.3-2.9-0.4-4.3c0,0,0-0.1,0-0.1c-0.2-3.7-0.3-7.1,0-10.1c0.1-0.6,0.1-1.2,0.2-1.8
		c0.1-0.6,0.2-1.2,0.3-1.7c0.1-0.3,0.1-0.6,0.2-0.8c0.1-0.5,0.3-1.1,0.4-1.6c0.1-0.5,0.3-1,0.5-1.5c0.2-0.5,0.4-0.9,0.6-1.4
		c9.8-20.4,24.4-11.8,28.4-8.9c0.2-5.6,2.1-12.1,10-13.4c1.6-0.2,3-0.1,4.3,0.2c0.2-0.2,0.7-0.6,1.3-1.1c2.7-2.2,8.8-6.7,15.7-9.9
		c8-3.6,17.1-5.5,23.7,0c0,0,19.8-7,32.3,13.8c0.6,1,1.2,2.1,1.8,3.3c0.2,0.5,0.5,0.9,0.7,1.4c0.5,1,0.9,1.9,1.2,2.7
		c2,4.7,3,8.6,3.4,11.8c0.1,0.7,0.1,1.3,0.2,1.9c0.5,9.5-4.9,12.4-5.4,12.6c0,0,0,0,0,0s0,0,0,0c0,0,0,0.1,0.1,0.1
		c0.8,1.3,7.4,11.4,10.6,25.8C174.1,82.9,173.7,96.5,172.6,111z"/>
	<path fill="#D9BD8C" d="M125.7,46.8c0,6.6-4.9,12-10.9,12c-3.9,0-7.3-2.2-9.2-5.6c-1.1-1.9-1.7-4.1-1.7-6.4c0-6.6,4.9-12,10.9-12
		C120.8,34.8,125.7,40.2,125.7,46.8z"/>
	<path fill="#D9BD8C" d="M153.5,48.7c0,1.1-0.1,2.2-0.4,3.3c0,0,0,0,0,0c-1.3,5-5.5,8.7-10.5,8.7c-6,0-10.9-5.4-10.9-12
		s4.9-12,10.9-12S153.5,42.1,153.5,48.7z"/>
	<path fill="#8D5738" d="M73.7,35.8c0,0,0,0.1,0,0.2C73.7,35.9,73.7,35.8,73.7,35.8C73.7,35.7,73.7,35.8,73.7,35.8z"/>
	<path fill="#8D5738" d="M81.1,44.2c0.1,0.1,0.2,0.2,0.4,0.3c-0.3-0.2-0.7-0.5-1-0.8C80.7,43.8,80.9,44,81.1,44.2z"/>
	<path fill="#8D5738" d="M95.1,22.5c0.1,0.3,0.2,0.5,0.4,0.8c0-0.1-0.1-0.3-0.2-0.4C95.3,22.8,95.2,22.7,95.1,22.5z"/>
	<path fill="#D9BD8C" d="M141.7,71.2c0.3,1.1,0.5,2.2,0.6,3.4c0,0.3,0.1,0.5,0.1,0.8c0,0,0,0.1,0,0.1c0,0.2,0,0.5,0.1,0.7l0,0.6
		c-14.2,20-27.2,1.9-30.2-2.7c0,0,0,0,0,0c0-0.2,0-0.3,0.1-0.5c0-0.1,0-0.1,0-0.2c0-0.1,0-0.3,0.1-0.4c0-0.2,0.1-0.4,0.1-0.7
		c0,0,0-0.1,0-0.1c0-0.2,0.1-0.5,0.2-0.7c-10.2-2.5-7.3-18.3-7.3-18.3c1.9,3.3,5.3,5.6,9.2,5.6c6,0,10.9-5.4,10.9-12
		c5-2.1,5.9,1.9,5.9,1.9c0,6.6,4.9,12,10.9,12c5,0,9.2-3.7,10.5-8.7C152.9,53.2,149.6,71.6,141.7,71.2z"/>
	<path fill="#592C1C" d="M142.6,77.4c-14.3,31.6-30.3-1.9-30.3-1.9c0-0.4,0.1-0.9,0.2-1.3c2.9,4.6,16,22.7,30.2,2.7
		C142.6,77,142.6,77.2,142.6,77.4z"/>
	<path fill="#D9BD8C" d="M142.6,78.1c0,11.5-6.8,20.8-15.2,20.8s-15.2-9.3-15.2-20.8c0-0.9,0-1.8,0.1-2.7c0,0,16,33.6,30.3,1.9
		C142.6,77.6,142.6,77.9,142.6,78.1z"/>
	<path fill="#592C1C" d="M123.7,63.7c0,0-0.2,0.3-0.4,0.8c-0.1,0.3-0.2,0.6-0.3,0.9c0,0.4-0.1,0.8,0.1,1.2c0.1,0.4,0.4,0.7,0.8,1
		c0.4,0.3,0.9,0.5,1.4,0.7c0.5,0.2,1.1,0.3,1.7,0.4c0.3,0.1,0.6,0.1,0.9,0.1c0.3,0,0.6,0.1,0.9,0.1c0.7,0,1.2,0.1,1.8,0
		c0.6,0,1.2-0.1,1.6-0.3c0.5-0.2,0.8-0.4,0.9-0.8c0.1-0.4,0-0.9-0.1-1.3c-0.3-0.9-0.7-1.6-1-2c-0.3-0.5-0.5-0.7-0.5-0.7
		s0.3,0.2,0.7,0.6c0.2,0.2,0.5,0.5,0.7,0.8c0.3,0.3,0.5,0.7,0.8,1.2c0.2,0.5,0.5,1,0.4,1.8c-0.1,0.3-0.2,0.7-0.5,1
		c-0.2,0.3-0.6,0.5-0.9,0.7c-0.6,0.3-1.3,0.4-2,0.5c-0.7,0.1-1.4,0-2,0c-0.4,0-0.7-0.1-1-0.1c-0.3-0.1-0.7-0.1-1-0.1
		c-0.7-0.1-1.3-0.3-1.9-0.5c-0.6-0.2-1.2-0.6-1.6-1c-0.2-0.2-0.4-0.5-0.6-0.7c-0.1-0.3-0.2-0.6-0.3-0.8c-0.1-0.6,0-1.1,0.2-1.4
		c0.1-0.4,0.3-0.7,0.5-0.9C123.5,63.9,123.7,63.7,123.7,63.7z"/>
	<path fill="none" d="M91.9,17.5c-3,3.1-6.1,6.8-9.2,11.4c-0.8,1.2-1.7,2.6-2.5,3.9l-5.5,4.8c0,0,0,0,0,0"/>
	<path fill="none" d="M112.9,71.6c-1.1-0.3-2.3-0.9-3.4-1.6"/>
	<g>
		<path fill="#D9BD8C" d="M97.8,76.2c0,0,5.1-9.6,6,7.7L97.8,76.2z"/>
		<path fill="#3E2711" d="M97.8,76.2c0,0,0.1-0.2,0.2-0.6c0.2-0.4,0.5-1,1-1.6c0.3-0.3,0.6-0.6,1.1-0.8c0.2-0.1,0.5-0.2,0.9-0.1
			c0.3,0,0.6,0.2,0.9,0.3c0.5,0.4,0.8,0.8,1,1.3c0.2,0.5,0.4,1,0.6,1.4c0.3,1,0.4,2,0.5,2.9c0.1,0.5,0.1,0.9,0.1,1.3
			c0,0.4,0,0.8,0,1.2c0,0.7-0.1,1.3-0.1,1.8c0,0.4-0.1,0.7-0.1,0.7s-0.1-0.2-0.2-0.7c-0.1-0.4-0.2-1-0.4-1.7
			c-0.1-0.7-0.3-1.5-0.5-2.4c-0.1-0.4-0.2-0.9-0.3-1.3c-0.1-0.4-0.2-0.9-0.3-1.3c-0.1-0.4-0.3-0.9-0.4-1.3c-0.2-0.4-0.4-0.7-0.6-0.9
			c-0.2-0.2-0.4-0.3-0.8-0.2c-0.3,0.1-0.6,0.3-0.9,0.5c-0.5,0.4-1,0.9-1.2,1.2C97.9,76,97.8,76.2,97.8,76.2z"/>
	</g>
	<path fill="none" d="M161.9,19.7c0,0,0,0.2,0,0.5"/>
	<line fill="none" x1="124.2" y1="47.8" x2="124.2" y2="47.8"/>
	<path fill="#B8A278" d="M73.7,35.8c0,0,0,0.1,0,0.2C73.7,35.9,73.7,35.8,73.7,35.8C73.7,35.7,73.7,35.8,73.7,35.8z"/>
	<path fill="#B8A278" d="M81.1,44.2c0.1,0.1,0.2,0.2,0.4,0.3c-0.3-0.2-0.7-0.5-1-0.8C80.7,43.8,80.9,44,81.1,44.2z"/>
	<path fill="#B8A278" d="M95.1,22.5c0.1,0.3,0.2,0.5,0.4,0.8c0-0.1-0.1-0.3-0.2-0.4C95.3,22.8,95.2,22.7,95.1,22.5z"/>
	<path fill="#A67458" d="M48.2,52.9c0.6,14.9,13.3,56.1,17.1,68.2c-2,0.4-3.9,0.9-5.8,1.4c-1.1-3-2.4-6.4-3.7-10.2
		c-0.1-0.4-0.2-0.7-0.4-1.1c-0.6-1.9-1.3-3.8-1.9-5.7c-0.2-0.6-0.4-1.3-0.6-2c-1.3-4-2.6-8.3-3.8-12.6l-0.6-2.1
		c-0.4-1.4-0.7-2.7-1.1-4.1c-0.2-0.7-0.4-1.4-0.5-2.1c-0.2-1-0.5-2-0.7-3c-0.3-1.3-0.6-2.5-0.8-3.8c0-0.2-0.1-0.4-0.1-0.7
		c-0.8-4-1.5-7.9-2.1-11.7c0-0.1,0-0.2,0-0.3c-0.1-1.1-0.3-2.2-0.4-3.2c0-0.1,0-0.2,0-0.2c-0.2-1.5-0.3-2.9-0.4-4.3c0,0,0-0.1,0-0.1
		c-0.2-3.7-0.3-7.1,0-10.1c0.1-0.6,0.1-1.2,0.2-1.8c0.1-0.6,0.2-1.2,0.3-1.7c0.1-0.3,0.1-0.6,0.2-0.8c0.1-0.5,0.3-1.1,0.4-1.6
		c0.1-0.5,0.3-1,0.5-1.5c0.2-0.5,0.4-0.9,0.6-1.4c9.8-20.4,24.4-11.8,28.4-8.9c-0.1,3.2,0.3,6.2,0.6,7.7c0,0.1,0,0.2,0.1,0.3
		c0,0.1,0,0.1,0.1,0.2c0,0,0,0.1,0,0.1C60.7,24.8,47.6,36.4,48.2,52.9z"/>
	<path fill="#A67458" d="M167.5,38.5c0-0.2,0-0.5,0-0.7C167.5,38,167.5,38.2,167.5,38.5c0.5,9.5-4.9,12.4-5.4,12.6
		c6.4-30.2-15.6-39.5-33.8-40.4c-7.7-10.7-26.3-0.9-37,6.2c-1.2-1.1-2.5-2-4-2.4c0.2-0.2,0.7-0.6,1.3-1.1c5.8-4.7,27-20.2,39.4-9.9
		c0,0,19.8-7,32.3,13.8c0.6,1,1.2,2.1,1.8,3.3c0.2,0.5,0.5,0.9,0.7,1.4c0,0,6.6-3.3,8.6,1C173.3,27.3,172.1,42.1,167.5,38.5z"/>
	<path fill="#A67458" d="M172.6,111c-0.9,12-2.2,24.7-3.2,34.2c-0.2-0.1-0.5-0.3-0.8-0.4c-2.7-1.5-5.3-3-8.1-4.5
		c-0.3-0.1-0.5-0.3-0.8-0.4c14.5-50.7,3.3-86.3,2.5-88.7c0.8,1.3,7.4,11.4,10.6,25.8C174.1,82.9,173.7,96.5,172.6,111z"/>
	<path fill="#D9BD8C" d="M170.2,27.6c-1.5,7.6,0.2,9.4-2.6,10.9c-0.2-3.9-1.3-8.8-4.2-15.2C163.4,23.3,171.7,20,170.2,27.6z"/>
	<path fill="#B8A278" d="M167.5,38.5c2.9-1.5,1.1-3.3,2.6-10.9c1.5-7.6-6.8-4.3-6.8-4.3c-0.2-0.4-0.4-0.8-0.6-1.3c0,0,6.6-3.3,8.6,1
		S172.1,42.1,167.5,38.5z"/>
</g>
<g id="monkey-glasses">
	<path opacity="0.78" fill="#FFFFFF" d="M125.7,46.8c0,6.6-4.9,12-10.9,12c-3.9,0-7.3-2.2-9.2-5.6c-1.1-1.9-1.7-4.1-1.7-6.4
		c0-6.6,4.9-12,10.9-12C120.8,34.8,125.7,40.2,125.7,46.8z"/>
	<path opacity="0.78" fill="#FFFFFF" d="M153.5,48.7c0,1.1-0.1,2.2-0.4,3.3c0,0,0,0,0,0c-1.3,5-5.5,8.7-10.5,8.7
		c-6,0-10.9-5.4-10.9-12s4.9-12,10.9-12S153.5,42.1,153.5,48.7z"/>
	<ellipse fill="#010101" cx="116.9" cy="46.8" rx="2.8" ry="6.4"/>
	<ellipse fill="#010101" cx="140" cy="48.7" rx="2.6" ry="6"/>
	<path fill="#464547" d="M152,48.8c0,0-0.1,9.8-9.4,10.5c-9.3,0.7-9.4-10.6-9.4-10.6l-1.5-1.6l0.3,6.6l5.5,6.3
		c0,0,11.4,1.7,14.1-4.2c2.7-6,1.2-8.1,1.2-8.1L152,48.8z"/>
	<path fill="#464547" d="M124.2,47.8c0,0-0.9,9.6-9.4,9.5s-9.3-8.4-9.4-10.4c-0.1-2-0.2-3.1-0.2-3.1s-2.1,4.2,0.7,9.5
		c2.8,5.3,13,8.5,16.9,1.7c3.9-6.8,2.1-8.2,2.1-8.2L124.2,47.8z"/>
	<g>
		<path fill="#231F20" d="M154.3,47.3c0.1-0.1,0.1-0.2,0.2-0.3C154.4,47.1,154.3,47.2,154.3,47.3z M126.2,45.7L126.2,45.7
			c0,0,0.2-0.1,0.5-0.1C126.4,45.6,126.3,45.7,126.2,45.7z M126,44.5c0-0.1,0-0.1,0-0.2c0,0.1,0.1,0.3,0.1,0.4
			C126,44.7,126,44.6,126,44.5z M103.5,41.2C103.5,41.2,103.5,41.2,103.5,41.2c0,0.1,0,0.1,0.1,0.2
			C103.6,41.3,103.6,41.3,103.5,41.2z M102.3,37.7l-0.1-0.4c0.1,0.3,0.2,0.5,0.3,0.7C102.4,38,102.3,37.9,102.3,37.7z M86.8,14.3
			C86.8,14.3,86.8,14.3,86.8,14.3C86.8,14.3,86.9,14.3,86.8,14.3C86.9,14.3,86.9,14.3,86.8,14.3z M85.5,14.1c0,0-0.1,0-0.1,0h-0.1
			c0.1,0,0.2,0,0.4,0C85.6,14.1,85.6,14.1,85.5,14.1z M85.2,14.1c-0.2,0-0.2,0-0.2,0l0,0h0c0,0,0.1,0,0.4,0
			C85.3,14.1,85.2,14.1,85.2,14.1z"/>
		<path fill="#231F20" d="M163.4,23.3c-0.1-0.1-0.1-0.2-0.2-0.4c0,0,0,0,0,0c-0.1-0.1-0.1-0.3-0.2-0.4c0,0,0-0.1,0-0.1
			c0,0,0-0.1,0-0.1c0-0.1-0.1-0.2-0.1-0.3c-0.1-0.2-0.2-0.5-0.3-0.7c-0.1-0.2-0.2-0.5-0.3-0.7c-0.1-0.1-0.1-0.3-0.2-0.4
			c0,0.1,0,0.2,0,0.3c0,0.1,0,0.1,0,0.2c0,0.1,0,0.3,0,0.4c0,0.2,0,0.4,0,0.7c0,0.1,0,0.2,0,0.3c0,0.2,0,0.5,0,0.7
			c0,0.2,0,0.5-0.1,0.8c0,0.4-0.1,0.8-0.1,1.2c-0.1,1-0.2,2.2-0.4,3.4c0,0.3-0.1,0.6-0.1,0.9c0,0.3-0.1,0.6-0.1,1
			c0,0.3-0.1,0.7-0.2,1c-0.1,0.7-0.2,1.3-0.3,2c-0.1,0.5-0.2,1-0.3,1.4c-0.1,0.3-0.2,0.7-0.3,1c-0.1,0.4-0.2,0.7-0.3,1
			c0,0.1-0.1,0.2-0.1,0.3c-0.1,0.3-0.2,0.7-0.3,1c-0.1,0.4-0.3,0.9-0.5,1.3c-0.2,0.4-0.3,0.8-0.5,1.2c-0.4,1-0.9,1.9-1.3,2.7
			c-0.1,0.2-0.2,0.3-0.2,0.5c-0.2,0.3-0.3,0.6-0.5,0.8c-0.1,0.2-0.2,0.3-0.3,0.5c-0.2,0.3-0.3,0.5-0.4,0.7c-0.3,0.5-0.6,0.9-0.8,1.2
			c-0.7-2.9-3.7-11.7-12.3-10.9c-7.3,0.7-9.8,6.5-10.7,10c-2.4-0.9-4.1-0.7-4.9-0.5c-0.3,0.1-0.5,0.2-0.5,0.2v0c0,0,0,0,0,0
			c0-0.1,0-0.2,0-0.3c0-0.2-0.1-0.4-0.1-0.6c0-0.1,0-0.3-0.1-0.4c-0.1-0.6-0.3-1.2-0.5-1.8c-0.1-0.2-0.2-0.4-0.2-0.6
			c-0.1-0.2-0.1-0.3-0.2-0.5c0,0,0,0,0,0c-0.1-0.3-0.3-0.6-0.5-0.9c0,0,0,0,0,0c-0.2-0.3-0.3-0.6-0.5-0.9c-0.2-0.3-0.3-0.5-0.5-0.8
			c-0.1-0.2-0.3-0.3-0.4-0.5c-0.2-0.2-0.3-0.4-0.5-0.6c-0.2-0.2-0.4-0.4-0.6-0.6c-0.1-0.1-0.2-0.2-0.2-0.2c-0.1-0.1-0.2-0.2-0.3-0.3
			c-0.1-0.1-0.2-0.2-0.4-0.3c-0.4-0.3-0.8-0.5-1.2-0.8c-0.1-0.1-0.3-0.1-0.4-0.2c-0.4-0.2-0.9-0.4-1.3-0.6c-0.1,0-0.2-0.1-0.3-0.1
			c-0.3-0.1-0.6-0.2-0.9-0.2c-0.1,0-0.2,0-0.3-0.1c-0.1,0-0.3,0-0.4-0.1c-0.2,0-0.5-0.1-0.8-0.1c-0.3,0-0.5,0-0.8,0
			c-0.2,0-0.5,0-0.7,0c-0.1,0-0.1,0-0.2,0c-0.1,0-0.3,0-0.4,0c-0.1,0-0.3,0-0.4,0.1c-0.1,0-0.2,0-0.3,0.1c-0.3,0.1-0.7,0.2-1,0.3
			c-0.2,0.1-0.5,0.2-0.7,0.3c-0.3,0.1-0.5,0.2-0.8,0.4c-0.2,0.1-0.3,0.2-0.5,0.3c-0.2,0.1-0.5,0.3-0.7,0.4c-0.2,0.1-0.4,0.3-0.7,0.5
			s-0.4,0.3-0.6,0.5c-0.2,0.2-0.4,0.3-0.6,0.5c-0.1,0.1-0.2,0.2-0.2,0.2c-0.4,0.4-0.8,0.8-1.1,1.2c-0.1,0.2-0.3,0.3-0.4,0.5
			c0,0-0.1,0.1-0.1,0.1c-0.1,0.2-0.3,0.4-0.4,0.5c0,0,0,0,0,0.1c-0.2,0.3-0.4,0.5-0.5,0.7c0,0-0.1,0.1-0.1,0.1
			c-0.1,0.1-0.1,0.2-0.2,0.3c0,0,0,0,0,0c-0.1,0.2-0.1,0.3-0.2,0.4c0,0.1-0.1,0.1-0.1,0.1c0,0,0,0,0,0c0,0,0-0.1-0.1-0.3
			c0,0,0-0.1,0-0.1c0-0.1-0.1-0.2-0.1-0.3c0-0.1-0.1-0.1-0.1-0.2c-0.2-0.6-0.5-1.4-0.9-2.4c-0.1-0.2-0.2-0.5-0.2-0.7
			c-0.1-0.2-0.2-0.5-0.3-0.7c0-0.1,0-0.1-0.1-0.2c-0.1-0.2-0.2-0.4-0.2-0.6c-0.2-0.7-0.5-1.4-0.8-2.1c-0.4-1-0.8-2.1-1.2-3.2
			c-0.6-1.6-1.3-3.3-1.9-4.9c-0.1-0.4-0.3-0.8-0.5-1.1c-0.1-0.2-0.1-0.3-0.2-0.4c-0.2-0.6-0.5-1.1-0.7-1.7c-0.1-0.3-0.2-0.5-0.3-0.8
			c-0.2-0.5-0.5-1-0.7-1.4c0,0,0,0,0,0c-0.2-0.4-0.4-0.8-0.6-1.2c-0.2-0.3-0.3-0.6-0.5-0.9c-0.1-0.1-0.2-0.3-0.3-0.4
			c-0.1-0.1-0.2-0.2-0.3-0.3c-0.1-0.2-0.3-0.3-0.4-0.5c-0.1-0.1-0.1-0.2-0.2-0.2c-0.4-0.5-0.9-0.8-1.4-1.2c-0.1-0.1-0.2-0.1-0.3-0.2
			c-0.1-0.1-0.2-0.2-0.3-0.2c-0.2-0.1-0.4-0.2-0.6-0.4c-1.3-0.7-2.5-1-3.5-1.2c0,0-0.1,0-0.2,0c-0.1,0-0.1,0-0.2,0
			c-0.3-0.1-0.6-0.1-0.8-0.1c-0.1,0-0.2,0-0.2,0c-0.1,0-0.3,0-0.4,0c-0.2,0-0.4,0-0.4,0h0l-3.7,0.7h0c-0.4,0.3-0.8,0.6-1.2,1
			c-1.6,1.6-2.4,3.6-2.9,5.3c0,0,0,0,0,0c-0.6,2.3-0.6,4.2-0.6,4.3l3-0.1c0,0,0-4.8,2.6-7.5c0.9-0.9,2-1.4,3.4-1.6h0.1
			c0.5-0.1,0.9-0.1,1.5-0.1c1.2,0,2.5,0.9,3.9,2.4c2.1,2.4,4.4,6.5,6.6,12c0.1,0.2,0.2,0.4,0.3,0.7c0,0,0,0,0,0
			c2.5,6.5,4.2,12.8,4.6,14.1v0c-0.1,0.5-0.1,0.9-0.1,1.4c0,2.6,0.7,5,1.9,7.2c0.3,0.5,0.7,1,1,1.5c2.3,3,5.8,4.8,9.5,4.8
			c6.5,0,11.9-5.5,12.4-12.4c0.9-0.2,1.7-0.2,2.2,0c0.5,0.3,0.8,0.8,0.8,1c0.1,7.3,5.6,13.3,12.4,13.3c3.6,0,6.9-1.7,9.2-4.4
			c1.3-1.5,2.3-3.3,2.8-5.4l0.1-0.2v-0.1c0.2-0.9,0.4-1.9,0.4-2.9c1.5-1.7,6.5-8.1,8.3-17.2v0c0.5-2.3,0.7-4.8,0.7-7.4v0
			C163.8,24.3,163.6,23.8,163.4,23.3z M124.1,49.7c0,0.2-0.1,0.4-0.1,0.5c0,0.2-0.1,0.4-0.1,0.6c0,0.1-0.1,0.2-0.1,0.3
			c0,0.1-0.1,0.3-0.1,0.4c-0.1,0.3-0.2,0.5-0.3,0.8c-0.2,0.4-0.4,0.8-0.6,1.2c-0.1,0.1-0.2,0.3-0.2,0.4c-0.3,0.5-0.6,0.9-1,1.4
			c-0.2,0.2-0.3,0.4-0.5,0.5c-0.1,0.1-0.2,0.2-0.4,0.3c-0.2,0.2-0.4,0.3-0.6,0.4c-0.2,0.1-0.4,0.3-0.6,0.4c-0.2,0.1-0.5,0.3-0.7,0.4
			c-0.1,0.1-0.2,0.1-0.3,0.1c-0.2,0.1-0.3,0.1-0.5,0.2c-1.2,0.4-2.6,0.5-4.2,0.2c-0.2,0-0.4-0.1-0.5-0.1c-0.2,0-0.3-0.1-0.5-0.1
			c-0.2,0-0.3-0.1-0.5-0.1c-0.2-0.1-0.4-0.1-0.6-0.2c0,0-0.1,0-0.1,0c-0.2-0.1-0.4-0.2-0.6-0.2c-0.3-0.1-0.5-0.2-0.8-0.4
			c0,0,0,0,0,0c-0.5-0.3-0.9-0.6-1.3-0.9c-0.1-0.1-0.3-0.2-0.4-0.3c-0.2-0.2-0.4-0.4-0.6-0.6c-0.1-0.1-0.2-0.3-0.4-0.4
			c-0.1-0.2-0.2-0.3-0.3-0.5c0-0.1-0.1-0.2-0.2-0.2c0,0,0,0,0,0c-0.1-0.2-0.2-0.4-0.3-0.5c-0.1-0.2-0.2-0.4-0.3-0.6
			c-0.2-0.4-0.3-0.8-0.4-1.2c-0.1-0.5-0.2-0.9-0.3-1.4c0-0.2-0.1-0.4-0.1-0.6c0-0.2,0-0.3,0-0.4c0,0,0-0.1,0-0.2c0-0.1,0-0.1,0-0.2
			c0-0.8,0-1.4,0-1.6c0,0,0-0.1,0-0.1c0-5.8,4.2-10.5,9.4-10.5c5.2,0,9.4,4.7,9.4,10.5c0,0.3,0,0.7,0,1c0,0,0,0,0,0c0,0,0,0,0,0
			c0,0,0,0,0,0C124.3,48.1,124.2,48.8,124.1,49.7z M151.9,51.9c0,0.1,0,0.2-0.1,0.4c-0.1,0.6-0.3,1.2-0.5,1.8
			c-0.1,0.1-0.1,0.3-0.2,0.5c-0.1,0.1-0.1,0.3-0.2,0.4c-0.1,0.3-0.3,0.5-0.4,0.8c-0.1,0.2-0.2,0.3-0.3,0.5c-0.1,0.2-0.3,0.4-0.4,0.6
			c-0.1,0.1-0.2,0.2-0.2,0.3c-0.1,0.1-0.2,0.2-0.3,0.3c-0.2,0.2-0.3,0.3-0.5,0.5c-0.2,0.1-0.3,0.3-0.5,0.4c-0.1,0.1-0.3,0.2-0.4,0.3
			c-0.2,0.1-0.3,0.2-0.5,0.3c-0.2,0.1-0.4,0.2-0.5,0.3c-0.2,0.1-0.4,0.2-0.6,0.2c-0.2,0.1-0.4,0.1-0.7,0.2c-0.2,0.1-0.4,0.1-0.6,0.2
			c-0.2,0-0.5,0.1-0.7,0.1c-0.2,0-0.3,0-0.5,0.1c-0.5,0-1,0-1.6,0c-0.3,0-0.5,0-0.8-0.1c-0.5,0-0.9-0.1-1.3-0.2
			c-0.2,0-0.4-0.1-0.7-0.2c-0.4-0.1-0.8-0.3-1.1-0.4c-0.3-0.2-0.7-0.4-1-0.6c0,0,0,0,0,0c-0.1-0.1-0.3-0.2-0.4-0.3c0,0,0,0-0.1-0.1
			c0,0,0,0-0.1-0.1c-0.2-0.2-0.5-0.4-0.7-0.6c-0.4-0.4-0.7-0.8-1-1.2c-0.2-0.3-0.3-0.6-0.5-0.8c0,0,0,0,0,0
			c-0.1-0.3-0.3-0.6-0.4-0.9c-0.2-0.4-0.3-0.8-0.4-1.2c-0.1-0.2-0.1-0.4-0.2-0.6c0-0.2-0.1-0.3-0.1-0.5c0-0.2-0.1-0.3-0.1-0.5
			c0-0.2-0.1-0.4-0.1-0.5c0-0.2,0-0.3-0.1-0.5c0-0.1,0-0.3,0-0.4c0-0.2,0-0.4,0-0.5c0-0.1,0-0.3,0-0.4c0-0.2,0-0.3,0-0.4
			c0,0,0-0.1,0-0.1v-0.2c0-0.1,0-0.2,0-0.3v0c0-0.1,0-0.2,0-0.2c0,0,0-0.1,0-0.1c0,0,0,0,0,0c0,0,0,0,0-0.1v0
			c0.4-5.3,4.5-9.5,9.4-9.5c5.2,0,9.4,4.7,9.4,10.5v0.1C152.2,49.6,152.1,50.7,151.9,51.9z"/>
		<path fill="#464547" d="M161.9,20.2c0,0.1,0,0.2,0,0.3c0,0.1,0,0.1,0,0.2c0,0.1,0,0.3,0,0.4c0,0.2,0,0.4,0,0.7c0,0.1,0,0.2,0,0.3
			c0,0.2,0,0.5,0,0.7c0,0.2,0,0.5-0.1,0.8c0,0.4-0.1,0.8-0.1,1.2c-0.1,1-0.2,2.2-0.4,3.4c0,0.3-0.1,0.6-0.1,0.9c0,0.3-0.1,0.6-0.1,1
			c0,0.3-0.1,0.7-0.2,1c-0.1,0.7-0.2,1.3-0.3,2c-0.1,0.5-0.2,1-0.3,1.4c-0.1,0.3-0.2,0.7-0.3,1c-0.1,0.4-0.2,0.7-0.3,1
			c0,0.1-0.1,0.2-0.1,0.3c-0.1,0.3-0.2,0.7-0.3,1c-0.1,0.4-0.3,0.9-0.5,1.3c-0.2,0.4-0.3,0.8-0.5,1.2c-0.4,1-0.9,1.9-1.3,2.7
			c-0.1,0.2-0.2,0.3-0.2,0.5c-0.2,0.3-0.3,0.6-0.5,0.8c-0.1,0.2-0.2,0.3-0.3,0.5c-0.2,0.3-0.3,0.5-0.4,0.7c-0.3,0.5-0.6,0.9-0.8,1.2
			c-0.7-2.9-3.7-11.7-12.3-10.9c-7.3,0.7-9.8,6.5-10.7,10c-2.4-0.9-4.1-0.7-4.9-0.5c-0.3,0.1-0.5,0.2-0.5,0.2v0c0-0.1,0-0.2-0.1-0.3
			c0-0.2-0.1-0.4-0.1-0.6c0-0.1,0-0.3-0.1-0.4c-0.1-0.6-0.3-1.2-0.5-1.8c-0.1-0.2-0.2-0.4-0.2-0.6c-0.1-0.2-0.1-0.3-0.2-0.5
			c0,0,0,0,0,0c-0.1-0.3-0.3-0.6-0.5-0.9c0,0,0,0,0,0c-0.2-0.3-0.3-0.6-0.5-0.9c-0.2-0.3-0.3-0.5-0.5-0.8c-0.1-0.2-0.3-0.3-0.4-0.5
			c-0.2-0.2-0.3-0.4-0.5-0.6c-0.2-0.2-0.4-0.4-0.6-0.6c-0.1-0.1-0.2-0.2-0.2-0.2c-0.1-0.1-0.2-0.2-0.3-0.3c-0.1-0.1-0.2-0.2-0.4-0.3
			c-0.4-0.3-0.8-0.5-1.2-0.8c-0.1-0.1-0.3-0.1-0.4-0.2c-0.4-0.2-0.9-0.4-1.3-0.6c-0.1,0-0.2-0.1-0.3-0.1c-0.3-0.1-0.6-0.2-0.9-0.2
			c-0.1,0-0.2,0-0.3-0.1c-0.1,0-0.3,0-0.4-0.1c-0.2,0-0.5-0.1-0.8-0.1c-0.3,0-0.5,0-0.8,0c-0.2,0-0.5,0-0.7,0c-0.1,0-0.1,0-0.2,0
			c-0.1,0-0.3,0-0.4,0c-0.1,0-0.3,0-0.4,0.1c-0.1,0-0.2,0-0.3,0.1c-0.3,0.1-0.7,0.2-1,0.3c-0.2,0.1-0.5,0.2-0.7,0.3
			c-0.3,0.1-0.5,0.2-0.8,0.4c-0.2,0.1-0.3,0.2-0.5,0.3c-0.2,0.1-0.5,0.3-0.7,0.4c-0.2,0.1-0.4,0.3-0.7,0.5c-0.2,0.2-0.4,0.3-0.6,0.5
			c-0.2,0.2-0.4,0.3-0.6,0.5c-0.1,0.1-0.2,0.2-0.2,0.2c-0.4,0.4-0.8,0.8-1.1,1.2c-0.1,0.2-0.3,0.3-0.4,0.5c0,0-0.1,0.1-0.1,0.1
			c-0.1,0.2-0.3,0.4-0.4,0.5c0,0,0,0,0,0.1c-0.2,0.3-0.4,0.5-0.5,0.7c0,0-0.1,0.1-0.1,0.1c-0.1,0.1-0.1,0.2-0.2,0.3c0,0,0,0,0,0
			c-0.1,0.2-0.1,0.3-0.2,0.4c0,0.1-0.1,0.1-0.1,0.1c0,0,0,0,0,0c0,0,0-0.1-0.1-0.3c0,0,0-0.1,0-0.1c0-0.1-0.1-0.2-0.1-0.3
			c0-0.1-0.1-0.1-0.1-0.2c-0.2-0.6-0.5-1.4-0.9-2.4c-0.1-0.2-0.2-0.5-0.2-0.7c-0.1-0.2-0.2-0.5-0.3-0.7c0-0.1,0-0.1-0.1-0.2
			c-0.1-0.2-0.2-0.4-0.2-0.6c-0.2-0.7-0.5-1.4-0.8-2.1c-0.4-1-0.8-2.1-1.2-3.2c-0.6-1.6-1.3-3.3-1.9-4.9c-0.1-0.4-0.3-0.8-0.5-1.1
			c-0.1-0.2-0.1-0.3-0.2-0.4c-0.2-0.6-0.5-1.1-0.7-1.7c-0.1-0.3-0.2-0.5-0.3-0.8c-0.2-0.5-0.5-1-0.7-1.4c0,0,0,0,0,0
			c-0.2-0.4-0.4-0.8-0.6-1.2c-0.2-0.3-0.3-0.6-0.5-0.9c-0.1-0.1-0.2-0.3-0.3-0.4c-0.1-0.1-0.2-0.2-0.3-0.3c-0.1-0.2-0.3-0.3-0.4-0.5
			c-0.1-0.1-0.1-0.2-0.2-0.2c-0.4-0.5-0.9-0.8-1.4-1.2c-0.1-0.1-0.2-0.1-0.3-0.2c-0.1-0.1-0.2-0.2-0.3-0.2c-0.2-0.1-0.4-0.3-0.6-0.4
			c-1.3-0.7-2.5-1-3.5-1.2c0,0-0.1,0-0.2,0c-0.1,0-0.1,0-0.2,0c-0.3-0.1-0.6-0.1-0.8-0.1c-0.1,0-0.2,0-0.2,0c-0.1,0-0.3,0-0.4,0
			c-0.2,0-0.4,0-0.4,0h0l-3.7,0.7c1.6-1.1,3.6-1.7,5.9-1.6c0.5,0,1,0.1,1.5,0.2c4,1.1,7.9,6.4,11.8,16.1c1.5,3.9,2.8,7.7,3.7,10.6
			c2.1-4,6.2-6.8,10.8-6.8c6.2,0,11.4,5,12.3,11.5c1.3-0.2,2.5-0.1,3.5,0.3c1.4-5.7,6.3-10,12-10c5.7,0,10.5,4.1,11.9,9.8
			c3-4.3,7.5-16.9,5.8-27.7C160.9,18.2,161.4,19.2,161.9,20.2z"/>
	</g>
</g>
<g id="monkey-ear">
	<path fill="#B8A278" d="M95.5,27.6C95.5,27.6,95.5,27.6,95.5,27.6c0,0-2.9-10.7-9.4-11.3c-6.5-0.6-11.2,4.2-11.4,16.3
		c-0.2,12.1,17.5,14,17.5,14l-2.6,2.1c-4.3-0.2-15.4-9.4-16.1-13.5c-0.2-1.5-0.7-4.4-0.6-7.6c0.2-5.6,2.1-12.2,10-13.4
		c1.6-0.2,3-0.1,4.3,0.2c8.5,2.5,10.6,16.8,10.7,17.7C97.3,30.1,96.5,28.6,95.5,27.6z"/>
	<path fill="#D9BD8C" d="M92.2,46.6c0,0-17.7-1.9-17.5-14c0.2-12.1,4.9-16.9,11.4-16.3c6.5,0.6,9.4,11.3,9.4,11.3
		c-5.2-5.5-14.4,1-15.3,5.3C79.1,38,92.2,46.6,92.2,46.6z"/>
</g>
<g id="calculator">
	<g>
		<path fill="#ADAFB2" d="M126.5,113.3l-22.8-29.4c0,0,0,0,0,0h0l0,0v0l-4.2-5.4l-1.8-2.3L83.5,57.8L54.4,78.2L54,78.5l-0.9,0.6v0
			l1.2,1.5v0l0.7,0.8l0,0v0l13,15.4l0.1,0.1l0.1,0.1v0h0c0,0,0,0,0,0l4.8,5.6c0,0,0,0,0,0c0,0,0,0,0,0l0.5,0.6l0.1,0.1c0,0,0,0,0,0
			l0.6,0.7c0,0,0,0,0,0l0,0h0l0.4,0.4c0,0,0,0,0,0l0.4,0.4L85,117l0,0v0l0.4,0.5l0,0l0.4,0.4v0h0c0,0,0,0,0,0l0.1,0.1
			c0.2,0.3,0.8,1,1.5,2c0.7,0.9,1.6,2.1,2.6,3.3c3.2,4,7.2,8.9,7.9,9c0.4,0.1,4.1-2.3,8.7-5.3c1.9-1.3,4-2.7,6.1-4.2
			c5.9-4.1,11.7-8.1,13.3-9.3L126.5,113.3L126.5,113.3C126.5,113.3,126.5,113.3,126.5,113.3C126.5,113.3,126.5,113.3,126.5,113.3
			L126.5,113.3z M68.6,90.5L68.6,90.5l-4.4-6.1L62,81.2l-0.6-0.8l22.1-17.2l5,6.5l2.6,3.4h0l-0.6,0.5L68.6,90.5z"/>
		<path fill="#4F4F51" d="M126.8,117.3c-0.1,0.4-4.2,3.3-9.4,6.6c-2.2,1.5-4.6,3-7,4.5c-6,3.9-11.6,7.3-12.3,7.3
			c-0.3,0-2.8-2.5-6.4-6.4c-0.1-0.1-0.1-0.1-0.2-0.2c-0.1-0.1-0.1-0.1-0.2-0.2c-1.5-1.6-3.2-3.5-5-5.5c-0.9-1.1-1.9-2.2-2.9-3.3
			c-5.7-6.4-12.1-13.7-17.6-20c0,0,0,0,0,0c0,0,0,0,0,0c-3.7-4.3-7-8.1-9.3-10.8c-0.2-0.3-0.5-0.6-0.7-0.9c-1.4-1.7-2.3-2.8-2.4-3.1
			c-0.9-1.8-0.4-6.3-0.4-6.3l1.2,1.5l0.7,0.8l13,15.4l0.1,0.1l0.1,0.1l0,0l4.8,5.7c0,0,0,0,0,0c0,0,0,0,0,0l0.5,0.6l0.1,0.1
			c0,0,0,0,0,0l0.6,0.7c0,0,0,0,0,0l0,0h0l0.4,0.4l0.4,0.4L85,117l0,0l0.4,0.5l0,0l0.4,0.4l0,0l0.1,0.1l1.7,2l2.8,3.3l7.6,9l8.2-5.5
			l6.1-4.1l14.1-9.4l0.1,0l0,0h0c0,0,0,0,0,0C126.6,113.5,127,116.4,126.8,117.3z"/>
	</g>
	<polygon fill="#4F4F51" points="83.4,63.2 91.1,73 90.5,73.5 83.5,64.5 62,81.2 61.4,80.3 	"/>
	<polygon fill="#FFFFFF" points="83.5,64.5 90.5,73.5 68.6,90.5 62,81.2 	"/>
	<path fill="#81B441" d="M79.6,69.2c0,0,0-0.1,0.1-0.2c0-0.1,0-0.2,0.1-0.2c0,0,0-0.1,0-0.1c0,0,0.1-0.1,0.1-0.1
		c0.3-0.3,0.7-0.6,1.1-0.9c0.4-0.3,0.8-0.7,1.1-0.9c0,0,0.1-0.1,0.1-0.1c0.1,0,0.1,0,0.2,0c0.1,0,0.2,0,0.3,0c0.1,0,0.2,0,0.2,0
		s0,0.1-0.1,0.2c0,0.1,0,0.2-0.1,0.2c0,0,0,0.1,0,0.1c0,0.1-0.1,0.1-0.1,0.1c-0.3,0.3-0.7,0.6-1.1,0.9c-0.4,0.3-0.8,0.7-1.1,0.9
		c0,0-0.1,0.1-0.1,0.1c-0.1,0-0.1,0-0.2,0c-0.1,0-0.2,0-0.3,0C79.7,69.2,79.6,69.2,79.6,69.2z"/>
	<path fill="#81B441" d="M82.3,72.9c0,0,0-0.1,0.1-0.2c0-0.1,0-0.2,0.1-0.2c0,0,0-0.1,0-0.1c0,0,0.1-0.1,0.1-0.1
		c0.3-0.3,0.7-0.6,1.1-0.9c0.4-0.3,0.8-0.7,1.1-0.9c0,0,0.1-0.1,0.1-0.1c0.1,0,0.1,0,0.2,0c0.1,0,0.2,0,0.3,0c0.1,0,0.2,0,0.2,0
		s0,0.1-0.1,0.2c0,0.1,0,0.2-0.1,0.2c0,0,0,0.1,0,0.1c0,0.1-0.1,0.1-0.1,0.1c-0.3,0.3-0.7,0.6-1.1,0.9c-0.4,0.3-0.8,0.7-1.1,0.9
		c0,0-0.1,0.1-0.1,0.1c-0.1,0-0.1,0-0.2,0c-0.1,0-0.2,0-0.3,0C82.3,72.9,82.3,72.9,82.3,72.9z"/>
	<path fill="#81B441" d="M68.4,84.3c0,0,0-0.1,0.1-0.2c0-0.1,0-0.2,0.1-0.2c0,0,0-0.1,0-0.1c0,0,0.1-0.1,0.1-0.1
		c0.3-0.3,0.7-0.6,1.1-0.9c0.4-0.3,0.8-0.7,1.1-0.9c0,0,0.1-0.1,0.1-0.1c0.1,0,0.1,0,0.2,0c0.1,0,0.2,0,0.3,0c0.1,0,0.2,0,0.2,0
		s0,0.1-0.1,0.2c0,0.1,0,0.2-0.1,0.2c0,0,0,0.1,0,0.1c0,0.1-0.1,0.1-0.1,0.1c-0.3,0.3-0.7,0.6-1.1,0.9c-0.4,0.3-0.8,0.7-1.1,0.9
		c0,0-0.1,0.1-0.1,0.1c-0.1,0-0.1,0-0.2,0c-0.1,0-0.2,0-0.3,0C68.4,84.3,68.4,84.3,68.4,84.3z"/>
	<path fill="#81B441" d="M84.7,76.3c0,0,0-0.1,0.1-0.2c0-0.1,0-0.2,0.1-0.2c0,0,0-0.1,0-0.1c0,0,0.1-0.1,0.1-0.1
		c0.3-0.3,0.7-0.6,1.1-0.9c0.4-0.3,0.8-0.7,1.1-0.9c0,0,0.1-0.1,0.1-0.1c0.1,0,0.1,0,0.2,0c0.1,0,0.2,0,0.3,0c0.1,0,0.2,0,0.2,0
		s0,0.1-0.1,0.2c0,0.1,0,0.2-0.1,0.2c0,0,0,0.1,0,0.1c0,0.1-0.1,0.1-0.1,0.1c-0.3,0.3-0.7,0.6-1.1,0.9c-0.4,0.3-0.8,0.7-1.1,0.9
		c0,0-0.1,0.1-0.1,0.1c-0.1,0-0.1,0-0.2,0c-0.1,0-0.2,0-0.3,0C84.8,76.3,84.7,76.3,84.7,76.3z"/>
	<path fill="#81B441" d="M83.3,66.9c0,0,0.1,0,0.2,0c0.1,0,0.1,0,0.2,0.1c0,0,0.1,0,0.1,0c0,0,0,0.1,0.1,0.1
		c0.2,0.3,0.5,0.7,0.8,1.1c0.3,0.4,0.6,0.8,0.8,1.1c0,0,0.1,0.1,0.1,0.1c0,0.1,0,0.1,0,0.1c0,0.1,0,0.2,0,0.2c0,0.1,0,0.2,0,0.2
		s-0.1,0-0.2,0c-0.1,0-0.1,0-0.2-0.1c0,0-0.1,0-0.1,0c-0.1,0,0-0.1-0.1-0.1c-0.2-0.3-0.5-0.7-0.8-1.1c-0.3-0.4-0.6-0.8-0.8-1.1
		c0,0-0.1-0.1-0.1-0.1c0-0.1,0-0.1,0-0.1c0-0.1,0-0.2,0-0.2C83.3,67,83.3,66.9,83.3,66.9z"/>
	<path fill="#81B441" d="M64,81.8c0,0,0.1,0,0.2,0c0.1,0,0.1,0,0.2,0.1c0,0,0.1,0,0.1,0c0,0,0,0.1,0.1,0.1c0.2,0.3,0.5,0.7,0.8,1.1
		c0.3,0.4,0.6,0.8,0.8,1.1c0,0,0.1,0.1,0.1,0.1c0,0.1,0,0.1,0,0.1c0,0.1,0,0.2,0,0.2c0,0.1,0,0.2,0,0.2s-0.1,0-0.2,0
		c-0.1,0-0.1,0-0.2-0.1c0,0-0.1,0-0.1,0c-0.1,0,0-0.1-0.1-0.1c-0.2-0.3-0.5-0.7-0.8-1.1c-0.3-0.4-0.6-0.8-0.8-1.1
		c0,0-0.1-0.1-0.1-0.1c0-0.1,0-0.1,0-0.1c0-0.1,0-0.2,0-0.2C64,81.9,64,81.8,64,81.8z"/>
	<path fill="#81B441" d="M66.7,85.2c0,0,0.1,0,0.2,0c0.1,0,0.1,0,0.2,0.1c0,0,0.1,0,0.1,0c0,0,0,0.1,0.1,0.1
		c0.2,0.3,0.5,0.7,0.8,1.1c0.3,0.4,0.6,0.8,0.8,1.1c0,0,0.1,0.1,0.1,0.1c0,0.1,0,0.1,0,0.1c0,0.1,0,0.2,0,0.2c0,0.1,0,0.2,0,0.2
		s-0.1,0-0.2,0c-0.1,0-0.1,0-0.2-0.1c0,0-0.1,0-0.1,0c-0.1,0,0-0.1-0.1-0.1c-0.2-0.3-0.5-0.7-0.8-1.1c-0.3-0.4-0.6-0.8-0.8-1.1
		c0,0-0.1-0.1-0.1-0.1c0-0.1,0-0.1,0-0.1c0-0.1,0-0.2,0-0.2C66.6,85.3,66.7,85.2,66.7,85.2z"/>
	<path fill="#81B441" d="M68.9,81.5c0,0,0.1,0,0.2,0c0.1,0,0.1,0,0.2,0.1c0,0,0.1,0,0.1,0c0,0,0,0.1,0.1,0.1
		c0.2,0.3,0.5,0.7,0.8,1.1c0.3,0.4,0.6,0.8,0.8,1.1c0,0,0.1,0.1,0.1,0.1c0,0.1,0,0.1,0,0.1c0,0.1,0,0.2,0,0.2c0,0.1,0,0.2,0,0.2
		s-0.1,0-0.2,0c-0.1,0-0.1,0-0.2-0.1c0,0-0.1,0-0.1,0c-0.1,0,0-0.1-0.1-0.1c-0.2-0.3-0.5-0.7-0.8-1.1c-0.3-0.4-0.6-0.8-0.8-1.1
		c0,0-0.1-0.1-0.1-0.1c0-0.1,0-0.1,0-0.1c0-0.1,0-0.2,0-0.2C68.9,81.6,68.9,81.5,68.9,81.5z"/>
	<path fill="#81B441" d="M85.9,70.3c0,0,0.1,0,0.2,0c0.1,0,0.1,0,0.2,0.1c0,0,0.1,0,0.1,0c0,0,0,0.1,0.1,0.1
		c0.2,0.3,0.5,0.7,0.8,1.1c0.3,0.4,0.6,0.8,0.8,1.1c0,0,0.1,0.1,0.1,0.1c0,0.1,0,0.1,0,0.1c0,0.1,0,0.2,0,0.2c0,0.1,0,0.2,0,0.2
		s-0.1,0-0.2,0c-0.1,0-0.1,0-0.2-0.1c0,0-0.1,0-0.1,0c-0.1,0,0-0.1-0.1-0.1c-0.2-0.3-0.5-0.7-0.8-1.1c-0.3-0.4-0.6-0.8-0.8-1.1
		c0,0-0.1-0.1-0.1-0.1c0-0.1,0-0.1,0-0.1c0-0.1,0-0.2,0-0.2C85.9,70.4,85.9,70.3,85.9,70.3z"/>
	<path fill="#81B441" d="M70.3,76.2c0,0,0-0.1,0.1-0.2c0-0.1,0-0.2,0.1-0.2c0,0,0-0.1,0-0.1c0,0,0.1-0.1,0.1-0.1
		c0.3-0.3,0.7-0.6,1.1-0.9c0.4-0.3,0.8-0.7,1.1-0.9c0,0,0.1-0.1,0.1-0.1c0.1,0,0.1,0,0.2,0c0.1,0,0.2,0,0.3,0c0.1,0,0.2,0,0.2,0
		s0,0.1-0.1,0.2c0,0.1,0,0.2-0.1,0.2c0,0,0,0.1,0,0.1c0,0.1-0.1,0.1-0.1,0.1c-0.3,0.3-0.7,0.6-1.1,0.9c-0.4,0.3-0.8,0.7-1.1,0.9
		c0,0-0.1,0.1-0.1,0.1c-0.1,0-0.1,0-0.2,0c-0.1,0-0.2,0-0.3,0C70.3,76.2,70.3,76.2,70.3,76.2z"/>
	<path fill="#81B441" d="M72.9,80c0,0,0-0.1,0.1-0.2c0-0.1,0-0.2,0.1-0.2c0,0,0-0.1,0-0.1c0,0,0.1-0.1,0.1-0.1
		c0.3-0.3,0.7-0.6,1.1-0.9c0.4-0.3,0.8-0.7,1.1-0.9c0,0,0.1-0.1,0.1-0.1c0.1,0,0.1,0,0.2,0c0.1,0,0.2,0,0.3,0c0.1,0,0.2,0,0.2,0
		s0,0.1-0.1,0.2c0,0.1,0,0.2-0.1,0.2c0,0,0,0.1,0,0.1c0,0.1-0.1,0.1-0.1,0.1c-0.3,0.3-0.7,0.6-1.1,0.9c-0.4,0.3-0.8,0.7-1.1,0.9
		c0,0-0.1,0.1-0.1,0.1c-0.1,0-0.1,0-0.2,0c-0.1,0-0.2,0-0.3,0C73,80,72.9,80,72.9,80z"/>
	<path fill="#81B441" d="M75.3,83.3c0,0,0-0.1,0.1-0.2c0-0.1,0-0.2,0.1-0.2c0,0,0-0.1,0-0.1c0,0,0.1-0.1,0.1-0.1
		c0.3-0.3,0.7-0.6,1.1-0.9c0.4-0.3,0.8-0.7,1.1-0.9c0,0,0.1-0.1,0.1-0.1c0.1,0,0.1,0,0.2,0c0.1,0,0.2,0,0.3,0c0.1,0,0.2,0,0.2,0
		s0,0.1-0.1,0.2c0,0.1,0,0.2-0.1,0.2c0,0,0,0.1,0,0.1c0,0.1-0.1,0.1-0.1,0.1c-0.3,0.3-0.7,0.6-1.1,0.9c-0.4,0.3-0.8,0.7-1.1,0.9
		c0,0-0.1,0.1-0.1,0.1c-0.1,0-0.1,0-0.2,0c-0.1,0-0.2,0-0.3,0C75.4,83.3,75.3,83.3,75.3,83.3z"/>
	<path fill="#81B441" d="M77.7,76.1c0,0,0-0.1,0.1-0.2c0-0.1,0-0.2,0.1-0.2c0,0,0-0.1,0-0.1c0,0,0.1-0.1,0.1-0.1
		c0.3-0.3,0.7-0.6,1.1-0.9c0.4-0.3,0.8-0.7,1.1-0.9c0,0,0.1-0.1,0.1-0.1c0.1,0,0.1,0,0.2,0c0.1,0,0.2,0,0.3,0c0.1,0,0.2,0,0.2,0
		s0,0.1-0.1,0.2c0,0.1,0,0.2-0.1,0.2c0,0,0,0.1,0,0.1c0,0.1-0.1,0.1-0.1,0.1c-0.3,0.3-0.7,0.6-1.1,0.9c-0.4,0.3-0.8,0.7-1.1,0.9
		c0,0-0.1,0.1-0.1,0.1c-0.1,0-0.1,0-0.2,0c-0.1,0-0.2,0-0.3,0C77.7,76.1,77.7,76.1,77.7,76.1z"/>
	<path fill="#81B441" d="M78.7,77.6c0,0,0-0.1,0.1-0.2c0-0.1,0-0.2,0.1-0.2c0,0,0-0.1,0-0.1c0,0,0.1-0.1,0.1-0.1
		c0.3-0.3,0.7-0.6,1.1-0.9c0.4-0.3,0.8-0.7,1.1-0.9c0,0,0.1-0.1,0.1-0.1c0.1,0,0.1,0,0.2,0c0.1,0,0.2,0,0.3,0c0.1,0,0.2,0,0.2,0
		s0,0.1-0.1,0.2c0,0.1,0,0.2-0.1,0.2c0,0,0,0.1,0,0.1c0,0.1-0.1,0.1-0.1,0.1c-0.3,0.3-0.7,0.6-1.1,0.9c-0.4,0.3-0.8,0.7-1.1,0.9
		c0,0-0.1,0.1-0.1,0.1c-0.1,0-0.1,0-0.2,0c-0.1,0-0.2,0-0.3,0C78.8,77.6,78.7,77.6,78.7,77.6z"/>
	<path fill="#81B441" d="M73.9,73.9c0,0,0.1,0,0.2,0c0.1,0,0.1,0,0.2,0.1c0,0,0.1,0,0.1,0c0,0,0,0.1,0.1,0.1
		c0.2,0.3,0.5,0.7,0.8,1.1c0.3,0.4,0.6,0.8,0.8,1.1c0,0,0.1,0.1,0.1,0.1c0,0.1,0,0.1,0,0.1c0,0.1,0,0.2,0,0.2c0,0.1,0,0.2,0,0.2
		s-0.1,0-0.2,0c-0.1,0-0.1,0-0.2-0.1c0,0-0.1,0-0.1,0c-0.1,0,0-0.1-0.1-0.1c-0.2-0.3-0.5-0.7-0.8-1.1c-0.3-0.4-0.6-0.8-0.8-1.1
		c0,0-0.1-0.1-0.1-0.1c0-0.1,0-0.1,0-0.1c0-0.1,0-0.2,0-0.2C73.9,74,73.9,73.9,73.9,73.9z"/>
	<path fill="#81B441" d="M72.7,80.3c0,0,0.1,0,0.2,0c0.1,0,0.1,0,0.2,0.1c0,0,0.1,0,0.1,0c0,0,0,0.1,0.1,0.1
		c0.2,0.3,0.5,0.7,0.8,1.1c0.3,0.4,0.6,0.8,0.8,1.1c0,0,0.1,0.1,0.1,0.1c0,0.1,0,0.1,0,0.1c0,0.1,0,0.2,0,0.2c0,0.1,0,0.2,0,0.2
		s-0.1,0-0.2,0c-0.1,0-0.1,0-0.2-0.1c0,0-0.1,0-0.1,0c-0.1,0,0-0.1-0.1-0.1c-0.2-0.3-0.5-0.7-0.8-1.1c-0.3-0.4-0.6-0.8-0.8-1.1
		c0,0-0.1-0.1-0.1-0.1c0-0.1,0-0.1,0-0.1c0-0.1,0-0.2,0-0.2C72.6,80.4,72.7,80.3,72.7,80.3z"/>
	<path fill="#FFFFFF" d="M80.7,100.1l-1.6,1.2c-0.7,0.5-1.7,0.4-2.3-0.3l-0.9-1.1c-0.5-0.7-0.4-1.7,0.3-2.3l1.6-1.2
		c0.7-0.5,1.7-0.4,2.3,0.3l0.9,1.1C81.5,98.5,81.4,99.5,80.7,100.1z"/>
	<path fill="#FFFFFF" d="M86.9,95.2l-1.6,1.2c-0.7,0.5-1.7,0.4-2.3-0.3L82.2,95c-0.5-0.7-0.4-1.7,0.3-2.3l1.6-1.2
		c0.7-0.5,1.7-0.4,2.3,0.3l0.9,1.1C87.8,93.6,87.6,94.7,86.9,95.2z"/>
	<path fill="#FFFFFF" d="M93.8,89.9l-1.6,1.2c-0.7,0.5-1.7,0.4-2.3-0.3L89,89.7c-0.5-0.7-0.4-1.7,0.3-2.3l1.6-1.2
		c0.7-0.5,1.7-0.4,2.3,0.3l0.9,1.1C94.6,88.3,94.5,89.3,93.8,89.9z"/>
	<path fill="#FFFFFF" d="M99.5,85.4l-1.6,1.2c-0.7,0.5-1.7,0.4-2.3-0.3l-0.9-1.1c-0.5-0.7-0.4-1.7,0.3-2.3l1.6-1.2
		c0.7-0.5,1.7-0.4,2.3,0.3l0.9,1.1C100.4,83.9,100.2,84.9,99.5,85.4z"/>
	<path fill="#FFFFFF" d="M104.4,91.6l-1.6,1.2c-0.7,0.5-1.7,0.4-2.3-0.3l-0.9-1.1c-0.5-0.7-0.4-1.7,0.3-2.3l1.6-1.2
		c0.7-0.5,1.7-0.4,2.3,0.3l0.9,1.1C105.2,90.1,105.1,91.1,104.4,91.6z"/>
	<path fill="#FFFFFF" d="M98.6,96.1L97,97.4c-0.7,0.5-1.7,0.4-2.3-0.3L93.9,96c-0.5-0.7-0.4-1.7,0.3-2.3l1.6-1.2
		c0.7-0.5,1.7-0.4,2.3,0.3l0.9,1.1C99.4,94.6,99.3,95.6,98.6,96.1z"/>
	<path fill="#FFFFFF" d="M91.8,101.4l-1.6,1.2c-0.7,0.5-1.7,0.4-2.3-0.3l-0.9-1.1c-0.5-0.7-0.4-1.7,0.3-2.3l1.6-1.2
		c0.7-0.5,1.7-0.4,2.3,0.3l0.9,1.1C92.6,99.9,92.5,100.9,91.8,101.4z"/>
	<path fill="#FFFFFF" d="M85.8,106.7l-1.6,1.2c-0.7,0.5-1.7,0.4-2.3-0.3l-0.9-1.1c-0.5-0.7-0.4-1.7,0.3-2.3L83,103
		c0.7-0.5,1.7-0.4,2.3,0.3l0.9,1.1C86.6,105.1,86.5,106.1,85.8,106.7z"/>
	<path fill="#FFFFFF" d="M91.1,113.5l-1.6,1.2c-0.7,0.5-1.7,0.4-2.3-0.3l-0.9-1.1c-0.5-0.7-0.4-1.7,0.3-2.3l1.6-1.2
		c0.7-0.5,1.7-0.4,2.3,0.3l0.9,1.1C91.9,112,91.8,113,91.1,113.5z"/>
	<path fill="#FFFFFF" d="M97.7,109.1l-1.6,1.2c-0.7,0.5-1.7,0.4-2.3-0.3l-0.9-1.1c-0.5-0.7-0.4-1.7,0.3-2.3l1.6-1.2
		c0.7-0.5,1.7-0.4,2.3,0.3l0.9,1.1C98.5,107.5,98.4,108.5,97.7,109.1z"/>
	<path fill="#FFFFFF" d="M104.2,103.3l-1.6,1.2c-0.7,0.5-1.7,0.4-2.3-0.3l-0.9-1.1c-0.5-0.7-0.4-1.7,0.3-2.3l1.6-1.2
		c0.7-0.5,1.7-0.4,2.3,0.3l0.9,1.1C105,101.8,104.9,102.8,104.2,103.3z"/>
	<path fill="#FFFFFF" d="M114.7,105.3l-1.3,1c-0.8,0.6-1.9,0.5-2.6-0.3l-5.5-7.1c-0.6-0.8-0.5-1.9,0.3-2.6l1.3-1
		c0.8-0.6,1.9-0.5,2.6,0.3l5.5,7.1C115.7,103.6,115.5,104.7,114.7,105.3z"/>
	<path fill="#FFFFFF" d="M109.1,109.7l-1.6,1.2c-0.7,0.5-1.7,0.4-2.3-0.3l-0.9-1.1c-0.5-0.7-0.4-1.7,0.3-2.3l1.6-1.2
		c0.7-0.5,1.7-0.4,2.3,0.3l0.9,1.1C110,108.1,109.8,109.1,109.1,109.7z"/>
	<path fill="#FFFFFF" d="M101.8,114.9l-1.6,1.2c-0.7,0.5-1.7,0.4-2.3-0.3l-0.9-1.1c-0.5-0.7-0.4-1.7,0.3-2.3l1.6-1.2
		c0.7-0.5,1.7-0.4,2.3,0.3l0.9,1.1C102.6,113.3,102.5,114.3,101.8,114.9z"/>
	<path fill="#FFFFFF" d="M96.2,119.2l-1.6,1.2c-0.7,0.5-1.7,0.4-2.3-0.3l-0.9-1.1c-0.5-0.7-0.4-1.7,0.3-2.3l1.6-1.2
		c0.7-0.5,1.7-0.4,2.3,0.3l0.9,1.1C97,117.7,96.9,118.7,96.2,119.2z"/>
	<g>
		<path fill="#D9BD8C" d="M91.1,131.5c-0.5,0.8-1.4,1.5-2.6,1.8c-1.2,0.3-2.5,0.2-3.8-0.2c-1.3-0.4-2.6-1.1-3.9-1.9
			c-1.3-0.9-2.4-2-3.5-3.1c-0.3-0.3-0.5-0.6-0.8-0.9l-0.8-1c-0.4-0.4-0.7-0.9-1-1.4c-0.1-0.2-0.3-0.4-0.4-0.6
			c-0.5-0.7-0.9-1.4-1.4-2.1c-0.2-0.3-0.3-0.6-0.5-0.9c-0.2-0.4-0.5-0.8-0.7-1.2c-0.4-0.7-0.8-1.4-1.1-2.2c-0.4-0.7-0.7-1.4-1-2.1
			s-0.6-1.4-0.9-2.1c-0.3-0.7-0.6-1.4-0.8-2c-0.3-0.7-0.5-1.3-0.8-2c-0.2-0.6-0.4-1.2-0.6-1.8c-0.3-1.2-0.5-2.3-0.7-3.3
			c-0.1-1-0.2-1.9-0.1-2.6c0-0.7,0.1-1.2,0.2-1.6c0,0,0-0.1,0-0.1c0-0.2,0.1-0.3,0.1-0.4c0,0,0,0,0-0.1c0,0,0,0,0,0.1
			c0,0,0-0.1,0-0.2c0.2-0.6,0.6-1.2,1-1.6c0.2-0.2,0.5-0.4,0.7-0.6c0.3-0.2,0.5-0.3,0.9-0.4c0.3-0.1,0.6-0.1,0.9-0.1
			c0.3,0,0.6,0.1,0.8,0.2c0.2,0.1,0.5,0.3,0.7,0.5c0.2,0.2,0.4,0.5,0.5,0.7c0.3,0.5,0.5,1.1,0.7,1.7c0.2,0.6,0.4,1.2,0.5,1.9
			c0.1,0.6,0.2,1.3,0.3,1.9c0.1,0.6,0.2,1.3,0.2,1.9l0.1,1.6l0.9-1.3c0.1-0.2,0.3-0.4,0.4-0.5c0.1-0.2,0.3-0.3,0.5-0.5
			c0.3-0.3,0.7-0.6,1-0.8c0.2-0.1,0.4-0.2,0.5-0.2c0.2,0,0.3,0,0.5,0c0.2,0,0.3,0.1,0.5,0.2c0.1,0.1,0.3,0.2,0.4,0.4
			c0.1,0.2,0.3,0.3,0.4,0.5c0.1,0.2,0.2,0.4,0.3,0.6c0.1,0.2,0.2,0.4,0.3,0.6s0.2,0.4,0.2,0.7c0.1,0.2,0.1,0.5,0.2,0.7
			c0.1,0.2,0.1,0.5,0.2,0.7c0.1,0.4,0.2,0.9,0.3,1.4l0.2,1.1l0.8-0.8c0.2-0.2,0.4-0.3,0.6-0.5c0.2-0.2,0.4-0.3,0.7-0.4
			c0.4-0.2,0.9-0.3,1.2-0.1c0.2,0.1,0.3,0.2,0.5,0.3c0.1,0.1,0.3,0.3,0.4,0.6c0.1,0.2,0.2,0.5,0.3,0.7c0.1,0.2,0.1,0.5,0.2,0.8
			c0,0.3,0.1,0.5,0.1,0.8c0,0.3,0.1,0.5,0.1,0.8c0.1,0.6,0.1,1.1,0.1,1.7c0,1.1,0,2.2-0.1,3.3v0c0,0,0,0.1,0,0.1c0,0.1,0,0.2,0,0.2
			c0,0.1,0,0.3,0,0.4c0,0.3,0.1,0.5,0.1,0.7c0.1,0.2,0.1,0.5,0.2,0.7c0.1,0.2,0.2,0.4,0.3,0.6c0.1,0.2,0.2,0.4,0.3,0.6l0.4,0.6
			c0.2,0.4,0.5,0.8,0.8,1.1c0.1,0.2,0.2,0.3,0.4,0.5l0,0c0.1,0.2,0.3,0.4,0.4,0.5c0.3,0.3,0.6,0.7,0.9,1c0.3,0.3,0.6,0.7,0.9,1
			l0.9,1c0,0,0,0,0.1,0.1c0,0,0,0,0,0c0,0.1,0.2,0.2,0.3,0.5c0.1,0.2,0.2,0.4,0.3,0.6c0.1,0.2,0.2,0.5,0.3,0.8c0,0,0,0.1,0,0.1
			C91.6,129.8,91.6,130.7,91.1,131.5z"/>
		<path fill="#D9BD8C" d="M87.8,124.1c-0.2-0.2-0.3-0.3-0.4-0.5l2.7,3l0.4,0.5l-0.9-1c-0.3-0.3-0.6-0.7-0.9-1
			C88.3,124.8,88.1,124.4,87.8,124.1z"/>
		<path fill="#D9BD8C" d="M66.6,109.4c0,0-1.8-5.6-0.7-9.5c0-0.1,0-0.2,0.1-0.2c0,0,0,0,0-0.1c0,0,0,0,0,0.1c0,0.1,0,0.2-0.1,0.4
			c0,0,0,0,0,0.1c-0.1,0.4-0.1,0.9-0.2,1.6c0,0.7,0,1.6,0.1,2.6c0.1,1,0.4,2.1,0.7,3.3c0.2,0.6,0.3,1.2,0.6,1.8
			c0.2,0.6,0.5,1.3,0.8,2c0.2,0.7,0.5,1.3,0.8,2c0.3,0.7,0.6,1.4,0.9,2.1s0.7,1.4,1,2.1c0.4,0.7,0.7,1.4,1.1,2.2
			c0.2,0.4,0.5,0.8,0.7,1.2c0.2,0.3,0.3,0.6,0.5,0.9c0.5,0.7,0.9,1.4,1.4,2.1c0.1,0.2,0.3,0.4,0.4,0.6c0.3,0.5,0.7,1,1,1.4l0.8,1
			c0.3,0.3,0.5,0.6,0.8,0.9c1.1,1.2,2.2,2.3,3.5,3.1c1.2,0.8,2.6,1.5,3.9,1.9c1.3,0.4,2.6,0.5,3.8,0.2c1.1-0.3,2.1-0.9,2.6-1.8
			c0.5-0.8,0.5-1.7,0.4-2.4c0,0,0-0.1,0-0.1c-0.1-0.3-0.2-0.6-0.3-0.8c-0.1-0.2-0.2-0.5-0.3-0.6c-0.2-0.2-0.3-0.4-0.3-0.5
			c0,0,0,0,0,0c0,0,0,0,0,0l0,0C96.6,134.3,78,143.2,66.6,109.4z"/>
		<path fill="#3E2711" d="M91.5,131.7c-0.5,1-1.5,1.8-2.8,2.2c-1.3,0.4-2.8,0.4-4.2,0c-1.5-0.4-2.9-1-4.3-1.9
			c-1.4-0.9-2.6-2-3.8-3.2c-0.3-0.3-0.6-0.6-0.9-0.9l-0.8-1c-0.6-0.6-1-1.3-1.5-2h0c0,0,0,0,0,0c-0.5-0.7-0.9-1.4-1.4-2.1
			c-0.3-0.5-0.5-0.9-0.8-1.3c-0.2-0.3-0.3-0.6-0.5-0.9c-0.4-0.7-0.7-1.5-1.1-2.2c-0.3-0.7-0.6-1.5-1-2.2c-0.3-0.7-0.6-1.4-0.9-2.2
			c-0.3-0.7-0.5-1.4-0.8-2.1c-0.2-0.7-0.5-1.3-0.7-2c-0.2-0.7-0.3-1.3-0.5-1.9c-0.5-2.5-0.5-4.7-0.4-6.1c0.1-0.7,0.2-1.3,0.4-1.6
			c0,0,0,0,0,0c0-0.1,0-0.1,0.1-0.2c0-0.1,0-0.2,0.1-0.2c0,0,0,0,0-0.1c0,0,0,0,0,0.1c0,0.1,0,0.2-0.1,0.4c0,0,0,0,0,0.1
			c-0.1,0.4-0.1,0.9-0.2,1.6c0,0.7,0,1.6,0.1,2.6c0.1,1,0.4,2.1,0.7,3.3c0.2,0.6,0.3,1.2,0.6,1.8c0.2,0.6,0.5,1.3,0.8,2
			c0.2,0.7,0.5,1.3,0.8,2c0.3,0.7,0.6,1.4,0.9,2.1s0.7,1.4,1,2.1c0.4,0.7,0.7,1.4,1.1,2.2c0.2,0.4,0.5,0.8,0.7,1.2
			c0.2,0.3,0.3,0.6,0.5,0.9c0.5,0.7,0.9,1.4,1.4,2.1c0.1,0.2,0.3,0.4,0.4,0.6c0.3,0.5,0.7,1,1,1.4l0.8,1c0.3,0.3,0.5,0.6,0.8,0.9
			c1.1,1.2,2.2,2.3,3.5,3.1c1.2,0.8,2.6,1.5,3.9,1.9c1.3,0.4,2.6,0.5,3.8,0.2c1.1-0.3,2.1-0.9,2.6-1.8c0.5-0.8,0.5-1.7,0.4-2.4
			c0,0,0-0.1,0-0.1c-0.1-0.3-0.2-0.6-0.3-0.8c-0.1-0.2-0.2-0.5-0.3-0.6c-0.2-0.2-0.3-0.4-0.3-0.5c0,0,0,0,0,0c0,0,0,0,0,0l0,0
			c0.1,0.1,0.2,0.2,0.3,0.3c0.1,0.1,0.3,0.3,0.4,0.6c0.2,0.2,0.3,0.6,0.4,0.9c0,0.1,0.1,0.2,0.1,0.4C92,130,92,130.9,91.5,131.7z"/>
	</g>
	<g>
		<path fill="#D9BD8C" d="M90.1,126.6l-2.7-3l0,0c-0.1-0.2-0.3-0.3-0.4-0.5c-0.3-0.4-0.5-0.7-0.8-1.1l-0.4-0.6
			c-0.1-0.2-0.2-0.4-0.3-0.6c-0.1-0.2-0.2-0.4-0.3-0.6c-0.1-0.2-0.2-0.4-0.2-0.7c-0.1-0.2-0.1-0.5-0.1-0.7c0-0.1,0-0.3,0-0.4
			c0-0.1,0-0.1,0-0.2c0,0,0-0.1,0-0.1v0c0.1-1.1,0.1-2.2,0.1-3.3c0-0.6,0-1.1-0.1-1.7c0-0.3,0-0.5-0.1-0.8c0-0.3-0.1-0.5-0.1-0.8
			c-0.1-0.3-0.1-0.5-0.2-0.8c-0.1-0.3-0.2-0.5-0.3-0.7c-0.1-0.2-0.2-0.4-0.4-0.6c-0.1-0.2-0.3-0.3-0.5-0.3c-0.3-0.1-0.8-0.1-1.2,0.1
			c-0.2,0.1-0.4,0.2-0.7,0.4c-0.2,0.1-0.4,0.3-0.6,0.5l-0.8,0.8l-0.2-1.1c-0.1-0.5-0.2-0.9-0.3-1.4c-0.1-0.2-0.1-0.5-0.2-0.7
			c-0.1-0.2-0.1-0.5-0.2-0.7c-0.1-0.2-0.1-0.4-0.2-0.7s-0.2-0.4-0.3-0.6c-0.1-0.2-0.2-0.4-0.3-0.6c-0.1-0.2-0.2-0.3-0.4-0.5
			c-0.1-0.1-0.3-0.3-0.4-0.4c-0.2-0.1-0.3-0.2-0.5-0.2c-0.2,0-0.3,0-0.5,0c-0.2,0-0.4,0.1-0.5,0.2c-0.3,0.2-0.7,0.5-1,0.8
			c-0.2,0.2-0.3,0.3-0.5,0.5c-0.1,0.2-0.3,0.4-0.4,0.5l-0.9,1.3l-0.1-1.6c0-0.6-0.1-1.3-0.2-1.9c-0.1-0.6-0.2-1.3-0.3-1.9
			c-0.1-0.6-0.3-1.2-0.5-1.9c-0.2-0.6-0.4-1.2-0.7-1.7c-0.2-0.3-0.3-0.5-0.5-0.7c-0.2-0.2-0.4-0.4-0.7-0.5c-0.2-0.1-0.5-0.2-0.8-0.2
			c-0.3,0-0.6,0-0.9,0.1c-0.3,0.1-0.6,0.2-0.9,0.4c-0.3,0.2-0.5,0.4-0.7,0.6c-0.4,0.5-0.8,1-1,1.6c0.4-1.2,1.1-2.1,2.2-2.7
			c4-2,5.2,5.4,5.5,7.9c0,0.3,0,0.5,0.1,0.6c0,0.1,0,0.2,0,0.2s0-0.1,0.1-0.1c0.1-0.1,0.2-0.3,0.4-0.5c1.2-1.5,4.4-4.4,6.2,3.8
			c0,0.1,0.1,0.2,0.1,0.4c0,0.1,0,0.2,0.1,0.3c0,0,0.1-0.1,0.2-0.2c0.1-0.1,0.2-0.1,0.3-0.2c1.4-1.1,5.3-2.8,4.2,9.1
			C85.4,118,84.2,119.8,90.1,126.6z"/>
		<path fill="#3E2711" d="M90.5,127.1l-0.9-1c-0.3-0.3-0.6-0.7-0.9-1c-0.3-0.3-0.6-0.7-0.9-1c-0.2-0.2-0.3-0.3-0.4-0.5l0,0
			c-0.1-0.2-0.3-0.3-0.4-0.5c-0.3-0.4-0.5-0.7-0.8-1.1l-0.4-0.6c-0.1-0.2-0.2-0.4-0.3-0.6c-0.1-0.2-0.2-0.4-0.3-0.6
			c-0.1-0.2-0.2-0.4-0.2-0.7c-0.1-0.2-0.1-0.5-0.1-0.7c0-0.1,0-0.3,0-0.4c0-0.1,0-0.1,0-0.2c0,0,0-0.1,0-0.1v0
			c0.1-1.1,0.1-2.2,0.1-3.3c0-0.6,0-1.1-0.1-1.7c0-0.3,0-0.5-0.1-0.8c0-0.3-0.1-0.5-0.1-0.8c-0.1-0.3-0.1-0.5-0.2-0.8
			c-0.1-0.3-0.2-0.5-0.3-0.7c-0.1-0.2-0.2-0.4-0.4-0.6c-0.1-0.2-0.3-0.3-0.5-0.3c-0.3-0.1-0.8-0.1-1.2,0.1c-0.2,0.1-0.4,0.2-0.7,0.4
			c-0.2,0.1-0.4,0.3-0.6,0.5l-0.8,0.8l-0.2-1.1c-0.1-0.5-0.2-0.9-0.3-1.4c-0.1-0.2-0.1-0.5-0.2-0.7c-0.1-0.2-0.1-0.5-0.2-0.7
			c-0.1-0.2-0.1-0.4-0.2-0.7s-0.2-0.4-0.3-0.6c-0.1-0.2-0.2-0.4-0.3-0.6c-0.1-0.2-0.2-0.3-0.4-0.5c-0.1-0.1-0.3-0.3-0.4-0.4
			c-0.2-0.1-0.3-0.2-0.5-0.2c-0.2,0-0.3,0-0.5,0c-0.2,0-0.4,0.1-0.5,0.2c-0.3,0.2-0.7,0.5-1,0.8c-0.2,0.2-0.3,0.3-0.5,0.5
			c-0.1,0.2-0.3,0.4-0.4,0.5l-0.9,1.3l-0.1-1.6c0-0.6-0.1-1.3-0.2-1.9c-0.1-0.6-0.2-1.3-0.3-1.9c-0.1-0.6-0.3-1.2-0.5-1.9
			c-0.2-0.6-0.4-1.2-0.7-1.7c-0.2-0.3-0.3-0.5-0.5-0.7c-0.2-0.2-0.4-0.4-0.7-0.5c-0.2-0.1-0.5-0.2-0.8-0.2c-0.3,0-0.6,0-0.9,0.1
			c-0.3,0.1-0.6,0.2-0.9,0.4c-0.3,0.2-0.5,0.4-0.7,0.6c-0.4,0.5-0.8,1-1,1.6c0.2-0.6,0.4-1.2,0.9-1.8c0.2-0.3,0.4-0.5,0.7-0.7
			c0.3-0.2,0.6-0.4,0.9-0.5c0.3-0.1,0.7-0.2,1-0.3c0.4,0,0.7,0,1.1,0.2c0.3,0.1,0.6,0.4,0.9,0.6c0.3,0.2,0.5,0.5,0.7,0.8
			c0.8,1.1,1.2,2.4,1.5,3.7c0.2,0.7,0.3,1.3,0.4,2c0,0.2,0.1,0.5,0.1,0.7c0-0.1,0.1-0.1,0.1-0.2c0.4-0.4,0.8-0.7,1.3-1
			c0.2-0.1,0.5-0.3,0.8-0.3c0.3-0.1,0.6-0.1,1,0c0.3,0,0.6,0.2,0.9,0.3c0.3,0.2,0.5,0.4,0.7,0.6c0.2,0.2,0.4,0.4,0.5,0.7
			c0.2,0.2,0.3,0.5,0.4,0.7c0.1,0.2,0.2,0.5,0.3,0.7c0.1,0.2,0.2,0.5,0.3,0.7c0.1,0.2,0.2,0.5,0.2,0.7c0.1,0.2,0.1,0.5,0.2,0.7
			c0,0.2,0.1,0.3,0.1,0.5c0.2-0.2,0.5-0.3,0.8-0.4c0.3-0.1,0.6-0.2,1-0.3c0.4,0,0.8,0,1.1,0.1c0.4,0.1,0.7,0.4,0.9,0.7
			c0.2,0.3,0.4,0.6,0.5,0.9c0.1,0.3,0.2,0.6,0.3,0.9c0.1,0.3,0.1,0.6,0.2,0.9c0,0.3,0.1,0.6,0.1,0.9c0,0.3,0.1,0.6,0.1,0.9
			c0,0.6,0,1.2,0,1.8c0,1.2-0.1,2.3-0.3,3.5l-0.1,0.2c0,0,0,0,0,0c0,0,0,0.1,0,0.1c0,0.1,0,0.2,0,0.3c0,0.2,0,0.4,0.1,0.6
			s0.1,0.4,0.2,0.6c0.1,0.2,0.1,0.4,0.2,0.6c0.1,0.2,0.2,0.4,0.3,0.6l0.3,0.6c0.2,0.4,0.4,0.8,0.7,1.1c0.2,0.4,0.5,0.8,0.7,1.1
			c0.2,0.4,0.5,0.7,0.8,1.1C89.4,125.7,89.9,126.4,90.5,127.1z"/>
	</g>
</g>
<g id="monkey-text" display="none">
	<g display="inline">
		<rect y="123.6" fill="none" width="135.7" height="98.7"/>
		<path fill="#553278" d="M0.8,134.7v-5.5c0-3.9,1.6-5.9,4.8-5.9c0.7,0,1.3,0.1,1.8,0.3c0.5,0.2,1,0.4,1.3,0.8
			c0.4,0.3,0.7,0.7,0.9,1.2c0.2,0.5,0.4,1,0.5,1.5c0.1,0.6,0.2,1.2,0.2,1.8v1.4H7v-1.5c0-0.3,0-0.6,0-0.8c0-0.2,0-0.5-0.1-0.8
			c-0.1-0.3-0.1-0.5-0.2-0.7c-0.1-0.2-0.2-0.3-0.4-0.5c-0.2-0.1-0.4-0.2-0.6-0.2c-1,0-1.5,0.8-1.5,2.5v7.2c0,1.6,0.5,2.5,1.5,2.5
			c0.3,0,0.5-0.1,0.7-0.3c0.2-0.2,0.3-0.4,0.4-0.7c0.1-0.3,0.1-0.6,0.2-0.9c0-0.3,0-0.6,0-1v-1.7h3.3v1.4c0,0.6-0.1,1.2-0.2,1.8
			s-0.3,1.1-0.5,1.6c-0.2,0.5-0.5,0.9-0.8,1.3c-0.3,0.3-0.8,0.6-1.3,0.8c-0.5,0.2-1.2,0.3-1.9,0.3c-0.7,0-1.4-0.1-1.9-0.3
			c-0.6-0.2-1-0.5-1.4-0.8c-0.4-0.3-0.7-0.8-0.9-1.3c-0.2-0.5-0.4-1-0.5-1.6C0.8,136,0.8,135.4,0.8,134.7z"/>
		<path fill="#553278" d="M11.6,137.1V132c0-1.3,0.3-2.3,0.9-3c0.6-0.7,1.6-1.1,2.9-1.1c1.3,0,2.3,0.4,2.9,1.1
			c0.6,0.7,0.9,1.7,0.9,3v5.1c0,1-0.4,1.8-1.1,2.5c-0.7,0.6-1.6,1-2.7,1c-0.7,0-1.3-0.1-1.9-0.4c-0.6-0.3-1-0.7-1.4-1.2
			C11.8,138.4,11.6,137.8,11.6,137.1z M16.1,137.2v-6c0-0.6-0.2-0.9-0.7-0.9c-0.4,0-0.6,0.3-0.6,0.9v6c0,0.1,0,0.2,0,0.3
			c0,0.1,0,0.2,0.1,0.3c0,0.1,0.1,0.2,0.2,0.3c0.1,0.1,0.2,0.1,0.4,0.1C15.9,138.2,16.1,137.8,16.1,137.2z"/>
		<path fill="#553278" d="M20.7,137.9v-9.8h3.1v9c0,0.7,0.1,1,0.4,1c0.3,0,0.6-0.2,1-0.7v-9.3h3.1v12.1h-3.1v-1
			c-0.3,0.4-0.7,0.7-1.1,0.9c-0.4,0.2-0.8,0.4-1.3,0.4c-0.6,0-1.2-0.3-1.5-0.8C20.9,139.2,20.7,138.6,20.7,137.9z"/>
		<path fill="#553278" d="M30.1,140.3v-12.1h3.1v0.9c0.3-0.3,0.7-0.6,1.1-0.8c0.4-0.2,0.9-0.3,1.3-0.3c0.4,0,0.8,0.1,1.1,0.4
			c0.3,0.3,0.6,0.6,0.8,1c0.2,0.4,0.2,0.8,0.2,1.2v9.8h-3.1v-9.2c0-0.5-0.2-0.8-0.5-0.8c0,0-0.1,0-0.1,0c0,0-0.1,0-0.1,0
			c0,0-0.1,0-0.1,0.1c0,0-0.1,0-0.1,0.1c0,0-0.1,0.1-0.1,0.1c0,0-0.1,0.1-0.1,0.1c0,0-0.1,0.1-0.1,0.1c0,0,0,0-0.1,0.1l-0.1,0.1v9.4
			H30.1z"/>
		<path fill="#553278" d="M39.7,136.1v-5.9h-0.9v-2.1h0.9v-4h3.1v4h1.5v2.1h-1.5v6.6c0,0.3,0.1,0.6,0.2,0.7c0.1,0.2,0.3,0.2,0.7,0.2
			c0.4,0,0.7,0,0.9-0.1v2.4c-0.4,0.1-1.1,0.2-2,0.2c-0.4,0-0.7,0-1-0.1c-0.3-0.1-0.5-0.2-0.7-0.3c-0.2-0.1-0.4-0.3-0.5-0.6
			c-0.1-0.2-0.3-0.5-0.3-0.7c-0.1-0.2-0.1-0.5-0.2-0.8c0-0.3-0.1-0.6-0.1-0.9C39.7,136.8,39.7,136.5,39.7,136.1z"/>
		<path fill="#553278" d="M45.7,127.1v-2.9h3.1v2.9H45.7z M45.7,140.3v-12.1h3.1v12.1H45.7z"/>
		<path fill="#553278" d="M50.6,140.3v-12.1h3.1v0.9c0.3-0.3,0.7-0.6,1.1-0.8c0.4-0.2,0.9-0.3,1.3-0.3c0.4,0,0.8,0.1,1.1,0.4
			c0.3,0.3,0.6,0.6,0.8,1c0.2,0.4,0.2,0.8,0.2,1.2v9.8h-3.1v-9.2c0-0.5-0.2-0.8-0.5-0.8c0,0-0.1,0-0.1,0c0,0-0.1,0-0.1,0
			c0,0-0.1,0-0.1,0.1c0,0-0.1,0-0.1,0.1c0,0-0.1,0.1-0.1,0.1c0,0-0.1,0.1-0.1,0.1c0,0-0.1,0.1-0.1,0.1c0,0,0,0-0.1,0.1l-0.1,0.1v9.4
			H50.6z"/>
		<path fill="#553278" d="M62,137.1c0,0.1,0.1,0.3,0.3,0.4c0.2,0.1,0.5,0.2,0.8,0.2c0.3,0.1,0.7,0.1,1.1,0.2
			c0.4,0.1,0.8,0.2,1.2,0.3c0.4,0.1,0.8,0.2,1.1,0.4c0.3,0.2,0.6,0.4,0.8,0.6c0.2,0.3,0.3,0.6,0.3,1c0,0.5-0.1,1-0.2,1.4
			c-0.2,0.4-0.4,0.7-0.6,0.9c-0.2,0.2-0.6,0.4-0.9,0.6c-0.4,0.1-0.7,0.2-1.1,0.3c-0.4,0.1-0.8,0.1-1.3,0.1c-3,0-4.5-0.7-4.5-2.2
			c0-0.4,0.1-0.9,0.4-1.3c0.2-0.4,0.5-0.8,0.9-1c-0.3-0.1-0.5-0.3-0.7-0.5c-0.2-0.2-0.4-0.3-0.4-0.5c0-0.4,0.4-1.1,1.2-2.1
			c-0.6-1.2-0.9-2.3-0.9-3.5c0-0.6,0.1-1.2,0.2-1.7c0.1-0.5,0.4-1,0.6-1.4c0.3-0.4,0.7-0.8,1.2-1c0.5-0.3,1-0.4,1.7-0.4
			c1,0,1.7,0.3,2.2,0.8c0.5-0.5,1.2-0.8,2.3-0.8h0.4l-0.3,2.2c-0.6,0-1.1,0.1-1.3,0.4c0.3,0.5,0.4,1.2,0.4,2.1
			c0,0.6-0.1,1.1-0.2,1.6c-0.2,0.5-0.4,0.9-0.7,1.3c-0.3,0.4-0.7,0.7-1.2,0.9c-0.5,0.2-1,0.3-1.6,0.3c-0.1,0-0.3,0-0.4,0
			s-0.3,0-0.4-0.1l-0.2,0C62.1,136.9,62,137.1,62,137.1z M62.3,139.5h-0.2c-0.3,0.4-0.4,0.8-0.4,1.2c0,0.4,0.7,0.5,2.1,0.5
			c0,0,0,0,0.1,0c0.7,0,1.1-0.2,1.1-0.6c0-0.1,0-0.3-0.1-0.4c-0.1-0.1-0.2-0.2-0.4-0.3c-0.2-0.1-0.3-0.1-0.5-0.2
			c-0.2,0-0.3-0.1-0.6-0.1s-0.4,0-0.5-0.1C62.7,139.6,62.5,139.5,62.3,139.5z M63.3,134.4c0.5,0,0.8-0.7,0.8-2.2
			c0-1.5-0.2-2.2-0.7-2.2c-0.1,0-0.2,0-0.3,0.1c-0.1,0.1-0.2,0.2-0.2,0.3c-0.1,0.1-0.1,0.3-0.1,0.4c0,0.1-0.1,0.3-0.1,0.5
			c0,0.2,0,0.4,0,0.5c0,0.1,0,0.3,0,0.5C62.6,133.7,62.8,134.4,63.3,134.4z"/>
		<path fill="#FFFFFF" d="M2.9,152.4c-0.4,0-0.7-0.1-1-0.2s-0.5-0.2-0.7-0.4c-0.2-0.2-0.3-0.4-0.4-0.7c-0.1-0.3-0.2-0.6-0.2-0.9
			s-0.1-0.7-0.1-1.1v-2.5c0-0.4,0-0.7,0.1-1.1s0.1-0.6,0.2-0.9c0.1-0.3,0.3-0.5,0.4-0.7s0.4-0.3,0.7-0.4s0.6-0.2,1-0.2
			c0.4,0,0.8,0.1,1.1,0.2s0.5,0.3,0.7,0.5s0.3,0.5,0.4,0.8s0.1,0.7,0.2,1.1c0,0.1,0,0.2,0,0.3H4v-0.3c0-0.2,0-0.3,0-0.4
			c0-0.1,0-0.2-0.1-0.4s-0.1-0.2-0.1-0.3c-0.1-0.1-0.1-0.2-0.2-0.2c-0.1-0.1-0.2-0.1-0.3-0.2c-0.1,0-0.3-0.1-0.4-0.1
			c-0.2,0-0.4,0-0.5,0.1s-0.3,0.1-0.3,0.3c-0.1,0.1-0.1,0.2-0.2,0.4s-0.1,0.3-0.1,0.5c0,0.2,0,0.4,0,0.6v3.1c0,0.2,0,0.4,0,0.6
			s0.1,0.3,0.1,0.5c0.1,0.2,0.1,0.3,0.2,0.4s0.2,0.2,0.3,0.3c0.1,0.1,0.3,0.1,0.5,0.1s0.3,0,0.5-0.1s0.2-0.2,0.3-0.3
			s0.1-0.3,0.2-0.4s0.1-0.3,0.1-0.5s0-0.4,0-0.6v-0.3h1.2v0.3c0,0.5,0,0.8-0.1,1.2s-0.2,0.6-0.4,0.9c-0.2,0.3-0.4,0.5-0.7,0.6
			S3.3,152.4,2.9,152.4z"/>
		<path fill="#FFFFFF" d="M6,152.3v-8.8h1.2v3.2c0.2-0.2,0.3-0.3,0.5-0.4c0.1-0.1,0.3-0.2,0.5-0.3c0.2-0.1,0.4-0.1,0.7-0.1
			c0.3,0,0.5,0.1,0.6,0.3s0.2,0.4,0.2,0.7v5.3H8.5v-4.7c0-0.2,0-0.4-0.1-0.5S8.2,147,8,147c-0.3,0-0.5,0.1-0.8,0.4v4.9H6z"/>
		<path fill="#FFFFFF" d="M10.9,145.1v-1.2h1.2v1.2H10.9z M10.9,152.3V146h1.2v6.2H10.9z"/>
		<path fill="#FFFFFF" d="M13.3,152.3V146h1.2v0.7c0.4-0.5,1-0.8,1.6-0.8c0.3,0,0.5,0.1,0.7,0.2c0.1,0.1,0.2,0.3,0.3,0.6
			c0.2-0.3,0.4-0.5,0.7-0.6s0.5-0.2,0.9-0.2c0.1,0,0.2,0,0.3,0c0.1,0,0.2,0,0.2,0.1s0.1,0.1,0.2,0.1c0,0.1,0.1,0.1,0.1,0.2
			c0,0,0.1,0.1,0.1,0.2s0,0.2,0,0.2s0,0.2,0,0.3s0,0.2,0,0.3s0,0.2,0,0.3c0,0,0,0.1,0,0.1v4.5h-1.2v-4.6c0,0,0,0,0-0.1
			c0-0.1,0-0.2,0-0.2s0-0.1,0-0.2c0-0.1,0-0.1-0.1-0.2S18.1,147,18,147c-0.1,0-0.3,0-0.4,0.1c-0.1,0-0.2,0.1-0.3,0.1
			c-0.1,0-0.2,0.1-0.3,0.2v4.9h-1.2v-4.5c0,0,0,0,0-0.1c0-0.1,0-0.2,0-0.2s0-0.1,0-0.2c0-0.1,0-0.1,0-0.2s-0.1-0.1-0.1-0.1
			s-0.1,0-0.2,0c-0.3,0-0.6,0.1-0.9,0.4v4.9H13.3z"/>
		<path fill="#FFFFFF" d="M20.7,154.1V146h1.2v0.6c0.1-0.1,0.2-0.2,0.2-0.2s0.1-0.1,0.2-0.2s0.2-0.1,0.2-0.2s0.2-0.1,0.3-0.1
			c0.1,0,0.2,0,0.3,0c0.2,0,0.4,0,0.6,0.1c0.2,0.1,0.3,0.2,0.4,0.3s0.2,0.3,0.3,0.5c0.1,0.2,0.1,0.4,0.2,0.5s0.1,0.4,0.1,0.7
			s0,0.5,0,0.7c0,0.2,0,0.4,0,0.7v0.1c0,0.3,0,0.5,0,0.8s-0.1,0.5-0.2,0.8c-0.1,0.3-0.2,0.5-0.3,0.7s-0.3,0.3-0.4,0.5
			c-0.2,0.1-0.4,0.2-0.6,0.2c-0.4,0-0.8-0.2-1.2-0.6v2.4H20.7z M22.9,151.3c0.1,0,0.2,0,0.3-0.1s0.2-0.2,0.2-0.4
			c0-0.2,0.1-0.4,0.1-0.5c0-0.2,0-0.4,0-0.6l0-0.8c0-0.1,0-0.3,0-0.4c0-0.1,0-0.2,0-0.4c0-0.1,0-0.3,0-0.4s0-0.2-0.1-0.3
			s-0.1-0.2-0.1-0.3S23.1,147,23,147s-0.2-0.1-0.3-0.1c0,0-0.1,0-0.1,0s-0.1,0-0.1,0c0,0-0.1,0-0.1,0c0,0-0.1,0-0.1,0.1
			s-0.1,0-0.1,0.1c0,0-0.1,0-0.1,0.1s-0.1,0.1-0.1,0.1v3.9C22.2,151.2,22.5,151.3,22.9,151.3z"/>
		<path fill="#FFFFFF" d="M26.8,152.4c-0.3,0-0.6-0.2-0.9-0.5c-0.2-0.3-0.4-0.6-0.4-1c0-0.3,0.1-0.6,0.2-0.8s0.2-0.4,0.3-0.6
			c0.1-0.1,0.3-0.3,0.6-0.5c0.3-0.2,0.5-0.3,0.6-0.3s0.4-0.2,0.7-0.3c0.1,0,0.1,0,0.1-0.1v-0.4c0-0.3,0-0.6-0.1-0.7
			c-0.1-0.2-0.3-0.3-0.5-0.3c-0.2,0-0.4,0.1-0.5,0.2c-0.1,0.1-0.1,0.4-0.2,0.6c0,0,0,0.1,0,0.2h-1.2c0-0.6,0.2-1.1,0.5-1.4
			s0.8-0.5,1.4-0.5c0.6,0,1,0.2,1.4,0.5c0.3,0.4,0.5,0.8,0.5,1.4v2.8c0,0.7,0.1,1.2,0.2,1.6h-1.2l-0.2-0.9c-0.1,0.1-0.1,0.2-0.2,0.3
			s-0.1,0.2-0.2,0.3c-0.1,0.1-0.2,0.2-0.2,0.2c-0.1,0.1-0.2,0.1-0.3,0.1S27,152.4,26.8,152.4z M27.5,151.3c0.1,0,0.2,0,0.3-0.1
			s0.1-0.1,0.2-0.2s0.1-0.1,0.2-0.2c0,0,0,0,0,0v-1.7c-0.1,0-0.1,0.1-0.3,0.2s-0.2,0.1-0.3,0.2c-0.1,0-0.2,0.1-0.3,0.2
			c-0.1,0.1-0.2,0.2-0.2,0.2c-0.1,0.1-0.1,0.2-0.1,0.3s-0.1,0.2-0.1,0.3C26.8,151.1,27,151.3,27.5,151.3z"/>
		<path fill="#FFFFFF" d="M30.4,152.3V146h1.2v0.7c0.2-0.2,0.3-0.3,0.5-0.4c0.1-0.1,0.3-0.2,0.5-0.3c0.2-0.1,0.4-0.1,0.7-0.1
			c0.3,0,0.5,0.1,0.6,0.3s0.2,0.4,0.2,0.7v5.3h-1.2v-4.7c0-0.2,0-0.4-0.1-0.5c-0.1-0.1-0.2-0.1-0.4-0.1c-0.1,0-0.2,0-0.3,0.1
			c-0.1,0-0.2,0.1-0.2,0.1c-0.1,0-0.1,0.1-0.2,0.2v4.9H30.4z"/>
		<path fill="#FFFFFF" d="M35,152.3v-0.9l2.2-4.4h-1.9V146h3.1v0.9l-2.2,4.4h2.2v0.9H35z"/>
		<path fill="#FFFFFF" d="M41,152.4c-0.3,0-0.6-0.1-0.8-0.2s-0.4-0.2-0.5-0.4c-0.1-0.2-0.2-0.4-0.3-0.6c-0.1-0.3-0.1-0.5-0.2-0.8
			c0-0.3,0-0.6-0.1-0.9c0-0.3,0-0.5,0-0.8c0-0.3,0-0.6,0.1-0.9c0-0.3,0.1-0.5,0.2-0.7s0.2-0.4,0.3-0.6s0.3-0.3,0.5-0.4
			c0.2-0.1,0.5-0.1,0.8-0.1c0.3,0,0.5,0,0.7,0.1c0.2,0.1,0.4,0.2,0.5,0.3c0.1,0.1,0.2,0.3,0.3,0.5s0.2,0.4,0.2,0.6
			c0,0.2,0.1,0.5,0.1,0.7s0,0.5,0,0.8v0.1h-2.5v0.3c0,0,0,0.1,0,0.2c0,0.1,0,0.2,0,0.4c0,0.1,0,0.3,0,0.4s0,0.2,0.1,0.4
			c0,0.1,0.1,0.2,0.1,0.3s0.1,0.2,0.2,0.2s0.2,0.1,0.3,0.1c0.1,0,0.2,0,0.3-0.1c0.1,0,0.1-0.1,0.2-0.2s0.1-0.2,0.1-0.3s0-0.2,0-0.4
			v-0.3h1.2v0.2c0,0.7-0.2,1.2-0.5,1.5S41.6,152.4,41,152.4z M40.4,148.5h1.2v-0.4c0-0.2,0-0.3,0-0.4s0-0.2-0.1-0.4
			s-0.1-0.2-0.2-0.3S41.2,147,41,147c-0.1,0-0.2,0-0.3,0.1s-0.1,0.2-0.2,0.3c0,0.1-0.1,0.3-0.1,0.4s0,0.3,0,0.4V148.5z"/>
		<path fill="#FFFFFF" d="M45.6,152.4c-0.3,0-0.6-0.1-0.8-0.2s-0.4-0.2-0.5-0.4c-0.1-0.2-0.2-0.4-0.3-0.6c-0.1-0.3-0.1-0.5-0.2-0.8
			c0-0.3,0-0.6-0.1-0.9c0-0.3,0-0.5,0-0.8c0-0.3,0-0.6,0.1-0.9c0-0.3,0.1-0.5,0.2-0.7s0.2-0.4,0.3-0.6s0.3-0.3,0.5-0.4
			c0.2-0.1,0.5-0.1,0.8-0.1c0.3,0,0.5,0,0.7,0.1c0.2,0.1,0.4,0.2,0.5,0.3c0.1,0.1,0.2,0.3,0.3,0.5s0.2,0.4,0.2,0.6
			c0,0.2,0.1,0.5,0.1,0.7s0,0.5,0,0.8v0.1H45v0.3c0,0,0,0.1,0,0.2c0,0.1,0,0.2,0,0.4c0,0.1,0,0.3,0,0.4s0,0.2,0.1,0.4
			c0,0.1,0.1,0.2,0.1,0.3s0.1,0.2,0.2,0.2s0.2,0.1,0.3,0.1c0.1,0,0.2,0,0.3-0.1c0.1,0,0.1-0.1,0.2-0.2s0.1-0.2,0.1-0.3s0-0.2,0-0.4
			v-0.3h1.2v0.2c0,0.7-0.2,1.2-0.5,1.5S46.2,152.4,45.6,152.4z M45,148.5h1.2v-0.4c0-0.2,0-0.3,0-0.4s0-0.2-0.1-0.4
			s-0.1-0.2-0.2-0.3s-0.2-0.1-0.3-0.1c-0.1,0-0.2,0-0.3,0.1s-0.1,0.2-0.2,0.3c0,0.1-0.1,0.3-0.1,0.4s0,0.3,0,0.4V148.5z"/>
		<path fill="#FFFFFF" d="M50,152.4c-0.5,0-0.9-0.2-1.2-0.5s-0.5-0.7-0.6-1.2l0.9-0.3c0.2,0.6,0.5,0.9,0.9,0.9
			c0.2,0,0.4-0.1,0.5-0.2c0.1-0.1,0.2-0.3,0.2-0.5c0-0.3-0.1-0.5-0.3-0.7l-1.2-0.9c-0.1-0.1-0.3-0.2-0.4-0.3
			c-0.1-0.1-0.2-0.2-0.3-0.3s-0.2-0.3-0.2-0.4s-0.1-0.3-0.1-0.5c0-0.5,0.2-0.9,0.5-1.2s0.8-0.4,1.4-0.4c0.3,0,0.5,0,0.7,0.1
			c0.2,0.1,0.4,0.2,0.5,0.4s0.3,0.3,0.4,0.5c0.1,0.2,0.2,0.4,0.2,0.6l-0.9,0.3c0-0.1-0.1-0.2-0.1-0.3c0-0.1-0.1-0.2-0.2-0.3
			s-0.2-0.2-0.3-0.2c-0.1-0.1-0.2-0.1-0.3-0.1c-0.2,0-0.4,0.1-0.5,0.2c-0.1,0.1-0.2,0.3-0.2,0.5c0,0.2,0.1,0.4,0.3,0.5l1.2,0.9
			c0.1,0.1,0.3,0.2,0.4,0.3c0.1,0.1,0.2,0.2,0.3,0.4c0.1,0.1,0.2,0.3,0.2,0.5s0.1,0.3,0.1,0.5c0,0.5-0.2,0.9-0.5,1.2
			S50.6,152.4,50,152.4z"/>
		<path fill="#FFFFFF" d="M54.7,152.3v-8.8h1.2v3.2c0.2-0.2,0.3-0.3,0.5-0.4c0.1-0.1,0.3-0.2,0.5-0.3c0.2-0.1,0.4-0.1,0.7-0.1
			c0.3,0,0.5,0.1,0.6,0.3s0.2,0.4,0.2,0.7v5.3h-1.2v-4.7c0-0.2,0-0.4-0.1-0.5s-0.2-0.2-0.3-0.2c-0.3,0-0.5,0.1-0.8,0.4v4.9H54.7z"/>
		<path fill="#FFFFFF" d="M60.6,152.4c-0.3,0-0.6-0.2-0.9-0.5c-0.2-0.3-0.4-0.6-0.4-1c0-0.3,0.1-0.6,0.2-0.8s0.2-0.4,0.3-0.6
			c0.1-0.1,0.3-0.3,0.6-0.5c0.3-0.2,0.5-0.3,0.6-0.3s0.4-0.2,0.7-0.3c0.1,0,0.1,0,0.1-0.1v-0.4c0-0.3,0-0.6-0.1-0.7
			c-0.1-0.2-0.3-0.3-0.5-0.3c-0.2,0-0.4,0.1-0.5,0.2c-0.1,0.1-0.1,0.4-0.2,0.6c0,0,0,0.1,0,0.2h-1.2c0-0.6,0.2-1.1,0.5-1.4
			s0.8-0.5,1.4-0.5c0.6,0,1,0.2,1.4,0.5c0.3,0.4,0.5,0.8,0.5,1.4v2.8c0,0.7,0.1,1.2,0.2,1.6H62l-0.2-0.9c-0.1,0.1-0.1,0.2-0.2,0.3
			s-0.1,0.2-0.2,0.3c-0.1,0.1-0.2,0.2-0.2,0.2c-0.1,0.1-0.2,0.1-0.3,0.1S60.7,152.4,60.6,152.4z M61.2,151.3c0.1,0,0.2,0,0.3-0.1
			s0.1-0.1,0.2-0.2s0.1-0.1,0.2-0.2c0,0,0,0,0,0v-1.7c-0.1,0-0.1,0.1-0.3,0.2s-0.2,0.1-0.3,0.2c-0.1,0-0.2,0.1-0.3,0.2
			c-0.1,0.1-0.2,0.2-0.2,0.2c-0.1,0.1-0.1,0.2-0.1,0.3s-0.1,0.2-0.1,0.3C60.6,151.1,60.8,151.3,61.2,151.3z"/>
		<path fill="#FFFFFF" d="M65.1,152.3l-1.4-6.2h1.2l0.9,4.7l0.8-4.7h1.2l-1.4,6.2H65.1z"/>
		<path fill="#FFFFFF" d="M70.1,152.4c-0.3,0-0.6-0.1-0.8-0.2s-0.4-0.2-0.5-0.4c-0.1-0.2-0.2-0.4-0.3-0.6c-0.1-0.3-0.1-0.5-0.2-0.8
			c0-0.3,0-0.6-0.1-0.9c0-0.3,0-0.5,0-0.8c0-0.3,0-0.6,0.1-0.9c0-0.3,0.1-0.5,0.2-0.7s0.2-0.4,0.3-0.6s0.3-0.3,0.5-0.4
			c0.2-0.1,0.5-0.1,0.8-0.1c0.3,0,0.5,0,0.7,0.1c0.2,0.1,0.4,0.2,0.5,0.3c0.1,0.1,0.2,0.3,0.3,0.5s0.2,0.4,0.2,0.6
			c0,0.2,0.1,0.5,0.1,0.7s0,0.5,0,0.8v0.1h-2.5v0.3c0,0,0,0.1,0,0.2c0,0.1,0,0.2,0,0.4c0,0.1,0,0.3,0,0.4s0,0.2,0.1,0.4
			c0,0.1,0.1,0.2,0.1,0.3s0.1,0.2,0.2,0.2s0.2,0.1,0.3,0.1c0.1,0,0.2,0,0.3-0.1c0.1,0,0.1-0.1,0.2-0.2s0.1-0.2,0.1-0.3s0-0.2,0-0.4
			v-0.3H72v0.2c0,0.7-0.2,1.2-0.5,1.5S70.7,152.4,70.1,152.4z M69.5,148.5h1.2v-0.4c0-0.2,0-0.3,0-0.4s0-0.2-0.1-0.4
			s-0.1-0.2-0.2-0.3s-0.2-0.1-0.3-0.1c-0.1,0-0.2,0-0.3,0.1s-0.1,0.2-0.2,0.3c0,0.1-0.1,0.3-0.1,0.4s0,0.3,0,0.4V148.5z"/>
		<path fill="#FFFFFF" d="M76.6,152.4c-0.5,0-0.9-0.2-1.2-0.5s-0.5-0.7-0.6-1.2l0.9-0.3c0.2,0.6,0.5,0.9,0.9,0.9
			c0.2,0,0.4-0.1,0.5-0.2c0.1-0.1,0.2-0.3,0.2-0.5c0-0.3-0.1-0.5-0.3-0.7l-1.2-0.9c-0.1-0.1-0.3-0.2-0.4-0.3
			c-0.1-0.1-0.2-0.2-0.3-0.3s-0.2-0.3-0.2-0.4s-0.1-0.3-0.1-0.5c0-0.5,0.2-0.9,0.5-1.2s0.8-0.4,1.4-0.4c0.3,0,0.5,0,0.7,0.1
			c0.2,0.1,0.4,0.2,0.5,0.4s0.3,0.3,0.4,0.5c0.1,0.2,0.2,0.4,0.2,0.6l-0.9,0.3c0-0.1-0.1-0.2-0.1-0.3c0-0.1-0.1-0.2-0.2-0.3
			s-0.2-0.2-0.3-0.2c-0.1-0.1-0.2-0.1-0.3-0.1c-0.2,0-0.4,0.1-0.5,0.2c-0.1,0.1-0.2,0.3-0.2,0.5c0,0.2,0.1,0.4,0.3,0.5l1.2,0.9
			c0.1,0.1,0.3,0.2,0.4,0.3c0.1,0.1,0.2,0.2,0.3,0.4c0.1,0.1,0.2,0.3,0.2,0.5s0.1,0.3,0.1,0.5c0,0.5-0.2,0.9-0.5,1.2
			S77.2,152.4,76.6,152.4z"/>
		<path fill="#FFFFFF" d="M79.3,145.1v-1.2h1.2v1.2H79.3z M79.3,152.3V146h1.2v6.2H79.3z"/>
		<path fill="#FFFFFF" d="M81.7,152.3V146H83v0.7c0.4-0.5,1-0.8,1.6-0.8c0.3,0,0.5,0.1,0.7,0.2c0.1,0.1,0.2,0.3,0.3,0.6
			c0.2-0.3,0.4-0.5,0.7-0.6c0.2-0.1,0.5-0.2,0.9-0.2c0.1,0,0.2,0,0.3,0c0.1,0,0.2,0,0.2,0.1c0.1,0,0.1,0.1,0.2,0.1
			c0,0.1,0.1,0.1,0.1,0.2c0,0,0.1,0.1,0.1,0.2c0,0.1,0,0.2,0,0.2s0,0.2,0,0.3c0,0.1,0,0.2,0,0.3s0,0.2,0,0.3c0,0,0,0.1,0,0.1v4.5
			h-1.2v-4.6c0,0,0,0,0-0.1c0-0.1,0-0.2,0-0.2c0-0.1,0-0.1,0-0.2c0-0.1,0-0.1-0.1-0.2c0,0-0.1-0.1-0.2-0.1c-0.1,0-0.3,0-0.4,0.1
			c-0.1,0-0.2,0.1-0.3,0.1c-0.1,0-0.2,0.1-0.3,0.2v4.9h-1.2v-4.5c0,0,0,0,0-0.1c0-0.1,0-0.2,0-0.2s0-0.1,0-0.2c0-0.1,0-0.1,0-0.2
			s0-0.1-0.1-0.1c0,0-0.1,0-0.2,0c-0.3,0-0.6,0.1-0.9,0.4v4.9H81.7z"/>
		<path fill="#FFFFFF" d="M89.1,145.1v-1.2h1.2v1.2H89.1z M89.1,152.3V146h1.2v6.2H89.1z"/>
		<path fill="#FFFFFF" d="M91.6,152.3v-8.8h1.2v8.8H91.6z"/>
		<path fill="#FFFFFF" d="M95,152.4c-0.3,0-0.6-0.2-0.9-0.5c-0.2-0.3-0.4-0.6-0.4-1c0-0.3,0.1-0.6,0.2-0.8s0.2-0.4,0.3-0.6
			c0.1-0.1,0.3-0.3,0.6-0.5c0.3-0.2,0.5-0.3,0.6-0.3s0.4-0.2,0.7-0.3c0.1,0,0.1,0,0.1-0.1v-0.4c0-0.3,0-0.6-0.1-0.7
			c-0.1-0.2-0.3-0.3-0.5-0.3c-0.2,0-0.4,0.1-0.5,0.2c-0.1,0.1-0.1,0.4-0.2,0.6c0,0,0,0.1,0,0.2h-1.2c0-0.6,0.2-1.1,0.5-1.4
			c0.3-0.4,0.8-0.5,1.4-0.5c0.6,0,1,0.2,1.4,0.5c0.3,0.4,0.5,0.8,0.5,1.4v2.8c0,0.7,0.1,1.2,0.2,1.6h-1.2l-0.2-0.9
			c-0.1,0.1-0.1,0.2-0.2,0.3c0,0.1-0.1,0.2-0.2,0.3c-0.1,0.1-0.2,0.2-0.2,0.2c-0.1,0.1-0.2,0.1-0.3,0.1S95.2,152.4,95,152.4z
			 M95.6,151.3c0.1,0,0.2,0,0.3-0.1s0.1-0.1,0.2-0.2c0,0,0.1-0.1,0.2-0.2c0,0,0,0,0,0v-1.7c-0.1,0-0.1,0.1-0.3,0.2
			c-0.1,0.1-0.2,0.1-0.3,0.2c-0.1,0-0.2,0.1-0.3,0.2c-0.1,0.1-0.2,0.2-0.2,0.2c-0.1,0.1-0.1,0.2-0.1,0.3c0,0.1-0.1,0.2-0.1,0.3
			C95,151.1,95.2,151.3,95.6,151.3z"/>
		<path fill="#FFFFFF" d="M98.6,152.3V146h1.2v0.8c0.1-0.2,0.3-0.5,0.6-0.6c0.2-0.2,0.5-0.3,0.8-0.3c0,0,0.1,0,0.2,0v1.4
			c-0.2-0.1-0.5-0.1-0.7-0.1c-0.3,0-0.5,0.1-0.6,0.2c-0.2,0.2-0.2,0.4-0.2,0.6v4.2H98.6z"/>
		<path fill="#FFFFFF" d="M106.5,152.4c-0.3,0-0.5-0.1-0.7-0.2s-0.4-0.3-0.6-0.5v0.6H104v-8.7h1.2v3.1c0.1-0.1,0.2-0.2,0.3-0.3
			s0.1-0.1,0.3-0.2s0.2-0.1,0.3-0.2c0.1,0,0.3-0.1,0.4-0.1c0.2,0,0.4,0,0.6,0.1c0.2,0.1,0.3,0.2,0.4,0.3s0.2,0.3,0.3,0.5
			c0.1,0.2,0.1,0.4,0.2,0.5c0,0.2,0.1,0.4,0.1,0.7s0,0.5,0,0.7c0,0.2,0,0.4,0,0.7v0.1c0,0.3,0,0.5,0,0.8c0,0.3-0.1,0.5-0.2,0.8
			s-0.2,0.5-0.3,0.7s-0.3,0.3-0.4,0.5C107,152.3,106.8,152.4,106.5,152.4z M106.2,151.3c0.1,0,0.2,0,0.3-0.1
			c0.1-0.1,0.2-0.2,0.2-0.4c0-0.2,0.1-0.4,0.1-0.5s0-0.4,0-0.6c0-0.2,0-0.4,0-0.7c0-0.3,0-0.5,0-0.7s0-0.3,0-0.4c0-0.1,0-0.2,0-0.3
			c0-0.1-0.1-0.2-0.1-0.3s-0.1-0.1-0.2-0.2c-0.1-0.1-0.2-0.1-0.3-0.1c-0.3,0-0.7,0.1-0.9,0.2v3.9
			C105.6,151.3,105.9,151.3,106.2,151.3z"/>
		<path fill="#FFFFFF" d="M110.2,152.4c-0.3,0-0.6-0.2-0.9-0.5c-0.2-0.3-0.4-0.6-0.4-1c0-0.3,0.1-0.6,0.2-0.8s0.2-0.4,0.3-0.6
			c0.1-0.1,0.3-0.3,0.6-0.5c0.3-0.2,0.5-0.3,0.6-0.3s0.4-0.2,0.7-0.3c0.1,0,0.1,0,0.1-0.1v-0.4c0-0.3,0-0.6-0.1-0.7
			c-0.1-0.2-0.3-0.3-0.5-0.3c-0.2,0-0.4,0.1-0.5,0.2c-0.1,0.1-0.1,0.4-0.2,0.6c0,0,0,0.1,0,0.2h-1.2c0-0.6,0.2-1.1,0.5-1.4
			c0.3-0.4,0.8-0.5,1.4-0.5c0.6,0,1,0.2,1.4,0.5c0.3,0.4,0.5,0.8,0.5,1.4v2.8c0,0.7,0.1,1.2,0.2,1.6h-1.2l-0.2-0.9
			c-0.1,0.1-0.1,0.2-0.2,0.3c0,0.1-0.1,0.2-0.2,0.3c-0.1,0.1-0.2,0.2-0.2,0.2c-0.1,0.1-0.2,0.1-0.3,0.1S110.3,152.4,110.2,152.4z
			 M110.8,151.3c0.1,0,0.2,0,0.3-0.1s0.1-0.1,0.2-0.2c0,0,0.1-0.1,0.2-0.2c0,0,0,0,0,0v-1.7c-0.1,0-0.1,0.1-0.3,0.2
			c-0.1,0.1-0.2,0.1-0.3,0.2c-0.1,0-0.2,0.1-0.3,0.2c-0.1,0.1-0.2,0.2-0.2,0.2c-0.1,0.1-0.1,0.2-0.1,0.3c0,0.1-0.1,0.2-0.1,0.3
			C110.2,151.1,110.4,151.3,110.8,151.3z"/>
		<path fill="#FFFFFF" d="M115.4,152.4c-0.5,0-0.9-0.2-1.2-0.5c-0.3-0.3-0.5-0.7-0.6-1.2l0.9-0.3c0.2,0.6,0.5,0.9,0.9,0.9
			c0.2,0,0.4-0.1,0.5-0.2c0.1-0.1,0.2-0.3,0.2-0.5c0-0.3-0.1-0.5-0.3-0.7l-1.2-0.9c-0.1-0.1-0.3-0.2-0.4-0.3
			c-0.1-0.1-0.2-0.2-0.3-0.3s-0.2-0.3-0.2-0.4c-0.1-0.2-0.1-0.3-0.1-0.5c0-0.5,0.2-0.9,0.5-1.2c0.3-0.3,0.8-0.4,1.4-0.4
			c0.3,0,0.5,0,0.7,0.1c0.2,0.1,0.4,0.2,0.5,0.4c0.1,0.2,0.3,0.3,0.4,0.5c0.1,0.2,0.2,0.4,0.2,0.6l-0.9,0.3c0-0.1-0.1-0.2-0.1-0.3
			c0-0.1-0.1-0.2-0.2-0.3c-0.1-0.1-0.2-0.2-0.3-0.2c-0.1-0.1-0.2-0.1-0.3-0.1c-0.2,0-0.4,0.1-0.5,0.2c-0.1,0.1-0.2,0.3-0.2,0.5
			c0,0.2,0.1,0.4,0.3,0.5l1.2,0.9c0.1,0.1,0.3,0.2,0.4,0.3c0.1,0.1,0.2,0.2,0.3,0.4c0.1,0.1,0.2,0.3,0.2,0.5s0.1,0.3,0.1,0.5
			c0,0.5-0.2,0.9-0.5,1.2C116.4,152.2,116,152.4,115.4,152.4z"/>
		<path fill="#FFFFFF" d="M118.1,145.1v-1.2h1.2v1.2H118.1z M118.1,152.3V146h1.2v6.2H118.1z"/>
		<path fill="#FFFFFF" d="M122.1,152.4c-0.3,0-0.6-0.1-0.8-0.2c-0.2-0.1-0.4-0.2-0.5-0.4c-0.1-0.2-0.2-0.4-0.3-0.6
			c-0.1-0.3-0.1-0.5-0.2-0.8c0-0.3,0-0.5-0.1-0.9c0-0.3,0-0.5,0-0.8c0-0.3,0-0.6,0.1-0.9c0-0.3,0.1-0.5,0.2-0.8
			c0.1-0.3,0.2-0.5,0.3-0.6c0.1-0.2,0.3-0.3,0.5-0.4c0.2-0.1,0.5-0.2,0.8-0.2c0.7,0,1.1,0.2,1.4,0.5c0.3,0.4,0.4,0.9,0.5,1.6v0.2
			h-1.2V148c0-0.2,0-0.3,0-0.4c0-0.1,0-0.2-0.1-0.4c0-0.1-0.1-0.2-0.2-0.3c-0.1-0.1-0.2-0.1-0.3-0.1c-0.1,0-0.2,0-0.3,0.1
			c-0.1,0.1-0.1,0.2-0.2,0.3s-0.1,0.3-0.1,0.4c0,0.1,0,0.3,0,0.5c0,0.4,0,1,0,1.8c0,0.2,0,0.3,0,0.5c0,0.1,0.1,0.3,0.1,0.4
			c0,0.1,0.1,0.2,0.2,0.3c0.1,0.1,0.2,0.1,0.3,0.1c0.1,0,0.2,0,0.3-0.1c0.1,0,0.1-0.1,0.2-0.2c0-0.1,0.1-0.1,0.1-0.2s0-0.2,0-0.3
			c0-0.1,0-0.2,0-0.3v-0.2h1.2v0.2c0,0.3,0,0.6-0.1,0.9c-0.1,0.3-0.2,0.5-0.3,0.7c-0.1,0.2-0.3,0.3-0.6,0.4
			C122.7,152.3,122.4,152.4,122.1,152.4z"/>
		<path fill="#FFFFFF" d="M1.7,164.4c-0.3,0-0.6-0.2-0.9-0.5c-0.2-0.3-0.4-0.6-0.4-1c0-0.3,0.1-0.6,0.2-0.8s0.2-0.4,0.3-0.6
			c0.1-0.1,0.3-0.3,0.6-0.5c0.3-0.2,0.5-0.3,0.6-0.3s0.4-0.2,0.7-0.3c0.1,0,0.1,0,0.1-0.1v-0.4c0-0.3,0-0.6-0.1-0.7
			c-0.1-0.2-0.3-0.3-0.5-0.3c-0.2,0-0.4,0.1-0.5,0.2c-0.1,0.1-0.1,0.4-0.2,0.6c0,0,0,0.1,0,0.2H0.4c0-0.6,0.2-1.1,0.5-1.4
			s0.8-0.5,1.4-0.5c0.6,0,1,0.2,1.4,0.5c0.3,0.4,0.5,0.8,0.5,1.4v2.8c0,0.7,0.1,1.2,0.2,1.6H3.1l-0.2-0.9c-0.1,0.1-0.1,0.2-0.2,0.3
			s-0.1,0.2-0.2,0.3c-0.1,0.1-0.2,0.2-0.2,0.2c-0.1,0.1-0.2,0.1-0.3,0.1S1.8,164.4,1.7,164.4z M2.3,163.3c0.1,0,0.2,0,0.3-0.1
			s0.1-0.1,0.2-0.2s0.1-0.1,0.2-0.2c0,0,0,0,0,0v-1.7c-0.1,0-0.1,0.1-0.3,0.2s-0.2,0.1-0.3,0.2c-0.1,0-0.2,0.1-0.3,0.2
			c-0.1,0.1-0.2,0.2-0.2,0.2c-0.1,0.1-0.1,0.2-0.1,0.3s-0.1,0.2-0.1,0.3C1.7,163.1,1.9,163.3,2.3,163.3z"/>
		<path fill="#FFFFFF" d="M5.2,164.3V158h1.2v0.8c0.1-0.2,0.3-0.5,0.6-0.6c0.2-0.2,0.5-0.3,0.8-0.3c0,0,0.1,0,0.2,0v1.4
			c-0.2-0.1-0.5-0.1-0.7-0.1c-0.3,0-0.5,0.1-0.6,0.2s-0.2,0.4-0.2,0.6v4.2H5.2z"/>
		<path fill="#FFFFFF" d="M8.7,157.1v-1.2h1.2v1.2H8.7z M8.7,164.3V158h1.2v6.2H8.7z"/>
		<path fill="#FFFFFF" d="M12.9,164.4c-0.5,0-0.8-0.1-1.1-0.4s-0.3-0.6-0.3-1.1V159h-0.6V158h0.6v-2.2h1.2v2.2h0.9v0.9h-0.9v3.6
			c0,0.3,0,0.4,0.1,0.6s0.2,0.2,0.4,0.2c0.1,0,0.2,0,0.4,0v1C13.3,164.3,13.1,164.4,12.9,164.4z"/>
		<path fill="#FFFFFF" d="M14.5,164.3v-8.8h1.2v3.2c0.2-0.2,0.3-0.3,0.5-0.4c0.1-0.1,0.3-0.2,0.5-0.3c0.2-0.1,0.4-0.1,0.7-0.1
			c0.3,0,0.5,0.1,0.6,0.3s0.2,0.4,0.2,0.7v5.3H17v-4.7c0-0.2,0-0.4-0.1-0.5s-0.2-0.2-0.3-0.2c-0.3,0-0.5,0.1-0.8,0.4v4.9H14.5z"/>
		<path fill="#FFFFFF" d="M19.4,164.3V158h1.2v0.7c0.4-0.5,1-0.8,1.6-0.8c0.3,0,0.5,0.1,0.7,0.2c0.1,0.1,0.2,0.3,0.3,0.6
			c0.2-0.3,0.4-0.5,0.7-0.6s0.5-0.2,0.9-0.2c0.1,0,0.2,0,0.3,0c0.1,0,0.2,0,0.2,0.1s0.1,0.1,0.2,0.1c0,0.1,0.1,0.1,0.1,0.2
			c0,0,0.1,0.1,0.1,0.2s0,0.2,0,0.2s0,0.2,0,0.3s0,0.2,0,0.3s0,0.2,0,0.3c0,0,0,0.1,0,0.1v4.5h-1.2v-4.6c0,0,0,0,0-0.1
			c0-0.1,0-0.2,0-0.2s0-0.1,0-0.2c0-0.1,0-0.1-0.1-0.2s-0.1-0.1-0.2-0.1c-0.1,0-0.3,0-0.4,0.1c-0.1,0-0.2,0.1-0.3,0.1
			c-0.1,0-0.2,0.1-0.3,0.2v4.9h-1.2v-4.5c0,0,0,0,0-0.1c0-0.1,0-0.2,0-0.2s0-0.1,0-0.2c0-0.1,0-0.1,0-0.2s-0.1-0.1-0.1-0.1
			s-0.1,0-0.2,0c-0.3,0-0.6,0.1-0.9,0.4v4.9H19.4z"/>
		<path fill="#FFFFFF" d="M28.5,164.4c-0.3,0-0.6-0.1-0.8-0.2s-0.4-0.2-0.5-0.4c-0.1-0.2-0.2-0.4-0.3-0.6c-0.1-0.3-0.1-0.5-0.2-0.8
			c0-0.3,0-0.6-0.1-0.9c0-0.3,0-0.5,0-0.8c0-0.3,0-0.6,0.1-0.9c0-0.3,0.1-0.5,0.2-0.7s0.2-0.4,0.3-0.6s0.3-0.3,0.5-0.4
			c0.2-0.1,0.5-0.1,0.8-0.1c0.3,0,0.5,0,0.7,0.1c0.2,0.1,0.4,0.2,0.5,0.3c0.1,0.1,0.2,0.3,0.3,0.5s0.2,0.4,0.2,0.6
			c0,0.2,0.1,0.5,0.1,0.7s0,0.5,0,0.8v0.1h-2.5v0.3c0,0,0,0.1,0,0.2c0,0.1,0,0.2,0,0.4c0,0.1,0,0.3,0,0.4s0,0.2,0.1,0.4
			c0,0.1,0.1,0.2,0.1,0.3s0.1,0.2,0.2,0.2s0.2,0.1,0.3,0.1c0.1,0,0.2,0,0.3-0.1c0.1,0,0.1-0.1,0.2-0.2s0.1-0.2,0.1-0.3s0-0.2,0-0.4
			v-0.3h1.2v0.2c0,0.7-0.2,1.2-0.5,1.5S29.1,164.4,28.5,164.4z M27.9,160.5h1.2v-0.4c0-0.2,0-0.3,0-0.4s0-0.2-0.1-0.4
			s-0.1-0.2-0.2-0.3s-0.2-0.1-0.3-0.1c-0.1,0-0.2,0-0.3,0.1s-0.1,0.2-0.2,0.3c0,0.1-0.1,0.3-0.1,0.4s0,0.3,0,0.4V160.5z"/>
		<path fill="#FFFFFF" d="M33,164.4c-0.5,0-0.8-0.1-1.1-0.4s-0.3-0.6-0.3-1.1V159H31V158h0.6v-2.2h1.2v2.2h0.9v0.9h-0.9v3.6
			c0,0.3,0,0.4,0.1,0.6s0.2,0.2,0.4,0.2c0.1,0,0.2,0,0.4,0v1C33.5,164.3,33.2,164.4,33,164.4z"/>
		<path fill="#FFFFFF" d="M34.8,157.1v-1.2H36v1.2H34.8z M34.8,164.3V158H36v6.2H34.8z"/>
		<path fill="#FFFFFF" d="M38.8,164.4c-0.3,0-0.6-0.1-0.8-0.2s-0.4-0.2-0.5-0.4s-0.2-0.4-0.3-0.6c-0.1-0.3-0.1-0.5-0.2-0.8
			c0-0.3,0-0.5-0.1-0.9c0-0.3,0-0.5,0-0.8c0-0.3,0-0.6,0.1-0.9s0.1-0.5,0.2-0.8c0.1-0.3,0.2-0.5,0.3-0.6c0.1-0.2,0.3-0.3,0.5-0.4
			s0.5-0.2,0.8-0.2c0.7,0,1.1,0.2,1.4,0.5s0.4,0.9,0.5,1.6v0.2h-1.2V160c0-0.2,0-0.3,0-0.4s0-0.2-0.1-0.4s-0.1-0.2-0.2-0.3
			c-0.1-0.1-0.2-0.1-0.3-0.1s-0.2,0-0.3,0.1c-0.1,0.1-0.1,0.2-0.2,0.3s-0.1,0.3-0.1,0.4c0,0.1,0,0.3,0,0.5c0,0.4,0,1,0,1.8
			c0,0.2,0,0.3,0,0.5c0,0.1,0.1,0.3,0.1,0.4c0,0.1,0.1,0.2,0.2,0.3s0.2,0.1,0.3,0.1c0.1,0,0.2,0,0.3-0.1s0.1-0.1,0.2-0.2
			s0.1-0.1,0.1-0.2s0-0.2,0-0.3c0-0.1,0-0.2,0-0.3v-0.2h1.2v0.2c0,0.3-0.1,0.6-0.1,0.9c-0.1,0.3-0.2,0.5-0.3,0.7s-0.3,0.3-0.6,0.4
			C39.4,164.3,39.1,164.4,38.8,164.4z"/>
		<path fill="#FFFFFF" d="M43.4,164.3V158h1.2v0.7c0.4-0.5,1-0.8,1.6-0.8c0.3,0,0.5,0.1,0.7,0.2c0.1,0.1,0.2,0.3,0.3,0.6
			c0.2-0.3,0.4-0.5,0.7-0.6s0.5-0.2,0.9-0.2c0.1,0,0.2,0,0.3,0c0.1,0,0.2,0,0.2,0.1s0.1,0.1,0.2,0.1c0,0.1,0.1,0.1,0.1,0.2
			c0,0,0.1,0.1,0.1,0.2s0,0.2,0,0.2s0,0.2,0,0.3s0,0.2,0,0.3s0,0.2,0,0.3c0,0,0,0.1,0,0.1v4.5h-1.2v-4.6c0,0,0,0,0-0.1
			c0-0.1,0-0.2,0-0.2s0-0.1,0-0.2c0-0.1,0-0.1-0.1-0.2s-0.1-0.1-0.2-0.1c-0.1,0-0.3,0-0.4,0.1c-0.1,0-0.2,0.1-0.3,0.1
			c-0.1,0-0.2,0.1-0.3,0.2v4.9h-1.2v-4.5c0,0,0,0,0-0.1c0-0.1,0-0.2,0-0.2s0-0.1,0-0.2c0-0.1,0-0.1,0-0.2s-0.1-0.1-0.1-0.1
			s-0.1,0-0.2,0c-0.3,0-0.6,0.1-0.9,0.4v4.9H43.4z"/>
		<path fill="#FFFFFF" d="M52.6,164.4c-0.3,0-0.6-0.1-0.8-0.2s-0.4-0.2-0.5-0.4c-0.1-0.2-0.2-0.4-0.3-0.6c-0.1-0.3-0.1-0.5-0.2-0.8
			c0-0.3,0-0.6-0.1-0.9c0-0.3,0-0.5,0-0.8c0-0.3,0-0.6,0.1-0.9c0-0.3,0.1-0.5,0.2-0.7s0.2-0.4,0.3-0.6s0.3-0.3,0.5-0.4
			c0.2-0.1,0.5-0.1,0.8-0.1c0.3,0,0.5,0,0.7,0.1c0.2,0.1,0.4,0.2,0.5,0.3c0.1,0.1,0.2,0.3,0.3,0.5s0.2,0.4,0.2,0.6
			c0,0.2,0.1,0.5,0.1,0.7s0,0.5,0,0.8v0.1h-2.5v0.3c0,0,0,0.1,0,0.2c0,0.1,0,0.2,0,0.4c0,0.1,0,0.3,0,0.4s0,0.2,0.1,0.4
			c0,0.1,0.1,0.2,0.1,0.3s0.1,0.2,0.2,0.2s0.2,0.1,0.3,0.1c0.1,0,0.2,0,0.3-0.1c0.1,0,0.1-0.1,0.2-0.2s0.1-0.2,0.1-0.3s0-0.2,0-0.4
			v-0.3h1.2v0.2c0,0.7-0.2,1.2-0.5,1.5S53.2,164.4,52.6,164.4z M51.9,160.5h1.2v-0.4c0-0.2,0-0.3,0-0.4s0-0.2-0.1-0.4
			s-0.1-0.2-0.2-0.3s-0.2-0.1-0.3-0.1c-0.1,0-0.2,0-0.3,0.1s-0.1,0.2-0.2,0.3c0,0.1-0.1,0.3-0.1,0.4s0,0.3,0,0.4V160.5z"/>
		<path fill="#FFFFFF" d="M55.3,164.3V158h1.2v0.7c0.2-0.2,0.3-0.3,0.5-0.4c0.1-0.1,0.3-0.2,0.5-0.3c0.2-0.1,0.4-0.1,0.7-0.1
			c0.3,0,0.5,0.1,0.6,0.3s0.2,0.4,0.2,0.7v5.3h-1.2v-4.7c0-0.2,0-0.4-0.1-0.5c-0.1-0.1-0.2-0.1-0.4-0.1c-0.1,0-0.2,0-0.3,0.1
			c-0.1,0-0.2,0.1-0.2,0.1c-0.1,0-0.1,0.1-0.2,0.2v4.9H55.3z"/>
		<path fill="#FFFFFF" d="M61.9,164.4c-0.5,0-0.8-0.1-1.1-0.4s-0.3-0.6-0.3-1.1V159h-0.6V158h0.6v-2.2h1.2v2.2h0.9v0.9h-0.9v3.6
			c0,0.3,0,0.4,0.1,0.6s0.2,0.2,0.4,0.2c0.1,0,0.2,0,0.4,0v1C62.4,164.3,62.1,164.4,61.9,164.4z"/>
		<path fill="#FFFFFF" d="M64.7,164.4c-0.3,0-0.6-0.2-0.9-0.5c-0.2-0.3-0.4-0.6-0.4-1c0-0.3,0.1-0.6,0.2-0.8s0.2-0.4,0.3-0.6
			c0.1-0.1,0.3-0.3,0.6-0.5c0.3-0.2,0.5-0.3,0.6-0.3s0.4-0.2,0.7-0.3c0.1,0,0.1,0,0.1-0.1v-0.4c0-0.3,0-0.6-0.1-0.7
			c-0.1-0.2-0.3-0.3-0.5-0.3c-0.2,0-0.4,0.1-0.5,0.2c-0.1,0.1-0.1,0.4-0.2,0.6c0,0,0,0.1,0,0.2h-1.2c0-0.6,0.2-1.1,0.5-1.4
			s0.8-0.5,1.4-0.5c0.6,0,1,0.2,1.4,0.5c0.3,0.4,0.5,0.8,0.5,1.4v2.8c0,0.7,0.1,1.2,0.2,1.6h-1.2l-0.2-0.9c-0.1,0.1-0.1,0.2-0.2,0.3
			s-0.1,0.2-0.2,0.3c-0.1,0.1-0.2,0.2-0.2,0.2c-0.1,0.1-0.2,0.1-0.3,0.1S64.8,164.4,64.7,164.4z M65.3,163.3c0.1,0,0.2,0,0.3-0.1
			s0.1-0.1,0.2-0.2s0.1-0.1,0.2-0.2c0,0,0,0,0,0v-1.7c-0.1,0-0.1,0.1-0.3,0.2s-0.2,0.1-0.3,0.2c-0.1,0-0.2,0.1-0.3,0.2
			c-0.1,0.1-0.2,0.2-0.2,0.2c-0.1,0.1-0.1,0.2-0.1,0.3s-0.1,0.2-0.1,0.3C64.7,163.1,64.9,163.3,65.3,163.3z"/>
		<path fill="#FFFFFF" d="M68.3,164.3v-8.8h1.2v8.8H68.3z"/>
		<path fill="#FFFFFF" d="M70.7,165.5l-0.3-0.6c0.2,0,0.4,0,0.5-0.1s0.1-0.3,0.1-0.5h-0.6V163h1.2c0,0.5,0,0.9,0,1.2
			c0,0.2,0,0.3,0,0.4s0,0.2-0.1,0.4c0,0.1-0.1,0.2-0.2,0.3c-0.1,0.1-0.2,0.1-0.3,0.2S70.9,165.5,70.7,165.5z"/>
		<path fill="#FFFFFF" d="M74.7,164.3V158h1.2v0.7c0.2-0.2,0.3-0.3,0.5-0.4c0.1-0.1,0.3-0.2,0.5-0.3c0.2-0.1,0.4-0.1,0.7-0.1
			c0.3,0,0.5,0.1,0.6,0.3s0.2,0.4,0.2,0.7v5.3h-1.2v-4.7c0-0.2,0-0.4-0.1-0.5c-0.1-0.1-0.2-0.1-0.4-0.1c-0.1,0-0.2,0-0.3,0.1
			c-0.1,0-0.2,0.1-0.2,0.1c-0.1,0-0.1,0.1-0.2,0.2v4.9H74.7z"/>
		<path fill="#FFFFFF" d="M82.7,163.8c-0.3,0.4-0.8,0.6-1.4,0.6s-1.2-0.2-1.4-0.6s-0.4-1-0.4-1.7v-1.9c0-0.7,0.1-1.3,0.4-1.7
			s0.8-0.6,1.4-0.6s1.2,0.2,1.4,0.6s0.4,1,0.4,1.7v1.9C83.1,162.8,83,163.4,82.7,163.8z M81,163.3c0.1,0,0.1,0,0.2,0s0.2,0,0.2,0
			s0.1-0.1,0.2-0.1c0,0,0.1-0.1,0.1-0.2c0-0.1,0.1-0.1,0.1-0.2s0-0.1,0-0.2s0-0.2,0-0.2c0-0.1,0-0.2,0-0.3v-1.9c0-0.1,0-0.2,0-0.3
			c0-0.1,0-0.1,0-0.2s0-0.2,0-0.2s0-0.1-0.1-0.2c0-0.1-0.1-0.1-0.1-0.2c0,0-0.1-0.1-0.2-0.1s-0.1,0-0.2,0s-0.2,0-0.2,0
			s-0.1,0.1-0.2,0.1c0,0-0.1,0.1-0.1,0.2c0,0.1-0.1,0.1-0.1,0.2s0,0.1,0,0.2s0,0.2,0,0.2c0,0.1,0,0.2,0,0.3v1.9c0,0.1,0,0.2,0,0.3
			c0,0.1,0,0.1,0,0.2s0,0.2,0,0.2s0,0.1,0.1,0.2c0,0.1,0.1,0.1,0.1,0.2C80.9,163.2,81,163.3,81,163.3z"/>
		<path fill="#FFFFFF" d="M84.2,164.3V158h1.2v0.7c0.2-0.2,0.3-0.3,0.5-0.4c0.1-0.1,0.3-0.2,0.5-0.3c0.2-0.1,0.4-0.1,0.7-0.1
			c0.3,0,0.5,0.1,0.6,0.3s0.2,0.4,0.2,0.7v5.3h-1.2v-4.7c0-0.2,0-0.4-0.1-0.5c-0.1-0.1-0.2-0.1-0.4-0.1c-0.1,0-0.2,0-0.3,0.1
			c-0.1,0-0.2,0.1-0.2,0.1c-0.1,0-0.1,0.1-0.2,0.2v4.9H84.2z"/>
		<path fill="#FFFFFF" d="M88.4,162.1v-0.9h1.9v0.9H88.4z"/>
		<path fill="#FFFFFF" d="M91.8,164.3l-1.4-6.2h1.2l0.9,4.7l0.8-4.7h1.2l-1.4,6.2H91.8z"/>
		<path fill="#FFFFFF" d="M96.8,164.4c-0.3,0-0.6-0.1-0.8-0.2c-0.2-0.1-0.4-0.2-0.5-0.4c-0.1-0.2-0.2-0.4-0.3-0.6
			c-0.1-0.3-0.1-0.5-0.2-0.8c0-0.3,0-0.6-0.1-0.9c0-0.3,0-0.5,0-0.8c0-0.3,0-0.6,0.1-0.9c0-0.3,0.1-0.5,0.2-0.7
			c0.1-0.2,0.2-0.4,0.3-0.6c0.1-0.2,0.3-0.3,0.5-0.4c0.2-0.1,0.5-0.1,0.8-0.1c0.3,0,0.5,0,0.7,0.1c0.2,0.1,0.4,0.2,0.5,0.3
			c0.1,0.1,0.2,0.3,0.3,0.5c0.1,0.2,0.2,0.4,0.2,0.6c0,0.2,0.1,0.5,0.1,0.7c0,0.2,0,0.5,0,0.8v0.1h-2.5v0.3c0,0,0,0.1,0,0.2
			c0,0.1,0,0.2,0,0.4c0,0.1,0,0.3,0,0.4c0,0.1,0,0.2,0.1,0.4c0,0.1,0.1,0.2,0.1,0.3c0,0.1,0.1,0.2,0.2,0.2c0.1,0,0.2,0.1,0.3,0.1
			c0.1,0,0.2,0,0.3-0.1c0.1,0,0.1-0.1,0.2-0.2c0-0.1,0.1-0.2,0.1-0.3c0-0.1,0-0.2,0-0.4v-0.3h1.2v0.2c0,0.7-0.2,1.2-0.5,1.5
			C97.9,164.2,97.4,164.4,96.8,164.4z M96.2,160.5h1.2v-0.4c0-0.2,0-0.3,0-0.4c0-0.1,0-0.2-0.1-0.4c0-0.1-0.1-0.2-0.2-0.3
			c-0.1-0.1-0.2-0.1-0.3-0.1c-0.1,0-0.2,0-0.3,0.1c-0.1,0.1-0.2,0.2-0.2,0.3c0,0.1-0.1,0.3-0.1,0.4c0,0.1,0,0.3,0,0.4V160.5z"/>
		<path fill="#FFFFFF" d="M99.6,164.3V158h1.2v0.8c0.1-0.2,0.3-0.5,0.6-0.6c0.2-0.2,0.5-0.3,0.8-0.3c0,0,0.1,0,0.2,0v1.4
			c-0.2-0.1-0.5-0.1-0.7-0.1c-0.3,0-0.5,0.1-0.6,0.2c-0.2,0.2-0.2,0.4-0.2,0.6v4.2H99.6z"/>
		<path fill="#FFFFFF" d="M105.5,164.4c-0.3,0-0.5-0.1-0.7-0.2s-0.4-0.3-0.6-0.5v0.6H103v-8.7h1.2v3.1c0.1-0.1,0.2-0.2,0.3-0.3
			s0.1-0.1,0.3-0.2s0.2-0.1,0.3-0.2c0.1,0,0.3-0.1,0.4-0.1c0.2,0,0.4,0,0.6,0.1c0.2,0.1,0.3,0.2,0.4,0.3s0.2,0.3,0.3,0.5
			c0.1,0.2,0.1,0.4,0.2,0.5c0,0.2,0.1,0.4,0.1,0.7s0,0.5,0,0.7c0,0.2,0,0.4,0,0.7v0.1c0,0.3,0,0.5,0,0.8c0,0.3-0.1,0.5-0.2,0.8
			s-0.2,0.5-0.3,0.7s-0.3,0.3-0.4,0.5C106,164.3,105.7,164.4,105.5,164.4z M105.2,163.3c0.1,0,0.2,0,0.3-0.1
			c0.1-0.1,0.2-0.2,0.2-0.4c0-0.2,0.1-0.4,0.1-0.5s0-0.4,0-0.6c0-0.2,0-0.4,0-0.7c0-0.3,0-0.5,0-0.7s0-0.3,0-0.4c0-0.1,0-0.2,0-0.3
			c0-0.1-0.1-0.2-0.1-0.3s-0.1-0.1-0.2-0.2c-0.1-0.1-0.2-0.1-0.3-0.1c-0.3,0-0.7,0.1-0.9,0.2v3.9
			C104.6,163.3,104.9,163.3,105.2,163.3z"/>
		<path fill="#FFFFFF" d="M109.2,164.4c-0.3,0-0.6-0.2-0.9-0.5c-0.2-0.3-0.4-0.6-0.4-1c0-0.3,0.1-0.6,0.2-0.8s0.2-0.4,0.3-0.6
			c0.1-0.1,0.3-0.3,0.6-0.5c0.3-0.2,0.5-0.3,0.6-0.3s0.4-0.2,0.7-0.3c0.1,0,0.1,0,0.1-0.1v-0.4c0-0.3,0-0.6-0.1-0.7
			c-0.1-0.2-0.3-0.3-0.5-0.3c-0.2,0-0.4,0.1-0.5,0.2c-0.1,0.1-0.1,0.4-0.2,0.6c0,0,0,0.1,0,0.2h-1.2c0-0.6,0.2-1.1,0.5-1.4
			c0.3-0.4,0.8-0.5,1.4-0.5c0.6,0,1,0.2,1.4,0.5c0.3,0.4,0.5,0.8,0.5,1.4v2.8c0,0.7,0.1,1.2,0.2,1.6h-1.2l-0.2-0.9
			c-0.1,0.1-0.1,0.2-0.2,0.3c0,0.1-0.1,0.2-0.2,0.3c-0.1,0.1-0.2,0.2-0.2,0.2c-0.1,0.1-0.2,0.1-0.3,0.1S109.3,164.4,109.2,164.4z
			 M109.8,163.3c0.1,0,0.2,0,0.3-0.1s0.1-0.1,0.2-0.2c0,0,0.1-0.1,0.2-0.2c0,0,0,0,0,0v-1.7c-0.1,0-0.1,0.1-0.3,0.2
			c-0.1,0.1-0.2,0.1-0.3,0.2c-0.1,0-0.2,0.1-0.3,0.2c-0.1,0.1-0.2,0.2-0.2,0.2c-0.1,0.1-0.1,0.2-0.1,0.3c0,0.1-0.1,0.2-0.1,0.3
			C109.2,163.1,109.4,163.3,109.8,163.3z"/>
		<path fill="#FFFFFF" d="M112.8,164.3v-8.8h1.2v8.8H112.8z"/>
		<path fill="#FFFFFF" d="M2.2,176.4c-0.5,0-0.9-0.2-1.2-0.5s-0.5-0.7-0.6-1.2l0.9-0.3c0.2,0.6,0.5,0.9,0.9,0.9
			c0.2,0,0.4-0.1,0.5-0.2c0.1-0.1,0.2-0.3,0.2-0.5c0-0.3-0.1-0.5-0.3-0.7L1.3,173c-0.1-0.1-0.3-0.2-0.4-0.3
			c-0.1-0.1-0.2-0.2-0.3-0.3s-0.2-0.3-0.2-0.4s-0.1-0.3-0.1-0.5c0-0.5,0.2-0.9,0.5-1.2s0.8-0.4,1.4-0.4c0.3,0,0.5,0,0.7,0.1
			c0.2,0.1,0.4,0.2,0.5,0.4s0.3,0.3,0.4,0.5c0.1,0.2,0.2,0.4,0.2,0.6l-0.9,0.3c0-0.1-0.1-0.2-0.1-0.3c0-0.1-0.1-0.2-0.2-0.3
			s-0.2-0.2-0.3-0.2C2.5,171,2.3,171,2.2,171c-0.2,0-0.4,0.1-0.5,0.2c-0.1,0.1-0.2,0.3-0.2,0.5c0,0.2,0.1,0.4,0.3,0.5l1.2,0.9
			c0.1,0.1,0.3,0.2,0.4,0.3c0.1,0.1,0.2,0.2,0.3,0.4c0.1,0.1,0.2,0.3,0.2,0.5c0,0.2,0.1,0.3,0.1,0.5c0,0.5-0.2,0.9-0.5,1.2
			S2.8,176.4,2.2,176.4z"/>
		<path fill="#FFFFFF" d="M4.8,176.3v-8.8h1.2v4.8l1.6-2.3h1.3l-1.4,2.2l1.4,4.1H7.7l-0.9-3l-0.6,0.8v2.2H4.8z"/>
		<path fill="#FFFFFF" d="M9.6,169.1v-1.2h1.2v1.2H9.6z M9.6,176.3V170h1.2v6.2H9.6z"/>
		<path fill="#FFFFFF" d="M12,176.3v-8.8h1.2v8.8H12z"/>
		<path fill="#FFFFFF" d="M14.4,176.3v-8.8h1.2v8.8H14.4z"/>
		<path fill="#FFFFFF" d="M18.4,176.4c-0.5,0-0.9-0.2-1.2-0.5s-0.5-0.7-0.6-1.2l0.9-0.3c0.2,0.6,0.5,0.9,0.9,0.9
			c0.2,0,0.4-0.1,0.5-0.2c0.1-0.1,0.2-0.3,0.2-0.5c0-0.3-0.1-0.5-0.3-0.7l-1.2-0.9c-0.1-0.1-0.3-0.2-0.4-0.3
			c-0.1-0.1-0.2-0.2-0.3-0.3s-0.2-0.3-0.2-0.4s-0.1-0.3-0.1-0.5c0-0.5,0.2-0.9,0.5-1.2s0.8-0.4,1.4-0.4c0.3,0,0.5,0,0.7,0.1
			c0.2,0.1,0.4,0.2,0.5,0.4s0.3,0.3,0.4,0.5c0.1,0.2,0.2,0.4,0.2,0.6l-0.9,0.3c0-0.1-0.1-0.2-0.1-0.3c0-0.1-0.1-0.2-0.2-0.3
			s-0.2-0.2-0.3-0.2c-0.1-0.1-0.2-0.1-0.3-0.1c-0.2,0-0.4,0.1-0.5,0.2c-0.1,0.1-0.2,0.3-0.2,0.5c0,0.2,0.1,0.4,0.3,0.5l1.2,0.9
			c0.1,0.1,0.3,0.2,0.4,0.3c0.1,0.1,0.2,0.2,0.3,0.4c0.1,0.1,0.2,0.3,0.2,0.5s0.1,0.3,0.1,0.5c0,0.5-0.2,0.9-0.5,1.2
			S19,176.4,18.4,176.4z"/>
		<path fill="#FFFFFF" d="M25.3,176.6c-0.3,0-0.5,0-0.7-0.1c-0.2-0.1-0.4-0.2-0.5-0.3c-0.1-0.1-0.3-0.3-0.4-0.5s-0.2-0.4-0.3-0.6
			c-0.1-0.3-0.1-0.5-0.2-0.7c0-0.2-0.1-0.5-0.1-0.8c0-0.3,0-0.6,0-0.8c0-0.2,0-0.5,0-0.8c0-0.4,0-0.7,0-1c0-0.2,0-0.5,0.1-0.9
			c0-0.4,0.1-0.7,0.1-0.9c0.1-0.2,0.1-0.5,0.2-0.7c0.1-0.3,0.2-0.5,0.4-0.6c0.2-0.2,0.3-0.3,0.6-0.4c0.2-0.1,0.5-0.2,0.8-0.2v0.9
			c-0.2,0-0.3,0.1-0.4,0.2c-0.1,0.1-0.2,0.2-0.3,0.4s-0.1,0.4-0.2,0.6s-0.1,0.5-0.1,0.7s0,0.5,0,0.7c0,0.2,0,0.4,0,0.6
			c0,0.3,0,0.5,0,0.6s0,0.3,0,0.6s0,0.5,0,0.7c0,0.3,0,0.5,0,0.7c0,0.2,0,0.4,0.1,0.7s0.1,0.4,0.2,0.6s0.2,0.3,0.3,0.4
			s0.3,0.2,0.4,0.2V176.6z"/>
		<path fill="#FFFFFF" d="M27.3,176.4c-0.3,0-0.6-0.2-0.9-0.5c-0.2-0.3-0.4-0.6-0.4-1c0-0.3,0.1-0.6,0.2-0.8s0.2-0.4,0.3-0.6
			c0.1-0.1,0.3-0.3,0.6-0.5c0.3-0.2,0.5-0.3,0.6-0.3s0.4-0.2,0.7-0.3c0.1,0,0.1,0,0.1-0.1v-0.4c0-0.3,0-0.6-0.1-0.7
			c-0.1-0.2-0.3-0.3-0.5-0.3c-0.2,0-0.4,0.1-0.5,0.2c-0.1,0.1-0.1,0.4-0.2,0.6c0,0,0,0.1,0,0.2H26c0-0.6,0.2-1.1,0.5-1.4
			s0.8-0.5,1.4-0.5c0.6,0,1,0.2,1.4,0.5c0.3,0.4,0.5,0.8,0.5,1.4v2.8c0,0.7,0.1,1.2,0.2,1.6h-1.2l-0.2-0.9c-0.1,0.1-0.1,0.2-0.2,0.3
			s-0.1,0.2-0.2,0.3c-0.1,0.1-0.2,0.2-0.2,0.2c-0.1,0.1-0.2,0.1-0.3,0.1S27.4,176.4,27.3,176.4z M27.9,175.3c0.1,0,0.2,0,0.3-0.1
			s0.1-0.1,0.2-0.2s0.1-0.1,0.2-0.2c0,0,0,0,0,0v-1.7c-0.1,0-0.1,0.1-0.3,0.2s-0.2,0.1-0.3,0.2c-0.1,0-0.2,0.1-0.3,0.2
			c-0.1,0.1-0.2,0.2-0.2,0.2c-0.1,0.1-0.1,0.2-0.1,0.3s-0.1,0.2-0.1,0.3C27.3,175.1,27.5,175.3,27.9,175.3z"/>
		<path fill="#FFFFFF" d="M32.3,176.4c-0.3,0-0.5-0.1-0.7-0.2s-0.4-0.4-0.5-0.6s-0.2-0.5-0.3-0.8c-0.1-0.3-0.1-0.6-0.1-0.9
			c0-0.2,0-0.5,0-1.1c0-0.2,0-0.4,0-0.6c0-0.2,0-0.4,0.1-0.5s0.1-0.4,0.1-0.5c0-0.1,0.1-0.3,0.2-0.4c0.1-0.1,0.2-0.2,0.3-0.3
			s0.2-0.2,0.4-0.2s0.3-0.1,0.5-0.1c0.1,0,0.3,0,0.4,0.1c0.1,0,0.2,0.1,0.3,0.2c0.1,0.1,0.2,0.2,0.3,0.2s0.2,0.1,0.3,0.3v-3.1h1.2
			v8.7h-1.2v-0.6c-0.2,0.2-0.4,0.4-0.6,0.5S32.6,176.4,32.3,176.4z M32.6,175.3c0.3,0,0.6-0.1,0.9-0.2v-3.9
			c-0.3-0.2-0.6-0.2-0.9-0.2c-0.1,0-0.2,0-0.3,0.1c-0.1,0.1-0.1,0.1-0.2,0.3c0,0.1-0.1,0.2-0.1,0.4c0,0.1,0,0.3,0,0.4
			c0,0.7,0,1.3,0,1.7c0,0.2,0,0.4,0,0.6s0.1,0.3,0.1,0.5c0,0.2,0.1,0.3,0.2,0.3S32.5,175.3,32.6,175.3z"/>
		<path fill="#FFFFFF" d="M37.2,176.4c-0.3,0-0.5-0.1-0.7-0.2s-0.4-0.4-0.5-0.6s-0.2-0.5-0.3-0.8c-0.1-0.3-0.1-0.6-0.1-0.9
			c0-0.2,0-0.5,0-1.1c0-0.2,0-0.4,0-0.6c0-0.2,0-0.4,0.1-0.5s0.1-0.4,0.1-0.5c0-0.1,0.1-0.3,0.2-0.4c0.1-0.1,0.2-0.2,0.3-0.3
			s0.2-0.2,0.4-0.2s0.3-0.1,0.5-0.1c0.1,0,0.3,0,0.4,0.1c0.1,0,0.2,0.1,0.3,0.2c0.1,0.1,0.2,0.2,0.3,0.2s0.2,0.1,0.3,0.3v-3.1h1.2
			v8.7h-1.2v-0.6c-0.2,0.2-0.4,0.4-0.6,0.5S37.5,176.4,37.2,176.4z M37.5,175.3c0.3,0,0.6-0.1,0.9-0.2v-3.9
			c-0.3-0.2-0.6-0.2-0.9-0.2c-0.1,0-0.2,0-0.3,0.1c-0.1,0.1-0.1,0.1-0.2,0.3c0,0.1-0.1,0.2-0.1,0.4c0,0.1,0,0.3,0,0.4
			c0,0.7,0,1.3,0,1.7c0,0.2,0,0.4,0,0.6s0.1,0.3,0.1,0.5c0,0.2,0.1,0.3,0.2,0.3S37.4,175.3,37.5,175.3z"/>
		<path fill="#FFFFFF" d="M40.9,169.1v-1.2h1.2v1.2H40.9z M40.9,176.3V170h1.2v6.2H40.9z"/>
		<path fill="#FFFFFF" d="M43.4,176.3V170h1.2v0.7c0.2-0.2,0.3-0.3,0.5-0.4c0.1-0.1,0.3-0.2,0.5-0.3c0.2-0.1,0.4-0.1,0.7-0.1
			c0.3,0,0.5,0.1,0.6,0.3s0.2,0.4,0.2,0.7v5.3h-1.2v-4.7c0-0.2,0-0.4-0.1-0.5c-0.1-0.1-0.2-0.1-0.4-0.1c-0.1,0-0.2,0-0.3,0.1
			c-0.1,0-0.2,0.1-0.2,0.1c-0.1,0-0.1,0.1-0.2,0.2v4.9H43.4z"/>
		<path fill="#FFFFFF" d="M50.2,178.1c-0.2,0-0.3,0-0.4,0c-0.1,0-0.2,0-0.4,0s-0.3,0-0.4,0c-0.1,0-0.2,0-0.4-0.1
			c-0.1,0-0.3-0.1-0.4-0.1s-0.2-0.1-0.3-0.2s-0.2-0.1-0.2-0.2c0-0.1-0.1-0.2-0.1-0.3c0-0.3,0.1-0.6,0.3-0.8s0.4-0.4,0.7-0.6
			c-0.2,0-0.3-0.1-0.4-0.2c-0.1-0.1-0.2-0.2-0.2-0.3c0-0.1,0-0.1,0-0.2s0-0.1,0-0.2c0,0,0-0.1,0.1-0.2s0.1-0.1,0.1-0.2
			c0,0,0.1-0.1,0.1-0.2c0-0.1,0.1-0.1,0.1-0.1c0,0,0.1-0.1,0.1-0.1c0.1-0.1,0.1-0.1,0.1-0.1c-0.4-0.5-0.6-1.1-0.6-1.9
			c0-0.4,0.1-0.8,0.2-1.2s0.3-0.6,0.6-0.8c0.3-0.2,0.6-0.3,1-0.3c0.2,0,0.4,0,0.6,0.1s0.3,0.1,0.4,0.2c0.1,0.1,0.2,0.2,0.3,0.4
			c0.2-0.5,0.6-0.7,1.1-0.7c0,0,0,0,0,0s0,0,0,0s0,0,0,0v1c0,0,0,0-0.1,0c-0.1,0-0.2,0-0.3,0s-0.2,0-0.2,0c-0.1,0-0.2,0.1-0.2,0.1
			c0.1,0.1,0.1,0.3,0.2,0.5c0,0.2,0.1,0.4,0.1,0.6c0,0.4-0.1,0.8-0.2,1.2s-0.3,0.6-0.6,0.8s-0.6,0.3-1,0.3l-0.6-0.1c0,0,0,0,0,0.1
			c0,0,0,0.1-0.1,0.1s0,0.1,0,0.1c0,0,0,0.1,0,0.1c0,0.1,0,0.2,0.1,0.2s0.2,0.1,0.3,0.1c0.1,0,0.3,0,0.4,0.1s0.3,0,0.4,0
			c0.2,0,0.3,0,0.3,0c0.2,0,0.4,0.1,0.5,0.1c0.1,0,0.3,0.1,0.4,0.1s0.3,0.1,0.4,0.2s0.2,0.2,0.2,0.4s0.1,0.3,0.1,0.5
			c0,0.2,0,0.4-0.1,0.6s-0.2,0.3-0.3,0.4s-0.3,0.2-0.5,0.3c-0.2,0.1-0.4,0.1-0.6,0.2S50.4,178.1,50.2,178.1z M50.2,177.2
			c0.1,0,0.2,0,0.2,0s0.2,0,0.2,0s0.2,0,0.2,0c0.1,0,0.1,0,0.2-0.1s0.1-0.1,0.1-0.1c0-0.1,0-0.1,0-0.2c0-0.3-0.3-0.6-1-0.6l-1-0.1
			c-0.1,0.1-0.2,0.2-0.3,0.4s-0.1,0.4-0.1,0.5c0,0.1,0,0.1,0.1,0.1c0,0,0.1,0.1,0.2,0.1s0.1,0,0.2,0s0.2,0,0.3,0s0.2,0,0.3,0
			s0.2,0,0.3,0S50.2,177.2,50.2,177.2z M49.9,173.5c0.5,0,0.8-0.4,0.8-1.3c0-0.2,0-0.3,0-0.5c0-0.2-0.1-0.3-0.1-0.4
			c-0.1-0.1-0.1-0.3-0.2-0.3c-0.1-0.1-0.2-0.1-0.4-0.1c-0.2,0-0.3,0-0.4,0.1c-0.1,0.1-0.2,0.2-0.2,0.3c-0.1,0.1-0.1,0.3-0.1,0.4
			c0,0.2,0,0.3,0,0.5C49.1,173.1,49.4,173.5,49.9,173.5z"/>
		<path fill="#FFFFFF" d="M55.7,176.4c-0.3,0-0.5-0.1-0.7-0.3c-0.2-0.2-0.2-0.4-0.2-0.7V170H56v4.9c0,0.1,0,0.2,0.1,0.3
			s0.2,0.1,0.3,0.1c0.1,0,0.1,0,0.2,0s0.1,0,0.2-0.1c0.1,0,0.1-0.1,0.1-0.1c0,0,0.1-0.1,0.2-0.1s0.1-0.1,0.1-0.1V170h1.2v6.2h-1.2
			v-0.7c-0.1,0.1-0.2,0.2-0.3,0.2s-0.1,0.1-0.3,0.2c-0.1,0.1-0.2,0.1-0.3,0.2c-0.1,0-0.2,0.1-0.3,0.1
			C55.9,176.3,55.8,176.4,55.7,176.4z"/>
		<path fill="#FFFFFF" d="M59.6,178.1V170h1.2v0.6c0.1-0.1,0.2-0.2,0.2-0.2s0.1-0.1,0.2-0.2s0.2-0.1,0.2-0.2s0.2-0.1,0.3-0.1
			c0.1,0,0.2,0,0.3,0c0.2,0,0.4,0,0.6,0.1c0.2,0.1,0.3,0.2,0.4,0.3s0.2,0.3,0.3,0.5c0.1,0.2,0.1,0.4,0.2,0.5s0.1,0.4,0.1,0.7
			s0,0.5,0,0.7c0,0.2,0,0.4,0,0.7v0.1c0,0.3,0,0.5,0,0.8s-0.1,0.5-0.2,0.8c-0.1,0.3-0.2,0.5-0.3,0.7s-0.3,0.3-0.4,0.5
			c-0.2,0.1-0.4,0.2-0.6,0.2c-0.4,0-0.8-0.2-1.2-0.6v2.4H59.6z M61.8,175.3c0.1,0,0.2,0,0.3-0.1s0.2-0.2,0.2-0.4
			c0-0.2,0.1-0.4,0.1-0.5c0-0.2,0-0.4,0-0.6l0-0.8c0-0.1,0-0.3,0-0.4c0-0.1,0-0.2,0-0.4c0-0.1,0-0.3,0-0.4s0-0.2-0.1-0.3
			s-0.1-0.2-0.1-0.3S62,171,61.9,171s-0.2-0.1-0.3-0.1c0,0-0.1,0-0.1,0s-0.1,0-0.1,0c0,0-0.1,0-0.1,0c0,0-0.1,0-0.1,0.1
			s-0.1,0-0.1,0.1c0,0-0.1,0-0.1,0.1s-0.1,0.1-0.1,0.1v3.9C61.1,175.2,61.4,175.3,61.8,175.3z"/>
		<path fill="#FFFFFF" d="M64.4,176.6v-0.9c0.2,0,0.3-0.1,0.4-0.2c0.1-0.1,0.2-0.2,0.3-0.4s0.1-0.4,0.2-0.6s0.1-0.5,0.1-0.7
			s0-0.5,0-0.7c0-0.2,0-0.4,0-0.6c0-0.3,0-0.5,0-0.6s0-0.3,0-0.6s0-0.5,0-0.7c0-0.3,0-0.5,0-0.7c0-0.2,0-0.4-0.1-0.7
			s-0.1-0.4-0.2-0.6s-0.2-0.3-0.3-0.4s-0.3-0.2-0.4-0.2v-0.9c0.3,0,0.5,0,0.7,0.1c0.2,0.1,0.4,0.2,0.5,0.3c0.1,0.1,0.3,0.3,0.4,0.5
			s0.2,0.4,0.3,0.6c0.1,0.3,0.1,0.5,0.2,0.7c0,0.2,0.1,0.5,0.1,0.8c0,0.3,0,0.6,0,0.8c0,0.2,0,0.5,0,0.8c0,0.4,0,0.7,0,1
			c0,0.2,0,0.5-0.1,0.9c0,0.4-0.1,0.7-0.1,0.9c-0.1,0.2-0.1,0.5-0.2,0.7c-0.1,0.3-0.2,0.5-0.4,0.6c-0.2,0.2-0.3,0.3-0.6,0.4
			C65,176.5,64.7,176.6,64.4,176.6z"/>
		<path fill="#FFFFFF" d="M70.9,176.4c-0.3,0-0.6-0.2-0.9-0.5c-0.2-0.3-0.4-0.6-0.4-1c0-0.3,0.1-0.6,0.2-0.8s0.2-0.4,0.3-0.6
			c0.1-0.1,0.3-0.3,0.6-0.5c0.3-0.2,0.5-0.3,0.6-0.3s0.4-0.2,0.7-0.3c0.1,0,0.1,0,0.1-0.1v-0.4c0-0.3,0-0.6-0.1-0.7
			c-0.1-0.2-0.3-0.3-0.5-0.3c-0.2,0-0.4,0.1-0.5,0.2c-0.1,0.1-0.1,0.4-0.2,0.6c0,0,0,0.1,0,0.2h-1.2c0-0.6,0.2-1.1,0.5-1.4
			s0.8-0.5,1.4-0.5c0.6,0,1,0.2,1.4,0.5c0.3,0.4,0.5,0.8,0.5,1.4v2.8c0,0.7,0.1,1.2,0.2,1.6h-1.2l-0.2-0.9c-0.1,0.1-0.1,0.2-0.2,0.3
			s-0.1,0.2-0.2,0.3c-0.1,0.1-0.2,0.2-0.2,0.2c-0.1,0.1-0.2,0.1-0.3,0.1S71.1,176.4,70.9,176.4z M71.5,175.3c0.1,0,0.2,0,0.3-0.1
			s0.1-0.1,0.2-0.2s0.1-0.1,0.2-0.2c0,0,0,0,0,0v-1.7c-0.1,0-0.1,0.1-0.3,0.2s-0.2,0.1-0.3,0.2c-0.1,0-0.2,0.1-0.3,0.2
			c-0.1,0.1-0.2,0.2-0.2,0.2c-0.1,0.1-0.1,0.2-0.1,0.3s-0.1,0.2-0.1,0.3C70.9,175.1,71.1,175.3,71.5,175.3z"/>
		<path fill="#FFFFFF" d="M76.1,176.4c-0.5,0-0.9-0.2-1.2-0.5s-0.5-0.7-0.6-1.2l0.9-0.3c0.2,0.6,0.5,0.9,0.9,0.9
			c0.2,0,0.4-0.1,0.5-0.2c0.1-0.1,0.2-0.3,0.2-0.5c0-0.3-0.1-0.5-0.3-0.7l-1.2-0.9c-0.1-0.1-0.3-0.2-0.4-0.3
			c-0.1-0.1-0.2-0.2-0.3-0.3s-0.2-0.3-0.2-0.4s-0.1-0.3-0.1-0.5c0-0.5,0.2-0.9,0.5-1.2s0.8-0.4,1.4-0.4c0.3,0,0.5,0,0.7,0.1
			c0.2,0.1,0.4,0.2,0.5,0.4s0.3,0.3,0.4,0.5c0.1,0.2,0.2,0.4,0.2,0.6l-0.9,0.3c0-0.1-0.1-0.2-0.1-0.3c0-0.1-0.1-0.2-0.2-0.3
			s-0.2-0.2-0.3-0.2c-0.1-0.1-0.2-0.1-0.3-0.1c-0.2,0-0.4,0.1-0.5,0.2c-0.1,0.1-0.2,0.3-0.2,0.5c0,0.2,0.1,0.4,0.3,0.5l1.2,0.9
			c0.1,0.1,0.3,0.2,0.4,0.3c0.1,0.1,0.2,0.2,0.3,0.4c0.1,0.1,0.2,0.3,0.2,0.5s0.1,0.3,0.1,0.5c0,0.5-0.2,0.9-0.5,1.2
			S76.7,176.4,76.1,176.4z"/>
		<path fill="#FFFFFF" d="M80.8,176.3v-8.8h1.2v3.2c0.2-0.2,0.3-0.3,0.5-0.4c0.1-0.1,0.3-0.2,0.5-0.3c0.2-0.1,0.4-0.1,0.7-0.1
			c0.3,0,0.5,0.1,0.6,0.3s0.2,0.4,0.2,0.7v5.3h-1.2v-4.7c0-0.2,0-0.4-0.1-0.5s-0.2-0.2-0.3-0.2c-0.3,0-0.5,0.1-0.8,0.4v4.9H80.8z"/>
		<path fill="#FFFFFF" d="M86.5,176.4c-0.3,0-0.5-0.1-0.7-0.3c-0.2-0.2-0.2-0.4-0.2-0.7V170h1.2v4.9c0,0.1,0,0.2,0.1,0.3
			c0.1,0.1,0.2,0.1,0.3,0.1c0.1,0,0.1,0,0.2,0c0.1,0,0.1,0,0.2-0.1c0.1,0,0.1-0.1,0.1-0.1c0,0,0.1-0.1,0.2-0.1
			c0.1-0.1,0.1-0.1,0.1-0.1V170h1.2v6.2h-1.2v-0.7c-0.1,0.1-0.2,0.2-0.3,0.2c-0.1,0-0.1,0.1-0.3,0.2c-0.1,0.1-0.2,0.1-0.3,0.2
			c-0.1,0-0.2,0.1-0.3,0.1C86.8,176.3,86.7,176.4,86.5,176.4z"/>
		<path fill="#FFFFFF" d="M90.5,176.3V170h1.2v0.7c0.4-0.5,1-0.8,1.6-0.8c0.3,0,0.5,0.1,0.7,0.2c0.1,0.1,0.2,0.3,0.3,0.6
			c0.2-0.3,0.4-0.5,0.7-0.6c0.2-0.1,0.5-0.2,0.9-0.2c0.1,0,0.2,0,0.3,0c0.1,0,0.2,0,0.2,0.1c0.1,0,0.1,0.1,0.2,0.1
			c0,0.1,0.1,0.1,0.1,0.2c0,0,0.1,0.1,0.1,0.2c0,0.1,0,0.2,0,0.2s0,0.2,0,0.3c0,0.1,0,0.2,0,0.3s0,0.2,0,0.3c0,0,0,0.1,0,0.1v4.5
			h-1.2v-4.6c0,0,0,0,0-0.1c0-0.1,0-0.2,0-0.2c0-0.1,0-0.1,0-0.2c0-0.1,0-0.1-0.1-0.2c0,0-0.1-0.1-0.2-0.1c-0.1,0-0.3,0-0.4,0.1
			c-0.1,0-0.2,0.1-0.3,0.1c-0.1,0-0.2,0.1-0.3,0.2v4.9H93v-4.5c0,0,0,0,0-0.1c0-0.1,0-0.2,0-0.2s0-0.1,0-0.2c0-0.1,0-0.1,0-0.2
			s0-0.1-0.1-0.1c0,0-0.1,0-0.2,0c-0.3,0-0.6,0.1-0.9,0.4v4.9H90.5z"/>
		<path fill="#FFFFFF" d="M98.9,176.4c-0.3,0-0.6-0.2-0.9-0.5c-0.2-0.3-0.4-0.6-0.4-1c0-0.3,0.1-0.6,0.2-0.8s0.2-0.4,0.3-0.6
			c0.1-0.1,0.3-0.3,0.6-0.5c0.3-0.2,0.5-0.3,0.6-0.3s0.4-0.2,0.7-0.3c0.1,0,0.1,0,0.1-0.1v-0.4c0-0.3,0-0.6-0.1-0.7
			c-0.1-0.2-0.3-0.3-0.5-0.3c-0.2,0-0.4,0.1-0.5,0.2c-0.1,0.1-0.1,0.4-0.2,0.6c0,0,0,0.1,0,0.2h-1.2c0-0.6,0.2-1.1,0.5-1.4
			c0.3-0.4,0.8-0.5,1.4-0.5c0.6,0,1,0.2,1.4,0.5c0.3,0.4,0.5,0.8,0.5,1.4v2.8c0,0.7,0.1,1.2,0.2,1.6h-1.2l-0.2-0.9
			c-0.1,0.1-0.1,0.2-0.2,0.3c0,0.1-0.1,0.2-0.2,0.3c-0.1,0.1-0.2,0.2-0.2,0.2c-0.1,0.1-0.2,0.1-0.3,0.1S99,176.4,98.9,176.4z
			 M99.5,175.3c0.1,0,0.2,0,0.3-0.1s0.1-0.1,0.2-0.2c0,0,0.1-0.1,0.2-0.2c0,0,0,0,0,0v-1.7c-0.1,0-0.1,0.1-0.3,0.2
			c-0.1,0.1-0.2,0.1-0.3,0.2c-0.1,0-0.2,0.1-0.3,0.2c-0.1,0.1-0.2,0.2-0.2,0.2c-0.1,0.1-0.1,0.2-0.1,0.3c0,0.1-0.1,0.2-0.1,0.3
			C98.9,175.1,99.1,175.3,99.5,175.3z"/>
		<path fill="#FFFFFF" d="M102.5,176.3V170h1.2v0.7c0.2-0.2,0.3-0.3,0.5-0.4c0.1-0.1,0.3-0.2,0.5-0.3c0.2-0.1,0.4-0.1,0.7-0.1
			c0.3,0,0.5,0.1,0.6,0.3s0.2,0.4,0.2,0.7v5.3H105v-4.7c0-0.2,0-0.4-0.1-0.5c-0.1-0.1-0.2-0.1-0.4-0.1c-0.1,0-0.2,0-0.3,0.1
			c-0.1,0-0.2,0.1-0.2,0.1c-0.1,0-0.1,0.1-0.2,0.2v4.9H102.5z"/>
		<path fill="#FFFFFF" d="M109,176.4c-0.5,0-0.9-0.2-1.2-0.5c-0.3-0.3-0.5-0.7-0.6-1.2l0.9-0.3c0.2,0.6,0.5,0.9,0.9,0.9
			c0.2,0,0.4-0.1,0.5-0.2c0.1-0.1,0.2-0.3,0.2-0.5c0-0.3-0.1-0.5-0.3-0.7L108,173c-0.1-0.1-0.3-0.2-0.4-0.3
			c-0.1-0.1-0.2-0.2-0.3-0.3s-0.2-0.3-0.2-0.4c-0.1-0.2-0.1-0.3-0.1-0.5c0-0.5,0.2-0.9,0.5-1.2c0.3-0.3,0.8-0.4,1.4-0.4
			c0.3,0,0.5,0,0.7,0.1c0.2,0.1,0.4,0.2,0.5,0.4c0.1,0.2,0.3,0.3,0.4,0.5c0.1,0.2,0.2,0.4,0.2,0.6l-0.9,0.3c0-0.1-0.1-0.2-0.1-0.3
			c0-0.1-0.1-0.2-0.2-0.3c-0.1-0.1-0.2-0.2-0.3-0.2c-0.1-0.1-0.2-0.1-0.3-0.1c-0.2,0-0.4,0.1-0.5,0.2c-0.1,0.1-0.2,0.3-0.2,0.5
			c0,0.2,0.1,0.4,0.3,0.5l1.2,0.9c0.1,0.1,0.3,0.2,0.4,0.3c0.1,0.1,0.2,0.2,0.3,0.4c0.1,0.1,0.2,0.3,0.2,0.5s0.1,0.3,0.1,0.5
			c0,0.5-0.2,0.9-0.5,1.2C110,176.2,109.5,176.4,109,176.4z"/>
		<path fill="#FFFFFF" d="M111.3,176.3V175h1.2v1.2H111.3z"/>
	</g>
</g>
</svg>
