<?xml version="1.0" encoding="utf-8"?>
<!-- Generator: Adobe Illustrator 19.1.0, SVG Export Plug-In . SVG Version: 6.00 Build 0)  -->
<svg version="1.1" id="Layer_1" xmlns="http://www.w3.org/2000/svg" xmlns:xlink="http://www.w3.org/1999/xlink" x="0px" y="0px"
	 width="288px" height="288px" viewBox="0 0 288 288" style="enable-background:new 0 0 288 288;" xml:space="preserve">
<style type="text/css">
	.st0{fill:#D9BD8C;}
	.st1{fill:#8D5738;}
	.st2{fill:#A67458;}
	.st3{fill:none;stroke:#010101;stroke-miterlimit:10;}
	.st4{fill:#592C1C;}
	.st5{fill:#B8A278;}
	.st6{fill:none;}
	.st7{fill:#ADAFB2;}
	.st8{fill:#4F4F51;}
	.st9{fill:#FFFFFF;}
	.st10{fill:#81B441;}
	.st11{fill:#3E2711;}
	.st12{opacity:0.78;fill:#FFFFFF;}
	.st13{fill:#231F20;}
	.st14{fill:#464547;}
	.st15{fill:#010101;}
</style>
<g>
	<path class="st0" d="M163.4,128.5c0,6.6-4.9,12-10.9,12c-3.9,0-7.3-2.2-9.2-5.6c-1.1-1.9-1.7-4.1-1.7-6.4c0-6.6,4.9-12,10.9-12
		C158.5,116.5,163.4,121.9,163.4,128.5z"/>
	<path class="st0" d="M191.2,130.5c0,1.1-0.1,2.2-0.4,3.3c0,0,0,0,0,0c-1.3,5-5.5,8.7-10.5,8.7c-6,0-10.9-5.4-10.9-12
		s4.9-12,10.9-12C186.3,118.5,191.2,123.8,191.2,130.5z"/>
	<path class="st1" d="M169.5,127.8C169.5,127.8,169.5,127.8,169.5,127.8C169.5,127.8,169.5,127.8,169.5,127.8L169.5,127.8z
		 M189.1,140.7c-0.1,0.4-0.2,0.8-0.4,1.1c0,0,0,0,0,0c-0.1,0.4-0.3,0.8-0.4,1.1c-0.1,0.3-0.2,0.6-0.3,0.9c-0.2,0.4-0.3,0.9-0.5,1.3
		c0,0,0,0.1,0,0.1c-0.3,0.6-0.6,1.2-0.9,1.8c-0.3,0.5-0.6,1-0.9,1.5c-0.1,0.1-0.1,0.2-0.2,0.3c-0.1,0.1-0.1,0.2-0.2,0.3
		c0,0,0,0.1-0.1,0.1c0,0,0,0,0,0c-0.2,0.2-0.3,0.4-0.5,0.6c0,0,0,0-0.1,0.1c-0.2,0.2-0.3,0.4-0.5,0.6c-0.1,0.1-0.2,0.2-0.3,0.3
		c-0.1,0.1-0.2,0.2-0.3,0.3c0,0.1-0.1,0.1-0.2,0.1c-0.1,0.2-0.3,0.3-0.5,0.4c-0.1,0.1-0.2,0.2-0.4,0.3c-0.1,0.1-0.2,0.2-0.4,0.2
		c-0.1,0.1-0.2,0.1-0.4,0.2c-0.1,0-0.2,0.1-0.4,0.1c-0.1,0-0.2,0.1-0.3,0.1c-0.1,0-0.2,0.1-0.4,0.1c-0.2,0-0.4,0.1-0.6,0.1h0
		c0,0-0.1,0-0.1,0c0,0,0,0,0,0h0c-0.2,0-0.3,0-0.5,0c0,0-0.1,0-0.1,0v0c0.1,0.5,0.2,1,0.3,1.5c0,0.2,0.1,0.4,0.1,0.6
		c0.1,0.4,0.1,0.9,0.2,1.3c0,0.1,0,0.3,0.1,0.4c0,0.1,0,0.3,0,0.4c0,0,0,0.1,0,0.1c0,0.1,0,0.2,0,0.4c0,0.1,0,0.2,0,0.4
		c0,0.2,0,0.4,0,0.6c0,0.1,0,0.2,0,0.4v0.2c0,0.1,0,0.2,0,0.4c0,0.1,0,0.2,0,0.4c0,0.4,0,0.8,0,1.2c0,1.1-0.1,2.1-0.3,3.1
		c0,0.3-0.1,0.6-0.1,0.8c-0.1,0.3-0.1,0.7-0.2,1c-0.1,0.3-0.1,0.6-0.2,0.8c-0.1,0.6-0.3,1.1-0.5,1.6c-0.1,0.3-0.2,0.5-0.3,0.8
		c-0.1,0.3-0.2,0.6-0.3,0.8c-0.2,0.4-0.3,0.8-0.5,1.2c-0.1,0.1-0.1,0.2-0.2,0.4c-0.2,0.4-0.4,0.8-0.6,1.1c-0.1,0.2-0.3,0.5-0.4,0.7
		c-0.1,0.2-0.3,0.5-0.5,0.7c-0.2,0.2-0.4,0.5-0.5,0.7c-0.4,0.5-0.9,1-1.3,1.5c-0.4,0.4-0.8,0.8-1.2,1.1c-0.3,0.3-0.6,0.5-1,0.7
		c-0.2,0.1-0.3,0.2-0.5,0.3c-0.4,0.3-0.8,0.5-1.3,0.7c-0.2,0.1-0.4,0.2-0.6,0.3c-0.2,0.1-0.5,0.2-0.7,0.3c-0.2,0.1-0.4,0.1-0.6,0.2
		c0,0,0,0,0,0c-0.2,0-0.3,0.1-0.5,0.1c-0.2,0-0.3,0.1-0.5,0.1c-0.2,0-0.4,0.1-0.6,0.1c-0.2,0-0.5,0.1-0.7,0.1c-0.3,0-0.5,0-0.8,0
		c-0.3,0-0.5,0-0.8,0c-0.2,0-0.5,0-0.7-0.1c-0.2,0-0.4-0.1-0.6-0.1c-0.2,0-0.3-0.1-0.5-0.1c-0.2,0-0.3-0.1-0.5-0.1c0,0,0,0,0,0
		c-0.2-0.1-0.4-0.1-0.6-0.2c-0.2-0.1-0.5-0.2-0.7-0.3c-0.2-0.1-0.4-0.2-0.6-0.3c-0.4-0.2-0.9-0.5-1.3-0.7c-0.2-0.1-0.3-0.2-0.5-0.3
		c-0.3-0.2-0.6-0.5-1-0.7c-0.4-0.3-0.8-0.7-1.2-1.1c-0.5-0.5-0.9-1-1.3-1.5c-0.2-0.2-0.4-0.5-0.5-0.7c-0.2-0.2-0.3-0.5-0.5-0.7
		c-0.2-0.2-0.3-0.5-0.4-0.7c-0.2-0.4-0.4-0.8-0.6-1.1c-0.1-0.1-0.1-0.2-0.2-0.4c-0.2-0.4-0.4-0.8-0.5-1.2c-0.1-0.3-0.2-0.6-0.3-0.8
		c-0.1-0.3-0.2-0.5-0.3-0.8c-0.2-0.5-0.3-1.1-0.5-1.6c-0.1-0.3-0.2-0.5-0.2-0.8c-0.1-0.3-0.1-0.6-0.2-1c-0.1-0.3-0.1-0.6-0.1-0.8
		c-0.2-1-0.3-2.1-0.3-3.1c0-0.4,0-0.8,0-1.2c0-0.4,0-0.8,0-1.1c0-0.1,0-0.3,0-0.4c0,0,0-0.1,0-0.1c0-0.3,0-0.6,0.1-1
		c0,0,0-0.1,0-0.1c0-0.1,0-0.2,0-0.3c0-0.3,0.1-0.6,0.1-1c0,0,0,0,0,0c0-0.2,0-0.3,0.1-0.5c0,0,0-0.1,0-0.1c0,0,0-0.1,0-0.1
		c0-0.1,0-0.1,0-0.2c0-0.1,0-0.1,0-0.2c0-0.2,0.1-0.4,0.1-0.7c0,0,0-0.1,0-0.1c0-0.2,0.1-0.5,0.2-0.7v0c-0.1,0-0.1,0-0.2,0
		c-0.1,0-0.2,0-0.2-0.1c0,0,0,0,0,0c-0.1,0-0.2-0.1-0.3-0.1c-0.1,0-0.2,0-0.2-0.1c-0.4-0.2-0.9-0.4-1.3-0.6
		c-0.2-0.1-0.5-0.3-0.7-0.4c-0.2-0.1-0.3-0.2-0.4-0.3c-0.1-0.1-0.2-0.2-0.3-0.3c-0.1-0.1-0.2-0.2-0.3-0.3c-0.5-0.5-0.9-1-1.3-1.5
		c-0.1-0.2-0.2-0.3-0.3-0.5c-0.1-0.1-0.2-0.2-0.2-0.4c-0.1-0.1-0.1-0.3-0.2-0.4c0,0,0-0.1,0-0.1c-0.1-0.2-0.1-0.3-0.2-0.5
		c0-0.1-0.1-0.2-0.2-0.4c-0.1-0.3-0.2-0.6-0.3-0.9c-0.1-0.2-0.1-0.3-0.2-0.5c0-0.1-0.1-0.3-0.1-0.4c-0.1-0.3-0.1-0.6-0.2-0.9
		c0-0.2-0.1-0.3-0.1-0.5c-0.1-0.3-0.1-0.7-0.2-1c0-0.3-0.1-0.7-0.1-1c0,0,0,0,0,0c0-0.3-0.1-0.7-0.1-1c0,0,0,0,0,0
		c0-0.2,0-0.5,0-0.7c0-0.8,0-1.5,0-2.1c0-0.3,0-0.6,0-0.8c0-0.1,0-0.1,0-0.2c0-0.1,0-0.2,0-0.2c0-0.2,0.1-0.4,0.1-0.6
		c0-0.1,0-0.1,0-0.2c0-0.1,0-0.2,0-0.3c0-0.2,0-0.3,0.1-0.5c0-0.1,0-0.2,0-0.2c0-0.2,0-0.3,0-0.3c-0.3-0.5-0.5-0.9-0.7-1.5
		c-0.2-0.5-0.4-1-0.5-1.6c-0.3-1.1-0.5-2.2-0.5-3.4c0-0.1,0-0.2,0-0.3c0-0.1,0-0.2,0-0.3c0-0.4,0.1-0.8,0.1-1.2
		c0.1-0.4,0.1-0.8,0.2-1.2c0.1-0.4,0.2-0.8,0.3-1.1c0.2-0.7,0.5-1.4,0.9-2.1c0.2-0.4,0.5-0.9,0.8-1.3c0.1-0.1,0.2-0.3,0.3-0.4
		c0.2-0.2,0.4-0.5,0.6-0.7c0.1-0.1,0.2-0.3,0.4-0.4c0.7-0.7,1.5-1.3,2.4-1.8c0.1,0,0.2-0.1,0.3-0.2c0.6-0.3,1.2-0.5,1.8-0.7
		c0.2,0,0.4-0.1,0.6-0.1c0.7-0.2,1.4-0.2,2.2-0.2c0.2,0,0.4,0,0.6,0c0.1,0,0.3,0,0.4,0c0.2,0,0.3,0,0.5,0.1c0.2,0,0.3,0,0.5,0.1
		c0.1,0,0.2,0.1,0.4,0.1c0,0,0.1,0,0.1,0c0.1,0,0.2,0,0.3,0.1c0.1,0,0.2,0.1,0.4,0.1c0.2,0.1,0.4,0.1,0.6,0.2
		c0.2,0.1,0.5,0.2,0.7,0.3s0.5,0.2,0.7,0.4c0,0,0,0,0,0c0.2,0.1,0.4,0.3,0.6,0.4c0.2,0.1,0.4,0.3,0.6,0.5c1.2,1,2.3,2.3,3.1,3.8
		c0.1,0.2,0.2,0.4,0.3,0.7c0,0,0,0,0,0c0.1,0.3,0.2,0.5,0.3,0.8c0.4,1.1,0.6,2.2,0.7,3.4c0,0.3,0,0.6,0,1h0c0.1,0,0.3-0.1,0.4-0.1
		c0.2-0.1,0.5-0.2,0.7-0.2h0c0.2-0.1,0.4-0.1,0.6-0.2c0.1,0,0.2,0,0.3,0c1.1-0.1,1.8,0.1,2.4,0.5c0.1,0,0.1,0.1,0.2,0.1
		c0.1,0.1,0.2,0.2,0.3,0.3c0.1,0.1,0.2,0.2,0.3,0.3c0.3,0.4,0.5,0.7,0.6,1c0,0,0,0.1,0,0.1c0,0.1,0,0.2,0.1,0.2c0,0,0,0,0,0
		c0-0.2,0-0.4,0-0.5c0-0.1,0-0.2,0-0.3c0-0.1,0-0.2,0-0.4c0-0.2,0-0.4,0.1-0.6c0-0.1,0-0.2,0-0.3c0-0.1,0-0.3,0.1-0.4c0,0,0,0,0,0
		s0,0,0,0c0,0,0,0,0,0c0,0,0,0,0,0s0,0,0,0c0,0,0,0,0,0c0,0,0-0.1,0-0.1c0,0,0,0,0,0c0,0,0-0.1,0-0.2c0,0,0-0.1,0-0.1c0,0,0,0,0,0
		c0-0.1,0-0.2,0.1-0.4c0.1-0.3,0.2-0.5,0.3-0.8c0.1-0.2,0.1-0.4,0.2-0.5c0.2-0.5,0.4-1,0.7-1.4c0,0,0-0.1,0.1-0.1
		c0.1-0.1,0.1-0.2,0.2-0.2c0-0.1,0.1-0.2,0.2-0.3c0,0,0,0,0,0c0-0.1,0.1-0.1,0.1-0.2c0.1-0.2,0.2-0.3,0.3-0.5
		c0.1-0.1,0.2-0.2,0.2-0.3c0,0,0,0,0,0c0,0,0.1-0.1,0.1-0.1c0.1-0.1,0.1-0.1,0.1-0.2c0.1-0.1,0.1-0.1,0.2-0.2c0,0,0,0,0,0
		c0,0,0,0,0,0c0.1-0.1,0.3-0.3,0.4-0.4c0.3-0.3,0.5-0.5,0.8-0.7c0.6-0.5,1.2-0.9,1.8-1.2c0.2-0.1,0.3-0.2,0.5-0.2
		c0.3-0.2,0.7-0.3,1-0.4c0.3-0.1,0.7-0.2,1-0.3c0,0,0,0,0,0c0.3-0.1,0.7-0.1,1.1-0.2c0.4,0,0.7-0.1,1.1-0.1c6,0,10.9,5.4,10.9,12
		c0,0.5,0,1-0.1,1.5c0,0.2,0,0.4-0.1,0.6c0,0.2-0.1,0.4-0.1,0.6c0,0.2-0.1,0.4-0.1,0.6c0,0,0,0,0,0c0,0,0,0,0,0c0,0.3-0.2,1.4-0.6,3
		c0,0.2-0.1,0.4-0.1,0.6c-0.2,0.7-0.4,1.4-0.6,2.2C189.3,140,189.2,140.3,189.1,140.7z M169.5,127.8
		C169.5,127.8,169.5,127.8,169.5,127.8C169.5,127.8,169.5,127.8,169.5,127.8L169.5,127.8z M103.8,204.1c-4.7-12.3-8-23.6-10.3-33.8
		c-0.6-2.7-1.1-5.4-1.6-7.9v0c-0.1-0.7-0.2-1.4-0.4-2.1c-3.7-22.7-1.7-38.1,1.9-43.5c0.1-0.1,0.2-0.3,0.3-0.4
		c0.1-0.1,0.2-0.2,0.3-0.4c0.1-0.1,0.2-0.2,0.2-0.3c0.1-0.1,0.2-0.2,0.3-0.4c0.1-0.2,0.3-0.3,0.4-0.4c0.1-0.1,0.3-0.2,0.4-0.4
		c1.7-1.2,3.5-1.6,5.3-1.4c0.2,0,0.3,0,0.5,0c0.3,0,0.7,0.1,1,0.2c0.2,0,0.4,0.1,0.5,0.1c0.7,0.2,1.4,0.4,2.1,0.7
		c0.3,0.1,0.7,0.3,1,0.4c2.1,1.1,4,2.5,5.1,3.5c0.2,0.1,0.3,0.3,0.4,0.4c0.2,0.2,0.3,0.3,0.4,0.4c0.1,0.1,0.1,0.1,0.1,0.1
		c0.1,0.1,0.2,0.2,0.3,0.3c0,0,0,0,0,0c0,0,0,0,0,0c0.2,0.4,0.5,0.7,0.8,1.1c0.1,0.2,0.3,0.4,0.4,0.5c0.4,0.5,0.9,1,1.4,1.5
		c0.2,0.2,0.5,0.5,0.7,0.7c0.2,0.2,0.5,0.5,0.8,0.7c0.1,0.1,0.2,0.2,0.2,0.2c0.5,0.4,1,0.9,1.5,1.2c0.2,0.2,0.4,0.3,0.6,0.5
		c0.1,0.1,0.2,0.2,0.4,0.3c0.2,0.2,0.4,0.3,0.7,0.5c0.6,0.5,1.3,0.9,1.9,1.3c0.3,0.2,0.7,0.4,1,0.6c0.2,0.1,0.5,0.3,0.7,0.4
		c0.2,0.1,0.4,0.2,0.6,0.3c0.2,0.1,0.5,0.2,0.7,0.3c0.1,0.1,0.3,0.1,0.4,0.2c0.3,0.1,0.5,0.2,0.8,0.3c0.1,0,0.2,0.1,0.4,0.1
		c0.1,0,0.2,0.1,0.3,0.1c0.2,0.1,0.4,0.1,0.6,0.1c0.1,0,0.1,0,0.2,0l2.6-2.1c0,0-13.1-8.6-12-13.7c0-0.1,0.1-0.3,0.1-0.4
		c0-0.1,0.1-0.3,0.2-0.4c0.1-0.1,0.1-0.2,0.2-0.4c0.1-0.2,0.2-0.4,0.4-0.6c0.1-0.2,0.2-0.3,0.4-0.5c0.4-0.5,0.9-1.1,1.4-1.6
		c0,0,0,0,0,0c0.3-0.3,0.7-0.6,1.1-0.9c0.2-0.1,0.3-0.2,0.5-0.3c0.8-0.6,1.7-1,2.5-1.4c0.2-0.1,0.3-0.1,0.5-0.2
		c0.2-0.1,0.4-0.1,0.5-0.2c0.1,0,0.3-0.1,0.4-0.1c0.2-0.1,0.4-0.1,0.6-0.1c0.2,0,0.4-0.1,0.6-0.1c0.2,0,0.4-0.1,0.6-0.1
		c0.2,0,0.3,0,0.5,0c0.2,0,0.4,0,0.6,0c0.1,0,0.2,0,0.4,0c0.1,0,0.2,0,0.3,0c0.1,0,0.1,0,0.2,0c0.1,0,0.2,0,0.3,0.1
		c0.1,0,0.2,0.1,0.4,0.1c0.1,0,0.2,0,0.2,0.1c0.1,0,0.2,0,0.2,0.1c0.2,0.1,0.4,0.2,0.6,0.3c0,0,0.1,0,0.1,0c0.1,0.1,0.2,0.1,0.3,0.2
		c0,0,0,0,0.1,0s0.1,0,0.1,0c0.1,0.1,0.3,0.2,0.4,0.3c0.1,0.1,0.2,0.1,0.3,0.2c0.2,0.1,0.3,0.3,0.5,0.5c0,0,0,0,0,0
		c0.4,0.4,0.7,0.8,1,1.3c0.1,0.2,0.2,0.3,0.3,0.5c0.1,0.2,0.2,0.3,0.3,0.5c0.1,0.2,0.2,0.4,0.3,0.6c0.1,0.1,0.1,0.2,0.2,0.4
		c0.1,0.3,0.2,0.6,0.3,0.9c0,0.1,0.1,0.2,0.1,0.2c0-0.2-0.1-0.4-0.1-0.8c0,0,0,0,0,0c-0.1-0.3-0.1-0.7-0.2-1.2
		c0-0.2-0.1-0.3-0.1-0.5c0,0,0-0.1,0-0.1c0,0,0-0.1,0-0.1c0-0.1,0-0.1-0.1-0.2c0-0.2-0.1-0.4-0.1-0.6c0-0.2-0.1-0.3-0.1-0.5
		c-0.2-0.7-0.4-1.4-0.7-2.2c-0.1-0.3-0.2-0.5-0.3-0.8c-0.1-0.3-0.2-0.7-0.4-1c-0.1-0.2-0.2-0.5-0.3-0.7c-0.1-0.1-0.1-0.3-0.2-0.4
		c-0.1-0.1-0.1-0.3-0.2-0.4c-0.1-0.2-0.2-0.5-0.3-0.7c-0.1-0.2-0.2-0.5-0.4-0.7c-0.1-0.1-0.2-0.3-0.2-0.4c-0.1-0.2-0.3-0.5-0.4-0.7
		c-0.1-0.2-0.3-0.5-0.5-0.7c-0.1-0.2-0.2-0.3-0.3-0.5c-0.1-0.2-0.2-0.3-0.4-0.5c-0.1-0.1-0.2-0.2-0.3-0.4c-0.1-0.1-0.2-0.2-0.3-0.4
		c0,0,0,0-0.1-0.1l0,0c0.2-0.2,0.4-0.4,0.6-0.6c0.2-0.2,0.3-0.3,0.5-0.5h0c0.6-0.6,1.3-1.2,1.9-1.8c0.4-0.4,0.8-0.7,1.3-1.1
		c0.9-0.8,1.8-1.4,2.7-2.1c0.1-0.1,0.3-0.2,0.4-0.3c0.7-0.5,1.5-1,2.2-1.4c0.3-0.2,0.5-0.3,0.8-0.5c0.2-0.1,0.4-0.2,0.7-0.4
		c0.2-0.1,0.4-0.2,0.6-0.3c0.7-0.4,1.4-0.7,2-1c0.2-0.1,0.4-0.2,0.7-0.3c0.1,0,0.1-0.1,0.2-0.1c0.2-0.1,0.5-0.2,0.7-0.3
		c0.2-0.1,0.5-0.2,0.8-0.3c0.3-0.1,0.5-0.2,0.8-0.3c0.5-0.2,0.9-0.3,1.4-0.4c0.2-0.1,0.4-0.1,0.6-0.2c0.8-0.2,1.6-0.4,2.3-0.5
		c0.2,0,0.3-0.1,0.5-0.1c0.2,0,0.3-0.1,0.5-0.1c0.4,0,0.7-0.1,1.1-0.1c0.2,0,0.3,0,0.5,0c0.2,0,0.3,0,0.5,0
		c8.1-0.3,13.2,3.5,13.2,3.5s3.4-1.4,8.3-1.3c0.2,0,0.3,0,0.5,0c0.3,0,0.6,0,1,0.1c0.2,0,0.5,0.1,0.7,0.1s0.5,0.1,0.8,0.1
		c0.1,0,0.3,0.1,0.5,0.1c0.2,0,0.5,0.1,0.8,0.2c0.3,0.1,0.5,0.1,0.8,0.2c0.3,0.1,0.6,0.2,0.9,0.3c0.3,0.1,0.5,0.2,0.8,0.3
		c0.7,0.2,1.4,0.5,2.1,0.8c0.2,0.1,0.4,0.2,0.6,0.3c0.3,0.1,0.5,0.3,0.8,0.4c0.3,0.1,0.5,0.3,0.8,0.5c0.2,0.1,0.4,0.2,0.6,0.4
		c0.2,0.2,0.5,0.3,0.7,0.5c0.2,0.1,0.4,0.3,0.6,0.4c0.3,0.2,0.7,0.5,1,0.8c0.2,0.1,0.3,0.3,0.5,0.4c0.2,0.2,0.5,0.4,0.8,0.7
		c0,0,0,0,0,0c0.2,0.2,0.4,0.4,0.6,0.6c0.6,0.6,1.1,1.2,1.7,1.8c0.2,0.2,0.3,0.4,0.5,0.6c0.1,0.2,0.3,0.3,0.4,0.5
		c0.8,1.1,1.7,2.3,2.4,3.6c0.6,1,1.2,2.1,1.7,3.1c0.1,0.2,0.3,0.5,0.4,0.7c0.1,0.1,0.1,0.2,0.2,0.3c0,0.1,0.1,0.1,0.1,0.2
		c0,0,0,0,0,0v0c0,0,0,0,0,0c0,0,0,0,0,0c0,0,0.1,0.1,0.1,0.1c0.2,0.5,0.5,1,0.7,1.4v0c0,0.1,0.1,0.1,0.1,0.2
		c0.2,0.4,0.3,0.7,0.5,1.1c0.2,0.4,0.3,0.8,0.4,1.1c0.1,0.3,0.2,0.7,0.4,1c0.1,0.2,0.2,0.5,0.2,0.7c0.1,0.2,0.1,0.4,0.2,0.6
		c0.1,0.2,0.1,0.5,0.2,0.7v0c0.1,0.2,0.1,0.3,0.1,0.5c0,0.2,0.1,0.3,0.1,0.5c0,0.1,0.1,0.3,0.1,0.4c0,0,0,0.1,0,0.1
		c0,0.1,0.1,0.2,0.1,0.3c0.1,0.6,0.3,1.2,0.4,1.8c0,0.2,0.1,0.3,0.1,0.4c0,0.2,0.1,0.5,0.1,0.7c0.1,0.3,0.1,0.7,0.1,1
		c0,0,0,0.1,0,0.1c0,0,0,0,0,0c0,0.3,0.1,0.5,0.1,0.8c0.1,0.8,0.1,1.5,0.1,2.2c0,0.4,0,0.8,0,1.2c0,0.7-0.1,1.3-0.2,1.9
		c0,0.2-0.1,0.5-0.1,0.7c-0.1,0.5-0.1,0.9-0.2,1.3c0,0.1-0.1,0.3-0.1,0.4c-0.6,2.6-1.5,4.2-1.8,4.6c-0.1,0.1-0.1,0.1-0.1,0.1
		c0,0,0,0,0,0c0.3,0.9,6.2,16.7,5.4,47.8c-0.4,18.4-3.7,33.3-6.4,42.7c-10.1-5.4-21.1-10.5-34-14.8c-3.3-1.1-6.6-2.1-9.8-2.9
		c-2.2,1.5-4.6,3-6.9,4.5c-1.3-0.5-2.5-1-3.8-1.4c-0.1-0.1-0.3-0.1-0.4-0.1c-1.6-0.6-3.2-1.2-4.9-1.7c-3.8-1.3-7.4-1.7-10.9-1.8
		c-0.1,0-0.2,0-0.3,0c-0.8,0-1.5,0-2.3,0c-0.1,0-0.2,0-0.3,0c-0.1,0-0.2,0-0.3,0h0c-0.3,0-0.5,0-0.8,0c-4,0.2-7.9,0.9-11.7,1.3
		c-0.2,0-0.5,0.1-0.7,0.1c-0.2,0-0.5,0-0.7,0.1h0c0,0,0,0,0,0c-0.5-0.7-0.9-1.4-1.4-2.1c-0.3-0.4-0.5-0.9-0.8-1.3
		c-1.6,0.3-3.2,0.5-4.7,0.9L103.8,204.1z"/>
	<path class="st2" d="M210.2,192.8c-0.9,12.3-2.2,25.4-3.3,35.1c-2.7-1.5-5.3-3-8.1-4.5c2.7-9.4,5.9-24.3,6.4-42.7
		c0.8-31.1-5.1-46.9-5.4-47.8c0.5,0.7,7.4,11,10.7,25.9C211.8,164.7,211.3,178.2,210.2,192.8z"/>
	<path class="st2" d="M199.7,132.8c0.2-0.3,7.6-11.2-3.9-30.3c-11.7-19.4-29-12.2-29-12.2s-16.5-12.2-37.2,8.9
		c-1.3-1.4-2.8-2.5-4.7-3.1c0.2-0.2,0.7-0.6,1.3-1.1c5.8-4.7,27-20.2,39.4-9.9c0,0,19.8-7,32.3,13.8c0.6,1,1.2,2.2,1.8,3.3
		c0.2,0.5,0.5,0.9,0.7,1.4c0.4,0.9,0.8,1.9,1.2,2.7c2.4,5.6,3.4,10.1,3.5,13.7C205.6,130,199.9,132.8,199.7,132.8z"/>
	<path class="st2" d="M104,204c-4.4-11.9-7.6-23-9.8-32.9l0,0c-0.6-2.7-1.2-5.4-1.6-8v0l0,0c-0.2-1.1-0.4-2.1-0.6-3.2
		c-3.7-22.6-2-37.8,1.4-43.2c0.1-0.1,0.2-0.3,0.3-0.4c0.1-0.1,0.2-0.2,0.3-0.4c0.1-0.1,0.2-0.2,0.2-0.3c0.1-0.1,0.2-0.2,0.3-0.4
		c0.1-0.2,0.3-0.3,0.4-0.4c0.1-0.1,0.3-0.2,0.4-0.4c1.7-1.2,3.5-1.6,5.3-1.4c0.2,0,0.3,0,0.5,0c0.3,0,0.7,0.1,1,0.2
		c0.2,0,0.4,0.1,0.5,0.1c0.7,0.2,1.4,0.4,2.1,0.7c0.3,0.1,0.7,0.3,1,0.4c2.1,1.1,4,2.5,5.1,3.5c0.2,0.1,0.3,0.3,0.4,0.4
		c0.2,0.2,0.3,0.3,0.4,0.4c0.1,0.1,0.1,0.1,0.1,0.1c0.1,0.1,0.2,0.2,0.3,0.3c-0.4-0.5-0.7-1.1-0.8-1.5c-0.1-0.1-0.1-0.3-0.2-0.4
		c0-0.1,0-0.1-0.1-0.2c0-0.1-0.1-0.2-0.1-0.3c-0.2-1.5-0.7-4.4-0.6-7.6c-4-2.9-18.6-11.5-28.4,8.9c-8.2,17.2,7,65.3,15.5,87.3
		c2-0.6,4-1.1,6.1-1.5L104,204z"/>
	<path class="st3" d="M124.9,96.2c-0.1,0.1-0.2,0.2-0.2,0.2"/>
	<path class="st0" d="M190.7,133.8c-0.1,0.6-3.4,19.5-11.4,19.2c-2.1-8.1-7.7-13.9-14.4-13.9c-6.7,0-12.5,6-14.5,14.3
		c-10.2-2.5-7.3-18.4-7.3-18.4c1.9,3.4,5.3,5.6,9.2,5.6c6,0,10.9-5.4,10.9-12c5-2.1,5.9,1.9,5.9,1.9c0,6.6,4.9,12,10.9,12
		C185.2,142.5,189.4,138.8,190.7,133.8z"/>
	<path class="st4" d="M180.2,159.1c-14.3,31.6-30.3-1.9-30.3-1.9c0-0.4,0.1-0.9,0.2-1.3c2.9,4.6,16,22.7,30.2,2.7
		C180.2,158.8,180.2,158.9,180.2,159.1z"/>
	<path class="st0" d="M180.2,158.6L180.2,158.6c-14.2,20-27.2,1.9-30.2-2.7c0,0,0,0,0,0c0-0.2,0-0.3,0.1-0.5c0-0.1,0-0.1,0-0.2
		c0-0.1,0-0.3,0.1-0.4c0-0.2,0.1-0.4,0.1-0.7c0,0,0-0.1,0-0.1c0.1-0.2,0.1-0.5,0.2-0.7c2-8.3,7.7-14.3,14.5-14.3
		c6.6,0,12.3,5.8,14.4,13.9c0.3,1.1,0.5,2.2,0.6,3.4c0,0.3,0.1,0.5,0.1,0.8c0,0,0,0.1,0,0.1c0,0.2,0,0.5,0.1,0.7
		C180.2,158.2,180.2,158.4,180.2,158.6z"/>
	<path class="st0" d="M180.2,159.9c0,11.5-6.8,20.8-15.2,20.8s-15.2-9.3-15.2-20.8c0-0.9,0-1.8,0.1-2.7c0,0,16,33.6,30.3,1.9
		C180.2,159.4,180.2,159.6,180.2,159.9z"/>
	<path class="st4" d="M161.3,145.5c0,0-0.2,0.3-0.4,0.8c-0.1,0.3-0.2,0.6-0.3,0.9c0,0.4-0.1,0.8,0.1,1.2c0.1,0.4,0.4,0.7,0.8,1
		c0.4,0.3,0.9,0.5,1.4,0.7c0.5,0.2,1.1,0.3,1.7,0.4c0.3,0.1,0.6,0.1,0.9,0.1c0.3,0,0.6,0.1,0.9,0.1c0.7,0,1.2,0.1,1.8,0
		c0.6,0,1.2-0.1,1.6-0.3c0.5-0.2,0.8-0.4,0.9-0.8c0.1-0.4,0-0.9-0.1-1.3c-0.3-0.9-0.7-1.6-1-2c-0.3-0.5-0.5-0.7-0.5-0.7
		s0.3,0.2,0.7,0.6c0.2,0.2,0.5,0.5,0.7,0.8c0.3,0.3,0.5,0.7,0.8,1.2c0.2,0.5,0.5,1,0.4,1.8c-0.1,0.3-0.2,0.7-0.5,1
		c-0.2,0.3-0.6,0.5-0.9,0.7c-0.6,0.3-1.3,0.4-2,0.5c-0.7,0.1-1.4,0-2,0c-0.4,0-0.7-0.1-1-0.1c-0.3-0.1-0.7-0.1-1-0.1
		c-0.7-0.1-1.3-0.3-1.9-0.5c-0.6-0.2-1.2-0.6-1.6-1c-0.2-0.2-0.4-0.5-0.6-0.7c-0.1-0.3-0.2-0.6-0.3-0.8c-0.1-0.6,0-1.1,0.2-1.4
		c0.1-0.4,0.3-0.7,0.5-0.9C161.1,145.7,161.3,145.5,161.3,145.5z"/>
	<line class="st3" x1="179.4" y1="153" x2="179.3" y2="153"/>
	<path class="st0" d="M207.8,109.3c-1.5,7.6,0.2,9.4-2.6,10.9c-0.2-3.9-1.3-8.8-4.2-15.2C201,105,209.3,101.7,207.8,109.3z"/>
	<path class="st5" d="M205.1,120.2c2.9-1.5,1.1-3.3,2.6-10.9c1.5-7.6-6.8-4.3-6.8-4.3c-0.2-0.4-0.4-0.8-0.6-1.3c0,0,6.6-3.3,8.6,1
		S209.7,123.9,205.1,120.2z"/>
	<path class="st6" d="M199.7,132.8C199.7,132.8,199.7,132.8,199.7,132.8"/>
	<path class="st6" d="M129.6,99.2c-3,3.1-6.1,6.8-9.2,11.4c-0.8,1.2-1.7,2.6-2.5,3.9l-5.5,4.8c0,0,0,0,0,0"/>
	<path class="st6" d="M150.5,153.3c-1.1-0.3-2.3-0.9-3.4-1.6"/>
	<g>
		<path class="st7" d="M164.1,195.1l-22.8-29.4c0,0,0,0,0,0h0l0,0v0l-4.2-5.4l-1.8-2.3l-14.2-18.4L92,159.9l-0.5,0.3l-0.9,0.6v0
			l1.2,1.5v0l0.7,0.8l0,0v0l13,15.4l0.1,0.1l0.1,0.1v0h0c0,0,0,0,0,0l4.8,5.6c0,0,0,0,0,0c0,0,0,0,0,0l0.5,0.6l0.1,0.1c0,0,0,0,0,0
			l0.6,0.7c0,0,0,0,0,0l0,0h0l0.4,0.4c0,0,0,0,0,0l0.4,0.4l10,11.9l0,0v0l0.4,0.5l0,0l0.4,0.4v0h0c0,0,0,0,0,0l0.1,0.1
			c0.2,0.3,0.8,1,1.5,2c0.7,0.9,1.6,2.1,2.6,3.3c3.2,4,7.2,8.9,7.9,9c0.4,0.1,4.1-2.3,8.7-5.3c1.9-1.3,4-2.7,6.1-4.2
			c5.9-4.1,11.7-8.1,13.3-9.3L164.1,195.1L164.1,195.1C164.1,195.1,164.2,195.1,164.1,195.1C164.2,195.1,164.2,195.1,164.1,195.1
			L164.1,195.1z M106.2,172.2L106.2,172.2l-4.4-6.1l-2.3-3.2l-0.6-0.8l22.1-17.2l5,6.5l2.6,3.4h0l-0.6,0.5L106.2,172.2z"/>
		<path class="st8" d="M164.4,199.1c-0.1,0.4-4.2,3.3-9.4,6.6c-2.2,1.5-4.6,3-7,4.5c-6,3.9-11.6,7.3-12.3,7.3
			c-0.3,0-2.8-2.5-6.4-6.4c-0.1-0.1-0.1-0.1-0.2-0.2c-0.1-0.1-0.1-0.1-0.2-0.2c-1.5-1.6-3.2-3.5-5-5.5c-0.9-1.1-1.9-2.2-2.9-3.3
			c-5.7-6.4-12.1-13.7-17.6-20c0,0,0,0,0,0c0,0,0,0,0,0c-3.7-4.3-7-8.1-9.2-10.8c-0.2-0.3-0.5-0.6-0.7-0.9c-1.4-1.7-2.3-2.8-2.4-3.1
			c-0.9-1.8-0.4-6.3-0.4-6.3l1.2,1.5l0.7,0.8l13,15.4l0.1,0.1l0.1,0.1l0,0l4.8,5.7c0,0,0,0,0,0c0,0,0,0,0,0l0.5,0.6l0.1,0.1
			c0,0,0,0,0,0l0.6,0.7c0,0,0,0,0,0l0,0h0l0.4,0.4l0.4,0.4l10,11.9l0,0l0.4,0.5l0,0l0.4,0.4l0,0l0.1,0.1l1.7,2l2.8,3.3l7.6,9
			l8.2-5.5l6.1-4.1l14.1-9.4l0.1,0l0,0h0c0,0,0,0,0,0C164.2,195.3,164.6,198.2,164.4,199.1z"/>
	</g>
	<polygon class="st8" points="121.1,144.9 128.7,154.8 128.1,155.2 121.1,146.2 99.6,162.9 99,162.1 	"/>
	<polygon class="st9" points="121.1,146.2 128.1,155.2 106.2,172.2 99.6,162.9 	"/>
	<path class="st10" d="M117.2,150.9c0,0,0-0.1,0.1-0.2c0-0.1,0-0.2,0.1-0.2c0,0,0-0.1,0-0.1c0,0,0.1-0.1,0.1-0.1
		c0.3-0.3,0.7-0.6,1.1-0.9c0.4-0.3,0.8-0.7,1.1-0.9c0,0,0.1-0.1,0.1-0.1c0.1,0,0.1,0,0.2,0c0.1,0,0.2,0,0.3,0c0.1,0,0.2,0,0.2,0
		s0,0.1-0.1,0.2c0,0.1,0,0.2-0.1,0.2c0,0,0,0.1,0,0.1c0,0.1-0.1,0.1-0.1,0.1c-0.3,0.3-0.7,0.6-1.1,0.9c-0.4,0.3-0.8,0.7-1.1,0.9
		c0,0-0.1,0.1-0.1,0.1c-0.1,0-0.1,0-0.2,0c-0.1,0-0.2,0-0.3,0C117.3,150.9,117.2,150.9,117.2,150.9z"/>
	<path class="st10" d="M119.9,154.7c0,0,0-0.1,0.1-0.2c0-0.1,0-0.2,0.1-0.2c0,0,0-0.1,0-0.1c0,0,0.1-0.1,0.1-0.1
		c0.3-0.3,0.7-0.6,1.1-0.9c0.4-0.3,0.8-0.7,1.1-0.9c0,0,0.1-0.1,0.1-0.1c0.1,0,0.1,0,0.2,0c0.1,0,0.2,0,0.3,0c0.1,0,0.2,0,0.2,0
		s0,0.1-0.1,0.2c0,0.1,0,0.2-0.1,0.2c0,0,0,0.1,0,0.1c0,0.1-0.1,0.1-0.1,0.1c-0.3,0.3-0.7,0.6-1.1,0.9c-0.4,0.3-0.8,0.7-1.1,0.9
		c0,0-0.1,0.1-0.1,0.1c-0.1,0-0.1,0-0.2,0c-0.1,0-0.2,0-0.3,0C120,154.7,119.9,154.7,119.9,154.7z"/>
	<path class="st10" d="M106,166.1c0,0,0-0.1,0.1-0.2c0-0.1,0-0.2,0.1-0.2c0,0,0-0.1,0-0.1c0,0,0.1-0.1,0.1-0.1
		c0.3-0.3,0.7-0.6,1.1-0.9c0.4-0.3,0.8-0.7,1.1-0.9c0,0,0.1-0.1,0.1-0.1c0.1,0,0.1,0,0.2,0c0.1,0,0.2,0,0.3,0c0.1,0,0.2,0,0.2,0
		s0,0.1-0.1,0.2c0,0.1,0,0.2-0.1,0.2c0,0,0,0.1,0,0.1c0,0.1-0.1,0.1-0.1,0.1c-0.3,0.3-0.7,0.6-1.1,0.9c-0.4,0.3-0.8,0.7-1.1,0.9
		c0,0-0.1,0.1-0.1,0.1c-0.1,0-0.1,0-0.2,0c-0.1,0-0.2,0-0.3,0C106.1,166.1,106,166.1,106,166.1z"/>
	<path class="st10" d="M122.3,158c0,0,0-0.1,0.1-0.2c0-0.1,0-0.2,0.1-0.2c0,0,0-0.1,0-0.1c0,0,0.1-0.1,0.1-0.1
		c0.3-0.3,0.7-0.6,1.1-0.9c0.4-0.3,0.8-0.7,1.1-0.9c0,0,0.1-0.1,0.1-0.1c0.1,0,0.1,0,0.2,0c0.1,0,0.2,0,0.3,0c0.1,0,0.2,0,0.2,0
		s0,0.1-0.1,0.2c0,0.1,0,0.2-0.1,0.2c0,0,0,0.1,0,0.1c0,0.1-0.1,0.1-0.1,0.1c-0.3,0.3-0.7,0.6-1.1,0.9c-0.4,0.3-0.8,0.7-1.1,0.9
		c0,0-0.1,0.1-0.1,0.1c-0.1,0-0.1,0-0.2,0c-0.1,0-0.2,0-0.3,0C122.4,158,122.3,158,122.3,158z"/>
	<path class="st10" d="M120.9,148.6c0,0,0.1,0,0.2,0c0.1,0,0.1,0,0.2,0.1c0,0,0.1,0,0.1,0c0,0,0,0.1,0.1,0.1
		c0.2,0.3,0.5,0.7,0.8,1.1c0.3,0.4,0.6,0.8,0.8,1.1c0,0,0.1,0.1,0.1,0.1c0,0.1,0,0.1,0,0.1c0,0.1,0,0.2,0,0.2c0,0.1,0,0.2,0,0.2
		s-0.1,0-0.2,0c-0.1,0-0.1,0-0.2-0.1c0,0-0.1,0-0.1,0c-0.1,0,0-0.1-0.1-0.1c-0.2-0.3-0.5-0.7-0.8-1.1c-0.3-0.4-0.6-0.8-0.8-1.1
		c0,0-0.1-0.1-0.1-0.1c0-0.1,0-0.1,0-0.1c0-0.1,0-0.2,0-0.2C120.9,148.7,120.9,148.6,120.9,148.6z"/>
	<path class="st10" d="M101.6,163.5c0,0,0.1,0,0.2,0c0.1,0,0.1,0,0.2,0.1c0,0,0.1,0,0.1,0c0,0,0,0.1,0.1,0.1
		c0.2,0.3,0.5,0.7,0.8,1.1c0.3,0.4,0.6,0.8,0.8,1.1c0,0,0.1,0.1,0.1,0.1c0,0.1,0,0.1,0,0.1c0,0.1,0,0.2,0,0.2c0,0.1,0,0.2,0,0.2
		s-0.1,0-0.2,0c-0.1,0-0.1,0-0.2-0.1c0,0-0.1,0-0.1,0c-0.1,0,0-0.1-0.1-0.1c-0.2-0.3-0.5-0.7-0.8-1.1c-0.3-0.4-0.6-0.8-0.8-1.1
		c0,0-0.1-0.1-0.1-0.1c0-0.1,0-0.1,0-0.1c0-0.1,0-0.2,0-0.2C101.6,163.6,101.6,163.5,101.6,163.5z"/>
	<path class="st10" d="M104.3,167c0,0,0.1,0,0.2,0c0.1,0,0.1,0,0.2,0.1c0,0,0.1,0,0.1,0c0,0,0,0.1,0.1,0.1c0.2,0.3,0.5,0.7,0.8,1.1
		c0.3,0.4,0.6,0.8,0.8,1.1c0,0,0.1,0.1,0.1,0.1c0,0.1,0,0.1,0,0.1c0,0.1,0,0.2,0,0.2c0,0.1,0,0.2,0,0.2s-0.1,0-0.2,0
		c-0.1,0-0.1,0-0.2-0.1c0,0-0.1,0-0.1,0c-0.1,0,0-0.1-0.1-0.1c-0.2-0.3-0.5-0.7-0.8-1.1c-0.3-0.4-0.6-0.8-0.8-1.1
		c0,0-0.1-0.1-0.1-0.1c0-0.1,0-0.1,0-0.1c0-0.1,0-0.2,0-0.2C104.3,167.1,104.3,167,104.3,167z"/>
	<path class="st10" d="M106.5,163.3c0,0,0.1,0,0.2,0c0.1,0,0.1,0,0.2,0.1c0,0,0.1,0,0.1,0c0,0,0,0.1,0.1,0.1
		c0.2,0.3,0.5,0.7,0.8,1.1c0.3,0.4,0.6,0.8,0.8,1.1c0,0,0.1,0.1,0.1,0.1c0,0.1,0,0.1,0,0.1c0,0.1,0,0.2,0,0.2c0,0.1,0,0.2,0,0.2
		s-0.1,0-0.2,0c-0.1,0-0.1,0-0.2-0.1c0,0-0.1,0-0.1,0c-0.1,0,0-0.1-0.1-0.1c-0.2-0.3-0.5-0.7-0.8-1.1c-0.3-0.4-0.6-0.8-0.8-1.1
		c0,0-0.1-0.1-0.1-0.1c0-0.1,0-0.1,0-0.1c0-0.1,0-0.2,0-0.2C106.5,163.4,106.5,163.3,106.5,163.3z"/>
	<path class="st10" d="M123.5,152.1c0,0,0.1,0,0.2,0c0.1,0,0.1,0,0.2,0.1c0,0,0.1,0,0.1,0c0,0,0,0.1,0.1,0.1
		c0.2,0.3,0.5,0.7,0.8,1.1c0.3,0.4,0.6,0.8,0.8,1.1c0,0,0.1,0.1,0.1,0.1c0,0.1,0,0.1,0,0.1c0,0.1,0,0.2,0,0.2c0,0.1,0,0.2,0,0.2
		s-0.1,0-0.2,0c-0.1,0-0.1,0-0.2-0.1c0,0-0.1,0-0.1,0c-0.1,0,0-0.1-0.1-0.1c-0.2-0.3-0.5-0.7-0.8-1.1c-0.3-0.4-0.6-0.8-0.8-1.1
		c0,0-0.1-0.1-0.1-0.1c0-0.1,0-0.1,0-0.1c0-0.1,0-0.2,0-0.2C123.5,152.1,123.5,152.1,123.5,152.1z"/>
	<path class="st10" d="M107.9,157.9c0,0,0-0.1,0.1-0.2c0-0.1,0-0.2,0.1-0.2c0,0,0-0.1,0-0.1c0,0,0.1-0.1,0.1-0.1
		c0.3-0.3,0.7-0.6,1.1-0.9c0.4-0.3,0.8-0.7,1.1-0.9c0,0,0.1-0.1,0.1-0.1c0.1,0,0.1,0,0.2,0c0.1,0,0.2,0,0.3,0c0.1,0,0.2,0,0.2,0
		s0,0.1-0.1,0.2c0,0.1,0,0.2-0.1,0.2c0,0,0,0.1,0,0.1c0,0.1-0.1,0.1-0.1,0.1c-0.3,0.3-0.7,0.6-1.1,0.9c-0.4,0.3-0.8,0.7-1.1,0.9
		c0,0-0.1,0.1-0.1,0.1c-0.1,0-0.1,0-0.2,0c-0.1,0-0.2,0-0.3,0C108,157.9,107.9,157.9,107.9,157.9z"/>
	<path class="st10" d="M110.5,161.7c0,0,0-0.1,0.1-0.2c0-0.1,0-0.2,0.1-0.2c0,0,0-0.1,0-0.1c0,0,0.1-0.1,0.1-0.1
		c0.3-0.3,0.7-0.6,1.1-0.9c0.4-0.3,0.8-0.7,1.1-0.9c0,0,0.1-0.1,0.1-0.1c0.1,0,0.1,0,0.2,0c0.1,0,0.2,0,0.3,0c0.1,0,0.2,0,0.2,0
		s0,0.1-0.1,0.2c0,0.1,0,0.2-0.1,0.2c0,0,0,0.1,0,0.1c0,0.1-0.1,0.1-0.1,0.1c-0.3,0.3-0.7,0.6-1.1,0.9c-0.4,0.3-0.8,0.7-1.1,0.9
		c0,0-0.1,0.1-0.1,0.1c-0.1,0-0.1,0-0.2,0c-0.1,0-0.2,0-0.3,0C110.6,161.7,110.5,161.7,110.5,161.7z"/>
	<path class="st10" d="M112.9,165c0,0,0-0.1,0.1-0.2c0-0.1,0-0.2,0.1-0.2c0,0,0-0.1,0-0.1c0,0,0.1-0.1,0.1-0.1
		c0.3-0.3,0.7-0.6,1.1-0.9c0.4-0.3,0.8-0.7,1.1-0.9c0,0,0.1-0.1,0.1-0.1c0.1,0,0.1,0,0.2,0c0.1,0,0.2,0,0.3,0c0.1,0,0.2,0,0.2,0
		s0,0.1-0.1,0.2c0,0.1,0,0.2-0.1,0.2c0,0,0,0.1,0,0.1c0,0.1-0.1,0.1-0.1,0.1c-0.3,0.3-0.7,0.6-1.1,0.9c-0.4,0.3-0.8,0.7-1.1,0.9
		c0,0-0.1,0.1-0.1,0.1c-0.1,0-0.1,0-0.2,0c-0.1,0-0.2,0-0.3,0C113,165,112.9,165,112.9,165z"/>
	<path class="st10" d="M115.3,157.9c0,0,0-0.1,0.1-0.2c0-0.1,0-0.2,0.1-0.2c0,0,0-0.1,0-0.1c0,0,0.1-0.1,0.1-0.1
		c0.3-0.3,0.7-0.6,1.1-0.9c0.4-0.3,0.8-0.7,1.1-0.9c0,0,0.1-0.1,0.1-0.1c0.1,0,0.1,0,0.2,0c0.1,0,0.2,0,0.3,0c0.1,0,0.2,0,0.2,0
		s0,0.1-0.1,0.2c0,0.1,0,0.2-0.1,0.2c0,0,0,0.1,0,0.1c0,0.1-0.1,0.1-0.1,0.1c-0.3,0.3-0.7,0.6-1.1,0.9c-0.4,0.3-0.8,0.7-1.1,0.9
		c0,0-0.1,0.1-0.1,0.1c-0.1,0-0.1,0-0.2,0c-0.1,0-0.2,0-0.3,0C115.4,157.9,115.3,157.9,115.3,157.9z"/>
	<path class="st10" d="M116.4,159.3c0,0,0-0.1,0.1-0.2c0-0.1,0-0.2,0.1-0.2c0,0,0-0.1,0-0.1c0,0,0.1-0.1,0.1-0.1
		c0.3-0.3,0.7-0.6,1.1-0.9c0.4-0.3,0.8-0.7,1.1-0.9c0,0,0.1-0.1,0.1-0.1c0.1,0,0.1,0,0.2,0c0.1,0,0.2,0,0.3,0c0.1,0,0.2,0,0.2,0
		s0,0.1-0.1,0.2c0,0.1,0,0.2-0.1,0.2c0,0,0,0.1,0,0.1c0,0.1-0.1,0.1-0.1,0.1c-0.3,0.3-0.7,0.6-1.1,0.9c-0.4,0.3-0.8,0.7-1.1,0.9
		c0,0-0.1,0.1-0.1,0.1c-0.1,0-0.1,0-0.2,0c-0.1,0-0.2,0-0.3,0C116.5,159.3,116.4,159.3,116.4,159.3z"/>
	<path class="st10" d="M111.5,155.7c0,0,0.1,0,0.2,0c0.1,0,0.1,0,0.2,0.1c0,0,0.1,0,0.1,0c0,0,0,0.1,0.1,0.1
		c0.2,0.3,0.5,0.7,0.8,1.1c0.3,0.4,0.6,0.8,0.8,1.1c0,0,0.1,0.1,0.1,0.1c0,0.1,0,0.1,0,0.1c0,0.1,0,0.2,0,0.2c0,0.1,0,0.2,0,0.2
		s-0.1,0-0.2,0c-0.1,0-0.1,0-0.2-0.1c0,0-0.1,0-0.1,0c-0.1,0,0-0.1-0.1-0.1c-0.2-0.3-0.5-0.7-0.8-1.1c-0.3-0.4-0.6-0.8-0.8-1.1
		c0,0-0.1-0.1-0.1-0.1c0-0.1,0-0.1,0-0.1c0-0.1,0-0.2,0-0.2C111.5,155.7,111.5,155.7,111.5,155.7z"/>
	<path class="st10" d="M110.3,162.1c0,0,0.1,0,0.2,0c0.1,0,0.1,0,0.2,0.1c0,0,0.1,0,0.1,0c0,0,0,0.1,0.1,0.1
		c0.2,0.3,0.5,0.7,0.8,1.1c0.3,0.4,0.6,0.8,0.8,1.1c0,0,0.1,0.1,0.1,0.1c0,0.1,0,0.1,0,0.1c0,0.1,0,0.2,0,0.2c0,0.1,0,0.2,0,0.2
		s-0.1,0-0.2,0c-0.1,0-0.1,0-0.2-0.1c0,0-0.1,0-0.1,0c-0.1,0,0-0.1-0.1-0.1c-0.2-0.3-0.5-0.7-0.8-1.1c-0.3-0.4-0.6-0.8-0.8-1.1
		c0,0-0.1-0.1-0.1-0.1c0-0.1,0-0.1,0-0.1c0-0.1,0-0.2,0-0.2C110.3,162.2,110.3,162.1,110.3,162.1z"/>
	<path class="st9" d="M118.3,181.8l-1.6,1.2c-0.7,0.5-1.7,0.4-2.3-0.3l-0.9-1.1c-0.5-0.7-0.4-1.7,0.3-2.3l1.6-1.2
		c0.7-0.5,1.7-0.4,2.3,0.3l0.9,1.1C119.1,180.3,119,181.3,118.3,181.8z"/>
	<path class="st9" d="M124.5,177l-1.6,1.2c-0.7,0.5-1.7,0.4-2.3-0.3l-0.9-1.1c-0.5-0.7-0.4-1.7,0.3-2.3l1.6-1.2
		c0.7-0.5,1.7-0.4,2.3,0.3l0.9,1.1C125.4,175.4,125.2,176.4,124.5,177z"/>
	<path class="st9" d="M131.4,171.7l-1.6,1.2c-0.7,0.5-1.7,0.4-2.3-0.3l-0.9-1.1c-0.5-0.7-0.4-1.7,0.3-2.3l1.6-1.2
		c0.7-0.5,1.7-0.4,2.3,0.3l0.9,1.1C132.2,170.1,132.1,171.1,131.4,171.7z"/>
	<path class="st9" d="M137.1,167.2l-1.6,1.2c-0.7,0.5-1.7,0.4-2.3-0.3l-0.9-1.1c-0.5-0.7-0.4-1.7,0.3-2.3l1.6-1.2
		c0.7-0.5,1.7-0.4,2.3,0.3l0.9,1.1C138,165.6,137.8,166.6,137.1,167.2z"/>
	<path class="st9" d="M142,173.4l-1.6,1.2c-0.7,0.5-1.7,0.4-2.3-0.3l-0.9-1.1c-0.5-0.7-0.4-1.7,0.3-2.3l1.6-1.2
		c0.7-0.5,1.7-0.4,2.3,0.3l0.9,1.1C142.8,171.8,142.7,172.8,142,173.4z"/>
	<path class="st9" d="M136.2,177.9l-1.6,1.2c-0.7,0.5-1.7,0.4-2.3-0.3l-0.9-1.1c-0.5-0.7-0.4-1.7,0.3-2.3l1.6-1.2
		c0.7-0.5,1.7-0.4,2.3,0.3l0.9,1.1C137,176.3,136.9,177.3,136.2,177.9z"/>
	<path class="st9" d="M129.4,183.2l-1.6,1.2c-0.7,0.5-1.7,0.4-2.3-0.3l-0.9-1.1c-0.5-0.7-0.4-1.7,0.3-2.3l1.6-1.2
		c0.7-0.5,1.7-0.4,2.3,0.3l0.9,1.1C130.2,181.6,130.1,182.6,129.4,183.2z"/>
	<path class="st9" d="M123.4,188.4l-1.6,1.2c-0.7,0.5-1.7,0.4-2.3-0.3l-0.9-1.1c-0.5-0.7-0.4-1.7,0.3-2.3l1.6-1.2
		c0.7-0.5,1.7-0.4,2.3,0.3l0.9,1.1C124.3,186.9,124.1,187.9,123.4,188.4z"/>
	<path class="st9" d="M128.7,195.3l-1.6,1.2c-0.7,0.5-1.7,0.4-2.3-0.3l-0.9-1.1c-0.5-0.7-0.4-1.7,0.3-2.3l1.6-1.2
		c0.7-0.5,1.7-0.4,2.3,0.3l0.9,1.1C129.6,193.7,129.4,194.7,128.7,195.3z"/>
	<path class="st9" d="M135.3,190.8l-1.6,1.2c-0.7,0.5-1.7,0.4-2.3-0.3l-0.9-1.1c-0.5-0.7-0.4-1.7,0.3-2.3l1.6-1.2
		c0.7-0.5,1.7-0.4,2.3,0.3l0.9,1.1C136.1,189.3,136,190.3,135.3,190.8z"/>
	<path class="st9" d="M141.8,185.1l-1.6,1.2c-0.7,0.5-1.7,0.4-2.3-0.3l-0.9-1.1c-0.5-0.7-0.4-1.7,0.3-2.3l1.6-1.2
		c0.7-0.5,1.7-0.4,2.3,0.3l0.9,1.1C142.7,183.5,142.5,184.6,141.8,185.1z"/>
	<path class="st9" d="M152.4,187.1l-1.3,1c-0.8,0.6-1.9,0.5-2.6-0.3l-5.5-7.1c-0.6-0.8-0.5-1.9,0.3-2.6l1.3-1
		c0.8-0.6,1.9-0.5,2.6,0.3l5.5,7.1C153.3,185.3,153.1,186.5,152.4,187.1z"/>
	<path class="st9" d="M146.8,191.4l-1.6,1.2c-0.7,0.5-1.7,0.4-2.3-0.3l-0.9-1.1c-0.5-0.7-0.4-1.7,0.3-2.3l1.6-1.2
		c0.7-0.5,1.7-0.4,2.3,0.3l0.9,1.1C147.6,189.9,147.5,190.9,146.8,191.4z"/>
	<path class="st9" d="M139.4,196.6l-1.6,1.2c-0.7,0.5-1.7,0.4-2.3-0.3l-0.9-1.1c-0.5-0.7-0.4-1.7,0.3-2.3l1.6-1.2
		c0.7-0.5,1.7-0.4,2.3,0.3l0.9,1.1C140.3,195.1,140.1,196.1,139.4,196.6z"/>
	<path class="st9" d="M133.8,201l-1.6,1.2c-0.7,0.5-1.7,0.4-2.3-0.3l-0.9-1.1c-0.5-0.7-0.4-1.7,0.3-2.3l1.6-1.2
		c0.7-0.5,1.7-0.4,2.3,0.3l0.9,1.1C134.6,199.4,134.5,200.5,133.8,201z"/>
	<g>
		<path class="st0" d="M103.7,181.3c0.4-1.2,1.1-2.1,2.2-2.7c4.8-2.4,5.6,8.7,5.6,8.7s4.6-7.3,6.8,3.8c0,0,6.1-6,4.8,8.6
			c0,0-1.3,1.9,5.1,9L103.7,181.3z"/>
		<path class="st11" d="M103.7,181.3c0.2-0.6,0.4-1.2,0.9-1.8c0.2-0.3,0.4-0.5,0.7-0.7c0.3-0.2,0.6-0.4,0.9-0.5
			c0.3-0.1,0.7-0.2,1-0.3c0.4,0,0.7,0,1.1,0.2c0.3,0.1,0.6,0.4,0.9,0.6c0.3,0.2,0.5,0.5,0.7,0.8c0.8,1.2,1.2,2.4,1.5,3.7
			c0.2,0.6,0.3,1.3,0.4,2c0.1,0.7,0.2,1.3,0.3,2l-1-0.2c0.2-0.2,0.3-0.4,0.5-0.6c0.2-0.2,0.3-0.4,0.5-0.6c0.4-0.4,0.8-0.7,1.3-1
			c0.3-0.1,0.5-0.3,0.8-0.3c0.3-0.1,0.6-0.1,1,0c0.3,0.1,0.6,0.2,0.9,0.4c0.3,0.2,0.5,0.4,0.7,0.6c0.2,0.2,0.4,0.4,0.5,0.7
			c0.1,0.2,0.3,0.5,0.4,0.7c0.1,0.2,0.2,0.5,0.3,0.7c0.1,0.2,0.2,0.5,0.3,0.7c0.1,0.2,0.2,0.5,0.2,0.7c0.1,0.2,0.1,0.5,0.2,0.7
			c0.1,0.5,0.2,1,0.3,1.5l-1-0.3c0.3-0.2,0.5-0.4,0.8-0.6c0.3-0.2,0.5-0.3,0.8-0.5c0.3-0.1,0.6-0.2,1-0.3c0.4,0,0.8,0,1.1,0.1
			c0.4,0.2,0.7,0.4,0.9,0.7c0.2,0.3,0.4,0.6,0.5,0.9c0.1,0.3,0.2,0.6,0.3,0.9c0.1,0.3,0.1,0.6,0.2,0.9c0,0.3,0.1,0.6,0.1,0.9
			c0,0.3,0.1,0.6,0.1,0.9c0,0.6,0,1.2,0,1.8c0,1.2-0.1,2.3-0.3,3.5l-0.1,0.2c0,0,0,0,0,0c0,0,0,0.1,0,0.1c0,0.1,0,0.2,0,0.3
			c0,0.2,0,0.4,0.1,0.6c0,0.2,0.1,0.4,0.2,0.6c0.1,0.2,0.1,0.4,0.2,0.6c0.1,0.2,0.2,0.4,0.3,0.6l0.3,0.6c0.2,0.4,0.4,0.8,0.7,1.1
			c0.2,0.4,0.5,0.7,0.7,1.1c0.2,0.4,0.5,0.7,0.8,1.1c0.5,0.7,1.1,1.4,1.6,2.1l-0.9-1c-0.3-0.3-0.6-0.7-0.9-1c-0.3-0.3-0.6-0.7-0.9-1
			c-0.3-0.3-0.6-0.7-0.8-1.1c-0.3-0.4-0.5-0.7-0.8-1.1l-0.3-0.6c-0.1-0.2-0.2-0.4-0.3-0.6c-0.1-0.2-0.2-0.4-0.3-0.6
			c-0.1-0.2-0.2-0.4-0.2-0.7c-0.1-0.2-0.1-0.5-0.1-0.7c0-0.1,0-0.3,0-0.4c0-0.1,0-0.1,0-0.2c0-0.1,0-0.1,0.1-0.3l-0.1,0.2
			c0.1-1.1,0.1-2.3,0.1-3.4c0-0.6,0-1.1-0.1-1.7c0-0.3-0.1-0.6-0.1-0.8c0-0.3-0.1-0.5-0.1-0.8c-0.1-0.3-0.1-0.5-0.2-0.8
			c-0.1-0.3-0.2-0.5-0.3-0.7c-0.1-0.2-0.2-0.4-0.4-0.6c-0.1-0.2-0.3-0.3-0.5-0.3c-0.3-0.1-0.8-0.1-1.2,0.1c-0.2,0.1-0.4,0.2-0.6,0.4
			c-0.2,0.1-0.4,0.3-0.6,0.5l-0.8,0.8l-0.2-1.1c-0.1-0.5-0.2-0.9-0.3-1.4c-0.1-0.2-0.1-0.5-0.2-0.7c-0.1-0.2-0.1-0.5-0.2-0.7
			c-0.1-0.2-0.1-0.4-0.2-0.7c-0.1-0.2-0.2-0.4-0.3-0.6c-0.1-0.2-0.2-0.4-0.3-0.6c-0.1-0.2-0.2-0.4-0.4-0.5c-0.1-0.2-0.3-0.3-0.4-0.4
			c-0.1-0.1-0.3-0.2-0.5-0.2c-0.2,0-0.3,0-0.5,0c-0.2,0-0.4,0.1-0.5,0.2c-0.4,0.2-0.7,0.5-1,0.8c-0.2,0.2-0.3,0.3-0.5,0.5
			c-0.1,0.2-0.3,0.4-0.4,0.5l-0.9,1.3l-0.1-1.6c0-0.6-0.1-1.3-0.2-1.9c-0.1-0.6-0.2-1.3-0.3-1.9c-0.1-0.6-0.3-1.2-0.5-1.8
			c-0.2-0.6-0.4-1.2-0.7-1.7c-0.2-0.3-0.3-0.5-0.5-0.7c-0.2-0.2-0.4-0.4-0.7-0.5c-0.3-0.1-0.5-0.2-0.8-0.2c-0.3,0-0.6,0-0.9,0.1
			c-0.3,0.1-0.6,0.2-0.8,0.4c-0.3,0.2-0.5,0.4-0.7,0.6C104.3,180.1,103.9,180.7,103.7,181.3z"/>
	</g>
	<g>
		<path class="st0" d="M128.1,208.8c6.4,7.1-12.4,16.3-23.8-17.6c0,0-1.9-6-0.6-9.9L128.1,208.8z"/>
		<path class="st11" d="M129.2,213.5c-0.5,1-1.5,1.8-2.8,2.2c-1.3,0.4-2.8,0.4-4.2,0c-1.5-0.4-2.9-1-4.3-1.9c-1.4-0.9-2.6-2-3.8-3.2
			c-0.3-0.3-0.6-0.6-0.9-0.9l-0.8-1c-0.5-0.6-1-1.3-1.5-2h0c0,0,0,0,0,0c-0.5-0.7-0.9-1.4-1.4-2.1c-0.3-0.5-0.5-0.9-0.8-1.3
			c-0.2-0.3-0.3-0.6-0.5-0.9c-0.4-0.7-0.7-1.5-1.1-2.2s-0.7-1.5-1-2.2c-0.3-0.7-0.6-1.5-0.9-2.2c-0.3-0.7-0.5-1.4-0.8-2.1
			c-0.2-0.7-0.4-1.3-0.7-2c-0.2-0.7-0.3-1.3-0.5-1.9c-0.5-2.5-0.5-4.6-0.4-6.1c0.1-0.7,0.2-1.3,0.4-1.6c0,0,0,0,0,0
			c0.1-0.2,0.1-0.3,0.2-0.4c0,0,0-0.1,0-0.1c0,0,0,0,0,0.1c0,0.1,0,0.2-0.1,0.4c0,0,0,0,0,0.1c-0.1,0.4-0.1,0.9-0.2,1.6
			c0,0.7,0,1.6,0.1,2.6c0.1,1,0.4,2.1,0.7,3.3c0.2,0.6,0.3,1.2,0.6,1.8c0.2,0.6,0.5,1.3,0.8,1.9c0.2,0.7,0.5,1.4,0.8,2
			c0.3,0.7,0.6,1.4,0.9,2.1c0.3,0.7,0.7,1.4,1,2.1c0.4,0.7,0.7,1.4,1.1,2.2c0.2,0.4,0.5,0.8,0.7,1.2c0.2,0.3,0.3,0.6,0.5,0.9
			c0.5,0.7,0.9,1.4,1.4,2.1c0.1,0.2,0.3,0.4,0.4,0.6c0.3,0.5,0.7,1,1,1.4l0.8,1c0.3,0.3,0.5,0.6,0.8,0.9c1.1,1.2,2.2,2.3,3.5,3.1
			c1.2,0.9,2.6,1.5,3.9,1.9s2.7,0.5,3.8,0.2c1.1-0.3,2.1-0.9,2.6-1.8c0.5-0.8,0.5-1.7,0.4-2.4c0,0,0-0.1,0-0.1
			c-0.1-0.3-0.2-0.6-0.3-0.8c-0.1-0.2-0.2-0.5-0.3-0.6c-0.2-0.2-0.3-0.4-0.3-0.5c0,0,0,0,0.1,0.1c0.1,0.1,0.2,0.2,0.3,0.3
			c0.1,0.1,0.3,0.3,0.4,0.6c0.2,0.2,0.3,0.6,0.4,0.9c0,0.1,0.1,0.2,0.1,0.4C129.6,211.8,129.6,212.6,129.2,213.5z"/>
	</g>
	<g>
		<path class="st0" d="M135.4,157.9c0,0,5.1-9.6,6,7.7L135.4,157.9z"/>
		<path class="st11" d="M135.4,157.9c0,0,0.1-0.2,0.2-0.6c0.2-0.4,0.5-1,1-1.6c0.3-0.3,0.6-0.6,1.1-0.8c0.2-0.1,0.5-0.2,0.9-0.1
			c0.3,0,0.6,0.2,0.9,0.3c0.5,0.4,0.8,0.8,1,1.3c0.2,0.5,0.4,1,0.6,1.4c0.3,1,0.4,2,0.5,2.9c0.1,0.5,0.1,0.9,0.1,1.3
			c0,0.4,0,0.8,0,1.2c0,0.7-0.1,1.3-0.1,1.8c0,0.4-0.1,0.7-0.1,0.7s-0.1-0.2-0.2-0.7c-0.1-0.4-0.2-1-0.4-1.7
			c-0.1-0.7-0.3-1.5-0.5-2.4c-0.1-0.4-0.2-0.9-0.3-1.3c-0.1-0.4-0.2-0.9-0.3-1.3c-0.1-0.4-0.3-0.9-0.4-1.3c-0.2-0.4-0.4-0.7-0.6-0.9
			c-0.2-0.2-0.4-0.3-0.8-0.2c-0.3,0.1-0.6,0.3-0.9,0.5c-0.5,0.4-1,0.9-1.2,1.2C135.5,157.7,135.4,157.9,135.4,157.9z"/>
	</g>
	<path class="st6" d="M199.5,101.4c0,0,0,0.2,0,0.5"/>
	<line class="st6" x1="161.8" y1="129.5" x2="161.8" y2="129.5"/>
	<path class="st12" d="M163.4,128.5c0,6.6-4.9,12-10.9,12c-3.9,0-7.3-2.2-9.2-5.6c-1.1-1.9-1.7-4.1-1.7-6.4c0-6.6,4.9-12,10.9-12
		C158.5,116.5,163.4,121.9,163.4,128.5z"/>
	<path class="st12" d="M191.2,130.5c0,1.1-0.1,2.2-0.4,3.3c0,0,0,0,0,0c-1.3,5-5.5,8.7-10.5,8.7c-6,0-10.9-5.4-10.9-12
		s4.9-12,10.9-12C186.3,118.5,191.2,123.8,191.2,130.5z"/>
	<g>
		<path class="st13" d="M201,105c-0.1-0.1-0.1-0.2-0.2-0.4c0,0,0,0,0,0c-0.1-0.1-0.1-0.3-0.2-0.4c0,0,0,0,0-0.1c0,0,0-0.1,0-0.1
			c0-0.1-0.1-0.2-0.1-0.3c-0.1-0.2-0.2-0.5-0.3-0.7c-0.1-0.2-0.2-0.5-0.3-0.7c-0.1-0.1-0.1-0.3-0.2-0.4c0,0.1,0,0.2,0,0.3
			c0,0.1,0,0.1,0,0.2c0,0.1,0,0.3,0,0.4c0,0.2,0,0.4,0,0.7c0,0.1,0,0.2,0,0.3c0,0.2,0,0.5,0,0.7c0,0.2,0,0.5-0.1,0.8
			c0,0.4-0.1,0.8-0.1,1.2c-0.1,0.6-0.1,1.2-0.2,1.9v0c0,0.5-0.1,1-0.2,1.5c0,0.1,0,0.3-0.1,0.4c0,0.2,0,0.3-0.1,0.5
			c-0.2,1.2-0.4,2.6-0.6,4c-0.1,0.4-0.2,0.9-0.3,1.3c0,0.1,0,0.1,0,0.2c-0.1,0.4-0.2,0.7-0.3,1c-0.1,0.4-0.2,0.7-0.3,1
			c0,0.1-0.1,0.2-0.1,0.3c-0.1,0.3-0.2,0.7-0.3,1c-0.2,0.4-0.3,0.9-0.5,1.3c-0.2,0.4-0.3,0.8-0.5,1.2c-0.8,1.8-1.6,3.3-2.2,4.4
			c-0.2,0.3-0.3,0.5-0.4,0.7c-0.1,0.2-0.3,0.4-0.4,0.6c-0.1,0.2-0.2,0.3-0.3,0.4c-0.1,0.1-0.2,0.2-0.2,0.3c-0.1,0.1-0.2,0.2-0.2,0.3
			c0,0,0,0.1-0.1,0.1c0,0,0,0,0-0.1c0,0,0-0.1,0-0.1c0,0,0-0.1,0-0.1c-0.1-0.6-0.4-1.9-1.1-3.4c-0.1-0.2-0.2-0.4-0.3-0.6
			c-0.1-0.1-0.1-0.3-0.2-0.4c-0.1-0.2-0.2-0.4-0.3-0.5c-0.1-0.2-0.2-0.4-0.3-0.6c-0.4-0.7-0.9-1.4-1.4-2c-0.1-0.1-0.2-0.2-0.3-0.3
			c-0.1-0.1-0.2-0.2-0.3-0.3c-0.3-0.3-0.6-0.6-1-0.8c-1.5-1.2-3.5-1.9-6-1.7c-0.3,0-0.6,0-0.8,0.1c-0.5,0.1-1,0.2-1.5,0.3
			c-0.2,0.1-0.5,0.1-0.7,0.2c-0.1,0-0.2,0.1-0.3,0.1c-0.3,0.1-0.6,0.2-0.8,0.3c-0.2,0.1-0.3,0.1-0.4,0.2c-0.6,0.3-1.1,0.6-1.6,1
			c-0.1,0.1-0.3,0.2-0.4,0.3c0,0,0,0,0,0.1c-0.1,0.1-0.3,0.2-0.4,0.3c-0.1,0.1-0.1,0.1-0.2,0.2c0,0,0,0,0,0c0,0,0,0,0,0
			c0,0,0,0-0.1,0.1c0,0,0,0,0,0c0,0-0.1,0.1-0.1,0.1c-0.1,0.1-0.3,0.3-0.4,0.4c-0.1,0.1-0.1,0.1-0.2,0.2c0,0,0,0,0,0c0,0,0,0,0,0
			c-0.1,0.1-0.1,0.1-0.2,0.2c0,0-0.1,0.1-0.1,0.1c0,0,0,0,0,0c0,0,0,0,0,0c0,0-0.1,0.1-0.1,0.1c0,0,0,0,0,0c0,0.1-0.1,0.1-0.1,0.2
			c-0.2,0.3-0.4,0.6-0.6,0.9c-0.1,0.2-0.2,0.3-0.3,0.5c-0.1,0.1-0.1,0.2-0.2,0.3c-0.1,0.1-0.2,0.3-0.2,0.4c-0.2,0.4-0.4,0.8-0.5,1.1
			c0,0.1-0.1,0.2-0.1,0.3c-0.2,0.4-0.3,0.8-0.3,1c0,0,0,0,0,0c0,0,0,0.1,0,0.1c0,0.1,0,0.1,0,0.2c0,0,0,0,0,0c0,0,0,0.1,0,0.1
			c0,0,0,0,0,0c0,0,0,0,0,0s0,0,0,0c0,0,0,0,0,0c0,0,0,0,0,0c-2.5-1-4.3-0.8-5.2-0.6c-0.3,0.1-0.5,0.1-0.5,0.1c0,0,0,0,0,0
			c0-0.1,0-0.2-0.1-0.4c0-0.2-0.1-0.5-0.2-0.8c-0.1-0.3-0.1-0.6-0.2-0.8c0-0.2-0.1-0.3-0.1-0.4c-0.1-0.4-0.3-0.9-0.5-1.3
			c0-0.1-0.1-0.3-0.2-0.5c0,0,0,0,0,0c-0.1-0.3-0.3-0.6-0.5-0.9c0,0,0,0,0,0c-0.2-0.3-0.3-0.6-0.5-0.9c-0.2-0.3-0.3-0.5-0.5-0.8
			c-0.1-0.2-0.3-0.4-0.4-0.5c-0.2-0.2-0.4-0.4-0.5-0.6c-0.2-0.2-0.4-0.4-0.6-0.6c-0.1-0.1-0.2-0.1-0.2-0.2c-0.1-0.1-0.2-0.2-0.3-0.3
			c-0.9-0.8-2-1.4-3.3-1.8c-0.1,0-0.2-0.1-0.3-0.1c0,0,0,0-0.1,0c-0.2-0.1-0.5-0.2-0.8-0.2c0,0,0,0-0.1,0c-0.1,0-0.2,0-0.3-0.1
			c-0.1,0-0.3,0-0.4-0.1c-0.2,0-0.5-0.1-0.8-0.1c-0.3,0-0.5,0-0.8,0c-0.2,0-0.5,0-0.7,0c-0.6,0-1.2,0.2-1.8,0.3
			c-0.2,0-0.4,0.1-0.6,0.2c-0.2,0.1-0.5,0.2-0.7,0.3c-0.3,0.1-0.5,0.2-0.8,0.4c-0.2,0.1-0.3,0.2-0.5,0.3c-0.9,0.6-1.8,1.2-2.5,2
			c-0.1,0.1-0.2,0.2-0.2,0.2c-0.2,0.2-0.4,0.4-0.5,0.6c-0.8,0.9-1.4,1.7-1.8,2.4c-0.1,0.2-0.2,0.3-0.3,0.5c-0.1,0.2-0.2,0.4-0.3,0.6
			c0,0.1-0.1,0.1-0.1,0.1c0,0,0,0,0,0c0,0,0,0,0,0c0,0,0-0.1-0.1-0.2c0,0,0-0.1-0.1-0.2c0,0,0-0.1,0-0.2c0-0.1-0.1-0.2-0.1-0.3
			c0,0,0,0,0,0c-0.2-0.6-0.6-1.6-1-2.7c-0.1-0.2-0.2-0.5-0.3-0.7l-0.2-0.6c0-0.1,0-0.1-0.1-0.2c-0.3-0.9-0.7-1.9-1.1-2.9
			c-0.2-0.6-0.5-1.2-0.7-1.8c-0.2-0.6-0.5-1.2-0.7-1.9c-0.5-1.3-1-2.7-1.6-3.9c-0.2-0.4-0.3-0.8-0.5-1.1c-0.1-0.1-0.1-0.3-0.2-0.4
			c-0.2-0.6-0.5-1.1-0.7-1.7c-0.1-0.3-0.2-0.5-0.3-0.8c-0.2-0.5-0.5-1-0.7-1.4c0,0,0,0,0,0c-0.2-0.4-0.4-0.8-0.6-1.2
			c-0.2-0.3-0.3-0.6-0.5-0.9c-0.1-0.1-0.2-0.3-0.3-0.4c-0.1-0.1-0.2-0.2-0.3-0.4c-0.1-0.1-0.2-0.3-0.3-0.4c-0.1-0.1-0.2-0.2-0.3-0.3
			c-0.2-0.2-0.4-0.4-0.6-0.6c-0.1-0.1-0.2-0.2-0.4-0.3c-0.1,0-0.1-0.1-0.2-0.1c-0.1,0-0.1-0.1-0.2-0.1c-0.1-0.1-0.2-0.1-0.3-0.2
			c-0.1-0.1-0.2-0.1-0.3-0.2c0,0,0,0-0.1,0c-0.2-0.1-0.5-0.3-0.7-0.4c-0.2-0.1-0.5-0.2-0.7-0.3c-0.2-0.1-0.4-0.2-0.6-0.2
			c-0.3-0.1-0.5-0.2-0.8-0.3c-0.4-0.1-0.8-0.2-1.2-0.3c-0.2,0-0.3-0.1-0.5-0.1c-0.1,0-0.3,0-0.4-0.1c-0.1,0-0.2,0-0.3,0
			c-0.1,0-0.2,0-0.4,0c-0.1,0-0.2,0-0.3,0c0,0-0.1,0-0.1,0h-0.1c0,0-0.1,0-0.1,0c-0.2,0-0.2,0-0.2,0l0,0c0,0,0,0,0,0c0,0,0,0,0,0
			l-3.7,0.7h0c-0.4,0.3-0.8,0.6-1.2,1c-1.6,1.6-2.4,3.6-2.9,5.3c0,0,0,0,0,0c-0.6,2.3-0.6,4.1-0.6,4.3l3-0.1c0,0,0-4.8,2.6-7.5
			c0.9-0.9,2-1.4,3.4-1.6h0.1c0.5-0.1,0.9-0.1,1.4-0.1c1.2,0,2.5,0.9,3.9,2.4c2.1,2.4,4.4,6.5,6.6,12c0.1,0.2,0.2,0.5,0.3,0.7
			c0,0,0,0,0,0c2.5,6.5,4.2,12.8,4.6,14.1v0c-0.1,0.5-0.1,0.9-0.1,1.4c0,2.6,0.7,5,1.9,7.2c0.3,0.5,0.7,1.1,1,1.5
			c2.3,3,5.8,4.8,9.5,4.8c6.5,0,11.9-5.5,12.4-12.4c0.9-0.2,1.7-0.2,2.2,0c0.5,0.3,0.8,0.8,0.8,1c0.1,7.3,5.6,13.3,12.4,13.3
			c3.6,0,6.9-1.7,9.2-4.4c1.3-1.5,2.3-3.3,2.8-5.4l0.1-0.2v-0.1c0.2-0.9,0.4-1.9,0.4-2.9c1.5-1.7,6.5-8.1,8.3-17.2v0
			c0.5-2.3,0.7-4.8,0.7-7.4v0C201.4,106,201.2,105.5,201,105z M170.8,130.5v-0.2c0-0.1,0-0.2,0-0.3v0c0-0.1,0-0.2,0-0.2
			c0,0,0-0.1,0-0.1c0,0,0,0,0,0c0,0,0-0.1,0-0.1v0c0.4-5.3,4.5-9.5,9.4-9.5c5.2,0,9.4,4.7,9.4,10.5v0.1c0.1,0.8,0.1,1.9-0.1,3.1
			c0,0.1,0,0.2-0.1,0.4c-0.1,0.6-0.3,1.2-0.5,1.8c-0.1,0.2-0.1,0.3-0.2,0.5c-0.1,0.1-0.1,0.3-0.2,0.4c-0.1,0.3-0.3,0.5-0.4,0.8
			c-0.1,0.2-0.2,0.3-0.3,0.5c-0.1,0.2-0.3,0.4-0.4,0.6c-0.1,0.1-0.2,0.2-0.2,0.3c-0.1,0.1-0.2,0.2-0.3,0.3c-0.2,0.2-0.3,0.3-0.5,0.5
			c-0.2,0.1-0.3,0.3-0.5,0.4c-0.1,0.1-0.3,0.2-0.4,0.3c-0.2,0.1-0.3,0.2-0.5,0.3c-0.2,0.1-0.4,0.2-0.5,0.3c-0.2,0.1-0.4,0.2-0.6,0.2
			c-0.2,0.1-0.4,0.2-0.7,0.2c-0.2,0.1-0.4,0.1-0.6,0.1c-0.2,0-0.5,0.1-0.7,0.1c-0.2,0-0.3,0-0.5,0.1c-0.5,0-1,0-1.6,0
			c-0.3,0-0.5,0-0.8-0.1c-0.4,0-0.9-0.1-1.3-0.2c-0.2-0.1-0.4-0.1-0.7-0.2c-0.4-0.1-0.8-0.3-1.1-0.4c-0.4-0.2-0.7-0.4-1-0.6
			c0,0,0,0,0,0c-0.1-0.1-0.3-0.2-0.4-0.3c0,0,0,0-0.1-0.1c0,0-0.1,0-0.1-0.1c-0.2-0.2-0.5-0.4-0.7-0.6c-0.4-0.4-0.7-0.8-0.9-1.2
			c-0.2-0.3-0.4-0.5-0.5-0.8c0,0,0,0,0,0c-0.2-0.3-0.3-0.6-0.4-0.9c-0.2-0.4-0.3-0.8-0.4-1.2c-0.1-0.2-0.1-0.4-0.2-0.6
			c0-0.2-0.1-0.3-0.1-0.5c0-0.2-0.1-0.3-0.1-0.5c0-0.2-0.1-0.4-0.1-0.5c0-0.2,0-0.4-0.1-0.5c0-0.1,0-0.3,0-0.4c0-0.2,0-0.4,0-0.5
			c0-0.1,0-0.3,0-0.4c0-0.2,0-0.3,0-0.4C170.8,130.6,170.8,130.5,170.8,130.5z M159,137.1c-0.2,0.2-0.3,0.4-0.5,0.5
			c-0.1,0.1-0.2,0.2-0.4,0.3c-0.2,0.1-0.4,0.3-0.6,0.4c-0.2,0.1-0.4,0.3-0.6,0.4c-0.2,0.1-0.5,0.3-0.7,0.4c-0.1,0-0.2,0.1-0.3,0.1
			c-0.2,0.1-0.3,0.1-0.5,0.2c-1.2,0.4-2.6,0.4-4.2,0.2c-0.2,0-0.4-0.1-0.5-0.1c-0.2,0-0.3-0.1-0.5-0.1c-0.2,0-0.3-0.1-0.5-0.1
			c-0.2-0.1-0.4-0.1-0.6-0.2c0,0-0.1,0-0.1,0c-0.2-0.1-0.4-0.2-0.6-0.2c-0.3-0.1-0.5-0.2-0.8-0.4c0,0,0,0,0,0
			c-0.5-0.3-0.9-0.6-1.3-0.9c-0.1-0.1-0.3-0.2-0.4-0.3c-0.2-0.2-0.4-0.4-0.6-0.6c-0.1-0.1-0.2-0.3-0.4-0.4c-0.1-0.1-0.2-0.3-0.3-0.5
			c0-0.1-0.1-0.2-0.2-0.2c0,0,0,0,0,0c-0.1-0.2-0.2-0.4-0.3-0.5c-0.1-0.2-0.2-0.4-0.3-0.6c-0.2-0.4-0.3-0.8-0.4-1.2
			c-0.1-0.5-0.2-0.9-0.3-1.4c0-0.2-0.1-0.4-0.1-0.6c0-0.1,0-0.3,0-0.4c0,0,0-0.1,0-0.1c0-0.1,0-0.2,0-0.2c0-0.8,0-1.4,0-1.6
			c0,0,0-0.1,0-0.1c0-5.8,4.2-10.5,9.4-10.5c5.2,0,9.4,4.7,9.4,10.5c0,0.3,0,0.7,0,1c0,0,0,0,0,0c0,0,0,0,0,0c0,0,0,0,0,0
			c0.1,0.3,0,1-0.1,1.9c0,0.2-0.1,0.4-0.1,0.5c0,0.2-0.1,0.4-0.1,0.6c0,0.1-0.1,0.2-0.1,0.3c0,0.1-0.1,0.3-0.1,0.4
			c-0.1,0.3-0.2,0.6-0.3,0.8c-0.2,0.4-0.4,0.8-0.6,1.2c-0.1,0.1-0.2,0.3-0.2,0.4C159.8,136.2,159.4,136.7,159,137.1z"/>
		<path class="st14" d="M199.5,101.9c-0.1,1.5-0.4,6.6-1.5,13c-1.4,7.8-6.1,14.2-6.1,14.2s-2-11.7-11.3-11.2
			c-9.3,0.6-11.1,10-11.1,10c-3.5-1.4-5.7-0.5-5.7-0.5c-0.6-3.8-3.4-10.8-10.8-11.4c-7.4-0.6-11.6,7.8-11.6,7.8s-5.8-16.5-8.9-22.3
			c-3.1-5.8-10-5.7-10-5.7l-3.7,0.7c1.6-1.1,3.6-1.7,5.9-1.6c0.5,0,1,0.1,1.5,0.2c4,1.1,7.9,6.4,11.8,16.1c1.6,3.9,2.8,7.7,3.7,10.6
			c2.2-4,6.2-6.8,10.8-6.8c6.2,0,11.4,5,12.3,11.5c1.3-0.2,2.5-0.1,3.5,0.4c1.4-5.7,6.3-10,12-10c5.7,0,10.4,4.1,11.9,9.8
			c3-4.3,7.5-16.9,5.8-27.7C198.5,99.9,199,100.9,199.5,101.9z"/>
	</g>
	<path class="st14" d="M151.2,139.6c-9.4-1.7-8.2-11.1-8.2-11.1c0,2,0.5,4,1.5,5.7c1.8,3,4.7,4.8,7.9,4.8c4.9,0,9-4.2,9.4-9.5
		C162.2,131.1,160.2,141.2,151.2,139.6z"/>
	<path class="st14" d="M179.6,141.6c-10-0.5-8.8-12.1-8.8-12.1c0,0.3,0,0.6,0,1c0,5.8,4.2,10.5,9.4,10.5c4.2,0,7.9-3.1,9.1-7.6
		l0-0.1c0.2-0.9,0.4-1.8,0.4-2.8C190.2,133.8,188.2,142.1,179.6,141.6z"/>
	<ellipse class="st15" cx="154.5" cy="128.5" rx="2.8" ry="6.4"/>
	<ellipse class="st15" cx="177.6" cy="130.5" rx="2.6" ry="6"/>
	<path class="st5" d="M133.1,109.3C133.1,109.3,133.1,109.3,133.1,109.3c0,0-2.9-10.7-9.4-11.3c-6.5-0.6-11.2,4.2-11.4,16.3
		c-0.2,12.1,17.5,14,17.5,14l-2.6,2.1c-4.3-0.2-15.4-9.4-16.1-13.5c-0.2-1.5-0.7-4.4-0.6-7.6c0.2-5.6,2.1-12.2,10-13.4
		c1.6-0.2,3-0.1,4.3,0.2c8.5,2.5,10.6,16.8,10.7,17.7C135,111.9,134.1,110.4,133.1,109.3z"/>
	<path class="st0" d="M129.8,128.3c0,0-17.7-1.9-17.5-14c0.2-12.1,4.9-16.9,11.4-16.3c6.5,0.6,9.4,11.3,9.4,11.3
		c-5.2-5.5-14.4,1-15.3,5.3C116.7,119.8,129.8,128.3,129.8,128.3z"/>
</g>
<g>
</g>
<g>
</g>
<g>
</g>
<g>
</g>
<g>
</g>
<g>
</g>
</svg>
