<?xml version="1.0" encoding="utf-8"?>
<!-- Generator: Adobe Illustrator 19.1.0, SVG Export Plug-In . SVG Version: 6.00 Build 0)  -->
<svg version="1.1" xmlns="http://www.w3.org/2000/svg" xmlns:xlink="http://www.w3.org/1999/xlink" x="0px" y="0px" width="288px"
	 height="288px" viewBox="0 0 288 288" enable-background="new 0 0 288 288" xml:space="preserve">
<g id="bck">
	<path opacity="0.39" fill="#FFFFFF" d="M231.3,197.2c-0.2-0.1-0.5-0.3-0.8-0.4c-2.7-1.5-5.3-3-8.1-4.5c-0.3-0.1-0.5-0.3-0.8-0.4
		c-9.9-5.2-20.6-10.2-33.2-14.3c-3.3-1.1-6.6-2.1-9.8-2.9c-1.6-0.4-3.1-0.8-4.6-1.1c-0.1,0-0.3-0.1-0.4-0.1c-4.3-0.9-8.4-1.6-12.5-2
		c-1.7-0.2-3.4-0.3-5.1-0.4c-0.8-0.1-1.7-0.1-2.5-0.1h0c-1.6-0.1-3.1-0.1-4.6-0.1h-0.1c-0.5,0-1,0-1.5,0h-0.4c-0.1,0-0.3,0-0.4,0
		c-0.3,0-0.6,0-0.9,0c-0.3,0-0.6,0-0.8,0c-3.8,0.1-7.5,0.5-11.1,1c-0.2,0-0.4,0.1-0.6,0.1c-0.2,0-0.4,0.1-0.6,0.1
		c-1.6,0.3-3.2,0.5-4.7,0.9c-0.1,0-0.2,0-0.3,0.1c-0.1,0-0.1,0-0.2,0c-2,0.4-3.9,0.9-5.8,1.4c-0.1,0-0.1,0-0.2,0
		c-15.7,4.3-25.4-9.4-30.5-17.5c-26-41.9-10-105.4,41.1-105.1c12.4,0.1,23.8,1.3,34.2,3.5c26.3,5.5,47,17.1,63.1,33.1
		c20.4,20.2,33.6,47.2,41.6,77.1C279.5,198.1,268.7,218,231.3,197.2z"/>
</g>
<g id="body">
	<path fill="#8D5738" d="M234.5,162.9c-0.9,12-2.2,24.7-3.2,34.2c-0.2-0.1-0.5-0.3-0.8-0.4c-2.7-1.5-5.3-3-8.1-4.5
		c-0.3-0.1-0.5-0.3-0.8-0.4c-9.9-5.2-20.6-10.2-33.2-14.3c-3.3-1.1-6.6-2.1-9.8-2.9c-1.6-0.4-3.1-0.8-4.6-1.1
		c-0.1,0-0.3-0.1-0.4-0.1c-4.3-0.9-8.4-1.6-12.5-2c-1.7-0.2-3.4-0.3-5.1-0.4c-0.8-0.1-1.7-0.1-2.5-0.1h0c-1.6-0.1-3.1-0.1-4.6-0.1
		h-0.1c-0.5,0-1,0-1.5,0h-0.4c-0.1,0-0.3,0-0.4,0c-0.3,0-0.6,0-0.9,0c-0.3,0-0.6,0-0.8,0c-3.8,0.1-7.5,0.5-11.1,1
		c-0.2,0-0.4,0.1-0.6,0.1c-0.2,0-0.4,0.1-0.6,0.1c-1.6,0.3-3.2,0.5-4.7,0.9c-0.1,0-0.2,0-0.3,0.1c-0.1,0-0.1,0-0.2,0
		c-2,0.4-3.9,0.9-5.8,1.4c-1.1-3-2.4-6.4-3.7-10.2c-0.1-0.4-0.2-0.7-0.4-1.1c-0.6-1.9-1.3-3.8-1.9-5.7c-0.2-0.6-0.4-1.3-0.6-2
		c-1.3-4-2.6-8.3-3.8-12.6c-0.2-0.7-0.4-1.4-0.6-2.1c-0.4-1.4-0.7-2.7-1.1-4.1c-0.2-0.7-0.4-1.4-0.5-2.1c-0.2-1-0.5-2-0.7-3
		c-0.3-1.3-0.6-2.5-0.8-3.8c0-0.2-0.1-0.4-0.1-0.7c-0.8-4-1.6-7.9-2.1-11.7c0-0.1,0-0.2,0-0.3c-0.1-1.1-0.3-2.2-0.4-3.2
		c0-0.1,0-0.2,0-0.2c-0.2-1.5-0.3-2.9-0.4-4.3c0,0,0-0.1,0-0.1c-0.2-3.7-0.3-7.1,0-10.1c0.1-0.6,0.1-1.2,0.2-1.8
		c0.1-0.6,0.2-1.2,0.3-1.7c0.1-0.3,0.1-0.6,0.2-0.8c0.1-0.5,0.3-1.1,0.4-1.6c0.1-0.5,0.3-1,0.5-1.5c0.2-0.5,0.4-0.9,0.6-1.4
		c9.8-20.4,24.4-11.8,28.4-8.9c0.2-5.6,2.1-12.1,10-13.4c1.6-0.2,3-0.1,4.3,0.2c0.2-0.2,0.7-0.6,1.3-1.1c2.7-2.2,8.8-6.7,15.7-9.9
		c8-3.6,17.1-5.5,23.7,0c0,0,19.8-7,32.3,13.8c0.6,1,1.2,2.1,1.8,3.3c0.2,0.5,0.5,0.9,0.7,1.4c0.5,1,0.9,1.9,1.2,2.7
		c2,4.7,3,8.6,3.4,11.8c0.1,0.7,0.1,1.3,0.2,1.9c0.5,9.5-4.9,12.4-5.4,12.6c0,0,0,0,0,0s0,0,0,0c0,0,0,0.1,0.1,0.1
		c0.8,1.3,7.4,11.4,10.6,25.8C236.1,134.9,235.6,148.4,234.5,162.9z"/>
	<path fill="#D9BD8C" d="M187.7,98.7c0,6.6-4.9,12-10.9,12c-3.9,0-7.3-2.2-9.2-5.6c-1.1-1.9-1.7-4.1-1.7-6.4c0-6.6,4.9-12,10.9-12
		C182.8,86.7,187.7,92.1,187.7,98.7z"/>
	<path fill="#D9BD8C" d="M215.5,100.7c0,1.1-0.1,2.2-0.4,3.3c0,0,0,0,0,0c-1.3,5-5.5,8.7-10.5,8.7c-6,0-10.9-5.4-10.9-12
		c0-6.6,4.9-12,10.9-12C210.6,88.7,215.5,94,215.5,100.7z"/>
	<path fill="#8D5738" d="M135.6,87.8c0,0,0,0.1,0,0.2C135.6,87.8,135.6,87.7,135.6,87.8C135.6,87.7,135.6,87.7,135.6,87.8z"/>
	<path fill="#8D5738" d="M143,96.1c0.1,0.1,0.2,0.2,0.4,0.3c-0.3-0.2-0.7-0.5-1-0.8C142.6,95.8,142.8,95.9,143,96.1z"/>
	<path fill="#8D5738" d="M157.1,74.4c0.1,0.3,0.2,0.5,0.4,0.8c0-0.1-0.1-0.3-0.2-0.4C157.2,74.7,157.1,74.6,157.1,74.4z"/>
	<path fill="#D9BD8C" d="M203.7,123.1c0.3,1.1,0.5,2.2,0.6,3.4c0,0.3,0.1,0.5,0.1,0.8c0,0,0,0.1,0,0.1c0,0.2,0,0.5,0.1,0.7l0,0.6
		c-14.2,20-27.2,1.9-30.2-2.7c0,0,0,0,0,0c0-0.2,0-0.3,0.1-0.5c0-0.1,0-0.1,0-0.2c0-0.1,0-0.3,0.1-0.4c0-0.2,0.1-0.4,0.1-0.7
		c0,0,0-0.1,0-0.1c0-0.2,0.1-0.5,0.2-0.7c-10.2-2.5-7.3-18.3-7.3-18.3c1.9,3.3,5.3,5.6,9.2,5.6c6,0,10.9-5.4,10.9-12
		c5-2.1,5.9,1.9,5.9,1.9c0,6.6,4.9,12,10.9,12c5,0,9.2-3.7,10.5-8.7C214.8,105.2,211.5,123.5,203.7,123.1z"/>
	<path fill="#592C1C" d="M204.5,129.3c-14.3,31.6-30.3-1.9-30.3-1.9c0-0.4,0.1-0.9,0.2-1.3c2.9,4.6,16,22.7,30.2,2.7
		C204.5,129,204.5,129.1,204.5,129.3z"/>
	<path fill="#D9BD8C" d="M204.5,130.1c0,11.5-6.8,20.8-15.2,20.8c-8.4,0-15.2-9.3-15.2-20.8c0-0.9,0-1.8,0.1-2.7
		c0,0,16,33.6,30.3,1.9C204.5,129.6,204.5,129.8,204.5,130.1z"/>
	<path fill="#592C1C" d="M185.6,115.7c0,0-0.2,0.3-0.4,0.8c-0.1,0.3-0.2,0.6-0.3,0.9c0,0.4-0.1,0.8,0.1,1.2c0.1,0.4,0.4,0.7,0.8,1
		c0.4,0.3,0.9,0.5,1.4,0.7c0.5,0.2,1.1,0.3,1.7,0.4c0.3,0.1,0.6,0.1,0.9,0.1c0.3,0,0.6,0.1,0.9,0.1c0.7,0,1.2,0.1,1.8,0
		c0.6,0,1.2-0.1,1.6-0.3c0.5-0.2,0.8-0.4,0.9-0.8c0.1-0.4,0-0.9-0.1-1.3c-0.3-0.9-0.7-1.6-1-2c-0.3-0.5-0.5-0.7-0.5-0.7
		s0.3,0.2,0.7,0.6c0.2,0.2,0.5,0.5,0.7,0.8c0.3,0.3,0.5,0.7,0.8,1.2c0.2,0.5,0.5,1,0.4,1.8c-0.1,0.3-0.2,0.7-0.5,1
		c-0.2,0.3-0.6,0.5-0.9,0.7c-0.6,0.3-1.3,0.4-2,0.5c-0.7,0.1-1.4,0-2,0c-0.4,0-0.7-0.1-1-0.1c-0.3-0.1-0.7-0.1-1-0.1
		c-0.7-0.1-1.3-0.3-1.9-0.5c-0.6-0.2-1.2-0.6-1.6-1c-0.2-0.2-0.4-0.5-0.6-0.7c-0.1-0.3-0.2-0.6-0.3-0.8c-0.1-0.6,0-1.1,0.2-1.4
		c0.1-0.4,0.3-0.7,0.5-0.9C185.4,115.9,185.6,115.7,185.6,115.7z"/>
	<path fill="none" d="M153.8,69.4c-3,3.1-6.1,6.8-9.2,11.4c-0.8,1.2-1.7,2.6-2.5,3.9l-5.5,4.8c0,0,0,0,0,0"/>
	<path fill="none" d="M174.8,123.5c-1.1-0.3-2.3-0.9-3.4-1.6"/>
	<g>
		<path fill="#D9BD8C" d="M159.7,128.1c0,0,5.1-9.6,6,7.7L159.7,128.1z"/>
		<path fill="#3E2711" d="M159.7,128.1c0,0,0.1-0.2,0.2-0.6c0.2-0.4,0.5-1,1-1.6c0.3-0.3,0.6-0.6,1.1-0.8c0.2-0.1,0.5-0.2,0.9-0.1
			c0.3,0,0.6,0.2,0.9,0.3c0.5,0.4,0.8,0.8,1,1.3c0.2,0.5,0.4,1,0.6,1.4c0.3,1,0.4,2,0.5,2.9c0.1,0.5,0.1,0.9,0.1,1.3
			c0,0.4,0,0.8,0,1.2c0,0.7-0.1,1.3-0.1,1.8c0,0.4-0.1,0.7-0.1,0.7s-0.1-0.2-0.2-0.7c-0.1-0.4-0.2-1-0.4-1.7
			c-0.1-0.7-0.3-1.5-0.5-2.4c-0.1-0.4-0.2-0.9-0.3-1.3c-0.1-0.4-0.2-0.9-0.3-1.3c-0.1-0.4-0.3-0.9-0.4-1.3c-0.2-0.4-0.4-0.7-0.6-0.9
			c-0.2-0.2-0.4-0.3-0.8-0.2c-0.3,0.1-0.6,0.3-0.9,0.5c-0.5,0.4-1,0.9-1.2,1.2C159.8,127.9,159.7,128.1,159.7,128.1z"/>
	</g>
	<path fill="none" d="M223.8,71.6c0,0,0,0.2,0,0.5"/>
	<line fill="none" x1="186.1" y1="99.7" x2="186.1" y2="99.7"/>
	<path fill="#B8A278" d="M135.6,87.8c0,0,0,0.1,0,0.2C135.6,87.8,135.6,87.7,135.6,87.8C135.6,87.7,135.6,87.7,135.6,87.8z"/>
	<path fill="#B8A278" d="M143,96.1c0.1,0.1,0.2,0.2,0.4,0.3c-0.3-0.2-0.7-0.5-1-0.8C142.6,95.8,142.8,95.9,143,96.1z"/>
	<path fill="#B8A278" d="M157.1,74.4c0.1,0.3,0.2,0.5,0.4,0.8c0-0.1-0.1-0.3-0.2-0.4C157.2,74.7,157.1,74.6,157.1,74.4z"/>
	<path fill="#A67458" d="M110.2,104.9c0.6,14.9,13.3,56.1,17.1,68.2c-2,0.4-3.9,0.9-5.8,1.4c-1.1-3-2.4-6.4-3.7-10.2
		c-0.1-0.4-0.2-0.7-0.4-1.1c-0.6-1.9-1.3-3.8-1.9-5.7c-0.2-0.6-0.4-1.3-0.6-2c-1.3-4-2.6-8.3-3.8-12.6l-0.6-2.1
		c-0.4-1.4-0.7-2.7-1.1-4.1c-0.2-0.7-0.4-1.4-0.5-2.1c-0.2-1-0.5-2-0.7-3c-0.3-1.3-0.6-2.5-0.8-3.8c0-0.2-0.1-0.4-0.1-0.7
		c-0.8-4-1.5-7.9-2.1-11.7c0-0.1,0-0.2,0-0.3c-0.1-1.1-0.3-2.2-0.4-3.2c0-0.1,0-0.2,0-0.2c-0.2-1.5-0.3-2.9-0.4-4.3c0,0,0-0.1,0-0.1
		c-0.2-3.7-0.3-7.1,0-10.1c0.1-0.6,0.1-1.2,0.2-1.8c0.1-0.6,0.2-1.2,0.3-1.7c0.1-0.3,0.1-0.6,0.2-0.8c0.1-0.5,0.3-1.1,0.4-1.6
		c0.1-0.5,0.3-1,0.5-1.5c0.2-0.5,0.4-0.9,0.6-1.4c9.8-20.4,24.4-11.8,28.4-8.9c-0.1,3.2,0.3,6.2,0.6,7.7c0,0.1,0,0.2,0.1,0.3
		c0,0.1,0,0.1,0.1,0.2c0,0,0,0.1,0,0.1C122.6,76.8,109.5,88.3,110.2,104.9z"/>
	<path fill="#A67458" d="M229.4,90.4c0-0.2,0-0.5,0-0.7C229.4,89.9,229.4,90.2,229.4,90.4c0.5,9.5-4.9,12.4-5.4,12.6
		c6.4-30.2-15.6-39.5-33.8-40.4c-7.7-10.7-26.3-0.9-37,6.2c-1.2-1.1-2.5-2-4-2.4c0.2-0.2,0.7-0.6,1.3-1.1c5.8-4.7,27-20.2,39.4-9.9
		c0,0,19.8-7,32.3,13.8c0.6,1,1.2,2.1,1.8,3.3c0.2,0.5,0.5,0.9,0.7,1.4c0,0,6.6-3.3,8.6,1C235.2,79.2,234,94.1,229.4,90.4z"/>
	<path fill="#A67458" d="M234.5,162.9c-0.9,12-2.2,24.7-3.2,34.2c-0.2-0.1-0.5-0.3-0.8-0.4c-2.7-1.5-5.3-3-8.1-4.5
		c-0.3-0.1-0.5-0.3-0.8-0.4c14.5-50.7,3.3-86.3,2.5-88.7c0.8,1.3,7.4,11.4,10.6,25.8C236.1,134.9,235.6,148.4,234.5,162.9z"/>
	<path fill="#D9BD8C" d="M232.1,79.5c-1.5,7.6,0.2,9.4-2.6,10.9c-0.2-3.9-1.3-8.8-4.2-15.2C225.3,75.2,233.6,71.9,232.1,79.5z"/>
	<path fill="#B8A278" d="M229.4,90.4c2.9-1.5,1.1-3.3,2.6-10.9c1.5-7.6-6.8-4.3-6.8-4.3c-0.2-0.4-0.4-0.8-0.6-1.3c0,0,6.6-3.3,8.6,1
		S234,94.1,229.4,90.4z"/>
</g>
<g id="glasses">
	<path opacity="0.78" fill="#FFFFFF" d="M187.7,98.7c0,6.6-4.9,12-10.9,12c-3.9,0-7.3-2.2-9.2-5.6c-1.1-1.9-1.7-4.1-1.7-6.4
		c0-6.6,4.9-12,10.9-12C182.8,86.7,187.7,92.1,187.7,98.7z"/>
	<path opacity="0.78" fill="#FFFFFF" d="M215.5,100.7c0,1.1-0.1,2.2-0.4,3.3c0,0,0,0,0,0c-1.3,5-5.5,8.7-10.5,8.7
		c-6,0-10.9-5.4-10.9-12c0-6.6,4.9-12,10.9-12C210.6,88.7,215.5,94,215.5,100.7z"/>
	<g>
		<path fill="#231F20" d="M225.3,75.2c-0.1-0.1-0.1-0.2-0.2-0.4c0,0,0,0,0,0c-0.1-0.1-0.1-0.3-0.2-0.4c0,0,0,0,0-0.1
			c0,0,0-0.1,0-0.1c0-0.1-0.1-0.2-0.1-0.3c-0.1-0.2-0.2-0.5-0.3-0.7c-0.1-0.2-0.2-0.5-0.3-0.7c-0.1-0.1-0.1-0.3-0.2-0.4
			c0,0.1,0,0.2,0,0.3c0,0.1,0,0.1,0,0.2c0,0.1,0,0.3,0,0.4c0,0.2,0,0.4,0,0.7c0,0.1,0,0.2,0,0.3c0,0.2,0,0.5,0,0.7
			c0,0.2,0,0.5-0.1,0.8c0,0.4-0.1,0.8-0.1,1.2c-0.1,0.6-0.1,1.2-0.2,1.9v0c0,0.5-0.1,1-0.2,1.5c0,0.1,0,0.3-0.1,0.4
			c0,0.2,0,0.3-0.1,0.5c-0.2,1.2-0.4,2.6-0.6,4c-0.1,0.4-0.2,0.9-0.3,1.3c0,0.1,0,0.1,0,0.2c-0.1,0.4-0.2,0.7-0.3,1
			c-0.1,0.4-0.2,0.7-0.3,1c0,0.1-0.1,0.2-0.1,0.3c-0.1,0.3-0.2,0.7-0.3,1c-0.2,0.4-0.3,0.9-0.5,1.3c-0.2,0.4-0.3,0.8-0.5,1.2
			c-0.8,1.8-1.6,3.3-2.2,4.4c-0.2,0.3-0.3,0.5-0.4,0.7c-0.1,0.2-0.3,0.4-0.4,0.6c-0.1,0.2-0.2,0.3-0.3,0.4c-0.1,0.1-0.2,0.2-0.2,0.3
			c-0.1,0.1-0.2,0.2-0.2,0.3c0,0,0,0.1-0.1,0.1c0,0,0,0,0-0.1c0,0,0-0.1,0-0.1c0,0,0-0.1,0-0.1c-0.1-0.6-0.4-1.9-1.1-3.4
			c-0.1-0.2-0.2-0.4-0.3-0.6c-0.1-0.1-0.1-0.3-0.2-0.4c-0.1-0.2-0.2-0.4-0.3-0.5c-0.1-0.2-0.2-0.4-0.3-0.6c-0.4-0.7-0.9-1.4-1.4-2
			c-0.1-0.1-0.2-0.2-0.3-0.3c-0.1-0.1-0.2-0.2-0.3-0.3c-0.3-0.3-0.6-0.6-1-0.8c-1.5-1.2-3.5-1.9-6-1.7c-0.3,0-0.6,0-0.8,0.1
			c-0.5,0.1-1,0.2-1.5,0.3c-0.2,0.1-0.5,0.1-0.7,0.2c-0.1,0-0.2,0.1-0.3,0.1c-0.3,0.1-0.6,0.2-0.8,0.3c-0.2,0.1-0.3,0.1-0.4,0.2
			c-0.6,0.3-1.1,0.6-1.6,1c-0.1,0.1-0.3,0.2-0.4,0.3c0,0,0,0,0,0.1c-0.1,0.1-0.3,0.2-0.4,0.3c-0.1,0.1-0.1,0.1-0.2,0.2c0,0,0,0,0,0
			c0,0,0,0,0,0c0,0,0,0-0.1,0.1c0,0,0,0,0,0c0,0-0.1,0.1-0.1,0.1c-0.1,0.1-0.3,0.3-0.4,0.4c-0.1,0.1-0.1,0.1-0.2,0.2c0,0,0,0,0,0
			c0,0,0,0,0,0c-0.1,0.1-0.1,0.1-0.2,0.2c0,0-0.1,0.1-0.1,0.1c0,0,0,0,0,0c0,0,0,0,0,0c0,0-0.1,0.1-0.1,0.1c0,0,0,0,0,0
			c0,0.1-0.1,0.1-0.1,0.2c-0.2,0.3-0.4,0.6-0.6,0.9c-0.1,0.2-0.2,0.3-0.3,0.5c-0.1,0.1-0.1,0.2-0.2,0.3c-0.1,0.1-0.2,0.3-0.2,0.4
			c-0.2,0.4-0.4,0.8-0.5,1.1c0,0.1-0.1,0.2-0.1,0.3c-0.2,0.4-0.3,0.8-0.3,1c0,0,0,0,0,0c0,0,0,0.1,0,0.1c0,0.1,0,0.1,0,0.2
			c0,0,0,0,0,0c0,0,0,0.1,0,0.1c0,0,0,0,0,0c0,0,0,0,0,0s0,0,0,0c0,0,0,0,0,0c0,0,0,0,0,0c-2.5-1-4.3-0.8-5.2-0.6
			c-0.3,0.1-0.5,0.1-0.5,0.1c0,0,0,0,0,0c0-0.1,0-0.2-0.1-0.4c0-0.2-0.1-0.5-0.2-0.8c-0.1-0.3-0.1-0.6-0.2-0.8
			c0-0.2-0.1-0.3-0.1-0.4c-0.1-0.4-0.3-0.9-0.5-1.3c0-0.1-0.1-0.3-0.2-0.5c0,0,0,0,0,0c-0.1-0.3-0.3-0.6-0.5-0.9c0,0,0,0,0,0
			c-0.2-0.3-0.3-0.6-0.5-0.9c-0.2-0.3-0.3-0.5-0.5-0.8c-0.1-0.2-0.3-0.4-0.4-0.5c-0.2-0.2-0.4-0.4-0.5-0.6c-0.2-0.2-0.4-0.4-0.6-0.6
			c-0.1-0.1-0.2-0.1-0.2-0.2c-0.1-0.1-0.2-0.2-0.3-0.3c-0.9-0.8-2-1.4-3.3-1.8c-0.1,0-0.2-0.1-0.3-0.1c0,0,0,0-0.1,0
			c-0.2-0.1-0.5-0.2-0.8-0.2c0,0,0,0-0.1,0c-0.1,0-0.2,0-0.3-0.1c-0.1,0-0.3,0-0.4-0.1c-0.2,0-0.5-0.1-0.8-0.1c-0.3,0-0.5,0-0.8,0
			c-0.2,0-0.5,0-0.7,0c-0.6,0-1.2,0.2-1.8,0.3c-0.2,0-0.4,0.1-0.6,0.2c-0.2,0.1-0.5,0.2-0.7,0.3c-0.3,0.1-0.5,0.2-0.8,0.4
			c-0.2,0.1-0.3,0.2-0.5,0.3c-0.9,0.6-1.8,1.2-2.5,2c-0.1,0.1-0.2,0.2-0.2,0.2c-0.2,0.2-0.4,0.4-0.5,0.6c-0.8,0.9-1.4,1.7-1.8,2.4
			c-0.1,0.2-0.2,0.3-0.3,0.5c-0.1,0.2-0.2,0.4-0.3,0.6c0,0.1-0.1,0.1-0.1,0.1c0,0,0,0,0,0c0,0,0,0,0,0c0,0,0-0.1-0.1-0.2
			c0,0,0-0.1-0.1-0.2c0,0,0-0.1,0-0.2c0-0.1-0.1-0.2-0.1-0.3c0,0,0,0,0,0c-0.2-0.6-0.6-1.6-1-2.7c-0.1-0.2-0.2-0.5-0.3-0.7l-0.2-0.6
			c0-0.1,0-0.1-0.1-0.2c-0.3-0.9-0.7-1.9-1.1-2.9c-0.2-0.6-0.5-1.2-0.7-1.8c-0.2-0.6-0.5-1.2-0.7-1.9c-0.5-1.3-1-2.7-1.6-3.9
			c-0.2-0.4-0.3-0.8-0.5-1.1c-0.1-0.1-0.1-0.3-0.2-0.4c-0.2-0.6-0.5-1.1-0.7-1.7c-0.1-0.3-0.2-0.5-0.3-0.8c-0.2-0.5-0.5-1-0.7-1.4
			c0,0,0,0,0,0c-0.2-0.4-0.4-0.8-0.6-1.2c-0.2-0.3-0.3-0.6-0.5-0.9c-0.1-0.1-0.2-0.3-0.3-0.4c-0.1-0.1-0.2-0.2-0.3-0.4
			c-0.1-0.1-0.2-0.3-0.3-0.4c-0.1-0.1-0.2-0.2-0.3-0.3c-0.2-0.2-0.4-0.4-0.6-0.6c-0.1-0.1-0.2-0.2-0.4-0.3c-0.1,0-0.1-0.1-0.2-0.1
			c-0.1,0-0.1-0.1-0.2-0.1c-0.1-0.1-0.2-0.1-0.3-0.2c-0.1-0.1-0.2-0.1-0.3-0.2c0,0,0,0-0.1,0c-0.2-0.1-0.5-0.3-0.7-0.4
			c-0.2-0.1-0.5-0.2-0.7-0.3c-0.2-0.1-0.4-0.2-0.6-0.2c-0.3-0.1-0.5-0.2-0.8-0.3c-0.4-0.1-0.8-0.2-1.2-0.3c-0.2,0-0.3-0.1-0.5-0.1
			c-0.1,0-0.3,0-0.4-0.1c-0.1,0-0.2,0-0.3,0c-0.1,0-0.2,0-0.4,0c-0.1,0-0.2,0-0.3,0c0,0-0.1,0-0.1,0h-0.1c0,0-0.1,0-0.1,0
			c-0.2,0-0.2,0-0.2,0l0,0c0,0,0,0,0,0c0,0,0,0,0,0l-3.7,0.7h0c-0.4,0.3-0.8,0.6-1.2,1c-1.6,1.6-2.4,3.6-2.9,5.3c0,0,0,0,0,0
			c-0.6,2.3-0.6,4.1-0.6,4.3l3-0.1c0,0,0-4.8,2.6-7.5c0.9-0.9,2-1.4,3.4-1.6h0.1c0.5-0.1,0.9-0.1,1.4-0.1c1.2,0,2.5,0.9,3.9,2.4
			c2.1,2.4,4.4,6.5,6.6,12c0.1,0.2,0.2,0.5,0.3,0.7c0,0,0,0,0,0c2.5,6.5,4.2,12.8,4.6,14.1v0c-0.1,0.5-0.1,0.9-0.1,1.4
			c0,2.6,0.7,5,1.9,7.2c0.3,0.5,0.7,1.1,1,1.5c2.3,3,5.8,4.8,9.5,4.8c6.5,0,11.9-5.5,12.4-12.4c0.9-0.2,1.7-0.2,2.2,0
			c0.5,0.3,0.8,0.8,0.8,1c0.1,7.3,5.6,13.3,12.4,13.3c3.6,0,6.9-1.7,9.2-4.4c1.3-1.5,2.3-3.3,2.8-5.4l0.1-0.2v-0.1
			c0.2-0.9,0.4-1.9,0.4-2.9c1.5-1.7,6.5-8.1,8.3-17.2v0c0.5-2.3,0.7-4.8,0.7-7.4v0C225.7,76.2,225.5,75.7,225.3,75.2z M195.1,100.7
			v-0.2c0-0.1,0-0.2,0-0.3v0c0-0.1,0-0.2,0-0.2c0,0,0-0.1,0-0.1c0,0,0,0,0,0c0,0,0-0.1,0-0.1v0c0.4-5.3,4.5-9.5,9.4-9.5
			c5.2,0,9.4,4.7,9.4,10.5v0.1c0.1,0.8,0.1,1.9-0.1,3.1c0,0.1,0,0.2-0.1,0.4c-0.1,0.6-0.3,1.2-0.5,1.8c-0.1,0.2-0.1,0.3-0.2,0.5
			c-0.1,0.1-0.1,0.3-0.2,0.4c-0.1,0.3-0.3,0.5-0.4,0.8c-0.1,0.2-0.2,0.3-0.3,0.5c-0.1,0.2-0.3,0.4-0.4,0.6c-0.1,0.1-0.2,0.2-0.2,0.3
			c-0.1,0.1-0.2,0.2-0.3,0.3c-0.2,0.2-0.3,0.3-0.5,0.5c-0.2,0.1-0.3,0.3-0.5,0.4c-0.1,0.1-0.3,0.2-0.4,0.3c-0.2,0.1-0.3,0.2-0.5,0.3
			c-0.2,0.1-0.4,0.2-0.5,0.3c-0.2,0.1-0.4,0.2-0.6,0.2c-0.2,0.1-0.4,0.2-0.7,0.2c-0.2,0.1-0.4,0.1-0.6,0.1c-0.2,0-0.5,0.1-0.7,0.1
			c-0.2,0-0.3,0-0.5,0.1c-0.5,0-1,0-1.6,0c-0.3,0-0.5,0-0.8-0.1c-0.4,0-0.9-0.1-1.3-0.2c-0.2-0.1-0.4-0.1-0.7-0.2
			c-0.4-0.1-0.8-0.3-1.1-0.4c-0.4-0.2-0.7-0.4-1-0.6c0,0,0,0,0,0c-0.1-0.1-0.3-0.2-0.4-0.3c0,0,0,0-0.1-0.1c0,0-0.1,0-0.1-0.1
			c-0.2-0.2-0.5-0.4-0.7-0.6c-0.4-0.4-0.7-0.8-0.9-1.2c-0.2-0.3-0.4-0.5-0.5-0.8c0,0,0,0,0,0c-0.2-0.3-0.3-0.6-0.4-0.9
			c-0.2-0.4-0.3-0.8-0.4-1.2c-0.1-0.2-0.1-0.4-0.2-0.6c0-0.2-0.1-0.3-0.1-0.5c0-0.2-0.1-0.3-0.1-0.5c0-0.2-0.1-0.4-0.1-0.5
			c0-0.2,0-0.4-0.1-0.5c0-0.1,0-0.3,0-0.4c0-0.2,0-0.4,0-0.5c0-0.1,0-0.3,0-0.4c0-0.2,0-0.3,0-0.4
			C195.1,100.8,195.1,100.7,195.1,100.7z M183.3,107.3c-0.2,0.2-0.3,0.4-0.5,0.5c-0.1,0.1-0.2,0.2-0.4,0.3c-0.2,0.1-0.4,0.3-0.6,0.4
			c-0.2,0.1-0.4,0.3-0.6,0.4c-0.2,0.1-0.5,0.3-0.7,0.4c-0.1,0-0.2,0.1-0.3,0.1c-0.2,0.1-0.3,0.1-0.5,0.2c-1.2,0.4-2.6,0.4-4.2,0.2
			c-0.2,0-0.4-0.1-0.5-0.1c-0.2,0-0.3-0.1-0.5-0.1c-0.2,0-0.3-0.1-0.5-0.1c-0.2-0.1-0.4-0.1-0.6-0.2c0,0-0.1,0-0.1,0
			c-0.2-0.1-0.4-0.2-0.6-0.2c-0.3-0.1-0.5-0.2-0.8-0.4c0,0,0,0,0,0c-0.5-0.3-0.9-0.6-1.3-0.9c-0.1-0.1-0.3-0.2-0.4-0.3
			c-0.2-0.2-0.4-0.4-0.6-0.6c-0.1-0.1-0.2-0.3-0.4-0.4c-0.1-0.1-0.2-0.3-0.3-0.5c0-0.1-0.1-0.2-0.2-0.2c0,0,0,0,0,0
			c-0.1-0.2-0.2-0.4-0.3-0.5c-0.1-0.2-0.2-0.4-0.3-0.6c-0.2-0.4-0.3-0.8-0.4-1.2c-0.1-0.5-0.2-0.9-0.3-1.4c0-0.2-0.1-0.4-0.1-0.6
			c0-0.1,0-0.3,0-0.4c0,0,0-0.1,0-0.1c0-0.1,0-0.2,0-0.2c0-0.8,0-1.4,0-1.6c0,0,0-0.1,0-0.1c0-5.8,4.2-10.5,9.4-10.5
			c5.2,0,9.4,4.7,9.4,10.5c0,0.3,0,0.7,0,1c0,0,0,0,0,0c0,0,0,0,0,0c0,0,0,0,0,0c0.1,0.3,0,1-0.1,1.9c0,0.2-0.1,0.4-0.1,0.5
			c0,0.2-0.1,0.4-0.1,0.6c0,0.1-0.1,0.2-0.1,0.3c0,0.1-0.1,0.3-0.1,0.4c-0.1,0.3-0.2,0.6-0.3,0.8c-0.2,0.4-0.4,0.8-0.6,1.2
			c-0.1,0.1-0.2,0.3-0.2,0.4C184.1,106.4,183.7,106.9,183.3,107.3z"/>
		<path fill="#464547" d="M223.8,72.1c-0.1,1.5-0.4,6.6-1.5,13c-1.4,7.8-6.1,14.2-6.1,14.2s-2-11.7-11.3-11.2
			c-9.3,0.6-11.1,10-11.1,10c-3.5-1.4-5.7-0.5-5.7-0.5c-0.6-3.8-3.4-10.8-10.8-11.4c-7.4-0.6-11.6,7.8-11.6,7.8s-5.8-16.5-8.9-22.3
			c-3.1-5.8-10-5.7-10-5.7l-3.7,0.7c1.6-1.1,3.6-1.7,5.9-1.6c0.5,0,1,0.1,1.5,0.2c4,1.1,7.9,6.4,11.8,16.1c1.6,3.9,2.8,7.7,3.7,10.6
			c2.2-4,6.2-6.8,10.8-6.8c6.2,0,11.4,5,12.3,11.5c1.3-0.2,2.5-0.1,3.5,0.4c1.4-5.7,6.3-10,12-10c5.7,0,10.4,4.1,11.9,9.8
			c3-4.3,7.5-16.9,5.8-27.7C222.8,70.1,223.3,71.1,223.8,72.1z"/>
	</g>
	<path fill="#464547" d="M175.5,109.8c-9.4-1.7-8.2-11.1-8.2-11.1c0,2,0.5,4,1.5,5.7c1.8,3,4.7,4.8,7.9,4.8c4.9,0,9-4.2,9.4-9.5
		C186.5,101.2,184.5,111.4,175.5,109.8z"/>
	<path fill="#464547" d="M203.9,111.8c-10-0.5-8.8-12.1-8.8-12.1c0,0.3,0,0.6,0,1c0,5.8,4.2,10.5,9.4,10.5c4.2,0,7.9-3.1,9.1-7.6
		l0-0.1c0.2-0.9,0.4-1.8,0.4-2.8C214.5,103.9,212.5,112.2,203.9,111.8z"/>
	<ellipse fill="#010101" cx="178.8" cy="98.7" rx="2.8" ry="6.4"/>
	<ellipse fill="#010101" cx="201.9" cy="100.7" rx="2.6" ry="6"/>
</g>
<g id="ear">
	<path fill="#B8A278" d="M157.4,79.5C157.4,79.5,157.4,79.5,157.4,79.5c0,0-2.9-10.7-9.4-11.3c-6.5-0.6-11.2,4.2-11.4,16.3
		c-0.2,12.1,17.5,14,17.5,14l-2.6,2.1c-4.3-0.2-15.4-9.4-16.1-13.5c-0.2-1.5-0.7-4.4-0.6-7.6c0.2-5.6,2.1-12.2,10-13.4
		c1.6-0.2,3-0.1,4.3,0.2c8.5,2.5,10.6,16.8,10.7,17.7C159.3,82.1,158.4,80.6,157.4,79.5z"/>
	<path fill="#D9BD8C" d="M154.1,98.5c0,0-17.7-1.9-17.5-14c0.2-12.1,4.9-16.9,11.4-16.3c6.5,0.6,9.4,11.3,9.4,11.3
		c-5.2-5.5-14.4,1-15.3,5.3C141,89.9,154.1,98.5,154.1,98.5z"/>
</g>
<g id="calculator">
	<g>
		<path fill="#ADAFB2" d="M188.4,165.2l-22.8-29.4c0,0,0,0,0,0h0l0,0v0l-4.2-5.4l-1.8-2.3l-14.2-18.4l-29.1,20.4l-0.5,0.3l-0.9,0.6
			v0l1.2,1.5v0l0.7,0.8l0,0v0l13,15.4l0.1,0.1l0.1,0.1v0h0c0,0,0,0,0,0l4.8,5.6c0,0,0,0,0,0c0,0,0,0,0,0l0.5,0.6l0.1,0.1
			c0,0,0,0,0,0l0.6,0.7c0,0,0,0,0,0l0,0h0l0.4,0.4c0,0,0,0,0,0l0.4,0.4l10,11.9l0,0v0l0.4,0.5l0,0l0.4,0.4v0h0c0,0,0,0,0,0l0.1,0.1
			c0.2,0.3,0.8,1,1.5,2c0.7,0.9,1.6,2.1,2.6,3.3c3.2,4,7.2,8.9,7.9,9c0.4,0.1,4.1-2.3,8.7-5.3c1.9-1.3,4-2.7,6.1-4.2
			c5.9-4.1,11.7-8.1,13.3-9.3L188.4,165.2L188.4,165.2C188.4,165.3,188.4,165.3,188.4,165.2C188.4,165.2,188.4,165.2,188.4,165.2
			L188.4,165.2z M130.5,142.4L130.5,142.4l-4.4-6.1l-2.3-3.2l-0.6-0.8l22.1-17.2l5,6.5l2.6,3.4h0l-0.6,0.5L130.5,142.4z"/>
		<path fill="#4F4F51" d="M188.7,169.3c-0.1,0.4-4.2,3.3-9.4,6.6c-2.2,1.5-4.6,3-7,4.5c-6,3.9-11.6,7.3-12.3,7.3
			c-0.3,0-2.8-2.5-6.4-6.4c-0.1-0.1-0.1-0.1-0.2-0.2c-0.1-0.1-0.1-0.1-0.2-0.2c-1.5-1.6-3.2-3.5-5-5.5c-0.9-1.1-1.9-2.2-2.9-3.3
			c-5.7-6.4-12.1-13.7-17.6-20c0,0,0,0,0,0c0,0,0,0,0,0c-3.7-4.3-7-8.1-9.2-10.8c-0.2-0.3-0.5-0.6-0.7-0.9c-1.4-1.7-2.3-2.8-2.4-3.1
			c-0.9-1.8-0.4-6.3-0.4-6.3l1.2,1.5l0.7,0.8l13,15.4l0.1,0.1l0.1,0.1l0,0l4.8,5.7c0,0,0,0,0,0c0,0,0,0,0,0l0.5,0.6l0.1,0.1
			c0,0,0,0,0,0l0.6,0.7c0,0,0,0,0,0l0,0h0l0.4,0.4l0.4,0.4l10,11.9l0,0l0.4,0.5l0,0l0.4,0.4l0,0l0.1,0.1l1.7,2l2.8,3.3l7.6,9
			l8.2-5.5l6.1-4.1l14.1-9.4l0.1,0l0,0h0c0,0,0,0,0,0C188.5,165.5,188.9,168.3,188.7,169.3z"/>
	</g>
	<polygon fill="#4F4F51" points="145.3,115.1 153,125 152.4,125.4 145.4,116.4 123.9,133.1 123.3,132.3 	"/>
	<polygon fill="#FFFFFF" points="145.4,116.4 152.4,125.4 130.5,142.4 123.9,133.1 	"/>
	<path fill="#81B441" d="M141.5,121.1c0,0,0-0.1,0.1-0.2c0-0.1,0-0.2,0.1-0.2c0,0,0-0.1,0-0.1c0,0,0.1-0.1,0.1-0.1
		c0.3-0.3,0.7-0.6,1.1-0.9c0.4-0.3,0.8-0.7,1.1-0.9c0,0,0.1-0.1,0.1-0.1c0.1,0,0.1,0,0.2,0c0.1,0,0.2,0,0.3,0c0.1,0,0.2,0,0.2,0
		s0,0.1-0.1,0.2c0,0.1,0,0.2-0.1,0.2c0,0,0,0.1,0,0.1c0,0.1-0.1,0.1-0.1,0.1c-0.3,0.3-0.7,0.6-1.1,0.9c-0.4,0.3-0.8,0.7-1.1,0.9
		c0,0-0.1,0.1-0.1,0.1c-0.1,0-0.1,0-0.2,0c-0.1,0-0.2,0-0.3,0C141.6,121.1,141.5,121.1,141.5,121.1z"/>
	<path fill="#81B441" d="M144.2,124.9c0,0,0-0.1,0.1-0.2c0-0.1,0-0.2,0.1-0.2c0,0,0-0.1,0-0.1c0,0,0.1-0.1,0.1-0.1
		c0.3-0.3,0.7-0.6,1.1-0.9c0.4-0.3,0.8-0.7,1.1-0.9c0,0,0.1-0.1,0.1-0.1c0.1,0,0.1,0,0.2,0c0.1,0,0.2,0,0.3,0c0.1,0,0.2,0,0.2,0
		s0,0.1-0.1,0.2c0,0.1,0,0.2-0.1,0.2c0,0,0,0.1,0,0.1c0,0.1-0.1,0.1-0.1,0.1c-0.3,0.3-0.7,0.6-1.1,0.9c-0.4,0.3-0.8,0.7-1.1,0.9
		c0,0-0.1,0.1-0.1,0.1c-0.1,0-0.1,0-0.2,0c-0.1,0-0.2,0-0.3,0C144.3,124.9,144.2,124.9,144.2,124.9z"/>
	<path fill="#81B441" d="M130.3,136.3c0,0,0-0.1,0.1-0.2c0-0.1,0-0.2,0.1-0.2c0,0,0-0.1,0-0.1c0,0,0.1-0.1,0.1-0.1
		c0.3-0.3,0.7-0.6,1.1-0.9c0.4-0.3,0.8-0.7,1.1-0.9c0,0,0.1-0.1,0.1-0.1c0.1,0,0.1,0,0.2,0c0.1,0,0.2,0,0.3,0c0.1,0,0.2,0,0.2,0
		s0,0.1-0.1,0.2c0,0.1,0,0.2-0.1,0.2c0,0,0,0.1,0,0.1c0,0.1-0.1,0.1-0.1,0.1c-0.3,0.3-0.7,0.6-1.1,0.9c-0.4,0.3-0.8,0.7-1.1,0.9
		c0,0-0.1,0.1-0.1,0.1c-0.1,0-0.1,0-0.2,0c-0.1,0-0.2,0-0.3,0C130.4,136.3,130.3,136.3,130.3,136.3z"/>
	<path fill="#81B441" d="M146.6,128.2c0,0,0-0.1,0.1-0.2c0-0.1,0-0.2,0.1-0.2c0,0,0-0.1,0-0.1c0,0,0.1-0.1,0.1-0.1
		c0.3-0.3,0.7-0.6,1.1-0.9c0.4-0.3,0.8-0.7,1.1-0.9c0,0,0.1-0.1,0.1-0.1c0.1,0,0.1,0,0.2,0c0.1,0,0.2,0,0.3,0c0.1,0,0.2,0,0.2,0
		s0,0.1-0.1,0.2c0,0.1,0,0.2-0.1,0.2c0,0,0,0.1,0,0.1c0,0.1-0.1,0.1-0.1,0.1c-0.3,0.3-0.7,0.6-1.1,0.9c-0.4,0.3-0.8,0.7-1.1,0.9
		c0,0-0.1,0.1-0.1,0.1c-0.1,0-0.1,0-0.2,0c-0.1,0-0.2,0-0.3,0C146.7,128.2,146.6,128.2,146.6,128.2z"/>
	<path fill="#81B441" d="M145.2,118.8c0,0,0.1,0,0.2,0c0.1,0,0.1,0,0.2,0.1c0,0,0.1,0,0.1,0c0,0,0,0.1,0.1,0.1
		c0.2,0.3,0.5,0.7,0.8,1.1c0.3,0.4,0.6,0.8,0.8,1.1c0,0,0.1,0.1,0.1,0.1c0,0.1,0,0.1,0,0.1c0,0.1,0,0.2,0,0.2c0,0.1,0,0.2,0,0.2
		s-0.1,0-0.2,0c-0.1,0-0.1,0-0.2-0.1c0,0-0.1,0-0.1,0c-0.1,0,0-0.1-0.1-0.1c-0.2-0.3-0.5-0.7-0.8-1.1c-0.3-0.4-0.6-0.8-0.8-1.1
		c0,0-0.1-0.1-0.1-0.1c0-0.1,0-0.1,0-0.1c0-0.1,0-0.2,0-0.2C145.2,118.9,145.2,118.8,145.2,118.8z"/>
	<path fill="#81B441" d="M125.9,133.7c0,0,0.1,0,0.2,0c0.1,0,0.1,0,0.2,0.1c0,0,0.1,0,0.1,0c0,0,0,0.1,0.1,0.1
		c0.2,0.3,0.5,0.7,0.8,1.1c0.3,0.4,0.6,0.8,0.8,1.1c0,0,0.1,0.1,0.1,0.1c0,0.1,0,0.1,0,0.1c0,0.1,0,0.2,0,0.2c0,0.1,0,0.2,0,0.2
		s-0.1,0-0.2,0c-0.1,0-0.1,0-0.2-0.1c0,0-0.1,0-0.1,0c-0.1,0,0-0.1-0.1-0.1c-0.2-0.3-0.5-0.7-0.8-1.1c-0.3-0.4-0.6-0.8-0.8-1.1
		c0,0-0.1-0.1-0.1-0.1c0-0.1,0-0.1,0-0.1c0-0.1,0-0.2,0-0.2C125.9,133.8,125.9,133.7,125.9,133.7z"/>
	<path fill="#81B441" d="M128.6,137.2c0,0,0.1,0,0.2,0c0.1,0,0.1,0,0.2,0.1c0,0,0.1,0,0.1,0c0,0,0,0.1,0.1,0.1
		c0.2,0.3,0.5,0.7,0.8,1.1c0.3,0.4,0.6,0.8,0.8,1.1c0,0,0.1,0.1,0.1,0.1c0,0.1,0,0.1,0,0.1c0,0.1,0,0.2,0,0.2c0,0.1,0,0.2,0,0.2
		s-0.1,0-0.2,0c-0.1,0-0.1,0-0.2-0.1c0,0-0.1,0-0.1,0c-0.1,0,0-0.1-0.1-0.1c-0.2-0.3-0.5-0.7-0.8-1.1c-0.3-0.4-0.6-0.8-0.8-1.1
		c0,0-0.1-0.1-0.1-0.1c0-0.1,0-0.1,0-0.1c0-0.1,0-0.2,0-0.2C128.6,137.2,128.6,137.2,128.6,137.2z"/>
	<path fill="#81B441" d="M130.8,133.5c0,0,0.1,0,0.2,0c0.1,0,0.1,0,0.2,0.1c0,0,0.1,0,0.1,0c0,0,0,0.1,0.1,0.1
		c0.2,0.3,0.5,0.7,0.8,1.1c0.3,0.4,0.6,0.8,0.8,1.1c0,0,0.1,0.1,0.1,0.1c0,0.1,0,0.1,0,0.1c0,0.1,0,0.2,0,0.2c0,0.1,0,0.2,0,0.2
		s-0.1,0-0.2,0c-0.1,0-0.1,0-0.2-0.1c0,0-0.1,0-0.1,0c-0.1,0,0-0.1-0.1-0.1c-0.2-0.3-0.5-0.7-0.8-1.1c-0.3-0.4-0.6-0.8-0.8-1.1
		c0,0-0.1-0.1-0.1-0.1c0-0.1,0-0.1,0-0.1c0-0.1,0-0.2,0-0.2C130.8,133.5,130.8,133.5,130.8,133.5z"/>
	<path fill="#81B441" d="M147.8,122.2c0,0,0.1,0,0.2,0c0.1,0,0.1,0,0.2,0.1c0,0,0.1,0,0.1,0c0,0,0,0.1,0.1,0.1
		c0.2,0.3,0.5,0.7,0.8,1.1c0.3,0.4,0.6,0.8,0.8,1.1c0,0,0.1,0.1,0.1,0.1c0,0.1,0,0.1,0,0.1c0,0.1,0,0.2,0,0.2c0,0.1,0,0.2,0,0.2
		s-0.1,0-0.2,0c-0.1,0-0.1,0-0.2-0.1c0,0-0.1,0-0.1,0c-0.1,0,0-0.1-0.1-0.1c-0.2-0.3-0.5-0.7-0.8-1.1c-0.3-0.4-0.6-0.8-0.8-1.1
		c0,0-0.1-0.1-0.1-0.1c0-0.1,0-0.1,0-0.1c0-0.1,0-0.2,0-0.2C147.8,122.3,147.8,122.2,147.8,122.2z"/>
	<path fill="#81B441" d="M132.2,128.1c0,0,0-0.1,0.1-0.2c0-0.1,0-0.2,0.1-0.2c0,0,0-0.1,0-0.1c0,0,0.1-0.1,0.1-0.1
		c0.3-0.3,0.7-0.6,1.1-0.9c0.4-0.3,0.8-0.7,1.1-0.9c0,0,0.1-0.1,0.1-0.1c0.1,0,0.1,0,0.2,0c0.1,0,0.2,0,0.3,0c0.1,0,0.2,0,0.2,0
		s0,0.1-0.1,0.2c0,0.1,0,0.2-0.1,0.2c0,0,0,0.1,0,0.1c0,0.1-0.1,0.1-0.1,0.1c-0.3,0.3-0.7,0.6-1.1,0.9c-0.4,0.3-0.8,0.7-1.1,0.9
		c0,0-0.1,0.1-0.1,0.1c-0.1,0-0.1,0-0.2,0c-0.1,0-0.2,0-0.3,0C132.3,128.1,132.2,128.1,132.2,128.1z"/>
	<path fill="#81B441" d="M134.8,131.9c0,0,0-0.1,0.1-0.2c0-0.1,0-0.2,0.1-0.2c0,0,0-0.1,0-0.1c0,0,0.1-0.1,0.1-0.1
		c0.3-0.3,0.7-0.6,1.1-0.9c0.4-0.3,0.8-0.7,1.1-0.9c0,0,0.1-0.1,0.1-0.1c0.1,0,0.1,0,0.2,0c0.1,0,0.2,0,0.3,0c0.1,0,0.2,0,0.2,0
		s0,0.1-0.1,0.2c0,0.1,0,0.2-0.1,0.2c0,0,0,0.1,0,0.1c0,0.1-0.1,0.1-0.1,0.1c-0.3,0.3-0.7,0.6-1.1,0.9c-0.4,0.3-0.8,0.7-1.1,0.9
		c0,0-0.1,0.1-0.1,0.1c-0.1,0-0.1,0-0.2,0c-0.1,0-0.2,0-0.3,0C134.9,131.9,134.8,131.9,134.8,131.9z"/>
	<path fill="#81B441" d="M137.2,135.2c0,0,0-0.1,0.1-0.2c0-0.1,0-0.2,0.1-0.2c0,0,0-0.1,0-0.1c0,0,0.1-0.1,0.1-0.1
		c0.3-0.3,0.7-0.6,1.1-0.9c0.4-0.3,0.8-0.7,1.1-0.9c0,0,0.1-0.1,0.1-0.1c0.1,0,0.1,0,0.2,0c0.1,0,0.2,0,0.3,0c0.1,0,0.2,0,0.2,0
		s0,0.1-0.1,0.2c0,0.1,0,0.2-0.1,0.2c0,0,0,0.1,0,0.1c0,0.1-0.1,0.1-0.1,0.1c-0.3,0.3-0.7,0.6-1.1,0.9c-0.4,0.3-0.8,0.7-1.1,0.9
		c0,0-0.1,0.1-0.1,0.1c-0.1,0-0.1,0-0.2,0c-0.1,0-0.2,0-0.3,0C137.3,135.2,137.2,135.2,137.2,135.2z"/>
	<path fill="#81B441" d="M139.6,128.1c0,0,0-0.1,0.1-0.2c0-0.1,0-0.2,0.1-0.2c0,0,0-0.1,0-0.1c0,0,0.1-0.1,0.1-0.1
		c0.3-0.3,0.7-0.6,1.1-0.9c0.4-0.3,0.8-0.7,1.1-0.9c0,0,0.1-0.1,0.1-0.1c0.1,0,0.1,0,0.2,0c0.1,0,0.2,0,0.3,0c0.1,0,0.2,0,0.2,0
		s0,0.1-0.1,0.2c0,0.1,0,0.2-0.1,0.2c0,0,0,0.1,0,0.1c0,0.1-0.1,0.1-0.1,0.1c-0.3,0.3-0.7,0.6-1.1,0.9c-0.4,0.3-0.8,0.7-1.1,0.9
		c0,0-0.1,0.1-0.1,0.1c-0.1,0-0.1,0-0.2,0c-0.1,0-0.2,0-0.3,0C139.7,128.1,139.6,128.1,139.6,128.1z"/>
	<path fill="#81B441" d="M140.7,129.5c0,0,0-0.1,0.1-0.2c0-0.1,0-0.2,0.1-0.2c0,0,0-0.1,0-0.1c0,0,0.1-0.1,0.1-0.1
		c0.3-0.3,0.7-0.6,1.1-0.9c0.4-0.3,0.8-0.7,1.1-0.9c0,0,0.1-0.1,0.1-0.1c0.1,0,0.1,0,0.2,0c0.1,0,0.2,0,0.3,0c0.1,0,0.2,0,0.2,0
		s0,0.1-0.1,0.2c0,0.1,0,0.2-0.1,0.2c0,0,0,0.1,0,0.1c0,0.1-0.1,0.1-0.1,0.1c-0.3,0.3-0.7,0.6-1.1,0.9c-0.4,0.3-0.8,0.7-1.1,0.9
		c0,0-0.1,0.1-0.1,0.1c-0.1,0-0.1,0-0.2,0c-0.1,0-0.2,0-0.3,0C140.8,129.5,140.7,129.5,140.7,129.5z"/>
	<path fill="#81B441" d="M135.8,125.8c0,0,0.1,0,0.2,0c0.1,0,0.1,0,0.2,0.1c0,0,0.1,0,0.1,0c0,0,0,0.1,0.1,0.1
		c0.2,0.3,0.5,0.7,0.8,1.1c0.3,0.4,0.6,0.8,0.8,1.1c0,0,0.1,0.1,0.1,0.1c0,0.1,0,0.1,0,0.1c0,0.1,0,0.2,0,0.2c0,0.1,0,0.2,0,0.2
		s-0.1,0-0.2,0c-0.1,0-0.1,0-0.2-0.1c0,0-0.1,0-0.1,0c-0.1,0,0-0.1-0.1-0.1c-0.2-0.3-0.5-0.7-0.8-1.1c-0.3-0.4-0.6-0.8-0.8-1.1
		c0,0-0.1-0.1-0.1-0.1c0-0.1,0-0.1,0-0.1c0-0.1,0-0.2,0-0.2C135.8,125.9,135.8,125.8,135.8,125.8z"/>
	<path fill="#81B441" d="M134.6,132.3c0,0,0.1,0,0.2,0c0.1,0,0.1,0,0.2,0.1c0,0,0.1,0,0.1,0c0,0,0,0.1,0.1,0.1
		c0.2,0.3,0.5,0.7,0.8,1.1c0.3,0.4,0.6,0.8,0.8,1.1c0,0,0.1,0.1,0.1,0.1c0,0.1,0,0.1,0,0.1c0,0.1,0,0.2,0,0.2c0,0.1,0,0.2,0,0.2
		s-0.1,0-0.2,0c-0.1,0-0.1,0-0.2-0.1c0,0-0.1,0-0.1,0c-0.1,0,0-0.1-0.1-0.1c-0.2-0.3-0.5-0.7-0.8-1.1c-0.3-0.4-0.6-0.8-0.8-1.1
		c0,0-0.1-0.1-0.1-0.1c0-0.1,0-0.1,0-0.1c0-0.1,0-0.2,0-0.2C134.6,132.3,134.6,132.3,134.6,132.3z"/>
	<path fill="#FFFFFF" d="M142.6,152l-1.6,1.2c-0.7,0.5-1.7,0.4-2.3-0.3l-0.9-1.1c-0.5-0.7-0.4-1.7,0.3-2.3l1.6-1.2
		c0.7-0.5,1.7-0.4,2.3,0.3l0.9,1.1C143.4,150.5,143.3,151.5,142.6,152z"/>
	<path fill="#FFFFFF" d="M148.8,147.1l-1.6,1.2c-0.7,0.5-1.7,0.4-2.3-0.3l-0.9-1.1c-0.5-0.7-0.4-1.7,0.3-2.3l1.6-1.2
		c0.7-0.5,1.7-0.4,2.3,0.3l0.9,1.1C149.7,145.6,149.5,146.6,148.8,147.1z"/>
	<path fill="#FFFFFF" d="M155.7,141.8l-1.6,1.2c-0.7,0.5-1.7,0.4-2.3-0.3l-0.9-1.1c-0.5-0.7-0.4-1.7,0.3-2.3l1.6-1.2
		c0.7-0.5,1.7-0.4,2.3,0.3l0.9,1.1C156.5,140.3,156.4,141.3,155.7,141.8z"/>
	<path fill="#FFFFFF" d="M161.4,137.4l-1.6,1.2c-0.7,0.5-1.7,0.4-2.3-0.3l-0.9-1.1c-0.5-0.7-0.4-1.7,0.3-2.3l1.6-1.2
		c0.7-0.5,1.7-0.4,2.3,0.3l0.9,1.1C162.3,135.8,162.1,136.8,161.4,137.4z"/>
	<path fill="#FFFFFF" d="M166.3,143.6l-1.6,1.2c-0.7,0.5-1.7,0.4-2.3-0.3l-0.9-1.1c-0.5-0.7-0.4-1.7,0.3-2.3l1.6-1.2
		c0.7-0.5,1.7-0.4,2.3,0.3l0.9,1.1C167.1,142,167,143,166.3,143.6z"/>
	<path fill="#FFFFFF" d="M160.5,148.1l-1.6,1.2c-0.7,0.5-1.7,0.4-2.3-0.3l-0.9-1.1c-0.5-0.7-0.4-1.7,0.3-2.3l1.6-1.2
		c0.7-0.5,1.7-0.4,2.3,0.3l0.9,1.1C161.3,146.5,161.2,147.5,160.5,148.1z"/>
	<path fill="#FFFFFF" d="M153.7,153.4l-1.6,1.2c-0.7,0.5-1.7,0.4-2.3-0.3l-0.9-1.1c-0.5-0.7-0.4-1.7,0.3-2.3l1.6-1.2
		c0.7-0.5,1.7-0.4,2.3,0.3l0.9,1.1C154.5,151.8,154.4,152.8,153.7,153.4z"/>
	<path fill="#FFFFFF" d="M147.7,158.6l-1.6,1.2c-0.7,0.5-1.7,0.4-2.3-0.3l-0.9-1.1c-0.5-0.7-0.4-1.7,0.3-2.3l1.6-1.2
		c0.7-0.5,1.7-0.4,2.3,0.3l0.9,1.1C148.6,157.1,148.4,158.1,147.7,158.6z"/>
	<path fill="#FFFFFF" d="M153,165.5l-1.6,1.2c-0.7,0.5-1.7,0.4-2.3-0.3l-0.9-1.1c-0.5-0.7-0.4-1.7,0.3-2.3l1.6-1.2
		c0.7-0.5,1.7-0.4,2.3,0.3l0.9,1.1C153.9,163.9,153.7,164.9,153,165.5z"/>
	<path fill="#FFFFFF" d="M159.6,161l-1.6,1.2c-0.7,0.5-1.7,0.4-2.3-0.3l-0.9-1.1c-0.5-0.7-0.4-1.7,0.3-2.3l1.6-1.2
		c0.7-0.5,1.7-0.4,2.3,0.3l0.9,1.1C160.4,159.4,160.3,160.5,159.6,161z"/>
	<path fill="#FFFFFF" d="M166.1,155.3l-1.6,1.2c-0.7,0.5-1.7,0.4-2.3-0.3l-0.9-1.1c-0.5-0.7-0.4-1.7,0.3-2.3l1.6-1.2
		c0.7-0.5,1.7-0.4,2.3,0.3l0.9,1.1C166.9,153.7,166.8,154.7,166.1,155.3z"/>
	<path fill="#FFFFFF" d="M176.6,157.3l-1.3,1c-0.8,0.6-1.9,0.5-2.6-0.3l-5.5-7.1c-0.6-0.8-0.5-1.9,0.3-2.6l1.3-1
		c0.8-0.6,1.9-0.5,2.6,0.3l5.5,7.1C177.6,155.5,177.4,156.7,176.6,157.3z"/>
	<path fill="#FFFFFF" d="M171,161.6l-1.6,1.2c-0.7,0.5-1.7,0.4-2.3-0.3l-0.9-1.1c-0.5-0.7-0.4-1.7,0.3-2.3l1.6-1.2
		c0.7-0.5,1.7-0.4,2.3,0.3l0.9,1.1C171.9,160.1,171.7,161.1,171,161.6z"/>
	<path fill="#FFFFFF" d="M163.7,166.8l-1.6,1.2c-0.7,0.5-1.7,0.4-2.3-0.3l-0.9-1.1c-0.5-0.7-0.4-1.7,0.3-2.3l1.6-1.2
		c0.7-0.5,1.7-0.4,2.3,0.3l0.9,1.1C164.6,165.2,164.4,166.3,163.7,166.8z"/>
	<path fill="#FFFFFF" d="M158.1,171.2l-1.6,1.2c-0.7,0.5-1.7,0.4-2.3-0.3l-0.9-1.1c-0.5-0.7-0.4-1.7,0.3-2.3l1.6-1.2
		c0.7-0.5,1.7-0.4,2.3,0.3l0.9,1.1C158.9,169.6,158.8,170.6,158.1,171.2z"/>
	<g>
		<path fill="#D9BD8C" d="M153.1,183.4c-0.5,0.8-1.4,1.5-2.6,1.8c-1.2,0.3-2.5,0.2-3.8-0.2c-1.3-0.4-2.6-1.1-3.9-1.9
			c-1.3-0.9-2.4-2-3.5-3.1c-0.3-0.3-0.5-0.6-0.8-0.9l-0.8-1c-0.4-0.4-0.7-0.9-1-1.4c-0.1-0.2-0.3-0.4-0.4-0.6
			c-0.5-0.7-0.9-1.4-1.4-2.1c-0.2-0.3-0.3-0.6-0.5-0.9c-0.2-0.4-0.5-0.8-0.7-1.2c-0.4-0.7-0.8-1.4-1.1-2.2c-0.4-0.7-0.7-1.4-1-2.1
			s-0.6-1.4-0.9-2.1c-0.3-0.7-0.6-1.4-0.8-2c-0.3-0.7-0.5-1.3-0.8-2c-0.2-0.6-0.4-1.2-0.6-1.8c-0.3-1.2-0.5-2.3-0.7-3.3
			c-0.1-1-0.2-1.9-0.1-2.6c0-0.7,0.1-1.2,0.2-1.6c0,0,0-0.1,0-0.1c0-0.2,0.1-0.3,0.1-0.4c0,0,0,0,0-0.1c0,0,0,0,0,0.1
			c0,0,0-0.1,0-0.2c0.2-0.6,0.6-1.2,1-1.6c0.2-0.2,0.5-0.4,0.7-0.6c0.3-0.2,0.5-0.3,0.9-0.4c0.3-0.1,0.6-0.1,0.9-0.1
			c0.3,0,0.6,0.1,0.8,0.2c0.2,0.1,0.5,0.3,0.7,0.5c0.2,0.2,0.4,0.5,0.5,0.7c0.3,0.5,0.5,1.1,0.7,1.7c0.2,0.6,0.4,1.2,0.5,1.9
			c0.1,0.6,0.2,1.3,0.3,1.9c0.1,0.6,0.2,1.3,0.2,1.9l0.1,1.6l0.9-1.3c0.1-0.2,0.3-0.4,0.4-0.5c0.1-0.2,0.3-0.3,0.5-0.5
			c0.3-0.3,0.7-0.6,1-0.8c0.2-0.1,0.4-0.2,0.5-0.2c0.2,0,0.3,0,0.5,0c0.2,0,0.3,0.1,0.5,0.2c0.1,0.1,0.3,0.2,0.4,0.4
			c0.1,0.2,0.3,0.3,0.4,0.5c0.1,0.2,0.2,0.4,0.3,0.6c0.1,0.2,0.2,0.4,0.3,0.6s0.2,0.4,0.2,0.7c0.1,0.2,0.1,0.5,0.2,0.7
			c0.1,0.2,0.1,0.5,0.2,0.7c0.1,0.4,0.2,0.9,0.3,1.4l0.2,1.1l0.8-0.8c0.2-0.2,0.4-0.3,0.6-0.5c0.2-0.2,0.4-0.3,0.7-0.4
			c0.4-0.2,0.9-0.3,1.2-0.1c0.2,0.1,0.3,0.2,0.5,0.3c0.1,0.1,0.3,0.3,0.4,0.6c0.1,0.2,0.2,0.5,0.3,0.7c0.1,0.2,0.1,0.5,0.2,0.8
			c0,0.3,0.1,0.5,0.1,0.8c0,0.3,0.1,0.5,0.1,0.8c0.1,0.6,0.1,1.1,0.1,1.7c0,1.1,0,2.2-0.1,3.3v0c0,0,0,0.1,0,0.1c0,0.1,0,0.2,0,0.2
			c0,0.1,0,0.3,0,0.4c0,0.3,0.1,0.5,0.1,0.7c0.1,0.2,0.1,0.5,0.2,0.7c0.1,0.2,0.2,0.4,0.3,0.6c0.1,0.2,0.2,0.4,0.3,0.6l0.4,0.6
			c0.2,0.4,0.5,0.8,0.8,1.1c0.1,0.2,0.2,0.3,0.4,0.5l0,0c0.1,0.2,0.3,0.4,0.4,0.5c0.3,0.3,0.6,0.7,0.9,1c0.3,0.3,0.6,0.7,0.9,1
			l0.9,1c0,0,0,0,0.1,0.1c0,0,0,0,0,0c0,0.1,0.2,0.2,0.3,0.5c0.1,0.2,0.2,0.4,0.3,0.6c0.1,0.2,0.2,0.5,0.3,0.8c0,0,0,0.1,0,0.1
			C153.6,181.7,153.6,182.6,153.1,183.4z"/>
		<path fill="#D9BD8C" d="M149.7,176c-0.2-0.2-0.3-0.3-0.4-0.5l2.7,3l0.4,0.5l-0.9-1c-0.3-0.3-0.6-0.7-0.9-1
			C150.3,176.7,150,176.4,149.7,176z"/>
		<path fill="#D9BD8C" d="M128.5,161.4c0,0-1.8-5.6-0.7-9.5c0-0.1,0-0.2,0.1-0.2c0,0,0,0,0-0.1c0,0,0,0,0,0.1c0,0.1,0,0.2-0.1,0.4
			c0,0,0,0,0,0.1c-0.1,0.4-0.1,0.9-0.2,1.6c0,0.7,0,1.6,0.1,2.6c0.1,1,0.4,2.1,0.7,3.3c0.2,0.6,0.3,1.2,0.6,1.8
			c0.2,0.6,0.5,1.3,0.8,2c0.2,0.7,0.5,1.3,0.8,2c0.3,0.7,0.6,1.4,0.9,2.1s0.7,1.4,1,2.1c0.4,0.7,0.7,1.4,1.1,2.2
			c0.2,0.4,0.5,0.8,0.7,1.2c0.2,0.3,0.3,0.6,0.5,0.9c0.5,0.7,0.9,1.4,1.4,2.1c0.1,0.2,0.3,0.4,0.4,0.6c0.3,0.5,0.7,1,1,1.4l0.8,1
			c0.3,0.3,0.5,0.6,0.8,0.9c1.1,1.2,2.2,2.3,3.5,3.1c1.2,0.8,2.6,1.5,3.9,1.9c1.3,0.4,2.6,0.5,3.8,0.2c1.1-0.3,2.1-0.9,2.6-1.8
			c0.5-0.8,0.5-1.7,0.4-2.4c0,0,0-0.1,0-0.1c-0.1-0.3-0.2-0.6-0.3-0.8c-0.1-0.2-0.2-0.5-0.3-0.6c-0.2-0.2-0.3-0.4-0.3-0.5
			c0,0,0,0,0,0c0,0,0,0,0,0l0,0C158.5,186.3,139.9,195.1,128.5,161.4z"/>
		<path fill="#3E2711" d="M153.5,183.7c-0.5,1-1.5,1.8-2.8,2.2c-1.3,0.4-2.8,0.4-4.2,0c-1.5-0.4-2.9-1-4.3-1.9
			c-1.4-0.9-2.6-2-3.8-3.2c-0.3-0.3-0.6-0.6-0.9-0.9l-0.8-1c-0.6-0.6-1-1.3-1.5-2h0c0,0,0,0,0,0c-0.5-0.7-0.9-1.4-1.4-2.1
			c-0.3-0.5-0.5-0.9-0.8-1.3c-0.2-0.3-0.3-0.6-0.5-0.9c-0.4-0.7-0.7-1.5-1.1-2.2c-0.3-0.7-0.6-1.5-1-2.2c-0.3-0.7-0.6-1.4-0.9-2.2
			c-0.3-0.7-0.5-1.4-0.8-2.1c-0.2-0.7-0.5-1.3-0.7-2c-0.2-0.7-0.3-1.3-0.5-1.9c-0.5-2.5-0.5-4.7-0.4-6.1c0.1-0.7,0.2-1.3,0.4-1.6
			c0,0,0,0,0,0c0-0.1,0-0.1,0.1-0.2c0-0.1,0-0.2,0.1-0.2c0,0,0,0,0-0.1c0,0,0,0,0,0.1c0,0.1,0,0.2-0.1,0.4c0,0,0,0,0,0.1
			c-0.1,0.4-0.1,0.9-0.2,1.6c0,0.7,0,1.6,0.1,2.6c0.1,1,0.4,2.1,0.7,3.3c0.2,0.6,0.3,1.2,0.6,1.8c0.2,0.6,0.5,1.3,0.8,2
			c0.2,0.7,0.5,1.3,0.8,2c0.3,0.7,0.6,1.4,0.9,2.1s0.7,1.4,1,2.1c0.4,0.7,0.7,1.4,1.1,2.2c0.2,0.4,0.5,0.8,0.7,1.2
			c0.2,0.3,0.3,0.6,0.5,0.9c0.5,0.7,0.9,1.4,1.4,2.1c0.1,0.2,0.3,0.4,0.4,0.6c0.3,0.5,0.7,1,1,1.4l0.8,1c0.3,0.3,0.5,0.6,0.8,0.9
			c1.1,1.2,2.2,2.3,3.5,3.1c1.2,0.8,2.6,1.5,3.9,1.9c1.3,0.4,2.6,0.5,3.8,0.2c1.1-0.3,2.1-0.9,2.6-1.8c0.5-0.8,0.5-1.7,0.4-2.4
			c0,0,0-0.1,0-0.1c-0.1-0.3-0.2-0.6-0.3-0.8c-0.1-0.2-0.2-0.5-0.3-0.6c-0.2-0.2-0.3-0.4-0.3-0.5c0,0,0,0,0,0c0,0,0,0,0,0l0,0
			c0.1,0.1,0.2,0.2,0.3,0.3c0.1,0.1,0.3,0.3,0.4,0.6c0.2,0.2,0.3,0.6,0.4,0.9c0,0.1,0.1,0.2,0.1,0.4
			C153.9,182,153.9,182.8,153.5,183.7z"/>
	</g>
	<g>
		<path fill="#D9BD8C" d="M152,178.5l-2.7-3l0,0c-0.1-0.2-0.3-0.3-0.4-0.5c-0.3-0.4-0.5-0.7-0.8-1.1l-0.4-0.6
			c-0.1-0.2-0.2-0.4-0.3-0.6c-0.1-0.2-0.2-0.4-0.3-0.6c-0.1-0.2-0.2-0.4-0.2-0.7c-0.1-0.2-0.1-0.5-0.1-0.7c0-0.1,0-0.3,0-0.4
			c0-0.1,0-0.1,0-0.2c0,0,0-0.1,0-0.1v0c0.1-1.1,0.1-2.2,0.1-3.3c0-0.6,0-1.1-0.1-1.7c0-0.3,0-0.5-0.1-0.8c0-0.3-0.1-0.5-0.1-0.8
			c-0.1-0.3-0.1-0.5-0.2-0.8c-0.1-0.3-0.2-0.5-0.3-0.7c-0.1-0.2-0.2-0.4-0.4-0.6c-0.1-0.2-0.3-0.3-0.5-0.3c-0.3-0.1-0.8-0.1-1.2,0.1
			c-0.2,0.1-0.4,0.2-0.7,0.4c-0.2,0.1-0.4,0.3-0.6,0.5l-0.8,0.8l-0.2-1.1c-0.1-0.5-0.2-0.9-0.3-1.4c-0.1-0.2-0.1-0.5-0.2-0.7
			c-0.1-0.2-0.1-0.5-0.2-0.7c-0.1-0.2-0.1-0.4-0.2-0.7s-0.2-0.4-0.3-0.6c-0.1-0.2-0.2-0.4-0.3-0.6c-0.1-0.2-0.2-0.3-0.4-0.5
			c-0.1-0.1-0.3-0.3-0.4-0.4c-0.2-0.1-0.3-0.2-0.5-0.2c-0.2,0-0.3,0-0.5,0c-0.2,0-0.4,0.1-0.5,0.2c-0.3,0.2-0.7,0.5-1,0.8
			c-0.2,0.2-0.3,0.3-0.5,0.5c-0.1,0.2-0.3,0.4-0.4,0.5l-0.9,1.3l-0.1-1.6c0-0.6-0.1-1.3-0.2-1.9c-0.1-0.6-0.2-1.3-0.3-1.9
			c-0.1-0.6-0.3-1.2-0.5-1.9c-0.2-0.6-0.4-1.2-0.7-1.7c-0.2-0.3-0.3-0.5-0.5-0.7c-0.2-0.2-0.4-0.4-0.7-0.5c-0.2-0.1-0.5-0.2-0.8-0.2
			c-0.3,0-0.6,0-0.9,0.1c-0.3,0.1-0.6,0.2-0.9,0.4c-0.3,0.2-0.5,0.4-0.7,0.6c-0.4,0.5-0.8,1-1,1.6c0.4-1.2,1.1-2.1,2.2-2.7
			c4-2,5.2,5.4,5.5,7.9c0,0.3,0,0.5,0.1,0.6c0,0.1,0,0.2,0,0.2s0-0.1,0.1-0.1c0.1-0.1,0.2-0.3,0.4-0.5c1.2-1.5,4.4-4.4,6.2,3.8
			c0,0.1,0.1,0.2,0.1,0.4c0,0.1,0,0.2,0.1,0.3c0,0,0.1-0.1,0.2-0.2c0.1-0.1,0.2-0.1,0.3-0.2c1.4-1.1,5.3-2.8,4.2,9.1
			C147.3,170,146.1,171.8,152,178.5z"/>
		<path fill="#3E2711" d="M152.4,179l-0.9-1c-0.3-0.3-0.6-0.7-0.9-1c-0.3-0.3-0.6-0.7-0.9-1c-0.2-0.2-0.3-0.3-0.4-0.5l0,0
			c-0.1-0.2-0.3-0.3-0.4-0.5c-0.3-0.4-0.5-0.7-0.8-1.1l-0.4-0.6c-0.1-0.2-0.2-0.4-0.3-0.6c-0.1-0.2-0.2-0.4-0.3-0.6
			c-0.1-0.2-0.2-0.4-0.2-0.7c-0.1-0.2-0.1-0.5-0.1-0.7c0-0.1,0-0.3,0-0.4c0-0.1,0-0.1,0-0.2c0,0,0-0.1,0-0.1v0
			c0.1-1.1,0.1-2.2,0.1-3.3c0-0.6,0-1.1-0.1-1.7c0-0.3,0-0.5-0.1-0.8c0-0.3-0.1-0.5-0.1-0.8c-0.1-0.3-0.1-0.5-0.2-0.8
			c-0.1-0.3-0.2-0.5-0.3-0.7c-0.1-0.2-0.2-0.4-0.4-0.6c-0.1-0.2-0.3-0.3-0.5-0.3c-0.3-0.1-0.8-0.1-1.2,0.1c-0.2,0.1-0.4,0.2-0.7,0.4
			c-0.2,0.1-0.4,0.3-0.6,0.5l-0.8,0.8l-0.2-1.1c-0.1-0.5-0.2-0.9-0.3-1.4c-0.1-0.2-0.1-0.5-0.2-0.7c-0.1-0.2-0.1-0.5-0.2-0.7
			c-0.1-0.2-0.1-0.4-0.2-0.7s-0.2-0.4-0.3-0.6c-0.1-0.2-0.2-0.4-0.3-0.6c-0.1-0.2-0.2-0.3-0.4-0.5c-0.1-0.1-0.3-0.3-0.4-0.4
			c-0.2-0.1-0.3-0.2-0.5-0.2c-0.2,0-0.3,0-0.5,0c-0.2,0-0.4,0.1-0.5,0.2c-0.3,0.2-0.7,0.5-1,0.8c-0.2,0.2-0.3,0.3-0.5,0.5
			c-0.1,0.2-0.3,0.4-0.4,0.5l-0.9,1.3l-0.1-1.6c0-0.6-0.1-1.3-0.2-1.9c-0.1-0.6-0.2-1.3-0.3-1.9c-0.1-0.6-0.3-1.2-0.5-1.9
			c-0.2-0.6-0.4-1.2-0.7-1.7c-0.2-0.3-0.3-0.5-0.5-0.7c-0.2-0.2-0.4-0.4-0.7-0.5c-0.2-0.1-0.5-0.2-0.8-0.2c-0.3,0-0.6,0-0.9,0.1
			c-0.3,0.1-0.6,0.2-0.9,0.4c-0.3,0.2-0.5,0.4-0.7,0.6c-0.4,0.5-0.8,1-1,1.6c0.2-0.6,0.4-1.2,0.9-1.8c0.2-0.3,0.4-0.5,0.7-0.7
			c0.3-0.2,0.6-0.4,0.9-0.5c0.3-0.1,0.7-0.2,1-0.3c0.4,0,0.7,0,1.1,0.2c0.3,0.1,0.6,0.4,0.9,0.6c0.3,0.2,0.5,0.5,0.7,0.8
			c0.8,1.1,1.2,2.4,1.5,3.7c0.2,0.7,0.3,1.3,0.4,2c0,0.2,0.1,0.5,0.1,0.7c0-0.1,0.1-0.1,0.1-0.2c0.4-0.4,0.8-0.7,1.3-1
			c0.2-0.1,0.5-0.3,0.8-0.3c0.3-0.1,0.6-0.1,1,0c0.3,0,0.6,0.2,0.9,0.3c0.3,0.2,0.5,0.4,0.7,0.6c0.2,0.2,0.4,0.4,0.5,0.7
			c0.2,0.2,0.3,0.5,0.4,0.7c0.1,0.2,0.2,0.5,0.3,0.7c0.1,0.2,0.2,0.5,0.3,0.7c0.1,0.2,0.2,0.5,0.2,0.7c0.1,0.2,0.1,0.5,0.2,0.7
			c0,0.2,0.1,0.3,0.1,0.5c0.2-0.2,0.5-0.3,0.8-0.4c0.3-0.1,0.6-0.2,1-0.3c0.4,0,0.8,0,1.1,0.1c0.4,0.1,0.7,0.4,0.9,0.7
			c0.2,0.3,0.4,0.6,0.5,0.9c0.1,0.3,0.2,0.6,0.3,0.9c0.1,0.3,0.1,0.6,0.2,0.9c0,0.3,0.1,0.6,0.1,0.9c0,0.3,0.1,0.6,0.1,0.9
			c0,0.6,0,1.2,0,1.8c0,1.2-0.1,2.3-0.3,3.5l-0.1,0.2c0,0,0,0,0,0c0,0,0,0.1,0,0.1c0,0.1,0,0.2,0,0.3c0,0.2,0,0.4,0.1,0.6
			s0.1,0.4,0.2,0.6c0.1,0.2,0.1,0.4,0.2,0.6c0.1,0.2,0.2,0.4,0.3,0.6l0.3,0.6c0.2,0.4,0.4,0.8,0.7,1.1c0.2,0.4,0.5,0.8,0.7,1.1
			c0.2,0.4,0.5,0.7,0.8,1.1C151.3,177.6,151.8,178.3,152.4,179z"/>
	</g>
	<g>
		<rect x="61.9" y="175.5" fill="none" width="135.7" height="98.7"/>
		<path fill="#553278" d="M62.7,186.6v-5.5c0-3.9,1.6-5.9,4.8-5.9c0.7,0,1.3,0.1,1.8,0.3c0.5,0.2,1,0.4,1.3,0.8
			c0.4,0.3,0.7,0.7,0.9,1.2c0.2,0.5,0.4,1,0.5,1.5c0.1,0.6,0.2,1.2,0.2,1.8v1.4h-3.3v-1.5c0-0.3,0-0.6,0-0.8c0-0.2,0-0.5-0.1-0.8
			c-0.1-0.3-0.1-0.5-0.2-0.7c-0.1-0.2-0.2-0.3-0.4-0.4c-0.2-0.1-0.4-0.2-0.6-0.2c-1,0-1.5,0.8-1.5,2.5v7.2c0,1.6,0.5,2.5,1.5,2.5
			c0.3,0,0.5-0.1,0.7-0.3c0.2-0.2,0.3-0.4,0.4-0.7c0.1-0.3,0.1-0.6,0.2-0.9c0-0.3,0-0.6,0-1v-1.7h3.3v1.4c0,0.6-0.1,1.2-0.2,1.8
			c-0.1,0.5-0.3,1.1-0.5,1.6s-0.5,0.9-0.8,1.3c-0.3,0.3-0.8,0.6-1.3,0.8c-0.5,0.2-1.2,0.3-1.9,0.3c-0.7,0-1.4-0.1-1.9-0.3
			c-0.6-0.2-1-0.5-1.4-0.8c-0.4-0.3-0.7-0.8-0.9-1.3c-0.2-0.5-0.4-1-0.5-1.6C62.7,187.9,62.7,187.3,62.7,186.6z"/>
		<path fill="#553278" d="M73.5,189.1v-5.1c0-1.3,0.3-2.3,0.9-3c0.6-0.7,1.6-1.1,2.9-1.1c1.3,0,2.3,0.4,2.9,1.1
			c0.6,0.7,0.9,1.7,0.9,3v5.1c0,1-0.4,1.8-1.1,2.5c-0.7,0.6-1.6,1-2.7,1c-0.7,0-1.3-0.1-1.9-0.4c-0.6-0.3-1-0.7-1.4-1.2
			C73.7,190.3,73.5,189.7,73.5,189.1z M78,189.1v-6c0-0.6-0.2-0.9-0.7-0.9c-0.4,0-0.6,0.3-0.6,0.9v6c0,0.1,0,0.2,0,0.3
			c0,0.1,0,0.2,0.1,0.3s0.1,0.2,0.2,0.3c0.1,0.1,0.2,0.1,0.4,0.1C77.8,190.1,78,189.8,78,189.1z"/>
		<path fill="#553278" d="M82.6,189.9v-9.8h3.1v9c0,0.7,0.1,1,0.4,1c0.3,0,0.6-0.2,1-0.7v-9.3h3.1v12.1h-3.1v-1
			c-0.3,0.4-0.7,0.7-1.1,0.9c-0.4,0.2-0.8,0.4-1.3,0.4c-0.6,0-1.2-0.3-1.5-0.8C82.8,191.1,82.6,190.5,82.6,189.9z"/>
		<path fill="#553278" d="M92,192.2v-12.1h3.1v0.9c0.3-0.3,0.7-0.6,1.1-0.8c0.4-0.2,0.9-0.3,1.3-0.3c0.4,0,0.8,0.1,1.1,0.4
			c0.3,0.3,0.6,0.6,0.8,1c0.2,0.4,0.2,0.8,0.2,1.2v9.8h-3.1V183c0-0.5-0.2-0.8-0.5-0.8c0,0-0.1,0-0.1,0c0,0-0.1,0-0.1,0
			c0,0-0.1,0-0.1,0.1c0,0-0.1,0-0.1,0.1c0,0-0.1,0.1-0.1,0.1c0,0-0.1,0.1-0.1,0.1c0,0-0.1,0.1-0.1,0.1c0,0,0,0-0.1,0.1l-0.1,0.1v9.4
			H92z"/>
		<path fill="#553278" d="M101.6,188.1v-5.9h-0.9v-2.1h0.9v-4h3.1v4h1.5v2.1h-1.5v6.6c0,0.3,0.1,0.6,0.2,0.7
			c0.1,0.2,0.3,0.2,0.7,0.2c0.4,0,0.7,0,0.9-0.1v2.4c-0.4,0.1-1.1,0.2-2,0.2c-0.4,0-0.7,0-1-0.1c-0.3-0.1-0.5-0.2-0.7-0.3
			c-0.2-0.1-0.4-0.3-0.5-0.6c-0.1-0.2-0.3-0.4-0.3-0.7c-0.1-0.2-0.1-0.5-0.2-0.8c0-0.3-0.1-0.6-0.1-0.9
			C101.6,188.7,101.6,188.4,101.6,188.1z"/>
		<path fill="#553278" d="M107.6,179v-2.9h3.1v2.9H107.6z M107.6,192.2v-12.1h3.1v12.1H107.6z"/>
		<path fill="#553278" d="M112.5,192.2v-12.1h3.1v0.9c0.3-0.3,0.7-0.6,1.1-0.8c0.4-0.2,0.9-0.3,1.3-0.3c0.4,0,0.8,0.1,1.1,0.4
			c0.3,0.3,0.6,0.6,0.8,1c0.2,0.4,0.2,0.8,0.2,1.2v9.8H117V183c0-0.5-0.2-0.8-0.5-0.8c0,0-0.1,0-0.1,0c0,0-0.1,0-0.1,0
			c0,0-0.1,0-0.1,0.1c0,0-0.1,0-0.1,0.1c0,0-0.1,0.1-0.1,0.1c0,0-0.1,0.1-0.1,0.1c0,0-0.1,0.1-0.1,0.1c0,0,0,0-0.1,0.1l-0.1,0.1v9.4
			H112.5z"/>
		<path fill="#553278" d="M124,189.1c0,0.1,0.1,0.3,0.3,0.4c0.2,0.1,0.5,0.2,0.8,0.2c0.3,0.1,0.7,0.1,1.1,0.2
			c0.4,0.1,0.8,0.2,1.2,0.3c0.4,0.1,0.8,0.2,1.1,0.4c0.3,0.2,0.6,0.4,0.8,0.7c0.2,0.3,0.3,0.6,0.3,1c0,0.5-0.1,1-0.2,1.4
			c-0.2,0.4-0.4,0.7-0.6,0.9c-0.2,0.2-0.6,0.4-0.9,0.6s-0.7,0.2-1.1,0.3c-0.4,0.1-0.8,0.1-1.3,0.1c-3,0-4.5-0.7-4.5-2.2
			c0-0.4,0.1-0.9,0.4-1.3c0.2-0.4,0.5-0.8,0.9-1c-0.3-0.1-0.5-0.3-0.7-0.5c-0.2-0.2-0.4-0.3-0.4-0.5c0-0.4,0.4-1.1,1.2-2.1
			c-0.6-1.2-0.9-2.3-0.9-3.5c0-0.6,0.1-1.2,0.2-1.7c0.1-0.5,0.4-1,0.6-1.4c0.3-0.4,0.7-0.8,1.2-1c0.5-0.3,1-0.4,1.7-0.4
			c1,0,1.7,0.3,2.2,0.8c0.5-0.5,1.2-0.8,2.3-0.8h0.4l-0.3,2.2c-0.6,0-1.1,0.1-1.3,0.4c0.3,0.5,0.4,1.2,0.4,2.1
			c0,0.6-0.1,1.1-0.2,1.6c-0.2,0.5-0.4,0.9-0.7,1.3c-0.3,0.4-0.7,0.7-1.2,0.9c-0.5,0.2-1,0.3-1.6,0.3c-0.1,0-0.3,0-0.4,0
			c-0.2,0-0.3,0-0.4-0.1l-0.2,0C124,188.8,124,189,124,189.1z M124.2,191.5H124c-0.3,0.4-0.4,0.8-0.4,1.2c0,0.4,0.7,0.5,2.1,0.5
			c0,0,0,0,0.1,0c0.7,0,1.1-0.2,1.1-0.6c0-0.1,0-0.3-0.1-0.4c-0.1-0.1-0.2-0.2-0.4-0.3c-0.2-0.1-0.3-0.1-0.5-0.2
			c-0.2,0-0.3-0.1-0.6-0.1c-0.2,0-0.4,0-0.5-0.1C124.6,191.5,124.4,191.5,124.2,191.5z M125.2,186.3c0.5,0,0.8-0.7,0.8-2.2
			c0-1.5-0.2-2.2-0.7-2.2c-0.1,0-0.2,0-0.3,0.1c-0.1,0.1-0.2,0.2-0.2,0.3c-0.1,0.1-0.1,0.3-0.1,0.4c0,0.1-0.1,0.3-0.1,0.5
			c0,0.2,0,0.4,0,0.5c0,0.1,0,0.3,0,0.5C124.5,185.7,124.7,186.3,125.2,186.3z"/>
		<path fill="#FFFFFF" d="M64.8,204.3c-0.4,0-0.7-0.1-1-0.2c-0.3-0.1-0.5-0.2-0.7-0.4s-0.3-0.4-0.4-0.7s-0.2-0.6-0.2-0.9
			s-0.1-0.7-0.1-1.1v-2.5c0-0.4,0-0.7,0.1-1.1s0.1-0.6,0.2-0.9s0.3-0.5,0.4-0.7c0.2-0.2,0.4-0.3,0.7-0.4c0.3-0.1,0.6-0.2,1-0.2
			c0.4,0,0.8,0.1,1.1,0.2c0.3,0.1,0.5,0.3,0.7,0.5s0.3,0.5,0.4,0.8c0.1,0.3,0.1,0.7,0.2,1.1c0,0.1,0,0.2,0,0.3h-1.2V198
			c0-0.2,0-0.3,0-0.4s0-0.2-0.1-0.4c0-0.1-0.1-0.2-0.1-0.3s-0.1-0.2-0.2-0.2s-0.2-0.1-0.3-0.2s-0.3-0.1-0.4-0.1
			c-0.2,0-0.4,0-0.5,0.1c-0.1,0.1-0.3,0.1-0.3,0.3s-0.1,0.2-0.2,0.4c0,0.2-0.1,0.3-0.1,0.5s0,0.4,0,0.6v3.1c0,0.2,0,0.4,0,0.6
			c0,0.2,0.1,0.3,0.1,0.5s0.1,0.3,0.2,0.4c0.1,0.1,0.2,0.2,0.3,0.3s0.3,0.1,0.5,0.1s0.3,0,0.5-0.1c0.1-0.1,0.2-0.2,0.3-0.3
			c0.1-0.1,0.1-0.3,0.2-0.4c0-0.2,0.1-0.3,0.1-0.5c0-0.2,0-0.4,0-0.6v-0.3h1.2v0.3c0,0.5,0,0.8-0.1,1.2s-0.2,0.6-0.4,0.9
			s-0.4,0.5-0.7,0.6S65.2,204.3,64.8,204.3z"/>
		<path fill="#FFFFFF" d="M67.9,204.2v-8.8h1.2v3.2c0.2-0.2,0.3-0.3,0.5-0.4s0.3-0.2,0.5-0.3s0.4-0.1,0.7-0.1c0.3,0,0.5,0.1,0.6,0.3
			s0.2,0.4,0.2,0.7v5.3h-1.2v-4.7c0-0.2,0-0.4-0.1-0.5c-0.1-0.1-0.2-0.2-0.3-0.2c-0.3,0-0.5,0.1-0.8,0.4v4.9H67.9z"/>
		<path fill="#FFFFFF" d="M72.8,197v-1.2H74v1.2H72.8z M72.8,204.2V198H74v6.2H72.8z"/>
		<path fill="#FFFFFF" d="M75.2,204.2V198h1.2v0.7c0.4-0.5,1-0.8,1.6-0.8c0.3,0,0.5,0.1,0.7,0.2s0.2,0.3,0.3,0.6
			c0.2-0.3,0.4-0.5,0.7-0.6c0.2-0.1,0.5-0.2,0.9-0.2c0.1,0,0.2,0,0.3,0s0.2,0,0.2,0.1s0.1,0.1,0.2,0.1s0.1,0.1,0.1,0.2
			s0.1,0.1,0.1,0.2c0,0.1,0,0.2,0,0.2c0,0.1,0,0.2,0,0.3c0,0.1,0,0.2,0,0.3s0,0.2,0,0.3c0,0,0,0.1,0,0.1v4.5h-1.2v-4.6
			c0,0,0,0,0-0.1c0-0.1,0-0.2,0-0.2s0-0.1,0-0.2s0-0.1-0.1-0.2c0,0-0.1-0.1-0.2-0.1c-0.1,0-0.3,0-0.4,0.1s-0.2,0.1-0.3,0.1
			s-0.2,0.1-0.3,0.2v4.9h-1.2v-4.5c0,0,0,0,0-0.1c0-0.1,0-0.2,0-0.2c0,0,0-0.1,0-0.2s0-0.1,0-0.2c0,0-0.1-0.1-0.1-0.1s-0.1,0-0.2,0
			c-0.3,0-0.6,0.1-0.9,0.4v4.9H75.2z"/>
		<path fill="#FFFFFF" d="M82.6,206.1V198h1.2v0.6c0.1-0.1,0.2-0.2,0.2-0.2s0.1-0.1,0.2-0.2c0.1-0.1,0.2-0.1,0.2-0.2
			c0.1,0,0.2-0.1,0.3-0.1s0.2,0,0.3,0c0.2,0,0.4,0,0.6,0.1s0.3,0.2,0.4,0.3s0.2,0.3,0.3,0.5s0.1,0.4,0.2,0.5c0,0.2,0.1,0.4,0.1,0.7
			c0,0.3,0,0.5,0,0.7s0,0.4,0,0.7v0.1c0,0.3,0,0.5,0,0.8s-0.1,0.5-0.2,0.8s-0.2,0.5-0.3,0.7c-0.1,0.2-0.3,0.3-0.4,0.5
			s-0.4,0.2-0.6,0.2c-0.4,0-0.8-0.2-1.2-0.6v2.4H82.6z M84.8,203.3c0.1,0,0.2,0,0.3-0.1s0.2-0.2,0.2-0.4s0.1-0.4,0.1-0.5
			s0-0.4,0-0.6l0-0.8c0-0.1,0-0.3,0-0.4s0-0.2,0-0.4s0-0.3,0-0.4c0-0.1,0-0.2-0.1-0.3c0-0.1-0.1-0.2-0.1-0.3
			c-0.1-0.1-0.1-0.1-0.2-0.2c-0.1,0-0.2-0.1-0.3-0.1c0,0-0.1,0-0.1,0c0,0-0.1,0-0.1,0s-0.1,0-0.1,0s-0.1,0-0.1,0.1
			c0,0-0.1,0-0.1,0.1s-0.1,0-0.1,0.1c-0.1,0-0.1,0.1-0.1,0.1v3.9C84.1,203.2,84.4,203.3,84.8,203.3z"/>
		<path fill="#FFFFFF" d="M88.8,204.3c-0.3,0-0.6-0.2-0.9-0.5s-0.4-0.6-0.4-1c0-0.3,0.1-0.6,0.2-0.8c0.1-0.2,0.2-0.4,0.3-0.6
			s0.3-0.3,0.6-0.5s0.5-0.3,0.6-0.3s0.4-0.2,0.7-0.3c0.1,0,0.1,0,0.1-0.1v-0.4c0-0.3,0-0.6-0.1-0.7s-0.3-0.3-0.5-0.3
			c-0.2,0-0.4,0.1-0.5,0.2s-0.1,0.4-0.2,0.6c0,0,0,0.1,0,0.2h-1.2c0-0.6,0.2-1.1,0.5-1.4c0.3-0.4,0.8-0.5,1.4-0.5
			c0.6,0,1,0.2,1.4,0.5s0.5,0.8,0.5,1.4v2.8c0,0.7,0.1,1.2,0.2,1.6h-1.2l-0.2-0.9c-0.1,0.1-0.1,0.2-0.2,0.3c0,0.1-0.1,0.2-0.2,0.3
			s-0.2,0.2-0.2,0.2s-0.2,0.1-0.3,0.1C89,204.3,88.9,204.3,88.8,204.3z M89.4,203.3c0.1,0,0.2,0,0.3-0.1c0.1-0.1,0.1-0.1,0.2-0.2
			s0.1-0.1,0.2-0.2c0,0,0,0,0,0v-1.7c-0.1,0-0.1,0.1-0.3,0.2c-0.1,0.1-0.2,0.1-0.3,0.2s-0.2,0.1-0.3,0.2s-0.2,0.2-0.2,0.2
			s-0.1,0.2-0.1,0.3c0,0.1-0.1,0.2-0.1,0.3C88.8,203,89,203.3,89.4,203.3z"/>
		<path fill="#FFFFFF" d="M92.3,204.2V198h1.2v0.7c0.2-0.2,0.3-0.3,0.5-0.4s0.3-0.2,0.5-0.3s0.4-0.1,0.7-0.1c0.3,0,0.5,0.1,0.6,0.3
			s0.2,0.4,0.2,0.7v5.3h-1.2v-4.7c0-0.2,0-0.4-0.1-0.5s-0.2-0.1-0.4-0.1c-0.1,0-0.2,0-0.3,0.1s-0.2,0.1-0.2,0.1s-0.1,0.1-0.2,0.2
			v4.9H92.3z"/>
		<path fill="#FFFFFF" d="M96.9,204.2v-0.9l2.2-4.4h-1.9V198h3.1v0.9l-2.2,4.4h2.2v0.9H96.9z"/>
		<path fill="#FFFFFF" d="M102.9,204.3c-0.3,0-0.6-0.1-0.8-0.2c-0.2-0.1-0.4-0.2-0.5-0.4s-0.2-0.4-0.3-0.6s-0.1-0.5-0.2-0.8
			s0-0.6-0.1-0.9c0-0.3,0-0.5,0-0.8c0-0.3,0-0.6,0.1-0.9s0.1-0.5,0.2-0.7c0.1-0.2,0.2-0.4,0.3-0.6c0.1-0.2,0.3-0.3,0.5-0.4
			s0.5-0.1,0.8-0.1c0.3,0,0.5,0,0.7,0.1s0.4,0.2,0.5,0.3s0.2,0.3,0.3,0.5c0.1,0.2,0.2,0.4,0.2,0.6s0.1,0.5,0.1,0.7
			c0,0.2,0,0.5,0,0.8v0.1h-2.5v0.3c0,0,0,0.1,0,0.2c0,0.1,0,0.2,0,0.4s0,0.3,0,0.4c0,0.1,0,0.2,0.1,0.4s0.1,0.2,0.1,0.3
			c0,0.1,0.1,0.2,0.2,0.2s0.2,0.1,0.3,0.1c0.1,0,0.2,0,0.3-0.1s0.1-0.1,0.2-0.2c0-0.1,0.1-0.2,0.1-0.3c0-0.1,0-0.2,0-0.4V202h1.2
			v0.2c0,0.7-0.2,1.2-0.5,1.5S103.6,204.3,102.9,204.3z M102.3,200.5h1.2v-0.4c0-0.2,0-0.3,0-0.4c0-0.1,0-0.2-0.1-0.4
			c0-0.1-0.1-0.2-0.2-0.3c-0.1-0.1-0.2-0.1-0.3-0.1c-0.1,0-0.2,0-0.3,0.1s-0.1,0.2-0.2,0.3s-0.1,0.3-0.1,0.4c0,0.1,0,0.3,0,0.4
			V200.5z"/>
		<path fill="#FFFFFF" d="M107.5,204.3c-0.3,0-0.6-0.1-0.8-0.2c-0.2-0.1-0.4-0.2-0.5-0.4s-0.2-0.4-0.3-0.6s-0.1-0.5-0.2-0.8
			s0-0.6-0.1-0.9c0-0.3,0-0.5,0-0.8c0-0.3,0-0.6,0.1-0.9s0.1-0.5,0.2-0.7c0.1-0.2,0.2-0.4,0.3-0.6c0.1-0.2,0.3-0.3,0.5-0.4
			s0.5-0.1,0.8-0.1c0.3,0,0.5,0,0.7,0.1s0.4,0.2,0.5,0.3s0.2,0.3,0.3,0.5c0.1,0.2,0.2,0.4,0.2,0.6s0.1,0.5,0.1,0.7
			c0,0.2,0,0.5,0,0.8v0.1h-2.5v0.3c0,0,0,0.1,0,0.2c0,0.1,0,0.2,0,0.4s0,0.3,0,0.4c0,0.1,0,0.2,0.1,0.4s0.1,0.2,0.1,0.3
			c0,0.1,0.1,0.2,0.2,0.2s0.2,0.1,0.3,0.1c0.1,0,0.2,0,0.3-0.1s0.1-0.1,0.2-0.2c0-0.1,0.1-0.2,0.1-0.3c0-0.1,0-0.2,0-0.4V202h1.2
			v0.2c0,0.7-0.2,1.2-0.5,1.5S108.1,204.3,107.5,204.3z M106.9,200.5h1.2v-0.4c0-0.2,0-0.3,0-0.4c0-0.1,0-0.2-0.1-0.4
			c0-0.1-0.1-0.2-0.2-0.3c-0.1-0.1-0.2-0.1-0.3-0.1c-0.1,0-0.2,0-0.3,0.1s-0.1,0.2-0.2,0.3s-0.1,0.3-0.1,0.4c0,0.1,0,0.3,0,0.4
			V200.5z"/>
		<path fill="#FFFFFF" d="M111.9,204.3c-0.5,0-0.9-0.2-1.2-0.5c-0.3-0.3-0.5-0.7-0.6-1.2l0.9-0.3c0.2,0.6,0.5,0.9,0.9,0.9
			c0.2,0,0.4-0.1,0.5-0.2s0.2-0.3,0.2-0.5c0-0.3-0.1-0.5-0.3-0.7L111,201c-0.1-0.1-0.3-0.2-0.4-0.3s-0.2-0.2-0.3-0.3
			c-0.1-0.1-0.2-0.3-0.2-0.4c-0.1-0.1-0.1-0.3-0.1-0.5c0-0.5,0.2-0.9,0.5-1.2s0.8-0.4,1.4-0.4c0.3,0,0.5,0,0.7,0.1s0.4,0.2,0.5,0.4
			s0.3,0.3,0.4,0.5s0.2,0.4,0.2,0.6l-0.9,0.3c0-0.1-0.1-0.2-0.1-0.3s-0.1-0.2-0.2-0.3c-0.1-0.1-0.2-0.2-0.3-0.2s-0.2-0.1-0.3-0.1
			c-0.2,0-0.4,0.1-0.5,0.2s-0.2,0.3-0.2,0.5c0,0.2,0.1,0.4,0.3,0.5l1.2,0.9c0.1,0.1,0.3,0.2,0.4,0.3s0.2,0.2,0.3,0.4
			s0.2,0.3,0.2,0.5s0.1,0.3,0.1,0.5c0,0.5-0.2,0.9-0.5,1.2S112.5,204.3,111.9,204.3z"/>
		<path fill="#FFFFFF" d="M116.6,204.2v-8.8h1.2v3.2c0.2-0.2,0.3-0.3,0.5-0.4s0.3-0.2,0.5-0.3s0.4-0.1,0.7-0.1
			c0.3,0,0.5,0.1,0.6,0.3s0.2,0.4,0.2,0.7v5.3h-1.2v-4.7c0-0.2,0-0.4-0.1-0.5c-0.1-0.1-0.2-0.2-0.3-0.2c-0.3,0-0.5,0.1-0.8,0.4v4.9
			H116.6z"/>
		<path fill="#FFFFFF" d="M122.5,204.3c-0.3,0-0.6-0.2-0.9-0.5s-0.4-0.6-0.4-1c0-0.3,0.1-0.6,0.2-0.8c0.1-0.2,0.2-0.4,0.3-0.6
			s0.3-0.3,0.6-0.5s0.5-0.3,0.6-0.3s0.4-0.2,0.7-0.3c0.1,0,0.1,0,0.1-0.1v-0.4c0-0.3,0-0.6-0.1-0.7s-0.3-0.3-0.5-0.3
			c-0.2,0-0.4,0.1-0.5,0.2s-0.1,0.4-0.2,0.6c0,0,0,0.1,0,0.2h-1.2c0-0.6,0.2-1.1,0.5-1.4c0.3-0.4,0.8-0.5,1.4-0.5
			c0.6,0,1,0.2,1.4,0.5s0.5,0.8,0.5,1.4v2.8c0,0.7,0.1,1.2,0.2,1.6h-1.2l-0.2-0.9c-0.1,0.1-0.1,0.2-0.2,0.3c0,0.1-0.1,0.2-0.2,0.3
			s-0.2,0.2-0.2,0.2s-0.2,0.1-0.3,0.1C122.8,204.3,122.7,204.3,122.5,204.3z M123.1,203.3c0.1,0,0.2,0,0.3-0.1
			c0.1-0.1,0.1-0.1,0.2-0.2s0.1-0.1,0.2-0.2c0,0,0,0,0,0v-1.7c-0.1,0-0.1,0.1-0.3,0.2c-0.1,0.1-0.2,0.1-0.3,0.2s-0.2,0.1-0.3,0.2
			s-0.2,0.2-0.2,0.2s-0.1,0.2-0.1,0.3c0,0.1-0.1,0.2-0.1,0.3C122.5,203,122.7,203.3,123.1,203.3z"/>
		<path fill="#FFFFFF" d="M127,204.2l-1.4-6.2h1.2l0.9,4.7l0.8-4.7h1.2l-1.4,6.2H127z"/>
		<path fill="#FFFFFF" d="M132,204.3c-0.3,0-0.6-0.1-0.8-0.2c-0.2-0.1-0.4-0.2-0.5-0.4s-0.2-0.4-0.3-0.6s-0.1-0.5-0.2-0.8
			s0-0.6-0.1-0.9c0-0.3,0-0.5,0-0.8c0-0.3,0-0.6,0.1-0.9s0.1-0.5,0.2-0.7c0.1-0.2,0.2-0.4,0.3-0.6c0.1-0.2,0.3-0.3,0.5-0.4
			s0.5-0.1,0.8-0.1c0.3,0,0.5,0,0.7,0.1s0.4,0.2,0.5,0.3s0.2,0.3,0.3,0.5c0.1,0.2,0.2,0.4,0.2,0.6s0.1,0.5,0.1,0.7
			c0,0.2,0,0.5,0,0.8v0.1h-2.5v0.3c0,0,0,0.1,0,0.2c0,0.1,0,0.2,0,0.4s0,0.3,0,0.4c0,0.1,0,0.2,0.1,0.4s0.1,0.2,0.1,0.3
			c0,0.1,0.1,0.2,0.2,0.2s0.2,0.1,0.3,0.1c0.1,0,0.2,0,0.3-0.1s0.1-0.1,0.2-0.2c0-0.1,0.1-0.2,0.1-0.3c0-0.1,0-0.2,0-0.4V202h1.2
			v0.2c0,0.7-0.2,1.2-0.5,1.5S132.7,204.3,132,204.3z M131.4,200.5h1.2v-0.4c0-0.2,0-0.3,0-0.4c0-0.1,0-0.2-0.1-0.4
			c0-0.1-0.1-0.2-0.2-0.3c-0.1-0.1-0.2-0.1-0.3-0.1c-0.1,0-0.2,0-0.3,0.1s-0.1,0.2-0.2,0.3s-0.1,0.3-0.1,0.4c0,0.1,0,0.3,0,0.4
			V200.5z"/>
		<path fill="#FFFFFF" d="M138.5,204.3c-0.5,0-0.9-0.2-1.2-0.5c-0.3-0.3-0.5-0.7-0.6-1.2l0.9-0.3c0.2,0.6,0.5,0.9,0.9,0.9
			c0.2,0,0.4-0.1,0.5-0.2s0.2-0.3,0.2-0.5c0-0.3-0.1-0.5-0.3-0.7l-1.2-0.9c-0.1-0.1-0.3-0.2-0.4-0.3s-0.2-0.2-0.3-0.3
			c-0.1-0.1-0.2-0.3-0.2-0.4c-0.1-0.1-0.1-0.3-0.1-0.5c0-0.5,0.2-0.9,0.5-1.2s0.8-0.4,1.4-0.4c0.3,0,0.5,0,0.7,0.1s0.4,0.2,0.5,0.4
			s0.3,0.3,0.4,0.5s0.2,0.4,0.2,0.6l-0.9,0.3c0-0.1-0.1-0.2-0.1-0.3s-0.1-0.2-0.2-0.3c-0.1-0.1-0.2-0.2-0.3-0.2s-0.2-0.1-0.3-0.1
			c-0.2,0-0.4,0.1-0.5,0.2s-0.2,0.3-0.2,0.5c0,0.2,0.1,0.4,0.3,0.5l1.2,0.9c0.1,0.1,0.3,0.2,0.4,0.3s0.2,0.2,0.3,0.4
			s0.2,0.3,0.2,0.5s0.1,0.3,0.1,0.5c0,0.5-0.2,0.9-0.5,1.2S139.1,204.3,138.5,204.3z"/>
		<path fill="#FFFFFF" d="M141.2,197v-1.2h1.2v1.2H141.2z M141.2,204.2V198h1.2v6.2H141.2z"/>
		<path fill="#FFFFFF" d="M143.6,204.2V198h1.2v0.7c0.4-0.5,1-0.8,1.6-0.8c0.3,0,0.5,0.1,0.7,0.2c0.1,0.1,0.2,0.3,0.3,0.6
			c0.2-0.3,0.4-0.5,0.7-0.6c0.2-0.1,0.5-0.2,0.9-0.2c0.1,0,0.2,0,0.3,0s0.2,0,0.2,0.1c0.1,0,0.1,0.1,0.2,0.1c0,0.1,0.1,0.1,0.1,0.2
			c0,0.1,0.1,0.1,0.1,0.2c0,0.1,0,0.2,0,0.2c0,0.1,0,0.2,0,0.3c0,0.1,0,0.2,0,0.3s0,0.2,0,0.3c0,0,0,0.1,0,0.1v4.5h-1.2v-4.6
			c0,0,0,0,0-0.1c0-0.1,0-0.2,0-0.2c0-0.1,0-0.1,0-0.2c0-0.1,0-0.1-0.1-0.2c0,0-0.1-0.1-0.2-0.1c-0.1,0-0.3,0-0.4,0.1
			s-0.2,0.1-0.3,0.1c-0.1,0-0.2,0.1-0.3,0.2v4.9h-1.2v-4.5c0,0,0,0,0-0.1c0-0.1,0-0.2,0-0.2c0,0,0-0.1,0-0.2c0-0.1,0-0.1,0-0.2
			c0,0,0-0.1-0.1-0.1c0,0-0.1,0-0.2,0c-0.3,0-0.6,0.1-0.9,0.4v4.9H143.6z"/>
		<path fill="#FFFFFF" d="M151,197v-1.2h1.2v1.2H151z M151,204.2V198h1.2v6.2H151z"/>
		<path fill="#FFFFFF" d="M153.5,204.2v-8.8h1.2v8.8H153.5z"/>
		<path fill="#FFFFFF" d="M156.9,204.3c-0.3,0-0.6-0.2-0.9-0.5c-0.2-0.3-0.4-0.6-0.4-1c0-0.3,0.1-0.6,0.2-0.8
			c0.1-0.2,0.2-0.4,0.3-0.6c0.1-0.1,0.3-0.3,0.6-0.5c0.3-0.2,0.5-0.3,0.6-0.3s0.4-0.2,0.7-0.3c0.1,0,0.1,0,0.1-0.1v-0.4
			c0-0.3,0-0.6-0.1-0.7s-0.3-0.3-0.5-0.3c-0.2,0-0.4,0.1-0.5,0.2s-0.1,0.4-0.2,0.6c0,0,0,0.1,0,0.2h-1.2c0-0.6,0.2-1.1,0.5-1.4
			c0.3-0.4,0.8-0.5,1.4-0.5c0.6,0,1,0.2,1.4,0.5c0.3,0.4,0.5,0.8,0.5,1.4v2.8c0,0.7,0.1,1.2,0.2,1.6h-1.2l-0.2-0.9
			c-0.1,0.1-0.1,0.2-0.2,0.3c0,0.1-0.1,0.2-0.2,0.3s-0.2,0.2-0.2,0.2s-0.2,0.1-0.3,0.1C157.2,204.3,157.1,204.3,156.9,204.3z
			 M157.6,203.3c0.1,0,0.2,0,0.3-0.1c0.1-0.1,0.1-0.1,0.2-0.2c0,0,0.1-0.1,0.2-0.2c0,0,0,0,0,0v-1.7c-0.1,0-0.1,0.1-0.3,0.2
			c-0.1,0.1-0.2,0.1-0.3,0.2c-0.1,0-0.2,0.1-0.3,0.2c-0.1,0.1-0.2,0.2-0.2,0.2c-0.1,0.1-0.1,0.2-0.1,0.3c0,0.1-0.1,0.2-0.1,0.3
			C156.9,203,157.1,203.3,157.6,203.3z"/>
		<path fill="#FFFFFF" d="M160.5,204.2V198h1.2v0.8c0.1-0.2,0.3-0.5,0.6-0.6c0.2-0.2,0.5-0.3,0.8-0.3c0,0,0.1,0,0.2,0v1.4
			c-0.2-0.1-0.5-0.1-0.7-0.1c-0.3,0-0.5,0.1-0.6,0.2c-0.2,0.2-0.2,0.4-0.2,0.6v4.2H160.5z"/>
		<path fill="#FFFFFF" d="M168.4,204.3c-0.3,0-0.5-0.1-0.7-0.2c-0.2-0.1-0.4-0.3-0.6-0.5v0.6h-1.2v-8.7h1.2v3.1
			c0.1-0.1,0.2-0.2,0.3-0.3c0.1-0.1,0.1-0.1,0.3-0.2c0.1-0.1,0.2-0.1,0.3-0.2c0.1,0,0.3-0.1,0.4-0.1c0.2,0,0.4,0,0.6,0.1
			s0.3,0.2,0.4,0.3s0.2,0.3,0.3,0.5c0.1,0.2,0.1,0.4,0.2,0.5c0,0.2,0.1,0.4,0.1,0.7c0,0.3,0,0.5,0,0.7c0,0.2,0,0.4,0,0.7v0.1
			c0,0.3,0,0.5,0,0.8c0,0.3-0.1,0.5-0.2,0.8s-0.2,0.5-0.3,0.7c-0.1,0.2-0.3,0.3-0.4,0.5C168.9,204.2,168.7,204.3,168.4,204.3z
			 M168.1,203.3c0.1,0,0.2,0,0.3-0.1c0.1-0.1,0.2-0.2,0.2-0.4c0-0.2,0.1-0.4,0.1-0.5c0-0.2,0-0.4,0-0.6c0-0.2,0-0.4,0-0.7
			c0-0.3,0-0.5,0-0.7s0-0.3,0-0.4c0-0.1,0-0.2,0-0.3c0-0.1-0.1-0.2-0.1-0.3s-0.1-0.1-0.2-0.2s-0.2-0.1-0.3-0.1
			c-0.3,0-0.7,0.1-0.9,0.2v3.9C167.5,203.2,167.8,203.3,168.1,203.3z"/>
		<path fill="#FFFFFF" d="M172.1,204.3c-0.3,0-0.6-0.2-0.9-0.5c-0.2-0.3-0.4-0.6-0.4-1c0-0.3,0.1-0.6,0.2-0.8
			c0.1-0.2,0.2-0.4,0.3-0.6c0.1-0.1,0.3-0.3,0.6-0.5c0.3-0.2,0.5-0.3,0.6-0.3s0.4-0.2,0.7-0.3c0.1,0,0.1,0,0.1-0.1v-0.4
			c0-0.3,0-0.6-0.1-0.7s-0.3-0.3-0.5-0.3c-0.2,0-0.4,0.1-0.5,0.2s-0.1,0.4-0.2,0.6c0,0,0,0.1,0,0.2h-1.2c0-0.6,0.2-1.1,0.5-1.4
			c0.3-0.4,0.8-0.5,1.4-0.5c0.6,0,1,0.2,1.4,0.5c0.3,0.4,0.5,0.8,0.5,1.4v2.8c0,0.7,0.1,1.2,0.2,1.6h-1.2l-0.2-0.9
			c-0.1,0.1-0.1,0.2-0.2,0.3c0,0.1-0.1,0.2-0.2,0.3s-0.2,0.2-0.2,0.2s-0.2,0.1-0.3,0.1C172.4,204.3,172.2,204.3,172.1,204.3z
			 M172.7,203.3c0.1,0,0.2,0,0.3-0.1c0.1-0.1,0.1-0.1,0.2-0.2c0,0,0.1-0.1,0.2-0.2c0,0,0,0,0,0v-1.7c-0.1,0-0.1,0.1-0.3,0.2
			c-0.1,0.1-0.2,0.1-0.3,0.2c-0.1,0-0.2,0.1-0.3,0.2c-0.1,0.1-0.2,0.2-0.2,0.2c-0.1,0.1-0.1,0.2-0.1,0.3c0,0.1-0.1,0.2-0.1,0.3
			C172.1,203,172.3,203.3,172.7,203.3z"/>
		<path fill="#FFFFFF" d="M177.3,204.3c-0.5,0-0.9-0.2-1.2-0.5c-0.3-0.3-0.5-0.7-0.6-1.2l0.9-0.3c0.2,0.6,0.5,0.9,0.9,0.9
			c0.2,0,0.4-0.1,0.5-0.2c0.1-0.1,0.2-0.3,0.2-0.5c0-0.3-0.1-0.5-0.3-0.7l-1.2-0.9c-0.1-0.1-0.3-0.2-0.4-0.3
			c-0.1-0.1-0.2-0.2-0.3-0.3c-0.1-0.1-0.2-0.3-0.2-0.4c-0.1-0.1-0.1-0.3-0.1-0.5c0-0.5,0.2-0.9,0.5-1.2c0.3-0.3,0.8-0.4,1.4-0.4
			c0.3,0,0.5,0,0.7,0.1c0.2,0.1,0.4,0.2,0.5,0.4c0.1,0.2,0.3,0.3,0.4,0.5c0.1,0.2,0.2,0.4,0.2,0.6l-0.9,0.3c0-0.1-0.1-0.2-0.1-0.3
			c0-0.1-0.1-0.2-0.2-0.3c-0.1-0.1-0.2-0.2-0.3-0.2c-0.1-0.1-0.2-0.1-0.3-0.1c-0.2,0-0.4,0.1-0.5,0.2c-0.1,0.1-0.2,0.3-0.2,0.5
			c0,0.2,0.1,0.4,0.3,0.5l1.2,0.9c0.1,0.1,0.3,0.2,0.4,0.3c0.1,0.1,0.2,0.2,0.3,0.4c0.1,0.1,0.2,0.3,0.2,0.5s0.1,0.3,0.1,0.5
			c0,0.5-0.2,0.9-0.5,1.2C178.3,204.2,177.9,204.3,177.3,204.3z"/>
		<path fill="#FFFFFF" d="M180,197v-1.2h1.2v1.2H180z M180,204.2V198h1.2v6.2H180z"/>
		<path fill="#FFFFFF" d="M184,204.3c-0.3,0-0.6,0-0.8-0.2c-0.2-0.1-0.4-0.2-0.5-0.4c-0.1-0.2-0.2-0.4-0.3-0.6
			c-0.1-0.3-0.1-0.5-0.2-0.8c0-0.3,0-0.5-0.1-0.9c0-0.3,0-0.5,0-0.8c0-0.3,0-0.6,0.1-0.9c0-0.3,0.1-0.5,0.2-0.8s0.2-0.5,0.3-0.6
			s0.3-0.3,0.5-0.4c0.2-0.1,0.5-0.2,0.8-0.2c0.7,0,1.1,0.2,1.4,0.5c0.3,0.4,0.4,0.9,0.5,1.6v0.2h-1.2V200c0-0.2,0-0.3,0-0.4
			c0-0.1,0-0.2-0.1-0.4c0-0.1-0.1-0.2-0.2-0.3c-0.1-0.1-0.2-0.1-0.3-0.1c-0.1,0-0.2,0-0.3,0.1c-0.1,0.1-0.1,0.2-0.2,0.3
			s-0.1,0.3-0.1,0.4s0,0.3,0,0.5c0,0.4,0,1,0,1.8c0,0.2,0,0.3,0,0.5s0.1,0.3,0.1,0.4s0.1,0.2,0.2,0.3c0.1,0.1,0.2,0.1,0.3,0.1
			c0.1,0,0.2,0,0.3-0.1c0.1,0,0.1-0.1,0.2-0.2c0-0.1,0.1-0.1,0.1-0.2c0-0.1,0-0.2,0-0.3c0-0.1,0-0.2,0-0.3V202h1.2v0.2
			c0,0.3,0,0.6-0.1,0.9c-0.1,0.3-0.2,0.5-0.3,0.7c-0.1,0.2-0.3,0.3-0.6,0.4S184.3,204.3,184,204.3z"/>
		<path fill="#FFFFFF" d="M63.6,216.3c-0.3,0-0.6-0.2-0.9-0.5s-0.4-0.6-0.4-1c0-0.3,0.1-0.6,0.2-0.8c0.1-0.2,0.2-0.4,0.3-0.6
			s0.3-0.3,0.6-0.5s0.5-0.3,0.6-0.3s0.4-0.2,0.7-0.3c0.1,0,0.1,0,0.1-0.1v-0.4c0-0.3,0-0.6-0.1-0.7s-0.3-0.3-0.5-0.3
			c-0.2,0-0.4,0.1-0.5,0.2s-0.1,0.4-0.2,0.6c0,0,0,0.1,0,0.2h-1.2c0-0.6,0.2-1.1,0.5-1.4c0.3-0.4,0.8-0.5,1.4-0.5
			c0.6,0,1,0.2,1.4,0.5s0.5,0.8,0.5,1.4v2.8c0,0.7,0.1,1.2,0.2,1.6H65l-0.2-0.9c-0.1,0.1-0.1,0.2-0.2,0.3c0,0.1-0.1,0.2-0.2,0.3
			s-0.2,0.2-0.2,0.2s-0.2,0.1-0.3,0.1C63.8,216.3,63.7,216.3,63.6,216.3z M64.2,215.3c0.1,0,0.2,0,0.3-0.1c0.1-0.1,0.1-0.1,0.2-0.2
			s0.1-0.1,0.2-0.2c0,0,0,0,0,0v-1.7c-0.1,0-0.1,0.1-0.3,0.2c-0.1,0.1-0.2,0.1-0.3,0.2s-0.2,0.1-0.3,0.2s-0.2,0.2-0.2,0.2
			s-0.1,0.2-0.1,0.3c0,0.1-0.1,0.2-0.1,0.3C63.6,215,63.8,215.3,64.2,215.3z"/>
		<path fill="#FFFFFF" d="M67.1,216.2V210h1.2v0.8c0.1-0.2,0.3-0.5,0.6-0.6s0.5-0.3,0.8-0.3c0,0,0.1,0,0.2,0v1.4
			c-0.2-0.1-0.5-0.1-0.7-0.1c-0.3,0-0.5,0.1-0.6,0.2s-0.2,0.4-0.2,0.6v4.2H67.1z"/>
		<path fill="#FFFFFF" d="M70.6,209v-1.2h1.2v1.2H70.6z M70.6,216.2V210h1.2v6.2H70.6z"/>
		<path fill="#FFFFFF" d="M74.8,216.3c-0.5,0-0.8-0.1-1.1-0.4c-0.2-0.3-0.3-0.6-0.3-1.1v-3.9h-0.6V210h0.6v-2.2h1.2v2.2h0.9v0.9
			h-0.9v3.6c0,0.2,0,0.4,0.1,0.6s0.2,0.2,0.4,0.2c0.1,0,0.2,0,0.4,0v1C75.2,216.3,75,216.3,74.8,216.3z"/>
		<path fill="#FFFFFF" d="M76.5,216.2v-8.8h1.2v3.2c0.2-0.2,0.3-0.3,0.5-0.4s0.3-0.2,0.5-0.3s0.4-0.1,0.7-0.1c0.3,0,0.5,0.1,0.6,0.3
			s0.2,0.4,0.2,0.7v5.3H79v-4.7c0-0.2,0-0.4-0.1-0.5c-0.1-0.1-0.2-0.2-0.3-0.2c-0.3,0-0.5,0.1-0.8,0.4v4.9H76.5z"/>
		<path fill="#FFFFFF" d="M81.3,216.2V210h1.2v0.7c0.4-0.5,1-0.8,1.6-0.8c0.3,0,0.5,0.1,0.7,0.2s0.2,0.3,0.3,0.6
			c0.2-0.3,0.4-0.5,0.7-0.6c0.2-0.1,0.5-0.2,0.9-0.2c0.1,0,0.2,0,0.3,0s0.2,0,0.2,0.1s0.1,0.1,0.2,0.1s0.1,0.1,0.1,0.2
			s0.1,0.1,0.1,0.2c0,0.1,0,0.2,0,0.2c0,0.1,0,0.2,0,0.3c0,0.1,0,0.2,0,0.3s0,0.2,0,0.3c0,0,0,0.1,0,0.1v4.5h-1.2v-4.6
			c0,0,0,0,0-0.1c0-0.1,0-0.2,0-0.2s0-0.1,0-0.2s0-0.1-0.1-0.2c0,0-0.1-0.1-0.2-0.1c-0.1,0-0.3,0-0.4,0.1s-0.2,0.1-0.3,0.1
			s-0.2,0.1-0.3,0.2v4.9h-1.2v-4.5c0,0,0,0,0-0.1c0-0.1,0-0.2,0-0.2c0,0,0-0.1,0-0.2s0-0.1,0-0.2c0,0-0.1-0.1-0.1-0.1s-0.1,0-0.2,0
			c-0.3,0-0.6,0.1-0.9,0.4v4.9H81.3z"/>
		<path fill="#FFFFFF" d="M90.4,216.3c-0.3,0-0.6-0.1-0.8-0.2c-0.2-0.1-0.4-0.2-0.5-0.4s-0.2-0.4-0.3-0.6s-0.1-0.5-0.2-0.8
			s0-0.6-0.1-0.9c0-0.3,0-0.5,0-0.8c0-0.3,0-0.6,0.1-0.9s0.1-0.5,0.2-0.7c0.1-0.2,0.2-0.4,0.3-0.6c0.1-0.2,0.3-0.3,0.5-0.4
			s0.5-0.1,0.8-0.1c0.3,0,0.5,0,0.7,0.1s0.4,0.2,0.5,0.3s0.2,0.3,0.3,0.5c0.1,0.2,0.2,0.4,0.2,0.6s0.1,0.5,0.1,0.7
			c0,0.2,0,0.5,0,0.8v0.1h-2.5v0.3c0,0,0,0.1,0,0.2c0,0.1,0,0.2,0,0.4s0,0.3,0,0.4c0,0.1,0,0.2,0.1,0.4s0.1,0.2,0.1,0.3
			c0,0.1,0.1,0.2,0.2,0.2s0.2,0.1,0.3,0.1c0.1,0,0.2,0,0.3-0.1s0.1-0.1,0.2-0.2c0-0.1,0.1-0.2,0.1-0.3c0-0.1,0-0.2,0-0.4V214h1.2
			v0.2c0,0.7-0.2,1.2-0.5,1.5S91,216.3,90.4,216.3z M89.8,212.5H91v-0.4c0-0.2,0-0.3,0-0.4c0-0.1,0-0.2-0.1-0.4
			c0-0.1-0.1-0.2-0.2-0.3c-0.1-0.1-0.2-0.1-0.3-0.1c-0.1,0-0.2,0-0.3,0.1s-0.1,0.2-0.2,0.3s-0.1,0.3-0.1,0.4c0,0.1,0,0.3,0,0.4
			V212.5z"/>
		<path fill="#FFFFFF" d="M94.9,216.3c-0.5,0-0.8-0.1-1.1-0.4c-0.2-0.3-0.3-0.6-0.3-1.1v-3.9h-0.6V210h0.6v-2.2h1.2v2.2h0.9v0.9
			h-0.9v3.6c0,0.2,0,0.4,0.1,0.6s0.2,0.2,0.4,0.2c0.1,0,0.2,0,0.4,0v1C95.4,216.3,95.1,216.3,94.9,216.3z"/>
		<path fill="#FFFFFF" d="M96.7,209v-1.2h1.2v1.2H96.7z M96.7,216.2V210h1.2v6.2H96.7z"/>
		<path fill="#FFFFFF" d="M100.7,216.3c-0.3,0-0.6,0-0.8-0.2c-0.2-0.1-0.4-0.2-0.5-0.4c-0.1-0.2-0.2-0.4-0.3-0.6s-0.1-0.5-0.2-0.8
			s0-0.5-0.1-0.9c0-0.3,0-0.5,0-0.8c0-0.3,0-0.6,0.1-0.9s0.1-0.5,0.2-0.8s0.2-0.5,0.3-0.6s0.3-0.3,0.5-0.4c0.2-0.1,0.5-0.2,0.8-0.2
			c0.7,0,1.1,0.2,1.4,0.5c0.3,0.4,0.4,0.9,0.5,1.6v0.2h-1.2V212c0-0.2,0-0.3,0-0.4s0-0.2-0.1-0.4s-0.1-0.2-0.2-0.3s-0.2-0.1-0.3-0.1
			s-0.2,0-0.3,0.1s-0.1,0.2-0.2,0.3s-0.1,0.3-0.1,0.4s0,0.3,0,0.5c0,0.4,0,1,0,1.8c0,0.2,0,0.3,0,0.5s0.1,0.3,0.1,0.4
			s0.1,0.2,0.2,0.3s0.2,0.1,0.3,0.1c0.1,0,0.2,0,0.3-0.1c0.1,0,0.1-0.1,0.2-0.2c0-0.1,0.1-0.1,0.1-0.2c0-0.1,0-0.2,0-0.3
			s0-0.2,0-0.3V214h1.2v0.2c0,0.3-0.1,0.6-0.1,0.9s-0.2,0.5-0.3,0.7c-0.1,0.2-0.3,0.3-0.6,0.4S101,216.3,100.7,216.3z"/>
		<path fill="#FFFFFF" d="M105.4,216.2V210h1.2v0.7c0.4-0.5,1-0.8,1.6-0.8c0.3,0,0.5,0.1,0.7,0.2s0.2,0.3,0.3,0.6
			c0.2-0.3,0.4-0.5,0.7-0.6c0.2-0.1,0.5-0.2,0.9-0.2c0.1,0,0.2,0,0.3,0s0.2,0,0.2,0.1s0.1,0.1,0.2,0.1s0.1,0.1,0.1,0.2
			s0.1,0.1,0.1,0.2c0,0.1,0,0.2,0,0.2c0,0.1,0,0.2,0,0.3c0,0.1,0,0.2,0,0.3s0,0.2,0,0.3c0,0,0,0.1,0,0.1v4.5h-1.2v-4.6
			c0,0,0,0,0-0.1c0-0.1,0-0.2,0-0.2s0-0.1,0-0.2s0-0.1-0.1-0.2c0,0-0.1-0.1-0.2-0.1c-0.1,0-0.3,0-0.4,0.1s-0.2,0.1-0.3,0.1
			s-0.2,0.1-0.3,0.2v4.9h-1.2v-4.5c0,0,0,0,0-0.1c0-0.1,0-0.2,0-0.2c0,0,0-0.1,0-0.2s0-0.1,0-0.2c0,0-0.1-0.1-0.1-0.1s-0.1,0-0.2,0
			c-0.3,0-0.6,0.1-0.9,0.4v4.9H105.4z"/>
		<path fill="#FFFFFF" d="M114.5,216.3c-0.3,0-0.6-0.1-0.8-0.2c-0.2-0.1-0.4-0.2-0.5-0.4s-0.2-0.4-0.3-0.6s-0.1-0.5-0.2-0.8
			s0-0.6-0.1-0.9c0-0.3,0-0.5,0-0.8c0-0.3,0-0.6,0.1-0.9s0.1-0.5,0.2-0.7c0.1-0.2,0.2-0.4,0.3-0.6c0.1-0.2,0.3-0.3,0.5-0.4
			s0.5-0.1,0.8-0.1c0.3,0,0.5,0,0.7,0.1s0.4,0.2,0.5,0.3s0.2,0.3,0.3,0.5c0.1,0.2,0.2,0.4,0.2,0.6s0.1,0.5,0.1,0.7
			c0,0.2,0,0.5,0,0.8v0.1h-2.5v0.3c0,0,0,0.1,0,0.2c0,0.1,0,0.2,0,0.4s0,0.3,0,0.4c0,0.1,0,0.2,0.1,0.4s0.1,0.2,0.1,0.3
			c0,0.1,0.1,0.2,0.2,0.2s0.2,0.1,0.3,0.1c0.1,0,0.2,0,0.3-0.1s0.1-0.1,0.2-0.2c0-0.1,0.1-0.2,0.1-0.3c0-0.1,0-0.2,0-0.4V214h1.2
			v0.2c0,0.7-0.2,1.2-0.5,1.5S115.1,216.3,114.5,216.3z M113.9,212.5h1.2v-0.4c0-0.2,0-0.3,0-0.4c0-0.1,0-0.2-0.1-0.4
			c0-0.1-0.1-0.2-0.2-0.3c-0.1-0.1-0.2-0.1-0.3-0.1c-0.1,0-0.2,0-0.3,0.1s-0.1,0.2-0.2,0.3s-0.1,0.3-0.1,0.4c0,0.1,0,0.3,0,0.4
			V212.5z"/>
		<path fill="#FFFFFF" d="M117.3,216.2V210h1.2v0.7c0.2-0.2,0.3-0.3,0.5-0.4s0.3-0.2,0.5-0.3s0.4-0.1,0.7-0.1c0.3,0,0.5,0.1,0.6,0.3
			s0.2,0.4,0.2,0.7v5.3h-1.2v-4.7c0-0.2,0-0.4-0.1-0.5s-0.2-0.1-0.4-0.1c-0.1,0-0.2,0-0.3,0.1s-0.2,0.1-0.2,0.1s-0.1,0.1-0.2,0.2
			v4.9H117.3z"/>
		<path fill="#FFFFFF" d="M123.8,216.3c-0.5,0-0.8-0.1-1.1-0.4c-0.2-0.3-0.3-0.6-0.3-1.1v-3.9h-0.6V210h0.6v-2.2h1.2v2.2h0.9v0.9
			h-0.9v3.6c0,0.2,0,0.4,0.1,0.6s0.2,0.2,0.4,0.2c0.1,0,0.2,0,0.4,0v1C124.3,216.3,124,216.3,123.8,216.3z"/>
		<path fill="#FFFFFF" d="M126.6,216.3c-0.3,0-0.6-0.2-0.9-0.5s-0.4-0.6-0.4-1c0-0.3,0.1-0.6,0.2-0.8c0.1-0.2,0.2-0.4,0.3-0.6
			s0.3-0.3,0.6-0.5s0.5-0.3,0.6-0.3s0.4-0.2,0.7-0.3c0.1,0,0.1,0,0.1-0.1v-0.4c0-0.3,0-0.6-0.1-0.7s-0.3-0.3-0.5-0.3
			c-0.2,0-0.4,0.1-0.5,0.2s-0.1,0.4-0.2,0.6c0,0,0,0.1,0,0.2h-1.2c0-0.6,0.2-1.1,0.5-1.4c0.3-0.4,0.8-0.5,1.4-0.5
			c0.6,0,1,0.2,1.4,0.5s0.5,0.8,0.5,1.4v2.8c0,0.7,0.1,1.2,0.2,1.6H128l-0.2-0.9c-0.1,0.1-0.1,0.2-0.2,0.3c0,0.1-0.1,0.2-0.2,0.3
			s-0.2,0.2-0.2,0.2s-0.2,0.1-0.3,0.1C126.9,216.3,126.7,216.3,126.6,216.3z M127.2,215.3c0.1,0,0.2,0,0.3-0.1
			c0.1-0.1,0.1-0.1,0.2-0.2s0.1-0.1,0.2-0.2c0,0,0,0,0,0v-1.7c-0.1,0-0.1,0.1-0.3,0.2c-0.1,0.1-0.2,0.1-0.3,0.2s-0.2,0.1-0.3,0.2
			s-0.2,0.2-0.2,0.2s-0.1,0.2-0.1,0.3c0,0.1-0.1,0.2-0.1,0.3C126.6,215,126.8,215.3,127.2,215.3z"/>
		<path fill="#FFFFFF" d="M130.2,216.2v-8.8h1.2v8.8H130.2z"/>
		<path fill="#FFFFFF" d="M132.7,217.5l-0.3-0.6c0.2,0,0.4,0,0.5-0.1s0.1-0.3,0.1-0.5h-0.6V215h1.2c0,0.5,0,0.9,0,1.2
			c0,0.2,0,0.3,0,0.4c0,0.1,0,0.2-0.1,0.4s-0.1,0.2-0.2,0.3s-0.2,0.1-0.3,0.2C133,217.4,132.8,217.5,132.7,217.5z"/>
		<path fill="#FFFFFF" d="M136.6,216.2V210h1.2v0.7c0.2-0.2,0.3-0.3,0.5-0.4s0.3-0.2,0.5-0.3s0.4-0.1,0.7-0.1c0.3,0,0.5,0.1,0.6,0.3
			s0.2,0.4,0.2,0.7v5.3h-1.2v-4.7c0-0.2,0-0.4-0.1-0.5s-0.2-0.1-0.4-0.1c-0.1,0-0.2,0-0.3,0.1s-0.2,0.1-0.2,0.1s-0.1,0.1-0.2,0.2
			v4.9H136.6z"/>
		<path fill="#FFFFFF" d="M144.6,215.7c-0.3,0.4-0.8,0.6-1.4,0.6s-1.2-0.2-1.4-0.6s-0.4-1-0.4-1.7v-1.9c0-0.7,0.1-1.3,0.4-1.7
			s0.8-0.6,1.4-0.6s1.2,0.2,1.4,0.6s0.4,1,0.4,1.7v1.9C145,214.8,144.9,215.3,144.6,215.7z M142.9,215.2c0.1,0,0.1,0,0.2,0
			s0.2,0,0.2,0c0.1,0,0.1-0.1,0.2-0.1s0.1-0.1,0.1-0.2s0.1-0.1,0.1-0.2c0-0.1,0-0.1,0-0.2c0-0.1,0-0.2,0-0.2s0-0.2,0-0.3v-1.9
			c0-0.1,0-0.2,0-0.3s0-0.1,0-0.2c0-0.1,0-0.2,0-0.2c0-0.1,0-0.1-0.1-0.2s-0.1-0.1-0.1-0.2s-0.1-0.1-0.2-0.1c-0.1,0-0.1,0-0.2,0
			s-0.2,0-0.2,0c-0.1,0-0.1,0.1-0.2,0.1s-0.1,0.1-0.1,0.2s-0.1,0.1-0.1,0.2c0,0.1,0,0.1,0,0.2c0,0.1,0,0.2,0,0.2s0,0.2,0,0.3v1.9
			c0,0.1,0,0.2,0,0.3s0,0.1,0,0.2c0,0.1,0,0.2,0,0.2c0,0.1,0,0.1,0.1,0.2s0.1,0.1,0.1,0.2S142.9,215.2,142.9,215.2z"/>
		<path fill="#FFFFFF" d="M146.1,216.2V210h1.2v0.7c0.2-0.2,0.3-0.3,0.5-0.4s0.3-0.2,0.5-0.3c0.2-0.1,0.4-0.1,0.7-0.1
			c0.3,0,0.5,0.1,0.6,0.3s0.2,0.4,0.2,0.7v5.3h-1.2v-4.7c0-0.2,0-0.4-0.1-0.5c-0.1-0.1-0.2-0.1-0.4-0.1c-0.1,0-0.2,0-0.3,0.1
			c-0.1,0-0.2,0.1-0.2,0.1c-0.1,0-0.1,0.1-0.2,0.2v4.9H146.1z"/>
		<path fill="#FFFFFF" d="M150.3,214v-0.9h1.9v0.9H150.3z"/>
		<path fill="#FFFFFF" d="M153.7,216.2l-1.4-6.2h1.2l0.9,4.7l0.8-4.7h1.2l-1.4,6.2H153.7z"/>
		<path fill="#FFFFFF" d="M158.7,216.3c-0.3,0-0.6-0.1-0.8-0.2c-0.2-0.1-0.4-0.2-0.5-0.4s-0.2-0.4-0.3-0.6c-0.1-0.3-0.1-0.5-0.2-0.8
			c0-0.3,0-0.6-0.1-0.9c0-0.3,0-0.5,0-0.8c0-0.3,0-0.6,0.1-0.9s0.1-0.5,0.2-0.7c0.1-0.2,0.2-0.4,0.3-0.6c0.1-0.2,0.3-0.3,0.5-0.4
			s0.5-0.1,0.8-0.1c0.3,0,0.5,0,0.7,0.1c0.2,0.1,0.4,0.2,0.5,0.3c0.1,0.1,0.2,0.3,0.3,0.5c0.1,0.2,0.2,0.4,0.2,0.6
			c0,0.2,0.1,0.5,0.1,0.7c0,0.2,0,0.5,0,0.8v0.1h-2.5v0.3c0,0,0,0.1,0,0.2c0,0.1,0,0.2,0,0.4s0,0.3,0,0.4c0,0.1,0,0.2,0.1,0.4
			s0.1,0.2,0.1,0.3c0,0.1,0.1,0.2,0.2,0.2c0.1,0,0.2,0.1,0.3,0.1c0.1,0,0.2,0,0.3-0.1c0.1,0,0.1-0.1,0.2-0.2c0-0.1,0.1-0.2,0.1-0.3
			c0-0.1,0-0.2,0-0.4V214h1.2v0.2c0,0.7-0.2,1.2-0.5,1.5C159.8,216.1,159.4,216.3,158.7,216.3z M158.1,212.5h1.2v-0.4
			c0-0.2,0-0.3,0-0.4c0-0.1,0-0.2-0.1-0.4c0-0.1-0.1-0.2-0.2-0.3c-0.1-0.1-0.2-0.1-0.3-0.1c-0.1,0-0.2,0-0.3,0.1
			c-0.1,0.1-0.2,0.2-0.2,0.3c0,0.1-0.1,0.3-0.1,0.4c0,0.1,0,0.3,0,0.4V212.5z"/>
		<path fill="#FFFFFF" d="M161.5,216.2V210h1.2v0.8c0.1-0.2,0.3-0.5,0.6-0.6c0.2-0.2,0.5-0.3,0.8-0.3c0,0,0.1,0,0.2,0v1.4
			c-0.2-0.1-0.5-0.1-0.7-0.1c-0.3,0-0.5,0.1-0.6,0.2c-0.2,0.2-0.2,0.4-0.2,0.6v4.2H161.5z"/>
		<path fill="#FFFFFF" d="M167.4,216.3c-0.3,0-0.5-0.1-0.7-0.2c-0.2-0.1-0.4-0.3-0.6-0.5v0.6h-1.2v-8.7h1.2v3.1
			c0.1-0.1,0.2-0.2,0.3-0.3c0.1-0.1,0.1-0.1,0.3-0.2c0.1-0.1,0.2-0.1,0.3-0.2c0.1,0,0.3-0.1,0.4-0.1c0.2,0,0.4,0,0.6,0.1
			s0.3,0.2,0.4,0.3s0.2,0.3,0.3,0.5c0.1,0.2,0.1,0.4,0.2,0.5c0,0.2,0.1,0.4,0.1,0.7c0,0.3,0,0.5,0,0.7c0,0.2,0,0.4,0,0.7v0.1
			c0,0.3,0,0.5,0,0.8c0,0.3-0.1,0.5-0.2,0.8s-0.2,0.5-0.3,0.7c-0.1,0.2-0.3,0.3-0.4,0.5C167.9,216.2,167.7,216.3,167.4,216.3z
			 M167.1,215.3c0.1,0,0.2,0,0.3-0.1c0.1-0.1,0.2-0.2,0.2-0.4c0-0.2,0.1-0.4,0.1-0.5c0-0.2,0-0.4,0-0.6c0-0.2,0-0.4,0-0.7
			c0-0.3,0-0.5,0-0.7s0-0.3,0-0.4c0-0.1,0-0.2,0-0.3c0-0.1-0.1-0.2-0.1-0.3s-0.1-0.1-0.2-0.2s-0.2-0.1-0.3-0.1
			c-0.3,0-0.7,0.1-0.9,0.2v3.9C166.5,215.2,166.8,215.3,167.1,215.3z"/>
		<path fill="#FFFFFF" d="M171.1,216.3c-0.3,0-0.6-0.2-0.9-0.5c-0.2-0.3-0.4-0.6-0.4-1c0-0.3,0.1-0.6,0.2-0.8
			c0.1-0.2,0.2-0.4,0.3-0.6c0.1-0.1,0.3-0.3,0.6-0.5c0.3-0.2,0.5-0.3,0.6-0.3s0.4-0.2,0.7-0.3c0.1,0,0.1,0,0.1-0.1v-0.4
			c0-0.3,0-0.6-0.1-0.7s-0.3-0.3-0.5-0.3c-0.2,0-0.4,0.1-0.5,0.2s-0.1,0.4-0.2,0.6c0,0,0,0.1,0,0.2h-1.2c0-0.6,0.2-1.1,0.5-1.4
			c0.3-0.4,0.8-0.5,1.4-0.5c0.6,0,1,0.2,1.4,0.5c0.3,0.4,0.5,0.8,0.5,1.4v2.8c0,0.7,0.1,1.2,0.2,1.6h-1.2l-0.2-0.9
			c-0.1,0.1-0.1,0.2-0.2,0.3c0,0.1-0.1,0.2-0.2,0.3s-0.2,0.2-0.2,0.2s-0.2,0.1-0.3,0.1C171.4,216.3,171.2,216.3,171.1,216.3z
			 M171.7,215.3c0.1,0,0.2,0,0.3-0.1c0.1-0.1,0.1-0.1,0.2-0.2c0,0,0.1-0.1,0.2-0.2c0,0,0,0,0,0v-1.7c-0.1,0-0.1,0.1-0.3,0.2
			c-0.1,0.1-0.2,0.1-0.3,0.2c-0.1,0-0.2,0.1-0.3,0.2c-0.1,0.1-0.2,0.2-0.2,0.2c-0.1,0.1-0.1,0.2-0.1,0.3c0,0.1-0.1,0.2-0.1,0.3
			C171.1,215,171.3,215.3,171.7,215.3z"/>
		<path fill="#FFFFFF" d="M174.7,216.2v-8.8h1.2v8.8H174.7z"/>
		<path fill="#FFFFFF" d="M64.1,228.3c-0.5,0-0.9-0.2-1.2-0.5c-0.3-0.3-0.5-0.7-0.6-1.2l0.9-0.3c0.2,0.6,0.5,0.9,0.9,0.9
			c0.2,0,0.4-0.1,0.5-0.2s0.2-0.3,0.2-0.5c0-0.3-0.1-0.5-0.3-0.7l-1.2-0.9c-0.1-0.1-0.3-0.2-0.4-0.3s-0.2-0.2-0.3-0.3
			c-0.1-0.1-0.2-0.3-0.2-0.4c-0.1-0.1-0.1-0.3-0.1-0.5c0-0.5,0.2-0.9,0.5-1.2s0.8-0.4,1.4-0.4c0.3,0,0.5,0,0.7,0.1s0.4,0.2,0.5,0.4
			s0.3,0.3,0.4,0.5s0.2,0.4,0.2,0.6l-0.9,0.3c0-0.1-0.1-0.2-0.1-0.3s-0.1-0.2-0.2-0.3c-0.1-0.1-0.2-0.2-0.3-0.2s-0.2-0.1-0.3-0.1
			c-0.2,0-0.4,0.1-0.5,0.2s-0.2,0.3-0.2,0.5c0,0.2,0.1,0.4,0.3,0.5l1.2,0.9c0.1,0.1,0.3,0.2,0.4,0.3s0.2,0.2,0.3,0.4
			s0.2,0.3,0.2,0.5s0.1,0.3,0.1,0.5c0,0.5-0.2,0.9-0.5,1.2S64.7,228.3,64.1,228.3z"/>
		<path fill="#FFFFFF" d="M66.8,228.2v-8.8H68v4.8l1.6-2.3h1.2l-1.4,2.2l1.4,4.1h-1.2l-0.9-3L68,226v2.2H66.8z"/>
		<path fill="#FFFFFF" d="M71.5,221v-1.2h1.2v1.2H71.5z M71.5,228.2V222h1.2v6.2H71.5z"/>
		<path fill="#FFFFFF" d="M74,228.2v-8.8h1.2v8.8H74z"/>
		<path fill="#FFFFFF" d="M76.3,228.2v-8.8h1.2v8.8H76.3z"/>
		<path fill="#FFFFFF" d="M80.3,228.3c-0.5,0-0.9-0.2-1.2-0.5c-0.3-0.3-0.5-0.7-0.6-1.2l0.9-0.3c0.2,0.6,0.5,0.9,0.9,0.9
			c0.2,0,0.4-0.1,0.5-0.2s0.2-0.3,0.2-0.5c0-0.3-0.1-0.5-0.3-0.7l-1.2-0.9c-0.1-0.1-0.3-0.2-0.4-0.3s-0.2-0.2-0.3-0.3
			c-0.1-0.1-0.2-0.3-0.2-0.4c-0.1-0.1-0.1-0.3-0.1-0.5c0-0.5,0.2-0.9,0.5-1.2s0.8-0.4,1.4-0.4c0.3,0,0.5,0,0.7,0.1s0.4,0.2,0.5,0.4
			s0.3,0.3,0.4,0.5s0.2,0.4,0.2,0.6l-0.9,0.3c0-0.1-0.1-0.2-0.1-0.3s-0.1-0.2-0.2-0.3c-0.1-0.1-0.2-0.2-0.3-0.2s-0.2-0.1-0.3-0.1
			c-0.2,0-0.4,0.1-0.5,0.2s-0.2,0.3-0.2,0.5c0,0.2,0.1,0.4,0.3,0.5l1.2,0.9c0.1,0.1,0.3,0.2,0.4,0.3s0.2,0.2,0.3,0.4
			s0.2,0.3,0.2,0.5s0.1,0.3,0.1,0.5c0,0.5-0.2,0.9-0.5,1.2S80.9,228.3,80.3,228.3z"/>
		<path fill="#FFFFFF" d="M87.2,228.5c-0.3,0-0.5,0-0.7-0.1s-0.4-0.2-0.5-0.3s-0.3-0.3-0.4-0.5c-0.1-0.2-0.2-0.4-0.3-0.6
			s-0.1-0.5-0.2-0.7s-0.1-0.5-0.1-0.8s0-0.6,0-0.8s0-0.5,0-0.8c0-0.4,0-0.7,0-1s0-0.5,0.1-0.9s0.1-0.7,0.1-0.9s0.1-0.5,0.2-0.7
			s0.2-0.5,0.4-0.6s0.3-0.3,0.6-0.4s0.5-0.2,0.8-0.2v0.9c-0.2,0-0.3,0.1-0.4,0.2s-0.2,0.2-0.3,0.4s-0.1,0.4-0.2,0.6
			c0,0.2-0.1,0.5-0.1,0.7s0,0.5,0,0.7c0,0.2,0,0.4,0,0.6s0,0.5,0,0.6c0,0.1,0,0.3,0,0.6c0,0.3,0,0.5,0,0.7c0,0.3,0,0.5,0,0.7
			s0,0.4,0.1,0.7s0.1,0.4,0.2,0.6s0.2,0.3,0.3,0.4c0.1,0.1,0.3,0.2,0.4,0.2V228.5z"/>
		<path fill="#FFFFFF" d="M89.2,228.3c-0.3,0-0.6-0.2-0.9-0.5s-0.4-0.6-0.4-1c0-0.3,0.1-0.6,0.2-0.8c0.1-0.2,0.2-0.4,0.3-0.6
			s0.3-0.3,0.6-0.5s0.5-0.3,0.6-0.3s0.4-0.2,0.7-0.3c0.1,0,0.1,0,0.1-0.1v-0.4c0-0.3,0-0.6-0.1-0.7s-0.3-0.3-0.5-0.3
			c-0.2,0-0.4,0.1-0.5,0.2s-0.1,0.4-0.2,0.6c0,0,0,0.1,0,0.2H88c0-0.6,0.2-1.1,0.5-1.4c0.3-0.4,0.8-0.5,1.4-0.5c0.6,0,1,0.2,1.4,0.5
			s0.5,0.8,0.5,1.4v2.8c0,0.7,0.1,1.2,0.2,1.6h-1.2l-0.2-0.9c-0.1,0.1-0.1,0.2-0.2,0.3c0,0.1-0.1,0.2-0.2,0.3s-0.2,0.2-0.2,0.2
			s-0.2,0.1-0.3,0.1C89.5,228.3,89.4,228.3,89.2,228.3z M89.8,227.3c0.1,0,0.2,0,0.3-0.1c0.1-0.1,0.1-0.1,0.2-0.2s0.1-0.1,0.2-0.2
			c0,0,0,0,0,0v-1.7c-0.1,0-0.1,0.1-0.3,0.2c-0.1,0.1-0.2,0.1-0.3,0.2s-0.2,0.1-0.3,0.2s-0.2,0.2-0.2,0.2s-0.1,0.2-0.1,0.3
			c0,0.1-0.1,0.2-0.1,0.3C89.2,227,89.4,227.3,89.8,227.3z"/>
		<path fill="#FFFFFF" d="M94.2,228.3c-0.3,0-0.5-0.1-0.7-0.2s-0.4-0.4-0.5-0.6c-0.1-0.3-0.2-0.5-0.3-0.8s-0.1-0.6-0.1-0.9
			c0-0.2,0-0.5,0-1.1c0-0.2,0-0.4,0-0.6s0-0.4,0.1-0.5c0-0.2,0.1-0.4,0.1-0.5s0.1-0.3,0.2-0.4s0.2-0.2,0.3-0.3s0.2-0.2,0.4-0.2
			c0.1-0.1,0.3-0.1,0.5-0.1c0.1,0,0.3,0,0.4,0.1s0.2,0.1,0.3,0.2s0.2,0.2,0.3,0.2c0.1,0.1,0.2,0.1,0.3,0.3v-3.1h1.2v8.7h-1.2v-0.6
			c-0.2,0.2-0.4,0.4-0.6,0.5C94.7,228.2,94.5,228.3,94.2,228.3z M94.6,227.3c0.3,0,0.6-0.1,0.9-0.2v-3.9c-0.3-0.2-0.6-0.2-0.9-0.2
			c-0.1,0-0.2,0-0.3,0.1s-0.1,0.1-0.2,0.3s-0.1,0.2-0.1,0.4s0,0.3,0,0.4c0,0.7,0,1.3,0,1.7c0,0.2,0,0.4,0,0.6c0,0.2,0.1,0.3,0.1,0.5
			s0.1,0.3,0.2,0.3C94.3,227.2,94.4,227.3,94.6,227.3z"/>
		<path fill="#FFFFFF" d="M99.1,228.3c-0.3,0-0.5-0.1-0.7-0.2s-0.4-0.4-0.5-0.6c-0.1-0.3-0.2-0.5-0.3-0.8s-0.1-0.6-0.1-0.9
			c0-0.2,0-0.5,0-1.1c0-0.2,0-0.4,0-0.6s0-0.4,0.1-0.5c0-0.2,0.1-0.4,0.1-0.5s0.1-0.3,0.2-0.4s0.2-0.2,0.3-0.3s0.2-0.2,0.4-0.2
			c0.1-0.1,0.3-0.1,0.5-0.1c0.1,0,0.3,0,0.4,0.1s0.2,0.1,0.3,0.2s0.2,0.2,0.3,0.2c0.1,0.1,0.2,0.1,0.3,0.3v-3.1h1.2v8.7h-1.2v-0.6
			c-0.2,0.2-0.4,0.4-0.6,0.5C99.6,228.2,99.4,228.3,99.1,228.3z M99.4,227.3c0.3,0,0.6-0.1,0.9-0.2v-3.9c-0.3-0.2-0.6-0.2-0.9-0.2
			c-0.1,0-0.2,0-0.3,0.1s-0.1,0.1-0.2,0.3s-0.1,0.2-0.1,0.4s0,0.3,0,0.4c0,0.7,0,1.3,0,1.7c0,0.2,0,0.4,0,0.6c0,0.2,0.1,0.3,0.1,0.5
			s0.1,0.3,0.2,0.3C99.2,227.2,99.3,227.3,99.4,227.3z"/>
		<path fill="#FFFFFF" d="M102.8,221v-1.2h1.2v1.2H102.8z M102.8,228.2V222h1.2v6.2H102.8z"/>
		<path fill="#FFFFFF" d="M105.3,228.2V222h1.2v0.7c0.2-0.2,0.3-0.3,0.5-0.4s0.3-0.2,0.5-0.3s0.4-0.1,0.7-0.1c0.3,0,0.5,0.1,0.6,0.3
			s0.2,0.4,0.2,0.7v5.3h-1.2v-4.7c0-0.2,0-0.4-0.1-0.5s-0.2-0.1-0.4-0.1c-0.1,0-0.2,0-0.3,0.1s-0.2,0.1-0.2,0.1s-0.1,0.1-0.2,0.2
			v4.9H105.3z"/>
		<path fill="#FFFFFF" d="M112.1,230.1c-0.2,0-0.3,0-0.4,0s-0.2,0-0.4,0c-0.2,0-0.3,0-0.4,0s-0.2,0-0.4-0.1s-0.3-0.1-0.4-0.1
			c-0.1,0-0.2-0.1-0.3-0.2c-0.1-0.1-0.2-0.1-0.2-0.2s-0.1-0.2-0.1-0.3c0-0.3,0.1-0.6,0.3-0.8c0.2-0.2,0.4-0.4,0.7-0.6
			c-0.2,0-0.3-0.1-0.4-0.2s-0.2-0.2-0.2-0.3c0-0.1,0-0.1,0-0.2c0-0.1,0-0.1,0-0.2s0-0.1,0.1-0.2c0-0.1,0.1-0.1,0.1-0.2
			s0.1-0.1,0.1-0.2s0.1-0.1,0.1-0.1s0.1-0.1,0.1-0.1s0.1-0.1,0.1-0.1c-0.4-0.5-0.6-1.1-0.6-1.9c0-0.4,0.1-0.8,0.2-1.2
			c0.1-0.3,0.3-0.6,0.6-0.8s0.6-0.3,1-0.3c0.2,0,0.4,0,0.6,0.1c0.2,0.1,0.3,0.1,0.4,0.2s0.2,0.2,0.3,0.4c0.2-0.5,0.6-0.7,1.1-0.7
			c0,0,0,0,0,0s0,0,0,0s0,0,0,0v1c0,0,0,0-0.1,0c-0.1,0-0.2,0-0.3,0c-0.1,0-0.2,0-0.2,0s-0.2,0.1-0.2,0.1c0.1,0.1,0.1,0.3,0.2,0.5
			s0.1,0.4,0.1,0.6c0,0.4-0.1,0.8-0.2,1.2c-0.1,0.3-0.3,0.6-0.6,0.8c-0.3,0.2-0.6,0.3-1,0.3l-0.6-0.1c0,0,0,0,0,0.1s0,0.1-0.1,0.1
			c0,0,0,0.1,0,0.1s0,0.1,0,0.1c0,0.1,0,0.2,0.1,0.2s0.2,0.1,0.3,0.1s0.3,0,0.4,0.1c0.1,0,0.3,0,0.4,0s0.3,0,0.3,0
			c0.2,0,0.4,0.1,0.5,0.1s0.3,0.1,0.4,0.1c0.2,0.1,0.3,0.1,0.4,0.2c0.1,0.1,0.2,0.2,0.2,0.4c0.1,0.1,0.1,0.3,0.1,0.5
			c0,0.2,0,0.4-0.1,0.6c-0.1,0.2-0.2,0.3-0.3,0.4s-0.3,0.2-0.5,0.3s-0.4,0.1-0.6,0.2C112.6,230.1,112.3,230.1,112.1,230.1z
			 M112.1,229.2c0.1,0,0.2,0,0.2,0c0.1,0,0.2,0,0.2,0s0.2,0,0.2,0s0.1,0,0.2-0.1c0.1,0,0.1-0.1,0.1-0.1s0-0.1,0-0.2
			c0-0.3-0.3-0.6-1-0.6l-1-0.1c-0.1,0.1-0.2,0.2-0.3,0.4c-0.1,0.2-0.1,0.4-0.1,0.5c0,0.1,0,0.1,0.1,0.1s0.1,0.1,0.2,0.1s0.1,0,0.2,0
			c0.1,0,0.2,0,0.3,0c0.1,0,0.2,0,0.3,0s0.2,0,0.3,0C112,229.2,112.1,229.2,112.1,229.2z M111.8,225.5c0.5,0,0.8-0.4,0.8-1.3
			c0-0.2,0-0.3,0-0.5s-0.1-0.3-0.1-0.4s-0.1-0.3-0.2-0.3s-0.2-0.1-0.4-0.1c-0.2,0-0.3,0-0.4,0.1s-0.2,0.2-0.2,0.3s-0.1,0.3-0.1,0.4
			s0,0.3,0,0.5C111,225,111.3,225.5,111.8,225.5z"/>
		<path fill="#FFFFFF" d="M117.6,228.3c-0.3,0-0.5-0.1-0.7-0.3s-0.2-0.4-0.2-0.7V222h1.2v4.9c0,0.1,0,0.2,0.1,0.3
			c0.1,0.1,0.2,0.1,0.3,0.1c0.1,0,0.1,0,0.2,0c0.1,0,0.1,0,0.2-0.1s0.1-0.1,0.1-0.1s0.1-0.1,0.2-0.1s0.1-0.1,0.1-0.1V222h1.2v6.2
			h-1.2v-0.7c-0.1,0.1-0.2,0.2-0.3,0.2s-0.1,0.1-0.3,0.2s-0.2,0.1-0.3,0.2s-0.2,0.1-0.3,0.1S117.7,228.3,117.6,228.3z"/>
		<path fill="#FFFFFF" d="M121.5,230.1V222h1.2v0.6c0.1-0.1,0.2-0.2,0.2-0.2s0.1-0.1,0.2-0.2c0.1-0.1,0.2-0.1,0.2-0.2
			c0.1,0,0.2-0.1,0.3-0.1s0.2,0,0.3,0c0.2,0,0.4,0,0.6,0.1s0.3,0.2,0.4,0.3s0.2,0.3,0.3,0.5s0.1,0.4,0.2,0.5c0,0.2,0.1,0.4,0.1,0.7
			c0,0.3,0,0.5,0,0.7s0,0.4,0,0.7v0.1c0,0.3,0,0.5,0,0.8s-0.1,0.5-0.2,0.8s-0.2,0.5-0.3,0.7c-0.1,0.2-0.3,0.3-0.4,0.5
			s-0.4,0.2-0.6,0.2c-0.4,0-0.8-0.2-1.2-0.6v2.4H121.5z M123.7,227.3c0.1,0,0.2,0,0.3-0.1s0.2-0.2,0.2-0.4s0.1-0.4,0.1-0.5
			s0-0.4,0-0.6l0-0.8c0-0.1,0-0.3,0-0.4s0-0.2,0-0.4s0-0.3,0-0.4c0-0.1,0-0.2-0.1-0.3c0-0.1-0.1-0.2-0.1-0.3
			c-0.1-0.1-0.1-0.1-0.2-0.2c-0.1,0-0.2-0.1-0.3-0.1c0,0-0.1,0-0.1,0c0,0-0.1,0-0.1,0s-0.1,0-0.1,0s-0.1,0-0.1,0.1
			c0,0-0.1,0-0.1,0.1s-0.1,0-0.1,0.1c-0.1,0-0.1,0.1-0.1,0.1v3.9C123,227.2,123.3,227.3,123.7,227.3z"/>
		<path fill="#FFFFFF" d="M126.3,228.5v-0.9c0.2,0,0.3-0.1,0.4-0.2s0.2-0.2,0.3-0.4s0.1-0.4,0.2-0.6c0-0.2,0.1-0.5,0.1-0.7
			s0-0.5,0-0.7c0-0.2,0-0.4,0-0.6s0-0.5,0-0.6c0-0.1,0-0.3,0-0.6c0-0.3,0-0.5,0-0.7c0-0.3,0-0.5,0-0.7s0-0.4-0.1-0.7
			s-0.1-0.4-0.2-0.6s-0.2-0.3-0.3-0.4c-0.1-0.1-0.3-0.2-0.4-0.2v-0.9c0.3,0,0.5,0,0.7,0.1s0.4,0.2,0.5,0.3s0.3,0.3,0.4,0.5
			c0.1,0.2,0.2,0.4,0.3,0.6s0.1,0.5,0.2,0.7s0.1,0.5,0.1,0.8s0,0.6,0,0.8s0,0.5,0,0.8c0,0.4,0,0.7,0,1s0,0.5-0.1,0.9
			s-0.1,0.7-0.1,0.9s-0.1,0.5-0.2,0.7s-0.2,0.5-0.4,0.6s-0.3,0.3-0.6,0.4S126.6,228.5,126.3,228.5z"/>
		<path fill="#FFFFFF" d="M132.8,228.3c-0.3,0-0.6-0.2-0.9-0.5s-0.4-0.6-0.4-1c0-0.3,0.1-0.6,0.2-0.8c0.1-0.2,0.2-0.4,0.3-0.6
			s0.3-0.3,0.6-0.5s0.5-0.3,0.6-0.3s0.4-0.2,0.7-0.3c0.1,0,0.1,0,0.1-0.1v-0.4c0-0.3,0-0.6-0.1-0.7s-0.3-0.3-0.5-0.3
			c-0.2,0-0.4,0.1-0.5,0.2s-0.1,0.4-0.2,0.6c0,0,0,0.1,0,0.2h-1.2c0-0.6,0.2-1.1,0.5-1.4c0.3-0.4,0.8-0.5,1.4-0.5
			c0.6,0,1,0.2,1.4,0.5s0.5,0.8,0.5,1.4v2.8c0,0.7,0.1,1.2,0.2,1.6h-1.2l-0.2-0.9c-0.1,0.1-0.1,0.2-0.2,0.3c0,0.1-0.1,0.2-0.2,0.3
			s-0.2,0.2-0.2,0.2s-0.2,0.1-0.3,0.1C133.1,228.3,133,228.3,132.8,228.3z M133.5,227.3c0.1,0,0.2,0,0.3-0.1
			c0.1-0.1,0.1-0.1,0.2-0.2s0.1-0.1,0.2-0.2c0,0,0,0,0,0v-1.7c-0.1,0-0.1,0.1-0.3,0.2c-0.1,0.1-0.2,0.1-0.3,0.2s-0.2,0.1-0.3,0.2
			s-0.2,0.2-0.2,0.2s-0.1,0.2-0.1,0.3c0,0.1-0.1,0.2-0.1,0.3C132.8,227,133,227.3,133.5,227.3z"/>
		<path fill="#FFFFFF" d="M138,228.3c-0.5,0-0.9-0.2-1.2-0.5c-0.3-0.3-0.5-0.7-0.6-1.2l0.9-0.3c0.2,0.6,0.5,0.9,0.9,0.9
			c0.2,0,0.4-0.1,0.5-0.2s0.2-0.3,0.2-0.5c0-0.3-0.1-0.5-0.3-0.7l-1.2-0.9c-0.1-0.1-0.3-0.2-0.4-0.3s-0.2-0.2-0.3-0.3
			c-0.1-0.1-0.2-0.3-0.2-0.4c-0.1-0.1-0.1-0.3-0.1-0.5c0-0.5,0.2-0.9,0.5-1.2s0.8-0.4,1.4-0.4c0.3,0,0.5,0,0.7,0.1s0.4,0.2,0.5,0.4
			s0.3,0.3,0.4,0.5s0.2,0.4,0.2,0.6l-0.9,0.3c0-0.1-0.1-0.2-0.1-0.3s-0.1-0.2-0.2-0.3c-0.1-0.1-0.2-0.2-0.3-0.2s-0.2-0.1-0.3-0.1
			c-0.2,0-0.4,0.1-0.5,0.2s-0.2,0.3-0.2,0.5c0,0.2,0.1,0.4,0.3,0.5l1.2,0.9c0.1,0.1,0.3,0.2,0.4,0.3s0.2,0.2,0.3,0.4
			s0.2,0.3,0.2,0.5s0.1,0.3,0.1,0.5c0,0.5-0.2,0.9-0.5,1.2S138.6,228.3,138,228.3z"/>
		<path fill="#FFFFFF" d="M142.7,228.2v-8.8h1.2v3.2c0.2-0.2,0.3-0.3,0.5-0.4s0.3-0.2,0.5-0.3s0.4-0.1,0.7-0.1
			c0.3,0,0.5,0.1,0.6,0.3s0.2,0.4,0.2,0.7v5.3h-1.2v-4.7c0-0.2,0-0.4-0.1-0.5c-0.1-0.1-0.2-0.2-0.3-0.2c-0.3,0-0.5,0.1-0.8,0.4v4.9
			H142.7z"/>
		<path fill="#FFFFFF" d="M148.5,228.3c-0.3,0-0.5-0.1-0.7-0.3s-0.2-0.4-0.2-0.7V222h1.2v4.9c0,0.1,0,0.2,0.1,0.3
			c0.1,0.1,0.2,0.1,0.3,0.1c0.1,0,0.1,0,0.2,0c0.1,0,0.1,0,0.2-0.1s0.1-0.1,0.1-0.1c0,0,0.1-0.1,0.2-0.1c0.1-0.1,0.1-0.1,0.1-0.1
			V222h1.2v6.2H150v-0.7c-0.1,0.1-0.2,0.2-0.3,0.2c-0.1,0-0.1,0.1-0.3,0.2s-0.2,0.1-0.3,0.2c-0.1,0-0.2,0.1-0.3,0.1
			C148.7,228.3,148.6,228.3,148.5,228.3z"/>
		<path fill="#FFFFFF" d="M152.4,228.2V222h1.2v0.7c0.4-0.5,1-0.8,1.6-0.8c0.3,0,0.5,0.1,0.7,0.2c0.1,0.1,0.2,0.3,0.3,0.6
			c0.2-0.3,0.4-0.5,0.7-0.6c0.2-0.1,0.5-0.2,0.9-0.2c0.1,0,0.2,0,0.3,0s0.2,0,0.2,0.1c0.1,0,0.1,0.1,0.2,0.1c0,0.1,0.1,0.1,0.1,0.2
			c0,0.1,0.1,0.1,0.1,0.2c0,0.1,0,0.2,0,0.2c0,0.1,0,0.2,0,0.3c0,0.1,0,0.2,0,0.3s0,0.2,0,0.3c0,0,0,0.1,0,0.1v4.5h-1.2v-4.6
			c0,0,0,0,0-0.1c0-0.1,0-0.2,0-0.2c0-0.1,0-0.1,0-0.2c0-0.1,0-0.1-0.1-0.2c0,0-0.1-0.1-0.2-0.1c-0.1,0-0.3,0-0.4,0.1
			s-0.2,0.1-0.3,0.1c-0.1,0-0.2,0.1-0.3,0.2v4.9h-1.2v-4.5c0,0,0,0,0-0.1c0-0.1,0-0.2,0-0.2c0,0,0-0.1,0-0.2c0-0.1,0-0.1,0-0.2
			c0,0,0-0.1-0.1-0.1c0,0-0.1,0-0.2,0c-0.3,0-0.6,0.1-0.9,0.4v4.9H152.4z"/>
		<path fill="#FFFFFF" d="M160.8,228.3c-0.3,0-0.6-0.2-0.9-0.5c-0.2-0.3-0.4-0.6-0.4-1c0-0.3,0.1-0.6,0.2-0.8
			c0.1-0.2,0.2-0.4,0.3-0.6c0.1-0.1,0.3-0.3,0.6-0.5c0.3-0.2,0.5-0.3,0.6-0.3s0.4-0.2,0.7-0.3c0.1,0,0.1,0,0.1-0.1v-0.4
			c0-0.3,0-0.6-0.1-0.7s-0.3-0.3-0.5-0.3c-0.2,0-0.4,0.1-0.5,0.2s-0.1,0.4-0.2,0.6c0,0,0,0.1,0,0.2h-1.2c0-0.6,0.2-1.1,0.5-1.4
			c0.3-0.4,0.8-0.5,1.4-0.5c0.6,0,1,0.2,1.4,0.5c0.3,0.4,0.5,0.8,0.5,1.4v2.8c0,0.7,0.1,1.2,0.2,1.6h-1.2l-0.2-0.9
			c-0.1,0.1-0.1,0.2-0.2,0.3c0,0.1-0.1,0.2-0.2,0.3s-0.2,0.2-0.2,0.2s-0.2,0.1-0.3,0.1C161.1,228.3,161,228.3,160.8,228.3z
			 M161.4,227.3c0.1,0,0.2,0,0.3-0.1c0.1-0.1,0.1-0.1,0.2-0.2c0,0,0.1-0.1,0.2-0.2c0,0,0,0,0,0v-1.7c-0.1,0-0.1,0.1-0.3,0.2
			c-0.1,0.1-0.2,0.1-0.3,0.2c-0.1,0-0.2,0.1-0.3,0.2c-0.1,0.1-0.2,0.2-0.2,0.2c-0.1,0.1-0.1,0.2-0.1,0.3c0,0.1-0.1,0.2-0.1,0.3
			C160.8,227,161,227.3,161.4,227.3z"/>
		<path fill="#FFFFFF" d="M164.4,228.2V222h1.2v0.7c0.2-0.2,0.3-0.3,0.5-0.4s0.3-0.2,0.5-0.3c0.2-0.1,0.4-0.1,0.7-0.1
			c0.3,0,0.5,0.1,0.6,0.3s0.2,0.4,0.2,0.7v5.3h-1.2v-4.7c0-0.2,0-0.4-0.1-0.5c-0.1-0.1-0.2-0.1-0.4-0.1c-0.1,0-0.2,0-0.3,0.1
			c-0.1,0-0.2,0.1-0.2,0.1c-0.1,0-0.1,0.1-0.2,0.2v4.9H164.4z"/>
		<path fill="#FFFFFF" d="M170.9,228.3c-0.5,0-0.9-0.2-1.2-0.5c-0.3-0.3-0.5-0.7-0.6-1.2l0.9-0.3c0.2,0.6,0.5,0.9,0.9,0.9
			c0.2,0,0.4-0.1,0.5-0.2c0.1-0.1,0.2-0.3,0.2-0.5c0-0.3-0.1-0.5-0.3-0.7l-1.2-0.9c-0.1-0.1-0.3-0.2-0.4-0.3
			c-0.1-0.1-0.2-0.2-0.3-0.3c-0.1-0.1-0.2-0.3-0.2-0.4c-0.1-0.1-0.1-0.3-0.1-0.5c0-0.5,0.2-0.9,0.5-1.2c0.3-0.3,0.8-0.4,1.4-0.4
			c0.3,0,0.5,0,0.7,0.1c0.2,0.1,0.4,0.2,0.5,0.4c0.1,0.2,0.3,0.3,0.4,0.5c0.1,0.2,0.2,0.4,0.2,0.6l-0.9,0.3c0-0.1-0.1-0.2-0.1-0.3
			c0-0.1-0.1-0.2-0.2-0.3c-0.1-0.1-0.2-0.2-0.3-0.2c-0.1-0.1-0.2-0.1-0.3-0.1c-0.2,0-0.4,0.1-0.5,0.2c-0.1,0.1-0.2,0.3-0.2,0.5
			c0,0.2,0.1,0.4,0.3,0.5l1.2,0.9c0.1,0.1,0.3,0.2,0.4,0.3c0.1,0.1,0.2,0.2,0.3,0.4c0.1,0.1,0.2,0.3,0.2,0.5s0.1,0.3,0.1,0.5
			c0,0.5-0.2,0.9-0.5,1.2C171.9,228.2,171.4,228.3,170.9,228.3z"/>
		<path fill="#FFFFFF" d="M173.2,228.2V227h1.2v1.2H173.2z"/>
	</g>
	<g>
	</g>
	<g>
	</g>
	<g>
	</g>
	<g>
	</g>
	<g>
	</g>
	<g>
	</g>
</g>
</svg>
