<?xml version="1.0" encoding="utf-8"?>
<!-- Generator: Adobe Illustrator 19.1.0, SVG Export Plug-In . SVG Version: 6.00 Build 0)  -->
<svg version="1.1" xmlns="http://www.w3.org/2000/svg" xmlns:xlink="http://www.w3.org/1999/xlink" x="0px" y="0px" width="155.4px"
	 height="141.2px" viewBox="0 0 155.4 141.2" enable-background="new 0 0 155.4 141.2" xml:space="preserve">
<g id="plant-back">
	<g>
		<path fill="#A6D175" d="M128.8,52.7c-0.2,0.9-0.5,1.9-0.8,2.8C122.5,72.7,101.6,77,101.6,77c-1.1,0.5-2.1,0.9-3.1,1.4
			C84.7,85,78.6,92.6,76,100.4c-0.6,1.7-1,3.5-1.3,5.2l0,0c-0.9,4-1,8.1-1,12.1c0,2.7,0.1,5.5,0.2,8.2c0-0.2-0.1-0.4-0.1-0.7
			c-0.4-3.6-0.7-6.9-0.7-9.9c-0.1-4.2,0.2-7.8,0.7-11c0,0,0,0,0,0c4.1-19.5,18.5-22.1,24.4-26.7c0,0,0,0,0,0c0,0,0,0,0,0
			c0,0,0-0.1,0-0.1c-0.1-0.4-0.3-0.8-0.4-1.2c0.3-0.2,0.5-0.4,0.8-0.6c-2.3-6.5-3.5-12-3.9-16.7c0-0.5-0.1-1-0.1-1.5
			c0-0.2,0-0.3,0-0.5c0-0.5,0.1-0.9,0.1-1.4c0.1-0.4,0.4-0.8,0.4-1.1c0.1-0.3,0.3-0.8,0.3-0.8c2.2-8.3,7.6-12.5,12.6-14.1
			c0,0,0,0,0,0c0.4-0.1,0.8-0.3,1.2-0.4c0,0,0,0,0,0c0.6-0.2,1.2-0.3,1.8-0.4c0.2,0,0.4-0.1,0.6-0.1c0.4-0.1,0.7-0.1,1-0.1
			c0.2,0,0.3,0,0.5,0c0.2,0,0.3,0,0.5,0c0.2,0,0.3,0,0.5,0c0.1,0,0.3,0,0.4,0c0.4,0.1,0.8,0,1.2,0c3.9-0.6,5.3-6.7,5.8-9.8
			c0.1-0.9,0.2-1.5,0.2-1.7c0,0,0,0,0,0c0,0,0,0,0.1,0.1c0.8,1.2,6.8,10.4,7.2,22c0,0,0,0,0,0c0,0.1,0,0.3,0,0.4
			c0,0.4-0.1,0.9-0.1,1.3l0,0C129,51.5,128.9,52.1,128.8,52.7z"/>
		<path fill="#517928" d="M127.7,57.3c-5.5,17.3-26.4,21.5-26.4,21.5C83.1,86.6,76.8,96,74.7,105.7c1.7-10.3,7.6-20.4,26.9-28.7
			c0,0,20.9-4.2,26.4-21.5c0.3-0.9,0.6-1.9,0.8-2.8C128.6,54.2,128.2,55.8,127.7,57.3z"/>
		<path fill="#517928" d="M99.7,76.9c-0.3,0.2-1.1,0.5-1.4,0.7c-0.7-1.9-1.3-3.9-1.8-5.7c0,0,0-0.1,0-0.1c-1.2-4.4-1.7-8.2-1.8-11.6
			l0,0c0-0.9,0-1.8,0-2.7c0-0.2,0-0.3,0-0.5c0-0.5,0.1-0.9,0.1-1.4c0.1-0.4,0.1-0.8,0.2-1.2c0.1-0.3,0.1-0.6,0.2-0.8
			C95.1,54.8,95,56,95,57.3c0,0,0,0,0,0c0,0.4,0,0.8,0,1.3C95.2,63.6,97.1,69.7,99.7,76.9z"/>
		<path fill="#C4E2B5" d="M121.6,31.9c-0.5,3.3-2.2,10.4-7,9.8C110.4,41.3,98.2,44,95,57.3c0,0,0,0,0,0c0,0.1,0,0.2-0.1,0.2
			c-0.1,0.4-0.1,0.9-0.2,1.4c0,0.4-0.1,0.8-0.1,1.2c0-0.9,0-1.8,0-2.7c0-0.2,0-0.3,0-0.5c0-0.5,0.1-0.9,0.1-1.4
			c0.1-0.4,0.1-0.8,0.2-1.2c0.1-0.3,0.1-0.6,0.2-0.8l0,0c0,0,0,0,0,0c2.2-8.3,8-12.4,12.9-14c0,0,0,0,0,0c0.4-0.1,0.8-0.3,1.2-0.4
			c0,0,0,0,0,0c0.6-0.2,1.2-0.3,1.8-0.4c0.2,0,0.4-0.1,0.6-0.1c0.4-0.1,0.7-0.1,1-0.1c0.2,0,0.3,0,0.5,0c0.2,0,0.3,0,0.5,0
			c0.2,0,0.3,0,0.5,0c0.1,0,0.3,0,0.4,0c0.4,0.1,0.8,0,1.2,0c3.9-0.7,5.3-6.8,5.8-9.8c0.2-1,0.2-1.7,0.2-1.7s0,0,0,0c0,0,0,0,0,0
			c0,0,0,0,0.1,0.1c0.8,1.2,6.8,10.4,7.2,22c0,0,0,0,0,0c0,0.1,0,0.3,0,0.4c0,0.4-0.1,0.9-0.1,1.3c-0.9-10.9-6.4-19.4-7.1-20.5
			c-0.1-0.1-0.1-0.1-0.1-0.1S121.8,30.9,121.6,31.9z"/>
		<g>
			<path fill="#517928" d="M122.6,32.4c0,0,0.4,0.8,0.8,2.3c0.4,1.5,0.9,3.6,0.9,6.3c0,1.3-0.1,2.8-0.5,4.4c-0.4,1.5-1,3.2-2,4.7
				c-0.5,0.8-1,1.5-1.7,2.2c-0.6,0.7-1.4,1.3-2.1,1.8c-1.5,1.1-3.1,2-4.7,2.8c-1.6,0.8-3.1,1.4-4.5,2.1c-0.7,0.4-1.4,0.7-2,1.1
				c-0.6,0.4-1.2,0.8-1.7,1.3c-2.1,1.8-3.2,4.3-3.7,6.6c-0.3,1.2-0.5,2.3-0.6,3.3c-0.1,1-0.2,1.9-0.3,2.7c-0.1,1.5-0.2,2.4-0.2,2.4
				s-0.1-0.2-0.2-0.6c-0.1-0.4-0.3-1-0.4-1.7c-0.2-0.7-0.4-1.7-0.5-2.7c-0.1-1.1-0.2-2.3-0.1-3.6c0.1-1.4,0.3-2.9,0.8-4.4
				c0.5-1.5,1.5-3.1,2.7-4.5c1.3-1.3,2.8-2.4,4.3-3.3c1.5-0.9,3.1-1.6,4.6-2.3c1.5-0.7,2.9-1.5,4.1-2.3c0.7-0.5,1.2-0.9,1.8-1.4
				c0.5-0.5,1-1,1.4-1.5c1.7-2.2,2.6-4.9,3.1-7.3c0.5-2.4,0.6-4.5,0.6-6C122.7,33.2,122.6,32.4,122.6,32.4z"/>
		</g>
	</g>
</g>
<g id="plant-text">
	<g>
		<rect x="39.1" y="8" fill="none" width="91.1" height="82.3"/>
		<path fill="#F9C53D" d="M40.8,31.6V8h3.4v10.1H50V8h3.4v23.6H50v-11h-5.9v11H40.8z"/>
		<path fill="#F9C53D" d="M56.9,31.6V8h3.4v23.6H56.9z"/>
		<path fill="#F9C53D" d="M70.3,31.8c-1.1,0-2-0.2-2.8-0.5c-0.8-0.3-1.4-0.7-1.9-1.3s-0.9-1.2-1.2-2c-0.3-0.8-0.5-1.7-0.6-2.6
			c-0.1-0.9-0.2-1.9-0.2-3.1v-6c0-5.8,2.3-8.7,6.9-8.7c1.1,0,2.1,0.2,2.9,0.5c0.8,0.3,1.5,0.8,2,1.4s0.9,1.4,1.1,2.2
			c0.3,0.8,0.4,1.8,0.4,2.9c0,0.2,0,0.4,0,0.7h-3.4v-0.7c0-0.6,0-1-0.1-1.4c0-0.4-0.1-0.8-0.3-1.2c-0.1-0.4-0.3-0.7-0.5-0.9
			c-0.2-0.2-0.5-0.4-0.9-0.6c-0.4-0.1-0.8-0.2-1.3-0.2c-0.7,0-1.3,0.1-1.7,0.4c-0.5,0.2-0.8,0.6-1.1,1.1c-0.3,0.5-0.4,1-0.5,1.6
			c-0.1,0.6-0.2,1.2-0.2,2v7.6c0,0.6,0,1.1,0.1,1.5c0,0.5,0.1,0.9,0.2,1.4c0.1,0.5,0.2,0.9,0.4,1.2c0.2,0.3,0.4,0.7,0.6,0.9
			c0.2,0.3,0.5,0.5,0.9,0.6c0.4,0.1,0.8,0.2,1.3,0.2c0.6,0,1.1-0.1,1.5-0.3c0.4-0.2,0.7-0.5,1-0.8c0.2-0.3,0.4-0.8,0.6-1.3
			s0.2-1.1,0.3-1.6c0-0.5,0.1-1.1,0.1-1.8v-0.8h-3.4v-2.5H77v11.8h-2.5l-0.8-2.5C73,30.9,71.8,31.8,70.3,31.8z"/>
		<path fill="#F9C53D" d="M79.7,31.6V8h3.4v10.1H89V8h3.4v23.6H89v-11h-5.9v11H79.7z"/>
		<path fill="#F9C53D" d="M95.8,31.6V8h9.3v2.5h-5.9v7.6h4.2v2.5h-4.2v8.4h5.9v2.5H95.8z"/>
		<path fill="#F9C53D" d="M107.1,31.6V8h4.2c2.5,0,4.4,0.5,5.7,1.5c1.3,1,1.9,2.6,1.9,4.9c0,1.4-0.2,2.6-0.8,3.5s-1.2,1.6-2.2,2
			l3.8,11.8h-3.3l-3.4-11h-2.5v11H107.1z M110.5,18.1h0.8c1.4,0,2.5-0.3,3.2-0.9c0.7-0.6,1.1-1.6,1.1-2.9s-0.4-2.3-1.1-2.9
			c-0.7-0.6-1.8-0.9-3.2-0.9h-0.8V18.1z"/>
		<path fill="#F9C53D" d="M40.8,59.6V35.1h6.1c4.1,0,6.1,2.3,6.1,7c0,2-0.5,3.5-1.6,4.6s-2.6,1.6-4.5,1.6h-2.6v11.4H40.8z
			 M44.3,45.6h0.9c0.8,0,1.4,0,1.9-0.1s1-0.3,1.3-0.5c0.4-0.3,0.7-0.6,0.8-1.1c0.2-0.5,0.3-1.1,0.3-1.8c0-0.9-0.1-1.6-0.2-2.1
			c-0.1-0.5-0.4-1-0.7-1.3s-0.8-0.6-1.3-0.7c-0.5-0.1-1.3-0.2-2.2-0.2h-0.9V45.6z"/>
		<path fill="#F9C53D" d="M55,59.6V35.1h3.5V57h6.1v2.6H55z"/>
		<path fill="#F9C53D" d="M64.8,59.6L70,35.1h3.5l5.2,24.5h-3.5L74,53.5h-4.4l-1.3,6.1H64.8z M70,50.9h3.5l-1.8-10.5L70,50.9z"/>
		<path fill="#F9C53D" d="M80.7,59.6V35.1h2.6l6.1,15.1V35.1H93v24.5h-2.5l-6.3-16.3v16.3H80.7z"/>
		<path fill="#F9C53D" d="M99.1,59.6V38.2h-4.4v-3.1H107v3.1h-4.4v21.4H99.1z"/>
		<path fill="#F9C53D" d="M115.1,59.9c-2.2,0-3.9-0.6-5.1-1.9s-1.8-3.1-1.9-5.3l3.5-0.9c0.2,3.5,1.3,5.2,3.5,5.2
			c1.8,0,2.6-0.9,2.6-2.6c0-0.5-0.1-1-0.2-1.4s-0.4-0.8-0.6-1.2s-0.6-0.7-0.8-0.9s-0.6-0.5-1-0.8l-4.4-3.5c-0.8-0.6-1.4-1.4-1.9-2.4
			s-0.7-2.1-0.7-3.3c0-1.8,0.6-3.2,1.7-4.3s2.6-1.6,4.5-1.6c2,0,3.6,0.5,4.7,1.5s1.9,2.3,2.2,4.1c0,0.2,0.1,0.5,0.1,0.8l-3.5,0.9
			c0-0.2,0-0.4-0.1-0.7c-0.2-1.1-0.5-2-1-2.7s-1.3-1-2.4-1c-0.8,0-1.5,0.2-1.9,0.7s-0.7,1.1-0.7,2c0,1.4,0.6,2.5,1.8,3.5l4.4,3.5
			c2.3,1.9,3.5,4.1,3.5,6.8c0,1.8-0.6,3.2-1.7,4.2S117,59.9,115.1,59.9z"/>
		<path fill="#FFFFFF" d="M39.9,83.6v-3.1l5.5-7.8c0.1-0.1,0.2-0.3,0.4-0.6c0.2-0.3,0.4-0.5,0.4-0.6c0.1-0.1,0.2-0.3,0.4-0.6
			c0.2-0.3,0.3-0.5,0.4-0.6c0.1-0.2,0.2-0.4,0.3-0.6c0.1-0.3,0.2-0.5,0.2-0.7c0-0.2,0.1-0.5,0.1-0.8c0-0.3,0.1-0.6,0.1-0.9
			c0-0.9-0.2-1.6-0.6-2.2c-0.4-0.6-1-0.9-1.7-0.9c-0.4,0-0.8,0.1-1.1,0.3c-0.3,0.2-0.6,0.5-0.7,0.9c-0.2,0.4-0.3,0.8-0.4,1.2
			s-0.1,0.9-0.1,1.4v0.8h-3.1V68c0-2.1,0.4-3.6,1.3-4.8c0.9-1.1,2.3-1.7,4.2-1.7c1.8,0,3.1,0.5,4.1,1.5c0.9,1,1.4,2.4,1.4,4.2
			c0,0.7-0.1,1.3-0.2,1.9c-0.1,0.6-0.3,1.1-0.6,1.7c-0.3,0.5-0.5,1-0.7,1.3c-0.2,0.3-0.5,0.8-0.9,1.3l-5.5,7h7.8v3.1H39.9z"/>
		<path fill="#FFFFFF" d="M58.8,83.6V78h-6.2v-3.5L58,61.7h3.9V75h2.4v3h-2.4v5.6H58.8z M55.7,75h3.1v-9.4L55.7,75z"/>
		<path fill="#FFFFFF" d="M71,83.8c-1.9,0-3.3-0.6-4.2-1.7c-0.9-1.1-1.3-2.7-1.3-4.8c0-1.4,0.2-2.5,0.6-3.3c0.4-0.8,1-1.5,1.8-2
			c-0.7-0.5-1.2-1.2-1.6-2s-0.5-1.7-0.5-2.9c0-1.8,0.4-3.2,1.3-4.2c0.9-1,2.2-1.5,3.9-1.5c1.7,0,3,0.5,3.9,1.5
			c0.9,1,1.3,2.4,1.3,4.2c0,1.2-0.2,2.1-0.5,2.9c-0.3,0.8-0.8,1.4-1.5,1.9c0.8,0.5,1.4,1.2,1.8,2.1c0.4,0.8,0.6,1.9,0.6,3.3
			c0,2.1-0.4,3.7-1.3,4.8C74.3,83.3,73,83.8,71,83.8z M70,81.1c0.3,0.1,0.6,0.2,1,0.2s0.8-0.1,1-0.2s0.5-0.3,0.7-0.5
			c0.2-0.2,0.3-0.5,0.4-0.9s0.2-0.7,0.2-1s0-0.7,0-1.2c0-0.5,0-1-0.1-1.4c-0.1-0.4-0.2-0.8-0.3-1.2c-0.2-0.4-0.4-0.7-0.7-0.9
			c-0.3-0.2-0.7-0.3-1.2-0.3s-0.9,0.1-1.2,0.3c-0.3,0.2-0.6,0.5-0.7,0.9s-0.3,0.8-0.3,1.2c-0.1,0.4-0.1,0.9-0.1,1.4
			c0,0.5,0,0.9,0,1.2c0,0.3,0.1,0.7,0.2,1c0.1,0.4,0.2,0.7,0.4,0.9S69.7,80.9,70,81.1z M71,70.6c0.4,0,0.7-0.1,1-0.3
			s0.5-0.5,0.6-0.8c0.1-0.4,0.2-0.7,0.3-1.1c0-0.4,0.1-0.8,0.1-1.3c0-2.1-0.7-3.1-2-3.1c-1.3,0-2,1-2,3.1c0,0.5,0,0.9,0.1,1.3
			c0,0.4,0.1,0.7,0.3,1.1s0.3,0.6,0.6,0.8S70.6,70.6,71,70.6z"/>
		<path fill="#FFFFFF" d="M79,86.7l-0.8-1.6c0.6,0,1-0.1,1.2-0.4s0.4-0.6,0.4-1.2h-1.6v-3.1h3.1c0,1.2,0,2.2,0,3
			c0,0.4,0,0.8-0.1,1.1c0,0.3-0.1,0.6-0.2,0.9s-0.2,0.5-0.4,0.7s-0.4,0.3-0.7,0.4C79.7,86.7,79.4,86.7,79,86.7z"/>
		<path fill="#FFFFFF" d="M88.9,83.8c-1.2,0-2.2-0.3-3-0.8c-0.8-0.6-1.4-1.3-1.8-2.3c-0.4-1-0.6-2.1-0.6-3.4V68c0-2,0.5-3.6,1.4-4.7
			c0.9-1.2,2.3-1.7,4.1-1.7c1.8,0,3.2,0.6,4.1,1.7c0.9,1.2,1.4,2.7,1.4,4.7v9.4c0,2-0.5,3.5-1.4,4.7C92,83.2,90.7,83.8,88.9,83.8z
			 M88.9,81.3c1.6,0,2.3-1.3,2.3-3.9V68c0-0.4,0-0.8,0-1.2c0-0.3-0.1-0.7-0.2-1c-0.1-0.4-0.2-0.6-0.4-0.9c-0.2-0.2-0.4-0.4-0.7-0.6
			s-0.6-0.2-1-0.2s-0.7,0.1-1,0.2s-0.5,0.3-0.7,0.6c-0.2,0.2-0.3,0.5-0.4,0.9c-0.1,0.4-0.2,0.7-0.2,1c0,0.3,0,0.7,0,1.2v9.4
			c0,0.5,0,1,0.1,1.4s0.2,0.8,0.4,1.2c0.2,0.4,0.4,0.7,0.7,0.9C88.1,81.2,88.5,81.3,88.9,81.3z"/>
		<path fill="#FFFFFF" d="M102.2,83.8c-1.2,0-2.2-0.3-3-0.8c-0.8-0.6-1.4-1.3-1.8-2.3c-0.4-1-0.6-2.1-0.6-3.4V68
			c0-2,0.5-3.6,1.4-4.7c0.9-1.2,2.3-1.7,4.1-1.7c1.8,0,3.2,0.6,4.1,1.7c0.9,1.2,1.4,2.7,1.4,4.7v9.4c0,2-0.5,3.5-1.4,4.7
			C105.3,83.2,104,83.8,102.2,83.8z M102.2,81.3c1.6,0,2.3-1.3,2.3-3.9V68c0-0.4,0-0.8,0-1.2c0-0.3-0.1-0.7-0.2-1
			c-0.1-0.4-0.2-0.6-0.4-0.9c-0.2-0.2-0.4-0.4-0.7-0.6s-0.6-0.2-1-0.2s-0.7,0.1-1,0.2s-0.5,0.3-0.7,0.6c-0.2,0.2-0.3,0.5-0.4,0.9
			c-0.1,0.4-0.2,0.7-0.2,1c0,0.3,0,0.7,0,1.2v9.4c0,0.5,0,1,0.1,1.4s0.2,0.8,0.4,1.2c0.2,0.4,0.4,0.7,0.7,0.9
			C101.3,81.2,101.7,81.3,102.2,81.3z"/>
		<path fill="#FFFFFF" d="M115.5,83.8c-1.2,0-2.2-0.3-3-0.8c-0.8-0.6-1.4-1.3-1.8-2.3c-0.4-1-0.6-2.1-0.6-3.4V68
			c0-2,0.5-3.6,1.4-4.7c0.9-1.2,2.3-1.7,4.1-1.7c1.8,0,3.2,0.6,4.1,1.7c0.9,1.2,1.4,2.7,1.4,4.7v9.4c0,2-0.5,3.5-1.4,4.7
			C118.6,83.2,117.3,83.8,115.5,83.8z M115.5,81.3c1.6,0,2.3-1.3,2.3-3.9V68c0-0.4,0-0.8,0-1.2c0-0.3-0.1-0.7-0.2-1
			c-0.1-0.4-0.2-0.6-0.4-0.9c-0.2-0.2-0.4-0.4-0.7-0.6s-0.6-0.2-1-0.2s-0.7,0.1-1,0.2s-0.5,0.3-0.7,0.6c-0.2,0.2-0.3,0.5-0.4,0.9
			c-0.1,0.4-0.2,0.7-0.2,1c0,0.3,0,0.7,0,1.2v9.4c0,0.5,0,1,0.1,1.4s0.2,0.8,0.4,1.2c0.2,0.4,0.4,0.7,0.7,0.9
			C114.6,81.2,115,81.3,115.5,81.3z"/>
	</g>
</g>
<g id="plant-front">
	<path fill="#517928" d="M73.8,129.9c0-0.2,0.4-2.7,0.6-6.5c1.1-5.3,2.2-14.6,0.2-23.8C78.6,114.1,74,129.5,73.8,129.9z"/>
	<path fill="#517928" d="M73.8,129.9c-1.6-10.8-1.4-19.1,0-25.6c-1,5.7-1.1,12.8,0.1,21.6C73.9,127.3,73.9,128.6,73.8,129.9z"/>
	<g>
		<path fill="#517928" d="M72.7,101.6c-0.8-3-1.9-5.9-3.5-8.5c-13.4-22.4-28.6-7.1-45.4-16.3c-5.5-3-8.1-7.7-9.1-12.7
			c1.3,4.3,3.8,8.2,8.6,10.8c16.8,9.2,32-6.1,45.4,16.3C70.6,94.3,71.8,97.9,72.7,101.6z"/>
		<path fill="#C4E2B5" d="M52.4,70.5c-1.9-6.9-5.7-15.3-13.2-16.6c-13.1-2.3-19.9-3.7-21.2-9.1c0,0-4.3,10.6-2.9,20.6
			c-0.1-0.4-0.3-0.8-0.4-1.2c0,0,0,0,0,0c-2.1-10.3,2.7-21.9,2.7-21.9c1.3,5.5,8.1,6.8,21.2,9.1c7.7,1.4,11.5,10,13.3,16.9
			C52,69.1,52.2,69.8,52.4,70.5z"/>
		<path fill="#A6D175" d="M74.6,99.6c0.1,0.4,0.2,0.9,0.3,1.3l0,0c1.2,6.5,0.9,13,0.3,18c-0.2,1.7-0.5,3.3-0.7,4.6
			c0.3-5.3,0.3-13.2-1.5-20.5c-0.1-0.4-0.2-0.8-0.3-1.3c-0.8-3.7-2.1-7.3-4-10.5c-1.5-2.5-3-4.5-4.5-6.1c-3.3-3.5-6.7-5.3-10.2-6.2
			c-9.5-2.4-19.8,2-30.7-4c-4.3-2.4-6.9-5.8-8.2-9.6c-1.5-10,2.9-20.6,2.9-20.6c1.3,5.5,8.1,6.8,21.2,9.1
			c7.5,1.3,11.3,9.7,13.2,16.6l0,0c0.4,2,0.7,3.7,0.9,4.9c0.2,1.1,0.2,1.8,0.2,1.8c0.1,0,0.2,0.1,0.3,0.1
			C66.3,81.8,72.2,90.5,74.6,99.6z"/>
		<g>
			<path fill="#517928" d="M21.1,51.2c0,0,0.3,0.5,0.9,1.3c0.3,0.4,0.6,0.9,1,1.4c0.4,0.5,0.9,1.1,1.4,1.6c0.6,0.6,1.1,1.2,1.8,1.7
				c0.3,0.3,0.7,0.6,1,0.9c0.4,0.3,0.7,0.6,1.1,0.8c0.8,0.5,1.6,1,2.5,1.5l0.3,0.2l0,0c0,0-0.1-0.1-0.1,0l0,0l0,0l0.1,0l0.2,0.1
				l0.7,0.3c0.3,0.1,0.5,0.2,0.7,0.3l0.7,0.2c0.9,0.3,1.9,0.6,2.9,0.9c1,0.3,2.1,0.6,3.1,0.9c1.1,0.4,2.1,0.8,3.1,1.5
				c0.5,0.3,0.9,0.8,1.3,1.2c0.3,0.5,0.6,0.9,0.8,1.4c0.1,0.5,0.4,0.9,0.4,1.4c0,0.4,0.1,0.8,0.1,1.2c0,0.7-0.1,1.4-0.2,1.9
				c-0.2,1-0.4,1.5-0.4,1.5s-0.2-0.6-0.4-1.5c-0.1-0.5-0.4-1-0.5-1.6c-0.1-0.3-0.3-0.6-0.4-0.9c-0.1-0.3-0.4-0.5-0.6-0.8
				c-0.2-0.2-0.5-0.5-0.7-0.7c-0.3-0.2-0.6-0.4-0.9-0.5c-0.7-0.3-1.5-0.5-2.5-0.7c-0.9-0.2-2-0.3-3.1-0.6c-1.1-0.2-2.2-0.5-3.4-0.9
				c-0.6-0.2-1.2-0.5-1.7-0.7l-0.7-0.4L29.4,64L29,63.8c-0.5-0.3-1-0.6-1.5-1c-0.5-0.4-0.9-0.7-1.3-1.1c-0.4-0.4-0.8-0.8-1.2-1.2
				c-0.4-0.4-0.7-0.8-1-1.2c-0.6-0.8-1.1-1.7-1.5-2.5c-0.8-1.6-1.1-3-1.3-4c-0.1-0.5-0.1-0.9-0.1-1.2C21.1,51.4,21.1,51.2,21.1,51.2
				z"/>
		</g>
	</g>
	<g>
		<path fill="#517928" d="M149.4,122.1c0.2-6.9-3.6-10.4-23.2-12.2c-19.6-1.8-23.6-18.3-23.6-18.3c-19.9,7-28.7,38.3-28.7,38.3
			s0.1-0.5,0.3-1.5c0,0.2,0,0.3,0,0.3s8.8-31.2,28.7-38.3c0,0,4,16.5,23.6,18.3c18.5,1.7,23,4.9,23.2,11.1c0,0,0,0,0,0
			C149.5,121.2,149.4,122.1,149.4,122.1z"/>
		<path fill="#C4E2B5" d="M149.6,119.8c-0.1-1.7-0.5-3.2-1.4-4.5c-0.2-11.1-3.4-29.2-21-31.7c-16.1-2.3-29.6,6.1-38.7,15.5
			c9-10,23.2-19.7,40.2-17.2C150.5,84.9,150.2,111.6,149.6,119.8z"/>
		<path fill="#A6D175" d="M148.2,115.2c-2.4-3.3-8.5-5.3-21.8-6.5c-19.6-1.8-23.6-18.3-23.6-18.3c-5.3,1.9-9.9,5.5-13.7,9.8
			c-10.3,11.7-15,28.5-15,28.5s0-0.1,0-0.3l0,0c0.4-1.8,1.2-5.1,2.9-9.9c0.6-1.7,1.3-3.5,2.1-5.5c1.6-3.7,4.8-8.9,9.3-14
			c0,0,0,0,0,0c9-9.4,22.6-17.8,38.7-15.5C144.8,86,148,104.2,148.2,115.2z"/>
		<g>
			<path fill="#517928" d="M144.6,108.2c0,0,0-0.2-0.2-0.5c-0.1-0.3-0.3-0.8-0.6-1.4c-0.3-0.6-0.6-1.3-1.1-2
				c-0.5-0.8-1.1-1.6-1.7-2.4c-0.7-0.8-1.5-1.7-2.4-2.5c-0.2-0.2-0.5-0.4-0.7-0.6c-0.2-0.2-0.5-0.4-0.7-0.6c-0.5-0.4-1-0.8-1.6-1.2
				c-0.5-0.4-1.1-0.7-1.7-1.1l-0.4-0.3c0,0-0.1,0,0.1,0l0,0l0,0l-0.1,0l-0.1-0.1l-0.2-0.1l-0.5-0.3l-0.4-0.2c-1.1-0.5-2.4-0.9-3.7-1
				c-1.3-0.2-2.7-0.2-4.1-0.2c-1.4,0.1-2.8,0.2-4.2,0.3c-2.8,0.2-5.5,0.4-8,0c-1.2-0.2-2.3-0.5-3.2-1c-0.9-0.5-1.6-1.1-2-1.6
				c-0.2-0.3-0.4-0.5-0.5-0.8c-0.2-0.2-0.2-0.4-0.3-0.6c-0.1-0.3-0.2-0.5-0.2-0.5s0.1,0.1,0.4,0.4c0.2,0.2,0.7,0.6,1.2,0.9
				c0.5,0.3,1.2,0.6,2,0.8c0.8,0.2,1.8,0.2,2.8,0.2c2.1-0.2,4.6-0.7,7.4-1.3c2.8-0.5,6-1,9.3-0.5c1.7,0.3,3.3,0.7,4.9,1.5l0.6,0.3
				l0.5,0.3l0.5,0.3l0.5,0.4c0.6,0.5,1.2,0.9,1.8,1.4c0.6,0.5,1.1,1,1.6,1.5c0.5,0.5,1,1,1.4,1.6c0.9,1.1,1.5,2.2,2.1,3.3
				c0.5,1.1,0.9,2.1,1.2,3c0.3,0.9,0.4,1.8,0.5,2.4C144.7,107.4,144.6,108.2,144.6,108.2z"/>
		</g>
	</g>
	<g>
	</g>
	<g>
	</g>
	<g>
	</g>
	<g>
	</g>
	<g>
	</g>
	<g>
	</g>
</g>
</svg>
