<?xml version="1.0" encoding="utf-8"?>
<!-- Generator: Adobe Illustrator 19.1.0, SVG Export Plug-In . SVG Version: 6.00 Build 0)  -->
<svg version="1.1" xmlns="http://www.w3.org/2000/svg" xmlns:xlink="http://www.w3.org/1999/xlink" x="0px" y="0px" width="288px"
	 height="288px" viewBox="0 0 288 288" enable-background="new 0 0 288 288" xml:space="preserve">
<g id="Layer_4">
	<path fill="#517928" d="M160.4,195.6c0-0.2-0.1-2.7-0.6-6.5c0.1-5.4-0.5-14.8-4.2-23.5C162.1,179.2,160.4,195.1,160.4,195.6z"/>
	<path fill="#517928" d="M160.4,195.6c-3.6-10.4-4.9-18.6-4.7-25.2c0.1,5.8,1.3,12.8,4.1,21.2C160,193,160.2,194.3,160.4,195.6z"/>
	<g>
		<path fill="#A6D175" d="M200.2,109.5c0,1-0.1,1.9-0.2,2.9c-2.2,18-22,26-22,26c-1,0.7-1.9,1.3-2.8,2c-12.4,9-17,17.6-18.1,25.8
			c-0.2,1.8-0.3,3.6-0.3,5.4v0c-0.1,4.1,0.5,8.1,1.3,12.1c0.5,2.7,1.2,5.4,1.7,8c-0.1-0.2-0.1-0.4-0.2-0.7c-1.1-3.4-1.9-6.7-2.5-9.6
			c-0.8-4.1-1.2-7.7-1.3-11c0,0,0,0,0,0c0.4-19.9,14.1-25.2,19-30.8c0,0,0,0,0,0c0,0,0,0,0,0c0,0,0-0.1-0.1-0.1
			c-0.2-0.4-0.4-0.7-0.6-1.1c0.2-0.2,0.5-0.5,0.7-0.7c-3.5-5.9-5.7-11.2-6.9-15.7c-0.1-0.5-0.2-1-0.3-1.4c0-0.2,0-0.3-0.1-0.5
			c-0.1-0.5-0.1-0.9-0.1-1.4c0-0.4,0.2-0.8,0.2-1.2c0-0.3,0.1-0.8,0.1-0.9c0.6-8.6,5.2-13.7,9.7-16.2c0,0,0,0,0,0
			c0.4-0.2,0.8-0.4,1.2-0.6c0,0,0,0,0,0c0.6-0.3,1.1-0.5,1.7-0.7c0.2-0.1,0.4-0.1,0.5-0.2c0.3-0.1,0.7-0.2,1-0.3
			c0.2,0,0.3-0.1,0.5-0.1c0.2,0,0.3-0.1,0.5-0.1c0.2,0,0.3,0,0.5-0.1c0.1,0,0.3,0,0.4,0c0.4,0,0.8-0.1,1.2-0.2
			c3.7-1.3,4-7.6,3.9-10.7c0-0.9-0.1-1.5-0.1-1.7c0,0,0,0,0,0c0,0,0,0,0.1,0.1c1,1,8.6,9,11.2,20.2c0,0,0,0,0,0c0,0.1,0,0.3,0,0.4
			c0,0.4,0.1,0.9,0.1,1.3v0C200.1,108.4,200.2,108.9,200.2,109.5z"/>
		<path fill="#517928" d="M199.9,114.3c-2.2,18-22,26-22,26c-16.4,11-20.9,21.4-21.1,31.3c-0.3-10.5,3.7-21.4,21.1-33.2
			c0,0,19.8-8,22-26c0.1-1,0.2-2,0.2-2.9C200.2,111.1,200.1,112.7,199.9,114.3z"/>
		<path fill="#517928" d="M176,138.7c-0.2,0.2-1,0.7-1.3,0.9c-1-1.8-2-3.6-2.8-5.2c0,0,0-0.1,0-0.1c-1.9-4.1-3.2-7.8-3.9-11.1v0
			c-0.2-0.9-0.4-1.8-0.5-2.6c0-0.2,0-0.3-0.1-0.5c-0.1-0.5-0.1-0.9-0.1-1.4c0-0.4,0-0.8-0.1-1.2c0-0.3,0-0.6,0.1-0.9
			c0.1,1.2,0.2,2.4,0.5,3.7c0,0,0,0,0,0c0.1,0.4,0.2,0.8,0.3,1.2C169.2,126.5,172.1,132.1,176,138.7z"/>
		<path fill="#C4E2B5" d="M189.2,90.5c0.1,3.4-0.2,10.6-5,10.9c-4.3,0.3-15.8,5.2-16.4,18.9c0,0,0,0,0,0c0,0.1,0,0.2,0,0.2
			c0,0.4,0,0.9,0.1,1.4c0,0.4,0.1,0.8,0.1,1.2c-0.2-0.9-0.4-1.8-0.5-2.6c0-0.2,0-0.3-0.1-0.5c-0.1-0.5-0.1-0.9-0.1-1.4
			c0-0.4,0-0.8-0.1-1.2c0-0.3,0-0.6,0.1-0.9v0c0,0,0,0,0,0c0.6-8.6,5.5-13.6,10.1-16.2c0,0,0,0,0,0c0.4-0.2,0.8-0.4,1.2-0.6
			c0,0,0,0,0,0c0.6-0.3,1.1-0.5,1.7-0.7c0.2-0.1,0.4-0.1,0.5-0.2c0.3-0.1,0.7-0.2,1-0.3c0.2,0,0.3-0.1,0.5-0.1
			c0.2,0,0.3-0.1,0.5-0.1c0.2,0,0.3,0,0.5-0.1c0.1,0,0.3,0,0.4,0c0.4,0,0.8-0.1,1.2-0.2c3.7-1.4,4-7.6,3.9-10.7c0-1-0.1-1.7-0.1-1.7
			s0,0,0,0c0,0,0,0,0,0c0,0,0,0,0.1,0.1c1,1,8.6,9,11.2,20.2c0,0,0,0,0,0c0,0.1,0,0.3,0,0.4c0,0.4,0.1,0.9,0.1,1.3
			c-2.8-10.5-9.8-17.9-10.8-18.8c-0.1-0.1-0.1-0.1-0.1-0.1S189.2,89.5,189.2,90.5z"/>
		<g>
			<path fill="#517928" d="M190.3,90.7c0,0,0.5,0.7,1.2,2.1c0.7,1.4,1.5,3.4,2,6.1c0.2,1.3,0.4,2.8,0.3,4.4c-0.1,1.6-0.4,3.3-1.1,5
				c-0.3,0.8-0.7,1.7-1.3,2.5c-0.5,0.8-1.1,1.6-1.7,2.2c-1.3,1.4-2.7,2.5-4.1,3.6c-1.4,1-2.8,2-4.1,2.9c-0.6,0.5-1.2,1-1.8,1.5
				c-0.5,0.5-1,1-1.4,1.6c-1.7,2.1-2.3,4.8-2.4,7.2c-0.1,1.2,0,2.3,0,3.4c0.1,1,0.1,1.9,0.2,2.7c0.2,1.5,0.3,2.4,0.3,2.4
				s-0.1-0.2-0.3-0.6c-0.2-0.4-0.5-0.9-0.8-1.6c-0.3-0.7-0.7-1.6-1-2.6c-0.3-1-0.6-2.2-0.8-3.5c-0.2-1.3-0.3-2.9,0-4.5
				c0.3-1.6,0.9-3.3,1.8-4.9c1-1.5,2.3-2.9,3.7-4c1.4-1.1,2.8-2.1,4.1-3.1c1.3-1,2.6-2,3.6-3c0.6-0.6,1-1.1,1.5-1.7
				c0.4-0.6,0.8-1.2,1.1-1.8c1.3-2.5,1.6-5.3,1.7-7.7c0-2.4-0.3-4.5-0.5-6C190.5,91.6,190.3,90.7,190.3,90.7z"/>
		</g>
	</g>
</g>
<g id="tail">
	<g>
		<rect x="123.6" y="70.4" fill="none" width="91.1" height="125.2"/>
		<path fill="#F9C53D" d="M125.3,94V70.4h3.4v10.1h5.9V70.4h3.4V94h-3.4v-11h-5.9v11H125.3z"/>
		<path fill="#F9C53D" d="M141.5,94V70.4h3.4V94H141.5z"/>
		<path fill="#F9C53D" d="M154.8,94.3c-1.1,0-2-0.2-2.8-0.5c-0.8-0.3-1.4-0.7-1.9-1.3s-0.9-1.2-1.2-2c-0.3-0.8-0.5-1.7-0.6-2.6
			c-0.1-0.9-0.2-1.9-0.2-3.1v-6c0-5.8,2.3-8.7,6.9-8.7c1.1,0,2.1,0.2,2.9,0.5c0.8,0.3,1.5,0.8,2,1.4s0.9,1.4,1.1,2.2
			c0.3,0.8,0.4,1.8,0.4,2.9c0,0.2,0,0.4,0,0.7h-3.4v-0.7c0-0.6,0-1-0.1-1.4c0-0.4-0.1-0.8-0.3-1.2c-0.1-0.4-0.3-0.7-0.5-0.9
			c-0.2-0.2-0.5-0.4-0.9-0.6c-0.4-0.1-0.8-0.2-1.3-0.2c-0.7,0-1.3,0.1-1.7,0.4c-0.5,0.2-0.8,0.6-1.1,1.1c-0.3,0.5-0.4,1-0.5,1.6
			c-0.1,0.6-0.2,1.2-0.2,2v7.6c0,0.6,0,1.1,0.1,1.5c0,0.5,0.1,0.9,0.2,1.4c0.1,0.5,0.2,0.9,0.4,1.2c0.2,0.3,0.4,0.7,0.6,0.9
			c0.2,0.3,0.5,0.5,0.9,0.6c0.4,0.1,0.8,0.2,1.3,0.2c0.6,0,1.1-0.1,1.5-0.3c0.4-0.2,0.7-0.5,1-0.8c0.2-0.3,0.4-0.8,0.6-1.3
			s0.2-1.1,0.3-1.6c0-0.5,0.1-1.1,0.1-1.8v-0.8h-3.4v-2.5h6.8V94H159l-0.8-2.5C157.5,93.4,156.4,94.3,154.8,94.3z"/>
		<path fill="#F9C53D" d="M164.2,94V70.4h3.4v10.1h5.9V70.4h3.4V94h-3.4v-11h-5.9v11H164.2z"/>
		<path fill="#F9C53D" d="M180.3,94V70.4h9.3v2.5h-5.9v7.6h4.2v2.5h-4.2v8.4h5.9V94H180.3z"/>
		<path fill="#F9C53D" d="M191.6,94V70.4h4.2c2.5,0,4.4,0.5,5.7,1.5c1.3,1,1.9,2.6,1.9,4.9c0,1.4-0.2,2.6-0.8,3.5s-1.2,1.6-2.2,2
			l3.8,11.8h-3.3l-3.4-11H195v11H191.6z M195,80.5h0.8c1.4,0,2.5-0.3,3.2-0.9c0.7-0.6,1.1-1.6,1.1-2.9s-0.4-2.3-1.1-2.9
			c-0.7-0.6-1.8-0.9-3.2-0.9H195V80.5z"/>
		<path fill="#F9C53D" d="M125.3,122V97.5h6.1c4.1,0,6.1,2.3,6.1,7c0,2-0.5,3.5-1.6,4.6s-2.6,1.6-4.5,1.6h-2.6V122H125.3z
			 M128.8,108h0.9c0.8,0,1.4,0,1.9-0.1s1-0.3,1.3-0.5c0.4-0.3,0.7-0.6,0.8-1.1c0.2-0.5,0.3-1.1,0.3-1.8c0-0.9-0.1-1.6-0.2-2.1
			c-0.1-0.5-0.4-1-0.7-1.3s-0.8-0.6-1.3-0.7c-0.5-0.1-1.3-0.2-2.2-0.2h-0.9V108z"/>
		<path fill="#F9C53D" d="M139.6,122V97.5h3.5v21.9h6.1v2.6H139.6z"/>
		<path fill="#F9C53D" d="M149.3,122l5.2-24.5h3.5l5.2,24.5h-3.5l-1.3-6.1h-4.4l-1.3,6.1H149.3z M154.5,113.3h3.5l-1.8-10.5
			L154.5,113.3z"/>
		<path fill="#F9C53D" d="M165.2,122V97.5h2.6l6.1,15.1V97.5h3.5V122H175l-6.3-16.3V122H165.2z"/>
		<path fill="#F9C53D" d="M183.6,122v-21.4h-4.4v-3.1h12.2v3.1h-4.4V122H183.6z"/>
		<path fill="#F9C53D" d="M199.6,122.3c-2.2,0-3.9-0.6-5.1-1.9s-1.8-3.1-1.9-5.3l3.5-0.9c0.2,3.5,1.3,5.2,3.5,5.2
			c1.8,0,2.6-0.9,2.6-2.6c0-0.5-0.1-1-0.2-1.4s-0.4-0.8-0.6-1.2s-0.6-0.7-0.8-0.9s-0.6-0.5-1-0.8l-4.4-3.5c-0.8-0.6-1.4-1.4-1.9-2.4
			s-0.7-2.1-0.7-3.3c0-1.8,0.6-3.2,1.7-4.3s2.6-1.6,4.5-1.6c2,0,3.6,0.5,4.7,1.5s1.9,2.3,2.2,4.1c0,0.2,0.1,0.5,0.1,0.8l-3.5,0.9
			c0-0.2,0-0.4-0.1-0.7c-0.2-1.1-0.5-2-1-2.7s-1.3-1-2.4-1c-0.8,0-1.5,0.2-1.9,0.7s-0.7,1.1-0.7,2c0,1.4,0.6,2.5,1.8,3.5l4.4,3.5
			c2.3,1.9,3.5,4.1,3.5,6.8c0,1.8-0.6,3.2-1.7,4.2S201.5,122.3,199.6,122.3z"/>
		<path fill="#FFFFFF" d="M124.4,146v-3.1l5.5-7.8c0.1-0.1,0.2-0.3,0.4-0.6c0.2-0.3,0.4-0.5,0.4-0.6c0.1-0.1,0.2-0.3,0.4-0.6
			c0.2-0.3,0.3-0.5,0.4-0.6c0.1-0.2,0.2-0.4,0.3-0.6c0.1-0.3,0.2-0.5,0.2-0.7c0-0.2,0.1-0.5,0.1-0.8c0-0.3,0.1-0.6,0.1-0.9
			c0-0.9-0.2-1.6-0.6-2.2c-0.4-0.6-1-0.9-1.7-0.9c-0.4,0-0.8,0.1-1.1,0.3c-0.3,0.2-0.6,0.5-0.7,0.9c-0.2,0.4-0.3,0.8-0.4,1.2
			s-0.1,0.9-0.1,1.4v0.8h-3.1v-0.8c0-2.1,0.4-3.6,1.3-4.8c0.9-1.1,2.3-1.7,4.2-1.7c1.8,0,3.1,0.5,4.1,1.5c0.9,1,1.4,2.4,1.4,4.2
			c0,0.7-0.1,1.3-0.2,1.9c-0.1,0.6-0.3,1.1-0.6,1.7c-0.3,0.5-0.5,1-0.7,1.3c-0.2,0.3-0.5,0.8-0.9,1.3l-5.5,7h7.8v3.1H124.4z"/>
		<path fill="#FFFFFF" d="M143.3,146v-5.6H137v-3.5l5.5-12.8h3.9v13.3h2.4v3h-2.4v5.6H143.3z M140.2,137.5h3.1v-9.4L140.2,137.5z"/>
		<path fill="#FFFFFF" d="M155.6,146.3c-1.9,0-3.3-0.6-4.2-1.7c-0.9-1.1-1.3-2.7-1.3-4.8c0-1.4,0.2-2.5,0.6-3.3c0.4-0.8,1-1.5,1.8-2
			c-0.7-0.5-1.2-1.2-1.6-2s-0.5-1.7-0.5-2.9c0-1.8,0.4-3.2,1.3-4.2c0.9-1,2.2-1.5,3.9-1.5c1.7,0,3,0.5,3.9,1.5
			c0.9,1,1.3,2.4,1.3,4.2c0,1.2-0.2,2.1-0.5,2.9c-0.3,0.8-0.8,1.4-1.5,1.9c0.8,0.5,1.4,1.2,1.8,2.1c0.4,0.8,0.6,1.9,0.6,3.3
			c0,2.1-0.4,3.7-1.3,4.8C158.9,145.7,157.5,146.3,155.6,146.3z M154.5,143.5c0.3,0.1,0.6,0.2,1,0.2s0.8-0.1,1-0.2s0.5-0.3,0.7-0.5
			c0.2-0.2,0.3-0.5,0.4-0.9s0.2-0.7,0.2-1s0-0.7,0-1.2c0-0.5,0-1-0.1-1.4c-0.1-0.4-0.2-0.8-0.3-1.2c-0.2-0.4-0.4-0.7-0.7-0.9
			c-0.3-0.2-0.7-0.3-1.2-0.3s-0.9,0.1-1.2,0.3c-0.3,0.2-0.6,0.5-0.7,0.9s-0.3,0.8-0.3,1.2c-0.1,0.4-0.1,0.9-0.1,1.4
			c0,0.5,0,0.9,0,1.2c0,0.3,0.1,0.7,0.2,1c0.1,0.4,0.2,0.7,0.4,0.9S154.2,143.3,154.5,143.5z M155.6,133.1c0.4,0,0.7-0.1,1-0.3
			s0.5-0.5,0.6-0.8c0.1-0.4,0.2-0.7,0.3-1.1c0-0.4,0.1-0.8,0.1-1.3c0-2.1-0.7-3.1-2-3.1c-1.3,0-2,1-2,3.1c0,0.5,0,0.9,0.1,1.3
			c0,0.4,0.1,0.7,0.3,1.1s0.3,0.6,0.6,0.8S155.1,133.1,155.6,133.1z"/>
		<path fill="#FFFFFF" d="M163.5,149.2l-0.8-1.6c0.6,0,1-0.1,1.2-0.4s0.4-0.6,0.4-1.2h-1.6v-3.1h3.1c0,1.2,0,2.2,0,3
			c0,0.4,0,0.8-0.1,1.1c0,0.3-0.1,0.6-0.2,0.9s-0.2,0.5-0.4,0.7s-0.4,0.3-0.7,0.4C164.2,149.1,163.9,149.2,163.5,149.2z"/>
		<path fill="#FFFFFF" d="M173.4,146.3c-1.2,0-2.2-0.3-3-0.8c-0.8-0.6-1.4-1.3-1.8-2.3c-0.4-1-0.6-2.1-0.6-3.4v-9.4
			c0-2,0.5-3.6,1.4-4.7c0.9-1.2,2.3-1.7,4.1-1.7c1.8,0,3.2,0.6,4.1,1.7c0.9,1.2,1.4,2.7,1.4,4.7v9.4c0,2-0.5,3.5-1.4,4.7
			C176.6,145.7,175.2,146.3,173.4,146.3z M173.4,143.7c1.6,0,2.3-1.3,2.3-3.9v-9.4c0-0.4,0-0.8,0-1.2c0-0.3-0.1-0.7-0.2-1
			c-0.1-0.4-0.2-0.6-0.4-0.9c-0.2-0.2-0.4-0.4-0.7-0.6s-0.6-0.2-1-0.2s-0.7,0.1-1,0.2s-0.5,0.3-0.7,0.6c-0.2,0.2-0.3,0.5-0.4,0.9
			c-0.1,0.4-0.2,0.7-0.2,1c0,0.3,0,0.7,0,1.2v9.4c0,0.5,0,1,0.1,1.4s0.2,0.8,0.4,1.2c0.2,0.4,0.4,0.7,0.7,0.9
			C172.6,143.6,173,143.7,173.4,143.7z"/>
		<path fill="#FFFFFF" d="M186.7,146.3c-1.2,0-2.2-0.3-3-0.8c-0.8-0.6-1.4-1.3-1.8-2.3c-0.4-1-0.6-2.1-0.6-3.4v-9.4
			c0-2,0.5-3.6,1.4-4.7c0.9-1.2,2.3-1.7,4.1-1.7c1.8,0,3.2,0.6,4.1,1.7c0.9,1.2,1.4,2.7,1.4,4.7v9.4c0,2-0.5,3.5-1.4,4.7
			C189.8,145.7,188.5,146.3,186.7,146.3z M186.7,143.7c1.6,0,2.3-1.3,2.3-3.9v-9.4c0-0.4,0-0.8,0-1.2c0-0.3-0.1-0.7-0.2-1
			c-0.1-0.4-0.2-0.6-0.4-0.9c-0.2-0.2-0.4-0.4-0.7-0.6s-0.6-0.2-1-0.2s-0.7,0.1-1,0.2s-0.5,0.3-0.7,0.6c-0.2,0.2-0.3,0.5-0.4,0.9
			c-0.1,0.4-0.2,0.7-0.2,1c0,0.3,0,0.7,0,1.2v9.4c0,0.5,0,1,0.1,1.4s0.2,0.8,0.4,1.2c0.2,0.4,0.4,0.7,0.7,0.9
			C185.9,143.6,186.2,143.7,186.7,143.7z"/>
		<path fill="#FFFFFF" d="M200,146.3c-1.2,0-2.2-0.3-3-0.8c-0.8-0.6-1.4-1.3-1.8-2.3c-0.4-1-0.6-2.1-0.6-3.4v-9.4
			c0-2,0.5-3.6,1.4-4.7c0.9-1.2,2.3-1.7,4.1-1.7c1.8,0,3.2,0.6,4.1,1.7c0.9,1.2,1.4,2.7,1.4,4.7v9.4c0,2-0.5,3.5-1.4,4.7
			C203.1,145.7,201.8,146.3,200,146.3z M200,143.7c1.6,0,2.3-1.3,2.3-3.9v-9.4c0-0.4,0-0.8,0-1.2c0-0.3-0.1-0.7-0.2-1
			c-0.1-0.4-0.2-0.6-0.4-0.9c-0.2-0.2-0.4-0.4-0.7-0.6s-0.6-0.2-1-0.2s-0.7,0.1-1,0.2s-0.5,0.3-0.7,0.6c-0.2,0.2-0.3,0.5-0.4,0.9
			c-0.1,0.4-0.2,0.7-0.2,1c0,0.3,0,0.7,0,1.2v9.4c0,0.5,0,1,0.1,1.4s0.2,0.8,0.4,1.2c0.2,0.4,0.4,0.7,0.7,0.9
			C199.1,143.6,199.5,143.7,200,143.7z"/>
	</g>
</g>
<g id="body">
	<g>
		<path fill="#517928" d="M233.2,174c-1-6.8-5.5-9.6-25.1-7.7c-19.6,1.9-26.6-13.6-26.6-13.6c-18.3,10.6-21.1,42.9-21.1,42.9
			s0-0.5,0-1.5c0,0.2,0,0.3,0,0.3s2.9-32.3,21.1-42.9c0,0,7,15.4,26.6,13.6c18.5-1.8,23.5,0.6,24.9,6.6c0,0,0,0,0,0
			C233.2,173.1,233.2,174,233.2,174z"/>
		<path fill="#C4E2B5" d="M233,171.6c-0.4-1.7-1.1-3.1-2.2-4.2c-2.3-10.8-8.7-28-26.5-27.3c-16.2,0.7-28,11.5-35.1,22.4
			c7-11.5,19.1-23.6,36.4-24.4C227.4,137.3,232.1,163.5,233,171.6z"/>
		<path fill="#A6D175" d="M230.8,167.4c-3-2.8-9.3-3.7-22.6-2.4c-19.6,1.9-26.6-13.6-26.6-13.6c-4.9,2.8-8.7,7.2-11.6,12.2
			c-8,13.4-9.5,30.7-9.5,30.7s0-0.1,0-0.3v0c0-1.8,0.2-5.2,1.1-10.3c0.3-1.7,0.6-3.7,1.1-5.8c0.8-4,3-9.6,6.5-15.4c0,0,0,0,0,0
			c7.1-10.9,18.9-21.7,35.1-22.4C222.1,139.4,228.5,156.6,230.8,167.4z"/>
		<g>
			<path fill="#517928" d="M225.9,161.2c0,0-0.1-0.2-0.3-0.5c-0.2-0.3-0.5-0.7-0.8-1.3c-0.4-0.5-0.9-1.1-1.5-1.8
				c-0.6-0.7-1.3-1.3-2.1-2c-0.8-0.7-1.8-1.4-2.8-2c-0.3-0.2-0.5-0.3-0.8-0.5c-0.3-0.1-0.6-0.3-0.8-0.5c-0.6-0.3-1.1-0.6-1.7-0.9
				c-0.6-0.3-1.2-0.5-1.9-0.8l-0.5-0.2c0,0-0.1,0,0.1,0l0,0l0,0l-0.1,0l-0.1,0l-0.3-0.1l-0.5-0.2l-0.4-0.1c-1.2-0.3-2.5-0.4-3.8-0.3
				c-1.3,0-2.7,0.3-4.1,0.6c-1.4,0.3-2.7,0.7-4.1,1c-2.7,0.7-5.4,1.5-7.8,1.5c-1.2,0.1-2.4-0.1-3.4-0.4c-1-0.3-1.8-0.7-2.3-1.2
				c-0.3-0.2-0.5-0.4-0.7-0.6c-0.2-0.2-0.3-0.4-0.4-0.5c-0.2-0.3-0.3-0.5-0.3-0.5s0.2,0.1,0.5,0.3c0.3,0.2,0.8,0.4,1.3,0.6
				c0.6,0.2,1.3,0.4,2.2,0.4c0.8,0,1.8-0.1,2.8-0.4c2-0.5,4.4-1.6,7-2.6c2.7-1,5.7-2.1,9.1-2.3c1.7-0.1,3.4,0.1,5.1,0.6l0.7,0.2
				l0.5,0.2l0.6,0.2l0.5,0.3c0.7,0.4,1.4,0.7,2,1.1c0.6,0.4,1.3,0.8,1.9,1.2c0.6,0.4,1.2,0.8,1.7,1.3c1.1,0.9,1.9,1.9,2.7,2.8
				c0.7,1,1.3,1.9,1.7,2.8c0.5,0.9,0.7,1.7,0.9,2.3C225.9,160.4,225.9,161.2,225.9,161.2z"/>
		</g>
	</g>
</g>
<g id="front_leaf">
	<g>
		<path fill="#517928" d="M154,168.1c-1.4-2.8-3-5.5-5-7.7c-17.3-19.5-29.4-1.7-47.6-7.6c-5.9-1.9-9.4-6.1-11.3-10.8
			c2,4,5.3,7.3,10.5,9c18.3,5.9,30.3-11.9,47.6,7.6C150.6,161.2,152.5,164.6,154,168.1z"/>
		<path fill="#C4E2B5" d="M128.3,141.2c-3.1-6.4-8.4-13.9-16.1-13.9c-13.3,0.1-20.2,0.1-22.5-5c0,0-2.3,11.2,1,20.7
			c-0.2-0.4-0.4-0.7-0.6-1.1c0,0,0,0,0,0c-3.9-9.8-1.4-22-1.4-22c2.3,5.1,9.3,5.2,22.5,5c7.8-0.1,13.1,7.7,16.2,14.2
			C127.7,139.9,128,140.6,128.3,141.2z"/>
		<path fill="#A6D175" d="M155.6,165.7c0.2,0.4,0.3,0.8,0.5,1.2l0,0c2.4,6.2,3.3,12.6,3.6,17.6c0.1,1.7,0.1,3.3,0.1,4.6
			c-0.7-5.3-2.1-13-5.2-19.9c-0.2-0.4-0.4-0.8-0.5-1.2c-1.5-3.5-3.4-6.8-5.8-9.5c-1.9-2.2-3.8-3.9-5.6-5.2c-3.9-2.9-7.5-4-11.1-4.2
			c-9.8-0.6-19,5.6-30.9,1.8c-4.7-1.5-7.8-4.4-9.9-7.9c-3.3-9.5-1-20.7-1-20.7c2.3,5.1,9.3,5.2,22.5,5c7.7-0.1,13,7.5,16.1,13.9l0,0
			c0.8,1.9,1.4,3.5,1.8,4.6c0.4,1.1,0.5,1.8,0.5,1.8c0.1,0,0.2,0,0.3,0.1C144.1,149.7,151.5,157.2,155.6,165.7z"/>
		<g>
			<path fill="#517928" d="M94,128c0,0,0.4,0.4,1.1,1.1c0.3,0.3,0.8,0.7,1.3,1.2c0.5,0.4,1.1,0.9,1.7,1.4c0.6,0.5,1.3,0.9,2.1,1.4
				c0.4,0.2,0.8,0.5,1.2,0.7c0.4,0.2,0.8,0.4,1.3,0.6c0.9,0.4,1.8,0.7,2.7,1l0.4,0.1l0,0c0,0-0.1,0-0.1,0l0,0l0,0l0.1,0l0.2,0
				l0.8,0.2c0.3,0.1,0.5,0.1,0.7,0.1l0.7,0.1c1,0.2,2,0.2,3.1,0.3c1.1,0.1,2.1,0.2,3.2,0.3c1.1,0.2,2.2,0.4,3.3,0.9
				c0.5,0.2,1,0.6,1.5,0.9c0.4,0.4,0.8,0.8,1.1,1.2c0.2,0.4,0.5,0.8,0.6,1.3c0.1,0.4,0.2,0.8,0.3,1.2c0.1,0.7,0.2,1.4,0.2,1.9
				c0,1-0.1,1.6-0.1,1.6s-0.3-0.5-0.7-1.4c-0.2-0.4-0.5-0.9-0.8-1.5c-0.2-0.2-0.4-0.5-0.6-0.8c-0.2-0.3-0.5-0.5-0.7-0.7
				c-0.3-0.2-0.5-0.4-0.8-0.5c-0.3-0.1-0.6-0.3-1-0.3c-0.7-0.2-1.6-0.2-2.5-0.2c-1,0-2,0-3.2,0c-1.1,0-2.3-0.1-3.5-0.3
				c-0.6-0.1-1.3-0.2-1.8-0.4l-0.8-0.2l-0.5-0.1l-0.4-0.2c-0.6-0.2-1.1-0.4-1.6-0.7c-0.5-0.3-1-0.5-1.5-0.8c-0.5-0.3-0.9-0.6-1.4-1
				c-0.4-0.3-0.8-0.7-1.2-1c-0.8-0.7-1.4-1.4-1.9-2.1c-1.1-1.4-1.7-2.8-2-3.7c-0.2-0.5-0.3-0.9-0.3-1.1C94.1,128.2,94,128,94,128z"
				/>
		</g>
	</g>
	<g>
	</g>
	<g>
	</g>
	<g>
	</g>
	<g>
	</g>
	<g>
	</g>
	<g>
	</g>
</g>
</svg>
