<?xml version="1.0" encoding="utf-8"?>
<!-- Generator: Adobe Illustrator 19.1.0, SVG Export Plug-In . SVG Version: 6.00 Build 0)  -->
<svg version="1.1" xmlns="http://www.w3.org/2000/svg" xmlns:xlink="http://www.w3.org/1999/xlink" x="0px" y="0px" width="155.4px"
	 height="141.2px" viewBox="0 0 155.4 141.2" enable-background="new 0 0 155.4 141.2" xml:space="preserve">
<g id="back">
	<g>
		<path fill="#A6D175" d="M115.7,47.1c0,1-0.1,1.9-0.2,2.9c-2.2,18-22,26-22,26c-1,0.7-1.9,1.3-2.8,2c-12.4,9-17,17.6-18.1,25.8
			c-0.2,1.8-0.3,3.6-0.3,5.4v0c-0.1,4.1,0.5,8.1,1.3,12.1c0.5,2.7,1.2,5.4,1.7,8c-0.1-0.2-0.1-0.4-0.2-0.7c-1.1-3.4-1.9-6.7-2.5-9.6
			c-0.8-4.1-1.2-7.7-1.3-11c0,0,0,0,0,0c0.4-19.9,14.1-25.2,19-30.8c0,0,0,0,0,0c0,0,0,0,0,0c0,0,0-0.1-0.1-0.1
			c-0.2-0.4-0.4-0.7-0.6-1.1c0.2-0.2,0.5-0.5,0.7-0.7c-3.5-5.9-5.7-11.2-6.9-15.7c-0.1-0.5-0.2-1-0.3-1.4c0-0.2,0-0.3-0.1-0.5
			c-0.1-0.5-0.1-0.9-0.1-1.4c0-0.4,0.2-0.8,0.2-1.2c0-0.3,0.1-0.8,0.1-0.9c0.6-8.6,5.2-13.7,9.7-16.2c0,0,0,0,0,0
			c0.4-0.2,0.8-0.4,1.2-0.6c0,0,0,0,0,0c0.6-0.3,1.1-0.5,1.7-0.7c0.2-0.1,0.4-0.1,0.5-0.2c0.3-0.1,0.7-0.2,1-0.3
			c0.2,0,0.3-0.1,0.5-0.1c0.2,0,0.3-0.1,0.5-0.1c0.2,0,0.3,0,0.5-0.1c0.1,0,0.3,0,0.4,0c0.4,0,0.8-0.1,1.2-0.2
			c3.7-1.3,4-7.6,3.9-10.7c0-0.9-0.1-1.5-0.1-1.7c0,0,0,0,0,0c0,0,0,0,0.1,0.1c1,1,8.6,9,11.2,20.2c0,0,0,0,0,0c0,0.1,0,0.3,0,0.4
			c0,0.4,0.1,0.9,0.1,1.3v0C115.6,45.9,115.6,46.5,115.7,47.1z"/>
		<path fill="#517928" d="M115.4,51.9c-2.2,18-22,26-22,26C77,89,72.5,99.3,72.3,109.2C72,98.7,76,87.8,93.4,76c0,0,19.8-8,22-26
			c0.1-1,0.2-2,0.2-2.9C115.7,48.7,115.6,50.3,115.4,51.9z"/>
		<path fill="#517928" d="M91.5,76.3c-0.2,0.2-1,0.7-1.3,0.9c-1-1.8-2-3.6-2.8-5.2c0,0,0-0.1,0-0.1c-1.9-4.1-3.2-7.8-3.9-11.1v0
			c-0.2-0.9-0.4-1.8-0.5-2.6c0-0.2,0-0.3-0.1-0.5c-0.1-0.5-0.1-0.9-0.1-1.4c0-0.4,0-0.8-0.1-1.2c0-0.3,0-0.6,0.1-0.9
			c0.1,1.2,0.2,2.4,0.5,3.7c0,0,0,0,0,0c0.1,0.4,0.2,0.8,0.3,1.2C84.7,64.1,87.6,69.7,91.5,76.3z"/>
		<path fill="#C4E2B5" d="M104.7,28.1c0.1,3.4-0.2,10.6-5,10.9c-4.3,0.3-15.8,5.2-16.4,18.9c0,0,0,0,0,0c0,0.1,0,0.2,0,0.2
			c0,0.4,0,0.9,0.1,1.4c0,0.4,0.1,0.8,0.1,1.2c-0.2-0.9-0.4-1.8-0.5-2.6c0-0.2,0-0.3-0.1-0.5c-0.1-0.5-0.1-0.9-0.1-1.4
			c0-0.4,0-0.8-0.1-1.2c0-0.3,0-0.6,0.1-0.9v0c0,0,0,0,0,0c0.6-8.6,5.5-13.6,10.1-16.2c0,0,0,0,0,0c0.4-0.2,0.8-0.4,1.2-0.6
			c0,0,0,0,0,0c0.6-0.3,1.1-0.5,1.7-0.7c0.2-0.1,0.4-0.1,0.5-0.2c0.3-0.1,0.7-0.2,1-0.3c0.2,0,0.3-0.1,0.5-0.1
			c0.2,0,0.3-0.1,0.5-0.1c0.2,0,0.3,0,0.5-0.1c0.1,0,0.3,0,0.4,0c0.4,0,0.8-0.1,1.2-0.2c3.7-1.4,4-7.6,3.9-10.7c0-1-0.1-1.7-0.1-1.7
			s0,0,0,0c0,0,0,0,0,0c0,0,0,0,0.1,0.1c1,1,8.6,9,11.2,20.2c0,0,0,0,0,0c0,0.1,0,0.3,0,0.4c0,0.4,0.1,0.9,0.1,1.3
			c-2.8-10.5-9.8-17.9-10.8-18.8c-0.1-0.1-0.1-0.1-0.1-0.1S104.7,27,104.7,28.1z"/>
		<g>
			<path fill="#517928" d="M105.8,28.3c0,0,0.5,0.7,1.2,2.1c0.7,1.4,1.5,3.4,2,6.1c0.2,1.3,0.4,2.8,0.3,4.4c-0.1,1.6-0.4,3.3-1.1,5
				c-0.3,0.8-0.7,1.7-1.3,2.5c-0.5,0.8-1.1,1.6-1.7,2.2c-1.3,1.4-2.7,2.5-4.1,3.6c-1.4,1-2.8,2-4.1,2.9c-0.6,0.5-1.2,1-1.8,1.5
				c-0.5,0.5-1,1-1.4,1.6c-1.7,2.1-2.3,4.8-2.4,7.2c-0.1,1.2,0,2.3,0,3.4c0.1,1,0.1,1.9,0.2,2.7c0.2,1.5,0.3,2.4,0.3,2.4
				S92,75.4,91.8,75c-0.2-0.4-0.5-0.9-0.8-1.6c-0.3-0.7-0.7-1.6-1-2.6c-0.3-1-0.6-2.2-0.8-3.5c-0.2-1.3-0.3-2.9,0-4.5
				c0.3-1.6,0.9-3.3,1.8-4.9c1-1.5,2.3-2.9,3.7-4c1.4-1.1,2.8-2.1,4.1-3.1c1.3-1,2.6-2,3.6-3c0.6-0.6,1-1.1,1.5-1.7
				c0.4-0.6,0.8-1.2,1.1-1.8c1.3-2.5,1.6-5.3,1.7-7.7c0-2.4-0.3-4.5-0.5-6C106,29.1,105.8,28.3,105.8,28.3z"/>
		</g>
	</g>
</g>
<g id="text">
	<g>
		<rect x="39.1" y="8" fill="none" width="91.1" height="125.2"/>
		<path fill="#F9C53D" d="M40.8,31.6V8h3.4v10.1H50V8h3.4v23.6H50v-11h-5.9v11H40.8z"/>
		<path fill="#F9C53D" d="M56.9,31.6V8h3.4v23.6H56.9z"/>
		<path fill="#F9C53D" d="M70.3,31.8c-1.1,0-2-0.2-2.8-0.5c-0.8-0.3-1.4-0.7-1.9-1.3s-0.9-1.2-1.2-2c-0.3-0.8-0.5-1.7-0.6-2.6
			c-0.1-0.9-0.2-1.9-0.2-3.1v-6c0-5.8,2.3-8.7,6.9-8.7c1.1,0,2.1,0.2,2.9,0.5c0.8,0.3,1.5,0.8,2,1.4s0.9,1.4,1.1,2.2
			c0.3,0.8,0.4,1.8,0.4,2.9c0,0.2,0,0.4,0,0.7h-3.4v-0.7c0-0.6,0-1-0.1-1.4c0-0.4-0.1-0.8-0.3-1.2c-0.1-0.4-0.3-0.7-0.5-0.9
			c-0.2-0.2-0.5-0.4-0.9-0.6c-0.4-0.1-0.8-0.2-1.3-0.2c-0.7,0-1.3,0.1-1.7,0.4c-0.5,0.2-0.8,0.6-1.1,1.1c-0.3,0.5-0.4,1-0.5,1.6
			c-0.1,0.6-0.2,1.2-0.2,2v7.6c0,0.6,0,1.1,0.1,1.5c0,0.5,0.1,0.9,0.2,1.4c0.1,0.5,0.2,0.9,0.4,1.2c0.2,0.3,0.4,0.7,0.6,0.9
			c0.2,0.3,0.5,0.5,0.9,0.6c0.4,0.1,0.8,0.2,1.3,0.2c0.6,0,1.1-0.1,1.5-0.3c0.4-0.2,0.7-0.5,1-0.8c0.2-0.3,0.4-0.8,0.6-1.3
			s0.2-1.1,0.3-1.6c0-0.5,0.1-1.1,0.1-1.8v-0.8h-3.4v-2.5H77v11.8h-2.5l-0.8-2.5C73,30.9,71.8,31.8,70.3,31.8z"/>
		<path fill="#F9C53D" d="M79.7,31.6V8h3.4v10.1H89V8h3.4v23.6H89v-11h-5.9v11H79.7z"/>
		<path fill="#F9C53D" d="M95.8,31.6V8h9.3v2.5h-5.9v7.6h4.2v2.5h-4.2v8.4h5.9v2.5H95.8z"/>
		<path fill="#F9C53D" d="M107.1,31.6V8h4.2c2.5,0,4.4,0.5,5.7,1.5c1.3,1,1.9,2.6,1.9,4.9c0,1.4-0.2,2.6-0.8,3.5s-1.2,1.6-2.2,2
			l3.8,11.8h-3.3l-3.4-11h-2.5v11H107.1z M110.5,18.1h0.8c1.4,0,2.5-0.3,3.2-0.9c0.7-0.6,1.1-1.6,1.1-2.9s-0.4-2.3-1.1-2.9
			c-0.7-0.6-1.8-0.9-3.2-0.9h-0.8V18.1z"/>
		<path fill="#F9C53D" d="M40.8,59.6V35.1h6.1c4.1,0,6.1,2.3,6.1,7c0,2-0.5,3.5-1.6,4.6s-2.6,1.6-4.5,1.6h-2.6v11.4H40.8z
			 M44.3,45.6h0.9c0.8,0,1.4,0,1.9-0.1s1-0.3,1.3-0.5c0.4-0.3,0.7-0.6,0.8-1.1c0.2-0.5,0.3-1.1,0.3-1.8c0-0.9-0.1-1.6-0.2-2.1
			c-0.1-0.5-0.4-1-0.7-1.3s-0.8-0.6-1.3-0.7c-0.5-0.1-1.3-0.2-2.2-0.2h-0.9V45.6z"/>
		<path fill="#F9C53D" d="M55,59.6V35.1h3.5V57h6.1v2.6H55z"/>
		<path fill="#F9C53D" d="M64.8,59.6L70,35.1h3.5l5.2,24.5h-3.5L74,53.5h-4.4l-1.3,6.1H64.8z M70,50.9h3.5l-1.8-10.5L70,50.9z"/>
		<path fill="#F9C53D" d="M80.7,59.6V35.1h2.6l6.1,15.1V35.1H93v24.5h-2.5l-6.3-16.3v16.3H80.7z"/>
		<path fill="#F9C53D" d="M99.1,59.6V38.2h-4.4v-3.1H107v3.1h-4.4v21.4H99.1z"/>
		<path fill="#F9C53D" d="M115.1,59.9c-2.2,0-3.9-0.6-5.1-1.9s-1.8-3.1-1.9-5.3l3.5-0.9c0.2,3.5,1.3,5.2,3.5,5.2
			c1.8,0,2.6-0.9,2.6-2.6c0-0.5-0.1-1-0.2-1.4s-0.4-0.8-0.6-1.2s-0.6-0.7-0.8-0.9s-0.6-0.5-1-0.8l-4.4-3.5c-0.8-0.6-1.4-1.4-1.9-2.4
			s-0.7-2.1-0.7-3.3c0-1.8,0.6-3.2,1.7-4.3s2.6-1.6,4.5-1.6c2,0,3.6,0.5,4.7,1.5s1.9,2.3,2.2,4.1c0,0.2,0.1,0.5,0.1,0.8l-3.5,0.9
			c0-0.2,0-0.4-0.1-0.7c-0.2-1.1-0.5-2-1-2.7s-1.3-1-2.4-1c-0.8,0-1.5,0.2-1.9,0.7s-0.7,1.1-0.7,2c0,1.4,0.6,2.5,1.8,3.5l4.4,3.5
			c2.3,1.9,3.5,4.1,3.5,6.8c0,1.8-0.6,3.2-1.7,4.2S117,59.9,115.1,59.9z"/>
		<path fill="#FFFFFF" d="M39.9,83.6v-3.1l5.5-7.8c0.1-0.1,0.2-0.3,0.4-0.6c0.2-0.3,0.4-0.5,0.4-0.6c0.1-0.1,0.2-0.3,0.4-0.6
			c0.2-0.3,0.3-0.5,0.4-0.6c0.1-0.2,0.2-0.4,0.3-0.6c0.1-0.3,0.2-0.5,0.2-0.7c0-0.2,0.1-0.5,0.1-0.8c0-0.3,0.1-0.6,0.1-0.9
			c0-0.9-0.2-1.6-0.6-2.2c-0.4-0.6-1-0.9-1.7-0.9c-0.4,0-0.8,0.1-1.1,0.3c-0.3,0.2-0.6,0.5-0.7,0.9c-0.2,0.4-0.3,0.8-0.4,1.2
			s-0.1,0.9-0.1,1.4v0.8h-3.1V68c0-2.1,0.4-3.6,1.3-4.8c0.9-1.1,2.3-1.7,4.2-1.7c1.8,0,3.1,0.5,4.1,1.5c0.9,1,1.4,2.4,1.4,4.2
			c0,0.7-0.1,1.3-0.2,1.9c-0.1,0.6-0.3,1.1-0.6,1.7c-0.3,0.5-0.5,1-0.7,1.3c-0.2,0.3-0.5,0.8-0.9,1.3l-5.5,7h7.8v3.1H39.9z"/>
		<path fill="#FFFFFF" d="M58.8,83.6V78h-6.2v-3.5L58,61.7h3.9V75h2.4v3h-2.4v5.6H58.8z M55.7,75h3.1v-9.4L55.7,75z"/>
		<path fill="#FFFFFF" d="M71,83.8c-1.9,0-3.3-0.6-4.2-1.7c-0.9-1.1-1.3-2.7-1.3-4.8c0-1.4,0.2-2.5,0.6-3.3c0.4-0.8,1-1.5,1.8-2
			c-0.7-0.5-1.2-1.2-1.6-2s-0.5-1.7-0.5-2.9c0-1.8,0.4-3.2,1.3-4.2c0.9-1,2.2-1.5,3.9-1.5c1.7,0,3,0.5,3.9,1.5
			c0.9,1,1.3,2.4,1.3,4.2c0,1.2-0.2,2.1-0.5,2.9c-0.3,0.8-0.8,1.4-1.5,1.9c0.8,0.5,1.4,1.2,1.8,2.1c0.4,0.8,0.6,1.9,0.6,3.3
			c0,2.1-0.4,3.7-1.3,4.8C74.3,83.3,73,83.8,71,83.8z M70,81.1c0.3,0.1,0.6,0.2,1,0.2s0.8-0.1,1-0.2s0.5-0.3,0.7-0.5
			c0.2-0.2,0.3-0.5,0.4-0.9s0.2-0.7,0.2-1s0-0.7,0-1.2c0-0.5,0-1-0.1-1.4c-0.1-0.4-0.2-0.8-0.3-1.2c-0.2-0.4-0.4-0.7-0.7-0.9
			c-0.3-0.2-0.7-0.3-1.2-0.3s-0.9,0.1-1.2,0.3c-0.3,0.2-0.6,0.5-0.7,0.9s-0.3,0.8-0.3,1.2c-0.1,0.4-0.1,0.9-0.1,1.4
			c0,0.5,0,0.9,0,1.2c0,0.3,0.1,0.7,0.2,1c0.1,0.4,0.2,0.7,0.4,0.9S69.7,80.9,70,81.1z M71,70.6c0.4,0,0.7-0.1,1-0.3
			s0.5-0.5,0.6-0.8c0.1-0.4,0.2-0.7,0.3-1.1c0-0.4,0.1-0.8,0.1-1.3c0-2.1-0.7-3.1-2-3.1c-1.3,0-2,1-2,3.1c0,0.5,0,0.9,0.1,1.3
			c0,0.4,0.1,0.7,0.3,1.1s0.3,0.6,0.6,0.8S70.6,70.6,71,70.6z"/>
		<path fill="#FFFFFF" d="M79,86.7l-0.8-1.6c0.6,0,1-0.1,1.2-0.4s0.4-0.6,0.4-1.2h-1.6v-3.1h3.1c0,1.2,0,2.2,0,3
			c0,0.4,0,0.8-0.1,1.1c0,0.3-0.1,0.6-0.2,0.9s-0.2,0.5-0.4,0.7s-0.4,0.3-0.7,0.4C79.7,86.7,79.4,86.7,79,86.7z"/>
		<path fill="#FFFFFF" d="M88.9,83.8c-1.2,0-2.2-0.3-3-0.8c-0.8-0.6-1.4-1.3-1.8-2.3c-0.4-1-0.6-2.1-0.6-3.4V68c0-2,0.5-3.6,1.4-4.7
			c0.9-1.2,2.3-1.7,4.1-1.7c1.8,0,3.2,0.6,4.1,1.7c0.9,1.2,1.4,2.7,1.4,4.7v9.4c0,2-0.5,3.5-1.4,4.7C92,83.2,90.7,83.8,88.9,83.8z
			 M88.9,81.3c1.6,0,2.3-1.3,2.3-3.9V68c0-0.4,0-0.8,0-1.2c0-0.3-0.1-0.7-0.2-1c-0.1-0.4-0.2-0.6-0.4-0.9c-0.2-0.2-0.4-0.4-0.7-0.6
			s-0.6-0.2-1-0.2s-0.7,0.1-1,0.2s-0.5,0.3-0.7,0.6c-0.2,0.2-0.3,0.5-0.4,0.9c-0.1,0.4-0.2,0.7-0.2,1c0,0.3,0,0.7,0,1.2v9.4
			c0,0.5,0,1,0.1,1.4s0.2,0.8,0.4,1.2c0.2,0.4,0.4,0.7,0.7,0.9C88.1,81.2,88.5,81.3,88.9,81.3z"/>
		<path fill="#FFFFFF" d="M102.2,83.8c-1.2,0-2.2-0.3-3-0.8c-0.8-0.6-1.4-1.3-1.8-2.3c-0.4-1-0.6-2.1-0.6-3.4V68
			c0-2,0.5-3.6,1.4-4.7c0.9-1.2,2.3-1.7,4.1-1.7c1.8,0,3.2,0.6,4.1,1.7c0.9,1.2,1.4,2.7,1.4,4.7v9.4c0,2-0.5,3.5-1.4,4.7
			C105.3,83.2,104,83.8,102.2,83.8z M102.2,81.3c1.6,0,2.3-1.3,2.3-3.9V68c0-0.4,0-0.8,0-1.2c0-0.3-0.1-0.7-0.2-1
			c-0.1-0.4-0.2-0.6-0.4-0.9c-0.2-0.2-0.4-0.4-0.7-0.6s-0.6-0.2-1-0.2s-0.7,0.1-1,0.2s-0.5,0.3-0.7,0.6c-0.2,0.2-0.3,0.5-0.4,0.9
			c-0.1,0.4-0.2,0.7-0.2,1c0,0.3,0,0.7,0,1.2v9.4c0,0.5,0,1,0.1,1.4s0.2,0.8,0.4,1.2c0.2,0.4,0.4,0.7,0.7,0.9
			C101.3,81.2,101.7,81.3,102.2,81.3z"/>
		<path fill="#FFFFFF" d="M115.5,83.8c-1.2,0-2.2-0.3-3-0.8c-0.8-0.6-1.4-1.3-1.8-2.3c-0.4-1-0.6-2.1-0.6-3.4V68
			c0-2,0.5-3.6,1.4-4.7c0.9-1.2,2.3-1.7,4.1-1.7c1.8,0,3.2,0.6,4.1,1.7c0.9,1.2,1.4,2.7,1.4,4.7v9.4c0,2-0.5,3.5-1.4,4.7
			C118.6,83.2,117.3,83.8,115.5,83.8z M115.5,81.3c1.6,0,2.3-1.3,2.3-3.9V68c0-0.4,0-0.8,0-1.2c0-0.3-0.1-0.7-0.2-1
			c-0.1-0.4-0.2-0.6-0.4-0.9c-0.2-0.2-0.4-0.4-0.7-0.6s-0.6-0.2-1-0.2s-0.7,0.1-1,0.2s-0.5,0.3-0.7,0.6c-0.2,0.2-0.3,0.5-0.4,0.9
			c-0.1,0.4-0.2,0.7-0.2,1c0,0.3,0,0.7,0,1.2v9.4c0,0.5,0,1,0.1,1.4s0.2,0.8,0.4,1.2c0.2,0.4,0.4,0.7,0.7,0.9
			C114.6,81.2,115,81.3,115.5,81.3z"/>
	</g>
</g>
<g id="front">
	<path fill="#517928" d="M75.9,133.2c0-0.2-0.1-2.7-0.6-6.5c0.1-5.4-0.5-14.8-4.2-23.5C77.6,116.8,75.9,132.7,75.9,133.2z"/>
	<path fill="#517928" d="M75.9,133.2c-3.6-10.4-4.9-18.6-4.7-25.2c0.1,5.8,1.3,12.8,4.1,21.2C75.5,130.6,75.7,131.9,75.9,133.2z"/>
	<g>
		<path fill="#517928" d="M69.5,105.6c-1.4-2.8-3-5.5-5-7.7c-17.3-19.5-29.4-1.7-47.6-7.6c-5.9-1.9-9.4-6.1-11.3-10.8
			c2,4,5.3,7.3,10.5,9c18.3,5.9,30.3-11.9,47.6,7.6C66.1,98.8,68,102.1,69.5,105.6z"/>
		<path fill="#C4E2B5" d="M43.8,78.8c-3.1-6.4-8.4-13.9-16.1-13.9C14.5,65,7.5,65,5.2,59.9c0,0-2.3,11.2,1,20.7
			c-0.2-0.4-0.4-0.7-0.6-1.1c0,0,0,0,0,0c-3.9-9.8-1.4-22-1.4-22c2.3,5.1,9.3,5.2,22.5,5c7.8-0.1,13.1,7.7,16.2,14.2
			C43.2,77.4,43.5,78.1,43.8,78.8z"/>
		<path fill="#A6D175" d="M71.1,103.3c0.2,0.4,0.3,0.8,0.5,1.2l0,0c2.4,6.2,3.3,12.6,3.6,17.6c0.1,1.7,0.1,3.3,0.1,4.6
			c-0.7-5.3-2.1-13-5.2-19.9c-0.2-0.4-0.4-0.8-0.5-1.2c-1.5-3.5-3.4-6.8-5.8-9.5c-1.9-2.2-3.8-3.9-5.6-5.2c-3.9-2.9-7.5-4-11.1-4.2
			c-9.8-0.6-19,5.6-30.9,1.8c-4.7-1.5-7.8-4.4-9.9-7.9c-3.3-9.5-1-20.7-1-20.7c2.3,5.1,9.3,5.2,22.5,5c7.7-0.1,13,7.5,16.1,13.9l0,0
			c0.8,1.9,1.4,3.5,1.8,4.6c0.4,1.1,0.5,1.8,0.5,1.8c0.1,0,0.2,0,0.3,0.1C59.6,87.3,67,94.8,71.1,103.3z"/>
		<g>
			<path fill="#517928" d="M9.5,65.6c0,0,0.4,0.4,1.1,1.1c0.3,0.3,0.8,0.7,1.3,1.2c0.5,0.4,1.1,0.9,1.7,1.4c0.6,0.5,1.3,0.9,2.1,1.4
				c0.4,0.2,0.8,0.5,1.2,0.7c0.4,0.2,0.8,0.4,1.3,0.6c0.9,0.4,1.8,0.7,2.7,1l0.4,0.1l0,0c0,0-0.1,0-0.1,0l0,0l0,0l0.1,0l0.2,0
				l0.8,0.2c0.3,0.1,0.5,0.1,0.7,0.1l0.7,0.1c1,0.2,2,0.2,3.1,0.3c1.1,0.1,2.1,0.2,3.2,0.3c1.1,0.2,2.2,0.4,3.3,0.9
				c0.5,0.2,1,0.6,1.5,0.9c0.4,0.4,0.8,0.8,1.1,1.2c0.2,0.4,0.5,0.8,0.6,1.3c0.1,0.4,0.2,0.8,0.3,1.2c0.1,0.7,0.2,1.4,0.2,1.9
				c0,1-0.1,1.6-0.1,1.6s-0.3-0.5-0.7-1.4c-0.2-0.4-0.5-0.9-0.8-1.5c-0.2-0.2-0.4-0.5-0.6-0.8c-0.2-0.3-0.5-0.5-0.7-0.7
				c-0.3-0.2-0.5-0.4-0.8-0.5c-0.3-0.1-0.6-0.3-1-0.3c-0.7-0.2-1.6-0.2-2.5-0.2c-1,0-2,0-3.2,0c-1.1,0-2.3-0.1-3.5-0.3
				c-0.6-0.1-1.3-0.2-1.8-0.4l-0.8-0.2L20,76.7l-0.4-0.2c-0.6-0.2-1.1-0.4-1.6-0.7c-0.5-0.3-1-0.5-1.5-0.8c-0.5-0.3-0.9-0.6-1.4-1
				c-0.4-0.3-0.8-0.7-1.2-1c-0.8-0.7-1.4-1.4-1.9-2.1c-1.1-1.4-1.7-2.8-2-3.7c-0.2-0.5-0.3-0.9-0.3-1.1C9.5,65.7,9.5,65.6,9.5,65.6z
				"/>
		</g>
	</g>
	<g>
		<path fill="#517928" d="M148.7,111.6c-1-6.8-5.5-9.6-25.1-7.7C104,105.7,97,90.3,97,90.3c-18.3,10.6-21.1,42.9-21.1,42.9
			s0-0.5,0-1.5c0,0.2,0,0.3,0,0.3S78.8,99.6,97,89c0,0,7,15.4,26.6,13.6c18.5-1.8,23.5,0.6,24.9,6.6c0,0,0,0,0,0
			C148.7,110.7,148.7,111.6,148.7,111.6z"/>
		<path fill="#C4E2B5" d="M148.5,109.2c-0.4-1.7-1.1-3.1-2.2-4.2c-2.3-10.8-8.7-28-26.5-27.3c-16.2,0.7-28,11.5-35.1,22.4
			c7-11.5,19.1-23.6,36.4-24.4C142.9,74.8,147.6,101.1,148.5,109.2z"/>
		<path fill="#A6D175" d="M146.3,105c-3-2.8-9.3-3.7-22.6-2.4C104,104.5,97,89,97,89c-4.9,2.8-8.7,7.2-11.6,12.2
			c-8,13.4-9.5,30.7-9.5,30.7s0-0.1,0-0.3v0c0-1.8,0.2-5.2,1.1-10.3c0.3-1.7,0.6-3.7,1.1-5.8c0.8-4,3-9.6,6.5-15.4c0,0,0,0,0,0
			c7.1-10.9,18.9-21.7,35.1-22.4C137.5,77,144,94.2,146.3,105z"/>
		<g>
			<path fill="#517928" d="M141.4,98.8c0,0-0.1-0.2-0.3-0.5c-0.2-0.3-0.5-0.7-0.8-1.3c-0.4-0.5-0.9-1.1-1.5-1.8
				c-0.6-0.7-1.3-1.3-2.1-2c-0.8-0.7-1.8-1.4-2.8-2c-0.3-0.2-0.5-0.3-0.8-0.5c-0.3-0.1-0.6-0.3-0.8-0.5c-0.6-0.3-1.1-0.6-1.7-0.9
				c-0.6-0.3-1.2-0.5-1.9-0.8l-0.5-0.2c0,0-0.1,0,0.1,0l0,0l0,0l-0.1,0l-0.1,0l-0.3-0.1l-0.5-0.2l-0.4-0.1c-1.2-0.3-2.5-0.4-3.8-0.3
				c-1.3,0-2.7,0.3-4.1,0.6c-1.4,0.3-2.7,0.7-4.1,1c-2.7,0.7-5.4,1.5-7.8,1.5c-1.2,0.1-2.4-0.1-3.4-0.4c-1-0.3-1.8-0.7-2.3-1.2
				c-0.3-0.2-0.5-0.4-0.7-0.6c-0.2-0.2-0.3-0.4-0.4-0.5c-0.2-0.3-0.3-0.5-0.3-0.5s0.2,0.1,0.5,0.3c0.3,0.2,0.8,0.4,1.3,0.6
				c0.6,0.2,1.3,0.4,2.2,0.4c0.8,0,1.8-0.1,2.8-0.4c2-0.5,4.4-1.6,7-2.6c2.7-1,5.7-2.1,9.1-2.3c1.7-0.1,3.4,0.1,5.1,0.6l0.7,0.2
				l0.5,0.2l0.6,0.2l0.5,0.3c0.7,0.4,1.4,0.7,2,1.1c0.6,0.4,1.3,0.8,1.9,1.2c0.6,0.4,1.2,0.8,1.7,1.3c1.1,0.9,1.9,1.9,2.7,2.8
				c0.7,1,1.3,1.9,1.7,2.8c0.5,0.9,0.7,1.7,0.9,2.3C141.4,98,141.4,98.8,141.4,98.8z"/>
		</g>
	</g>
	<g>
	</g>
	<g>
	</g>
	<g>
	</g>
	<g>
	</g>
	<g>
	</g>
	<g>
	</g>
</g>
</svg>
