<?xml version="1.0" encoding="utf-8"?>
<!-- Generator: Adobe Illustrator 19.1.0, SVG Export Plug-In . SVG Version: 6.00 Build 0)  -->
<svg version="1.1" xmlns="http://www.w3.org/2000/svg" xmlns:xlink="http://www.w3.org/1999/xlink" x="0px" y="0px" width="115.6px"
	 height="119px" viewBox="0 0 115.6 119" enable-background="new 0 0 115.6 119" xml:space="preserve">
<g id="butterfly">
</g>
<g id="moth">
	<g>
		<rect x="0" y="44.4" fill="none" width="70.6" height="33.4"/>
		<path fill="#F9C53D" d="M0.6,59.3v-2.1l3.7-5.3c0-0.1,0.1-0.2,0.3-0.4c0.1-0.2,0.2-0.3,0.3-0.4c0-0.1,0.1-0.2,0.3-0.4
			c0.1-0.2,0.2-0.3,0.3-0.4c0-0.1,0.1-0.2,0.2-0.4c0.1-0.2,0.1-0.4,0.2-0.5s0.1-0.3,0.1-0.5s0-0.4,0-0.6c0-0.6-0.1-1.1-0.4-1.5
			C5.2,46.2,4.8,46,4.3,46c-0.3,0-0.6,0.1-0.8,0.2c-0.2,0.1-0.4,0.4-0.5,0.6c-0.1,0.3-0.2,0.5-0.2,0.8s-0.1,0.6-0.1,1v0.5H0.6v-0.5
			c0-1.4,0.3-2.5,0.9-3.2c0.6-0.8,1.5-1.2,2.8-1.2c1.2,0,2.1,0.3,2.8,1s1,1.6,1,2.9c0,0.5,0,0.9-0.1,1.3c-0.1,0.4-0.2,0.8-0.4,1.1
			c-0.2,0.4-0.3,0.7-0.5,0.9c-0.1,0.2-0.4,0.5-0.6,0.9l-3.7,4.8H8v2.1H0.6z"/>
		<path fill="#F9C53D" d="M13.4,59.3v-3.8H9.2v-2.4l3.7-8.7h2.7v9.1h1.6v2h-1.6v3.8H13.4z M11.3,53.5h2.1v-6.4L11.3,53.5z"/>
		<path fill="#F9C53D" d="M22,59.3V44.4h2.1v6.4h3.7v-6.4H30v14.9h-2.1v-6.9h-3.7v6.9H22z"/>
		<path fill="#F9C53D" d="M35.9,59.4c-0.7,0-1.4-0.1-1.9-0.3c-0.5-0.2-1-0.6-1.3-1c-0.3-0.4-0.5-1-0.7-1.5c-0.1-0.6-0.2-1.3-0.2-2.1
			v-5.4c0-0.8,0.1-1.5,0.2-2s0.4-1.1,0.7-1.5s0.7-0.8,1.3-1c0.5-0.2,1.2-0.3,1.9-0.3c1.4,0,2.5,0.4,3.1,1.2s1,2,1,3.6v5.4
			c0,0.8-0.1,1.4-0.2,2c-0.1,0.6-0.4,1.1-0.7,1.5c-0.3,0.4-0.7,0.8-1.3,1C37.3,59.3,36.7,59.4,35.9,59.4z M34.4,57
			c0.3,0.4,0.8,0.7,1.5,0.7s1.3-0.2,1.5-0.7c0.3-0.4,0.4-1.1,0.4-2v-6.5c0-0.9-0.1-1.5-0.4-1.9c-0.3-0.4-0.8-0.6-1.6-0.6
			s-1.3,0.2-1.6,0.6c-0.3,0.4-0.4,1.1-0.4,1.9V55C34,55.9,34.1,56.6,34.4,57z"/>
		<path fill="#F9C53D" d="M47.7,59.2c-0.5,0.2-1.1,0.3-1.7,0.3s-1.2-0.1-1.7-0.3s-0.9-0.4-1.2-0.7c-0.3-0.3-0.6-0.7-0.8-1.2
			s-0.3-1-0.4-1.5c-0.1-0.5-0.1-1.1-0.1-1.8v-9.6h2.1V54c0,0.5,0,0.8,0,1.2c0,0.3,0.1,0.6,0.2,1s0.2,0.6,0.3,0.8
			c0.1,0.2,0.4,0.4,0.6,0.5c0.3,0.1,0.6,0.2,1,0.2s0.7-0.1,1-0.2c0.3-0.1,0.5-0.3,0.6-0.5c0.1-0.2,0.3-0.5,0.3-0.8s0.1-0.7,0.2-1
			c0-0.3,0-0.7,0-1.2v-9.6h2.1V54c0,0.7,0,1.3-0.1,1.8c-0.1,0.5-0.2,1-0.4,1.5s-0.5,0.9-0.8,1.2C48.6,58.8,48.2,59,47.7,59.2z"/>
		<path fill="#F9C53D" d="M52.3,59.3V44.4h2.7c1.6,0,2.8,0.3,3.6,0.9c0.8,0.6,1.2,1.6,1.2,3.1c0,0.9-0.2,1.6-0.5,2.2s-0.8,1-1.4,1.2
			l2.4,7.4h-2.1L56,52.4h-1.6v6.9H52.3z M54.4,50.8h0.5c0.9,0,1.5-0.2,2-0.6c0.4-0.4,0.7-1,0.7-1.8s-0.2-1.5-0.7-1.8
			c-0.4-0.4-1.1-0.6-2-0.6h-0.5V50.8z"/>
		<path fill="#F9C53D" d="M61.5,52.4v-2.1h2.1v2.1H61.5z M61.5,57.2V55h2.1v2.1H61.5z"/>
		<path fill="#FFFFFF" d="M0.5,73.3v-1.8l3.1-4.4c0,0,0.1-0.2,0.2-0.3C3.9,66.7,4,66.5,4,66.5c0-0.1,0.1-0.2,0.2-0.3
			c0.1-0.2,0.2-0.3,0.2-0.4c0-0.1,0.1-0.2,0.2-0.4s0.1-0.3,0.1-0.4c0-0.1,0.1-0.3,0.1-0.4c0-0.2,0-0.3,0-0.5c0-0.5-0.1-0.9-0.3-1.2
			c-0.2-0.3-0.6-0.5-1-0.5c-0.3,0-0.5,0.1-0.6,0.2S2.6,62.8,2.5,63s-0.2,0.5-0.2,0.7c0,0.2-0.1,0.5-0.1,0.8V65H0.5v-0.4
			c0-1.1,0.2-2,0.7-2.7s1.3-1,2.3-1c1,0,1.8,0.3,2.3,0.8c0.5,0.6,0.8,1.3,0.8,2.3c0,0.4,0,0.7-0.1,1.1s-0.2,0.6-0.3,0.9
			s-0.3,0.5-0.4,0.7s-0.3,0.4-0.5,0.8l-3.1,3.9h4.4v1.8H0.5z"/>
		<path fill="#FFFFFF" d="M10.5,73.4c-1.1,0-1.9-0.3-2.3-0.9c-0.5-0.6-0.7-1.5-0.7-2.7c0-0.8,0.1-1.4,0.3-1.8c0.2-0.5,0.5-0.8,1-1.1
			c-0.4-0.3-0.7-0.7-0.9-1.1s-0.3-1-0.3-1.6c0-1,0.2-1.8,0.7-2.4s1.2-0.8,2.2-0.8c1,0,1.7,0.3,2.2,0.8c0.5,0.6,0.7,1.3,0.7,2.3
			c0,0.7-0.1,1.2-0.3,1.6c-0.2,0.4-0.5,0.8-0.9,1.1c0.5,0.3,0.8,0.7,1,1.1s0.3,1.1,0.3,1.8c0,1.2-0.2,2.1-0.7,2.7
			C12.3,73.1,11.6,73.4,10.5,73.4z M9.9,71.9c0.2,0.1,0.4,0.1,0.6,0.1s0.4,0,0.6-0.1s0.3-0.2,0.4-0.3s0.2-0.3,0.2-0.5
			c0.1-0.2,0.1-0.4,0.1-0.6s0-0.4,0-0.7c0-0.3,0-0.6-0.1-0.8c0-0.2-0.1-0.5-0.2-0.7s-0.2-0.4-0.4-0.5s-0.4-0.2-0.7-0.2
			s-0.5,0.1-0.7,0.2s-0.3,0.3-0.4,0.5c-0.1,0.2-0.2,0.4-0.2,0.7c0,0.2-0.1,0.5-0.1,0.8c0,0.3,0,0.5,0,0.7c0,0.2,0.1,0.4,0.1,0.6
			c0.1,0.2,0.1,0.4,0.2,0.5S9.7,71.8,9.9,71.9z M10.5,66c0.2,0,0.4-0.1,0.6-0.2s0.3-0.3,0.3-0.5c0.1-0.2,0.1-0.4,0.1-0.6
			s0-0.4,0-0.7c0-1.2-0.4-1.8-1.1-1.8c-0.7,0-1.1,0.6-1.1,1.8c0,0.3,0,0.5,0,0.7c0,0.2,0.1,0.4,0.2,0.6s0.2,0.3,0.3,0.5
			S10.2,66,10.5,66z"/>
		<path fill="#FFFFFF" d="M17.8,73.4c-0.4,0-0.8-0.1-1.1-0.2s-0.6-0.3-0.9-0.6s-0.4-0.5-0.6-0.9c-0.2-0.3-0.3-0.7-0.4-1.1
			c-0.1-0.4-0.1-0.8-0.1-1.3v-3.9c0-0.5,0-1,0.1-1.4c0.1-0.4,0.2-0.8,0.3-1.2c0.1-0.4,0.3-0.7,0.6-1s0.5-0.5,0.9-0.6
			s0.8-0.2,1.2-0.2c1,0,1.7,0.3,2.3,0.8c0.5,0.6,0.8,1.3,0.8,2.3h-1.8c0-0.6-0.1-1-0.3-1.3s-0.5-0.4-1-0.4c-0.9,0-1.3,0.9-1.3,2.6
			v1.8c0.3-0.6,0.9-0.9,1.8-0.9c0.5,0,0.9,0.1,1.3,0.3c0.3,0.2,0.6,0.4,0.8,0.7c0.2,0.3,0.3,0.7,0.4,1.1s0.1,0.9,0.1,1.4
			c0,0.6-0.1,1.1-0.2,1.6c-0.1,0.5-0.3,0.9-0.5,1.3s-0.6,0.7-1,0.9C18.8,73.3,18.3,73.4,17.8,73.4z M17.2,71.8
			c0.2,0.1,0.4,0.2,0.6,0.2s0.5-0.1,0.6-0.2s0.3-0.3,0.4-0.5s0.2-0.5,0.2-0.7c0-0.2,0.1-0.5,0.1-0.8c0-0.2,0-0.3,0-0.4
			c0-0.1,0-0.2,0-0.4s0-0.3,0-0.4c0-0.1,0-0.2,0-0.3s0-0.2-0.1-0.3c0-0.1-0.1-0.2-0.1-0.3c0-0.1-0.1-0.2-0.2-0.2s-0.1-0.1-0.2-0.2
			s-0.2-0.1-0.3-0.1s-0.2,0-0.4,0c-0.6,0-1,0.3-1.3,0.9v1.8c0,0.3,0,0.6,0.1,0.8s0.1,0.5,0.2,0.7S17,71.7,17.2,71.8z"/>
		<path fill="#FFFFFF" d="M21.8,73.3v-1.8h1.8v1.8H21.8z"/>
		<path fill="#FFFFFF" d="M28.1,73.3v-3.1h-3.5v-1.9l3.1-7.2h2.2v7.5h1.4v1.7h-1.4v3.1H28.1z M26.3,68.5h1.8v-5.3L26.3,68.5z"/>
		<path fill="#FFFFFF" d="M35.3,73.4c-0.4,0-0.8-0.1-1.1-0.2s-0.6-0.3-0.9-0.6s-0.4-0.5-0.6-0.9c-0.2-0.3-0.3-0.7-0.4-1.1
			c-0.1-0.4-0.1-0.8-0.1-1.3v-3.9c0-0.5,0-1,0.1-1.4c0.1-0.4,0.2-0.8,0.3-1.2c0.1-0.4,0.3-0.7,0.6-1s0.5-0.5,0.9-0.6
			s0.8-0.2,1.2-0.2c1,0,1.7,0.3,2.3,0.8c0.5,0.6,0.8,1.3,0.8,2.3h-1.8c0-0.6-0.1-1-0.3-1.3s-0.5-0.4-1-0.4c-0.9,0-1.3,0.9-1.3,2.6
			v1.8c0.3-0.6,0.9-0.9,1.8-0.9c0.5,0,0.9,0.1,1.3,0.3c0.3,0.2,0.6,0.4,0.8,0.7c0.2,0.3,0.3,0.7,0.4,1.1s0.1,0.9,0.1,1.4
			c0,0.6-0.1,1.1-0.2,1.6c-0.1,0.5-0.3,0.9-0.5,1.3s-0.6,0.7-1,0.9C36.3,73.3,35.8,73.4,35.3,73.4z M34.6,71.8
			c0.2,0.1,0.4,0.2,0.6,0.2s0.5-0.1,0.6-0.2s0.3-0.3,0.4-0.5s0.2-0.5,0.2-0.7c0-0.2,0.1-0.5,0.1-0.8c0-0.2,0-0.3,0-0.4
			c0-0.1,0-0.2,0-0.4s0-0.3,0-0.4c0-0.1,0-0.2,0-0.3s0-0.2-0.1-0.3c0-0.1-0.1-0.2-0.1-0.3c0-0.1-0.1-0.2-0.2-0.2s-0.1-0.1-0.2-0.2
			s-0.2-0.1-0.3-0.1s-0.2,0-0.4,0c-0.6,0-1,0.3-1.3,0.9v1.8c0,0.3,0,0.6,0.1,0.8s0.1,0.5,0.2,0.7S34.4,71.7,34.6,71.8z"/>
		<path fill="#FFFFFF" d="M42.4,73.4c-1,0-1.8-0.3-2.3-0.8c-0.5-0.6-0.8-1.3-0.8-2.3v-0.4h1.8c0,0.3,0,0.5,0,0.7
			c0,0.2,0.1,0.4,0.1,0.6s0.1,0.4,0.2,0.5c0.1,0.1,0.2,0.2,0.4,0.3s0.4,0.1,0.6,0.1s0.4,0,0.6-0.1s0.3-0.2,0.4-0.3
			c0.1-0.1,0.2-0.3,0.2-0.5s0.1-0.4,0.1-0.6c0-0.2,0-0.4,0-0.7c0-0.7-0.1-1.2-0.4-1.6s-0.7-0.6-1.3-0.6v-1.8c0.6,0,1.1-0.1,1.4-0.4
			c0.3-0.3,0.4-0.7,0.4-1.4c0-0.6-0.1-1-0.3-1.3c-0.2-0.3-0.5-0.4-1-0.4c-0.2,0-0.4,0-0.6,0.1s-0.3,0.2-0.4,0.3
			c-0.1,0.1-0.2,0.3-0.2,0.5s-0.1,0.4-0.1,0.6c0,0.2,0,0.4,0,0.7h-1.8v-0.4c0-1,0.3-1.8,0.8-2.3s1.3-0.8,2.3-0.8
			c1,0,1.8,0.3,2.3,0.8c0.5,0.6,0.8,1.3,0.8,2.3c0,0.7-0.2,1.3-0.5,1.7c-0.3,0.4-0.7,0.8-1.3,0.9c0.6,0.2,1,0.5,1.3,1.1
			s0.4,1.2,0.4,2c0,1.1-0.2,2-0.7,2.7S43.5,73.4,42.4,73.4z"/>
		<path fill="#FFFFFF" d="M46.7,73.3V61h1.8v6.7l2.2-3.2h1.8l-2,3.1l2,5.7h-1.8l-1.3-4.2l-0.9,1.2v3.1H46.7z"/>
		<path fill="#FFFFFF" d="M53.2,73.3v-8.8H55v1c0.6-0.7,1.4-1.1,2.2-1.1c0.4,0,0.7,0.1,0.9,0.3c0.2,0.2,0.3,0.5,0.4,0.9
			c0.3-0.4,0.6-0.7,0.9-0.9s0.8-0.3,1.3-0.3c0.1,0,0.3,0,0.4,0c0.1,0,0.2,0.1,0.3,0.1s0.2,0.1,0.2,0.2c0.1,0.1,0.1,0.2,0.2,0.2
			c0,0.1,0.1,0.2,0.1,0.3s0.1,0.2,0.1,0.3s0,0.2,0,0.4s0,0.3,0,0.4s0,0.2,0,0.4c0,0,0,0.1,0,0.1v6.4h-1.8v-6.4c0,0,0-0.1,0-0.1
			c0-0.2,0-0.3,0-0.3s0-0.2,0-0.3c0-0.1-0.1-0.2-0.1-0.2s-0.1-0.1-0.3-0.1c-0.2,0-0.4,0-0.5,0.1c-0.2,0.1-0.3,0.1-0.4,0.2
			c-0.1,0.1-0.2,0.2-0.4,0.3v6.8h-1.8v-6.4c0,0,0-0.1,0-0.1c0-0.1,0-0.2,0-0.3s0-0.1,0-0.2c0-0.1,0-0.2-0.1-0.2s-0.1-0.1-0.1-0.1
			s-0.1-0.1-0.2-0.1c-0.4,0-0.9,0.2-1.3,0.6v6.9H53.2z"/>
	</g>
	<g>
		<rect x="0" y="79.8" fill="none" width="72.9" height="39.2"/>
		<path fill="#F9C53D" d="M4.9,94.6v-3.8H0.7v-2.4l3.7-8.7h2.7v9.1h1.6v2H7.1v3.8H4.9z M2.8,88.8h2.1v-6.4L2.8,88.8z"/>
		<path fill="#F9C53D" d="M13.3,94.8c-1.3,0-2.3-0.4-2.8-1.1c-0.6-0.8-0.9-1.8-0.9-3.3c0-0.9,0.1-1.7,0.4-2.2s0.7-1,1.2-1.4
			c-0.5-0.4-0.8-0.8-1.1-1.3s-0.3-1.2-0.3-2c0-1.2,0.3-2.2,0.9-2.9s1.5-1,2.6-1c1.2,0,2,0.3,2.6,1c0.6,0.7,0.9,1.6,0.9,2.9
			c0,0.8-0.1,1.5-0.3,2c-0.2,0.5-0.6,1-1.1,1.3c0.6,0.4,1,0.8,1.2,1.4s0.4,1.3,0.4,2.2c0,1.4-0.3,2.5-0.9,3.3
			C15.5,94.4,14.6,94.8,13.3,94.8z M12.6,92.9C12.8,93,13,93,13.3,93s0.5,0,0.7-0.1s0.4-0.2,0.5-0.4c0.1-0.1,0.2-0.3,0.3-0.6
			c0.1-0.2,0.1-0.5,0.1-0.7s0-0.5,0-0.8c0-0.4,0-0.7-0.1-1s-0.1-0.5-0.2-0.8s-0.3-0.5-0.5-0.6c-0.2-0.1-0.5-0.2-0.8-0.2
			s-0.6,0.1-0.8,0.2c-0.2,0.1-0.4,0.3-0.5,0.6c-0.1,0.3-0.2,0.5-0.2,0.8s-0.1,0.6-0.1,1c0,0.3,0,0.6,0,0.8c0,0.2,0.1,0.5,0.1,0.7
			c0.1,0.2,0.2,0.4,0.3,0.6C12.2,92.7,12.4,92.8,12.6,92.9z M13.3,85.8c0.3,0,0.5-0.1,0.7-0.2c0.2-0.1,0.3-0.3,0.4-0.6
			c0.1-0.2,0.1-0.5,0.2-0.7c0-0.2,0-0.5,0-0.9c0-1.4-0.4-2.1-1.3-2.1c-0.9,0-1.3,0.7-1.3,2.1c0,0.3,0,0.6,0,0.9s0.1,0.5,0.2,0.7
			s0.2,0.4,0.4,0.5C12.8,85.8,13,85.8,13.3,85.8z"/>
		<path fill="#F9C53D" d="M22,94.6V79.8h2.1v6.4h3.7v-6.4H30v14.9h-2.1v-6.9h-3.7v6.9H22z"/>
		<path fill="#F9C53D" d="M36,94.8c-0.7,0-1.4-0.1-1.9-0.3c-0.5-0.2-1-0.6-1.3-1c-0.3-0.4-0.5-1-0.7-1.5c-0.1-0.6-0.2-1.3-0.2-2.1
			v-5.4c0-0.8,0.1-1.5,0.2-2s0.4-1.1,0.7-1.5s0.7-0.8,1.3-1c0.5-0.2,1.2-0.3,1.9-0.3c1.4,0,2.5,0.4,3.1,1.2s1,2,1,3.6v5.4
			c0,0.8-0.1,1.4-0.2,2c-0.1,0.6-0.4,1.1-0.7,1.5c-0.3,0.4-0.7,0.8-1.3,1C37.3,94.7,36.7,94.8,36,94.8z M34.4,92.4
			c0.3,0.4,0.8,0.7,1.5,0.7s1.3-0.2,1.5-0.7c0.3-0.4,0.4-1.1,0.4-2v-6.5c0-0.9-0.1-1.5-0.4-1.9c-0.3-0.4-0.8-0.6-1.6-0.6
			s-1.3,0.2-1.6,0.6c-0.3,0.4-0.4,1.1-0.4,1.9v6.5C34,91.3,34.1,91.9,34.4,92.4z"/>
		<path fill="#F9C53D" d="M47.8,94.5c-0.5,0.2-1.1,0.3-1.7,0.3s-1.2-0.1-1.7-0.3s-0.9-0.4-1.2-0.7c-0.3-0.3-0.6-0.7-0.8-1.2
			s-0.3-1-0.4-1.5c-0.1-0.5-0.1-1.1-0.1-1.8v-9.6h2.1v9.6c0,0.5,0,0.8,0,1.2c0,0.3,0.1,0.6,0.2,1s0.2,0.6,0.3,0.8
			c0.1,0.2,0.4,0.4,0.6,0.5c0.3,0.1,0.6,0.2,1,0.2s0.7-0.1,1-0.2c0.3-0.1,0.5-0.3,0.6-0.5c0.1-0.2,0.3-0.5,0.3-0.8s0.1-0.7,0.2-1
			c0-0.3,0-0.7,0-1.2v-9.6h2.1v9.6c0,0.7,0,1.3-0.1,1.8c-0.1,0.5-0.2,1-0.4,1.5s-0.5,0.9-0.8,1.2C48.7,94.1,48.3,94.4,47.8,94.5z"/>
		<path fill="#F9C53D" d="M52.3,94.6V79.8H55c1.6,0,2.8,0.3,3.6,0.9c0.8,0.6,1.2,1.6,1.2,3.1c0,0.9-0.2,1.6-0.5,2.2s-0.8,1-1.4,1.2
			l2.4,7.4h-2.1L56,87.7h-1.6v6.9H52.3z M54.4,86.1H55c0.9,0,1.5-0.2,2-0.6c0.4-0.4,0.7-1,0.7-1.8s-0.2-1.5-0.7-1.8
			c-0.4-0.4-1.1-0.6-2-0.6h-0.5V86.1z"/>
		<path fill="#F9C53D" d="M61.5,87.7v-2.1h2.1v2.1H61.5z M61.5,92.5v-2.1h2.1v2.1H61.5z"/>
		<path fill="#FFFFFF" d="M4.1,108.6v-3.1H0.6v-1.9l3.1-7.2h2.2v7.5h1.4v1.7H5.8v3.1H4.1z M2.3,103.8h1.8v-5.3L2.3,103.8z"/>
		<path fill="#FFFFFF" d="M7.9,108.6v-1.8l3.1-4.4c0,0,0.1-0.2,0.2-0.3c0.1-0.2,0.2-0.3,0.2-0.3c0-0.1,0.1-0.2,0.2-0.3
			c0.1-0.2,0.2-0.3,0.2-0.4c0-0.1,0.1-0.2,0.2-0.4s0.1-0.3,0.1-0.4c0-0.1,0.1-0.3,0.1-0.4c0-0.2,0-0.3,0-0.5c0-0.5-0.1-0.9-0.3-1.2
			c-0.2-0.3-0.6-0.5-1-0.5c-0.3,0-0.5,0.1-0.6,0.2s-0.3,0.3-0.4,0.5s-0.2,0.5-0.2,0.7c0,0.2-0.1,0.5-0.1,0.8v0.4H7.9v-0.4
			c0-1.1,0.2-2,0.7-2.7s1.3-1,2.3-1c1,0,1.8,0.3,2.3,0.8c0.5,0.6,0.8,1.3,0.8,2.3c0,0.4,0,0.7-0.1,1.1s-0.2,0.6-0.3,0.9
			s-0.3,0.5-0.4,0.7s-0.3,0.4-0.5,0.8l-3.1,3.9H14v1.8H7.9z"/>
		<path fill="#FFFFFF" d="M17.9,108.8c-1.1,0-1.9-0.3-2.3-0.9c-0.5-0.6-0.7-1.5-0.7-2.7c0-0.8,0.1-1.4,0.3-1.8
			c0.2-0.5,0.5-0.8,1-1.1c-0.4-0.3-0.7-0.7-0.9-1.1s-0.3-1-0.3-1.6c0-1,0.2-1.8,0.7-2.4s1.2-0.8,2.2-0.8c1,0,1.7,0.3,2.2,0.8
			c0.5,0.6,0.7,1.3,0.7,2.3c0,0.7-0.1,1.2-0.3,1.6c-0.2,0.4-0.5,0.8-0.9,1.1c0.5,0.3,0.8,0.7,1,1.1s0.3,1.1,0.3,1.8
			c0,1.2-0.2,2.1-0.7,2.7C19.8,108.5,19,108.8,17.9,108.8z M17.3,107.2c0.2,0.1,0.4,0.1,0.6,0.1s0.4,0,0.6-0.1s0.3-0.2,0.4-0.3
			s0.2-0.3,0.2-0.5c0.1-0.2,0.1-0.4,0.1-0.6s0-0.4,0-0.7c0-0.3,0-0.6-0.1-0.8c0-0.2-0.1-0.5-0.2-0.7s-0.2-0.4-0.4-0.5
			s-0.4-0.2-0.7-0.2s-0.5,0.1-0.7,0.2s-0.3,0.3-0.4,0.5c-0.1,0.2-0.2,0.4-0.2,0.7c0,0.2-0.1,0.5-0.1,0.8c0,0.3,0,0.5,0,0.7
			c0,0.2,0.1,0.4,0.1,0.6c0.1,0.2,0.1,0.4,0.2,0.5S17.2,107.1,17.3,107.2z M17.9,101.4c0.2,0,0.4-0.1,0.6-0.2s0.3-0.3,0.3-0.5
			c0.1-0.2,0.1-0.4,0.1-0.6s0-0.4,0-0.7c0-1.2-0.4-1.8-1.1-1.8c-0.7,0-1.1,0.6-1.1,1.8c0,0.3,0,0.5,0,0.7c0,0.2,0.1,0.4,0.2,0.6
			s0.2,0.3,0.3,0.5S17.7,101.4,17.9,101.4z"/>
		<path fill="#FFFFFF" d="M21.8,108.6v-1.8h1.8v1.8H21.8z"/>
		<path fill="#FFFFFF" d="M27.5,108.8c-1.1,0-1.9-0.3-2.3-0.9c-0.5-0.6-0.7-1.5-0.7-2.7c0-0.8,0.1-1.4,0.3-1.8
			c0.2-0.5,0.5-0.8,1-1.1c-0.4-0.3-0.7-0.7-0.9-1.1s-0.3-1-0.3-1.6c0-1,0.2-1.8,0.7-2.4s1.2-0.8,2.2-0.8c1,0,1.7,0.3,2.2,0.8
			c0.5,0.6,0.7,1.3,0.7,2.3c0,0.7-0.1,1.2-0.3,1.6c-0.2,0.4-0.5,0.8-0.9,1.1c0.5,0.3,0.8,0.7,1,1.1s0.3,1.1,0.3,1.8
			c0,1.2-0.2,2.1-0.7,2.7C29.4,108.5,28.6,108.8,27.5,108.8z M26.9,107.2c0.2,0.1,0.4,0.1,0.6,0.1s0.4,0,0.6-0.1s0.3-0.2,0.4-0.3
			s0.2-0.3,0.2-0.5c0.1-0.2,0.1-0.4,0.1-0.6s0-0.4,0-0.7c0-0.3,0-0.6-0.1-0.8c0-0.2-0.1-0.5-0.2-0.7s-0.2-0.4-0.4-0.5
			s-0.4-0.2-0.7-0.2s-0.5,0.1-0.7,0.2s-0.3,0.3-0.4,0.5c-0.1,0.2-0.2,0.4-0.2,0.7c0,0.2-0.1,0.5-0.1,0.8c0,0.3,0,0.5,0,0.7
			c0,0.2,0.1,0.4,0.1,0.6c0.1,0.2,0.1,0.4,0.2,0.5S26.8,107.1,26.9,107.2z M27.5,101.4c0.2,0,0.4-0.1,0.6-0.2s0.3-0.3,0.3-0.5
			c0.1-0.2,0.1-0.4,0.1-0.6s0-0.4,0-0.7c0-1.2-0.4-1.8-1.1-1.8c-0.7,0-1.1,0.6-1.1,1.8c0,0.3,0,0.5,0,0.7c0,0.2,0.1,0.4,0.2,0.6
			s0.2,0.3,0.3,0.5S27.3,101.4,27.5,101.4z"/>
		<path fill="#FFFFFF" d="M34.7,108.8c-1,0-1.7-0.3-2.3-0.8c-0.5-0.6-0.8-1.3-0.8-2.3h1.8c0,0.6,0.1,1,0.3,1.3s0.5,0.4,1,0.4
			c0.9,0,1.3-0.9,1.3-2.6V103c-0.3,0.6-0.9,0.9-1.8,0.9c-0.5,0-0.9-0.1-1.3-0.3c-0.3-0.2-0.6-0.4-0.8-0.7c-0.2-0.3-0.3-0.7-0.4-1.1
			s-0.1-0.9-0.1-1.4c0-0.6,0.1-1.1,0.2-1.6c0.1-0.5,0.3-0.9,0.5-1.3s0.6-0.7,1-0.9c0.4-0.2,0.9-0.3,1.4-0.3c0.4,0,0.8,0.1,1.1,0.2
			s0.6,0.3,0.9,0.6s0.4,0.5,0.6,0.9c0.2,0.3,0.3,0.7,0.4,1.1c0.1,0.4,0.1,0.8,0.1,1.3v3.9c0,0.5,0,1-0.1,1.4
			c-0.1,0.4-0.2,0.8-0.3,1.2c-0.1,0.4-0.3,0.7-0.6,1s-0.5,0.5-0.9,0.6S35.2,108.8,34.7,108.8z M34.7,102.5c0.6,0,1-0.3,1.3-0.9v-1.8
			c0-0.3,0-0.6-0.1-0.8s-0.1-0.5-0.2-0.7s-0.2-0.4-0.4-0.5s-0.4-0.2-0.6-0.2s-0.5,0.1-0.6,0.2s-0.3,0.3-0.4,0.5s-0.2,0.5-0.2,0.7
			c0,0.2-0.1,0.5-0.1,0.8c0,0.2,0,0.3,0,0.4c0,0.1,0,0.2,0,0.4s0,0.3,0,0.4c0,0.1,0,0.2,0,0.3s0,0.2,0.1,0.3c0,0.1,0.1,0.2,0.1,0.3
			c0,0.1,0.1,0.2,0.2,0.2s0.1,0.1,0.2,0.2s0.2,0.1,0.3,0.1S34.6,102.5,34.7,102.5z"/>
		<path fill="#FFFFFF" d="M42.2,108.8c-0.7,0-1.2-0.2-1.7-0.5s-0.8-0.7-1-1.3c-0.2-0.5-0.3-1.2-0.3-1.9v-5.2c0-1.1,0.3-2,0.8-2.7
			c0.5-0.6,1.3-1,2.3-1c1,0,1.8,0.3,2.3,1s0.8,1.5,0.8,2.7v5.2c0,1.1-0.3,2-0.8,2.6C43.9,108.4,43.1,108.8,42.2,108.8z M42.2,107.3
			c0.9,0,1.3-0.7,1.3-2.2v-5.2c0-0.2,0-0.5,0-0.7c0-0.2-0.1-0.4-0.1-0.6c-0.1-0.2-0.1-0.4-0.2-0.5s-0.2-0.2-0.4-0.3
			s-0.3-0.1-0.6-0.1s-0.4,0-0.6,0.1s-0.3,0.2-0.4,0.3S41,98.4,41,98.6c-0.1,0.2-0.1,0.4-0.1,0.6c0,0.2,0,0.4,0,0.7v5.2
			c0,0.3,0,0.6,0.1,0.8s0.1,0.5,0.2,0.7s0.2,0.4,0.4,0.5C41.7,107.3,41.9,107.3,42.2,107.3z"/>
		<path fill="#FFFFFF" d="M46.7,108.6V96.4h1.8v6.7l2.2-3.2h1.8l-2,3.1l2,5.7h-1.8l-1.3-4.2l-0.9,1.2v3.1H46.7z"/>
		<path fill="#FFFFFF" d="M53.2,108.6v-8.8H55v1c0.6-0.7,1.4-1.1,2.2-1.1c0.4,0,0.7,0.1,0.9,0.3c0.2,0.2,0.3,0.5,0.4,0.9
			c0.3-0.4,0.6-0.7,0.9-0.9s0.8-0.3,1.3-0.3c0.1,0,0.3,0,0.4,0c0.1,0,0.2,0.1,0.3,0.1s0.2,0.1,0.2,0.2c0.1,0.1,0.1,0.2,0.2,0.2
			c0,0.1,0.1,0.2,0.1,0.3s0.1,0.2,0.1,0.3s0,0.2,0,0.4s0,0.3,0,0.4s0,0.2,0,0.4c0,0,0,0.1,0,0.1v6.4h-1.8v-6.4c0,0,0-0.1,0-0.1
			c0-0.2,0-0.3,0-0.3s0-0.2,0-0.3c0-0.1-0.1-0.2-0.1-0.2s-0.1-0.1-0.3-0.1c-0.2,0-0.4,0-0.5,0.1c-0.2,0.1-0.3,0.1-0.4,0.2
			c-0.1,0.1-0.2,0.2-0.4,0.3v6.8h-1.8v-6.4c0,0,0-0.1,0-0.1c0-0.1,0-0.2,0-0.3s0-0.1,0-0.2c0-0.1,0-0.2-0.1-0.2s-0.1-0.1-0.1-0.1
			s-0.1-0.1-0.2-0.1c-0.4,0-0.9,0.2-1.3,0.6v6.9H53.2z"/>
	</g>
	<g>
		<g>
			<path fill="#553278" d="M0.9,11.6V1.2h3.4v10.4c0,0.6,0,1,0,1.3c0,0.3,0,0.6,0,1c0,0.4,0.1,0.7,0.1,0.8c0.1,0.2,0.1,0.3,0.3,0.5
				c0.1,0.2,0.2,0.3,0.4,0.4c0.2,0.1,0.4,0.1,0.6,0.1c0.2,0,0.5,0,0.6-0.1c0.2-0.1,0.3-0.2,0.4-0.3C7,15,7,14.8,7.1,14.6
				c0.1-0.2,0.1-0.4,0.1-0.8c0-0.4,0-0.7,0-1c0-0.3,0-0.7,0-1.3c0,0,0,0,0-0.1V1.2h3.4v10.5c0,0.5,0,1,0,1.4c0,0.4-0.1,0.9-0.2,1.3
				c-0.1,0.5-0.2,0.9-0.4,1.2s-0.3,0.7-0.6,1C9.2,17,9,17.3,8.6,17.5c-0.3,0.2-0.7,0.4-1.2,0.5c-0.5,0.1-1,0.2-1.6,0.2
				S4.7,18.1,4.2,18c-0.5-0.1-0.9-0.3-1.2-0.5c-0.3-0.2-0.6-0.5-0.9-0.8c-0.2-0.3-0.4-0.7-0.6-1s-0.3-0.8-0.4-1.2
				C1.1,14,1,13.5,1,13.1C0.9,12.7,0.9,12.2,0.9,11.6z"/>
			<path fill="#553278" d="M12.5,17.8V1.2h3.1v16.7H12.5z"/>
			<path fill="#553278" d="M17.6,13.7V7.8h-0.9V5.7h0.9v-4h3.1v4h1.5v2.1h-1.5v6.6c0,0.3,0.1,0.6,0.2,0.7c0.1,0.2,0.3,0.2,0.7,0.2
				c0.4,0,0.7,0,0.9-0.1v2.4c-0.4,0.1-1.1,0.2-2,0.2c-0.4,0-0.7,0-1-0.1c-0.3-0.1-0.5-0.2-0.7-0.3c-0.2-0.1-0.4-0.3-0.5-0.6
				c-0.1-0.2-0.3-0.5-0.3-0.7c-0.1-0.2-0.1-0.5-0.2-0.8c0-0.3-0.1-0.6-0.1-0.9C17.6,14.3,17.6,14,17.6,13.7z"/>
			<path fill="#553278" d="M23.6,17.8V5.7h3.1v1c0.5-0.8,1-1.2,1.7-1.2c0.2,0,0.5,0,0.8,0.1v2.6c-0.6-0.1-1-0.1-1.2-0.1
				c-0.4,0-0.8,0.1-1,0.4c-0.2,0.3-0.3,0.6-0.3,1.1v8.1H23.6z"/>
			<path fill="#553278" d="M34.8,17.8l-0.3-1.3c-0.2,0.6-0.5,1-0.9,1.2s-0.9,0.3-1.5,0.3c-0.4,0-0.8-0.1-1.2-0.3
				c-0.3-0.2-0.6-0.4-0.8-0.7c-0.2-0.3-0.3-0.6-0.4-0.9c-0.1-0.3-0.1-0.7-0.1-1.1c0-0.4,0-0.8,0.1-1.2c0.1-0.4,0.2-0.7,0.3-1
				c0.1-0.3,0.3-0.5,0.6-0.8c0.2-0.3,0.5-0.5,0.7-0.6c0.2-0.2,0.5-0.4,0.9-0.5s0.7-0.3,0.9-0.5c0.3-0.1,0.6-0.3,1-0.5v-1
				c0-0.4-0.1-0.7-0.2-1c-0.1-0.2-0.3-0.3-0.5-0.3c-0.2,0-0.3,0-0.4,0.1C33,8,32.9,8.1,32.8,8.3c0,0.1-0.1,0.3-0.1,0.4
				c0,0.1,0,0.3,0,0.5v0.7h-3c0-1.4,0.3-2.5,1-3.2c0.7-0.7,1.7-1.1,3-1.1c0.9,0,1.7,0.3,2.4,1c0.7,0.7,1,1.5,1,2.4v5.8
				c0,1,0.1,2.1,0.4,3.2H34.8z M34.2,15.1v-3c-1,0.8-1.5,1.7-1.5,2.7c0,0.2,0,0.5,0.1,0.6c0.1,0.2,0.3,0.3,0.5,0.3
				c0.1,0,0.3,0,0.4-0.1c0.1-0.1,0.2-0.2,0.3-0.2S34.1,15.3,34.2,15.1z"/>
			<path fill="#553278" d="M39,17.8V5.7h3.1v0.9c0.3-0.3,0.6-0.6,1-0.8c0.4-0.2,0.8-0.3,1.2-0.3c0.4,0,0.8,0.1,1.1,0.4
				c0.3,0.3,0.6,0.6,0.8,1c0.3-0.4,0.7-0.7,1.1-1c0.4-0.2,0.9-0.4,1.4-0.4c0.4,0,0.8,0.1,1.2,0.4c0.3,0.3,0.6,0.6,0.8,1
				C50.9,7.3,51,7.7,51,8.1v9.8h-3.1V8.7c0-0.1,0-0.2,0-0.3c0-0.1,0-0.2,0-0.3c0-0.1-0.1-0.2-0.1-0.3c-0.1-0.1-0.2-0.1-0.3-0.1
				c-0.2,0-0.5,0.2-0.9,0.7v9.3h-3.1V8.7c0-0.6-0.1-0.9-0.4-0.9c-0.2,0-0.5,0.2-0.9,0.7v9.3H39z"/>
			<path fill="#553278" d="M57.5,17.8l-0.3-1.3c-0.2,0.6-0.5,1-0.9,1.2s-0.9,0.3-1.5,0.3c-0.4,0-0.8-0.1-1.2-0.3
				c-0.3-0.2-0.6-0.4-0.8-0.7c-0.2-0.3-0.3-0.6-0.4-0.9c-0.1-0.3-0.1-0.7-0.1-1.1c0-0.4,0-0.8,0.1-1.2c0.1-0.4,0.2-0.7,0.3-1
				c0.1-0.3,0.3-0.5,0.6-0.8c0.2-0.3,0.5-0.5,0.7-0.6c0.2-0.2,0.5-0.4,0.9-0.5s0.7-0.3,0.9-0.5c0.3-0.1,0.6-0.3,1-0.5v-1
				c0-0.4-0.1-0.7-0.2-1c-0.1-0.2-0.3-0.3-0.5-0.3c-0.2,0-0.3,0-0.4,0.1c-0.1,0.1-0.2,0.2-0.2,0.3c0,0.1-0.1,0.3-0.1,0.4
				c0,0.1,0,0.3,0,0.5v0.7h-3c0-1.4,0.3-2.5,1-3.2c0.7-0.7,1.7-1.1,3-1.1c0.9,0,1.7,0.3,2.4,1c0.7,0.7,1,1.5,1,2.4v5.8
				c0,1,0.1,2.1,0.4,3.2H57.5z M56.9,15.1v-3c-1,0.8-1.5,1.7-1.5,2.7c0,0.2,0,0.5,0.1,0.6c0.1,0.2,0.3,0.3,0.5,0.3
				c0.1,0,0.3,0,0.4-0.1c0.1-0.1,0.2-0.2,0.3-0.2S56.8,15.3,56.9,15.1z"/>
			<path fill="#553278" d="M61.7,17.8V5.7h3.1v1c0.5-0.8,1-1.2,1.7-1.2c0.2,0,0.5,0,0.8,0.1v2.6c-0.6-0.1-1-0.1-1.2-0.1
				c-0.4,0-0.8,0.1-1,0.4c-0.2,0.3-0.3,0.6-0.3,1.1v8.1H61.7z"/>
			<path fill="#553278" d="M73,17.8l-0.3-1.3c-0.2,0.6-0.5,1-0.9,1.2s-0.9,0.3-1.5,0.3c-0.4,0-0.8-0.1-1.2-0.3
				c-0.3-0.2-0.6-0.4-0.8-0.7c-0.2-0.3-0.3-0.6-0.4-0.9c-0.1-0.3-0.1-0.7-0.1-1.1c0-0.4,0-0.8,0.1-1.2c0.1-0.4,0.2-0.7,0.3-1
				s0.3-0.5,0.6-0.8c0.2-0.3,0.5-0.5,0.7-0.6c0.2-0.2,0.5-0.4,0.9-0.5s0.7-0.3,0.9-0.5c0.3-0.1,0.6-0.3,1-0.5v-1
				c0-0.4-0.1-0.7-0.2-1s-0.3-0.3-0.5-0.3c-0.2,0-0.3,0-0.4,0.1C71.1,8,71.1,8.1,71,8.3s-0.1,0.3-0.1,0.4c0,0.1,0,0.3,0,0.5v0.7h-3
				c0-1.4,0.3-2.5,1-3.2c0.7-0.7,1.7-1.1,3-1.1c0.9,0,1.7,0.3,2.4,1s1,1.5,1,2.4v5.8c0,1,0.1,2.1,0.4,3.2H73z M72.4,15.1v-3
				c-1,0.8-1.5,1.7-1.5,2.7c0,0.2,0,0.5,0.1,0.6c0.1,0.2,0.3,0.3,0.5,0.3c0.1,0,0.3,0,0.4-0.1c0.1-0.1,0.2-0.2,0.3-0.2
				C72.2,15.4,72.3,15.3,72.4,15.1z"/>
			<path fill="#553278" d="M77.4,13.7V7.8h-0.9V5.7h0.9v-4h3.1v4H82v2.1h-1.5v6.6c0,0.3,0.1,0.6,0.2,0.7c0.1,0.2,0.3,0.2,0.7,0.2
				c0.4,0,0.7,0,0.9-0.1v2.4c-0.4,0.1-1.1,0.2-2,0.2c-0.4,0-0.7,0-1-0.1c-0.3-0.1-0.5-0.2-0.7-0.3c-0.2-0.1-0.4-0.3-0.5-0.6
				s-0.3-0.5-0.3-0.7c-0.1-0.2-0.1-0.5-0.2-0.8c0-0.3-0.1-0.6-0.1-0.9S77.4,14,77.4,13.7z"/>
			<path fill="#553278" d="M83.4,17.8V1.2h3.1v5.5c0.3-0.3,0.7-0.6,1.1-0.8c0.4-0.2,0.8-0.3,1.3-0.3c0.4,0,0.8,0.1,1.1,0.4
				c0.3,0.3,0.6,0.6,0.8,1C90.9,7.3,91,7.7,91,8.1v9.8h-3.1V8.9c0,0,0-0.1,0-0.2c0-0.1,0-0.2,0-0.2c0-0.1,0-0.1,0-0.2
				c0-0.1,0-0.1,0-0.2c0,0,0-0.1-0.1-0.2c0-0.1-0.1-0.1-0.1-0.1s-0.1,0-0.2,0c-0.1,0-0.3,0-0.4,0.1s-0.2,0.2-0.3,0.2
				c-0.1,0.1-0.1,0.2-0.3,0.3v9.3H83.4z"/>
			<path fill="#553278" d="M92.5,14.7V9.6c0-1.3,0.3-2.3,0.9-3c0.6-0.7,1.6-1.1,2.9-1.1s2.3,0.4,2.9,1.1c0.6,0.7,0.9,1.7,0.9,3v5.1
				c0,1-0.4,1.8-1.1,2.5s-1.6,1-2.7,1c-0.7,0-1.3-0.1-1.9-0.4c-0.6-0.3-1-0.7-1.4-1.2C92.7,16,92.5,15.4,92.5,14.7z M97,14.7v-6
				c0-0.6-0.2-0.9-0.7-0.9c-0.4,0-0.6,0.3-0.6,0.9v6c0,0.1,0,0.2,0,0.3c0,0.1,0,0.2,0.1,0.3c0,0.1,0.1,0.2,0.2,0.3
				c0.1,0.1,0.2,0.1,0.4,0.1C96.8,15.8,97,15.4,97,14.7z"/>
			<path fill="#553278" d="M101.7,17.8V5.7h3.1v0.9c0.3-0.3,0.7-0.6,1.1-0.8c0.4-0.2,0.9-0.3,1.3-0.3c0.4,0,0.8,0.1,1.1,0.4
				c0.3,0.3,0.6,0.6,0.8,1s0.2,0.8,0.2,1.2v9.8h-3.1V8.6c0-0.5-0.2-0.8-0.5-0.8c0,0-0.1,0-0.1,0c0,0-0.1,0-0.1,0s-0.1,0-0.1,0.1
				s-0.1,0-0.1,0.1s-0.1,0.1-0.1,0.1s-0.1,0.1-0.1,0.1c0,0-0.1,0.1-0.1,0.1s0,0-0.1,0.1l-0.1,0.1v9.4H101.7z"/>
			<path fill="#553278" d="M0.9,35.8V23.7H4v1c0.5-0.8,1-1.2,1.7-1.2c0.2,0,0.5,0,0.8,0.1v2.6c-0.6-0.1-1-0.1-1.2-0.1
				c-0.4,0-0.8,0.1-1,0.4C4.1,26.9,4,27.2,4,27.7v8.1H0.9z"/>
			<path fill="#553278" d="M7,32.7v-5.1c0-1.3,0.3-2.3,0.9-3c0.6-0.7,1.5-1.1,2.8-1.1c1.3,0,2.2,0.4,2.8,1.1c0.6,0.7,0.9,1.7,0.9,3
				v2.5h-4.3v2.7c0,0.7,0.2,1,0.6,1c0.4,0,0.6-0.4,0.6-1.1v-1.3h3.1v1.4c0,1-0.4,1.8-1.1,2.5c-0.7,0.6-1.6,1-2.6,1s-1.9-0.3-2.6-1
				C7.4,34.5,7,33.7,7,32.7z M10.1,28.4h1.2v-1.7c0-0.6-0.2-0.9-0.6-0.9c-0.4,0-0.6,0.3-0.6,0.9V28.4z"/>
			<path fill="#553278" d="M15.7,32.8v-5.2c0-1.3,0.3-2.3,0.9-3c0.6-0.7,1.5-1.1,2.8-1.1c1.3,0,2.2,0.4,2.8,1.1
				c0.6,0.7,0.9,1.7,0.9,3v1.1h-3.1v-1.4c0-0.5,0-0.8-0.1-1.1c-0.1-0.2-0.3-0.3-0.5-0.3c-0.4,0-0.6,0.3-0.6,0.9v6c0,0.7,0.2,1,0.6,1
				c0.1,0,0.3,0,0.4-0.1c0.1-0.1,0.2-0.2,0.2-0.3c0-0.1,0.1-0.3,0.1-0.5c0-0.2,0-0.4,0-0.7v-1.3h3.1v1.8c0,0.7-0.2,1.3-0.5,1.8
				c-0.3,0.5-0.8,0.9-1.4,1.2c-0.6,0.3-1.2,0.4-1.8,0.4c-1,0-1.9-0.3-2.6-0.9C16.1,34.6,15.7,33.8,15.7,32.8z"/>
			<path fill="#553278" d="M24.3,32.7v-5.1c0-1.3,0.3-2.3,0.9-3c0.6-0.7,1.6-1.1,2.9-1.1c1.3,0,2.3,0.4,2.9,1.1
				c0.6,0.7,0.9,1.7,0.9,3v5.1c0,1-0.4,1.8-1.1,2.5c-0.7,0.6-1.6,1-2.7,1c-0.7,0-1.3-0.1-1.9-0.4c-0.6-0.3-1-0.7-1.4-1.2
				C24.5,34,24.3,33.4,24.3,32.7z M28.8,32.7v-6c0-0.6-0.2-0.9-0.7-0.9c-0.4,0-0.6,0.3-0.6,0.9v6c0,0.1,0,0.2,0,0.3
				c0,0.1,0,0.2,0.1,0.3c0,0.1,0.1,0.2,0.2,0.3c0.1,0.1,0.2,0.1,0.4,0.1C28.6,33.8,28.8,33.4,28.8,32.7z"/>
			<path fill="#553278" d="M33.5,35.8V23.7h3.1v1c0.5-0.8,1-1.2,1.7-1.2c0.2,0,0.5,0,0.8,0.1v2.6c-0.6-0.1-1-0.1-1.2-0.1
				c-0.4,0-0.8,0.1-1,0.4c-0.2,0.3-0.3,0.6-0.3,1.1v8.1H33.5z"/>
			<path fill="#553278" d="M39.8,33.5v-7.2c0-0.8,0.2-1.4,0.7-2s1.1-0.9,1.8-0.9c0.4,0,0.8,0.1,1.1,0.3c0.3,0.2,0.7,0.5,0.9,0.8
				v-5.4h3.1v16.7h-3.1v-0.9c-0.2,0.4-0.6,0.7-0.9,0.9c-0.4,0.2-0.8,0.3-1.2,0.3c-0.7,0-1.3-0.3-1.7-0.8
				C40,34.8,39.8,34.2,39.8,33.5z M44.3,33.1v-6.6c-0.4-0.5-0.6-0.7-0.9-0.7c-0.3,0-0.5,0.3-0.5,0.8v6.3c0,0.2,0,0.3,0,0.4
				c0,0.1,0.1,0.2,0.1,0.3c0.1,0.1,0.2,0.1,0.3,0.1C43.7,33.8,44,33.5,44.3,33.1z"/>
			<path fill="#553278" d="M48.7,32.9l2.4-0.9c0.1,0.2,0.1,0.3,0.1,0.4c0,0.1,0.1,0.3,0.2,0.4c0.1,0.2,0.2,0.3,0.3,0.5
				c0.1,0.1,0.2,0.2,0.3,0.3c0.1,0.1,0.3,0.1,0.4,0.1c0.4,0,0.6-0.2,0.6-0.7c0-0.2,0-0.3-0.1-0.5c-0.1-0.2-0.2-0.3-0.2-0.5
				c-0.1-0.1-0.2-0.3-0.4-0.5c-0.2-0.2-0.4-0.4-0.5-0.5c-0.1-0.1-0.3-0.3-0.6-0.5l-0.5-0.4c-0.7-0.6-1.2-1.1-1.6-1.7
				c-0.4-0.6-0.6-1.2-0.6-1.9c0-0.5,0.1-1,0.3-1.4c0.2-0.4,0.5-0.8,0.9-1s0.8-0.5,1.2-0.6c0.5-0.1,0.9-0.2,1.5-0.2
				c0.5,0,0.9,0.1,1.3,0.3c0.4,0.2,0.8,0.4,1.1,0.8c0.3,0.3,0.6,0.7,0.8,1.1c0.2,0.4,0.4,0.8,0.5,1.3l-2.2,0.8
				c-0.1-0.2-0.1-0.3-0.2-0.5c0-0.1-0.1-0.3-0.2-0.5c-0.1-0.2-0.2-0.4-0.3-0.5c-0.1-0.1-0.2-0.2-0.4-0.3c-0.1-0.1-0.3-0.1-0.5-0.1
				c-0.2,0-0.4,0.1-0.5,0.2c-0.1,0.2-0.2,0.3-0.2,0.5c0,0.3,0.1,0.6,0.5,0.9c0.3,0.3,0.7,0.7,1.2,1.2l0.6,0.5
				c0.3,0.3,0.6,0.5,0.8,0.8c0.2,0.2,0.5,0.5,0.7,0.8c0.2,0.3,0.4,0.6,0.5,1c0.1,0.3,0.2,0.7,0.2,1c0,1-0.3,1.8-1,2.4
				c-0.7,0.6-1.5,1-2.5,1c-0.9,0-1.8-0.3-2.4-0.9S48.9,33.9,48.7,32.9z"/>
			<path fill="#553278" d="M57.3,27.5v-2.9h3v2.9H57.3z M57.3,34.4v-2.9h3v2.9H57.3z"/>
		</g>
	</g>
</g>
<g id="grasshopper">
</g>
<g id="front">
	<g>
	</g>
	<g>
	</g>
	<g>
	</g>
	<g>
	</g>
	<g>
	</g>
	<g>
	</g>
</g>
</svg>
