<?xml version="1.0" encoding="utf-8"?>
<!-- Generator: Adobe Illustrator 19.1.0, SVG Export Plug-In . SVG Version: 6.00 Build 0)  -->
<svg version="1.1" id="size-text" xmlns="http://www.w3.org/2000/svg" xmlns:xlink="http://www.w3.org/1999/xlink" x="0px" y="0px"
	 width="86.8px" height="99.7px" viewBox="0 0 86.8 99.7" enable-background="new 0 0 86.8 99.7" xml:space="preserve">
<g>
	<rect x="0" y="1.2" fill="none" width="86.8" height="91.3"/>
	<path fill="#553278" d="M0.4,13.1l3.4-0.7c0,0.3,0,0.6,0,0.9c0,0.3,0,0.5,0.1,0.8c0.1,0.3,0.1,0.6,0.2,0.8c0.1,0.2,0.2,0.4,0.4,0.5
		c0.2,0.1,0.4,0.2,0.6,0.2c0.7,0,1-0.4,1-1.3c0-1.2-0.7-2.3-2-3.5l-1-0.9C2.8,9.7,2.5,9.4,2.3,9.2C2.1,9.1,1.9,8.8,1.6,8.5
		C1.3,8.2,1.1,7.9,1,7.6C0.8,7.3,0.7,6.9,0.6,6.5C0.5,6.1,0.4,5.7,0.4,5.2c0-1.4,0.4-2.4,1.3-3.2c0.9-0.8,2-1.2,3.4-1.2
		c1.2,0,2.2,0.4,3,1.3c0.8,0.8,1.2,1.9,1.2,3l0,0.1c0,0.1,0,0.2,0,0.3L5.9,6c0-0.1,0-0.2,0-0.3c0-0.1,0-0.3,0-0.4c0-0.2,0-0.4,0-0.6
		c0-0.2-0.1-0.4-0.2-0.6C5.7,3.9,5.6,3.7,5.4,3.6C5.3,3.5,5.1,3.4,4.9,3.4C4.5,3.4,4.2,3.5,4,3.8c-0.2,0.3-0.3,0.6-0.3,1
		c0,0.3,0.1,0.7,0.2,1C4,6.1,4.2,6.4,4.4,6.7C4.6,6.9,4.8,7.2,5,7.3C5.2,7.5,5.4,7.7,5.8,8c0.3,0.3,0.5,0.4,0.7,0.6
		c0.5,0.4,0.9,0.8,1.2,1.2c0.3,0.4,0.6,0.8,0.9,1.2c0.3,0.5,0.5,1,0.7,1.5c0.1,0.5,0.2,1.1,0.2,1.7c0,1.2-0.4,2.1-1.3,2.9
		c-0.8,0.7-1.8,1.1-3,1.1c-0.8,0-1.5-0.1-2.1-0.4c-0.6-0.3-1.1-0.7-1.5-1.2c-0.4-0.5-0.7-1-0.8-1.6C0.6,14.4,0.5,13.8,0.4,13.1z"/>
	<path fill="#553278" d="M10.7,4.7V1.8h3.1v2.9H10.7z M10.7,17.8V5.7h3.1v12.1H10.7z"/>
	<path fill="#553278" d="M15.2,17.8v-2.1L18.5,8h-2.8V5.7h6v2.1l-3.4,7.8h3.4v2.3H15.2z"/>
	<path fill="#553278" d="M22.9,14.7V9.6c0-1.3,0.3-2.3,0.9-3c0.6-0.7,1.5-1.1,2.8-1.1c1.3,0,2.2,0.4,2.8,1.1c0.6,0.7,0.9,1.7,0.9,3
		v2.5h-4.3v2.7c0,0.7,0.2,1,0.6,1c0.4,0,0.6-0.4,0.6-1.1v-1.3h3.1v1.4c0,1-0.4,1.8-1.1,2.5c-0.7,0.6-1.6,1-2.6,1s-1.9-0.3-2.6-1
		C23.3,16.5,22.9,15.7,22.9,14.7z M26.1,10.4h1.2V8.7c0-0.6-0.2-0.9-0.6-0.9c-0.4,0-0.6,0.3-0.6,0.9V10.4z"/>
	<path fill="#FFFFFF" d="M1.6,34.8v-7.6H0v-1.1h4.4v1.1H2.8v7.6H1.6z"/>
	<path fill="#FFFFFF" d="M4.9,34.8v-8.8h1.2v3.2c0.2-0.2,0.3-0.3,0.5-0.4s0.3-0.2,0.5-0.3s0.4-0.1,0.7-0.1c0.3,0,0.5,0.1,0.6,0.3
		s0.2,0.4,0.2,0.7v5.3H7.4v-4.7c0-0.2,0-0.4-0.1-0.5S7.2,29.5,7,29.5c-0.3,0-0.5,0.1-0.8,0.4v4.9H4.9z"/>
	<path fill="#FFFFFF" d="M11.6,34.9c-0.3,0-0.6-0.1-0.8-0.2s-0.4-0.2-0.5-0.4S10,34,9.9,33.7s-0.1-0.5-0.2-0.8s0-0.6-0.1-0.9
		c0-0.3,0-0.5,0-0.8c0-0.3,0-0.6,0.1-0.9s0.1-0.5,0.2-0.7s0.2-0.4,0.3-0.6s0.3-0.3,0.5-0.4s0.5-0.1,0.8-0.1c0.3,0,0.5,0,0.7,0.1
		s0.4,0.2,0.5,0.3s0.2,0.3,0.3,0.5s0.2,0.4,0.2,0.6s0.1,0.5,0.1,0.7s0,0.5,0,0.8v0.1h-2.5V32c0,0,0,0.1,0,0.2c0,0.1,0,0.2,0,0.4
		s0,0.3,0,0.4s0,0.2,0.1,0.4s0.1,0.2,0.1,0.3s0.1,0.2,0.2,0.2s0.2,0.1,0.3,0.1c0.1,0,0.2,0,0.3-0.1s0.1-0.1,0.2-0.2s0.1-0.2,0.1-0.3
		s0-0.2,0-0.4v-0.3h1.2v0.2c0,0.7-0.2,1.2-0.5,1.5S12.2,34.9,11.6,34.9z M10.9,31.1h1.2v-0.4c0-0.2,0-0.3,0-0.4s0-0.2-0.1-0.4
		s-0.1-0.2-0.2-0.3s-0.2-0.1-0.3-0.1c-0.1,0-0.2,0-0.3,0.1s-0.1,0.2-0.2,0.3S11,30.2,11,30.3s0,0.3,0,0.4V31.1z"/>
	<path fill="#FFFFFF" d="M18.9,34.9c-0.3,0-0.5-0.1-0.7-0.2s-0.4-0.3-0.6-0.5v0.6h-1.2v-8.7h1.2v3.1c0.1-0.1,0.2-0.2,0.3-0.3
		s0.1-0.1,0.3-0.2s0.2-0.1,0.3-0.2s0.3-0.1,0.4-0.1c0.2,0,0.4,0,0.6,0.1s0.3,0.2,0.4,0.3s0.2,0.3,0.3,0.5s0.1,0.4,0.2,0.5
		s0.1,0.4,0.1,0.7s0,0.5,0,0.7s0,0.4,0,0.7V32c0,0.3,0,0.5,0,0.8s-0.1,0.5-0.2,0.8s-0.2,0.5-0.3,0.7s-0.3,0.3-0.4,0.5
		S19.1,34.9,18.9,34.9z M18.6,33.9c0.1,0,0.2,0,0.3-0.1s0.2-0.2,0.2-0.4s0.1-0.4,0.1-0.5s0-0.4,0-0.6c0-0.2,0-0.4,0-0.7s0-0.5,0-0.7
		s0-0.3,0-0.4s0-0.2,0-0.3s-0.1-0.2-0.1-0.3s-0.1-0.1-0.2-0.2s-0.2-0.1-0.3-0.1c-0.3,0-0.7,0.1-0.9,0.2v3.9
		C17.9,33.8,18.3,33.9,18.6,33.9z"/>
	<path fill="#FFFFFF" d="M21.5,27.7v-1.2h1.2v1.2H21.5z M21.5,34.8v-6.2h1.2v6.2H21.5z"/>
	<path fill="#FFFFFF" d="M25.9,36.7c-0.2,0-0.3,0-0.4,0s-0.2,0-0.4,0s-0.3,0-0.4,0s-0.2,0-0.4-0.1s-0.3-0.1-0.4-0.1
		s-0.2-0.1-0.3-0.2s-0.2-0.1-0.2-0.2s-0.1-0.2-0.1-0.3c0-0.3,0.1-0.6,0.3-0.8s0.4-0.4,0.7-0.6c-0.2,0-0.3-0.1-0.4-0.2
		s-0.2-0.2-0.2-0.3c0-0.1,0-0.1,0-0.2s0-0.1,0-0.2s0-0.1,0.1-0.2s0.1-0.1,0.1-0.2s0.1-0.1,0.1-0.2s0.1-0.1,0.1-0.1s0.1-0.1,0.1-0.1
		s0.1-0.1,0.1-0.1c-0.4-0.5-0.6-1.1-0.6-1.9c0-0.4,0.1-0.8,0.2-1.2s0.3-0.6,0.6-0.8s0.6-0.3,1-0.3c0.2,0,0.4,0,0.6,0.1
		s0.3,0.1,0.4,0.2s0.2,0.2,0.3,0.4c0.2-0.5,0.6-0.7,1.1-0.7c0,0,0,0,0,0s0,0,0,0s0,0,0,0v1c0,0,0,0-0.1,0c-0.1,0-0.2,0-0.3,0
		s-0.2,0-0.2,0s-0.2,0.1-0.2,0.1c0.1,0.1,0.1,0.3,0.2,0.5s0.1,0.4,0.1,0.6c0,0.4-0.1,0.8-0.2,1.2s-0.3,0.6-0.6,0.8s-0.6,0.3-1,0.3
		L25,33c0,0,0,0,0,0.1s0,0.1-0.1,0.1s0,0.1,0,0.1s0,0.1,0,0.1c0,0.1,0,0.2,0.1,0.2s0.2,0.1,0.3,0.1s0.3,0,0.4,0.1s0.3,0,0.4,0
		s0.3,0,0.3,0c0.2,0,0.4,0.1,0.5,0.1s0.3,0.1,0.4,0.1s0.3,0.1,0.4,0.2s0.2,0.2,0.2,0.4s0.1,0.3,0.1,0.5c0,0.2,0,0.4-0.1,0.6
		s-0.2,0.3-0.3,0.4s-0.3,0.2-0.5,0.3s-0.4,0.1-0.6,0.2S26.2,36.7,25.9,36.7z M25.9,35.8c0.1,0,0.2,0,0.2,0s0.2,0,0.2,0s0.2,0,0.2,0
		s0.1,0,0.2-0.1s0.1-0.1,0.1-0.1s0-0.1,0-0.2c0-0.3-0.3-0.6-1-0.6l-1-0.1c-0.1,0.1-0.2,0.2-0.3,0.4s-0.1,0.4-0.1,0.5
		c0,0.1,0,0.1,0.1,0.1s0.1,0.1,0.2,0.1s0.1,0,0.2,0s0.2,0,0.3,0s0.2,0,0.3,0s0.2,0,0.3,0S25.9,35.8,25.9,35.8z M25.6,32.1
		c0.5,0,0.8-0.4,0.8-1.3c0-0.2,0-0.3,0-0.5s-0.1-0.3-0.1-0.4s-0.1-0.3-0.2-0.3s-0.2-0.1-0.4-0.1c-0.2,0-0.3,0-0.4,0.1
		S25,29.7,25,29.8s-0.1,0.3-0.1,0.4s0,0.3,0,0.5C24.8,31.7,25.1,32.1,25.6,32.1z"/>
	<path fill="#FFFFFF" d="M30.4,36.7c-0.2,0-0.3,0-0.4,0s-0.2,0-0.4,0s-0.3,0-0.4,0s-0.2,0-0.4-0.1s-0.3-0.1-0.4-0.1
		s-0.2-0.1-0.3-0.2S28,36.2,28,36.1s-0.1-0.2-0.1-0.3c0-0.3,0.1-0.6,0.3-0.8s0.4-0.4,0.7-0.6c-0.2,0-0.3-0.1-0.4-0.2
		s-0.2-0.2-0.2-0.3c0-0.1,0-0.1,0-0.2s0-0.1,0-0.2s0-0.1,0.1-0.2s0.1-0.1,0.1-0.2s0.1-0.1,0.1-0.2s0.1-0.1,0.1-0.1s0.1-0.1,0.1-0.1
		s0.1-0.1,0.1-0.1c-0.4-0.5-0.6-1.1-0.6-1.9c0-0.4,0.1-0.8,0.2-1.2s0.3-0.6,0.6-0.8s0.6-0.3,1-0.3c0.2,0,0.4,0,0.6,0.1
		s0.3,0.1,0.4,0.2s0.2,0.2,0.3,0.4c0.2-0.5,0.6-0.7,1.1-0.7c0,0,0,0,0,0s0,0,0,0s0,0,0,0v1c0,0,0,0-0.1,0c-0.1,0-0.2,0-0.3,0
		s-0.2,0-0.2,0s-0.2,0.1-0.2,0.1c0.1,0.1,0.1,0.3,0.2,0.5s0.1,0.4,0.1,0.6c0,0.4-0.1,0.8-0.2,1.2s-0.3,0.6-0.6,0.8s-0.6,0.3-1,0.3
		L29.4,33c0,0,0,0,0,0.1s0,0.1-0.1,0.1s0,0.1,0,0.1s0,0.1,0,0.1c0,0.1,0,0.2,0.1,0.2s0.2,0.1,0.3,0.1s0.3,0,0.4,0.1s0.3,0,0.4,0
		s0.3,0,0.3,0c0.2,0,0.4,0.1,0.5,0.1s0.3,0.1,0.4,0.1s0.3,0.1,0.4,0.2s0.2,0.2,0.2,0.4s0.1,0.3,0.1,0.5c0,0.2,0,0.4-0.1,0.6
		s-0.2,0.3-0.3,0.4s-0.3,0.2-0.5,0.3s-0.4,0.1-0.6,0.2S30.6,36.7,30.4,36.7z M30.4,35.8c0.1,0,0.2,0,0.2,0s0.2,0,0.2,0s0.2,0,0.2,0
		s0.1,0,0.2-0.1s0.1-0.1,0.1-0.1s0-0.1,0-0.2c0-0.3-0.3-0.6-1-0.6l-1-0.1c-0.1,0.1-0.2,0.2-0.3,0.4S29,35.3,29,35.5
		c0,0.1,0,0.1,0.1,0.1s0.1,0.1,0.2,0.1s0.1,0,0.2,0s0.2,0,0.3,0s0.2,0,0.3,0s0.2,0,0.3,0S30.4,35.8,30.4,35.8z M30.1,32.1
		c0.5,0,0.8-0.4,0.8-1.3c0-0.2,0-0.3,0-0.5s-0.1-0.3-0.1-0.4s-0.1-0.3-0.2-0.3s-0.2-0.1-0.4-0.1c-0.2,0-0.3,0-0.4,0.1
		s-0.2,0.2-0.2,0.3s-0.1,0.3-0.1,0.4s0,0.3,0,0.5C29.3,31.7,29.6,32.1,30.1,32.1z"/>
	<path fill="#FFFFFF" d="M34.7,34.9c-0.3,0-0.6-0.1-0.8-0.2s-0.4-0.2-0.5-0.4s-0.2-0.4-0.3-0.6s-0.1-0.5-0.2-0.8s0-0.6-0.1-0.9
		c0-0.3,0-0.5,0-0.8c0-0.3,0-0.6,0.1-0.9s0.1-0.5,0.2-0.7s0.2-0.4,0.3-0.6s0.3-0.3,0.5-0.4s0.5-0.1,0.8-0.1c0.3,0,0.5,0,0.7,0.1
		s0.4,0.2,0.5,0.3s0.2,0.3,0.3,0.5s0.2,0.4,0.2,0.6s0.1,0.5,0.1,0.7s0,0.5,0,0.8v0.1h-2.5V32c0,0,0,0.1,0,0.2c0,0.1,0,0.2,0,0.4
		s0,0.3,0,0.4s0,0.2,0.1,0.4s0.1,0.2,0.1,0.3s0.1,0.2,0.2,0.2s0.2,0.1,0.3,0.1c0.1,0,0.2,0,0.3-0.1s0.1-0.1,0.2-0.2s0.1-0.2,0.1-0.3
		s0-0.2,0-0.4v-0.3h1.2v0.2c0,0.7-0.2,1.2-0.5,1.5S35.3,34.9,34.7,34.9z M34.1,31.1h1.2v-0.4c0-0.2,0-0.3,0-0.4s0-0.2-0.1-0.4
		s-0.1-0.2-0.2-0.3s-0.2-0.1-0.3-0.1c-0.1,0-0.2,0-0.3,0.1s-0.1,0.2-0.2,0.3s-0.1,0.3-0.1,0.4s0,0.3,0,0.4V31.1z"/>
	<path fill="#FFFFFF" d="M39.1,34.9c-0.5,0-0.9-0.2-1.2-0.5s-0.5-0.7-0.6-1.2l0.9-0.3c0.2,0.6,0.5,0.9,0.9,0.9
		c0.2,0,0.4-0.1,0.5-0.2s0.2-0.3,0.2-0.5c0-0.3-0.1-0.5-0.3-0.7l-1.2-0.9c-0.1-0.1-0.3-0.2-0.4-0.3s-0.2-0.2-0.3-0.3
		s-0.2-0.3-0.2-0.4s-0.1-0.3-0.1-0.5c0-0.5,0.2-0.9,0.5-1.2s0.8-0.4,1.4-0.4c0.3,0,0.5,0,0.7,0.1s0.4,0.2,0.5,0.4s0.3,0.3,0.4,0.5
		s0.2,0.4,0.2,0.6l-0.9,0.3c0-0.1-0.1-0.2-0.1-0.3s-0.1-0.2-0.2-0.3s-0.2-0.2-0.3-0.2s-0.2-0.1-0.3-0.1c-0.2,0-0.4,0.1-0.5,0.2
		s-0.2,0.3-0.2,0.5c0,0.2,0.1,0.4,0.3,0.5l1.2,0.9c0.1,0.1,0.3,0.2,0.4,0.3s0.2,0.2,0.3,0.4s0.2,0.3,0.2,0.5s0.1,0.3,0.1,0.5
		c0,0.5-0.2,0.9-0.5,1.2S39.7,34.9,39.1,34.9z"/>
	<path fill="#FFFFFF" d="M43.5,34.9c-0.5,0-0.8-0.1-1.1-0.4s-0.3-0.6-0.3-1.1v-3.9h-0.6v-0.9h0.6v-2.2h1.2v2.2h0.9v0.9h-0.9v3.6
		c0,0.3,0,0.4,0.1,0.6s0.2,0.2,0.4,0.2c0.1,0,0.2,0,0.4,0v1C44,34.9,43.7,34.9,43.5,34.9z"/>
	<path fill="#FFFFFF" d="M48.3,34.9c-0.3,0-0.6-0.2-0.9-0.5c-0.2-0.3-0.4-0.6-0.4-1c0-0.3,0.1-0.6,0.2-0.8s0.2-0.4,0.3-0.6
		c0.1-0.1,0.3-0.3,0.6-0.5c0.3-0.2,0.5-0.3,0.6-0.3s0.4-0.2,0.7-0.3c0.1,0,0.1,0,0.1-0.1v-0.4c0-0.3,0-0.6-0.1-0.7s-0.3-0.3-0.5-0.3
		c-0.2,0-0.4,0.1-0.5,0.2s-0.1,0.4-0.2,0.6c0,0,0,0.1,0,0.2H47c0-0.6,0.2-1.1,0.5-1.4c0.3-0.4,0.8-0.5,1.4-0.5c0.6,0,1,0.2,1.4,0.5
		c0.3,0.4,0.5,0.8,0.5,1.4v2.8c0,0.7,0.1,1.2,0.2,1.6h-1.2l-0.2-0.9c-0.1,0.1-0.1,0.2-0.2,0.3c0,0.1-0.1,0.2-0.2,0.3
		s-0.2,0.2-0.2,0.2s-0.2,0.1-0.3,0.1S48.4,34.9,48.3,34.9z M48.9,33.9c0.1,0,0.2,0,0.3-0.1s0.1-0.1,0.2-0.2c0,0,0.1-0.1,0.2-0.2
		c0,0,0,0,0,0v-1.7c-0.1,0-0.1,0.1-0.3,0.2C49.2,32,49.1,32,49,32.1c-0.1,0-0.2,0.1-0.3,0.2c-0.1,0.1-0.2,0.2-0.2,0.2
		c-0.1,0.1-0.1,0.2-0.1,0.3c0,0.1-0.1,0.2-0.1,0.3C48.3,33.7,48.5,33.9,48.9,33.9z"/>
	<path fill="#FFFFFF" d="M51.9,34.8v-6.2h1.2v0.7c0.2-0.2,0.3-0.3,0.5-0.4s0.3-0.2,0.5-0.3c0.2-0.1,0.4-0.1,0.7-0.1
		c0.3,0,0.5,0.1,0.6,0.3s0.2,0.4,0.2,0.7v5.3h-1.2v-4.7c0-0.2,0-0.4-0.1-0.5c-0.1-0.1-0.2-0.1-0.4-0.1c-0.1,0-0.2,0-0.3,0.1
		c-0.1,0-0.2,0.1-0.2,0.1c-0.1,0-0.1,0.1-0.2,0.2v4.9H51.9z"/>
	<path fill="#FFFFFF" d="M56.8,27.7v-1.2H58v1.2H56.8z M56.8,34.8v-6.2H58v6.2H56.8z"/>
	<path fill="#FFFFFF" d="M59.2,34.8v-6.2h1.2v0.7c0.4-0.5,1-0.8,1.6-0.8c0.3,0,0.5,0.1,0.7,0.2c0.1,0.1,0.2,0.3,0.3,0.6
		c0.2-0.3,0.4-0.5,0.7-0.6c0.2-0.1,0.5-0.2,0.9-0.2c0.1,0,0.2,0,0.3,0s0.2,0,0.2,0.1c0.1,0,0.1,0.1,0.2,0.1c0,0.1,0.1,0.1,0.1,0.2
		c0,0.1,0.1,0.1,0.1,0.2c0,0.1,0,0.2,0,0.2s0,0.2,0,0.3c0,0.1,0,0.2,0,0.3s0,0.2,0,0.3c0,0,0,0.1,0,0.1v4.5h-1.2v-4.6c0,0,0,0,0-0.1
		c0-0.1,0-0.2,0-0.2c0-0.1,0-0.1,0-0.2c0-0.1,0-0.1-0.1-0.2c0,0-0.1-0.1-0.2-0.1c-0.1,0-0.3,0-0.4,0.1s-0.2,0.1-0.3,0.1
		c-0.1,0-0.2,0.1-0.3,0.2v4.9h-1.2v-4.5c0,0,0,0,0-0.1c0-0.1,0-0.2,0-0.2s0-0.1,0-0.2c0-0.1,0-0.1,0-0.2s0-0.1-0.1-0.1
		c0,0-0.1,0-0.2,0c-0.3,0-0.6,0.1-0.9,0.4v4.9H59.2z"/>
	<path fill="#FFFFFF" d="M67.6,34.9c-0.3,0-0.6-0.2-0.9-0.5c-0.2-0.3-0.4-0.6-0.4-1c0-0.3,0.1-0.6,0.2-0.8s0.2-0.4,0.3-0.6
		c0.1-0.1,0.3-0.3,0.6-0.5c0.3-0.2,0.5-0.3,0.6-0.3s0.4-0.2,0.7-0.3c0.1,0,0.1,0,0.1-0.1v-0.4c0-0.3,0-0.6-0.1-0.7s-0.3-0.3-0.5-0.3
		c-0.2,0-0.4,0.1-0.5,0.2s-0.1,0.4-0.2,0.6c0,0,0,0.1,0,0.2h-1.2c0-0.6,0.2-1.1,0.5-1.4c0.3-0.4,0.8-0.5,1.4-0.5
		c0.6,0,1,0.2,1.4,0.5c0.3,0.4,0.5,0.8,0.5,1.4v2.8c0,0.7,0.1,1.2,0.2,1.6h-1.2l-0.2-0.9c-0.1,0.1-0.1,0.2-0.2,0.3
		c0,0.1-0.1,0.2-0.2,0.3s-0.2,0.2-0.2,0.2s-0.2,0.1-0.3,0.1S67.8,34.9,67.6,34.9z M68.3,33.9c0.1,0,0.2,0,0.3-0.1s0.1-0.1,0.2-0.2
		c0,0,0.1-0.1,0.2-0.2c0,0,0,0,0,0v-1.7c-0.1,0-0.1,0.1-0.3,0.2c-0.1,0.1-0.2,0.1-0.3,0.2c-0.1,0-0.2,0.1-0.3,0.2
		c-0.1,0.1-0.2,0.2-0.2,0.2c-0.1,0.1-0.1,0.2-0.1,0.3c0,0.1-0.1,0.2-0.1,0.3C67.6,33.7,67.9,33.9,68.3,33.9z"/>
	<path fill="#FFFFFF" d="M71.2,34.8v-8.8h1.2v8.8H71.2z"/>
	<path fill="#FFFFFF" d="M75.2,34.9c-0.5,0-0.9-0.2-1.2-0.5c-0.3-0.3-0.5-0.7-0.6-1.2l0.9-0.3c0.2,0.6,0.5,0.9,0.9,0.9
		c0.2,0,0.4-0.1,0.5-0.2c0.1-0.1,0.2-0.3,0.2-0.5c0-0.3-0.1-0.5-0.3-0.7l-1.2-0.9c-0.1-0.1-0.3-0.2-0.4-0.3
		c-0.1-0.1-0.2-0.2-0.3-0.3s-0.2-0.3-0.2-0.4c-0.1-0.1-0.1-0.3-0.1-0.5c0-0.5,0.2-0.9,0.5-1.2c0.3-0.3,0.8-0.4,1.4-0.4
		c0.3,0,0.5,0,0.7,0.1c0.2,0.1,0.4,0.2,0.5,0.4c0.1,0.2,0.3,0.3,0.4,0.5c0.1,0.2,0.2,0.4,0.2,0.6l-0.9,0.3c0-0.1-0.1-0.2-0.1-0.3
		c0-0.1-0.1-0.2-0.2-0.3c-0.1-0.1-0.2-0.2-0.3-0.2c-0.1-0.1-0.2-0.1-0.3-0.1c-0.2,0-0.4,0.1-0.5,0.2c-0.1,0.1-0.2,0.3-0.2,0.5
		c0,0.2,0.1,0.4,0.3,0.5l1.2,0.9c0.1,0.1,0.3,0.2,0.4,0.3c0.1,0.1,0.2,0.2,0.3,0.4c0.1,0.1,0.2,0.3,0.2,0.5s0.1,0.3,0.1,0.5
		c0,0.5-0.2,0.9-0.5,1.2C76.3,34.8,75.8,34.9,75.2,34.9z"/>
	<path fill="#FFFFFF" d="M1.7,46.9c-0.3,0-0.6-0.2-0.9-0.5s-0.4-0.6-0.4-1c0-0.3,0.1-0.6,0.2-0.8s0.2-0.4,0.3-0.6s0.3-0.3,0.6-0.5
		s0.5-0.3,0.6-0.3s0.4-0.2,0.7-0.3c0.1,0,0.1,0,0.1-0.1v-0.4c0-0.3,0-0.6-0.1-0.7s-0.3-0.3-0.5-0.3c-0.2,0-0.4,0.1-0.5,0.2
		s-0.1,0.4-0.2,0.6c0,0,0,0.1,0,0.2H0.4c0-0.6,0.2-1.1,0.5-1.4s0.8-0.5,1.4-0.5c0.6,0,1,0.2,1.4,0.5s0.5,0.8,0.5,1.4v2.8
		c0,0.7,0.1,1.2,0.2,1.6H3.1l-0.2-0.9c-0.1,0.1-0.1,0.2-0.2,0.3s-0.1,0.2-0.2,0.3s-0.2,0.2-0.2,0.2s-0.2,0.1-0.3,0.1
		S1.8,46.9,1.7,46.9z M2.3,45.9c0.1,0,0.2,0,0.3-0.1s0.1-0.1,0.2-0.2s0.1-0.1,0.2-0.2c0,0,0,0,0,0v-1.7c-0.1,0-0.1,0.1-0.3,0.2
		S2.4,44,2.4,44.1s-0.2,0.1-0.3,0.2s-0.2,0.2-0.2,0.2s-0.1,0.2-0.1,0.3S1.7,45,1.7,45.1C1.7,45.7,1.9,45.9,2.3,45.9z"/>
	<path fill="#FFFFFF" d="M5.2,46.8v-6.2h1.2v0.8C6.6,41.2,6.8,41,7,40.8s0.5-0.3,0.8-0.3c0,0,0.1,0,0.2,0v1.4
		c-0.2-0.1-0.5-0.1-0.7-0.1c-0.3,0-0.5,0.1-0.6,0.2s-0.2,0.4-0.2,0.6v4.2H5.2z"/>
	<path fill="#FFFFFF" d="M10.3,46.9c-0.3,0-0.6-0.1-0.8-0.2S9.2,46.5,9,46.4S8.8,46,8.7,45.7s-0.1-0.5-0.2-0.8s0-0.6-0.1-0.9
		c0-0.3,0-0.5,0-0.8c0-0.3,0-0.6,0.1-0.9s0.1-0.5,0.2-0.7s0.2-0.4,0.3-0.6s0.3-0.3,0.5-0.4s0.5-0.1,0.8-0.1c0.3,0,0.5,0,0.7,0.1
		s0.4,0.2,0.5,0.3s0.2,0.3,0.3,0.5s0.2,0.4,0.2,0.6s0.1,0.5,0.1,0.7s0,0.5,0,0.8v0.1H9.7V44c0,0,0,0.1,0,0.2c0,0.1,0,0.2,0,0.4
		s0,0.3,0,0.4s0,0.2,0.1,0.4s0.1,0.2,0.1,0.3s0.1,0.2,0.2,0.2s0.2,0.1,0.3,0.1c0.1,0,0.2,0,0.3-0.1s0.1-0.1,0.2-0.2s0.1-0.2,0.1-0.3
		s0-0.2,0-0.4v-0.3h1.2v0.2c0,0.7-0.2,1.2-0.5,1.5S11,46.9,10.3,46.9z M9.7,43.1H11v-0.4c0-0.2,0-0.3,0-0.4s0-0.2-0.1-0.4
		s-0.1-0.2-0.2-0.3s-0.2-0.1-0.3-0.1c-0.1,0-0.2,0-0.3,0.1s-0.1,0.2-0.2,0.3s-0.1,0.3-0.1,0.4s0,0.3,0,0.4V43.1z"/>
	<path fill="#FFFFFF" d="M17.7,46.9c-0.3,0-0.5-0.1-0.7-0.2s-0.4-0.3-0.6-0.5v0.6h-1.2v-8.7h1.2v3.1c0.1-0.1,0.2-0.2,0.3-0.3
		s0.1-0.1,0.3-0.2s0.2-0.1,0.3-0.2s0.3-0.1,0.4-0.1c0.2,0,0.4,0,0.6,0.1s0.3,0.2,0.4,0.3s0.2,0.3,0.3,0.5s0.1,0.4,0.2,0.5
		s0.1,0.4,0.1,0.7s0,0.5,0,0.7s0,0.4,0,0.7V44c0,0.3,0,0.5,0,0.8s-0.1,0.5-0.2,0.8s-0.2,0.5-0.3,0.7s-0.3,0.3-0.4,0.5
		S17.9,46.9,17.7,46.9z M17.3,45.9c0.1,0,0.2,0,0.3-0.1s0.2-0.2,0.2-0.4s0.1-0.4,0.1-0.5s0-0.4,0-0.6c0-0.2,0-0.4,0-0.7s0-0.5,0-0.7
		s0-0.3,0-0.4s0-0.2,0-0.3s-0.1-0.2-0.1-0.3s-0.1-0.1-0.2-0.2s-0.2-0.1-0.3-0.1c-0.3,0-0.7,0.1-0.9,0.2v3.9
		C16.7,45.8,17,45.9,17.3,45.9z"/>
	<path fill="#FFFFFF" d="M20.3,46.8v-8.8h1.2v8.8H20.3z"/>
	<path fill="#FFFFFF" d="M23.5,46.9c-0.3,0-0.5-0.1-0.7-0.3s-0.2-0.4-0.2-0.7v-5.3h1.2v4.9c0,0.1,0,0.2,0.1,0.3s0.2,0.1,0.3,0.1
		c0.1,0,0.1,0,0.2,0s0.1,0,0.2-0.1s0.1-0.1,0.1-0.1s0.1-0.1,0.2-0.1s0.1-0.1,0.1-0.1v-4.9h1.2v6.2h-1.2v-0.7
		c-0.1,0.1-0.2,0.2-0.3,0.2s-0.1,0.1-0.3,0.2s-0.2,0.1-0.3,0.2s-0.2,0.1-0.3,0.1S23.7,46.9,23.5,46.9z"/>
	<path fill="#FFFFFF" d="M29.2,46.9c-0.3,0-0.6-0.1-0.8-0.2s-0.4-0.2-0.5-0.4s-0.2-0.4-0.3-0.6s-0.1-0.5-0.2-0.8s0-0.6-0.1-0.9
		c0-0.3,0-0.5,0-0.8c0-0.3,0-0.6,0.1-0.9s0.1-0.5,0.2-0.7s0.2-0.4,0.3-0.6s0.3-0.3,0.5-0.4s0.5-0.1,0.8-0.1c0.3,0,0.5,0,0.7,0.1
		s0.4,0.2,0.5,0.3s0.2,0.3,0.3,0.5s0.2,0.4,0.2,0.6s0.1,0.5,0.1,0.7s0,0.5,0,0.8v0.1h-2.5V44c0,0,0,0.1,0,0.2c0,0.1,0,0.2,0,0.4
		s0,0.3,0,0.4s0,0.2,0.1,0.4s0.1,0.2,0.1,0.3s0.1,0.2,0.2,0.2s0.2,0.1,0.3,0.1c0.1,0,0.2,0,0.3-0.1s0.1-0.1,0.2-0.2s0.1-0.2,0.1-0.3
		s0-0.2,0-0.4v-0.3h1.2v0.2c0,0.7-0.2,1.2-0.5,1.5S29.8,46.9,29.2,46.9z M28.6,43.1h1.2v-0.4c0-0.2,0-0.3,0-0.4s0-0.2-0.1-0.4
		s-0.1-0.2-0.2-0.3s-0.2-0.1-0.3-0.1c-0.1,0-0.2,0-0.3,0.1s-0.1,0.2-0.2,0.3s-0.1,0.3-0.1,0.4s0,0.3,0,0.4V43.1z"/>
	<path fill="#FFFFFF" d="M34.7,46.8l-1.2-6.2h1.1l0.7,4.7l0.7-4.7h1.1l0.7,4.7l0.7-4.7h1.1l-1.2,6.2h-1.2l-0.7-4.3l-0.7,4.3H34.7z"
		/>
	<path fill="#FFFFFF" d="M40.3,46.8v-8.8h1.2v3.2c0.2-0.2,0.3-0.3,0.5-0.4s0.3-0.2,0.5-0.3s0.4-0.1,0.7-0.1c0.3,0,0.5,0.1,0.6,0.3
		s0.2,0.4,0.2,0.7v5.3h-1.2v-4.7c0-0.2,0-0.4-0.1-0.5s-0.2-0.2-0.3-0.2c-0.3,0-0.5,0.1-0.8,0.4v4.9H40.3z"/>
	<path fill="#FFFFFF" d="M46.2,46.9c-0.3,0-0.6-0.2-0.9-0.5c-0.2-0.3-0.4-0.6-0.4-1c0-0.3,0.1-0.6,0.2-0.8s0.2-0.4,0.3-0.6
		c0.1-0.1,0.3-0.3,0.6-0.5c0.3-0.2,0.5-0.3,0.6-0.3s0.4-0.2,0.7-0.3c0.1,0,0.1,0,0.1-0.1v-0.4c0-0.3,0-0.6-0.1-0.7s-0.3-0.3-0.5-0.3
		c-0.2,0-0.4,0.1-0.5,0.2s-0.1,0.4-0.2,0.6c0,0,0,0.1,0,0.2H45c0-0.6,0.2-1.1,0.5-1.4c0.3-0.4,0.8-0.5,1.4-0.5c0.6,0,1,0.2,1.4,0.5
		c0.3,0.4,0.5,0.8,0.5,1.4v2.8c0,0.7,0.1,1.2,0.2,1.6h-1.2l-0.2-0.9c-0.1,0.1-0.1,0.2-0.2,0.3c0,0.1-0.1,0.2-0.2,0.3
		s-0.2,0.2-0.2,0.2s-0.2,0.1-0.3,0.1S46.4,46.9,46.2,46.9z M46.8,45.9c0.1,0,0.2,0,0.3-0.1s0.1-0.1,0.2-0.2c0,0,0.1-0.1,0.2-0.2
		c0,0,0,0,0,0v-1.7c-0.1,0-0.1,0.1-0.3,0.2C47.1,44,47,44,46.9,44.1c-0.1,0-0.2,0.1-0.3,0.2c-0.1,0.1-0.2,0.2-0.2,0.2
		c-0.1,0.1-0.1,0.2-0.1,0.3c0,0.1-0.1,0.2-0.1,0.3C46.2,45.7,46.4,45.9,46.8,45.9z"/>
	<path fill="#FFFFFF" d="M49.8,46.8v-8.8H51v8.8H49.8z"/>
	<path fill="#FFFFFF" d="M53.9,46.9c-0.3,0-0.6-0.1-0.8-0.2c-0.2-0.1-0.4-0.2-0.5-0.4s-0.2-0.4-0.3-0.6c-0.1-0.3-0.1-0.5-0.2-0.8
		c0-0.3,0-0.6-0.1-0.9c0-0.3,0-0.5,0-0.8c0-0.3,0-0.6,0.1-0.9s0.1-0.5,0.2-0.7c0.1-0.2,0.2-0.4,0.3-0.6c0.1-0.2,0.3-0.3,0.5-0.4
		s0.5-0.1,0.8-0.1c0.3,0,0.5,0,0.7,0.1c0.2,0.1,0.4,0.2,0.5,0.3c0.1,0.1,0.2,0.3,0.3,0.5c0.1,0.2,0.2,0.4,0.2,0.6
		c0,0.2,0.1,0.5,0.1,0.7c0,0.2,0,0.5,0,0.8v0.1h-2.5V44c0,0,0,0.1,0,0.2c0,0.1,0,0.2,0,0.4s0,0.3,0,0.4c0,0.1,0,0.2,0.1,0.4
		s0.1,0.2,0.1,0.3c0,0.1,0.1,0.2,0.2,0.2c0.1,0,0.2,0.1,0.3,0.1c0.1,0,0.2,0,0.3-0.1c0.1-0.1,0.1-0.1,0.2-0.2c0-0.1,0.1-0.2,0.1-0.3
		c0-0.1,0-0.2,0-0.4v-0.3h1.2v0.2c0,0.7-0.2,1.2-0.5,1.5C55,46.8,54.5,46.9,53.9,46.9z M53.3,43.1h1.2v-0.4c0-0.2,0-0.3,0-0.4
		c0-0.1,0-0.2-0.1-0.4c0-0.1-0.1-0.2-0.2-0.3c-0.1-0.1-0.2-0.1-0.3-0.1c-0.1,0-0.2,0-0.3,0.1c-0.1,0.1-0.2,0.2-0.2,0.3
		c0,0.1-0.1,0.3-0.1,0.4c0,0.1,0,0.3,0,0.4V43.1z"/>
	<path fill="#FFFFFF" d="M58.3,46.9c-0.5,0-0.9-0.2-1.2-0.5c-0.3-0.3-0.5-0.7-0.6-1.2l0.9-0.3c0.2,0.6,0.5,0.9,0.9,0.9
		c0.2,0,0.4-0.1,0.5-0.2c0.1-0.1,0.2-0.3,0.2-0.5c0-0.3-0.1-0.5-0.3-0.7l-1.2-0.9c-0.1-0.1-0.3-0.2-0.4-0.3
		c-0.1-0.1-0.2-0.2-0.3-0.3s-0.2-0.3-0.2-0.4c-0.1-0.1-0.1-0.3-0.1-0.5c0-0.5,0.2-0.9,0.5-1.2c0.3-0.3,0.8-0.4,1.4-0.4
		c0.3,0,0.5,0,0.7,0.1c0.2,0.1,0.4,0.2,0.5,0.4c0.1,0.2,0.3,0.3,0.4,0.5c0.1,0.2,0.2,0.4,0.2,0.6l-0.9,0.3c0-0.1-0.1-0.2-0.1-0.3
		c0-0.1-0.1-0.2-0.2-0.3c-0.1-0.1-0.2-0.2-0.3-0.2c-0.1-0.1-0.2-0.1-0.3-0.1c-0.2,0-0.4,0.1-0.5,0.2c-0.1,0.1-0.2,0.3-0.2,0.5
		c0,0.2,0.1,0.4,0.3,0.5l1.2,0.9c0.1,0.1,0.3,0.2,0.4,0.3c0.1,0.1,0.2,0.2,0.3,0.4c0.1,0.1,0.2,0.3,0.2,0.5s0.1,0.3,0.1,0.5
		c0,0.5-0.2,0.9-0.5,1.2C59.4,46.8,58.9,46.9,58.3,46.9z"/>
	<path fill="#FFFFFF" d="M60.7,46.8v-1.2H62v1.2H60.7z"/>
	<path fill="#FFFFFF" d="M65.9,46.8v-7.6h-1.6v-1.1h4.4v1.1h-1.6v7.6H65.9z"/>
	<path fill="#FFFFFF" d="M69.3,46.8v-8.8h1.2v3.2c0.2-0.2,0.3-0.3,0.5-0.4s0.3-0.2,0.5-0.3c0.2-0.1,0.4-0.1,0.7-0.1
		c0.3,0,0.5,0.1,0.6,0.3s0.2,0.4,0.2,0.7v5.3h-1.2v-4.7c0-0.2,0-0.4-0.1-0.5s-0.2-0.2-0.3-0.2c-0.3,0-0.5,0.1-0.8,0.4v4.9H69.3z"/>
	<path fill="#FFFFFF" d="M75.9,46.9c-0.3,0-0.6-0.1-0.8-0.2c-0.2-0.1-0.4-0.2-0.5-0.4s-0.2-0.4-0.3-0.6c-0.1-0.3-0.1-0.5-0.2-0.8
		c0-0.3,0-0.6-0.1-0.9c0-0.3,0-0.5,0-0.8c0-0.3,0-0.6,0.1-0.9s0.1-0.5,0.2-0.7c0.1-0.2,0.2-0.4,0.3-0.6c0.1-0.2,0.3-0.3,0.5-0.4
		s0.5-0.1,0.8-0.1c0.3,0,0.5,0,0.7,0.1c0.2,0.1,0.4,0.2,0.5,0.3c0.1,0.1,0.2,0.3,0.3,0.5c0.1,0.2,0.2,0.4,0.2,0.6
		c0,0.2,0.1,0.5,0.1,0.7c0,0.2,0,0.5,0,0.8v0.1h-2.5V44c0,0,0,0.1,0,0.2c0,0.1,0,0.2,0,0.4s0,0.3,0,0.4c0,0.1,0,0.2,0.1,0.4
		s0.1,0.2,0.1,0.3c0,0.1,0.1,0.2,0.2,0.2c0.1,0,0.2,0.1,0.3,0.1c0.1,0,0.2,0,0.3-0.1c0.1-0.1,0.1-0.1,0.2-0.2c0-0.1,0.1-0.2,0.1-0.3
		c0-0.1,0-0.2,0-0.4v-0.3h1.2v0.2c0,0.7-0.2,1.2-0.5,1.5C77,46.8,76.5,46.9,75.9,46.9z M75.3,43.1h1.2v-0.4c0-0.2,0-0.3,0-0.4
		c0-0.1,0-0.2-0.1-0.4c0-0.1-0.1-0.2-0.2-0.3c-0.1-0.1-0.2-0.1-0.3-0.1c-0.1,0-0.2,0-0.3,0.1c-0.1,0.1-0.2,0.2-0.2,0.3
		c0,0.1-0.1,0.3-0.1,0.4c0,0.1,0,0.3,0,0.4V43.1z"/>
	<path fill="#FFFFFF" d="M0.6,58.8v-8.8h1.2v3.2C2,53.1,2.2,53,2.3,52.9s0.3-0.2,0.5-0.3s0.4-0.1,0.7-0.1c0.3,0,0.5,0.1,0.6,0.3
		s0.2,0.4,0.2,0.7v5.3H3.1v-4.7c0-0.2,0-0.4-0.1-0.5s-0.2-0.2-0.3-0.2c-0.3,0-0.5,0.1-0.8,0.4v4.9H0.6z"/>
	<path fill="#FFFFFF" d="M7.2,58.9c-0.3,0-0.6-0.1-0.8-0.2S6,58.5,5.9,58.4S5.6,58,5.5,57.7s-0.1-0.5-0.2-0.8s0-0.6-0.1-0.9
		c0-0.3,0-0.5,0-0.8c0-0.3,0-0.6,0.1-0.9s0.1-0.5,0.2-0.7s0.2-0.4,0.3-0.6s0.3-0.3,0.5-0.4s0.5-0.1,0.8-0.1c0.3,0,0.5,0,0.7,0.1
		s0.4,0.2,0.5,0.3s0.2,0.3,0.3,0.5S8.9,53.8,9,54S9,54.5,9,54.8s0,0.5,0,0.8v0.1H6.6V56c0,0,0,0.1,0,0.2c0,0.1,0,0.2,0,0.4
		s0,0.3,0,0.4s0,0.2,0.1,0.4s0.1,0.2,0.1,0.3s0.1,0.2,0.2,0.2s0.2,0.1,0.3,0.1c0.1,0,0.2,0,0.3-0.1s0.1-0.1,0.2-0.2s0.1-0.2,0.1-0.3
		s0-0.2,0-0.4v-0.3h1.2v0.2c0,0.7-0.2,1.2-0.5,1.5S7.8,58.9,7.2,58.9z M6.6,55.1h1.2v-0.4c0-0.2,0-0.3,0-0.4s0-0.2-0.1-0.4
		s-0.1-0.2-0.2-0.3s-0.2-0.1-0.3-0.1c-0.1,0-0.2,0-0.3,0.1s-0.1,0.2-0.2,0.3s-0.1,0.3-0.1,0.4s0,0.3,0,0.4V55.1z"/>
	<path fill="#FFFFFF" d="M11.1,58.9c-0.3,0-0.6-0.2-0.9-0.5s-0.4-0.6-0.4-1c0-0.3,0.1-0.6,0.2-0.8s0.2-0.4,0.3-0.6s0.3-0.3,0.6-0.5
		s0.5-0.3,0.6-0.3s0.4-0.2,0.7-0.3c0.1,0,0.1,0,0.1-0.1v-0.4c0-0.3,0-0.6-0.1-0.7s-0.3-0.3-0.5-0.3c-0.2,0-0.4,0.1-0.5,0.2
		s-0.1,0.4-0.2,0.6c0,0,0,0.1,0,0.2H9.8c0-0.6,0.2-1.1,0.5-1.4s0.8-0.5,1.4-0.5c0.6,0,1,0.2,1.4,0.5s0.5,0.8,0.5,1.4v2.8
		c0,0.7,0.1,1.2,0.2,1.6h-1.2l-0.2-0.9c-0.1,0.1-0.1,0.2-0.2,0.3s-0.1,0.2-0.2,0.3s-0.2,0.2-0.2,0.2s-0.2,0.1-0.3,0.1
		S11.2,58.9,11.1,58.9z M11.7,57.9c0.1,0,0.2,0,0.3-0.1s0.1-0.1,0.2-0.2s0.1-0.1,0.2-0.2c0,0,0,0,0,0v-1.7c-0.1,0-0.1,0.1-0.3,0.2
		s-0.2,0.1-0.3,0.2s-0.2,0.1-0.3,0.2s-0.2,0.2-0.2,0.2s-0.1,0.2-0.1,0.3s-0.1,0.2-0.1,0.3C11.1,57.7,11.3,57.9,11.7,57.9z"/>
	<path fill="#FFFFFF" d="M15.6,58.8l-1.4-6.2h1.2l0.9,4.7l0.8-4.7h1.2l-1.4,6.2H15.6z"/>
	<path fill="#FFFFFF" d="M19,51.7v-1.2h1.2v1.2H19z M19,58.8v-6.2h1.2v6.2H19z"/>
	<path fill="#FFFFFF" d="M23.2,58.9c-0.3,0-0.6-0.1-0.8-0.2s-0.4-0.2-0.5-0.4s-0.2-0.4-0.3-0.6s-0.1-0.5-0.2-0.8s0-0.6-0.1-0.9
		c0-0.3,0-0.5,0-0.8c0-0.3,0-0.6,0.1-0.9s0.1-0.5,0.2-0.7s0.2-0.4,0.3-0.6s0.3-0.3,0.5-0.4s0.5-0.1,0.8-0.1c0.3,0,0.5,0,0.7,0.1
		s0.4,0.2,0.5,0.3s0.2,0.3,0.3,0.5s0.2,0.4,0.2,0.6s0.1,0.5,0.1,0.7s0,0.5,0,0.8v0.1h-2.5V56c0,0,0,0.1,0,0.2c0,0.1,0,0.2,0,0.4
		s0,0.3,0,0.4s0,0.2,0.1,0.4s0.1,0.2,0.1,0.3s0.1,0.2,0.2,0.2s0.2,0.1,0.3,0.1c0.1,0,0.2,0,0.3-0.1s0.1-0.1,0.2-0.2s0.1-0.2,0.1-0.3
		s0-0.2,0-0.4v-0.3H25v0.2c0,0.7-0.2,1.2-0.5,1.5S23.8,58.9,23.2,58.9z M22.5,55.1h1.2v-0.4c0-0.2,0-0.3,0-0.4s0-0.2-0.1-0.4
		s-0.1-0.2-0.2-0.3s-0.2-0.1-0.3-0.1c-0.1,0-0.2,0-0.3,0.1s-0.1,0.2-0.2,0.3s-0.1,0.3-0.1,0.4s0,0.3,0,0.4V55.1z"/>
	<path fill="#FFFFFF" d="M27.6,58.9c-0.5,0-0.9-0.2-1.2-0.5s-0.5-0.7-0.6-1.2l0.9-0.3c0.2,0.6,0.5,0.9,0.9,0.9
		c0.2,0,0.4-0.1,0.5-0.2s0.2-0.3,0.2-0.5c0-0.3-0.1-0.5-0.3-0.7l-1.2-0.9c-0.1-0.1-0.3-0.2-0.4-0.3s-0.2-0.2-0.3-0.3
		s-0.2-0.3-0.2-0.4s-0.1-0.3-0.1-0.5c0-0.5,0.2-0.9,0.5-1.2s0.8-0.4,1.4-0.4c0.3,0,0.5,0,0.7,0.1s0.4,0.2,0.5,0.4s0.3,0.3,0.4,0.5
		s0.2,0.4,0.2,0.6l-0.9,0.3c0-0.1-0.1-0.2-0.1-0.3s-0.1-0.2-0.2-0.3s-0.2-0.2-0.3-0.2s-0.2-0.1-0.3-0.1c-0.2,0-0.4,0.1-0.5,0.2
		S27,54,27,54.2c0,0.2,0.1,0.4,0.3,0.5l1.2,0.9c0.1,0.1,0.3,0.2,0.4,0.3s0.2,0.2,0.3,0.4s0.2,0.3,0.2,0.5s0.1,0.3,0.1,0.5
		c0,0.5-0.2,0.9-0.5,1.2S28.2,58.9,27.6,58.9z"/>
	<path fill="#FFFFFF" d="M32,58.9c-0.5,0-0.8-0.1-1.1-0.4s-0.3-0.6-0.3-1.1v-3.9h-0.6v-0.9h0.6v-2.2h1.2v2.2h0.9v0.9h-0.9v3.6
		c0,0.3,0,0.4,0.1,0.6s0.2,0.2,0.4,0.2c0.1,0,0.2,0,0.4,0v1C32.4,58.9,32.2,58.9,32,58.9z"/>
	<path fill="#FFFFFF" d="M36.4,58.8l-1.2-6.2h1.1l0.7,4.7l0.7-4.7h1.1l0.7,4.7l0.7-4.7h1.1l-1.2,6.2h-1.2l-0.7-4.3l-0.7,4.3H36.4z"
		/>
	<path fill="#FFFFFF" d="M43.6,58.9c-0.3,0-0.6-0.1-0.8-0.2s-0.4-0.2-0.5-0.4S42.1,58,42,57.7s-0.1-0.5-0.2-0.8s0-0.6-0.1-0.9
		c0-0.3,0-0.5,0-0.8c0-0.3,0-0.6,0.1-0.9s0.1-0.5,0.2-0.7s0.2-0.4,0.3-0.6s0.3-0.3,0.5-0.4s0.5-0.1,0.8-0.1c0.3,0,0.5,0,0.7,0.1
		c0.2,0.1,0.4,0.2,0.5,0.3c0.1,0.1,0.2,0.3,0.3,0.5c0.1,0.2,0.2,0.4,0.2,0.6c0,0.2,0.1,0.5,0.1,0.7c0,0.2,0,0.5,0,0.8v0.1H43V56
		c0,0,0,0.1,0,0.2c0,0.1,0,0.2,0,0.4s0,0.3,0,0.4s0,0.2,0.1,0.4s0.1,0.2,0.1,0.3s0.1,0.2,0.2,0.2c0.1,0,0.2,0.1,0.3,0.1
		c0.1,0,0.2,0,0.3-0.1c0.1-0.1,0.1-0.1,0.2-0.2c0-0.1,0.1-0.2,0.1-0.3c0-0.1,0-0.2,0-0.4v-0.3h1.2v0.2c0,0.7-0.2,1.2-0.5,1.5
		C44.7,58.8,44.2,58.9,43.6,58.9z M43,55.1h1.2v-0.4c0-0.2,0-0.3,0-0.4c0-0.1,0-0.2-0.1-0.4c0-0.1-0.1-0.2-0.2-0.3
		c-0.1-0.1-0.2-0.1-0.3-0.1c-0.1,0-0.2,0-0.3,0.1c-0.1,0.1-0.2,0.2-0.2,0.3S43,54.2,43,54.3s0,0.3,0,0.4V55.1z"/>
	<path fill="#FFFFFF" d="M46.5,51.7v-1.2h1.2v1.2H46.5z M46.5,58.8v-6.2h1.2v6.2H46.5z"/>
	<path fill="#FFFFFF" d="M50.9,60.7c-0.2,0-0.3,0-0.4,0s-0.2,0-0.4,0c-0.2,0-0.3,0-0.4,0c-0.1,0-0.2,0-0.4-0.1s-0.3-0.1-0.4-0.1
		c-0.1,0-0.2-0.1-0.3-0.2s-0.2-0.1-0.2-0.2s-0.1-0.2-0.1-0.3c0-0.3,0.1-0.6,0.3-0.8c0.2-0.2,0.4-0.4,0.7-0.6c-0.2,0-0.3-0.1-0.4-0.2
		c-0.1-0.1-0.2-0.2-0.2-0.3c0-0.1,0-0.1,0-0.2c0-0.1,0-0.1,0-0.2c0-0.1,0-0.1,0.1-0.2c0-0.1,0.1-0.1,0.1-0.2c0,0,0.1-0.1,0.1-0.2
		s0.1-0.1,0.1-0.1c0,0,0.1-0.1,0.1-0.1c0.1-0.1,0.1-0.1,0.1-0.1c-0.4-0.5-0.6-1.1-0.6-1.9c0-0.4,0.1-0.8,0.2-1.2s0.3-0.6,0.6-0.8
		s0.6-0.3,1-0.3c0.2,0,0.4,0,0.6,0.1c0.2,0.1,0.3,0.1,0.4,0.2c0.1,0.1,0.2,0.2,0.3,0.4c0.2-0.5,0.6-0.7,1.1-0.7c0,0,0,0,0,0s0,0,0,0
		s0,0,0,0v1c0,0,0,0-0.1,0c-0.1,0-0.2,0-0.3,0c-0.1,0-0.2,0-0.2,0s-0.2,0.1-0.2,0.1c0.1,0.1,0.1,0.3,0.2,0.5s0.1,0.4,0.1,0.6
		c0,0.4-0.1,0.8-0.2,1.2s-0.3,0.6-0.6,0.8s-0.6,0.3-1,0.3L49.9,57c0,0,0,0,0,0.1c0,0,0,0.1-0.1,0.1s0,0.1,0,0.1c0,0,0,0.1,0,0.1
		c0,0.1,0,0.2,0.1,0.2c0.1,0.1,0.2,0.1,0.3,0.1c0.1,0,0.3,0,0.4,0.1s0.3,0,0.4,0c0.2,0,0.3,0,0.3,0c0.2,0,0.4,0.1,0.5,0.1
		c0.1,0,0.3,0.1,0.4,0.1s0.3,0.1,0.4,0.2s0.2,0.2,0.2,0.4s0.1,0.3,0.1,0.5c0,0.2,0,0.4-0.1,0.6c-0.1,0.2-0.2,0.3-0.3,0.4
		c-0.1,0.1-0.3,0.2-0.5,0.3c-0.2,0.1-0.4,0.1-0.6,0.2C51.3,60.7,51.1,60.7,50.9,60.7z M50.9,59.8c0.1,0,0.2,0,0.2,0
		c0.1,0,0.2,0,0.2,0c0.1,0,0.2,0,0.2,0c0.1,0,0.1,0,0.2-0.1c0.1,0,0.1-0.1,0.1-0.1c0-0.1,0-0.1,0-0.2c0-0.3-0.3-0.6-1-0.6l-1-0.1
		c-0.1,0.1-0.2,0.2-0.3,0.4c-0.1,0.2-0.1,0.4-0.1,0.5c0,0.1,0,0.1,0.1,0.1c0,0,0.1,0.1,0.2,0.1c0.1,0,0.1,0,0.2,0s0.2,0,0.3,0
		c0.1,0,0.2,0,0.3,0c0.1,0,0.2,0,0.3,0C50.8,59.8,50.8,59.8,50.9,59.8z M50.6,56.1c0.5,0,0.8-0.4,0.8-1.3c0-0.2,0-0.3,0-0.5
		c0-0.2-0.1-0.3-0.1-0.4c-0.1-0.1-0.1-0.3-0.2-0.3s-0.2-0.1-0.4-0.1c-0.2,0-0.3,0-0.4,0.1s-0.2,0.2-0.2,0.3s-0.1,0.3-0.1,0.4
		c0,0.2,0,0.3,0,0.5C49.8,55.7,50,56.1,50.6,56.1z"/>
	<path fill="#FFFFFF" d="M53.4,58.8v-8.8h1.2v3.2c0.2-0.2,0.3-0.3,0.5-0.4s0.3-0.2,0.5-0.3c0.2-0.1,0.4-0.1,0.7-0.1
		c0.3,0,0.5,0.1,0.6,0.3s0.2,0.4,0.2,0.7v5.3h-1.2v-4.7c0-0.2,0-0.4-0.1-0.5s-0.2-0.2-0.3-0.2c-0.3,0-0.5,0.1-0.8,0.4v4.9H53.4z"/>
	<path fill="#FFFFFF" d="M60,58.9c-0.3,0-0.6-0.1-0.8-0.2c-0.2-0.1-0.4-0.2-0.5-0.4s-0.2-0.4-0.3-0.6c-0.1-0.3-0.1-0.5-0.2-0.8
		c0-0.3,0-0.6-0.1-0.9c0-0.3,0-0.5,0-0.8c0-0.3,0-0.6,0.1-0.9s0.1-0.5,0.2-0.7c0.1-0.2,0.2-0.4,0.3-0.6c0.1-0.2,0.3-0.3,0.5-0.4
		s0.5-0.1,0.8-0.1c0.3,0,0.5,0,0.7,0.1c0.2,0.1,0.4,0.2,0.5,0.3c0.1,0.1,0.2,0.3,0.3,0.5c0.1,0.2,0.2,0.4,0.2,0.6
		c0,0.2,0.1,0.5,0.1,0.7c0,0.2,0,0.5,0,0.8v0.1h-2.5V56c0,0,0,0.1,0,0.2c0,0.1,0,0.2,0,0.4s0,0.3,0,0.4c0,0.1,0,0.2,0.1,0.4
		s0.1,0.2,0.1,0.3c0,0.1,0.1,0.2,0.2,0.2c0.1,0,0.2,0.1,0.3,0.1c0.1,0,0.2,0,0.3-0.1c0.1-0.1,0.1-0.1,0.2-0.2c0-0.1,0.1-0.2,0.1-0.3
		c0-0.1,0-0.2,0-0.4v-0.3h1.2v0.2c0,0.7-0.2,1.2-0.5,1.5C61.1,58.8,60.7,58.9,60,58.9z M59.4,55.1h1.2v-0.4c0-0.2,0-0.3,0-0.4
		c0-0.1,0-0.2-0.1-0.4c0-0.1-0.1-0.2-0.2-0.3c-0.1-0.1-0.2-0.1-0.3-0.1c-0.1,0-0.2,0-0.3,0.1c-0.1,0.1-0.2,0.2-0.2,0.3
		c0,0.1-0.1,0.3-0.1,0.4c0,0.1,0,0.3,0,0.4V55.1z"/>
	<path fill="#FFFFFF" d="M64.3,58.9c-0.3,0-0.5-0.1-0.7-0.2c-0.2-0.2-0.4-0.4-0.5-0.6s-0.2-0.5-0.3-0.8c-0.1-0.3-0.1-0.6-0.1-0.9
		c0-0.2,0-0.5,0-1.1c0-0.2,0-0.4,0-0.6c0-0.2,0-0.4,0.1-0.5c0-0.2,0.1-0.4,0.1-0.5c0-0.1,0.1-0.3,0.2-0.4s0.2-0.2,0.3-0.3
		c0.1-0.1,0.2-0.2,0.4-0.2s0.3-0.1,0.5-0.1c0.1,0,0.3,0,0.4,0.1s0.2,0.1,0.3,0.2c0.1,0.1,0.2,0.2,0.3,0.2c0.1,0.1,0.2,0.1,0.3,0.3
		v-3.1h1.2v8.7h-1.2v-0.6c-0.2,0.2-0.4,0.4-0.6,0.5S64.5,58.9,64.3,58.9z M64.6,57.9c0.3,0,0.6-0.1,0.9-0.2v-3.9
		c-0.3-0.2-0.6-0.2-0.9-0.2c-0.1,0-0.2,0-0.3,0.1c-0.1,0.1-0.1,0.1-0.2,0.3c0,0.1-0.1,0.2-0.1,0.4s0,0.3,0,0.4c0,0.7,0,1.3,0,1.7
		c0,0.2,0,0.4,0,0.6s0.1,0.3,0.1,0.5s0.1,0.3,0.2,0.3C64.4,57.9,64.5,57.9,64.6,57.9z"/>
	<path fill="#FFFFFF" d="M70,51.7v-1.2h1.2v1.2H70z M70,58.8v-6.2h1.2v6.2H70z"/>
	<path fill="#FFFFFF" d="M74.1,58.9c-0.5,0-0.9-0.2-1.2-0.5c-0.3-0.3-0.5-0.7-0.6-1.2l0.9-0.3c0.2,0.6,0.5,0.9,0.9,0.9
		c0.2,0,0.4-0.1,0.5-0.2c0.1-0.1,0.2-0.3,0.2-0.5c0-0.3-0.1-0.5-0.3-0.7l-1.2-0.9c-0.1-0.1-0.3-0.2-0.4-0.3
		c-0.1-0.1-0.2-0.2-0.3-0.3s-0.2-0.3-0.2-0.4c-0.1-0.1-0.1-0.3-0.1-0.5c0-0.5,0.2-0.9,0.5-1.2c0.3-0.3,0.8-0.4,1.4-0.4
		c0.3,0,0.5,0,0.7,0.1c0.2,0.1,0.4,0.2,0.5,0.4c0.1,0.2,0.3,0.3,0.4,0.5c0.1,0.2,0.2,0.4,0.2,0.6l-0.9,0.3c0-0.1-0.1-0.2-0.1-0.3
		c0-0.1-0.1-0.2-0.2-0.3c-0.1-0.1-0.2-0.2-0.3-0.2c-0.1-0.1-0.2-0.1-0.3-0.1c-0.2,0-0.4,0.1-0.5,0.2c-0.1,0.1-0.2,0.3-0.2,0.5
		c0,0.2,0.1,0.4,0.3,0.5l1.2,0.9c0.1,0.1,0.3,0.2,0.4,0.3c0.1,0.1,0.2,0.2,0.3,0.4c0.1,0.1,0.2,0.3,0.2,0.5s0.1,0.3,0.1,0.5
		c0,0.5-0.2,0.9-0.5,1.2C75.1,58.8,74.7,58.9,74.1,58.9z"/>
	<path fill="#F9C53D" d="M3.5,86.8V67.6H0.9V65c1.8-0.6,2.9-1.5,3.5-2.6H7v24.5H3.5z"/>
	<path fill="#F9C53D" d="M16.1,87.1c-2,0-3.5-0.6-4.5-1.7c-1.1-1.1-1.6-2.7-1.6-4.7h3.5c0,1.2,0.2,2,0.6,2.6
		c0.4,0.6,1.1,0.9,2.1,0.9c1.8,0,2.6-1.8,2.6-5.2v-3.5c-0.7,1.2-1.9,1.8-3.5,1.8c-1,0-1.8-0.2-2.5-0.5s-1.2-0.8-1.6-1.5
		c-0.4-0.7-0.7-1.4-0.8-2.2c-0.2-0.8-0.3-1.7-0.3-2.8c0-1.1,0.1-2.2,0.3-3.2c0.2-1,0.6-1.8,1.1-2.6c0.5-0.8,1.1-1.3,1.9-1.8
		c0.8-0.4,1.7-0.6,2.8-0.6c0.8,0,1.6,0.1,2.3,0.4c0.7,0.3,1.3,0.7,1.7,1.2c0.5,0.5,0.9,1.1,1.2,1.8c0.3,0.7,0.6,1.4,0.7,2.2
		c0.1,0.8,0.2,1.6,0.2,2.5v7.9c0,1-0.1,1.9-0.2,2.8c-0.1,0.9-0.3,1.7-0.6,2.4c-0.3,0.8-0.7,1.4-1.1,2c-0.5,0.5-1,1-1.8,1.3
		C17.9,86.9,17.1,87.1,16.1,87.1z M16.1,74.6c1.1,0,2-0.6,2.6-1.8v-3.5c0-0.6,0-1.1-0.1-1.6c-0.1-0.5-0.2-0.9-0.4-1.4
		c-0.2-0.4-0.5-0.8-0.8-1S16.6,65,16.1,65c-0.5,0-0.9,0.1-1.3,0.4s-0.6,0.6-0.8,1c-0.2,0.4-0.3,0.9-0.4,1.4c-0.1,0.5-0.1,1-0.1,1.6
		c0,0.3,0,0.6,0,0.8s0,0.4,0,0.8s0,0.6,0.1,0.8c0,0.2,0.1,0.4,0.1,0.7s0.1,0.5,0.2,0.6c0.1,0.2,0.1,0.3,0.2,0.5s0.2,0.4,0.3,0.5
		c0.1,0.1,0.3,0.2,0.4,0.3s0.4,0.2,0.6,0.2C15.6,74.6,15.9,74.6,16.1,74.6z"/>
	<path fill="#F9C53D" d="M31,87.1c-1.3,0-2.5-0.3-3.4-0.9c-0.9-0.6-1.6-1.5-2.1-2.5c-0.4-1.1-0.7-2.3-0.7-3.8V69.3
		c0-2.3,0.5-4,1.5-5.3c1-1.3,2.6-1.9,4.6-1.9c2,0,3.6,0.6,4.6,1.9c1,1.3,1.5,3.1,1.5,5.3v10.5c0,2.2-0.5,4-1.6,5.3
		C34.5,86.4,33,87.1,31,87.1z M31,84.2c1.8,0,2.6-1.5,2.6-4.4V69.3c0-0.5,0-0.9-0.1-1.3c0-0.4-0.1-0.8-0.2-1.2
		c-0.1-0.4-0.3-0.7-0.5-1c-0.2-0.3-0.4-0.5-0.8-0.6C31.8,65.1,31.4,65,31,65s-0.8,0.1-1.1,0.2c-0.3,0.2-0.6,0.4-0.8,0.6
		c-0.2,0.3-0.3,0.6-0.5,1c-0.1,0.4-0.2,0.8-0.2,1.2c0,0.4-0.1,0.8-0.1,1.3v10.5c0,0.6,0,1.1,0.1,1.6c0.1,0.5,0.2,0.9,0.4,1.4
		c0.2,0.4,0.5,0.8,0.8,1C30.1,84.1,30.5,84.2,31,84.2z"/>
	<path fill="#F9C53D" d="M45.7,86.8V62.3h3.5v24.5H45.7z"/>
	<path fill="#F9C53D" d="M59.4,87.1c-0.7,0-1.3-0.2-1.9-0.5s-1.1-0.8-1.6-1.3v1.6h-3.5V62.4h3.5v8.7c0.3-0.3,0.6-0.6,0.7-0.8
		c0.2-0.2,0.4-0.4,0.7-0.6c0.3-0.2,0.6-0.4,1-0.5s0.7-0.1,1.1-0.1c0.6,0,1.1,0.1,1.6,0.3c0.5,0.2,0.8,0.5,1.1,0.8s0.6,0.7,0.8,1.3
		c0.2,0.6,0.4,1.1,0.5,1.5c0.1,0.5,0.2,1.1,0.2,1.8c0.1,0.8,0.1,1.4,0.1,1.9s0,1.1,0,2V79c0,0.8,0,1.5-0.1,2.2s-0.2,1.4-0.4,2.2
		s-0.5,1.4-0.8,1.9c-0.3,0.5-0.7,1-1.3,1.3S60,87.1,59.4,87.1z M58.5,84.2c0.4,0,0.7-0.1,0.9-0.4s0.4-0.7,0.5-1.2s0.2-1,0.2-1.5
		c0-0.5,0.1-1.1,0.1-1.8c0-0.5,0-1.1,0-2c0-0.8,0-1.4,0-1.8s0-0.8,0-1.1c0-0.3-0.1-0.6-0.1-1c-0.1-0.3-0.2-0.6-0.3-0.8
		s-0.3-0.4-0.5-0.5C59.1,72,58.8,72,58.5,72c-1,0-1.8,0.2-2.6,0.7v11C56.8,84,57.6,84.2,58.5,84.2z"/>
	<path fill="#F9C53D" d="M71.2,87.1c-1.4,0-2.6-0.4-3.5-1.3c-0.9-0.9-1.5-2-1.8-3.3l2.6-0.9c0.6,1.8,1.5,2.6,2.6,2.6
		c0.6,0,1-0.2,1.3-0.5c0.3-0.3,0.5-0.7,0.5-1.3c0-0.8-0.3-1.5-0.9-2l-3.5-2.6c-0.4-0.3-0.7-0.5-1-0.7s-0.5-0.5-0.8-0.9
		c-0.3-0.3-0.5-0.7-0.6-1.1c-0.1-0.4-0.2-0.9-0.2-1.4c0-1.5,0.5-2.6,1.4-3.4s2.2-1.2,3.8-1.2c0.8,0,1.4,0.1,2.1,0.4
		c0.6,0.2,1.1,0.6,1.5,1s0.8,0.9,1,1.5s0.5,1.1,0.6,1.8l-2.6,0.9c-0.1-0.3-0.3-0.6-0.4-0.9c-0.1-0.3-0.3-0.5-0.5-0.8
		c-0.2-0.3-0.5-0.5-0.8-0.7c-0.3-0.2-0.6-0.2-1-0.2c-0.6,0-1,0.2-1.3,0.5c-0.3,0.3-0.5,0.7-0.5,1.3c0,0.5,0.3,1,0.9,1.5l3.5,2.6
		c0.4,0.3,0.7,0.6,1,0.9s0.5,0.6,0.8,1c0.3,0.4,0.5,0.8,0.6,1.3s0.2,1,0.2,1.5c0,1.5-0.5,2.6-1.4,3.4S72.8,87.1,71.2,87.1z"/>
</g>
<g>
</g>
<g>
</g>
<g>
</g>
<g>
</g>
<g>
</g>
<g>
</g>
</svg>
