<?xml version="1.0" encoding="utf-8"?>
<!-- Generator: Adobe Illustrator 19.1.0, SVG Export Plug-In . SVG Version: 6.00 Build 0)  -->
<svg version="1.1" id="Layer_1" xmlns="http://www.w3.org/2000/svg" xmlns:xlink="http://www.w3.org/1999/xlink" x="0px" y="0px"
	 width="288px" height="288px" viewBox="0 0 288 288" enable-background="new 0 0 288 288" xml:space="preserve">
<g>
	<path fill="#704815" d="M111.9,178.9c-2.6,5.7-30.2-2.5-36.6-18.3C64,133,77.3,114,89.7,100.9c-11,12.9-20.8,30.8-10.7,55.6
		c4,9.8,15.9,16.6,25.2,19.1C107.1,177.3,109.8,178.4,111.9,178.9z"/>
	<path fill="#825C2D" d="M104.2,175.6c-9.2-2.5-21.2-9.3-25.2-19.1c-10.1-24.8-0.3-42.7,10.7-55.6c4.3-4.6,8.6-8.5,11.6-11.7
		c-0.2,0.2,1,1.6-0.2,4c-6.1,11.6-23.7,44.7-15.6,61C91.1,165.6,98.2,172,104.2,175.6z"/>
	<path fill="#825C2D" d="M194.3,144.3C194.2,144.3,194.2,144.3,194.3,144.3c0,2.3-0.8,4.4-2.7,4.4c-2.8,0-5.5-3.4-5.7-3.7
		c0,0,0,0,0,0l-3.8,2c2,0,3.7,0.5,3.8,2.4c0.1,1.4-0.1,2.6-0.6,3.6c0,0,0,0,0,0c-6.3,4.2-5.4-2.2-5.4-2.2s-4.6,3.4-16,7.1
		c-5.9,1.9-13.8,3.9-23.7,5.6c-29.2,4.9-41.9-5.3-48-15.1c-5.9-9.6,2.4-41,2.8-42.5c0,0,0,0,0,0c0,0,0,0,0,0
		c1.9-5.3,4-10.8,6.4-16.6c6.9,1.3,14.3,4.9,20.3,8.5c5.6,3.3,10,6.6,11.6,7.8c-0.1,0-0.1,0-0.2,0.1c-4.9,1.8-10.6,5.7-9.6,13.9
		c1.7,13.8,16.3,19.2,24.9,19.8c4.9,0.3,14.8-4.3,19.1-11.3c0.2,0.2,0.4,0.4,0.7,0.7c4,4,10,7.1,14.6,9.1c1.8,0.8,3.4,1.4,4.6,1.8
		c2.7-0.5,5.3-0.5,6,0.8C193.9,141.5,194.2,142.9,194.3,144.3z"/>
	<path fill="#704815" d="M133.2,105.5c0,0-17.4,3-12.7,17.3c4.7,14.3,21.4,18.2,28.2,18.4c6.9,0.2,20.3-2.1,18.7-13.2
		C165.9,116.9,133.2,105.5,133.2,105.5z"/>
	
		<radialGradient id="SVGID_1_" cx="146.4339" cy="116.8353" r="25.9634" fx="122.6273" fy="127.196" gradientTransform="matrix(1 0 0 1.2053 0 -23.9838)" gradientUnits="userSpaceOnUse">
		<stop  offset="0.4232" style="stop-color:#976225"/>
		<stop  offset="1" style="stop-color:#704815"/>
	</radialGradient>
	<path fill="url(#SVGID_1_)" d="M167.4,128c-4.3,7-14.2,11.6-19.1,11.3c-8.6-0.6-23.2-6-24.9-19.8c-1-8.2,4.7-12.1,9.6-13.9
		c0.1,0,0.1,0,0.2-0.1c3.3-1.2,6.1-1.5,6.1-1.5l-4.5-7.4c9.6,0,15.5,8.2,15.5,8.2s-0.6-1.6-2-10.4c13.3,3.7,14.9,14.7,14.9,14.7
		C170.8,116.1,170.7,122.7,167.4,128z"/>
	<path fill="#231F20" d="M142.4,114.4c0,0-1,8.2,6.3,1.4C148.7,115.7,142.8,120.5,142.4,114.4z"/>
	<path fill="#231F20" d="M130.8,110.3c0,0-1,8.2,6.3,1.4C137,111.7,131.1,116.4,130.8,110.3z"/>
	<path fill="#231F20" d="M133.9,118.5c0,0-6.3-1.2-4.6,0C131.1,119.7,133.9,118.5,133.9,118.5z"/>
	<path fill="#231F20" d="M131.4,118.5c0,0-4.4,5.9,2.4,6.1C133.9,124.6,128.9,123.7,131.4,118.5z"/>
	<path fill="#704815" d="M185.3,152.8c-1,1.9-2.8,2.8-4.2,3.1c-2.1,0.4-2.4-2.9-2.4-2.9l-15.1,5.8c-14.4,7.8-33.1,14.2-51.3,9.9
		c-17.6-4.2-24.4-14.5-24.5-29.3v0c0-5.6,0.9-12,2.7-18.9c1.2-4.7,2.7-9.6,4.5-14.7c-0.4,1.5-8.7,32.9-2.8,42.5
		c6.1,9.8,18.8,20,48,15.1c10-1.7,17.8-3.7,23.7-5.6c11.4-3.7,16-7.1,16-7.1S178.9,157,185.3,152.8
		C185.3,152.8,185.3,152.8,185.3,152.8z"/>
	<path fill="#704815" d="M194.3,144.3C194.2,144.3,194.2,144.3,194.3,144.3c0,2.3-0.8,4.4-2.7,4.4c-2.8,0-5.5-3.4-5.7-3.7
		c0,0,0,0,0,0l-11.2,5.7c6.7-5,11.6-6.4,11.6-6.4C192.6,150.1,194.2,144.2,194.3,144.3C194.2,144.2,194.2,144.3,194.3,144.3z"/>
</g>
<path fill="#825C2D" d="M167.4,128c-4.3,7-14.2,11.6-19.1,11.3c-8.6-0.6-23.2-6-24.9-19.8c-1-8.2,4.7-12.1,9.6-13.9
	c0.1,0,0.1,0,0.2-0.1c3.3-1.2,6.1-1.5,6.1-1.5l-4.5-7.4c9.6,0,15.5,8.2,15.5,8.2s-0.6-1.6-2-10.4c13.3,3.7,14.9,14.7,14.9,14.7
	C170.8,116.1,170.7,122.7,167.4,128z"/>
<path fill="#231F20" d="M142.4,114.4c0,0-1,8.2,6.3,1.4C148.7,115.7,142.8,120.5,142.4,114.4z"/>
<path fill="#231F20" d="M130.8,110.3c0,0-1,8.2,6.3,1.4C137,111.7,131.1,116.4,130.8,110.3z"/>
<path fill="#231F20" d="M133.9,118.5c0,0-6.3-1.2-4.6,0C131.1,119.7,133.9,118.5,133.9,118.5z"/>
<path fill="#231F20" d="M131.4,118.5c0,0-4.4,5.9,2.4,6.1C133.9,124.6,128.9,123.7,131.4,118.5z"/>
<g>
</g>
<g>
</g>
<g>
</g>
<g>
</g>
<g>
</g>
<g>
</g>
</svg>
