<?xml version="1.0" encoding="utf-8"?>
<!-- Generator: Adobe Illustrator 19.1.0, SVG Export Plug-In . SVG Version: 6.00 Build 0)  -->
<svg version="1.1" xmlns="http://www.w3.org/2000/svg" xmlns:xlink="http://www.w3.org/1999/xlink" x="0px" y="0px" width="155.4px"
	 height="141.2px" viewBox="0 0 155.4 141.2" enable-background="new 0 0 155.4 141.2" xml:space="preserve">
<g id="virus-back">
	<g>
		<path fill="#A6D056" d="M47.6,78.2c1.2-1.1,3-0.3,5.3-0.4c2.3-0.1,1.3-1.1,2.6-2.4c1.3-1.2,2.9,0.4,3.5-1.6s0-3.6,2.2-3.9
			c2.2-0.3,0.9-2.9,0.5-4.6s2.1-2.7,1.6-3.8c-0.5-1-3.1-3.8-2.8-4.6c0.4-0.9-0.1-2.7-2.6-3.5c-2.5-0.8-3.2-1.4-3.6-3.3
			s-1.2-1.8-2.8-1.8s-2.9-0.9-3-2.8c0-1.9-2.2-0.9-2.5-2s0.5-3.4-2.4-4.1c-2.9-0.7-1.2-3.7-3.4-4.1c-2.1-0.3-2.4,2.1-4.8-0.6
			c-2.4-2.7-2-2.2-4.1,0.2c-2.1,2.4-3.8,0.8-3.3,3.5c0.4,2.7,1.3,2-0.8,4.3s-1.8,3-0.1,6.4c1.6,3.3-0.3,3.7-0.3,5.8
			c0,2.1,0.1,2,1.9,3.8c1.8,1.8-0.6,3.8,1.3,7c1.9,3.2,2.8,0.7,5,3.9s0.4,3.5,3.6,4.4s3.8,0.7,4.7,2.4
			C44.1,78.2,45.7,79.9,47.6,78.2z"/>
		<path fill="#F2EC72" d="M33,65.4c2.5,3.9,5.7,7.4,11,9.1c8.1,2.6,16.7-3.4,16.9-12S49.1,50.8,45.8,45c-3.3-5.8-8.5-9.9-13.4-8.6
			C27.5,37.6,28.2,57.9,33,65.4z"/>
		<path fill="#F8B3B8" d="M33,65.4c0,0,0.1,0.1,0.2,0.3c0.1,0.2,0.3,0.4,0.5,0.8c0.5,0.7,1.2,1.6,2.2,2.7c0.5,0.6,1.1,1.1,1.8,1.7
			c0.7,0.6,1.5,1.1,2.4,1.6c0.9,0.5,1.9,0.9,3,1.3c0.3,0.1,0.6,0.2,0.8,0.3l0.1,0l0,0c0,0,0,0,0,0l0.1,0l0.2,0.1
			c0.1,0,0.3,0.1,0.4,0.1c0.3,0.1,0.6,0.1,0.9,0.1c0.3,0,0.6,0.1,0.9,0.1c2.4,0.2,5.1-0.4,7.6-1.8c0.6-0.4,1.2-0.7,1.8-1.2
			c0.6-0.5,1.1-1,1.6-1.5c0.5-0.6,0.9-1.2,1.3-1.8c0.4-0.7,0.7-1.4,1-2.1c0.3-0.7,0.5-1.5,0.6-2.3c0.1-0.4,0.1-0.8,0.1-1.2
			c0-0.4,0-0.8,0-1.2c-0.1-1.6-0.8-3.2-1.8-4.5c-1-1.3-2.3-2.5-3.6-3.5c-1.4-1-2.8-2-4.2-2.9c-1.4-1-2.9-2-4.1-3.3
			c-0.2-0.2-0.3-0.3-0.5-0.5c-0.2-0.2-0.3-0.3-0.4-0.5c-0.1-0.2-0.3-0.4-0.4-0.6L45,45c-0.2-0.4-0.4-0.7-0.7-1.1
			c-0.2-0.3-0.5-0.7-0.7-1c-1-1.3-2.1-2.5-3.3-3.5c-1.2-1-2.6-1.8-4-2.2c-0.4-0.1-0.7-0.2-1.1-0.2c-0.2,0-0.4,0-0.5,0l-0.3,0
			c-0.1,0-0.2,0-0.3,0c-0.3,0-0.7,0-1,0.1l-0.5,0.1c-0.1,0-0.2,0.1-0.2,0.1c0,0,0,0,0,0l-0.1,0c-0.4,0.3-0.8,0.8-1.1,1.4
			c-0.3,0.6-0.5,1.3-0.7,2c-0.3,1.4-0.5,2.8-0.6,4.1c-0.1,1.4-0.2,2.7-0.2,4c0,2.5,0.1,4.9,0.4,7c0.1,1,0.3,2,0.5,2.9
			c0.2,0.9,0.4,1.7,0.6,2.4c0.4,1.4,0.9,2.5,1.2,3.2c0.2,0.4,0.3,0.6,0.4,0.8C33,65.3,33,65.4,33,65.4z M32.9,65.5
			c0,0-0.1-0.1-0.2-0.3c-0.1-0.2-0.3-0.4-0.5-0.8c-0.4-0.7-0.9-1.8-1.4-3.2c-0.1-0.4-0.3-0.7-0.4-1.1c-0.1-0.4-0.3-0.8-0.4-1.3
			c-0.2-0.9-0.5-1.8-0.7-2.9c-0.4-2.1-0.8-4.4-1-7c0-0.7-0.1-1.3-0.1-2c0-0.7,0-1.4,0-2.1c0.1-1.4,0.2-2.9,0.6-4.4
			c0.2-0.8,0.4-1.5,0.7-2.3c0.2-0.4,0.4-0.8,0.7-1.1c0.3-0.4,0.6-0.7,1.1-1l0.2-0.1c0.1,0,0.1-0.1,0.2-0.1c0.2-0.1,0.2-0.1,0.3-0.1
			l0,0c0.1,0,0.1,0,0.1,0l0.1,0l0.2,0l0.3-0.1c0.4-0.1,0.9-0.1,1.3-0.1c0.1,0,0.2,0,0.3,0l0.3,0c0.2,0,0.4,0,0.7,0.1
			c0.4,0.1,0.9,0.1,1.3,0.3c1.7,0.5,3.2,1.4,4.5,2.6c1.3,1.1,2.5,2.4,3.5,3.9c0.3,0.3,0.5,0.7,0.7,1.1c0.3,0.4,0.5,0.7,0.7,1.1
			l0.3,0.6c0.1,0.2,0.2,0.3,0.3,0.5c0.1,0.2,0.2,0.3,0.4,0.5c0.1,0.2,0.2,0.3,0.4,0.5c1.1,1.2,2.4,2.3,3.7,3.4
			c1.4,1.1,2.7,2.1,4.1,3.2c0.7,0.5,1.3,1.1,1.9,1.7c0.6,0.6,1.2,1.2,1.7,1.9c0.5,0.7,1,1.4,1.3,2.2l0.2,0.6
			c0.1,0.2,0.1,0.4,0.2,0.6c0.1,0.2,0.1,0.4,0.2,0.6C61,60.8,61,61,61,61.2c0.1,0.4,0.1,0.8,0.1,1.3c0,0.4,0,0.8-0.1,1.3
			c-0.1,0.8-0.2,1.7-0.5,2.5c-0.2,0.8-0.5,1.6-0.9,2.3c-0.4,0.7-0.8,1.4-1.3,2.1c-0.5,0.6-1,1.2-1.6,1.8c-0.6,0.5-1.2,1-1.9,1.4
			c-0.7,0.4-1.4,0.7-2.1,1c-0.7,0.3-1.4,0.5-2.1,0.6c-0.7,0.2-1.4,0.2-2.1,0.3c-0.7,0-1.4,0-2.1-0.1c-0.3,0-0.7-0.1-1-0.2
			c-0.3-0.1-0.7-0.2-1-0.2c-0.1,0-0.3-0.1-0.4-0.1L43.8,75l-0.1,0c0,0,0,0,0,0l0,0l-0.1,0c-0.3-0.1-0.6-0.2-0.9-0.3
			c-1.1-0.5-2.1-1.1-3-1.7c-0.9-0.6-1.7-1.2-2.3-1.9c-0.2-0.2-0.3-0.3-0.5-0.5c-0.2-0.2-0.3-0.3-0.4-0.5c-0.3-0.3-0.6-0.6-0.8-0.9
			c-1-1.2-1.7-2.1-2.1-2.8c-0.2-0.3-0.4-0.6-0.5-0.8C32.9,65.5,32.9,65.5,32.9,65.5z"/>
		<g>
			<circle fill="#F2EC72" cx="57.6" cy="60.8" r="1.3"/>
			<path fill="#F8B3B8" d="M57,59.6C57,59.6,57,59.6,57,59.6c0.1-0.1,0.2-0.1,0.3-0.1c0.2-0.1,0.6-0.1,1,0.1
				c0.2,0.1,0.4,0.2,0.6,0.4c0,0.1,0.1,0.1,0.1,0.2c0,0.1,0.1,0.1,0.1,0.2c0.1,0.1,0.1,0.3,0.1,0.4c0,0.3,0,0.6-0.1,0.9
				c-0.1,0.3-0.4,0.5-0.7,0.7c-0.1,0-0.1,0.1-0.2,0.1c-0.1,0-0.2,0-0.3,0.1c-0.2,0-0.3,0-0.5,0c-0.3-0.1-0.6-0.2-0.8-0.4
				c-0.2-0.2-0.3-0.5-0.4-0.7c-0.1-0.3,0-0.5,0-0.7c0.1-0.4,0.3-0.7,0.5-0.8C56.8,59.7,56.9,59.6,57,59.6C57,59.6,57,59.6,57,59.6z
				 M57,59.6C57,59.6,57,59.6,57,59.6c-0.1,0.1-0.2,0.1-0.3,0.2c-0.1,0.1-0.2,0.2-0.2,0.3c-0.1,0.1-0.1,0.3-0.1,0.5
				c0,0.2,0.1,0.4,0.1,0.5c0.1,0.2,0.2,0.3,0.4,0.4c0.2,0.1,0.4,0.1,0.5,0.2c0.1,0,0.2,0,0.3,0c0,0,0.1,0,0.1,0c0,0,0.1,0,0.1-0.1
				c0.2-0.1,0.3-0.2,0.4-0.4c0.1-0.2,0.2-0.3,0.2-0.5c0-0.1,0-0.2,0-0.3c0,0,0-0.1,0-0.2c0,0,0-0.1,0-0.1c-0.1-0.2-0.2-0.3-0.3-0.5
				c-0.1-0.1-0.3-0.2-0.5-0.2c-0.2,0-0.3,0-0.4,0C57.2,59.5,57.1,59.5,57,59.6C57,59.6,57,59.6,57,59.6z"/>
		</g>
		<g>
			<circle fill="#F2EC72" cx="51.8" cy="60.3" r="0.4"/>
			<path fill="#F8B3B8" d="M52.2,60.2c0,0,0,0,0,0.1c0,0.1,0,0.2,0,0.3c0,0.1-0.1,0.2-0.1,0.2c0,0,0,0-0.1,0.1c0,0,0,0-0.1,0
				c-0.1,0-0.1,0.1-0.2,0.1c-0.1,0-0.3,0-0.4,0c-0.1-0.1-0.3-0.2-0.3-0.3c0-0.1,0,0,0-0.1c0-0.1,0-0.1,0-0.1c0-0.1,0-0.2,0-0.2
				c0-0.2,0.1-0.3,0.3-0.3c0.1-0.1,0.3-0.1,0.3-0.1c0.1,0,0.2,0,0.3,0.1c0.1,0.1,0.2,0.2,0.3,0.2C52.2,60.1,52.2,60.2,52.2,60.2z
				 M52.2,60.2C52.2,60.2,52.2,60.1,52.2,60.2C52.1,60,52,60,51.9,60c-0.1,0-0.1,0.1-0.1,0.1c0,0.1-0.1,0.1,0,0.1c0,0,0,0.1,0,0.1
				c0,0,0,0,0,0c0,0,0,0,0,0c0,0,0,0,0,0c0,0,0,0,0,0c0,0,0,0.1,0,0.1c0,0,0,0,0.1,0c0,0,0,0,0.1,0c0,0,0,0,0,0c0.1,0,0.1,0,0.2,0
				c0.1-0.1,0.1-0.2,0.1-0.3C52.2,60.2,52.2,60.2,52.2,60.2z"/>
		</g>
		<g>
			<circle fill="#F2EC72" cx="50.8" cy="69.1" r="1.3"/>
			<path fill="#F8B3B8" d="M51,67.9C51,67.9,51,67.9,51,67.9c0.1,0,0.2,0,0.3,0.1c0.2,0.1,0.5,0.2,0.7,0.6c0.1,0.2,0.2,0.4,0.2,0.6
				c0,0.1,0,0.1,0,0.2c0,0.1,0,0.1,0,0.2c0,0.1-0.1,0.3-0.1,0.4c-0.1,0.3-0.3,0.5-0.6,0.7c-0.1,0.1-0.3,0.1-0.4,0.2
				c-0.1,0-0.2,0-0.2,0c0,0-0.1,0-0.1,0l-0.1,0l0,0l0,0l0,0l0,0c-0.1,0-0.3-0.1-0.4-0.1c-0.1-0.1-0.3-0.2-0.4-0.3
				c-0.2-0.2-0.4-0.5-0.4-0.8c-0.1-0.3,0-0.6,0.1-0.8c0.1-0.2,0.2-0.4,0.4-0.6c0.3-0.3,0.6-0.4,0.8-0.4C50.7,67.9,50.8,67.9,51,67.9
				C50.9,67.9,51,67.9,51,67.9z M51,67.9C51,67.9,50.9,67.9,51,67.9c-0.1,0-0.2,0-0.3,0c-0.1,0-0.2,0.1-0.4,0.1
				c-0.1,0.1-0.3,0.2-0.3,0.3c-0.1,0.1-0.2,0.3-0.2,0.5c0,0.2,0,0.4,0.1,0.5c0.1,0.2,0.2,0.3,0.4,0.4c0.1,0,0.1,0.1,0.2,0.1
				c0.1,0,0.1,0,0.3,0.1c0,0,0,0,0,0l0,0l0,0l0,0l0,0l0,0c0,0,0,0,0.1,0c0,0,0.1,0,0.1,0c0.1,0,0.2,0,0.2-0.1
				c0.2-0.1,0.3-0.2,0.4-0.3c0.1-0.1,0.1-0.1,0.2-0.2c0,0,0-0.1,0.1-0.1c0,0,0-0.1,0-0.1c0-0.2,0-0.4,0-0.5
				c-0.1-0.2-0.2-0.3-0.3-0.4c-0.1-0.1-0.2-0.2-0.3-0.2C51.2,67.9,51.1,67.9,51,67.9C51,67.9,51,67.9,51,67.9z"/>
		</g>
		<g>
			<circle fill="#F2EC72" cx="46.6" cy="67.4" r="0.6"/>
			<path fill="#F8B3B8" d="M46,67.1c0,0,0-0.1,0.1-0.1c0.1-0.1,0.2-0.2,0.4-0.2c0.1,0,0.2,0,0.4,0c0,0,0.1,0,0.1,0c0,0,0,0,0.1,0
				c0.1,0,0.1,0.1,0.2,0.2c0.1,0.1,0.2,0.3,0.2,0.5c0,0.1,0,0.2,0,0.3c0,0,0,0.1,0,0.1c0,0,0,0,0,0.1l0,0l0,0l0,0l0,0
				c0,0-0.1,0.2-0.2,0.2c-0.1,0.1-0.2,0.1-0.3,0.1c-0.2,0.1-0.4,0-0.5,0c-0.2-0.1-0.3-0.2-0.4-0.3c-0.1-0.1-0.1-0.2-0.1-0.3
				c0-0.2,0-0.4,0.1-0.5C46,67.1,46,67.1,46,67.1z M46,67.1C46,67.1,46,67.1,46,67.1c0,0.1-0.1,0.1-0.1,0.2c0,0.1,0,0.3,0.1,0.4
				c0,0.1,0.1,0.1,0.2,0.1c0.1,0,0.2,0,0.2,0c0.1,0,0.1-0.1,0.2-0.1c0,0,0,0,0-0.1c0,0,0,0,0.1-0.1c0,0,0,0,0,0l0,0l0,0l0,0l0,0l0,0
				c0,0,0,0,0,0l0,0c0,0,0,0,0-0.1c0,0,0-0.1,0-0.2c0,0,0-0.1,0-0.1c0,0,0,0,0-0.1c0,0,0,0,0,0c-0.1-0.1-0.1-0.1-0.2-0.1
				c-0.2-0.1-0.3,0-0.4,0.1C46.1,67,46.1,67,46,67.1C46.1,67.1,46,67.1,46,67.1z"/>
		</g>
		<g>
			<circle fill="#F2EC72" cx="47.5" cy="58.5" r="1.7"/>
			<path fill="#F8B3B8" d="M46.7,56.9c0,0,0,0,0.1,0c0.1,0,0.2-0.1,0.3-0.1c0.3-0.1,0.7-0.1,1.2,0.1c0.2,0.1,0.5,0.3,0.7,0.5
				c0.1,0.1,0.1,0.1,0.1,0.2c0,0.1,0.1,0.1,0.1,0.2c0.1,0.2,0.1,0.3,0.1,0.5c0,0.2,0,0.4,0,0.6c0,0.2-0.1,0.4-0.2,0.6
				c-0.1,0.2-0.2,0.3-0.4,0.5c-0.1,0.1-0.2,0.1-0.2,0.2c0,0-0.1,0.1-0.1,0.1l-0.1,0l0,0l0,0l0,0l0,0c-0.1,0.1-0.4,0.2-0.6,0.2
				c-0.2,0-0.4,0-0.6,0c-0.2,0-0.4-0.1-0.6-0.2c-0.2-0.1-0.3-0.2-0.5-0.3c-0.3-0.3-0.4-0.6-0.5-0.9c-0.1-0.3-0.1-0.6,0-0.9
				c0.1-0.5,0.4-0.9,0.6-1.1c0.1-0.1,0.2-0.2,0.3-0.2C46.7,56.9,46.7,56.9,46.7,56.9z M46.7,56.9c0,0,0,0-0.1,0.1
				c-0.1,0-0.2,0.1-0.3,0.2c-0.1,0.1-0.2,0.2-0.3,0.4c-0.1,0.2-0.2,0.4-0.2,0.6c0,0.2,0,0.5,0.2,0.7c0.1,0.2,0.3,0.4,0.5,0.6
				c0.2,0.1,0.5,0.2,0.8,0.2c0.1,0,0.3,0,0.4,0c0.1,0,0.2-0.1,0.4-0.1c0,0,0,0,0,0l0,0l0,0l0,0l0,0l0,0c0,0,0.1,0,0.1-0.1
				c0.1,0,0.1-0.1,0.2-0.1c0.1-0.1,0.2-0.2,0.3-0.3c0.1-0.2,0.2-0.5,0.3-0.7c0-0.1,0-0.3,0-0.4c0-0.1,0-0.1-0.1-0.2
				c0,0,0-0.1-0.1-0.2c-0.1-0.2-0.3-0.4-0.5-0.6c-0.2-0.1-0.4-0.2-0.6-0.3c-0.2,0-0.4,0-0.5,0c-0.1,0-0.3,0.1-0.3,0.1
				C46.8,56.9,46.7,56.9,46.7,56.9z"/>
		</g>
		<g>
			<circle fill="#F2EC72" cx="38.2" cy="57.9" r="1.3"/>
			<path fill="#F8B3B8" d="M36.9,57.6C36.9,57.6,36.9,57.6,36.9,57.6c0-0.1,0.1-0.2,0.1-0.3c0.1-0.2,0.3-0.5,0.7-0.7
				c0.2-0.1,0.4-0.2,0.7-0.2c0.1,0,0.1,0,0.2,0c0.1,0,0.1,0,0.2,0c0.1,0,0.3,0.1,0.4,0.2c0.3,0.2,0.5,0.4,0.6,0.7
				c0.1,0.2,0.1,0.3,0.1,0.5c0,0.1,0,0.2,0,0.3c0,0,0,0.1,0,0.1l0,0.1l0,0l0,0l0,0l0,0c0,0.1-0.1,0.3-0.2,0.4
				c-0.1,0.1-0.2,0.3-0.3,0.4c-0.3,0.2-0.6,0.3-0.9,0.3c-0.3,0-0.6-0.1-0.8-0.2c-0.2-0.1-0.4-0.3-0.5-0.5c-0.2-0.3-0.3-0.7-0.3-0.9
				C36.9,57.9,36.9,57.8,36.9,57.6C36.9,57.6,36.9,57.6,36.9,57.6z M36.9,57.6C36.9,57.6,36.9,57.6,36.9,57.6c0,0.2,0,0.2,0,0.4
				c0,0.1,0,0.3,0.1,0.4c0.1,0.1,0.2,0.3,0.3,0.4c0.1,0.1,0.3,0.2,0.5,0.2c0.2,0,0.4,0,0.6,0c0.2-0.1,0.3-0.2,0.5-0.3
				c0.1-0.1,0.1-0.1,0.2-0.2c0-0.1,0.1-0.1,0.1-0.3c0,0,0,0,0,0l0,0l0,0l0,0l0,0l0,0c0,0,0,0,0-0.1c0,0,0-0.1,0-0.1
				c0-0.1,0-0.2,0-0.3c0-0.2-0.1-0.4-0.3-0.5c-0.1-0.1-0.1-0.1-0.2-0.2c0,0-0.1-0.1-0.1-0.1c0,0-0.1,0-0.1-0.1
				c-0.2-0.1-0.4-0.1-0.6,0c-0.2,0-0.3,0.1-0.5,0.2c-0.1,0.1-0.2,0.2-0.3,0.3C37,57.4,37,57.5,36.9,57.6
				C36.9,57.6,36.9,57.6,36.9,57.6z"/>
		</g>
		<g>
			<circle fill="#F2EC72" cx="38.6" cy="66.9" r="2.3"/>
			<path fill="#F8B3B8" d="M36.8,65.6c0,0,0,0,0.1-0.1c0.1-0.1,0.2-0.2,0.3-0.3c0.3-0.3,0.8-0.6,1.5-0.6c0.3,0,0.7,0,1.1,0.2
				c0.1,0,0.2,0.1,0.3,0.2c0.1,0.1,0.2,0.1,0.3,0.2c0.2,0.1,0.3,0.3,0.5,0.5c0.1,0.2,0.2,0.4,0.3,0.6c0.1,0.2,0.1,0.5,0.1,0.7
				c0,0.3,0,0.5-0.1,0.8c0,0.1-0.1,0.2-0.1,0.4c0,0.1-0.1,0.1-0.1,0.2l-0.1,0.1l0,0l0,0l0,0l0,0l0,0c-0.1,0.2-0.3,0.4-0.5,0.5
				c-0.2,0.2-0.4,0.3-0.7,0.4c-0.2,0.1-0.5,0.1-0.7,0.1c-0.2,0-0.5,0-0.7-0.1c-0.5-0.1-0.8-0.4-1.1-0.7c-0.3-0.3-0.5-0.6-0.6-1
				c-0.2-0.7-0.1-1.2,0.1-1.6c0.1-0.2,0.1-0.3,0.2-0.4C36.7,65.6,36.8,65.6,36.8,65.6z M36.8,65.6c0,0,0,0-0.1,0.1
				c0,0-0.1,0.1-0.1,0.2c0,0.1-0.1,0.1-0.1,0.2c-0.1,0.2-0.1,0.4-0.1,0.7c0,0.3,0.1,0.6,0.2,0.9c0.1,0.3,0.4,0.6,0.6,0.8
				c0.3,0.2,0.6,0.3,1,0.4c0.4,0,0.7,0,1.1-0.2c0.2-0.1,0.3-0.2,0.5-0.3c0.1-0.1,0.2-0.2,0.4-0.4c0,0,0,0,0,0l0,0l0,0l0,0l0,0l0-0.1
				c0,0,0-0.1,0.1-0.1c0-0.1,0.1-0.2,0.1-0.2c0.1-0.2,0.1-0.4,0.1-0.5c0-0.4,0-0.7-0.2-1.1c-0.1-0.2-0.2-0.3-0.3-0.4
				c0-0.1-0.1-0.1-0.2-0.2c-0.1-0.1-0.1-0.1-0.2-0.2c-0.3-0.2-0.6-0.3-0.9-0.3c-0.3,0-0.6,0-0.9,0.1c-0.3,0.1-0.5,0.2-0.6,0.3
				c-0.1,0.1-0.1,0.1-0.2,0.2c-0.1,0.1-0.1,0.1-0.1,0.1C36.8,65.5,36.8,65.6,36.8,65.6z"/>
		</g>
		<g>
			<circle fill="#F2EC72" cx="43.5" cy="52" r="1.8"/>
			<path fill="#F8B3B8" d="M41.8,51.4c0,0,0,0,0-0.1c0-0.1,0.1-0.2,0.2-0.3c0.2-0.3,0.5-0.6,1-0.8c0.3-0.1,0.6-0.1,0.9-0.1
				c0.1,0,0.2,0,0.3,0c0.1,0,0.1,0,0.2,0.1c0.2,0.1,0.3,0.2,0.5,0.3c0.2,0.1,0.3,0.3,0.4,0.4c0.1,0.2,0.2,0.3,0.3,0.5
				c0.1,0.4,0.1,0.8,0,1.2c0,0.1-0.1,0.2-0.1,0.3c-0.1,0.1-0.1,0.2-0.2,0.3c-0.1,0.2-0.3,0.3-0.4,0.4c-0.2,0.1-0.4,0.2-0.5,0.3
				C44.1,54,43.9,54,43.7,54c-0.4,0-0.7-0.1-1-0.3c-0.3-0.2-0.5-0.4-0.7-0.6c-0.3-0.5-0.3-0.9-0.3-1.2c0-0.2,0-0.3,0.1-0.3
				C41.8,51.5,41.8,51.4,41.8,51.4z M41.8,51.4c0,0,0,0,0,0.1c0,0.1,0,0.2,0,0.3c0,0.2,0,0.3,0.1,0.5c0.1,0.2,0.2,0.4,0.4,0.6
				c0.2,0.2,0.4,0.3,0.7,0.4c0.3,0.1,0.5,0.1,0.8,0c0.3-0.1,0.5-0.2,0.7-0.4c0.1-0.1,0.2-0.2,0.3-0.3c0-0.1,0.1-0.1,0.1-0.2
				c0,0,0.1-0.2,0.1-0.2c0.1-0.3,0.1-0.5,0-0.8c-0.1-0.3-0.2-0.5-0.4-0.7c-0.1-0.1-0.2-0.2-0.3-0.3c0,0-0.1-0.1-0.2-0.1
				c0,0-0.1-0.1-0.2-0.1c-0.3-0.1-0.5-0.1-0.8-0.1c-0.2,0-0.5,0.1-0.6,0.3c-0.2,0.1-0.3,0.3-0.4,0.4c-0.1,0.1-0.1,0.2-0.2,0.3
				C41.8,51.4,41.8,51.4,41.8,51.4z"/>
		</g>
		<g>
			<circle fill="#F2EC72" cx="36.3" cy="49.3" r="1"/>
			<path fill="#F8B3B8" d="M36.6,48.4C36.6,48.4,36.6,48.4,36.6,48.4c0.1,0,0.2,0.1,0.2,0.1c0.1,0.1,0.3,0.2,0.5,0.5
				c0.1,0.1,0.1,0.3,0.1,0.5c0,0.1,0,0.1,0,0.2c0,0,0,0.1,0,0.1c0,0.1-0.1,0.2-0.1,0.3c-0.1,0.2-0.3,0.4-0.6,0.5
				c-0.1,0-0.3,0.1-0.4,0.1c-0.1,0-0.1,0-0.2,0c0,0-0.1,0-0.1,0l0,0l0,0l0,0l0,0l0,0c-0.1,0-0.2-0.1-0.3-0.2
				c-0.1-0.1-0.2-0.2-0.3-0.3C35.1,50,35,49.7,35,49.5c0-0.2,0.1-0.5,0.2-0.6c0.1-0.2,0.3-0.3,0.4-0.4c0.3-0.2,0.5-0.2,0.7-0.1
				C36.4,48.4,36.5,48.4,36.6,48.4C36.6,48.4,36.6,48.4,36.6,48.4z M36.6,48.4C36.6,48.4,36.6,48.4,36.6,48.4c-0.1,0-0.2,0-0.3,0
				c-0.1,0-0.2,0-0.3,0.1c-0.1,0-0.2,0.1-0.3,0.2c-0.1,0.1-0.2,0.2-0.2,0.4c0,0.2,0,0.3,0,0.4c0,0.1,0.1,0.2,0.2,0.3
				c0,0,0.1,0.1,0.1,0.1c0.1,0,0.1,0,0.2,0.1c0,0,0,0,0,0l0,0l0,0l0,0l0,0l0,0c0,0,0,0,0,0c0,0,0.1,0,0.1,0c0.1,0,0.1,0,0.2,0
				c0.1,0,0.2-0.1,0.4-0.1c0.1,0,0.1-0.1,0.1-0.1c0,0,0-0.1,0.1-0.1c0,0,0-0.1,0-0.1c0.1-0.1,0.1-0.3,0.1-0.4c0-0.1-0.1-0.3-0.1-0.3
				c-0.1-0.1-0.1-0.2-0.2-0.2C36.8,48.5,36.7,48.5,36.6,48.4C36.6,48.4,36.6,48.4,36.6,48.4z"/>
		</g>
		<g>
			<circle fill="#F2EC72" cx="37.9" cy="41.5" r="0.4"/>
			<path fill="#F8B3B8" d="M37.7,41.2c0,0,0,0,0.1,0c0.1,0,0.2,0,0.3,0c0.1,0,0.2,0,0.2,0.1c0,0,0,0,0.1,0.1c0,0,0,0,0,0.1
				c0,0.1,0.1,0.1,0.1,0.2c0,0.1,0,0.3,0,0.4c-0.1,0.1-0.2,0.3-0.3,0.3c-0.1,0,0,0-0.1,0c-0.1,0-0.1,0-0.1,0c-0.1,0-0.2,0-0.2,0
				c-0.1,0-0.3-0.1-0.3-0.2c-0.1-0.1-0.1-0.2-0.1-0.3c0-0.1,0-0.2,0.1-0.3C37.5,41.3,37.6,41.3,37.7,41.2
				C37.7,41.2,37.7,41.2,37.7,41.2z M37.7,41.2C37.7,41.2,37.7,41.2,37.7,41.2c-0.1,0.1-0.2,0.2-0.1,0.3c0,0,0.1,0.1,0.1,0.1
				c0.1,0,0.1,0,0.1,0c0,0,0.1,0,0.1-0.1c0,0,0,0,0,0c0,0,0,0,0,0c0,0,0,0,0,0c0,0,0,0,0,0c0,0,0.1,0,0.1,0c0,0,0,0,0,0c0,0,0,0,0,0
				c0,0,0,0,0,0c0-0.1,0-0.1,0-0.2c-0.1-0.1-0.2-0.1-0.2-0.1C37.8,41.2,37.7,41.2,37.7,41.2z"/>
		</g>
		<g>
			<circle fill="#F2EC72" cx="32.8" cy="44.5" r="1.1"/>
			<path fill="#F8B3B8" d="M32.3,43.5C32.3,43.5,32.4,43.5,32.3,43.5c0.1-0.1,0.2-0.1,0.3-0.1c0.2,0,0.5-0.1,0.8,0.1
				c0.2,0.1,0.3,0.2,0.5,0.3c0,0,0.1,0.1,0.1,0.1c0,0,0.1,0.1,0.1,0.1c0.1,0.1,0.1,0.2,0.1,0.4c0,0.3,0,0.5-0.1,0.8
				c-0.1,0.3-0.3,0.5-0.6,0.6c-0.1,0-0.1,0-0.2,0.1c-0.1,0-0.2,0-0.2,0.1c-0.1,0-0.3,0-0.4,0c-0.3-0.1-0.5-0.2-0.7-0.4
				c-0.2-0.2-0.3-0.4-0.3-0.6c0-0.2,0-0.4,0-0.6c0.1-0.3,0.3-0.6,0.4-0.7C32.1,43.6,32.2,43.6,32.3,43.5
				C32.3,43.5,32.3,43.5,32.3,43.5z M32.3,43.5C32.3,43.5,32.3,43.5,32.3,43.5c-0.1,0.1-0.2,0.1-0.2,0.2c-0.1,0.1-0.1,0.2-0.2,0.3
				c-0.1,0.1-0.1,0.3-0.1,0.4c0,0.1,0.1,0.3,0.1,0.4c0.1,0.2,0.2,0.3,0.4,0.3c0.1,0.1,0.3,0.1,0.4,0.1c0.1,0,0.1,0,0.2,0
				c0,0,0.1,0,0.1,0c0,0,0.1,0,0.1,0c0.1-0.1,0.2-0.2,0.3-0.3c0.1-0.1,0.2-0.3,0.2-0.4c0-0.1,0-0.2,0-0.2c0,0,0-0.1,0-0.1
				c0,0,0-0.1,0-0.1c-0.1-0.2-0.2-0.3-0.3-0.4c-0.1-0.1-0.3-0.2-0.4-0.2c-0.1,0-0.2,0-0.3,0C32.5,43.4,32.4,43.5,32.3,43.5
				C32.4,43.5,32.3,43.5,32.3,43.5z"/>
		</g>
		<g>
			<circle fill="#F2EC72" cx="38.1" cy="52.7" r="0.6"/>
			<path fill="#F8B3B8" d="M37.8,52.1c0,0,0.1,0,0.2-0.1c0.1,0,0.3-0.1,0.5,0c0.1,0,0.2,0.1,0.3,0.2c0,0,0,0,0.1,0.1
				c0,0,0,0,0.1,0.1c0,0.1,0.1,0.1,0.1,0.2c0,0.2,0,0.4,0,0.5c-0.1,0.2-0.2,0.3-0.4,0.4c-0.1,0-0.1,0-0.1,0.1c-0.1,0-0.1,0-0.2,0
				c-0.1,0-0.2,0-0.3,0c-0.2,0-0.3-0.2-0.5-0.3c-0.1-0.1-0.2-0.3-0.2-0.4c0-0.2,0-0.3,0-0.4c0.1-0.2,0.2-0.3,0.3-0.4
				C37.7,52.1,37.8,52.1,37.8,52.1z M37.8,52.1C37.8,52.1,37.8,52.1,37.8,52.1c-0.1,0-0.1,0.1-0.1,0.1c-0.1,0.1-0.2,0.2-0.1,0.4
				c0,0.1,0.1,0.2,0.1,0.2c0.1,0.1,0.1,0.1,0.2,0.1c0.1,0,0.1,0,0.2,0c0,0,0,0,0.1,0c0,0,0,0,0,0c0,0,0.1,0,0,0c0,0,0.1,0,0.1-0.1
				c0,0,0.1-0.1,0.1-0.1c0,0,0-0.1,0-0.1c0,0,0,0,0-0.1c0,0,0,0,0-0.1c0-0.1,0-0.2-0.1-0.2c-0.1-0.1-0.3-0.2-0.4-0.1
				C37.9,52.1,37.9,52.1,37.8,52.1C37.8,52.1,37.8,52.1,37.8,52.1z"/>
		</g>
		<g>
			<circle fill="#F2EC72" cx="34.3" cy="60.7" r="0.3"/>
			<path fill="#F8B3B8" d="M34.2,60.5C34.2,60.5,34.2,60.5,34.2,60.5c0.1,0,0.2-0.1,0.3-0.1c0.1,0,0.1,0,0.2,0.1c0,0,0,0,0.1,0
				c0,0,0,0,0,0c0,0,0.1,0.1,0.1,0.1c0,0.1,0,0.2,0,0.3c0,0.1-0.1,0.2-0.3,0.3c-0.1,0,0,0-0.1,0c0,0-0.1,0-0.1,0c-0.1,0-0.1,0-0.2,0
				c-0.1,0-0.2-0.1-0.3-0.2c-0.1-0.1-0.1-0.2-0.1-0.3c0-0.1,0-0.2,0.1-0.2C34,60.6,34.1,60.6,34.2,60.5
				C34.2,60.5,34.2,60.5,34.2,60.5z M34.2,60.5C34.2,60.5,34.2,60.5,34.2,60.5c-0.1,0.1-0.1,0.2-0.1,0.2c0,0,0.1,0.1,0.1,0
				c0,0,0.1,0,0.1,0c0,0,0-0.1,0-0.1c0,0,0,0,0,0c0,0,0,0,0,0c0,0,0,0,0,0c0,0,0,0,0,0.1c0,0,0,0,0.1,0.1c0,0,0,0,0.1,0c0,0,0,0,0,0
				c0,0,0,0,0,0c0,0,0-0.1,0-0.1C34.4,60.5,34.3,60.5,34.2,60.5C34.2,60.5,34.2,60.5,34.2,60.5z"/>
		</g>
		<g>
			<circle fill="#F2EC72" cx="43.1" cy="61.8" r="0.4"/>
			<path fill="#F8B3B8" d="M42.9,61.4C42.9,61.4,42.9,61.4,42.9,61.4c0.1-0.1,0.2-0.1,0.4-0.1c0.1,0,0.1,0,0.2,0.1c0,0,0,0,0.1,0.1
				c0,0,0,0,0,0c0,0.1,0.1,0.1,0.1,0.2c0,0.1,0,0.3,0,0.4c0,0.1-0.1,0.1-0.1,0.2c0,0-0.1,0.1-0.1,0.1c0,0,0,0,0,0l0,0l0,0l0,0
				c0,0-0.1,0.1-0.2,0.1c-0.1,0-0.1,0-0.2,0c-0.1,0-0.2-0.1-0.3-0.2c-0.1-0.1-0.1-0.2-0.1-0.3c0-0.1,0-0.2,0.1-0.2
				C42.7,61.6,42.8,61.5,42.9,61.4C42.9,61.4,42.9,61.4,42.9,61.4z M42.9,61.4C42.9,61.4,42.9,61.4,42.9,61.4
				c-0.1,0.1-0.1,0.2-0.1,0.3c0,0,0.1,0.1,0.1,0.1c0,0,0.1,0,0.1,0c0,0,0,0,0-0.1c0,0,0,0,0,0c0,0-0.1,0,0,0l0,0l0,0l0,0
				c0,0,0,0,0,0c0,0,0,0,0,0c0,0,0,0,0.1,0c0,0,0,0,0.1,0c0,0,0,0,0,0c0,0,0,0,0,0c0,0,0-0.1,0-0.1C43.1,61.4,43.1,61.4,42.9,61.4
				C42.9,61.4,42.9,61.4,42.9,61.4z"/>
		</g>
		<g>
			<circle fill="#F2EC72" cx="49.9" cy="53.7" r="0.3"/>
			<path fill="#F8B3B8" d="M49.7,53.4C49.7,53.4,49.8,53.4,49.7,53.4c0.1,0,0.2-0.1,0.3-0.1c0.1,0,0.1,0,0.2,0.1c0,0,0,0,0.1,0
				c0,0,0,0,0,0c0,0.1,0.1,0.1,0.1,0.1c0,0.1,0,0.2,0,0.4c0,0.1-0.1,0.2-0.3,0.3c-0.1,0,0,0-0.1,0c0,0-0.1,0-0.1,0
				c-0.1,0-0.1,0-0.2,0c-0.1,0-0.2-0.1-0.3-0.2c-0.1-0.1-0.1-0.2-0.1-0.3c0-0.1,0-0.2,0.1-0.2C49.6,53.5,49.6,53.5,49.7,53.4
				C49.7,53.4,49.7,53.4,49.7,53.4z M49.7,53.4C49.7,53.4,49.7,53.4,49.7,53.4c-0.1,0.1-0.1,0.2-0.1,0.2c0,0,0.1,0.1,0.1,0.1
				c0,0,0.1,0,0.1,0c0,0,0-0.1,0-0.1c0,0,0,0,0,0c0,0,0,0,0,0c0,0,0,0,0,0c0,0,0,0,0,0.1c0,0,0,0,0.1,0c0,0,0,0,0.1,0c0,0,0,0,0,0
				c0,0,0,0,0,0c0,0,0-0.1,0-0.1C50,53.4,49.9,53.4,49.7,53.4C49.8,53.4,49.7,53.4,49.7,53.4z"/>
		</g>
		<g>
			<circle fill="#F2EC72" cx="42.2" cy="46" r="0.6"/>
			<path fill="#F8B3B8" d="M41.8,46.4c0,0,0,0-0.1-0.1c-0.1-0.1-0.1-0.2-0.2-0.4c0-0.1,0-0.2,0-0.3c0,0,0-0.1,0-0.1c0,0,0,0,0-0.1
				c0.1-0.1,0.1-0.1,0.2-0.2c0.1-0.1,0.3-0.1,0.5-0.1c0.2,0,0.4,0.1,0.5,0.2c0.1,0.1,0,0,0.1,0.1c0,0,0.1,0.1,0.1,0.1
				c0,0.1,0.1,0.2,0.1,0.3c0,0.2,0,0.4-0.1,0.5c-0.1,0.1-0.2,0.2-0.3,0.3c-0.1,0.1-0.2,0.1-0.3,0.1c-0.2,0-0.3-0.1-0.4-0.1
				C41.8,46.5,41.8,46.4,41.8,46.4z M41.8,46.4C41.8,46.4,41.8,46.4,41.8,46.4c0.1,0,0.1,0.1,0.1,0.1c0.1,0,0.2,0.1,0.4,0
				c0.1,0,0.1-0.1,0.1-0.2c0-0.1,0-0.1,0-0.2c0-0.1,0-0.1-0.1-0.1l0,0c0,0,0,0,0,0c0,0,0,0,0,0c0,0,0,0-0.1-0.1c0,0-0.1-0.1-0.1-0.1
				c0,0-0.1,0-0.1,0c0,0,0,0-0.1,0c0,0,0,0,0,0c-0.1,0-0.1,0.1-0.2,0.2c-0.1,0.1,0,0.3,0,0.4C41.7,46.4,41.7,46.4,41.8,46.4
				C41.7,46.4,41.8,46.4,41.8,46.4z"/>
		</g>
		<g>
			<circle fill="#F2EC72" cx="43.8" cy="70.2" r="0.3"/>
			<path fill="#F8B3B8" d="M43.6,70.2C43.6,70.2,43.5,70.2,43.6,70.2c0-0.1,0-0.2,0-0.3c0-0.1,0-0.1,0.1-0.2c0,0,0,0,0.1,0
				c0,0,0,0,0,0c0.1,0,0.1,0,0.1-0.1c0.1,0,0.2,0,0.3,0.1c0.1,0.1,0.2,0.2,0.2,0.3c0,0.1,0,0,0,0.1c0,0,0,0.1,0,0.1
				c0,0.1,0,0.1-0.1,0.2c-0.1,0.1-0.2,0.2-0.3,0.2c-0.1,0-0.2,0-0.3,0c-0.1,0-0.1-0.1-0.2-0.1C43.6,70.4,43.6,70.3,43.6,70.2
				C43.6,70.3,43.6,70.2,43.6,70.2z M43.7,70.2C43.7,70.2,43.7,70.2,43.7,70.2C43.7,70.2,43.7,70.2,43.7,70.2c0.1,0,0.1,0,0.1,0
				c0,0,0,0,0-0.1c0,0,0,0,0,0c0,0,0,0,0,0c0,0-0.1,0-0.1,0c-0.1,0-0.1,0.1-0.1,0.1c0,0,0,0.1,0,0.1c0,0,0,0,0,0.1
				c0,0,0.1,0.1,0.2,0c0,0,0.1,0,0.1-0.1c0,0,0-0.1,0-0.1C43.8,70.1,43.7,70.1,43.7,70.2"/>
		</g>
	</g>
</g>
<g id="virus-text">
	<g>
		<path fill="#F9C53D" d="M42.9,90.5V70.4h4l2.9,15.4l2.9-15.4h4v20.1h-2.9V74.6l-2.9,15.9h-2.2l-2.9-15.9v15.9H42.9z"/>
		<path fill="#F9C53D" d="M64.6,90.7c-1,0-1.9-0.2-2.6-0.5c-0.7-0.3-1.3-0.8-1.7-1.3c-0.4-0.6-0.7-1.3-0.9-2.1
			c-0.2-0.8-0.3-1.7-0.3-2.8v-7.3c0-1.1,0.1-2,0.3-2.8s0.5-1.5,0.9-2s1-1,1.7-1.3c0.7-0.3,1.6-0.4,2.6-0.4c2,0,3.4,0.6,4.2,1.7
			c0.9,1.1,1.3,2.7,1.3,4.9v7.3c0,1-0.1,2-0.3,2.8c-0.2,0.8-0.5,1.5-0.9,2.1c-0.4,0.6-1,1-1.7,1.4C66.5,90.6,65.6,90.7,64.6,90.7z
			 M62.6,87.5c0.4,0.6,1.1,0.9,2.1,0.9c1,0,1.7-0.3,2.1-0.9c0.4-0.6,0.6-1.5,0.6-2.7V76c0-1.2-0.2-2-0.6-2.6
			c-0.4-0.6-1.1-0.9-2.1-0.9c-1,0-1.7,0.3-2.1,0.9C62.2,74,62,74.9,62,76v8.7C62,86,62.2,86.9,62.6,87.5z"/>
		<path fill="#F9C53D" d="M72.7,90.5V70.4h2.2l5,12.4V70.4h2.9v20.1h-2l-5.1-13.4v13.4H72.7z"/>
		<path fill="#F9C53D" d="M85.6,90.5V70.4h7.9v2.2h-5V79h3.6v2.2h-3.6v7.2h5v2.2H85.6z"/>
		<path fill="#F9C53D" d="M95.3,90.5V70.4h3.6c2.1,0,3.8,0.4,4.8,1.2c1.1,0.8,1.6,2.2,1.6,4.1c0,1.2-0.2,2.2-0.6,3s-1.1,1.4-1.9,1.7
			l3.2,10.1h-2.9l-2.9-9.3h-2.2v9.3H95.3z M98.2,79h0.7c1.2,0,2.1-0.3,2.7-0.8c0.6-0.5,0.9-1.3,0.9-2.5s-0.3-2-0.9-2.5
			c-0.6-0.5-1.5-0.8-2.7-0.8h-0.7V79z"/>
		<path fill="#F9C53D" d="M106.5,90.5l4.3-20.1h2.9l4.3,20.1h-2.9l-1.1-5h-3.6l-1.1,5H106.5z M110.8,83.3h2.9l-1.4-8.6L110.8,83.3z"
			/>
		<path fill="#FFFFFF" d="M51.4,122.5v-7.6h-8.5v-4.7l7.4-17.4h5.3v18.1h3.3v4h-3.3v7.6H51.4z M47.1,110.9h4.2V98.1L47.1,110.9z"/>
		<path fill="#FFFFFF" d="M61.9,126.8l-1.1-2.1c0.8,0,1.3-0.2,1.6-0.5s0.5-0.9,0.5-1.6h-2.1v-4.2H65c0,1.6,0,2.9,0,4
			c0,0.6-0.1,1.1-0.1,1.5c0,0.4-0.1,0.8-0.3,1.2c-0.1,0.4-0.3,0.7-0.5,1c-0.2,0.2-0.5,0.4-0.9,0.6S62.4,126.8,61.9,126.8z"/>
		<path fill="#FFFFFF" d="M74.8,122.8c-2.6,0-4.5-0.8-5.7-2.3c-1.2-1.5-1.8-3.7-1.8-6.5c0-1.8,0.3-3.3,0.8-4.5
			c0.5-1.1,1.3-2,2.5-2.8c-1-0.7-1.7-1.6-2.1-2.7c-0.5-1.1-0.7-2.4-0.7-4c0-2.5,0.6-4.4,1.8-5.7c1.2-1.4,2.9-2,5.3-2
			c2.3,0,4.1,0.7,5.2,2c1.2,1.4,1.8,3.3,1.8,5.7c0,1.6-0.2,2.9-0.7,4c-0.4,1-1.1,1.9-2.1,2.6c1.1,0.7,1.9,1.7,2.4,2.8
			c0.5,1.1,0.8,2.6,0.8,4.4c0,2.8-0.6,5-1.8,6.5C79.3,122.1,77.4,122.8,74.8,122.8z M73.4,119c0.4,0.2,0.9,0.3,1.4,0.3
			c0.6,0,1-0.1,1.4-0.3s0.7-0.4,0.9-0.7c0.2-0.3,0.4-0.7,0.5-1.2c0.1-0.5,0.2-1,0.2-1.4s0-1,0-1.6c0-0.7,0-1.3-0.1-1.9
			c-0.1-0.6-0.2-1.1-0.5-1.6c-0.2-0.5-0.5-0.9-1-1.2s-1-0.4-1.6-0.4s-1.2,0.1-1.6,0.4s-0.8,0.7-1,1.2c-0.2,0.5-0.4,1-0.5,1.6
			c-0.1,0.6-0.1,1.2-0.1,1.9c0,0.6,0,1.2,0.1,1.7c0,0.5,0.1,0.9,0.2,1.4c0.1,0.5,0.3,0.9,0.5,1.2S73,118.9,73.4,119z M74.8,104.9
			c0.6,0,1-0.1,1.4-0.4s0.6-0.6,0.8-1.1c0.2-0.5,0.3-1,0.4-1.5s0.1-1.1,0.1-1.7c0-2.8-0.9-4.2-2.7-4.2c-1.8,0-2.7,1.4-2.7,4.2
			c0,0.7,0,1.2,0.1,1.7c0.1,0.5,0.2,1,0.4,1.5c0.2,0.5,0.5,0.8,0.8,1.1S74.3,104.9,74.8,104.9z"/>
		<path fill="#FFFFFF" d="M92.3,122.8c-1.6,0-3-0.4-4.1-1.1s-2-1.8-2.5-3.1c-0.5-1.3-0.8-2.8-0.8-4.6v-12.8c0-2.7,0.6-4.9,1.9-6.4
			c1.2-1.6,3.1-2.3,5.6-2.3c2.5,0,4.3,0.8,5.6,2.4s1.9,3.7,1.9,6.4V114c0,2.7-0.6,4.8-1.9,6.4C96.6,122,94.8,122.8,92.3,122.8z
			 M92.3,119.3c2.1,0,3.2-1.8,3.2-5.3v-12.8c0-0.6,0-1.1-0.1-1.6c0-0.5-0.1-0.9-0.3-1.4c-0.1-0.5-0.3-0.9-0.5-1.2s-0.5-0.6-0.9-0.8
			c-0.4-0.2-0.8-0.3-1.4-0.3s-1,0.1-1.4,0.3c-0.4,0.2-0.7,0.5-0.9,0.8s-0.4,0.7-0.5,1.2c-0.1,0.5-0.2,1-0.3,1.4c0,0.5-0.1,1-0.1,1.6
			V114c0,0.7,0,1.3,0.1,1.9s0.3,1.1,0.5,1.7s0.6,0.9,1,1.3C91.2,119.2,91.7,119.3,92.3,119.3z"/>
		<path fill="#FFFFFF" d="M110.4,122.8c-1.6,0-3-0.4-4.1-1.1s-2-1.8-2.5-3.1c-0.5-1.3-0.8-2.8-0.8-4.6v-12.8c0-2.7,0.6-4.9,1.9-6.4
			c1.2-1.6,3.1-2.3,5.6-2.3c2.5,0,4.3,0.8,5.6,2.4s1.9,3.7,1.9,6.4V114c0,2.7-0.6,4.8-1.9,6.4C114.7,122,112.8,122.8,110.4,122.8z
			 M110.4,119.3c2.1,0,3.2-1.8,3.2-5.3v-12.8c0-0.6,0-1.1-0.1-1.6c0-0.5-0.1-0.9-0.3-1.4c-0.1-0.5-0.3-0.9-0.5-1.2s-0.5-0.6-0.9-0.8
			c-0.4-0.2-0.8-0.3-1.4-0.3s-1,0.1-1.4,0.3c-0.4,0.2-0.7,0.5-0.9,0.8s-0.4,0.7-0.5,1.2c-0.1,0.5-0.2,1-0.3,1.4c0,0.5-0.1,1-0.1,1.6
			V114c0,0.7,0,1.3,0.1,1.9s0.3,1.1,0.5,1.7s0.6,0.9,1,1.3C109.3,119.2,109.8,119.3,110.4,119.3z"/>
	</g>
	<g>
		<path fill="#F9C53D" d="M43.8,25.9L39.5,5.8h2.9l2.1,10.8l0.7,5l0.8-5l2.1-10.8H51l-4.3,20.1H43.8z"/>
		<path fill="#F9C53D" d="M52.7,25.9V5.8h2.9v20.1H52.7z"/>
		<path fill="#F9C53D" d="M58.7,25.9V5.8h3.6c2.1,0,3.8,0.4,4.8,1.2c1.1,0.8,1.6,2.2,1.6,4.1c0,1.2-0.2,2.2-0.6,3
			c-0.4,0.8-1.1,1.4-1.9,1.7l3.2,10.1h-2.9l-2.9-9.3h-2.2v9.3H58.7z M61.5,14.4h0.7c1.2,0,2.1-0.3,2.7-0.8c0.6-0.5,0.9-1.3,0.9-2.5
			s-0.3-2-0.9-2.5c-0.6-0.5-1.5-0.8-2.7-0.8h-0.7V14.4z"/>
		<path fill="#F9C53D" d="M78.9,25.8c-0.7,0.2-1.4,0.3-2.3,0.3s-1.6-0.1-2.3-0.3s-1.2-0.6-1.6-1c-0.4-0.4-0.8-0.9-1-1.6
			s-0.5-1.3-0.6-2c-0.1-0.7-0.2-1.6-0.2-2.5V5.8h2.9v12.9c0,0.6,0,1.1,0,1.6c0,0.4,0.1,0.9,0.2,1.3s0.3,0.9,0.5,1.1s0.5,0.5,0.8,0.7
			c0.4,0.2,0.8,0.3,1.3,0.3s1-0.1,1.3-0.3c0.4-0.2,0.6-0.4,0.8-0.7s0.4-0.7,0.5-1.1s0.2-0.9,0.2-1.3c0-0.4,0-0.9,0-1.6V5.8h2.9v12.9
			c0,0.9-0.1,1.7-0.2,2.5c-0.1,0.7-0.3,1.4-0.6,2s-0.6,1.2-1,1.6C80.1,25.2,79.6,25.5,78.9,25.8z"/>
		<path fill="#F9C53D" d="M90.3,26.1c-1.8,0-3.2-0.5-4.1-1.6c-1-1.1-1.5-2.5-1.6-4.4l2.9-0.7c0.1,2.9,1.1,4.3,2.9,4.3
			c1.4,0,2.2-0.7,2.2-2.2c0-0.4-0.1-0.8-0.2-1.2s-0.3-0.7-0.5-1c-0.2-0.3-0.5-0.5-0.7-0.7s-0.5-0.4-0.8-0.7l-3.6-2.9
			c-0.7-0.5-1.2-1.2-1.6-2c-0.4-0.8-0.6-1.7-0.6-2.7c0-1.5,0.5-2.7,1.4-3.5C86.8,6,88,5.6,89.6,5.6c1.6,0,2.9,0.4,3.9,1.2
			c1,0.8,1.6,1.9,1.8,3.4c0,0.2,0,0.4,0.1,0.7l-2.9,0.7c0-0.1,0-0.3-0.1-0.6C92.3,10,92,9.3,91.5,8.8c-0.4-0.5-1.1-0.8-2-0.8
			c-0.7,0-1.2,0.2-1.6,0.6c-0.4,0.4-0.6,0.9-0.6,1.6c0,1.1,0.5,2.1,1.4,2.8l3.6,2.9c1.9,1.5,2.9,3.4,2.9,5.6c0,1.5-0.5,2.6-1.4,3.5
			C93,25.7,91.8,26.1,90.3,26.1z"/>
		<path fill="#F9C53D" d="M97.4,25.9V5.8h7.9v2.2h-5v6.5h3.6v2.2h-3.6v7.2h5v2.2H97.4z"/>
		<path fill="#F9C53D" d="M112.3,26.1c-1.8,0-3.2-0.5-4.1-1.6c-1-1.1-1.5-2.5-1.6-4.4l2.9-0.7c0.1,2.9,1.1,4.3,2.9,4.3
			c1.4,0,2.2-0.7,2.2-2.2c0-0.4-0.1-0.8-0.2-1.2s-0.3-0.7-0.5-1c-0.2-0.3-0.5-0.5-0.7-0.7s-0.5-0.4-0.8-0.7l-3.6-2.9
			c-0.7-0.5-1.2-1.2-1.6-2c-0.4-0.8-0.6-1.7-0.6-2.7c0-1.5,0.5-2.7,1.4-3.5c0.9-0.9,2.1-1.3,3.7-1.3c1.6,0,2.9,0.4,3.9,1.2
			c1,0.8,1.6,1.9,1.8,3.4c0,0.2,0,0.4,0.1,0.7l-2.9,0.7c0-0.1,0-0.3-0.1-0.6c-0.1-0.9-0.4-1.6-0.9-2.2c-0.4-0.5-1.1-0.8-2-0.8
			c-0.7,0-1.2,0.2-1.6,0.6c-0.4,0.4-0.6,0.9-0.6,1.6c0,1.1,0.5,2.1,1.4,2.8l3.6,2.9c1.9,1.5,2.9,3.4,2.9,5.6c0,1.5-0.5,2.6-1.4,3.5
			C115.1,25.7,113.9,26.1,112.3,26.1z"/>
		<path fill="#FFFFFF" d="M44.1,63.9V37.8h-3.6v-3.6c2.4-0.9,4-2,4.8-3.6h3.6v33.2H44.1z"/>
		<path fill="#FFFFFF" d="M53.8,68.6l-1.2-2.4c0.9,0,1.5-0.2,1.8-0.6c0.4-0.4,0.5-1,0.5-1.8h-2.4v-4.8h4.8c0,1.8,0,3.3-0.1,4.5
			c0,0.7-0.1,1.2-0.1,1.7c0,0.5-0.1,0.9-0.3,1.4c-0.1,0.5-0.3,0.8-0.6,1.1c-0.2,0.3-0.6,0.5-1,0.6C54.9,68.6,54.4,68.6,53.8,68.6z"
			/>
		<path fill="#FFFFFF" d="M68.9,64.2c-1.8,0-3.3-0.4-4.6-1.3c-1.3-0.9-2.2-2-2.8-3.5c-0.6-1.5-0.9-3.2-0.9-5.1V40.1
			c0-3.1,0.7-5.5,2.1-7.2c1.4-1.8,3.5-2.6,6.2-2.6c2.8,0,4.8,0.9,6.2,2.6c1.4,1.8,2.1,4.2,2.1,7.2v14.2c0,3-0.7,5.4-2.1,7.2
			C73.7,63.3,71.6,64.2,68.9,64.2z M68.9,60.3c2.4,0,3.6-2,3.6-5.9V40.1c0-0.7,0-1.3-0.1-1.8c0-0.5-0.2-1.1-0.3-1.6
			c-0.2-0.5-0.4-1-0.6-1.3c-0.3-0.4-0.6-0.6-1-0.9c-0.4-0.2-0.9-0.3-1.5-0.3s-1.1,0.1-1.5,0.3c-0.4,0.2-0.8,0.5-1,0.9
			c-0.3,0.4-0.5,0.8-0.6,1.3c-0.2,0.5-0.3,1.1-0.3,1.6c0,0.5-0.1,1.1-0.1,1.8v14.2c0,0.8,0.1,1.5,0.2,2.2c0.1,0.7,0.3,1.3,0.5,1.9
			c0.3,0.6,0.6,1.1,1.1,1.4C67.6,60.2,68.2,60.3,68.9,60.3z"/>
		<path fill="#FFFFFF" d="M89.1,64.2c-1.8,0-3.3-0.4-4.6-1.3c-1.3-0.9-2.2-2-2.8-3.5c-0.6-1.5-0.9-3.2-0.9-5.1V40.1
			c0-3.1,0.7-5.5,2.1-7.2c1.4-1.8,3.5-2.6,6.2-2.6c2.8,0,4.8,0.9,6.2,2.6c1.4,1.8,2.1,4.2,2.1,7.2v14.2c0,3-0.7,5.4-2.1,7.2
			C93.9,63.3,91.8,64.2,89.1,64.2z M89.1,60.3c2.4,0,3.6-2,3.6-5.9V40.1c0-0.7,0-1.3-0.1-1.8c0-0.5-0.2-1.1-0.3-1.6
			c-0.2-0.5-0.4-1-0.6-1.3c-0.3-0.4-0.6-0.6-1-0.9c-0.4-0.2-0.9-0.3-1.5-0.3s-1.1,0.1-1.5,0.3c-0.4,0.2-0.8,0.5-1,0.9
			c-0.3,0.4-0.5,0.8-0.6,1.3c-0.2,0.5-0.3,1.1-0.3,1.6c0,0.5-0.1,1.1-0.1,1.8v14.2c0,0.8,0.1,1.5,0.2,2.2c0.1,0.7,0.3,1.3,0.5,1.9
			c0.3,0.6,0.6,1.1,1.1,1.4C87.8,60.2,88.4,60.3,89.1,60.3z"/>
		<path fill="#FFFFFF" d="M109.3,64.2c-1.8,0-3.3-0.4-4.6-1.3c-1.3-0.9-2.2-2-2.8-3.5c-0.6-1.5-0.9-3.2-0.9-5.1V40.1
			c0-3.1,0.7-5.5,2.1-7.2c1.4-1.8,3.5-2.6,6.2-2.6c2.8,0,4.8,0.9,6.2,2.6c1.4,1.8,2.1,4.2,2.1,7.2v14.2c0,3-0.7,5.4-2.1,7.2
			C114.1,63.3,112,64.2,109.3,64.2z M109.3,60.3c2.4,0,3.6-2,3.6-5.9V40.1c0-0.7,0-1.3-0.1-1.8c0-0.5-0.2-1.1-0.3-1.6
			c-0.2-0.5-0.4-1-0.6-1.3c-0.3-0.4-0.6-0.6-1-0.9c-0.4-0.2-0.9-0.3-1.5-0.3s-1.1,0.1-1.5,0.3c-0.4,0.2-0.8,0.5-1,0.9
			c-0.3,0.4-0.5,0.8-0.6,1.3c-0.2,0.5-0.3,1.1-0.3,1.6c0,0.5-0.1,1.1-0.1,1.8v14.2c0,0.8,0.1,1.5,0.2,2.2c0.1,0.7,0.3,1.3,0.5,1.9
			c0.3,0.6,0.6,1.1,1.1,1.4C108,60.2,108.6,60.3,109.3,60.3z"/>
	</g>
</g>
<g id="virus-front">
	<g>
		<path fill="#A6D056" d="M100.2,60.7c0.4,1.3-0.9,2.3-1.6,4s0.4,1.4,0.8,2.7c0.4,1.4-1.3,1.9-0.1,3.1s2.6,1.3,2,3s1.8,1.7,3.2,2
			c1.4,0.3,1.2,2.5,2.2,2.5s3.9-0.9,4.4-0.4s2,0.9,3.5-0.6s2.2-1.9,3.7-1.4c1.5,0.4,1.7-0.2,2.3-1.4c0.6-1.2,1.7-1.8,3.1-1.2
			s1.4-1.3,2.4-1.1s2.3,1.6,3.8-0.3c1.5-1.9,3.2,0.4,4.2-1c1-1.4-0.6-2.5,2.2-3.3c2.8-0.8,2.3-0.6,1.3-3c-1-2.4,0.8-3-1.3-3.7
			c-2.1-0.6-1.9,0.2-2.8-2.2c-0.9-2.4-1.6-2.4-4.6-2.4c-3,0-2.6-1.6-4.1-2.3c-1.5-0.7-1.5-0.6-3.5,0c-1.9,0.6-2.5-1.8-5.5-1.6
			s-1.5,1.8-4.7,2.3c-3.2,0.5-2.7-1-4.5,1s-1.9,2.5-3.5,2.5S99.6,58.7,100.2,60.7z"/>
		<g id="XMLID_2_">
			<path fill="#F38E21" d="M114.8,54.6c-3.8,0.4-7.4,1.5-10.6,4.7c-4.8,4.9-3.6,13.4,2.7,16.6s12.7-4.3,18.1-4.6
				c5.4-0.3,10.3-2.6,11.1-6.7C137,60.6,122,53.8,114.8,54.6z"/>
			<path fill="#FBCC70" d="M114.8,54.7c0,0-0.1,0-0.3,0c-0.2,0-0.4,0-0.7,0.1c-0.6,0.1-1.6,0.3-2.8,0.6c-0.6,0.2-1.2,0.4-1.9,0.7
				c-0.7,0.3-1.4,0.7-2,1.2c-0.7,0.5-1.4,1-2,1.7c-0.2,0.2-0.3,0.3-0.5,0.5l-0.1,0.1l0,0c0,0,0,0,0,0l0,0l-0.1,0.1
				c-0.1,0.1-0.2,0.2-0.2,0.3c-0.1,0.2-0.3,0.4-0.4,0.6c-0.1,0.2-0.3,0.4-0.4,0.6c-1,1.7-1.6,3.9-1.4,6.2c0,0.6,0.1,1.1,0.3,1.7
				c0.1,0.6,0.3,1.1,0.5,1.7c0.2,0.6,0.5,1.1,0.8,1.6c0.3,0.5,0.7,1,1.2,1.5c0.4,0.5,0.9,0.9,1.5,1.2c0.3,0.2,0.5,0.4,0.8,0.5
				c0.3,0.1,0.6,0.3,0.9,0.4c1.2,0.5,2.6,0.5,3.9,0.3c1.3-0.2,2.6-0.8,3.8-1.4c1.2-0.6,2.4-1.3,3.7-2c1.2-0.7,2.5-1.4,3.9-1.8
				c0.2-0.1,0.4-0.1,0.5-0.2c0.2-0.1,0.4-0.1,0.5-0.1c0.2,0,0.4-0.1,0.6-0.1l0.5-0.1c0.3,0,0.7-0.1,1-0.1c0.3,0,0.7-0.1,1-0.2
				c1.3-0.3,2.6-0.6,3.8-1.2c1.2-0.5,2.2-1.3,3-2.1c0.2-0.2,0.4-0.5,0.5-0.7c0.1-0.1,0.1-0.2,0.2-0.4l0.1-0.2c0-0.1,0.1-0.1,0.1-0.2
				c0.1-0.3,0.2-0.5,0.3-0.8l0.1-0.4c0-0.1,0-0.2,0-0.2c0,0,0,0,0,0l0-0.1c0-0.4-0.3-0.9-0.6-1.3c-0.3-0.4-0.8-0.8-1.2-1.2
				c-0.9-0.7-1.8-1.4-2.8-1.9c-0.9-0.6-1.9-1.1-2.8-1.5c-1.9-0.9-3.6-1.7-5.2-2.2c-0.8-0.3-1.6-0.5-2.3-0.7c-0.7-0.2-1.4-0.3-2-0.4
				c-1.2-0.2-2.2-0.3-2.8-0.3c-0.3,0-0.6,0-0.7,0C114.9,54.7,114.8,54.7,114.8,54.7z M114.8,54.5c0,0,0.1,0,0.3,0c0.2,0,0.4,0,0.8,0
				c0.7,0,1.6,0,2.9,0.2c0.3,0,0.6,0.1,1,0.1c0.3,0.1,0.7,0.1,1.1,0.2c0.7,0.1,1.5,0.3,2.4,0.5c1.7,0.4,3.5,1,5.5,1.8
				c0.5,0.2,1,0.4,1.5,0.7c0.5,0.2,1,0.5,1.5,0.8c1,0.6,2,1.2,3,2c0.5,0.4,1,0.8,1.4,1.4c0.2,0.3,0.4,0.6,0.6,0.9
				c0.2,0.3,0.3,0.7,0.4,1.1l0,0.2c0,0.1,0,0.1,0,0.2c0,0.2,0,0.2,0,0.3l0,0c0,0.1,0,0,0,0.1l0,0.1l0,0.1l-0.1,0.3
				c-0.1,0.3-0.2,0.7-0.4,1c0,0.1-0.1,0.2-0.1,0.2l-0.1,0.2c-0.1,0.2-0.2,0.3-0.3,0.5c-0.2,0.3-0.4,0.6-0.7,0.8
				c-1,1-2.2,1.8-3.5,2.4c-1.3,0.6-2.7,0.9-4.1,1.2c-0.3,0.1-0.7,0.1-1.1,0.1c-0.4,0-0.7,0.1-1,0.1l-0.5,0c-0.2,0-0.3,0-0.5,0
				c-0.2,0-0.3,0-0.5,0.1c-0.2,0-0.3,0.1-0.5,0.1c-1.3,0.3-2.6,0.9-3.8,1.5c-1.3,0.6-2.5,1.3-3.8,1.8c-0.6,0.3-1.3,0.6-2,0.8
				c-0.7,0.2-1.3,0.4-2,0.6c-0.7,0.1-1.4,0.2-2.1,0.2l-0.5,0c-0.2,0-0.3-0.1-0.5-0.1c-0.2,0-0.3-0.1-0.5-0.1c-0.2,0-0.3-0.1-0.5-0.2
				c-0.4-0.1-0.6-0.2-1-0.4c-0.3-0.2-0.6-0.3-0.9-0.5c-0.6-0.4-1.1-0.8-1.6-1.2c-0.5-0.5-1-1-1.4-1.5c-0.4-0.5-0.8-1.1-1-1.7
				c-0.3-0.6-0.5-1.2-0.7-1.8c-0.2-0.6-0.3-1.3-0.4-1.9c-0.1-0.6-0.1-1.3,0-1.9c0-0.6,0.2-1.2,0.3-1.8c0.1-0.6,0.4-1.1,0.6-1.7
				c0.2-0.5,0.5-1,0.8-1.5c0.1-0.2,0.3-0.4,0.5-0.7c0.2-0.2,0.4-0.4,0.5-0.6c0.1-0.1,0.2-0.2,0.3-0.3l0.1-0.1l0,0c0,0,0,0,0,0l0,0
				l0.1-0.1c0.2-0.2,0.4-0.3,0.6-0.5c0.8-0.6,1.5-1.2,2.3-1.6c0.8-0.4,1.5-0.8,2.2-1c0.2-0.1,0.3-0.1,0.5-0.2
				c0.2-0.1,0.3-0.1,0.5-0.2c0.3-0.1,0.6-0.2,0.9-0.3c1.2-0.3,2.2-0.4,2.8-0.5c0.3,0,0.6-0.1,0.7-0.1
				C114.7,54.5,114.8,54.5,114.8,54.5z"/>
		</g>
		<g>
			<circle fill="#F38E21" cx="109.3" cy="74.2" r="1.1"/>
			<path fill="#FBCC70" d="M110.4,74.2C110.4,74.2,110.4,74.2,110.4,74.2c0,0.1,0,0.2,0,0.3c0,0.2-0.1,0.4-0.4,0.7
				c-0.1,0.1-0.3,0.2-0.5,0.3c-0.1,0-0.1,0-0.2,0c0,0-0.1,0-0.2,0c-0.1,0-0.2,0-0.4-0.1c-0.2-0.1-0.5-0.2-0.6-0.4
				c-0.2-0.2-0.3-0.5-0.3-0.8c0-0.1,0-0.1,0-0.2c0-0.1,0-0.1,0-0.2c0-0.1,0.1-0.3,0.2-0.4c0.2-0.2,0.4-0.4,0.6-0.4
				c0.2-0.1,0.5-0.1,0.7,0c0.2,0.1,0.4,0.2,0.5,0.3c0.3,0.2,0.4,0.5,0.4,0.7C110.4,74,110.4,74.1,110.4,74.2
				C110.4,74.2,110.4,74.2,110.4,74.2z M110.4,74.2C110.4,74.2,110.4,74.2,110.4,74.2c0-0.1,0-0.2,0-0.3c0-0.1-0.1-0.2-0.2-0.3
				c-0.1-0.1-0.2-0.2-0.3-0.3c-0.1-0.1-0.3-0.1-0.4-0.1c-0.2,0-0.3,0.1-0.5,0.2c-0.1,0.1-0.2,0.2-0.3,0.3c0,0.1-0.1,0.1-0.1,0.2
				c0,0,0,0.1,0,0.1c0,0,0,0.1,0,0.1c0,0.1,0,0.3,0.1,0.4c0.1,0.1,0.2,0.3,0.3,0.3c0.1,0,0.1,0.1,0.2,0.1c0,0,0.1,0,0.1,0
				c0,0,0.1,0,0.1,0c0.2,0,0.3,0,0.5-0.1c0.1-0.1,0.2-0.2,0.3-0.3c0.1-0.1,0.1-0.2,0.2-0.3C110.4,74.4,110.4,74.3,110.4,74.2
				C110.4,74.2,110.4,74.2,110.4,74.2z"/>
		</g>
		<g>
			<circle fill="#F38E21" cx="111.7" cy="70.1" r="0.4"/>
			<path fill="#FBCC70" d="M111.7,70.5C111.7,70.5,111.7,70.5,111.7,70.5c-0.2,0-0.2-0.1-0.3-0.1c0,0-0.1-0.1-0.1-0.2c0,0,0,0,0-0.1
				c0,0,0,0,0-0.1c0-0.1,0-0.1,0-0.2c0-0.1,0.1-0.2,0.2-0.3c0.1-0.1,0.2-0.1,0.4-0.1c0.1,0,0,0,0.1,0c0,0,0.1,0,0.1,0
				c0.1,0,0.1,0.1,0.2,0.1c0.1,0.1,0.1,0.2,0.2,0.3c0,0.1,0,0.2-0.1,0.3c0,0.1-0.1,0.1-0.2,0.2C112,70.5,111.9,70.5,111.7,70.5
				C111.7,70.5,111.7,70.5,111.7,70.5z M111.7,70.5C111.7,70.5,111.7,70.5,111.7,70.5c0.2,0,0.2-0.1,0.3-0.2c0,0,0-0.1,0-0.1
				c0-0.1-0.1-0.1-0.1-0.1c0,0-0.1,0-0.1,0c0,0,0,0,0,0c0,0,0,0,0,0c0,0,0,0,0,0c0,0,0,0,0,0c0,0,0,0-0.1,0c0,0,0,0-0.1,0
				c0,0,0,0,0,0c0,0,0,0,0,0c0,0,0,0.1,0,0.1C111.5,70.4,111.6,70.5,111.7,70.5C111.7,70.5,111.7,70.5,111.7,70.5z"/>
		</g>
		<g>
			<circle fill="#F38E21" cx="105.7" cy="66.3" r="1"/>
			<path fill="#FBCC70" d="M106.5,66.8C106.5,66.8,106.5,66.9,106.5,66.8c-0.1,0.1-0.1,0.2-0.2,0.2c-0.1,0.1-0.3,0.3-0.7,0.3
				c-0.2,0-0.3,0-0.5-0.1c0,0-0.1,0-0.1-0.1c0,0-0.1,0-0.1-0.1c-0.1-0.1-0.2-0.1-0.3-0.2c-0.1-0.2-0.3-0.4-0.3-0.7
				c0-0.1,0-0.3,0-0.4c0-0.1,0-0.1,0.1-0.2c0,0,0-0.1,0-0.1l0,0l0,0l0,0l0,0l0,0c0-0.1,0.2-0.2,0.3-0.3c0.1-0.1,0.2-0.1,0.3-0.2
				c0.2-0.1,0.5-0.1,0.7,0c0.2,0.1,0.4,0.2,0.5,0.3c0.1,0.2,0.2,0.3,0.3,0.5c0.1,0.3,0,0.6,0,0.7C106.6,66.7,106.6,66.7,106.5,66.8
				C106.5,66.8,106.5,66.8,106.5,66.8z M106.5,66.8C106.5,66.8,106.5,66.8,106.5,66.8c0.1-0.1,0.1-0.2,0.1-0.2c0-0.1,0-0.2,0-0.3
				c0-0.1,0-0.3-0.1-0.4c-0.1-0.1-0.2-0.2-0.3-0.3c-0.1-0.1-0.3-0.1-0.4-0.1c-0.1,0-0.3,0-0.4,0.1c-0.1,0-0.1,0.1-0.2,0.1
				c-0.1,0.1-0.1,0.1-0.1,0.2c0,0,0,0,0,0l0,0l0,0l0,0l0,0l0,0c0,0,0,0,0,0c0,0,0,0.1,0,0.1c0,0.1,0,0.1,0,0.2c0,0.1,0,0.3,0.1,0.4
				c0,0.1,0.1,0.1,0.1,0.2c0,0,0.1,0.1,0.1,0.1c0,0,0.1,0,0.1,0.1c0.1,0.1,0.3,0.1,0.4,0.2c0.1,0,0.3,0,0.4,0c0.1,0,0.2-0.1,0.3-0.2
				C106.4,67,106.5,66.9,106.5,66.8C106.5,66.9,106.5,66.8,106.5,66.8z"/>
		</g>
		<g>
			<circle fill="#F38E21" cx="108.4" cy="63.8" r="0.5"/>
			<path fill="#FBCC70" d="M108.9,63.5c0,0,0,0,0.1,0.1c0,0.1,0.1,0.2,0,0.4c0,0.1-0.1,0.2-0.1,0.3c0,0,0,0-0.1,0.1c0,0,0,0-0.1,0.1
				c-0.1,0-0.1,0.1-0.2,0.1c-0.1,0-0.3,0-0.4,0c-0.1,0-0.1-0.1-0.2-0.1c0,0-0.1-0.1-0.1-0.1c0,0,0,0,0,0l0,0l0,0l0,0l0,0
				c0,0-0.1-0.1-0.1-0.2c0-0.1,0-0.2,0-0.2c0-0.2,0.1-0.3,0.2-0.4c0.1-0.1,0.2-0.1,0.3-0.2c0.1,0,0.2,0,0.3,0
				c0.2,0.1,0.3,0.1,0.3,0.2C108.9,63.5,108.9,63.5,108.9,63.5z M108.9,63.5C108.9,63.5,108.9,63.5,108.9,63.5c0,0-0.1-0.1-0.1-0.1
				c-0.1-0.1-0.2-0.1-0.3-0.1c-0.1,0-0.1,0.1-0.2,0.1c-0.1,0.1-0.1,0.1-0.1,0.2c0,0.1,0,0.1,0,0.1c0,0,0,0,0,0.1c0,0,0,0,0,0.1
				c0,0,0,0,0,0l0,0l0,0l0,0l0,0l0,0c0,0,0,0,0,0l0,0c0,0,0,0,0,0c0,0,0.1,0.1,0.1,0.1c0,0,0.1,0,0.1,0c0,0,0,0,0.1,0c0,0,0,0,0,0
				c0.1,0,0.1,0,0.2-0.1c0.1-0.1,0.1-0.2,0.1-0.3C108.9,63.6,108.9,63.6,108.9,63.5C108.9,63.5,108.9,63.5,108.9,63.5z"/>
		</g>
		<g>
			<circle fill="#F38E21" cx="114.6" cy="67.7" r="1.4"/>
			<path fill="#FBCC70" d="M116,67.7C116,67.7,116,67.7,116,67.7c0,0.2,0,0.3,0,0.4c-0.1,0.2-0.2,0.6-0.5,0.8
				c-0.2,0.1-0.4,0.3-0.6,0.3c-0.1,0-0.1,0-0.2,0c-0.1,0-0.1,0-0.2,0c-0.2,0-0.3,0-0.4-0.1c-0.1,0-0.3-0.1-0.4-0.2
				c-0.1-0.1-0.2-0.2-0.3-0.3c-0.1-0.1-0.2-0.3-0.2-0.4c0-0.1,0-0.2-0.1-0.2c0,0,0-0.1,0-0.1l0-0.1l0,0l0,0l0,0l0,0
				c0-0.1,0-0.3,0.1-0.5c0.1-0.2,0.1-0.3,0.2-0.4c0.1-0.1,0.2-0.2,0.3-0.3c0.1-0.1,0.3-0.2,0.4-0.2c0.3-0.1,0.6-0.1,0.8,0
				c0.3,0.1,0.5,0.2,0.6,0.3c0.3,0.3,0.5,0.6,0.5,0.8C116,67.4,116,67.5,116,67.7C116,67.7,116,67.7,116,67.7z M116,67.7
				C116,67.7,116,67.7,116,67.7c0-0.2,0-0.3-0.1-0.4c0-0.1-0.1-0.3-0.2-0.4c-0.1-0.1-0.2-0.3-0.4-0.4c-0.2-0.1-0.4-0.1-0.6-0.1
				c-0.2,0-0.4,0.1-0.6,0.2c-0.2,0.1-0.3,0.3-0.4,0.5c-0.1,0.1-0.1,0.2-0.1,0.3c0,0.1,0,0.2,0,0.3c0,0,0,0,0,0l0,0l0,0l0,0l0,0l0,0
				c0,0,0,0.1,0,0.1c0,0.1,0,0.1,0,0.2c0,0.1,0.1,0.2,0.1,0.3c0.1,0.2,0.3,0.4,0.4,0.5c0.1,0.1,0.2,0.1,0.3,0.1c0,0,0.1,0,0.2,0
				c0,0,0.1,0,0.2,0c0.2,0,0.4-0.1,0.6-0.1c0.2-0.1,0.3-0.2,0.4-0.4c0.1-0.1,0.2-0.3,0.2-0.4C116,68,116,67.9,116,67.7
				C116,67.7,116,67.7,116,67.7z"/>
		</g>
		<g>
			<circle fill="#F38E21" cx="118.4" cy="61.1" r="1.1"/>
			<path fill="#FBCC70" d="M119.1,60.3C119.1,60.3,119.1,60.3,119.1,60.3c0.1,0.1,0.1,0.1,0.2,0.2c0.1,0.1,0.2,0.4,0.2,0.7
				c0,0.2,0,0.4-0.1,0.5c0,0,0,0.1-0.1,0.1c0,0,0,0.1-0.1,0.1c-0.1,0.1-0.2,0.2-0.3,0.2c-0.2,0.1-0.5,0.2-0.7,0.2
				c-0.1,0-0.3,0-0.4-0.1c-0.1,0-0.1-0.1-0.2-0.1c0,0-0.1,0-0.1-0.1l0,0l0,0l0,0l0,0l0,0c-0.1-0.1-0.2-0.2-0.3-0.3
				c-0.1-0.1-0.1-0.2-0.2-0.4c-0.1-0.3,0-0.5,0.1-0.8c0.1-0.2,0.3-0.4,0.4-0.5c0.2-0.1,0.4-0.2,0.5-0.2c0.3-0.1,0.6,0,0.8,0.1
				C118.9,60.2,119,60.2,119.1,60.3C119,60.3,119.1,60.3,119.1,60.3z M119.1,60.3C119.1,60.3,119,60.3,119.1,60.3
				c-0.1-0.1-0.2-0.1-0.2-0.1c-0.1,0-0.2-0.1-0.3-0.1c-0.1,0-0.3,0-0.4,0.1c-0.1,0.1-0.3,0.2-0.4,0.3c-0.1,0.1-0.2,0.3-0.2,0.4
				c0,0.2,0,0.3,0.1,0.5c0,0.1,0.1,0.1,0.1,0.2c0.1,0.1,0.1,0.1,0.2,0.2c0,0,0,0,0,0l0,0l0,0l0,0l0,0l0,0c0,0,0,0,0,0
				c0,0,0.1,0,0.1,0.1c0.1,0,0.1,0.1,0.2,0.1c0.1,0,0.3,0,0.5,0c0.1,0,0.2-0.1,0.2-0.1c0,0,0.1,0,0.1-0.1c0,0,0.1-0.1,0.1-0.1
				c0.1-0.1,0.2-0.3,0.2-0.4c0-0.1,0-0.3,0-0.4c0-0.1-0.1-0.2-0.1-0.3C119.2,60.4,119.2,60.4,119.1,60.3
				C119.1,60.3,119.1,60.3,119.1,60.3z"/>
		</g>
		<g>
			<circle fill="#F38E21" cx="111.7" cy="58.2" r="1.8"/>
			<path fill="#FBCC70" d="M113.3,57.3c0,0,0,0,0.1,0.1c0,0.1,0.1,0.2,0.1,0.3c0.1,0.3,0.1,0.8-0.1,1.3c-0.1,0.3-0.3,0.5-0.6,0.7
				c-0.1,0.1-0.1,0.1-0.2,0.2c-0.1,0-0.1,0.1-0.2,0.1c-0.2,0.1-0.3,0.1-0.5,0.2c-0.2,0-0.4,0-0.6,0c-0.2,0-0.4-0.1-0.6-0.2
				c-0.2-0.1-0.4-0.2-0.5-0.4c-0.1-0.1-0.1-0.1-0.2-0.2c0,0-0.1-0.1-0.1-0.1l0-0.1l0,0l0,0l0,0l0,0l0,0c-0.1-0.1-0.2-0.4-0.2-0.6
				c0-0.2,0-0.4,0-0.6c0-0.2,0.1-0.4,0.2-0.6c0.1-0.2,0.2-0.3,0.3-0.5c0.3-0.3,0.6-0.5,0.9-0.6c0.3-0.1,0.6-0.1,0.9-0.1
				c0.6,0.1,0.9,0.4,1.1,0.6c0.1,0.1,0.2,0.2,0.2,0.3C113.3,57.3,113.3,57.3,113.3,57.3z M113.3,57.3c0,0,0,0-0.1-0.1
				c0,0-0.1-0.1-0.1-0.1c0,0-0.1-0.1-0.1-0.2c-0.1-0.1-0.3-0.2-0.5-0.3c-0.2-0.1-0.4-0.2-0.7-0.2c-0.3,0-0.5,0.1-0.8,0.2
				c-0.3,0.1-0.5,0.3-0.6,0.6c-0.2,0.3-0.2,0.5-0.3,0.8c0,0.1,0,0.3,0,0.4c0,0.2,0.1,0.2,0.2,0.4c0,0,0,0,0,0l0,0l0,0l0,0l0,0l0,0
				c0,0,0,0.1,0.1,0.1c0,0.1,0.1,0.1,0.1,0.2c0.1,0.1,0.2,0.2,0.3,0.3c0.3,0.2,0.6,0.2,0.8,0.2c0.1,0,0.3,0,0.4-0.1
				c0.1,0,0.1,0,0.2-0.1c0.1,0,0.1-0.1,0.2-0.1c0.3-0.1,0.5-0.3,0.6-0.6c0.1-0.2,0.2-0.5,0.2-0.7c0-0.2,0-0.4,0-0.6
				c0-0.1,0-0.1-0.1-0.2c0-0.1,0-0.1-0.1-0.1C113.4,57.4,113.3,57.3,113.3,57.3z"/>
		</g>
		<g>
			<circle fill="#F38E21" cx="120.8" cy="67.1" r="1.4"/>
			<path fill="#FBCC70" d="M121.8,66.1C121.8,66.1,121.9,66.1,121.8,66.1c0.1,0.1,0.2,0.2,0.2,0.3c0.1,0.2,0.3,0.6,0.2,1
				c0,0.2-0.1,0.5-0.2,0.7c0,0.1-0.1,0.1-0.1,0.2c0,0-0.1,0.1-0.1,0.1c-0.1,0.1-0.2,0.2-0.4,0.3c-0.1,0.1-0.3,0.1-0.4,0.1
				c-0.2,0-0.3,0-0.5,0c-0.3,0-0.7-0.2-0.9-0.4c-0.1-0.1-0.1-0.1-0.2-0.2c-0.1-0.1-0.1-0.1-0.1-0.2c-0.1-0.2-0.1-0.3-0.2-0.5
				c0-0.2,0-0.3,0-0.5c0-0.2,0.1-0.3,0.1-0.5c0.1-0.3,0.3-0.5,0.6-0.6c0.2-0.2,0.5-0.2,0.7-0.3c0.4,0,0.8,0.1,1,0.2
				C121.6,65.9,121.7,65.9,121.8,66.1C121.8,66,121.8,66.1,121.8,66.1z M121.8,66.1C121.8,66.1,121.8,66,121.8,66.1
				c-0.1-0.1-0.2-0.2-0.3-0.2c-0.1-0.1-0.2-0.1-0.4-0.1c-0.2,0-0.4,0-0.6,0c-0.2,0.1-0.4,0.2-0.5,0.3c-0.2,0.2-0.3,0.4-0.3,0.6
				c-0.1,0.2,0,0.4,0,0.7c0,0.1,0.1,0.2,0.1,0.3c0,0,0.1,0.1,0.1,0.1c0,0,0.1,0.1,0.1,0.1c0.2,0.2,0.4,0.3,0.6,0.3
				c0.2,0.1,0.4,0.1,0.7,0c0.1,0,0.2-0.1,0.3-0.1c0,0,0.1-0.1,0.1-0.1c0,0,0.1-0.1,0.1-0.1c0.2-0.2,0.3-0.3,0.3-0.5
				c0.1-0.2,0.1-0.4,0-0.6c0-0.2-0.1-0.3-0.1-0.4C122,66.3,121.9,66.2,121.8,66.1C121.9,66.1,121.8,66.1,121.8,66.1z"/>
		</g>
		<g>
			<circle fill="#F38E21" cx="125.3" cy="62.8" r="0.8"/>
			<path fill="#FBCC70" d="M125.9,63.4C125.9,63.4,125.9,63.4,125.9,63.4c-0.1,0.1-0.1,0.1-0.2,0.1c-0.1,0.1-0.3,0.2-0.6,0.2
				c-0.1,0-0.3,0-0.4-0.1c0,0-0.1,0-0.1-0.1c0,0-0.1,0-0.1-0.1c-0.1-0.1-0.1-0.1-0.2-0.2c-0.1-0.2-0.1-0.4-0.1-0.6
				c0-0.1,0-0.2,0.1-0.3c0,0,0-0.1,0.1-0.1c0,0,0,0,0-0.1l0,0l0,0l0,0l0,0l0,0c0,0,0.2-0.1,0.3-0.2c0.1,0,0.2-0.1,0.3-0.1
				c0.2,0,0.4,0,0.6,0.1c0.2,0.1,0.3,0.2,0.4,0.4c0.1,0.2,0.1,0.3,0.1,0.4c0,0.3-0.1,0.4-0.1,0.6C126,63.2,125.9,63.3,125.9,63.4
				C125.9,63.3,125.9,63.4,125.9,63.4z M125.9,63.4C125.9,63.4,125.9,63.3,125.9,63.4c0.1-0.1,0.1-0.1,0.1-0.2
				c0-0.1,0.1-0.1,0.1-0.2c0-0.1,0-0.2,0-0.3c0-0.1-0.1-0.2-0.2-0.3c-0.1-0.1-0.2-0.1-0.3-0.1c-0.1,0-0.2,0-0.3,0c0,0-0.1,0-0.1,0.1
				c0,0,0,0-0.1,0.1c0,0,0,0,0,0l0,0l0,0l0,0l0,0l0,0c0,0,0,0,0,0c0,0,0,0,0,0.1c0,0,0,0.1-0.1,0.1c0,0.1,0,0.2,0,0.3
				c0,0.1,0,0.1,0,0.2c0,0,0,0.1,0,0.1c0,0,0,0,0,0.1c0.1,0.1,0.2,0.2,0.3,0.2c0.1,0,0.2,0,0.3,0c0.1,0,0.2,0,0.2-0.1
				C125.8,63.5,125.8,63.4,125.9,63.4C125.9,63.4,125.9,63.4,125.9,63.4z"/>
		</g>
		<g>
			<circle fill="#F38E21" cx="130.4" cy="66.8" r="0.3"/>
			<path fill="#FBCC70" d="M130.7,66.8C130.7,66.8,130.7,66.8,130.7,66.8c0,0.1,0,0.2-0.1,0.3c0,0-0.1,0.1-0.2,0.1c0,0,0,0-0.1,0
				c0,0,0,0-0.1,0c-0.1,0-0.1,0-0.2,0c-0.1,0-0.2-0.1-0.3-0.2c-0.1-0.1-0.1-0.2-0.1-0.3c0-0.1,0,0,0-0.1c0,0,0-0.1,0-0.1
				c0-0.1,0.1-0.1,0.1-0.2c0.1-0.1,0.2-0.1,0.3-0.2c0.1,0,0.2,0,0.3,0c0.1,0,0.1,0.1,0.2,0.1C130.7,66.6,130.7,66.7,130.7,66.8
				C130.7,66.8,130.7,66.8,130.7,66.8z M130.7,66.8C130.7,66.8,130.8,66.8,130.7,66.8c0-0.1-0.1-0.2-0.2-0.2c0,0-0.1,0-0.1,0
				c0,0-0.1,0.1-0.1,0.1c0,0,0,0.1,0,0.1c0,0,0,0,0,0c0,0,0,0,0,0c0,0,0,0,0,0c0,0,0,0,0,0c0,0,0,0,0,0.1c0,0,0,0,0,0c0,0,0,0,0,0
				c0,0,0,0,0,0c0,0,0.1,0,0.1,0C130.7,67,130.7,66.9,130.7,66.8C130.8,66.8,130.7,66.8,130.7,66.8z"/>
		</g>
		<g>
			<circle fill="#F38E21" cx="130.1" cy="62" r="0.9"/>
			<path fill="#FBCC70" d="M131,62C131,62,131,62,131,62c0,0.1,0,0.2,0,0.2c0,0.2-0.1,0.4-0.3,0.6c-0.1,0.1-0.2,0.2-0.4,0.2
				c0,0-0.1,0-0.1,0c0,0-0.1,0-0.1,0c-0.1,0-0.2,0-0.3,0c-0.2-0.1-0.4-0.2-0.5-0.4c-0.1-0.2-0.2-0.4-0.2-0.7c0-0.1,0-0.1,0-0.2
				c0-0.1,0-0.1,0-0.2c0-0.1,0.1-0.2,0.2-0.3c0.1-0.2,0.3-0.3,0.5-0.4c0.2-0.1,0.4,0,0.6,0c0.2,0.1,0.3,0.1,0.4,0.2
				c0.2,0.2,0.3,0.4,0.3,0.6C131,61.9,131,61.9,131,62C131,62,131,62,131,62z M131,62C131,62,131,62,131,62c0-0.1,0-0.2,0-0.2
				c0-0.1-0.1-0.2-0.1-0.2c-0.1-0.1-0.2-0.2-0.3-0.2c-0.1-0.1-0.3-0.1-0.4-0.1c-0.1,0-0.3,0.1-0.4,0.1c-0.1,0.1-0.2,0.2-0.2,0.3
				c0,0.1,0,0.1-0.1,0.2c0,0,0,0.1,0,0.1c0,0,0,0.1,0,0.1c0,0.1,0,0.2,0.1,0.3c0.1,0.1,0.1,0.2,0.2,0.3c0,0,0.1,0.1,0.2,0.1
				c0,0,0.1,0,0.1,0c0,0,0.1,0,0.1,0c0.1,0,0.3,0,0.4-0.1c0.1,0,0.2-0.1,0.3-0.2c0.1-0.1,0.1-0.2,0.1-0.2C131,62.2,131,62.1,131,62
				C131,62,131,62,131,62z"/>
		</g>
		<g>
			<circle fill="#F38E21" cx="122.3" cy="62.9" r="0.5"/>
			<path fill="#FBCC70" d="M122.8,62.9c0,0,0,0,0,0.1c0,0.1-0.1,0.2-0.2,0.3c-0.1,0.1-0.1,0.1-0.2,0.2c0,0,0,0-0.1,0c0,0,0,0-0.1,0
				c-0.1,0-0.1,0-0.2,0c-0.1,0-0.3-0.1-0.4-0.2c-0.1-0.1-0.2-0.3-0.2-0.4c0-0.1,0,0,0-0.1c0-0.1,0-0.1,0-0.1c0-0.1,0.1-0.1,0.1-0.2
				c0.1-0.1,0.2-0.2,0.4-0.2c0.1,0,0.3,0,0.4,0c0.1,0,0.2,0.1,0.3,0.2c0.1,0.1,0.2,0.3,0.2,0.3C122.8,62.9,122.8,62.9,122.8,62.9z
				 M122.8,62.9C122.8,62.9,122.8,62.9,122.8,62.9c0-0.1,0-0.1,0-0.1c0-0.1-0.1-0.2-0.2-0.2c-0.1,0-0.1,0-0.2,0
				c-0.1,0-0.1,0.1-0.2,0.1c0,0-0.1,0.1-0.1,0.1c0,0,0,0,0,0.1c0,0,0,0,0,0c0,0,0,0,0,0c0,0,0,0.1,0,0.1c0,0,0,0.1,0.1,0.1
				c0,0,0,0,0.1,0.1c0,0,0,0,0.1,0c0,0,0,0,0,0c0.1,0,0.1,0,0.2,0c0.1,0,0.2-0.1,0.2-0.2C122.8,63,122.8,63,122.8,62.9
				C122.8,62.9,122.8,62.9,122.8,62.9z"/>
		</g>
		<g>
			<circle fill="#F38E21" cx="117.7" cy="57.3" r="0.2"/>
			<path fill="#FBCC70" d="M117.9,57.3C117.9,57.3,117.9,57.3,117.9,57.3c0,0.1,0,0.2-0.1,0.2c0,0-0.1,0.1-0.1,0.1c0,0,0,0-0.1,0
				c0,0,0,0,0,0c0,0-0.1,0-0.1,0c-0.1,0-0.2,0-0.2-0.1c-0.1-0.1-0.1-0.2-0.1-0.3c0,0,0,0,0-0.1c0,0,0-0.1,0-0.1c0,0,0-0.1,0.1-0.1
				c0.1-0.1,0.2-0.1,0.2-0.1c0.1,0,0.2,0,0.2,0.1c0.1,0,0.1,0.1,0.1,0.1C117.9,57.1,117.9,57.2,117.9,57.3
				C117.9,57.2,117.9,57.3,117.9,57.3z M117.9,57.3C117.9,57.3,117.9,57.2,117.9,57.3c0-0.1-0.1-0.1-0.1-0.1c0,0-0.1,0-0.1,0.1
				c0,0,0,0.1,0,0.1c0,0,0,0,0.1,0c0,0,0,0,0,0c0,0,0,0,0,0c0,0,0,0,0,0c0,0,0,0,0,0c0,0,0,0-0.1,0c0,0,0,0,0,0c0,0,0,0,0,0
				c0,0,0,0,0,0c0,0,0,0,0.1,0C117.9,57.4,117.9,57.4,117.9,57.3C117.9,57.3,117.9,57.3,117.9,57.3z"/>
		</g>
		<g>
			<circle fill="#F38E21" cx="113.8" cy="63.3" r="0.3"/>
			<path fill="#FBCC70" d="M114.1,63.3C114.1,63.3,114.1,63.3,114.1,63.3c0,0.1,0,0.2-0.1,0.3c0,0-0.1,0.1-0.1,0.1c0,0,0,0-0.1,0
				c0,0,0,0-0.1,0c-0.1,0-0.1,0-0.1,0c-0.1,0-0.2-0.1-0.3-0.1c0,0-0.1-0.1-0.1-0.1c0,0,0-0.1,0-0.1c0,0,0,0,0,0l0,0l0,0l0,0
				c0,0,0-0.1,0-0.2c0-0.1,0.1-0.1,0.1-0.1c0.1-0.1,0.2-0.1,0.3-0.1c0.1,0,0.2,0,0.3,0c0.1,0,0.1,0.1,0.2,0.1
				C114.1,63.1,114.1,63.1,114.1,63.3C114.1,63.2,114.1,63.3,114.1,63.3z M114.1,63.3C114.1,63.3,114.1,63.2,114.1,63.3
				c0-0.1-0.1-0.2-0.2-0.2c0,0-0.1,0-0.1,0c0,0,0,0.1,0,0.1c0,0,0,0.1,0,0.1c0,0,0,0,0,0c0,0,0,0,0,0l0,0l0,0l0,0c0,0,0,0,0,0
				c0,0,0,0,0,0c0,0,0,0,0,0.1c0,0,0,0,0,0c0,0,0,0,0,0c0,0,0,0,0,0c0,0,0.1,0,0.1,0C114,63.5,114.1,63.4,114.1,63.3
				C114.1,63.3,114.1,63.3,114.1,63.3z"/>
		</g>
		<g>
			<circle fill="#F38E21" cx="117.3" cy="71.2" r="0.3"/>
			<path fill="#FBCC70" d="M117.5,71.2C117.5,71.2,117.5,71.2,117.5,71.2c0,0.1,0,0.2-0.1,0.3c0,0-0.1,0.1-0.1,0.1c0,0,0,0-0.1,0
				c0,0,0,0,0,0c-0.1,0-0.1,0-0.1,0c-0.1,0-0.2-0.1-0.3-0.1c-0.1-0.1-0.1-0.2-0.1-0.3c0,0,0,0,0-0.1c0,0,0-0.1,0-0.1
				c0-0.1,0-0.1,0.1-0.1c0.1-0.1,0.2-0.1,0.3-0.1c0.1,0,0.2,0,0.2,0c0.1,0,0.1,0.1,0.1,0.1C117.5,71,117.5,71,117.5,71.2
				C117.5,71.1,117.5,71.2,117.5,71.2z M117.5,71.2C117.5,71.2,117.5,71.1,117.5,71.2c0-0.1-0.1-0.2-0.2-0.2c0,0-0.1,0-0.1,0
				c0,0,0,0.1,0,0.1c0,0,0,0,0,0c0,0,0,0,0,0c0,0,0,0,0,0c0,0,0,0,0,0c0,0,0,0,0,0c0,0,0,0,0,0c0,0,0,0,0,0c0,0,0,0,0,0c0,0,0,0,0,0
				c0,0,0.1,0,0.1,0C117.5,71.3,117.5,71.3,117.5,71.2C117.5,71.2,117.5,71.2,117.5,71.2z"/>
		</g>
		<g>
			<circle fill="#F38E21" cx="125.6" cy="68.3" r="0.5"/>
			<path fill="#FBCC70" d="M125.5,67.8c0,0,0,0,0.1,0c0.1,0,0.2,0,0.4,0c0.1,0,0.2,0.1,0.2,0.2c0,0,0,0,0.1,0.1c0,0,0,0,0,0.1
				c0,0.1,0,0.1,0.1,0.2c0,0.1,0,0.3-0.1,0.4c-0.1,0.1-0.2,0.2-0.3,0.3c-0.1,0,0,0-0.1,0c0,0-0.1,0-0.1,0c-0.1,0-0.2,0-0.2,0
				c-0.1,0-0.3-0.1-0.3-0.3c-0.1-0.1-0.1-0.2-0.1-0.3c0-0.1,0-0.2,0.1-0.3c0.1-0.1,0.2-0.2,0.2-0.3
				C125.4,67.9,125.5,67.8,125.5,67.8z M125.5,67.8C125.5,67.8,125.5,67.8,125.5,67.8c0,0-0.1,0-0.1,0.1c-0.1,0-0.1,0.2-0.1,0.3
				c0,0.1,0,0.1,0.1,0.2c0,0.1,0.1,0.1,0.1,0.1c0.1,0,0.1,0,0.1,0l0,0c0,0,0,0,0,0c0,0,0,0,0,0c0,0,0.1,0,0.1,0c0,0,0.1,0,0.1-0.1
				c0,0,0-0.1,0-0.1c0,0,0,0,0-0.1c0,0,0,0,0,0c0-0.1,0-0.1-0.1-0.2c-0.1-0.1-0.2-0.1-0.3-0.1C125.6,67.8,125.5,67.8,125.5,67.8
				C125.5,67.8,125.5,67.8,125.5,67.8z"/>
		</g>
		<g>
			<circle fill="#F38E21" cx="107.4" cy="60.8" r="0.2"/>
			<path fill="#FBCC70" d="M107.5,60.6C107.5,60.6,107.5,60.6,107.5,60.6c0.1,0,0.2,0,0.2,0.1c0,0,0.1,0.1,0.1,0.1c0,0,0,0,0,0.1
				c0,0,0,0,0,0c0,0,0,0.1,0,0.1c0,0.1-0.1,0.2-0.2,0.2c-0.1,0.1-0.2,0.1-0.3,0.1c0,0,0,0-0.1,0c0,0-0.1,0-0.1,0
				c0,0-0.1-0.1-0.1-0.1c-0.1-0.1-0.1-0.2-0.1-0.3c0-0.1,0.1-0.2,0.1-0.2c0.1-0.1,0.1-0.1,0.1-0.1C107.3,60.6,107.4,60.6,107.5,60.6
				C107.5,60.6,107.5,60.6,107.5,60.6z M107.5,60.6C107.5,60.6,107.5,60.6,107.5,60.6c-0.1,0-0.1,0-0.1,0.1c0,0,0,0.1,0,0.1
				c0,0,0.1,0,0.1,0c0,0,0,0,0-0.1c0,0,0,0,0,0c0,0,0,0,0,0c0,0,0,0,0,0c0,0,0,0-0.1,0c0,0,0,0,0,0.1c0,0,0,0,0,0c0,0,0,0,0,0
				c0,0,0,0,0,0c0,0,0.1,0,0.1-0.1C107.6,60.7,107.6,60.6,107.5,60.6C107.5,60.6,107.5,60.6,107.5,60.6z"/>
		</g>
	</g>
	<g>
		<path fill="#F2EC72" d="M58.6,134.4c0.6-1.2,2.2-1.2,3.8-2c1.7-0.8,0.6-1.3,1.2-2.6c0.6-1.3,2.3-0.6,2.1-2.2
			c-0.1-1.7-1.1-2.7,0.5-3.6c1.6-0.9-0.2-2.5-1.1-3.6c-0.9-1.2,0.7-2.7,0-3.3s-3.5-1.9-3.5-2.6c0-0.8-0.9-2-3.1-1.8
			c-2.1,0.1-2.9,0-3.7-1.3s-1.4-1-2.7-0.4c-1.2,0.5-2.5,0.2-3.1-1.2c-0.6-1.4-1.9,0-2.5-0.8c-0.6-0.8-0.7-2.7-3.1-2.3
			c-2.4,0.4-2.1-2.4-3.8-2c-1.7,0.4-1.2,2.3-3.8,1s-2.2-1.1-3,1.4s-2.6,1.8-1.4,3.6s1.6,1.1,0.7,3.5c-0.9,2.4-0.4,2.8,1.9,4.8
			s0.9,2.9,1.6,4.4c0.7,1.5,0.7,1.5,2.6,2.3s0.7,3,3.1,4.8c2.4,1.8,2.3-0.4,5,1.4c2.7,1.7,1.4,2.5,4,2.2c2.6-0.4,3.1-0.7,4.3,0.4
			C55.9,135.5,57.7,136.3,58.6,134.4z"/>
		<path fill="#A6D056" d="M43.6,129.3c3.1,2.2,6.6,3.8,11.1,3.4c6.8-0.6,11.5-7.7,8.9-14.3c-2.6-6.6-12.4-5.1-16.7-8.5
			s-9.4-4.8-12.7-2.3C30.8,110.1,37.7,125.2,43.6,129.3z"/>
		<path fill="#F38E21" d="M43.6,129.3c0,0,0.1,0,0.2,0.1c0.1,0.1,0.3,0.2,0.6,0.4c0.5,0.4,1.4,0.9,2.5,1.3c0.6,0.3,1.2,0.5,1.9,0.7
			c0.7,0.2,1.5,0.4,2.3,0.5c0.8,0.1,1.7,0.1,2.7,0c0.2,0,0.5,0,0.7-0.1l0.1,0l0,0c0,0,0,0,0,0l0,0l0.2,0c0.1,0,0.2,0,0.4-0.1
			c0.2-0.1,0.5-0.1,0.7-0.2c0.2-0.1,0.5-0.1,0.7-0.2c1.9-0.6,3.8-1.9,5.1-3.7c0.3-0.5,0.7-0.9,0.9-1.5c0.3-0.5,0.5-1.1,0.7-1.6
			c0.2-0.6,0.3-1.2,0.4-1.8c0.1-0.6,0.1-1.2,0.1-1.9c0-0.6-0.1-1.3-0.3-1.9c-0.1-0.3-0.2-0.6-0.3-0.9c-0.1-0.3-0.2-0.6-0.4-0.9
			c-0.6-1.2-1.6-2.1-2.8-2.8c-1.2-0.7-2.5-1.1-3.8-1.5c-1.3-0.3-2.7-0.6-4.1-0.9c-1.4-0.3-2.8-0.6-4.1-1.2c-0.2-0.1-0.3-0.2-0.5-0.2
			c-0.2-0.1-0.3-0.2-0.5-0.3c-0.2-0.1-0.3-0.2-0.5-0.3l-0.4-0.3c-0.3-0.2-0.6-0.4-0.8-0.6c-0.3-0.2-0.6-0.4-0.8-0.5
			c-1.2-0.7-2.4-1.2-3.6-1.6c-1.2-0.4-2.5-0.5-3.7-0.4c-0.3,0-0.6,0.1-0.9,0.2c-0.1,0-0.3,0.1-0.4,0.1l-0.2,0.1
			c-0.1,0-0.1,0-0.2,0.1c-0.3,0.1-0.5,0.2-0.7,0.4l-0.3,0.2c-0.1,0-0.1,0.1-0.1,0.1c0,0,0,0,0,0l0,0.1c-0.2,0.3-0.3,0.9-0.4,1.4
			c0,0.5,0,1.1,0.1,1.7c0.2,1.1,0.5,2.2,0.8,3.3c0.3,1.1,0.7,2.1,1.1,3c0.8,1.9,1.6,3.6,2.5,5.1c0.4,0.7,0.8,1.4,1.2,2
			c0.4,0.6,0.8,1.2,1.2,1.6c0.8,1,1.4,1.6,1.9,2c0.2,0.2,0.4,0.4,0.6,0.5C43.5,129.2,43.6,129.3,43.6,129.3z M43.5,129.4
			c0,0-0.1-0.1-0.2-0.2c-0.1-0.1-0.3-0.3-0.6-0.5c-0.5-0.4-1.2-1.1-2-2c-0.2-0.2-0.4-0.5-0.6-0.7c-0.2-0.3-0.4-0.5-0.7-0.8
			c-0.5-0.6-0.9-1.2-1.4-1.9c-1-1.4-2-3.1-3-5c-0.2-0.5-0.5-1-0.7-1.5c-0.2-0.5-0.4-1-0.6-1.6c-0.4-1.1-0.7-2.2-0.9-3.5
			c-0.1-0.6-0.2-1.3-0.2-2c0-0.3,0.1-0.7,0.1-1.1c0.1-0.4,0.2-0.7,0.5-1.1l0.1-0.1c0,0,0.1-0.1,0.1-0.1c0.1-0.1,0.1-0.1,0.2-0.2l0,0
			c0.1-0.1,0,0,0.1,0l0.1,0l0.1-0.1l0.2-0.1c0.3-0.2,0.6-0.3,0.9-0.5c0.1,0,0.2-0.1,0.2-0.1l0.3-0.1c0.2-0.1,0.3-0.1,0.5-0.2
			c0.4-0.1,0.7-0.2,1.1-0.2c1.4-0.1,2.9,0.1,4.2,0.5c1.3,0.4,2.6,1.1,3.8,1.8c0.3,0.2,0.6,0.4,0.9,0.6c0.3,0.2,0.6,0.4,0.8,0.6
			l0.4,0.3c0.1,0.1,0.3,0.2,0.4,0.3c0.1,0.1,0.3,0.2,0.4,0.3c0.1,0.1,0.3,0.2,0.4,0.2c1.2,0.6,2.5,1,3.9,1.4
			c1.3,0.4,2.7,0.7,4.1,1.1c0.7,0.2,1.3,0.4,2,0.7c0.7,0.3,1.3,0.6,1.9,0.9c0.6,0.4,1.2,0.8,1.7,1.3l0.4,0.4
			c0.1,0.1,0.2,0.3,0.3,0.4c0.1,0.1,0.2,0.3,0.3,0.4c0.1,0.1,0.2,0.3,0.3,0.4c0.2,0.3,0.3,0.6,0.5,0.9c0.1,0.3,0.3,0.6,0.3,1
			c0.2,0.7,0.4,1.3,0.4,2c0.1,0.7,0.1,1.4,0,2c-0.1,0.7-0.2,1.3-0.3,2c-0.2,0.6-0.4,1.3-0.7,1.8c-0.3,0.6-0.6,1.1-1,1.6
			c-0.4,0.5-0.8,1-1.2,1.4c-0.4,0.4-0.9,0.8-1.4,1.2c-0.5,0.3-1,0.6-1.5,0.9c-0.5,0.2-1.1,0.4-1.6,0.6c-0.3,0.1-0.5,0.1-0.8,0.2
			c-0.3,0.1-0.5,0.1-0.8,0.1c-0.1,0-0.2,0-0.4,0l-0.2,0l0,0c0,0,0,0,0,0l0,0l-0.1,0c-0.3,0-0.5,0-0.7,0c-1,0-1.9-0.1-2.8-0.3
			c-0.9-0.2-1.6-0.4-2.3-0.7c-0.2-0.1-0.3-0.1-0.5-0.2c-0.2-0.1-0.3-0.1-0.5-0.2c-0.3-0.1-0.6-0.3-0.9-0.4c-1.1-0.6-1.9-1.1-2.5-1.4
			c-0.3-0.2-0.5-0.3-0.6-0.4C43.6,129.4,43.5,129.4,43.5,129.4z"/>
		<g>
			<circle fill="#F2EC72" cx="60.6" cy="118.2" r="1.1"/>
			<path fill="#F38E21" d="M59.8,117.5C59.8,117.5,59.8,117.4,59.8,117.5c0.1-0.1,0.1-0.1,0.2-0.2c0.1-0.1,0.4-0.2,0.7-0.2
				c0.2,0,0.4,0,0.5,0.1c0,0,0.1,0,0.1,0.1c0,0,0.1,0,0.1,0.1c0.1,0.1,0.2,0.2,0.2,0.3c0.1,0.2,0.2,0.5,0.2,0.7
				c0,0.3-0.1,0.5-0.3,0.7c-0.1,0.1-0.1,0.1-0.1,0.1c-0.1,0.1-0.1,0.1-0.2,0.1c-0.1,0.1-0.2,0.1-0.4,0.1c-0.3,0.1-0.5,0-0.8-0.1
				c-0.2-0.1-0.4-0.3-0.5-0.4c-0.1-0.2-0.2-0.4-0.2-0.5c0-0.3,0-0.6,0.1-0.8C59.7,117.6,59.7,117.6,59.8,117.5
				C59.8,117.5,59.8,117.5,59.8,117.5z M59.8,117.5C59.8,117.5,59.8,117.5,59.8,117.5c-0.1,0.1-0.1,0.2-0.2,0.2
				c0,0.1-0.1,0.2-0.1,0.3c0,0.1,0,0.3,0.1,0.4c0.1,0.1,0.2,0.3,0.3,0.4c0.1,0.1,0.3,0.2,0.4,0.2c0.2,0,0.3,0,0.5-0.1
				c0.1,0,0.1-0.1,0.2-0.1c0,0,0.1,0,0.1-0.1c0,0,0.1-0.1,0.1-0.1c0.1-0.1,0.2-0.2,0.2-0.4c0-0.1,0-0.3,0-0.5c0-0.1-0.1-0.2-0.1-0.2
				c0,0,0-0.1-0.1-0.1c0,0,0-0.1-0.1-0.1c-0.1-0.1-0.3-0.2-0.4-0.2c-0.1,0-0.3,0-0.4,0c-0.1,0-0.2,0.1-0.3,0.1
				C59.9,117.3,59.9,117.4,59.8,117.5C59.8,117.4,59.8,117.5,59.8,117.5z"/>
		</g>
		<g>
			<circle fill="#F2EC72" cx="56.1" cy="119.7" r="0.4"/>
			<path fill="#F38E21" d="M56.4,119.4C56.4,119.4,56.4,119.4,56.4,119.4c0.1,0.1,0.2,0.2,0.2,0.3c0,0.1,0,0.1,0,0.2c0,0,0,0,0,0.1
				c0,0,0,0,0,0.1c0,0-0.1,0.1-0.1,0.1c-0.1,0.1-0.2,0.1-0.3,0.1c-0.1,0-0.3-0.1-0.4-0.2c0,0,0,0-0.1-0.1c0,0,0-0.1-0.1-0.1
				c0-0.1,0-0.1-0.1-0.2c0-0.1,0-0.3,0.1-0.3c0.1-0.1,0.2-0.2,0.2-0.2c0.1,0,0.2,0,0.2,0C56.2,119.3,56.3,119.3,56.4,119.4
				C56.4,119.4,56.4,119.4,56.4,119.4z M56.4,119.4C56.4,119.4,56.4,119.4,56.4,119.4c-0.1-0.1-0.2-0.1-0.3,0c0,0-0.1,0.1-0.1,0.1
				c0,0.1,0,0.1,0,0.1c0,0,0,0,0.1,0.1c0,0,0,0,0,0c0,0,0,0,0,0c0,0,0,0,0,0c0,0,0,0,0,0c0,0,0,0,0.1,0.1c0,0,0,0,0.1,0c0,0,0,0,0,0
				c0,0,0,0,0,0c0,0,0.1,0,0.1-0.1C56.5,119.6,56.5,119.5,56.4,119.4C56.4,119.4,56.4,119.4,56.4,119.4z"/>
		</g>
		<g>
			<circle fill="#F2EC72" cx="58.1" cy="126.6" r="1"/>
			<path fill="#F38E21" d="M57.9,125.6C57.9,125.6,57.9,125.6,57.9,125.6c0.1,0,0.2,0,0.3,0c0.2,0,0.4,0,0.7,0.2
				c0.1,0.1,0.3,0.2,0.4,0.4c0,0,0,0.1,0.1,0.1c0,0,0,0.1,0,0.1c0,0.1,0,0.2,0,0.3c0,0.2-0.1,0.5-0.2,0.7c-0.1,0.1-0.2,0.2-0.3,0.3
				c-0.1,0-0.1,0.1-0.2,0.1c0,0-0.1,0-0.1,0l0,0l0,0l0,0l0,0l0,0c-0.1,0-0.3,0-0.4,0c-0.1,0-0.3,0-0.4-0.1c-0.2-0.1-0.4-0.3-0.6-0.5
				c-0.1-0.2-0.2-0.4-0.2-0.6c0-0.2,0-0.4,0.1-0.5c0.1-0.3,0.4-0.5,0.5-0.5C57.7,125.6,57.8,125.6,57.9,125.6
				C57.8,125.6,57.9,125.6,57.9,125.6z M57.9,125.6C57.9,125.6,57.8,125.6,57.9,125.6c-0.1,0-0.2,0.1-0.2,0.1
				c-0.1,0-0.2,0.1-0.2,0.2c-0.1,0.1-0.1,0.2-0.2,0.4c0,0.1,0,0.3,0,0.4c0.1,0.2,0.1,0.3,0.3,0.4c0.1,0.1,0.3,0.2,0.4,0.2
				c0.1,0,0.1,0,0.2,0c0.1,0,0.1,0,0.2,0c0,0,0,0,0,0l0,0l0,0l0,0l0,0l0,0c0,0,0,0,0,0c0,0,0.1,0,0.1,0c0.1,0,0.1-0.1,0.2-0.1
				c0.1-0.1,0.2-0.2,0.2-0.4c0-0.1,0-0.1,0-0.2c0,0,0-0.1,0-0.1c0,0,0-0.1,0-0.1c0-0.1-0.1-0.3-0.2-0.4c-0.1-0.1-0.2-0.2-0.3-0.2
				c-0.1,0-0.2-0.1-0.3-0.1C58.1,125.5,58,125.5,57.9,125.6C57.9,125.6,57.9,125.6,57.9,125.6z"/>
		</g>
		<g>
			<circle fill="#F2EC72" cx="54.4" cy="126.6" r="0.5"/>
			<path fill="#F38E21" d="M53.9,126.5c0,0,0,0,0-0.1c0-0.1,0.1-0.2,0.2-0.3c0.1,0,0.2-0.1,0.3-0.1c0,0,0.1,0,0.1,0c0,0,0,0,0.1,0
				c0.1,0,0.1,0,0.2,0.1c0.1,0.1,0.2,0.2,0.3,0.3c0,0.1,0.1,0.1,0.1,0.2c0,0,0,0.1,0,0.1c0,0,0,0,0,0.1l0,0l0,0l0,0l0,0
				c0,0,0,0.2-0.1,0.2c0,0.1-0.1,0.1-0.2,0.2c-0.1,0.1-0.3,0.1-0.4,0.1c-0.1,0-0.3,0-0.4-0.1c-0.1-0.1-0.2-0.1-0.2-0.2
				c-0.1-0.1-0.1-0.3-0.1-0.4C53.9,126.6,53.9,126.5,53.9,126.5z M53.9,126.5C53.9,126.5,53.9,126.5,53.9,126.5c0,0.1,0,0.1,0,0.1
				c0,0.1,0.1,0.2,0.2,0.3c0.1,0,0.1,0,0.2,0c0.1,0,0.1,0,0.2-0.1c0,0,0.1-0.1,0.1-0.1c0,0,0,0,0-0.1c0,0,0,0,0-0.1c0,0,0,0,0,0l0,0
				l0,0l0,0l0,0l0,0c0,0,0,0,0,0l0,0c0,0,0,0,0-0.1c0,0,0-0.1,0-0.1c0,0,0-0.1,0-0.1c0,0,0,0,0,0c0,0,0,0,0,0c-0.1,0-0.1,0-0.2,0
				c-0.1,0-0.2,0.1-0.3,0.2C53.9,126.4,53.9,126.5,53.9,126.5C53.9,126.5,53.9,126.5,53.9,126.5z"/>
		</g>
		<g>
			<circle fill="#F2EC72" cx="52.3" cy="119.6" r="1.4"/>
			<path fill="#F38E21" d="M51.3,118.7C51.3,118.7,51.3,118.6,51.3,118.7c0.1-0.1,0.2-0.2,0.3-0.3c0.2-0.1,0.5-0.3,1-0.3
				c0.2,0,0.5,0.1,0.7,0.2c0.1,0,0.1,0.1,0.2,0.1c0,0,0.1,0.1,0.2,0.1c0.1,0.1,0.2,0.2,0.3,0.3c0.1,0.1,0.1,0.3,0.2,0.4
				c0,0.2,0,0.3,0,0.5c0,0.2-0.1,0.3-0.1,0.5c0,0.1-0.1,0.2-0.1,0.2c0,0,0,0.1-0.1,0.1l0,0.1l0,0l0,0l0,0l0,0
				c-0.1,0.1-0.2,0.2-0.4,0.3c-0.1,0.1-0.3,0.1-0.5,0.2c-0.2,0-0.3,0-0.5,0c-0.2,0-0.3-0.1-0.4-0.1c-0.3-0.1-0.5-0.3-0.7-0.5
				c-0.2-0.2-0.2-0.4-0.3-0.7c-0.1-0.4,0-0.8,0.2-1C51.1,118.9,51.2,118.8,51.3,118.7C51.3,118.7,51.3,118.7,51.3,118.7z
				 M51.3,118.7C51.3,118.7,51.3,118.7,51.3,118.7c-0.1,0.1-0.2,0.2-0.2,0.3c0,0.1-0.1,0.2-0.1,0.4c0,0.2,0,0.4,0.1,0.5
				c0.1,0.2,0.2,0.4,0.4,0.5c0.2,0.1,0.4,0.2,0.6,0.3c0.2,0,0.4,0,0.6-0.1c0.1,0,0.2-0.1,0.3-0.1c0.1-0.1,0.1-0.1,0.2-0.2
				c0,0,0,0,0,0l0,0l0,0l0,0l0,0l0,0c0,0,0,0,0-0.1c0,0,0.1-0.1,0.1-0.1c0-0.1,0.1-0.2,0.1-0.3c0-0.2,0-0.4,0-0.6
				c0-0.1-0.1-0.2-0.1-0.3c0,0-0.1-0.1-0.1-0.1c0,0-0.1-0.1-0.1-0.1c-0.2-0.1-0.4-0.2-0.5-0.3c-0.2,0-0.4,0-0.5,0
				c-0.2,0-0.3,0.1-0.4,0.2C51.5,118.5,51.4,118.5,51.3,118.7C51.3,118.6,51.3,118.7,51.3,118.7z"/>
		</g>
		<g>
			<circle fill="#F2EC72" cx="45.2" cy="122.1" r="1.1"/>
			<path fill="#F38E21" d="M44.1,122.2C44.1,122.2,44.1,122.2,44.1,122.2c0-0.1,0-0.2,0-0.3c0-0.2,0.1-0.5,0.3-0.7
				c0.1-0.1,0.3-0.2,0.5-0.3c0.1,0,0.1,0,0.2-0.1c0,0,0.1,0,0.2,0c0.1,0,0.2,0,0.4,0c0.2,0,0.5,0.1,0.7,0.3c0.1,0.1,0.2,0.2,0.2,0.3
				c0,0.1,0.1,0.1,0.1,0.2c0,0,0,0.1,0,0.1l0,0.1l0,0l0,0l0,0l0,0c0,0.1,0,0.3,0,0.4c0,0.1-0.1,0.3-0.1,0.4
				c-0.1,0.2-0.3,0.4-0.5,0.5c-0.2,0.1-0.5,0.1-0.7,0.1c-0.2,0-0.4-0.1-0.5-0.2c-0.3-0.2-0.4-0.4-0.5-0.6
				C44.2,122.4,44.2,122.4,44.1,122.2C44.1,122.3,44.1,122.2,44.1,122.2z M44.1,122.2C44.1,122.2,44.1,122.3,44.1,122.2
				c0,0.1,0,0.2,0.1,0.3c0,0.1,0.1,0.2,0.2,0.3c0.1,0.1,0.2,0.2,0.4,0.2c0.1,0,0.3,0.1,0.5,0c0.2,0,0.3-0.1,0.4-0.2
				c0.1-0.1,0.2-0.2,0.3-0.4c0-0.1,0-0.1,0-0.2c0-0.1,0-0.1,0-0.2c0,0,0,0,0,0l0,0l0,0l0,0l0,0l0,0c0,0,0,0,0-0.1c0,0,0-0.1,0-0.1
				c0-0.1-0.1-0.1-0.1-0.2c-0.1-0.1-0.2-0.2-0.4-0.3c-0.1,0-0.2-0.1-0.2-0.1c0,0-0.1,0-0.1,0c0,0-0.1,0-0.1,0
				c-0.2,0-0.3,0.1-0.4,0.2c-0.1,0.1-0.2,0.2-0.3,0.3c-0.1,0.1-0.1,0.2-0.1,0.3C44.1,122,44.1,122.1,44.1,122.2
				C44.1,122.2,44.1,122.2,44.1,122.2z"/>
		</g>
		<g>
			<circle fill="#F2EC72" cx="48.3" cy="128.6" r="1.8"/>
			<path fill="#F38E21" d="M46.5,128.2c0,0,0,0,0-0.1c0-0.1,0.1-0.2,0.1-0.3c0.1-0.3,0.4-0.7,0.9-0.9c0.3-0.1,0.6-0.2,0.9-0.2
				c0.1,0,0.2,0,0.3,0c0.1,0,0.2,0,0.2,0.1c0.2,0.1,0.3,0.1,0.5,0.2c0.2,0.1,0.3,0.2,0.4,0.4c0.1,0.2,0.2,0.3,0.3,0.5
				c0.1,0.2,0.1,0.4,0.2,0.6c0,0.1,0,0.2,0,0.3c0,0.1,0,0.1,0,0.2l0,0.1l0,0l0,0l0,0l0,0l0,0c0,0.2-0.1,0.4-0.2,0.6
				c-0.1,0.2-0.2,0.3-0.4,0.5c-0.2,0.1-0.3,0.2-0.5,0.3c-0.2,0.1-0.4,0.1-0.6,0.2c-0.4,0-0.8,0-1-0.2c-0.3-0.1-0.6-0.3-0.7-0.6
				c-0.4-0.4-0.5-0.9-0.5-1.2c0-0.2,0-0.3,0-0.4C46.5,128.3,46.5,128.2,46.5,128.2z M46.5,128.2c0,0,0,0,0,0.1c0,0,0,0.1,0,0.2
				c0,0.1,0,0.1,0,0.2c0,0.2,0,0.3,0.1,0.5c0.1,0.2,0.2,0.4,0.4,0.6c0.2,0.2,0.4,0.3,0.7,0.4c0.3,0.1,0.6,0.1,0.9,0
				c0.3-0.1,0.5-0.2,0.7-0.5c0.1-0.1,0.2-0.2,0.3-0.4c0.1-0.1,0.1-0.2,0.2-0.4c0,0,0,0,0,0l0,0l0,0l0,0l0,0l0-0.1c0,0,0-0.1,0-0.1
				c0-0.1,0-0.1,0-0.2c0-0.1,0-0.3-0.1-0.4c-0.1-0.3-0.3-0.5-0.5-0.7c-0.1-0.1-0.2-0.2-0.4-0.2c-0.1,0-0.1-0.1-0.2-0.1
				c-0.1,0-0.1,0-0.2-0.1c-0.3-0.1-0.6,0-0.8,0c-0.3,0.1-0.5,0.2-0.6,0.3c-0.2,0.1-0.3,0.3-0.4,0.4c0,0.1-0.1,0.1-0.1,0.2
				c0,0.1,0,0.1-0.1,0.1C46.5,128.2,46.5,128.2,46.5,128.2z"/>
		</g>
		<g>
			<circle fill="#F2EC72" cx="47.3" cy="116" r="1.4"/>
			<path fill="#F38E21" d="M45.9,116.1c0,0,0,0,0-0.1c0-0.1,0-0.2,0-0.3c0-0.2,0.2-0.6,0.5-0.9c0.2-0.2,0.4-0.3,0.6-0.4
				c0.1,0,0.1,0,0.2,0c0.1,0,0.1,0,0.2,0c0.2,0,0.3,0,0.4,0c0.1,0,0.3,0.1,0.4,0.2c0.1,0.1,0.3,0.2,0.4,0.3c0.2,0.3,0.4,0.6,0.4,0.9
				c0,0.1,0,0.1,0,0.2c0,0.1,0,0.2,0,0.3c0,0.2-0.1,0.3-0.2,0.5c-0.1,0.1-0.2,0.3-0.3,0.4c-0.1,0.1-0.3,0.2-0.4,0.2
				c-0.3,0.1-0.6,0.1-0.8,0.1c-0.3,0-0.5-0.1-0.7-0.3c-0.4-0.3-0.5-0.6-0.6-0.8c0-0.1-0.1-0.2-0.1-0.3
				C45.9,116.1,45.9,116.1,45.9,116.1z M45.9,116.1c0,0,0,0,0,0.1c0,0.1,0,0.2,0.1,0.3c0,0.1,0.1,0.2,0.2,0.4
				c0.1,0.1,0.3,0.2,0.4,0.3c0.2,0.1,0.4,0.1,0.6,0.1c0.2,0,0.4-0.1,0.6-0.2c0.2-0.1,0.3-0.3,0.4-0.5c0-0.1,0.1-0.2,0.1-0.3
				c0-0.1,0-0.1,0-0.2c0,0,0-0.1,0-0.2c0-0.2-0.1-0.4-0.2-0.6c-0.1-0.2-0.3-0.3-0.5-0.4c-0.1,0-0.2-0.1-0.3-0.1c0,0-0.1,0-0.2,0
				c0,0-0.1,0-0.2,0c-0.2,0-0.4,0.1-0.6,0.2c-0.2,0.1-0.3,0.3-0.4,0.4c-0.1,0.1-0.1,0.3-0.2,0.4c0,0.1,0,0.2,0,0.3
				C45.9,116,45.9,116.1,45.9,116.1z"/>
		</g>
		<g>
			<circle fill="#F2EC72" cx="41.1" cy="116.2" r="0.8"/>
			<path fill="#F38E21" d="M41,115.4C41,115.4,41,115.4,41,115.4c0.1,0,0.1,0,0.2,0c0.1,0,0.3,0.1,0.5,0.2c0.1,0.1,0.2,0.2,0.2,0.4
				c0,0,0,0.1,0,0.1c0,0,0,0.1,0,0.1c0,0.1,0,0.2,0,0.3c0,0.2-0.1,0.4-0.3,0.5c-0.1,0.1-0.2,0.1-0.3,0.2c-0.1,0-0.1,0-0.2,0.1
				c0,0-0.1,0-0.1,0l0,0l0,0l0,0l0,0l0,0c-0.1,0-0.2,0-0.3,0c-0.1,0-0.2-0.1-0.3-0.1c-0.2-0.1-0.3-0.3-0.4-0.5
				c-0.1-0.2-0.1-0.4,0-0.5c0-0.2,0.1-0.3,0.2-0.4c0.2-0.2,0.3-0.3,0.5-0.3C40.9,115.5,40.9,115.4,41,115.4
				C41,115.4,41,115.4,41,115.4z M41,115.4C41,115.4,41,115.4,41,115.4c-0.1,0-0.1,0-0.2,0.1c-0.1,0-0.1,0.1-0.2,0.1
				c-0.1,0.1-0.1,0.2-0.2,0.3c0,0.1,0,0.2,0,0.3c0,0.1,0.1,0.2,0.2,0.3c0.1,0.1,0.2,0.1,0.3,0.2c0,0,0.1,0,0.1,0c0.1,0,0.1,0,0.2,0
				c0,0,0,0,0,0l0,0l0,0l0,0l0,0l0,0c0,0,0,0,0,0c0,0,0,0,0.1,0c0,0,0.1,0,0.1-0.1c0.1,0,0.2-0.1,0.2-0.2c0,0,0.1-0.1,0.1-0.1
				c0,0,0-0.1,0-0.1c0,0,0-0.1,0-0.1c0-0.1,0-0.2-0.1-0.3c-0.1-0.1-0.1-0.2-0.2-0.2c-0.1-0.1-0.2-0.1-0.2-0.1
				C41.2,115.4,41.1,115.4,41,115.4C41,115.4,41,115.4,41,115.4z"/>
		</g>
		<g>
			<circle fill="#F2EC72" cx="39.9" cy="109.9" r="0.3"/>
			<path fill="#F38E21" d="M39.6,109.6C39.6,109.6,39.7,109.6,39.6,109.6c0.1-0.1,0.2-0.1,0.3-0.2c0.1,0,0.1,0,0.2,0c0,0,0,0,0.1,0
				c0,0,0,0,0.1,0c0,0,0.1,0.1,0.1,0.1c0.1,0.1,0.1,0.2,0.1,0.3c0,0.1,0,0.2-0.1,0.3c0,0,0,0-0.1,0.1c0,0-0.1,0-0.1,0.1
				c-0.1,0-0.1,0-0.2,0.1c-0.1,0-0.2,0-0.3-0.1c-0.1-0.1-0.2-0.1-0.2-0.2c0-0.1,0-0.2,0-0.2C39.5,109.8,39.6,109.8,39.6,109.6
				C39.6,109.7,39.6,109.6,39.6,109.6z M39.6,109.6C39.6,109.6,39.6,109.7,39.6,109.6c-0.1,0.1-0.1,0.2,0,0.3c0,0,0.1,0.1,0.1,0.1
				c0.1,0,0.1,0,0.1,0c0,0,0,0,0-0.1c0,0,0,0,0,0c0,0,0,0,0,0c0,0,0,0,0,0c0,0,0,0,0,0c0,0,0,0,0.1,0c0,0,0,0,0,0c0,0,0,0,0,0
				c0,0,0,0,0,0c0,0,0-0.1-0.1-0.1C39.8,109.6,39.7,109.6,39.6,109.6C39.7,109.6,39.6,109.6,39.6,109.6z"/>
		</g>
		<g>
			<circle fill="#F2EC72" cx="37" cy="113.7" r="0.9"/>
			<path fill="#F38E21" d="M36.3,113.1C36.3,113.1,36.3,113.1,36.3,113.1c0.1-0.1,0.1-0.1,0.2-0.2c0.1-0.1,0.3-0.2,0.6-0.2
				c0.1,0,0.3,0,0.5,0.1c0,0,0.1,0,0.1,0.1c0,0,0.1,0,0.1,0.1c0.1,0.1,0.1,0.1,0.2,0.2c0.1,0.2,0.2,0.4,0.2,0.6
				c0,0.2-0.1,0.5-0.3,0.6c-0.1,0.1-0.1,0.1-0.1,0.1c-0.1,0-0.1,0.1-0.2,0.1c-0.1,0.1-0.2,0.1-0.3,0.1c-0.2,0-0.5,0-0.7-0.1
				c-0.2-0.1-0.3-0.2-0.4-0.4c-0.1-0.2-0.1-0.3-0.2-0.5c0-0.3,0-0.5,0.1-0.6C36.2,113.2,36.2,113.2,36.3,113.1
				C36.3,113.1,36.3,113.1,36.3,113.1z M36.3,113.1C36.3,113.1,36.3,113.1,36.3,113.1c-0.1,0.1-0.1,0.1-0.1,0.2
				c0,0.1-0.1,0.2-0.1,0.3c0,0.1,0,0.2,0.1,0.3c0,0.1,0.1,0.2,0.2,0.3c0.1,0.1,0.2,0.1,0.4,0.1c0.1,0,0.2,0,0.4-0.1
				c0.1,0,0.1-0.1,0.2-0.1c0,0,0,0,0.1,0c0,0,0.1-0.1,0.1-0.1c0.1-0.1,0.1-0.2,0.2-0.3c0-0.1,0-0.2,0-0.4c0-0.1,0-0.1-0.1-0.2
				c0,0,0-0.1-0.1-0.1c0,0,0,0-0.1-0.1c-0.1-0.1-0.2-0.2-0.3-0.2c-0.1,0-0.2,0-0.3,0c-0.1,0-0.2,0.1-0.3,0.1
				C36.4,113,36.4,113,36.3,113.1C36.3,113.1,36.3,113.1,36.3,113.1z"/>
		</g>
		<g>
			<circle fill="#F2EC72" cx="43.5" cy="118.2" r="0.5"/>
			<path fill="#F38E21" d="M43.1,117.8C43.1,117.8,43.1,117.8,43.1,117.8c0.2-0.1,0.3-0.2,0.5-0.2c0.1,0,0.2,0,0.3,0c0,0,0,0,0.1,0
				c0,0,0,0,0.1,0c0.1,0,0.1,0.1,0.1,0.1c0.1,0.1,0.1,0.3,0.1,0.4c0,0.2-0.1,0.3-0.2,0.4c0,0,0,0-0.1,0.1c0,0-0.1,0.1-0.1,0.1
				c-0.1,0-0.1,0.1-0.2,0.1c-0.2,0-0.3,0-0.4-0.1c-0.1-0.1-0.2-0.2-0.3-0.3c-0.1-0.1-0.1-0.2-0.1-0.3c0-0.2,0.1-0.3,0.1-0.4
				C43,117.9,43.1,117.8,43.1,117.8z M43.1,117.8C43.1,117.8,43.1,117.8,43.1,117.8c0,0-0.1,0.1-0.1,0.1c0,0.1,0,0.2,0,0.3
				c0,0.1,0.1,0.1,0.1,0.1c0.1,0,0.1,0,0.2,0c0.1,0,0.1,0,0.1-0.1c0,0,0,0,0,0c0,0,0,0,0,0c0,0,0,0,0,0c0,0,0-0.1,0.1-0.1
				c0,0,0-0.1,0-0.1c0,0,0-0.1,0-0.1c0,0,0,0,0-0.1c0,0,0,0,0,0c0-0.1-0.1-0.1-0.1-0.1c-0.1-0.1-0.3,0-0.3,0
				C43.1,117.8,43.1,117.8,43.1,117.8C43.1,117.8,43.1,117.8,43.1,117.8z"/>
		</g>
		<g>
			<circle fill="#F2EC72" cx="43.1" cy="125.4" r="0.2"/>
			<path fill="#F38E21" d="M43,125.3C43,125.3,43,125.2,43,125.3c0.1-0.1,0.1-0.1,0.2-0.1c0,0,0.1,0,0.2,0c0,0,0,0,0.1,0
				c0,0,0,0,0,0c0,0,0.1,0,0.1,0.1c0.1,0.1,0.1,0.2,0.1,0.3c0,0.1,0,0.2-0.1,0.3c0,0,0,0-0.1,0c0,0,0,0-0.1,0c0,0-0.1,0-0.1,0
				c-0.1,0-0.2,0-0.3-0.1c-0.1-0.1-0.1-0.1-0.1-0.2c0-0.1,0-0.1,0-0.2C42.9,125.4,42.9,125.3,43,125.3C43,125.3,43,125.3,43,125.3z
				 M43,125.3C43,125.3,43,125.3,43,125.3c0,0.1,0,0.1,0,0.2c0,0,0.1,0,0.1,0c0,0,0.1,0,0.1-0.1c0,0,0-0.1,0-0.1c0,0,0,0,0,0
				C43.1,125.3,43.1,125.3,43,125.3C43,125.3,43.1,125.3,43,125.3c0.1,0.1,0.1,0.1,0.1,0.1c0,0,0,0,0.1,0c0,0,0,0,0,0c0,0,0,0,0,0
				c0,0,0,0,0,0c0,0,0-0.1,0-0.1C43.1,125.2,43.1,125.2,43,125.3C43,125.2,43,125.3,43,125.3z"/>
		</g>
		<g>
			<circle fill="#F2EC72" cx="50" cy="123.4" r="0.3"/>
			<path fill="#F38E21" d="M49.8,123.2C49.8,123.2,49.8,123.2,49.8,123.2c0.1-0.1,0.2-0.1,0.3-0.2c0.1,0,0.1,0,0.2,0c0,0,0,0,0.1,0
				c0,0,0,0,0,0c0,0,0.1,0.1,0.1,0.1c0.1,0.1,0.1,0.2,0.1,0.3c0,0.1,0,0.1,0,0.2c0,0,0,0.1,0,0.1c0,0,0,0,0,0l0,0l0,0l0,0
				c0,0-0.1,0.1-0.1,0.1c-0.1,0-0.1,0-0.2,0.1c-0.1,0-0.2,0-0.3-0.1c-0.1-0.1-0.1-0.1-0.2-0.2c0-0.1,0-0.1,0-0.2
				C49.7,123.4,49.7,123.4,49.8,123.2C49.8,123.3,49.8,123.2,49.8,123.2z M49.8,123.2C49.8,123.2,49.8,123.3,49.8,123.2
				c-0.1,0.1-0.1,0.2,0,0.2c0,0,0.1,0,0.1,0c0,0,0.1,0,0.1,0c0,0,0-0.1,0-0.1c0,0,0,0,0,0c0,0,0,0,0,0l0,0l0,0l0,0c0,0,0,0,0,0
				c0,0,0,0,0,0c0,0,0,0,0.1,0c0,0,0,0,0,0c0,0,0,0,0,0c0,0,0,0,0,0c0,0,0-0.1-0.1-0.1C50,123.2,49.9,123.2,49.8,123.2
				C49.8,123.2,49.8,123.2,49.8,123.2z"/>
		</g>
		<g>
			<circle fill="#F2EC72" cx="52.6" cy="115.2" r="0.3"/>
			<path fill="#F38E21" d="M52.4,115.1C52.4,115.1,52.5,115.1,52.4,115.1c0.1-0.1,0.1-0.1,0.2-0.2c0,0,0.1,0,0.2,0c0,0,0,0,0.1,0
				c0,0,0,0,0,0c0,0,0.1,0,0.1,0.1c0.1,0.1,0.1,0.2,0.1,0.3c0,0.1,0,0.2-0.1,0.3c0,0,0,0-0.1,0.1c0,0-0.1,0-0.1,0.1c0,0-0.1,0-0.2,0
				c-0.1,0-0.2,0-0.3-0.1c-0.1-0.1-0.1-0.1-0.1-0.2c0-0.1,0-0.1,0-0.2C52.3,115.2,52.4,115.2,52.4,115.1
				C52.4,115.1,52.4,115.1,52.4,115.1z M52.4,115.1C52.4,115.1,52.4,115.1,52.4,115.1c0,0.1,0,0.2,0,0.2c0,0,0.1,0,0.1,0
				c0,0,0.1,0,0.1,0c0,0,0-0.1,0-0.1c0,0,0,0,0,0c0,0,0,0,0,0c0,0,0,0,0,0c0,0,0,0,0,0c0,0,0,0,0.1,0c0,0,0,0,0,0c0,0,0,0,0,0
				c0,0,0,0,0,0c0,0,0-0.1,0-0.1C52.6,115,52.5,115,52.4,115.1C52.5,115.1,52.4,115.1,52.4,115.1z"/>
		</g>
		<g>
			<circle fill="#F2EC72" cx="44.4" cy="111.9" r="0.5"/>
			<path fill="#F38E21" d="M44.3,112.3c0,0,0,0-0.1-0.1c-0.1,0-0.2-0.1-0.2-0.3c0-0.1-0.1-0.2-0.1-0.3c0,0,0,0,0-0.1c0,0,0,0,0-0.1
				c0-0.1,0-0.1,0.1-0.2c0.1-0.1,0.2-0.2,0.3-0.3c0.1-0.1,0.3,0,0.5,0c0.1,0,0,0,0.1,0c0,0,0.1,0,0.1,0.1c0.1,0.1,0.1,0.1,0.1,0.2
				c0.1,0.1,0.1,0.3,0.1,0.4c0,0.1-0.1,0.2-0.2,0.3c-0.1,0.1-0.2,0.1-0.2,0.2c-0.2,0.1-0.3,0-0.4,0
				C44.3,112.4,44.3,112.3,44.3,112.3z M44.3,112.3C44.3,112.3,44.3,112.3,44.3,112.3c0.1,0,0.1,0,0.1,0c0.1,0,0.2,0,0.3-0.1
				c0,0,0.1-0.1,0.1-0.2c0-0.1,0-0.1-0.1-0.2c0,0-0.1-0.1-0.1-0.1l0,0c0,0,0,0,0,0c0,0,0,0,0,0c0,0-0.1,0-0.1,0c0,0-0.1,0-0.1,0
				c0,0-0.1,0-0.1,0c0,0,0,0,0,0c0,0,0,0,0,0c0,0-0.1,0.1-0.1,0.2c0,0.1,0.1,0.2,0.1,0.3C44.2,112.3,44.2,112.3,44.3,112.3
				C44.3,112.3,44.3,112.3,44.3,112.3z"/>
		</g>
		<g>
			<circle fill="#F2EC72" cx="53.2" cy="129.5" r="0.2"/>
			<path fill="#F38E21" d="M53,129.7C53,129.7,53,129.6,53,129.7c-0.1-0.1-0.1-0.1-0.1-0.2c0,0,0-0.1,0-0.2c0,0,0,0,0-0.1
				c0,0,0,0,0,0c0,0,0.1-0.1,0.1-0.1c0.1,0,0.2-0.1,0.3-0.1c0.1,0,0.2,0.1,0.3,0.2c0,0,0,0,0,0.1c0,0,0,0.1,0,0.1c0,0.1,0,0.1,0,0.2
				c0,0.1-0.1,0.2-0.1,0.2c-0.1,0.1-0.1,0.1-0.2,0.1c-0.1,0-0.1,0-0.2,0C53.1,129.8,53.1,129.7,53,129.7C53,129.7,53,129.7,53,129.7
				z M53.1,129.6C53.1,129.6,53.1,129.6,53.1,129.6C53.1,129.6,53.2,129.6,53.1,129.6C53.2,129.6,53.2,129.6,53.1,129.6
				C53.2,129.5,53.2,129.5,53.1,129.6C53.2,129.5,53.2,129.5,53.1,129.6c0.1-0.1,0-0.1,0-0.1c0,0-0.1,0-0.1,0
				c-0.1,0-0.1,0.1-0.1,0.1C53,129.6,53,129.7,53.1,129.6c-0.1,0.1-0.1,0.1,0,0.1C53.1,129.7,53.2,129.7,53.1,129.6
				c0.1,0.1,0.1,0,0.1,0C53.2,129.5,53.2,129.5,53.1,129.6C53.2,129.5,53.1,129.5,53.1,129.6"/>
		</g>
	</g>
	<g>
	</g>
	<g>
	</g>
	<g>
	</g>
	<g>
	</g>
	<g>
	</g>
	<g>
	</g>
</g>
</svg>
