<?xml version="1.0" encoding="utf-8"?>
<!-- Generator: Adobe Illustrator 19.1.0, SVG Export Plug-In . SVG Version: 6.00 Build 0)  -->
<svg version="1.1" xmlns="http://www.w3.org/2000/svg" xmlns:xlink="http://www.w3.org/1999/xlink" x="0px" y="0px" width="288px"
	 height="288px" viewBox="0 0 288 288" enable-background="new 0 0 288 288" xml:space="preserve">
<g id="bck">
	<path opacity="0.39" fill="#FFFFFF" d="M192.1,237.1c-56.8,26.1-117.8,39.8-143.9-7.1c-18.6-33.5-16.1-84.8,16.7-124.2
		C78,90,96.1,76.1,119.5,66c65.3-28,93.4,22.3,109.5,43.9C256.5,147,242.5,214,192.1,237.1z"/>
</g>
<g id="scale">
	<path fill="#C7C8CA" d="M149,106.7v4.9c-3.9,0-7.8,0-11.7,0v-4.9H149z"/>
	<path fill="#C7C8CA" d="M137.3,113.1c3.8,0,7.8,0,11.7,0V147h-11.7V113.1z"/>
	<path fill="#C7C8CA" d="M191.7,209.1c-0.1,1-0.2,1.8-0.4,2.3c-1.8,5.7-114.9,1.7-141-8.3c-3.4-1.3-5.3-2.7-5.3-4.2
		c0-0.7,0.4-1.4,1.2-2.1c0,0,45.1-40.5,56.9-45.5c11.8-5.1,77.3-0.3,81.3,2C188.3,155.3,192.7,197.3,191.7,209.1z"/>
	<path fill="#8C8E90" d="M191.4,221.3c-2,6.4-145.8,0.5-146.3-12.5v-0.2l0-9.8c0,1.5,1.9,2.9,5.3,4.2c26.1,10,139.2,14,141,8.3
		c0.2-0.5,0.3-1.3,0.4-2.3C192,215,191.9,219.6,191.4,221.3z"/>
	<path fill="#553278" d="M177.1,203.6c-0.1,0.8-0.2,1.4-0.3,1.8c-1.4,4.5-91.9,1.4-112.8-6.6c-2.7-1-4.3-2.2-4.3-3.4
		c0-0.5,0.3-1.1,1-1.7c0,0,36.1-32.4,45.5-36.4c9.4-4,61.8-0.2,65.1,1.6C174.3,160.5,177.9,194.2,177.1,203.6z"/>
	<path fill="#C7C8CA" d="M186.3,99.4c-0.1,6.2-1.2,11.6-4.6,12c-3.2,0.3-17.5,0.3-32.7,0.3c-3.9,0-7.8,0-11.7,0
		c-15.3-0.1-28.7-0.2-28.7-0.2c-1.6,0-2.3-4.1-2.4-9.3c0-0.1,0-0.3,0-0.4c-0.1-9.2,1.9-21.8,5.4-22.6c5.7-1.3,72-2.7,73,2.7
		C185.2,84.5,186.3,92.4,186.3,99.4z"/>
	<path fill="#8C8E90" d="M149,111.6v1.5c-3.9,0-7.8,0-11.7,0v-1.5C141.1,111.6,145.1,111.6,149,111.6z"/>
	<path fill="#8C8E90" d="M179.6,104.7c0.8-4.5-1.2-14.8-1.7-17.8c-0.7-4-61-3.7-64-1.3c0,0-1.4,14.1-0.7,19.4
		c-1.9-1.6,0-21.3,0-21.3c3-2.3,64.7-2.7,65.3,1.3C179.2,88.6,182,102.4,179.6,104.7z"/>
	<path fill="#FFFFFF" d="M179.6,104.7c-0.2,0.2-0.6,0.3-0.9,0.3c-4-0.3-63.3,1.3-65.3,0c0,0,0,0,0,0c-0.7-5.3,0.7-19.4,0.7-19.4
		c2.9-2.3,63.3-2.7,64,1.3C178.4,89.9,180.4,100.2,179.6,104.7z"/>
	<g>
		<path fill="#81B441" d="M120.7,86.9c0,0,0.2,0.1,0.4,0.3c0.1,0.1,0.3,0.2,0.4,0.4c0.1,0.1,0.1,0.1,0.2,0.2c0.1,0.1,0,0.2,0,0.3
			c0,0.7,0,1.7,0.1,2.6c0,1,0,1.9,0.1,2.6c0,0.1,0.1,0.2,0,0.3c-0.1,0.1-0.1,0.2-0.2,0.2c-0.1,0.1-0.3,0.3-0.4,0.4
			c-0.2,0.2-0.4,0.3-0.4,0.3s-0.2-0.1-0.4-0.3c-0.1-0.1-0.3-0.2-0.4-0.4c-0.1-0.1-0.1-0.1-0.2-0.2c-0.1-0.1,0-0.2,0-0.3
			c0-0.7,0-1.7-0.1-2.6c0-1,0-1.9-0.1-2.6c0-0.1-0.1-0.2,0-0.3c0.1-0.1,0.1-0.2,0.2-0.2c0.1-0.1,0.3-0.3,0.4-0.4
			C120.6,87,120.7,86.9,120.7,86.9z"/>
	</g>
	<g>
		<path fill="#81B441" d="M120.9,95.1c0,0,0.2,0.1,0.4,0.3c0.1,0.1,0.3,0.2,0.4,0.4c0.1,0.1,0.1,0.1,0.2,0.2c0.1,0.1,0,0.2,0,0.3
			c0,0.7,0,1.7,0.1,2.6c0,1,0,1.9,0.1,2.6c0,0.1,0.1,0.2,0,0.3c-0.1,0.1-0.1,0.2-0.2,0.2c-0.1,0.1-0.3,0.3-0.4,0.4
			c-0.2,0.2-0.4,0.3-0.4,0.3s-0.2-0.1-0.4-0.3c-0.1-0.1-0.3-0.2-0.4-0.4c-0.1-0.1-0.1-0.1-0.2-0.2c-0.1-0.1,0-0.2,0-0.3
			c0-0.7,0-1.7-0.1-2.6c0-1,0-1.9-0.1-2.6c0-0.1-0.1-0.2,0-0.3c0.1-0.1,0.1-0.2,0.2-0.2c0.1-0.1,0.3-0.3,0.4-0.4
			C120.7,95.2,120.9,95.1,120.9,95.1z"/>
	</g>
	<g>
		<path fill="#81B441" d="M133,86.8c0,0,0.2,0.1,0.4,0.3c0.1,0.1,0.3,0.2,0.4,0.4c0.1,0.1,0.1,0.1,0.2,0.2c0.1,0.1,0,0.2,0,0.3
			c0,0.7,0,1.7,0.1,2.6c0,1,0,1.9,0.1,2.6c0,0.1,0.1,0.2,0,0.3c-0.1,0.1-0.1,0.2-0.2,0.2c-0.1,0.1-0.3,0.3-0.4,0.4
			c-0.2,0.2-0.4,0.3-0.4,0.3s-0.2-0.1-0.4-0.3c-0.1-0.1-0.3-0.2-0.4-0.4c-0.1-0.1-0.1-0.1-0.2-0.2c-0.1-0.1,0-0.2,0-0.3
			c0-0.7,0-1.7-0.1-2.6c0-1,0-1.9-0.1-2.6c0-0.1-0.1-0.2,0-0.3c0.1-0.1,0.1-0.2,0.2-0.2c0.1-0.1,0.3-0.3,0.4-0.4
			C132.8,87,133,86.8,133,86.8z"/>
	</g>
	<g>
		<path fill="#81B441" d="M125.4,87c0,0,0.2,0.1,0.4,0.3c0.1,0.1,0.3,0.2,0.4,0.4c0.1,0.1,0.1,0.1,0.2,0.2c0.1,0.1,0,0.2,0,0.3
			c0,0.7,0,1.7,0.1,2.6c0,1,0,1.9,0.1,2.6c0,0.1,0.1,0.2,0,0.3c-0.1,0.1-0.1,0.2-0.2,0.2c-0.1,0.1-0.3,0.3-0.4,0.4
			c-0.2,0.2-0.4,0.3-0.4,0.3s-0.2-0.1-0.4-0.3c-0.1-0.1-0.3-0.2-0.4-0.4c-0.1-0.1-0.1-0.1-0.2-0.2c-0.1-0.1,0-0.2,0-0.3
			c0-0.7,0-1.7-0.1-2.6s0-1.9-0.1-2.6c0-0.1-0.1-0.2,0-0.3c0.1-0.1,0.1-0.2,0.2-0.2c0.1-0.1,0.3-0.3,0.4-0.4
			C125.3,87.2,125.4,87,125.4,87z"/>
	</g>
	<g>
		<path fill="#81B441" d="M133.1,95.1c0,0,0.2,0.1,0.4,0.3c0.1,0.1,0.3,0.2,0.4,0.4c0.1,0.1,0.1,0.1,0.2,0.2c0.1,0.1,0,0.2,0,0.3
			c0,0.7,0,1.7,0.1,2.6c0,1,0,1.9,0.1,2.6c0,0.1,0.1,0.2,0,0.3c-0.1,0.1-0.1,0.2-0.2,0.2c-0.1,0.1-0.3,0.3-0.4,0.4
			c-0.2,0.2-0.4,0.3-0.4,0.3s-0.2-0.1-0.4-0.3c-0.1-0.1-0.3-0.2-0.4-0.4c-0.1-0.1-0.1-0.1-0.2-0.2c-0.1-0.1,0-0.2,0-0.3
			c0-0.7,0-1.7-0.1-2.6c0-1,0-1.9-0.1-2.6c0-0.1-0.1-0.2,0-0.3c0.1-0.1,0.1-0.2,0.2-0.2c0.1-0.1,0.3-0.3,0.4-0.4
			C132.9,95.2,133.1,95.1,133.1,95.1z"/>
	</g>
	<g>
		<path fill="#81B441" d="M126,86.9c0,0,0.1-0.2,0.3-0.4c0.1-0.1,0.2-0.3,0.3-0.4c0.1-0.1,0.1-0.1,0.2-0.2c0.1-0.1,0.1,0,0.2,0
			c0.6,0,1.4,0,2.2,0s1.6,0,2.2,0c0.1,0,0.1-0.1,0.2,0c0.1,0.1,0.1,0.2,0.2,0.2c0.1,0.1,0.2,0.3,0.3,0.4c0.2,0.2,0.3,0.4,0.3,0.4
			s-0.1,0.2-0.3,0.4c-0.1,0.1-0.2,0.3-0.3,0.4c-0.1,0.1-0.1,0.1-0.2,0.2c-0.1,0.1-0.1,0-0.2,0c-0.6,0-1.4,0-2.2,0
			c-0.8,0-1.6,0-2.2,0c-0.1,0-0.1,0.1-0.2,0c-0.1-0.1-0.1-0.2-0.2-0.2c-0.1-0.1-0.2-0.3-0.3-0.4C126.1,87,126,86.9,126,86.9z"/>
	</g>
	<g>
		<path fill="#81B441" d="M126,95c0,0,0.1-0.2,0.3-0.4c0.1-0.1,0.2-0.3,0.3-0.4c0.1-0.1,0.1-0.1,0.2-0.2c0.1-0.1,0.1,0,0.2,0
			c0.6,0,1.4,0,2.2,0c0.8,0,1.6,0,2.2,0c0.1,0,0.1-0.1,0.2,0c0.1,0.1,0.1,0.2,0.2,0.2c0.1,0.1,0.2,0.3,0.3,0.4
			c0.2,0.2,0.3,0.4,0.3,0.4s-0.1,0.2-0.3,0.4c-0.1,0.1-0.2,0.3-0.3,0.4c-0.1,0.1-0.1,0.1-0.2,0.2c-0.1,0.1-0.1,0-0.2,0
			c-0.6,0-1.4,0-2.2,0c-0.8,0-1.6,0-2.2,0c-0.1,0-0.1,0.1-0.2,0c-0.1-0.1-0.1-0.2-0.2-0.2c-0.1-0.1-0.2-0.3-0.3-0.4
			C126.1,95.2,126,95,126,95z"/>
	</g>
	<g>
		<path fill="#81B441" d="M145.3,86.5c0,0,0.2,0.1,0.4,0.3c0.1,0.1,0.3,0.2,0.4,0.4c0.1,0.1,0.1,0.1,0.2,0.2c0.1,0.1,0,0.2,0,0.3
			c0,0.7,0,1.7,0.1,2.6s0,1.9,0.1,2.6c0,0.1,0.1,0.2,0,0.3c-0.1,0.1-0.1,0.2-0.2,0.2c-0.1,0.1-0.3,0.3-0.4,0.4
			c-0.2,0.2-0.4,0.3-0.4,0.3s-0.2-0.1-0.4-0.3c-0.1-0.1-0.3-0.2-0.4-0.4c-0.1-0.1-0.1-0.1-0.2-0.2c-0.1-0.1,0-0.2,0-0.3
			c0-0.7,0-1.7-0.1-2.6c0-1,0-1.9-0.1-2.6c0-0.1-0.1-0.2,0-0.3c0.1-0.1,0.1-0.2,0.2-0.2c0.1-0.1,0.3-0.3,0.4-0.4
			C145.2,86.7,145.3,86.5,145.3,86.5z"/>
	</g>
	<g>
		<path fill="#81B441" d="M137.9,87.1c0,0,0.2,0.1,0.4,0.3c0.1,0.1,0.3,0.2,0.4,0.4c0.1,0.1,0.1,0.1,0.2,0.2c0.1,0.1,0,0.2,0,0.3
			c0,0.7,0,1.7,0.1,2.6c0,1,0,1.9,0.1,2.6c0,0.1,0.1,0.2,0,0.3c-0.1,0.1-0.1,0.2-0.2,0.2c-0.1,0.1-0.3,0.3-0.4,0.4
			c-0.2,0.2-0.4,0.3-0.4,0.3s-0.2-0.1-0.4-0.3c-0.1-0.1-0.3-0.2-0.4-0.4c-0.1-0.1-0.1-0.1-0.2-0.2c-0.1-0.1,0-0.2,0-0.3
			c0-0.7,0-1.7-0.1-2.6c0-1,0-1.9-0.1-2.6c0-0.1-0.1-0.2,0-0.3c0.1-0.1,0.1-0.2,0.2-0.2c0.1-0.1,0.3-0.3,0.4-0.4
			C137.7,87.3,137.9,87.1,137.9,87.1z"/>
	</g>
	<g>
		<path fill="#81B441" d="M145.5,94.8c0,0,0.2,0.1,0.4,0.3c0.1,0.1,0.3,0.2,0.4,0.4c0.1,0.1,0.1,0.1,0.2,0.2c0.1,0.1,0,0.2,0,0.3
			c0,0.7,0,1.7,0.1,2.6c0,1,0,1.9,0.1,2.6c0,0.1,0.1,0.2,0,0.3c-0.1,0.1-0.1,0.2-0.2,0.2c-0.1,0.1-0.3,0.3-0.4,0.4
			c-0.2,0.2-0.4,0.3-0.4,0.3s-0.2-0.1-0.4-0.3c-0.1-0.1-0.3-0.2-0.4-0.4c-0.1-0.1-0.1-0.1-0.2-0.2c-0.1-0.1,0-0.2,0-0.3
			c0-0.7,0-1.7-0.1-2.6c0-1,0-1.9-0.1-2.6c0-0.1-0.1-0.2,0-0.3c0.1-0.1,0.1-0.2,0.2-0.2c0.1-0.1,0.3-0.3,0.4-0.4
			C145.3,94.9,145.5,94.8,145.5,94.8z"/>
	</g>
	<g>
		<path fill="#81B441" d="M137.9,95c0,0,0.2,0.1,0.4,0.3c0.1,0.1,0.3,0.2,0.4,0.4c0.1,0.1,0.1,0.1,0.2,0.2c0.1,0.1,0,0.2,0,0.3
			c0,0.7,0,1.7,0.1,2.6s0,1.9,0.1,2.6c0,0.1,0.1,0.2,0,0.3c-0.1,0.1-0.1,0.2-0.2,0.2c-0.1,0.1-0.3,0.3-0.4,0.4
			c-0.2,0.2-0.4,0.3-0.4,0.3s-0.2-0.1-0.4-0.3c-0.1-0.1-0.3-0.2-0.4-0.4c-0.1-0.1-0.1-0.1-0.2-0.2c-0.1-0.1,0-0.2,0-0.3
			c0-0.7,0-1.7-0.1-2.6c0-1,0-1.9-0.1-2.6c0-0.1-0.1-0.2,0-0.3c0.1-0.1,0.1-0.2,0.2-0.2c0.1-0.1,0.3-0.3,0.4-0.4
			C137.7,95.1,137.9,95,137.9,95z"/>
	</g>
	<g>
		<path fill="#81B441" d="M138.4,86.6c0,0,0.1-0.2,0.3-0.4c0.1-0.1,0.2-0.3,0.3-0.4c0.1-0.1,0.1-0.1,0.2-0.2c0.1-0.1,0.1,0,0.2,0
			c0.6,0,1.4,0,2.2,0c0.8,0,1.6,0,2.2,0c0.1,0,0.1-0.1,0.2,0c0.1,0.1,0.1,0.2,0.2,0.2c0.1,0.1,0.2,0.3,0.3,0.4
			c0.2,0.2,0.3,0.4,0.3,0.4s-0.1,0.2-0.3,0.4c-0.1,0.1-0.2,0.3-0.3,0.4c-0.1,0.1-0.1,0.1-0.2,0.2c-0.1,0.1-0.1,0-0.2,0
			c-0.6,0-1.4,0-2.2,0s-1.6,0-2.2,0c-0.1,0-0.1,0.1-0.2,0c-0.1-0.1-0.1-0.2-0.2-0.2c-0.1-0.1-0.2-0.3-0.3-0.4
			C138.5,86.7,138.4,86.6,138.4,86.6z"/>
	</g>
	<g>
		<path fill="#81B441" d="M138.8,102.7c0,0,0.1-0.2,0.3-0.4c0.1-0.1,0.2-0.3,0.3-0.4c0.1-0.1,0.1-0.1,0.2-0.2c0.1-0.1,0.1,0,0.2,0
			c0.6,0,1.4,0,2.2,0c0.8,0,1.6,0,2.2,0c0.1,0,0.1-0.1,0.2,0c0.1,0.1,0.1,0.2,0.2,0.2c0.1,0.1,0.2,0.3,0.3,0.4
			c0.2,0.2,0.3,0.4,0.3,0.4s-0.1,0.2-0.3,0.4c-0.1,0.1-0.2,0.3-0.3,0.4c-0.1,0.1-0.1,0.1-0.2,0.2c-0.1,0.1-0.1,0-0.2,0
			c-0.6,0-1.4,0-2.2,0s-1.6,0-2.2,0c-0.1,0-0.1,0.1-0.2,0c-0.1-0.1-0.1-0.2-0.2-0.2c-0.1-0.1-0.2-0.3-0.3-0.4
			C138.9,102.9,138.8,102.7,138.8,102.7z"/>
	</g>
	<g>
		<path fill="#81B441" d="M168.1,87c0,0,0.2,0.1,0.4,0.3c0.1,0.1,0.3,0.2,0.4,0.4c0.1,0.1,0.1,0.1,0.2,0.2c0.1,0.1,0,0.2,0,0.3
			c0,0.7,0,1.7,0.1,2.6c0,1,0,1.9,0.1,2.6c0,0.1,0.1,0.2,0,0.3c-0.1,0.1-0.1,0.2-0.2,0.2c-0.1,0.1-0.3,0.3-0.4,0.4
			c-0.2,0.2-0.4,0.3-0.4,0.3s-0.2-0.1-0.4-0.3c-0.1-0.1-0.3-0.2-0.4-0.4c-0.1-0.1-0.1-0.1-0.2-0.2c-0.1-0.1,0-0.2,0-0.3
			c0-0.7,0-1.7-0.1-2.6s0-1.9-0.1-2.6c0-0.1-0.1-0.2,0-0.3c0.1-0.1,0.1-0.2,0.2-0.2c0.1-0.1,0.3-0.3,0.4-0.4
			C167.9,87.2,168.1,87,168.1,87z"/>
	</g>
	<g>
		<path fill="#81B441" d="M168.1,94.9c0,0,0.2,0.1,0.4,0.3c0.1,0.1,0.3,0.2,0.4,0.4c0.1,0.1,0.1,0.1,0.2,0.2c0.1,0.1,0,0.2,0,0.3
			c0,0.7,0,1.7,0.1,2.6c0,1,0,1.9,0.1,2.6c0,0.1,0.1,0.2,0,0.3c-0.1,0.1-0.1,0.2-0.2,0.2c-0.1,0.1-0.3,0.3-0.4,0.4
			c-0.2,0.2-0.4,0.3-0.4,0.3s-0.2-0.1-0.4-0.3c-0.1-0.1-0.3-0.2-0.4-0.4c-0.1-0.1-0.1-0.1-0.2-0.2c-0.1-0.1,0-0.2,0-0.3
			c0-0.7,0-1.7-0.1-2.6s0-1.9-0.1-2.6c0-0.1-0.1-0.2,0-0.3c0.1-0.1,0.1-0.2,0.2-0.2c0.1-0.1,0.3-0.3,0.4-0.4
			C167.9,95,168.1,94.9,168.1,94.9z"/>
	</g>
	<g>
		<path fill="#81B441" d="M169.2,94.8c0,0,0.1-0.2,0.3-0.4c0.1-0.1,0.2-0.3,0.3-0.4c0.1-0.1,0.1-0.1,0.2-0.2c0.1-0.1,0.1,0,0.2,0
			c0.6,0,1.4,0,2.2,0c0.8,0,1.6,0,2.2,0c0.1,0,0.1-0.1,0.2,0c0.1,0.1,0.1,0.2,0.2,0.2c0.1,0.1,0.2,0.3,0.3,0.4
			c0.2,0.2,0.3,0.4,0.3,0.4s-0.1,0.2-0.3,0.4c-0.1,0.1-0.2,0.3-0.3,0.4c-0.1,0.1-0.1,0.1-0.2,0.2c-0.1,0.1-0.1,0-0.2,0
			c-0.6,0-1.4,0-2.2,0c-0.8,0-1.6,0-2.2,0c-0.1,0-0.1,0.1-0.2,0c-0.1-0.1-0.1-0.2-0.2-0.2c-0.1-0.1-0.2-0.3-0.3-0.4
			C169.3,95,169.2,94.8,169.2,94.8z"/>
	</g>
	<g>
		<path fill="#81B441" d="M169,102.9c0,0,0.1-0.2,0.3-0.4c0.1-0.1,0.2-0.3,0.3-0.4c0.1-0.1,0.1-0.1,0.2-0.2c0.1-0.1,0.1,0,0.2,0
			c0.6,0,1.4,0,2.2,0c0.8,0,1.6,0,2.2,0c0.1,0,0.1-0.1,0.2,0c0.1,0.1,0.1,0.2,0.2,0.2c0.1,0.1,0.2,0.3,0.3,0.4
			c0.2,0.2,0.3,0.4,0.3,0.4s-0.1,0.2-0.3,0.4c-0.1,0.1-0.2,0.3-0.3,0.4c-0.1,0.1-0.1,0.1-0.2,0.2c-0.1,0.1-0.1,0-0.2,0
			c-0.6,0-1.4,0-2.2,0c-0.8,0-1.6,0-2.2,0c-0.1,0-0.1,0.1-0.2,0c-0.1-0.1-0.1-0.2-0.2-0.2c-0.1-0.1-0.2-0.3-0.3-0.4
			C169.1,103.1,169,102.9,169,102.9z"/>
	</g>
	<path fill="#33134D" d="M91.4,182.3c0,0-6.6,4.5,0.5,9.7s14.5,8,33.9,1.6s21.5-8,34.9-7.6s16.9-8.1,13-11.7
		C169.7,170.7,91.4,182.3,91.4,182.3z"/>
</g>
<g id="moth">
	<g>
		<path fill="#5B87DA" d="M254.8,62.6c-0.2,6-2.2,22.8-19.8,26.8c0,0-8.7,82.3-66.4,89.9c-57.7,7.6-51.1,15.8-71.2,11.4
			c-20.1-4.4-41.2-29.1-42.1-32.2c-0.2-0.7-0.3-1.3-0.2-1.8c0.1-0.7,0.4-1.1,0.9-1.2c0.5-0.2,1.1,0,1.5,0.4c0.7,0.8,1.7,1.9,2.5,2
			c0.1,0,0.3,0,0.4-0.1c0.1,0,0.2-0.1,0.3-0.3c0.1-0.1,0.1-0.2,0.2-0.3l0,0c0.2-0.5,0.2-0.8,0.2-1c0-0.1,0-0.1,0-0.2
			c0-0.1-0.1-0.2-0.1-0.2c-0.1-0.1-0.2-0.2-0.4-0.2c0,0,0,0,0,0c-0.1,0-0.1,0-0.1,0c0,0-0.1,0-0.1,0s-2.8-1.4-2-3.1
			c0-0.1,0.1-0.2,0.1-0.2c0.2-0.3,1-0.5,2.3-0.7c5.6-0.7,20.2-0.8,36.8-8.4c0,0,7.6,0.7,15-1.1c7.4-1.8,11.4-2.9,35.7-2.9
			s38.8-8.1,42.6-14.9c0,0,1.8,11.1,16-7.1s17.4-30.3,17.4-30.3s-0.4-0.5-1-1.3c-2.1-2.9-6.6-10.3-5.7-18.1c0.2-2.2,1-4.5,2.3-6.7
			c2.1-3.4,3.2-5.2,3.7-5.8c0.6-0.8,0.3,0.2,0.2,1.9c-0.2,1.7-0.3,4,0.5,6.1c2.4,6,7.2,6.9,7.2,11.6c0,4.7,3.5,0.5,4.2-1.1
			c0.7-1.6,5.1-4.2,8.5-4.7c3.4-0.5,8-8,8.3-11.1c0.2-1.5,0.8-1.8,1.3-1.1h0c0.4,0.5,0.8,1.7,1,3.3v0
			C254.8,60.8,254.8,61.7,254.8,62.6z"/>
		<path fill="#FFFFFF" d="M113.2,170.4c0,0-5.6,1.3-15.6-4.3c-10-5.6-8-3.2-16.4-3c-8.4,0.2-19.6-3.2-21.3-5.1
			c0.3,0,0.6-0.1,0.8-0.6c0.5-1.2,0-1.6-0.3-1.7c2.1,0.5,21.1,4.7,35.3,3.6C95.6,159.3,100.7,171,113.2,170.4z"/>
		<path fill="#4B6798" d="M126.4,171.5c0,0,5.6,10.9,22.4,4.4s14-11,14-11s-2.3,3.3-15.4-1c-13.1-4.2-18.1,5.3-18.1,5.3
			s5.9-8.4,17.9-4.6c5.7,2,12.1,2.9,14.8,1.5c-1.7,2.6-5.1,5.4-11,7.8C145.2,176.3,134.5,179.7,126.4,171.5z"/>
		<path fill="#4B6798" d="M117.9,166.8c0,0,6.3-6.3-4.8-6.7s-9.8,5.2-9.8,5.2s-0.9-4.7,9.8-4.6C116.7,161.1,120.6,161.3,117.9,166.8
			z"/>
		<path fill="#010101" d="M111.9,166.8c0,0-2.4,0.3-4.6,0.1c-0.4-0.4-1.2-1.5-0.1-2.7c0,0,0.1,0,0.1,0c0.3,0,0.5-0.1,0.8-0.1
			C108.1,164,109.2,166.9,111.9,166.8z"/>
		<path fill="#FFFFFF" d="M107.3,166.9c-1.4-0.1-2.7-0.4-3.3-1c0,0,1-1.3,3.1-1.7C106.1,165.4,106.8,166.4,107.3,166.9z"/>
	</g>
	<path fill="#4B6798" d="M224.1,86.9c0,0-0.4-0.5-1-1.3c-2.1-2.9-6.6-10.3-5.7-18.1c0.2-2.2,1-4.5,2.3-6.7
		c-2.1,9.2-0.8,10.7,1.6,16.3C224,83.4,224.1,86.9,224.1,86.9z"/>
	<path fill="#4B6798" d="M254.8,62.6c-0.2,6-2.2,22.8-19.8,26.8c0,0-8.7,82.3-66.4,89.9c-57.7,7.6-51.1,15.8-71.2,11.4
		c-20.1-4.4-41.2-29.1-42.1-32.2c-0.2-0.7-0.3-1.3-0.2-1.8c11.7,15.2,33.5,37.7,56.8,31.5c34.4-9.2,50.9-6.8,65.4-13
		c47-21.8,54.5-78.2,55.8-86.5c25.2-7.5,20.7-32.1,20.7-32.1h0c0.4,0.5,0.8,1.7,1,3.3v0C254.8,60.8,254.8,61.7,254.8,62.6z"/>
	<g>
	</g>
	<g>
	</g>
	<g>
	</g>
	<g>
	</g>
	<g>
	</g>
	<g>
	</g>
</g>
</svg>
