<?xml version="1.0" encoding="utf-8"?>
<!-- Generator: Adobe Illustrator 19.1.0, SVG Export Plug-In . SVG Version: 6.00 Build 0)  -->
<svg version="1.1" xmlns="http://www.w3.org/2000/svg" xmlns:xlink="http://www.w3.org/1999/xlink" x="0px" y="0px" width="242.9px"
	 height="169.3px" viewBox="0 0 242.9 169.3" enable-background="new 0 0 242.9 169.3" xml:space="preserve">
<g id="scale">
	<path fill="#C7C8CA" d="M137.1,52v4.9c-3.9,0-7.8,0-11.7,0V52H137.1z"/>
	<path fill="#C7C8CA" d="M125.4,58.4c3.8,0,7.8,0,11.7,0v33.9h-11.7V58.4z"/>
	<path fill="#C7C8CA" d="M179.9,154.4c-0.1,1-0.2,1.8-0.4,2.3c-1.8,5.7-114.9,1.7-141-8.3c-3.4-1.3-5.3-2.7-5.3-4.2
		c0-0.7,0.4-1.4,1.2-2.1c0,0,45.1-40.5,56.9-45.5c11.8-5.1,77.3-0.3,81.3,2C176.4,100.6,180.9,142.6,179.9,154.4z"/>
	<path fill="#8C8E90" d="M179.5,166.6c-2,6.4-145.8,0.5-146.3-12.5V154l0-9.8c0,1.5,1.9,2.9,5.3,4.2c26.1,10,139.2,14,141,8.3
		c0.2-0.5,0.3-1.3,0.4-2.3C180.1,160.3,180.1,164.9,179.5,166.6z"/>
	<path fill="#553278" d="M165.2,148.9c-0.1,0.8-0.2,1.4-0.3,1.8c-1.4,4.5-91.9,1.4-112.8-6.6c-2.7-1-4.3-2.2-4.3-3.4
		c0-0.5,0.3-1.1,1-1.7c0,0,36.1-32.4,45.5-36.4c9.4-4,61.8-0.2,65.1,1.6C162.4,105.8,166,139.5,165.2,148.9z"/>
	<path fill="#C7C8CA" d="M174.4,44.7c-0.1,6.2-1.2,11.6-4.6,12c-3.2,0.3-17.5,0.3-32.7,0.3c-3.9,0-7.8,0-11.7,0
		c-15.3-0.1-28.7-0.2-28.7-0.2c-1.6,0-2.3-4.1-2.4-9.3c0-0.1,0-0.3,0-0.4c-0.1-9.2,1.9-21.8,5.4-22.6c5.7-1.3,72-2.7,73,2.7
		C173.3,29.8,174.5,37.7,174.4,44.7z"/>
	<path fill="#8C8E90" d="M137.1,56.9v1.5c-3.9,0-7.8,0-11.7,0v-1.5C129.3,56.9,133.2,56.9,137.1,56.9z"/>
	<path fill="#8C8E90" d="M167.7,50c0.8-4.5-1.2-14.8-1.7-17.8c-0.7-4-61-3.7-64-1.3c0,0-1.4,14.1-0.7,19.4c-1.9-1.6,0-21.3,0-21.3
		c3-2.3,64.7-2.7,65.3,1.3C167.4,33.9,170.2,47.7,167.7,50z"/>
	<path fill="#FFFFFF" d="M167.7,50c-0.2,0.2-0.6,0.3-0.9,0.3c-4-0.3-63.3,1.3-65.3,0c0,0,0,0,0,0c-0.7-5.3,0.7-19.4,0.7-19.4
		c2.9-2.3,63.3-2.7,64,1.3C166.5,35.2,168.5,45.5,167.7,50z"/>
	<g>
		<path fill="#81B441" d="M108.9,32.2c0,0,0.2,0.1,0.4,0.3c0.1,0.1,0.3,0.2,0.4,0.4c0.1,0.1,0.1,0.1,0.2,0.2c0.1,0.1,0,0.2,0,0.3
			c0,0.7,0,1.7,0.1,2.6c0,1,0,1.9,0.1,2.6c0,0.1,0.1,0.2,0,0.3c-0.1,0.1-0.1,0.2-0.2,0.2c-0.1,0.1-0.3,0.3-0.4,0.4
			c-0.2,0.2-0.4,0.3-0.4,0.3s-0.2-0.1-0.4-0.3c-0.1-0.1-0.3-0.2-0.4-0.4c-0.1-0.1-0.1-0.1-0.2-0.2c-0.1-0.1,0-0.2,0-0.3
			c0-0.7,0-1.7-0.1-2.6c0-1,0-1.9-0.1-2.6c0-0.1-0.1-0.2,0-0.3c0.1-0.1,0.1-0.2,0.2-0.2c0.1-0.1,0.3-0.3,0.4-0.4
			C108.7,32.3,108.9,32.2,108.9,32.2z"/>
	</g>
	<g>
		<path fill="#81B441" d="M109,40.4c0,0,0.2,0.1,0.4,0.3c0.1,0.1,0.3,0.2,0.4,0.4c0.1,0.1,0.1,0.1,0.2,0.2c0.1,0.1,0,0.2,0,0.3
			c0,0.7,0,1.7,0.1,2.6c0,1,0,1.9,0.1,2.6c0,0.1,0.1,0.2,0,0.3c-0.1,0.1-0.1,0.2-0.2,0.2c-0.1,0.1-0.3,0.3-0.4,0.4
			c-0.2,0.2-0.4,0.3-0.4,0.3s-0.2-0.1-0.4-0.3c-0.1-0.1-0.3-0.2-0.4-0.4c-0.1-0.1-0.1-0.1-0.2-0.2c-0.1-0.1,0-0.2,0-0.3
			c0-0.7,0-1.7-0.1-2.6c0-1,0-1.9-0.1-2.6c0-0.1-0.1-0.2,0-0.3c0.1-0.1,0.1-0.2,0.2-0.2c0.1-0.1,0.3-0.3,0.4-0.4
			C108.8,40.5,109,40.4,109,40.4z"/>
	</g>
	<g>
		<path fill="#81B441" d="M121.1,32.2c0,0,0.2,0.1,0.4,0.3c0.1,0.1,0.3,0.2,0.4,0.4c0.1,0.1,0.1,0.1,0.2,0.2c0.1,0.1,0,0.2,0,0.3
			c0,0.7,0,1.7,0.1,2.6c0,1,0,1.9,0.1,2.6c0,0.1,0.1,0.2,0,0.3c-0.1,0.1-0.1,0.2-0.2,0.2c-0.1,0.1-0.3,0.3-0.4,0.4
			c-0.2,0.2-0.4,0.3-0.4,0.3s-0.2-0.1-0.4-0.3c-0.1-0.1-0.3-0.2-0.4-0.4c-0.1-0.1-0.1-0.1-0.2-0.2c-0.1-0.1,0-0.2,0-0.3
			c0-0.7,0-1.7-0.1-2.6c0-1,0-1.9-0.1-2.6c0-0.1-0.1-0.2,0-0.3c0.1-0.1,0.1-0.2,0.2-0.2c0.1-0.1,0.3-0.3,0.4-0.4
			C120.9,32.3,121.1,32.2,121.1,32.2z"/>
	</g>
	<g>
		<path fill="#81B441" d="M113.6,32.4c0,0,0.2,0.1,0.4,0.3c0.1,0.1,0.3,0.2,0.4,0.4c0.1,0.1,0.1,0.1,0.2,0.2c0.1,0.1,0,0.2,0,0.3
			c0,0.7,0,1.7,0.1,2.6c0,1,0,1.9,0.1,2.6c0,0.1,0.1,0.2,0,0.3c-0.1,0.1-0.1,0.2-0.2,0.2c-0.1,0.1-0.3,0.3-0.4,0.4
			c-0.2,0.2-0.4,0.3-0.4,0.3s-0.2-0.1-0.4-0.3c-0.1-0.1-0.3-0.2-0.4-0.4c-0.1-0.1-0.1-0.1-0.2-0.2c-0.1-0.1,0-0.2,0-0.3
			c0-0.7,0-1.7-0.1-2.6s0-1.9-0.1-2.6c0-0.1-0.1-0.2,0-0.3c0.1-0.1,0.1-0.2,0.2-0.2c0.1-0.1,0.3-0.3,0.4-0.4
			C113.4,32.5,113.6,32.4,113.6,32.4z"/>
	</g>
	<g>
		<path fill="#81B441" d="M121.2,40.4c0,0,0.2,0.1,0.4,0.3c0.1,0.1,0.3,0.2,0.4,0.4c0.1,0.1,0.1,0.1,0.2,0.2c0.1,0.1,0,0.2,0,0.3
			c0,0.7,0,1.7,0.1,2.6c0,1,0,1.9,0.1,2.6c0,0.1,0.1,0.2,0,0.3c-0.1,0.1-0.1,0.2-0.2,0.2c-0.1,0.1-0.3,0.3-0.4,0.4
			c-0.2,0.2-0.4,0.3-0.4,0.3s-0.2-0.1-0.4-0.3c-0.1-0.1-0.3-0.2-0.4-0.4c-0.1-0.1-0.1-0.1-0.2-0.2c-0.1-0.1,0-0.2,0-0.3
			c0-0.7,0-1.7-0.1-2.6c0-1,0-1.9-0.1-2.6c0-0.1-0.1-0.2,0-0.3c0.1-0.1,0.1-0.2,0.2-0.2c0.1-0.1,0.3-0.3,0.4-0.4
			C121.1,40.5,121.2,40.4,121.2,40.4z"/>
	</g>
	<g>
		<path fill="#81B441" d="M114.1,32.2c0,0,0.1-0.2,0.3-0.4c0.1-0.1,0.2-0.3,0.3-0.4c0.1-0.1,0.1-0.1,0.2-0.2c0.1-0.1,0.1,0,0.2,0
			c0.6,0,1.4,0,2.2,0s1.6,0,2.2,0c0.1,0,0.1-0.1,0.2,0c0.1,0.1,0.1,0.2,0.2,0.2c0.1,0.1,0.2,0.3,0.3,0.4c0.2,0.2,0.3,0.4,0.3,0.4
			s-0.1,0.2-0.3,0.4c-0.1,0.1-0.2,0.3-0.3,0.4c-0.1,0.1-0.1,0.1-0.2,0.2c-0.1,0.1-0.1,0-0.2,0c-0.6,0-1.4,0-2.2,0
			c-0.8,0-1.6,0-2.2,0c-0.1,0-0.1,0.1-0.2,0c-0.1-0.1-0.1-0.2-0.2-0.2c-0.1-0.1-0.2-0.3-0.3-0.4C114.2,32.3,114.1,32.2,114.1,32.2z"
			/>
	</g>
	<g>
		<path fill="#81B441" d="M114.1,40.3c0,0,0.1-0.2,0.3-0.4c0.1-0.1,0.2-0.3,0.3-0.4c0.1-0.1,0.1-0.1,0.2-0.2c0.1-0.1,0.1,0,0.2,0
			c0.6,0,1.4,0,2.2,0c0.8,0,1.6,0,2.2,0c0.1,0,0.1-0.1,0.2,0c0.1,0.1,0.1,0.2,0.2,0.2c0.1,0.1,0.2,0.3,0.3,0.4
			c0.2,0.2,0.3,0.4,0.3,0.4s-0.1,0.2-0.3,0.4c-0.1,0.1-0.2,0.3-0.3,0.4c-0.1,0.1-0.1,0.1-0.2,0.2c-0.1,0.1-0.1,0-0.2,0
			c-0.6,0-1.4,0-2.2,0c-0.8,0-1.6,0-2.2,0c-0.1,0-0.1,0.1-0.2,0c-0.1-0.1-0.1-0.2-0.2-0.2c-0.1-0.1-0.2-0.3-0.3-0.4
			C114.2,40.5,114.1,40.3,114.1,40.3z"/>
	</g>
	<g>
		<path fill="#81B441" d="M133.5,31.8c0,0,0.2,0.1,0.4,0.3c0.1,0.1,0.3,0.2,0.4,0.4c0.1,0.1,0.1,0.1,0.2,0.2c0.1,0.1,0,0.2,0,0.3
			c0,0.7,0,1.7,0.1,2.6s0,1.9,0.1,2.6c0,0.1,0.1,0.2,0,0.3c-0.1,0.1-0.1,0.2-0.2,0.2c-0.1,0.1-0.3,0.3-0.4,0.4
			c-0.2,0.2-0.4,0.3-0.4,0.3s-0.2-0.1-0.4-0.3c-0.1-0.1-0.3-0.2-0.4-0.4c-0.1-0.1-0.1-0.1-0.2-0.2c-0.1-0.1,0-0.2,0-0.3
			c0-0.7,0-1.7-0.1-2.6c0-1,0-1.9-0.1-2.6c0-0.1-0.1-0.2,0-0.3c0.1-0.1,0.1-0.2,0.2-0.2c0.1-0.1,0.3-0.3,0.4-0.4
			C133.3,32,133.5,31.8,133.5,31.8z"/>
	</g>
	<g>
		<path fill="#81B441" d="M126,32.5c0,0,0.2,0.1,0.4,0.3c0.1,0.1,0.3,0.2,0.4,0.4c0.1,0.1,0.1,0.1,0.2,0.2c0.1,0.1,0,0.2,0,0.3
			c0,0.7,0,1.7,0.1,2.6c0,1,0,1.9,0.1,2.6c0,0.1,0.1,0.2,0,0.3c-0.1,0.1-0.1,0.2-0.2,0.2c-0.1,0.1-0.3,0.3-0.4,0.4
			c-0.2,0.2-0.4,0.3-0.4,0.3s-0.2-0.1-0.4-0.3c-0.1-0.1-0.3-0.2-0.4-0.4c-0.1-0.1-0.1-0.1-0.2-0.2c-0.1-0.1,0-0.2,0-0.3
			c0-0.7,0-1.7-0.1-2.6c0-1,0-1.9-0.1-2.6c0-0.1-0.1-0.2,0-0.3c0.1-0.1,0.1-0.2,0.2-0.2c0.1-0.1,0.3-0.3,0.4-0.4
			C125.9,32.6,126,32.5,126,32.5z"/>
	</g>
	<g>
		<path fill="#81B441" d="M133.6,40.1c0,0,0.2,0.1,0.4,0.3c0.1,0.1,0.3,0.2,0.4,0.4c0.1,0.1,0.1,0.1,0.2,0.2c0.1,0.1,0,0.2,0,0.3
			c0,0.7,0,1.7,0.1,2.6c0,1,0,1.9,0.1,2.6c0,0.1,0.1,0.2,0,0.3c-0.1,0.1-0.1,0.2-0.2,0.2c-0.1,0.1-0.3,0.3-0.4,0.4
			c-0.2,0.2-0.4,0.3-0.4,0.3s-0.2-0.1-0.4-0.3c-0.1-0.1-0.3-0.2-0.4-0.4c-0.1-0.1-0.1-0.1-0.2-0.2c-0.1-0.1,0-0.2,0-0.3
			c0-0.7,0-1.7-0.1-2.6c0-1,0-1.9-0.1-2.6c0-0.1-0.1-0.2,0-0.3c0.1-0.1,0.1-0.2,0.2-0.2c0.1-0.1,0.3-0.3,0.4-0.4
			C133.5,40.2,133.6,40.1,133.6,40.1z"/>
	</g>
	<g>
		<path fill="#81B441" d="M126,40.3c0,0,0.2,0.1,0.4,0.3c0.1,0.1,0.3,0.2,0.4,0.4c0.1,0.1,0.1,0.1,0.2,0.2c0.1,0.1,0,0.2,0,0.3
			c0,0.7,0,1.7,0.1,2.6s0,1.9,0.1,2.6c0,0.1,0.1,0.2,0,0.3c-0.1,0.1-0.1,0.2-0.2,0.2c-0.1,0.1-0.3,0.3-0.4,0.4
			c-0.2,0.2-0.4,0.3-0.4,0.3s-0.2-0.1-0.4-0.3c-0.1-0.1-0.3-0.2-0.4-0.4c-0.1-0.1-0.1-0.1-0.2-0.2c-0.1-0.1,0-0.2,0-0.3
			c0-0.7,0-1.7-0.1-2.6c0-1,0-1.9-0.1-2.6c0-0.1-0.1-0.2,0-0.3c0.1-0.1,0.1-0.2,0.2-0.2c0.1-0.1,0.3-0.3,0.4-0.4
			C125.9,40.5,126,40.3,126,40.3z"/>
	</g>
	<g>
		<path fill="#81B441" d="M126.5,31.9c0,0,0.1-0.2,0.3-0.4c0.1-0.1,0.2-0.3,0.3-0.4c0.1-0.1,0.1-0.1,0.2-0.2c0.1-0.1,0.1,0,0.2,0
			c0.6,0,1.4,0,2.2,0c0.8,0,1.6,0,2.2,0c0.1,0,0.1-0.1,0.2,0c0.1,0.1,0.1,0.2,0.2,0.2c0.1,0.1,0.2,0.3,0.3,0.4
			c0.2,0.2,0.3,0.4,0.3,0.4s-0.1,0.2-0.3,0.4c-0.1,0.1-0.2,0.3-0.3,0.4c-0.1,0.1-0.1,0.1-0.2,0.2c-0.1,0.1-0.1,0-0.2,0
			c-0.6,0-1.4,0-2.2,0s-1.6,0-2.2,0c-0.1,0-0.1,0.1-0.2,0c-0.1-0.1-0.1-0.2-0.2-0.2c-0.1-0.1-0.2-0.3-0.3-0.4
			C126.6,32,126.5,31.9,126.5,31.9z"/>
	</g>
	<g>
		<path fill="#81B441" d="M126.9,48c0,0,0.1-0.2,0.3-0.4c0.1-0.1,0.2-0.3,0.3-0.4c0.1-0.1,0.1-0.1,0.2-0.2c0.1-0.1,0.1,0,0.2,0
			c0.6,0,1.4,0,2.2,0c0.8,0,1.6,0,2.2,0c0.1,0,0.1-0.1,0.2,0c0.1,0.1,0.1,0.2,0.2,0.2c0.1,0.1,0.2,0.3,0.3,0.4
			c0.2,0.2,0.3,0.4,0.3,0.4s-0.1,0.2-0.3,0.4c-0.1,0.1-0.2,0.3-0.3,0.4c-0.1,0.1-0.1,0.1-0.2,0.2c-0.1,0.1-0.1,0-0.2,0
			c-0.6,0-1.4,0-2.2,0s-1.6,0-2.2,0c-0.1,0-0.1,0.1-0.2,0c-0.1-0.1-0.1-0.2-0.2-0.2c-0.1-0.1-0.2-0.3-0.3-0.4
			C127,48.2,126.9,48,126.9,48z"/>
	</g>
	<g>
		<path fill="#81B441" d="M156.2,32.4c0,0,0.2,0.1,0.4,0.3c0.1,0.1,0.3,0.2,0.4,0.4c0.1,0.1,0.1,0.1,0.2,0.2c0.1,0.1,0,0.2,0,0.3
			c0,0.7,0,1.7,0.1,2.6c0,1,0,1.9,0.1,2.6c0,0.1,0.1,0.2,0,0.3c-0.1,0.1-0.1,0.2-0.2,0.2c-0.1,0.1-0.3,0.3-0.4,0.4
			c-0.2,0.2-0.4,0.3-0.4,0.3s-0.2-0.1-0.4-0.3c-0.1-0.1-0.3-0.2-0.4-0.4c-0.1-0.1-0.1-0.1-0.2-0.2c-0.1-0.1,0-0.2,0-0.3
			c0-0.7,0-1.7-0.1-2.6s0-1.9-0.1-2.6c0-0.1-0.1-0.2,0-0.3c0.1-0.1,0.1-0.2,0.2-0.2c0.1-0.1,0.3-0.3,0.4-0.4
			C156,32.5,156.2,32.4,156.2,32.4z"/>
	</g>
	<g>
		<path fill="#81B441" d="M156.2,40.2c0,0,0.2,0.1,0.4,0.3c0.1,0.1,0.3,0.2,0.4,0.4c0.1,0.1,0.1,0.1,0.2,0.2c0.1,0.1,0,0.2,0,0.3
			c0,0.7,0,1.7,0.1,2.6c0,1,0,1.9,0.1,2.6c0,0.1,0.1,0.2,0,0.3c-0.1,0.1-0.1,0.2-0.2,0.2c-0.1,0.1-0.3,0.3-0.4,0.4
			c-0.2,0.2-0.4,0.3-0.4,0.3s-0.2-0.1-0.4-0.3c-0.1-0.1-0.3-0.2-0.4-0.4c-0.1-0.1-0.1-0.1-0.2-0.2c-0.1-0.1,0-0.2,0-0.3
			c0-0.7,0-1.7-0.1-2.6s0-1.9-0.1-2.6c0-0.1-0.1-0.2,0-0.3c0.1-0.1,0.1-0.2,0.2-0.2c0.1-0.1,0.3-0.3,0.4-0.4
			C156,40.4,156.2,40.2,156.2,40.2z"/>
	</g>
	<g>
		<path fill="#81B441" d="M157.3,40.1c0,0,0.1-0.2,0.3-0.4c0.1-0.1,0.2-0.3,0.3-0.4c0.1-0.1,0.1-0.1,0.2-0.2c0.1-0.1,0.1,0,0.2,0
			c0.6,0,1.4,0,2.2,0c0.8,0,1.6,0,2.2,0c0.1,0,0.1-0.1,0.2,0c0.1,0.1,0.1,0.2,0.2,0.2c0.1,0.1,0.2,0.3,0.3,0.4
			c0.2,0.2,0.3,0.4,0.3,0.4s-0.1,0.2-0.3,0.4c-0.1,0.1-0.2,0.3-0.3,0.4c-0.1,0.1-0.1,0.1-0.2,0.2c-0.1,0.1-0.1,0-0.2,0
			c-0.6,0-1.4,0-2.2,0c-0.8,0-1.6,0-2.2,0c-0.1,0-0.1,0.1-0.2,0c-0.1-0.1-0.1-0.2-0.2-0.2c-0.1-0.1-0.2-0.3-0.3-0.4
			C157.4,40.3,157.3,40.1,157.3,40.1z"/>
	</g>
	<g>
		<path fill="#81B441" d="M157.1,48.2c0,0,0.1-0.2,0.3-0.4c0.1-0.1,0.2-0.3,0.3-0.4c0.1-0.1,0.1-0.1,0.2-0.2c0.1-0.1,0.1,0,0.2,0
			c0.6,0,1.4,0,2.2,0c0.8,0,1.6,0,2.2,0c0.1,0,0.1-0.1,0.2,0c0.1,0.1,0.1,0.2,0.2,0.2c0.1,0.1,0.2,0.3,0.3,0.4
			c0.2,0.2,0.3,0.4,0.3,0.4s-0.1,0.2-0.3,0.4c-0.1,0.1-0.2,0.3-0.3,0.4c-0.1,0.1-0.1,0.1-0.2,0.2c-0.1,0.1-0.1,0-0.2,0
			c-0.6,0-1.4,0-2.2,0c-0.8,0-1.6,0-2.2,0c-0.1,0-0.1,0.1-0.2,0c-0.1-0.1-0.1-0.2-0.2-0.2c-0.1-0.1-0.2-0.3-0.3-0.4
			C157.2,48.4,157.1,48.2,157.1,48.2z"/>
	</g>
	<path fill="#33134D" d="M79.6,127.6c0,0-6.6,4.5,0.5,9.7s14.5,8,33.9,1.6s21.5-8,34.9-7.6s16.9-8.1,13-11.7
		C157.8,116,79.6,127.6,79.6,127.6z"/>
</g>
<g id="whale-body">
	<g>
		<path fill="#5B87DA" d="M242.9,8c-0.2,6-2.2,22.8-19.8,26.8c0,0-8.7,82.3-66.4,89.9c-57.7,7.6-51.1,15.8-71.2,11.4
			c-20.1-4.4-41.2-29.1-42.1-32.2c-0.2-0.7-0.3-1.3-0.2-1.8c0.1-0.7,0.4-1.1,0.9-1.2c0.5-0.2,1.1,0,1.5,0.4c0.7,0.8,1.7,1.9,2.5,2
			c0.1,0,0.3,0,0.4-0.1c0.1,0,0.2-0.1,0.3-0.3c0.1-0.1,0.1-0.2,0.2-0.3l0,0c0.2-0.5,0.2-0.8,0.2-1c0-0.1,0-0.1,0-0.2
			c0-0.1-0.1-0.2-0.1-0.2c-0.1-0.1-0.2-0.2-0.4-0.2c0,0,0,0,0,0c-0.1,0-0.1,0-0.1,0c0,0-0.1,0-0.1,0s-2.8-1.4-2-3.1
			c0-0.1,0.1-0.2,0.1-0.2c0.2-0.3,1-0.5,2.3-0.7c5.6-0.7,20.2-0.8,36.8-8.4c0,0,7.6,0.7,15-1.1c7.4-1.8,11.4-2.9,35.7-2.9
			s38.8-8.1,42.6-14.9c0,0,1.8,11.1,16-7.1s17.4-30.3,17.4-30.3s-0.4-0.5-1-1.3c-2.1-2.9-6.6-10.3-5.7-18.1c0.2-2.2,1-4.5,2.3-6.7
			c2.1-3.4,3.2-5.2,3.7-5.8c0.6-0.8,0.3,0.2,0.2,1.9c-0.2,1.7-0.3,4,0.5,6.1c2.4,6,7.2,6.9,7.2,11.6c0,4.7,3.5,0.5,4.2-1.1
			c0.7-1.6,5.1-4.2,8.5-4.7c3.4-0.5,8-8,8.3-11.1c0.2-1.5,0.8-1.8,1.3-1.1h0c0.4,0.5,0.8,1.7,1,3.3v0C242.9,6.1,242.9,7,242.9,8z"/>
		<path fill="#FFFFFF" d="M101.3,115.7c0,0-5.6,1.3-15.6-4.3c-10-5.6-8-3.2-16.4-3c-8.4,0.2-19.6-3.2-21.3-5.1
			c0.3,0,0.6-0.1,0.8-0.6c0.5-1.2,0-1.6-0.3-1.7c2.1,0.5,21.1,4.7,35.3,3.6C83.8,104.6,88.8,116.3,101.3,115.7z"/>
		<path fill="#4B6798" d="M114.5,116.8c0,0,5.6,10.9,22.4,4.4c16.9-6.5,14-11,14-11s-2.3,3.3-15.4-1c-13.1-4.2-18.1,5.3-18.1,5.3
			s5.9-8.4,17.9-4.6c5.7,2,12.1,2.9,14.8,1.5c-1.7,2.6-5.1,5.4-11,7.8C133.3,121.6,122.6,125,114.5,116.8z"/>
		<path fill="#4B6798" d="M106.1,112.1c0,0,6.3-6.3-4.8-6.7s-9.8,5.2-9.8,5.2s-0.9-4.7,9.8-4.6C104.9,106.4,108.7,106.6,106.1,112.1
			z"/>
		<path fill="#010101" d="M100,112.1c0,0-2.4,0.3-4.6,0.1c-0.4-0.4-1.2-1.5-0.1-2.7c0,0,0.1,0,0.1,0c0.3,0,0.5-0.1,0.8-0.1
			C96.2,109.3,97.4,112.2,100,112.1z"/>
		<path fill="#FFFFFF" d="M95.4,112.2c-1.4-0.1-2.7-0.4-3.3-1c0,0,1-1.3,3.1-1.7C94.2,110.7,95,111.7,95.4,112.2z"/>
	</g>
	<path fill="#4B6798" d="M212.3,32.3c0,0-0.4-0.5-1-1.3c-2.1-2.9-6.6-10.3-5.7-18.1c0.2-2.2,1-4.5,2.3-6.7
		c-2.1,9.2-0.8,10.7,1.6,16.3C212.1,28.7,212.3,32.3,212.3,32.3z"/>
	<path fill="#4B6798" d="M242.9,8c-0.2,6-2.2,22.8-19.8,26.8c0,0-8.7,82.3-66.4,89.9c-57.7,7.6-51.1,15.8-71.2,11.4
		c-20.1-4.4-41.2-29.1-42.1-32.2c-0.2-0.7-0.3-1.3-0.2-1.8c11.7,15.2,33.5,37.7,56.8,31.5c34.4-9.2,50.9-6.7,65.4-13
		c47-21.8,54.5-78.2,55.8-86.5C246.4,26.6,241.9,2,241.9,2h0c0.4,0.5,0.8,1.7,1,3.3v0C242.9,6.1,242.9,7,242.9,8z"/>
</g>
<g id="whale-text">
	<g>
		<rect x="0" y="32" fill="none" width="108.8" height="68.8"/>
		<path fill="#553278" d="M0.4,43.9l3.4-0.7c0,0.3,0,0.6,0,0.9c0,0.3,0,0.5,0.1,0.8c0.1,0.3,0.1,0.6,0.2,0.8
			c0.1,0.2,0.2,0.4,0.4,0.5c0.2,0.1,0.4,0.2,0.6,0.2c0.7,0,1-0.4,1-1.3c0-1.2-0.7-2.3-2-3.5l-1-0.9c-0.3-0.3-0.6-0.5-0.8-0.7
			c-0.2-0.2-0.4-0.4-0.7-0.8C1.3,39,1.1,38.7,1,38.4c-0.2-0.3-0.3-0.6-0.4-1.1c-0.1-0.4-0.2-0.9-0.2-1.3c0-1.4,0.4-2.4,1.3-3.2
			c0.9-0.8,2-1.2,3.4-1.2c1.2,0,2.2,0.4,3,1.3c0.8,0.8,1.2,1.9,1.2,3l0,0.1c0,0.1,0,0.2,0,0.3l-3.5,0.5c0-0.1,0-0.2,0-0.3
			c0-0.1,0-0.3,0-0.4c0-0.2,0-0.4,0-0.6c0-0.2-0.1-0.4-0.2-0.6c-0.1-0.2-0.2-0.4-0.3-0.5c-0.1-0.1-0.3-0.2-0.5-0.2
			c-0.4,0-0.6,0.1-0.8,0.4c-0.2,0.3-0.3,0.6-0.3,1c0,0.3,0.1,0.7,0.2,1C4,37,4.2,37.3,4.4,37.5C4.6,37.8,4.8,38,5,38.2
			c0.2,0.2,0.4,0.4,0.7,0.6c0.3,0.3,0.5,0.4,0.7,0.6c0.5,0.4,0.9,0.8,1.2,1.2c0.3,0.4,0.6,0.8,0.9,1.2c0.3,0.5,0.5,1,0.7,1.5
			c0.1,0.5,0.2,1.1,0.2,1.7c0,1.2-0.4,2.1-1.3,2.9c-0.8,0.7-1.8,1.1-3,1.1c-0.8,0-1.5-0.1-2.1-0.4C2.5,48.3,2,48,1.6,47.5
			c-0.4-0.5-0.7-1-0.8-1.6C0.6,45.3,0.5,44.6,0.4,43.9z"/>
		<path fill="#553278" d="M10.7,35.5v-2.9h3.1v2.9H10.7z M10.7,48.7V36.6h3.1v12.1H10.7z"/>
		<path fill="#553278" d="M15.2,48.7v-2.1l3.3-7.7h-2.8v-2.3h6v2.1l-3.4,7.8h3.4v2.3H15.2z"/>
		<path fill="#553278" d="M22.9,45.6v-5.1c0-1.3,0.3-2.3,0.9-3c0.6-0.7,1.5-1.1,2.8-1.1c1.3,0,2.2,0.4,2.8,1.1
			c0.6,0.7,0.9,1.7,0.9,3v2.5h-4.3v2.7c0,0.7,0.2,1,0.6,1c0.4,0,0.6-0.4,0.6-1.1v-1.3h3.1v1.4c0,1-0.4,1.8-1.1,2.5
			c-0.7,0.6-1.6,1-2.6,1s-1.9-0.3-2.6-1C23.3,47.4,22.9,46.6,22.9,45.6z M26.1,41.3h1.2v-1.7c0-0.6-0.2-0.9-0.6-0.9
			c-0.4,0-0.6,0.3-0.6,0.9V41.3z"/>
		<path fill="#FFFFFF" d="M1.6,60.7v-7.6H0V52h4.4v1.1H2.8v7.6H1.6z"/>
		<path fill="#FFFFFF" d="M4.9,60.7V52h1.2v3.2c0.2-0.2,0.3-0.3,0.5-0.4s0.3-0.2,0.5-0.3s0.4-0.1,0.7-0.1c0.3,0,0.5,0.1,0.6,0.3
			s0.2,0.4,0.2,0.7v5.3H7.4V56c0-0.2,0-0.4-0.1-0.5S7.2,55.4,7,55.4c-0.3,0-0.5,0.1-0.8,0.4v4.9H4.9z"/>
		<path fill="#FFFFFF" d="M11.6,60.8c-0.3,0-0.6-0.1-0.8-0.2s-0.4-0.2-0.5-0.4s-0.2-0.4-0.3-0.6s-0.1-0.5-0.2-0.8s0-0.6-0.1-0.9
			c0-0.3,0-0.5,0-0.8c0-0.3,0-0.6,0.1-0.9s0.1-0.5,0.2-0.7s0.2-0.4,0.3-0.6s0.3-0.3,0.5-0.4s0.5-0.1,0.8-0.1c0.3,0,0.5,0,0.7,0.1
			s0.4,0.2,0.5,0.3s0.2,0.3,0.3,0.5s0.2,0.4,0.2,0.6s0.1,0.5,0.1,0.7s0,0.5,0,0.8v0.1h-2.5v0.3c0,0,0,0.1,0,0.2c0,0.1,0,0.2,0,0.4
			s0,0.3,0,0.4s0,0.2,0.1,0.4s0.1,0.2,0.1,0.3s0.1,0.2,0.2,0.2s0.2,0.1,0.3,0.1c0.1,0,0.2,0,0.3-0.1s0.1-0.1,0.2-0.2
			s0.1-0.2,0.1-0.3s0-0.2,0-0.4v-0.3h1.2v0.2c0,0.7-0.2,1.2-0.5,1.5S12.2,60.8,11.6,60.8z M10.9,57h1.2v-0.4c0-0.2,0-0.3,0-0.4
			s0-0.2-0.1-0.4s-0.1-0.2-0.2-0.3s-0.2-0.1-0.3-0.1c-0.1,0-0.2,0-0.3,0.1s-0.1,0.2-0.2,0.3S11,56.1,11,56.2s0,0.3,0,0.4V57z"/>
		<path fill="#FFFFFF" d="M18.9,60.8c-0.3,0-0.5-0.1-0.7-0.2s-0.4-0.3-0.6-0.5v0.6h-1.2V52h1.2v3.1c0.1-0.1,0.2-0.2,0.3-0.3
			s0.1-0.1,0.3-0.2s0.2-0.1,0.3-0.2s0.3-0.1,0.4-0.1c0.2,0,0.4,0,0.6,0.1s0.3,0.2,0.4,0.3s0.2,0.3,0.3,0.5s0.1,0.4,0.2,0.5
			s0.1,0.4,0.1,0.7s0,0.5,0,0.7s0,0.4,0,0.7v0.1c0,0.3,0,0.5,0,0.8s-0.1,0.5-0.2,0.8S20.1,60,20,60.1s-0.3,0.3-0.4,0.5
			S19.1,60.8,18.9,60.8z M18.6,59.8c0.1,0,0.2,0,0.3-0.1s0.2-0.2,0.2-0.4s0.1-0.4,0.1-0.5s0-0.4,0-0.6c0-0.2,0-0.4,0-0.7
			s0-0.5,0-0.7s0-0.3,0-0.4s0-0.2,0-0.3s-0.1-0.2-0.1-0.3s-0.1-0.1-0.2-0.2s-0.2-0.1-0.3-0.1c-0.3,0-0.7,0.1-0.9,0.2v3.9
			C17.9,59.7,18.3,59.8,18.6,59.8z"/>
		<path fill="#FFFFFF" d="M21.5,53.5v-1.2h1.2v1.2H21.5z M21.5,60.7v-6.2h1.2v6.2H21.5z"/>
		<path fill="#FFFFFF" d="M25.9,62.6c-0.2,0-0.3,0-0.4,0s-0.2,0-0.4,0s-0.3,0-0.4,0s-0.2,0-0.4-0.1s-0.3-0.1-0.4-0.1
			s-0.2-0.1-0.3-0.2s-0.2-0.1-0.2-0.2s-0.1-0.2-0.1-0.3c0-0.3,0.1-0.6,0.3-0.8s0.4-0.4,0.7-0.6c-0.2,0-0.3-0.1-0.4-0.2
			s-0.2-0.2-0.2-0.3c0-0.1,0-0.1,0-0.2s0-0.1,0-0.2s0-0.1,0.1-0.2s0.1-0.1,0.1-0.2s0.1-0.1,0.1-0.2s0.1-0.1,0.1-0.1s0.1-0.1,0.1-0.1
			s0.1-0.1,0.1-0.1c-0.4-0.5-0.6-1.1-0.6-1.9c0-0.4,0.1-0.8,0.2-1.2s0.3-0.6,0.6-0.8s0.6-0.3,1-0.3c0.2,0,0.4,0,0.6,0.1
			s0.3,0.1,0.4,0.2s0.2,0.2,0.3,0.4c0.2-0.5,0.6-0.7,1.1-0.7c0,0,0,0,0,0s0,0,0,0s0,0,0,0v1c0,0,0,0-0.1,0c-0.1,0-0.2,0-0.3,0
			s-0.2,0-0.2,0s-0.2,0.1-0.2,0.1c0.1,0.1,0.1,0.3,0.2,0.5s0.1,0.4,0.1,0.6c0,0.4-0.1,0.8-0.2,1.2s-0.3,0.6-0.6,0.8s-0.6,0.3-1,0.3
			L25,58.8c0,0,0,0,0,0.1s0,0.1-0.1,0.1s0,0.1,0,0.1s0,0.1,0,0.1c0,0.1,0,0.2,0.1,0.2s0.2,0.1,0.3,0.1s0.3,0,0.4,0.1s0.3,0,0.4,0
			s0.3,0,0.3,0c0.2,0,0.4,0.1,0.5,0.1s0.3,0.1,0.4,0.1s0.3,0.1,0.4,0.2s0.2,0.2,0.2,0.4s0.1,0.3,0.1,0.5c0,0.2,0,0.4-0.1,0.6
			s-0.2,0.3-0.3,0.4s-0.3,0.2-0.5,0.3s-0.4,0.1-0.6,0.2S26.2,62.6,25.9,62.6z M25.9,61.7c0.1,0,0.2,0,0.2,0s0.2,0,0.2,0s0.2,0,0.2,0
			s0.1,0,0.2-0.1s0.1-0.1,0.1-0.1s0-0.1,0-0.2c0-0.3-0.3-0.6-1-0.6l-1-0.1c-0.1,0.1-0.2,0.2-0.3,0.4s-0.1,0.4-0.1,0.5
			c0,0.1,0,0.1,0.1,0.1s0.1,0.1,0.2,0.1s0.1,0,0.2,0s0.2,0,0.3,0s0.2,0,0.3,0s0.2,0,0.3,0S25.9,61.7,25.9,61.7z M25.6,58
			c0.5,0,0.8-0.4,0.8-1.3c0-0.2,0-0.3,0-0.5s-0.1-0.3-0.1-0.4s-0.1-0.3-0.2-0.3s-0.2-0.1-0.4-0.1c-0.2,0-0.3,0-0.4,0.1
			S25,55.6,25,55.7s-0.1,0.3-0.1,0.4s0,0.3,0,0.5C24.8,57.5,25.1,58,25.6,58z"/>
		<path fill="#FFFFFF" d="M30.4,62.6c-0.2,0-0.3,0-0.4,0s-0.2,0-0.4,0s-0.3,0-0.4,0s-0.2,0-0.4-0.1s-0.3-0.1-0.4-0.1
			s-0.2-0.1-0.3-0.2S28,62.1,28,62s-0.1-0.2-0.1-0.3c0-0.3,0.1-0.6,0.3-0.8s0.4-0.4,0.7-0.6c-0.2,0-0.3-0.1-0.4-0.2
			s-0.2-0.2-0.2-0.3c0-0.1,0-0.1,0-0.2s0-0.1,0-0.2s0-0.1,0.1-0.2s0.1-0.1,0.1-0.2s0.1-0.1,0.1-0.2s0.1-0.1,0.1-0.1s0.1-0.1,0.1-0.1
			s0.1-0.1,0.1-0.1c-0.4-0.5-0.6-1.1-0.6-1.9c0-0.4,0.1-0.8,0.2-1.2s0.3-0.6,0.6-0.8s0.6-0.3,1-0.3c0.2,0,0.4,0,0.6,0.1
			s0.3,0.1,0.4,0.2s0.2,0.2,0.3,0.4c0.2-0.5,0.6-0.7,1.1-0.7c0,0,0,0,0,0s0,0,0,0s0,0,0,0v1c0,0,0,0-0.1,0c-0.1,0-0.2,0-0.3,0
			s-0.2,0-0.2,0s-0.2,0.1-0.2,0.1c0.1,0.1,0.1,0.3,0.2,0.5s0.1,0.4,0.1,0.6c0,0.4-0.1,0.8-0.2,1.2s-0.3,0.6-0.6,0.8s-0.6,0.3-1,0.3
			l-0.6-0.1c0,0,0,0,0,0.1s0,0.1-0.1,0.1s0,0.1,0,0.1s0,0.1,0,0.1c0,0.1,0,0.2,0.1,0.2s0.2,0.1,0.3,0.1s0.3,0,0.4,0.1s0.3,0,0.4,0
			s0.3,0,0.3,0c0.2,0,0.4,0.1,0.5,0.1s0.3,0.1,0.4,0.1s0.3,0.1,0.4,0.2s0.2,0.2,0.2,0.4s0.1,0.3,0.1,0.5c0,0.2,0,0.4-0.1,0.6
			s-0.2,0.3-0.3,0.4s-0.3,0.2-0.5,0.3s-0.4,0.1-0.6,0.2S30.6,62.6,30.4,62.6z M30.4,61.7c0.1,0,0.2,0,0.2,0s0.2,0,0.2,0s0.2,0,0.2,0
			s0.1,0,0.2-0.1s0.1-0.1,0.1-0.1s0-0.1,0-0.2c0-0.3-0.3-0.6-1-0.6l-1-0.1c-0.1,0.1-0.2,0.2-0.3,0.4S29,61.2,29,61.4
			c0,0.1,0,0.1,0.1,0.1s0.1,0.1,0.2,0.1s0.1,0,0.2,0s0.2,0,0.3,0s0.2,0,0.3,0s0.2,0,0.3,0S30.4,61.7,30.4,61.7z M30.1,58
			c0.5,0,0.8-0.4,0.8-1.3c0-0.2,0-0.3,0-0.5s-0.1-0.3-0.1-0.4s-0.1-0.3-0.2-0.3s-0.2-0.1-0.4-0.1c-0.2,0-0.3,0-0.4,0.1
			s-0.2,0.2-0.2,0.3s-0.1,0.3-0.1,0.4s0,0.3,0,0.5C29.3,57.5,29.6,58,30.1,58z"/>
		<path fill="#FFFFFF" d="M34.7,60.8c-0.3,0-0.6-0.1-0.8-0.2s-0.4-0.2-0.5-0.4s-0.2-0.4-0.3-0.6s-0.1-0.5-0.2-0.8s0-0.6-0.1-0.9
			c0-0.3,0-0.5,0-0.8c0-0.3,0-0.6,0.1-0.9s0.1-0.5,0.2-0.7s0.2-0.4,0.3-0.6s0.3-0.3,0.5-0.4s0.5-0.1,0.8-0.1c0.3,0,0.5,0,0.7,0.1
			s0.4,0.2,0.5,0.3s0.2,0.3,0.3,0.5s0.2,0.4,0.2,0.6s0.1,0.5,0.1,0.7s0,0.5,0,0.8v0.1h-2.5v0.3c0,0,0,0.1,0,0.2c0,0.1,0,0.2,0,0.4
			s0,0.3,0,0.4s0,0.2,0.1,0.4s0.1,0.2,0.1,0.3s0.1,0.2,0.2,0.2s0.2,0.1,0.3,0.1c0.1,0,0.2,0,0.3-0.1s0.1-0.1,0.2-0.2
			s0.1-0.2,0.1-0.3s0-0.2,0-0.4v-0.3h1.2v0.2c0,0.7-0.2,1.2-0.5,1.5S35.3,60.8,34.7,60.8z M34.1,57h1.2v-0.4c0-0.2,0-0.3,0-0.4
			s0-0.2-0.1-0.4s-0.1-0.2-0.2-0.3s-0.2-0.1-0.3-0.1c-0.1,0-0.2,0-0.3,0.1s-0.1,0.2-0.2,0.3s-0.1,0.3-0.1,0.4s0,0.3,0,0.4V57z"/>
		<path fill="#FFFFFF" d="M39.1,60.8c-0.5,0-0.9-0.2-1.2-0.5s-0.5-0.7-0.6-1.2l0.9-0.3c0.2,0.6,0.5,0.9,0.9,0.9
			c0.2,0,0.4-0.1,0.5-0.2s0.2-0.3,0.2-0.5c0-0.3-0.1-0.5-0.3-0.7l-1.2-0.9c-0.1-0.1-0.3-0.2-0.4-0.3s-0.2-0.2-0.3-0.3
			s-0.2-0.3-0.2-0.4s-0.1-0.3-0.1-0.5c0-0.5,0.2-0.9,0.5-1.2s0.8-0.4,1.4-0.4c0.3,0,0.5,0,0.7,0.1s0.4,0.2,0.5,0.4s0.3,0.3,0.4,0.5
			s0.2,0.4,0.2,0.6l-0.9,0.3c0-0.1-0.1-0.2-0.1-0.3s-0.1-0.2-0.2-0.3s-0.2-0.2-0.3-0.2s-0.2-0.1-0.3-0.1c-0.2,0-0.4,0.1-0.5,0.2
			s-0.2,0.3-0.2,0.5c0,0.2,0.1,0.4,0.3,0.5l1.2,0.9c0.1,0.1,0.3,0.2,0.4,0.3s0.2,0.2,0.3,0.4s0.2,0.3,0.2,0.5S41,59,41,59.2
			c0,0.5-0.2,0.9-0.5,1.2S39.7,60.8,39.1,60.8z"/>
		<path fill="#FFFFFF" d="M43.5,60.8c-0.5,0-0.8-0.1-1.1-0.4s-0.3-0.6-0.3-1.1v-3.9h-0.6v-0.9h0.6v-2.2h1.2v2.2h0.9v0.9h-0.9V59
			c0,0.3,0,0.4,0.1,0.6s0.2,0.2,0.4,0.2c0.1,0,0.2,0,0.4,0v1C44,60.8,43.7,60.8,43.5,60.8z"/>
		<path fill="#FFFFFF" d="M48.3,60.8c-0.3,0-0.6-0.2-0.9-0.5s-0.4-0.6-0.4-1c0-0.3,0.1-0.6,0.2-0.8s0.2-0.4,0.3-0.6s0.3-0.3,0.6-0.5
			s0.5-0.3,0.6-0.3s0.4-0.2,0.7-0.3c0.1,0,0.1,0,0.1-0.1v-0.4c0-0.3,0-0.6-0.1-0.7s-0.3-0.3-0.5-0.3c-0.2,0-0.4,0.1-0.5,0.2
			s-0.1,0.4-0.2,0.6c0,0,0,0.1,0,0.2H47c0-0.6,0.2-1.1,0.5-1.4s0.8-0.5,1.4-0.5c0.6,0,1,0.2,1.4,0.5s0.5,0.8,0.5,1.4v2.8
			c0,0.7,0.1,1.2,0.2,1.6h-1.2l-0.2-0.9c-0.1,0.1-0.1,0.2-0.2,0.3s-0.1,0.2-0.2,0.3s-0.2,0.2-0.2,0.2s-0.2,0.1-0.3,0.1
			S48.4,60.8,48.3,60.8z M48.9,59.8c0.1,0,0.2,0,0.3-0.1s0.1-0.1,0.2-0.2s0.1-0.1,0.2-0.2c0,0,0,0,0,0v-1.7c-0.1,0-0.1,0.1-0.3,0.2
			s-0.2,0.1-0.3,0.2s-0.2,0.1-0.3,0.2s-0.2,0.2-0.2,0.2s-0.1,0.2-0.1,0.3s-0.1,0.2-0.1,0.3C48.3,59.5,48.5,59.8,48.9,59.8z"/>
		<path fill="#FFFFFF" d="M51.9,60.7v-6.2h1.2v0.7c0.2-0.2,0.3-0.3,0.5-0.4s0.3-0.2,0.5-0.3s0.4-0.1,0.7-0.1c0.3,0,0.5,0.1,0.6,0.3
			s0.2,0.4,0.2,0.7v5.3h-1.2V56c0-0.2,0-0.4-0.1-0.5s-0.2-0.1-0.4-0.1c-0.1,0-0.2,0-0.3,0.1s-0.2,0.1-0.2,0.1s-0.1,0.1-0.2,0.2v4.9
			H51.9z"/>
		<path fill="#FFFFFF" d="M56.8,53.5v-1.2H58v1.2H56.8z M56.8,60.7v-6.2H58v6.2H56.8z"/>
		<path fill="#FFFFFF" d="M59.2,60.7v-6.2h1.2v0.7c0.4-0.5,1-0.8,1.6-0.8c0.3,0,0.5,0.1,0.7,0.2s0.2,0.3,0.3,0.6
			c0.2-0.3,0.4-0.5,0.7-0.6s0.5-0.2,0.9-0.2c0.1,0,0.2,0,0.3,0s0.2,0,0.2,0.1s0.1,0.1,0.2,0.1s0.1,0.1,0.1,0.2s0.1,0.1,0.1,0.2
			s0,0.2,0,0.2s0,0.2,0,0.3s0,0.2,0,0.3s0,0.2,0,0.3c0,0,0,0.1,0,0.1v4.5h-1.2v-4.6c0,0,0,0,0-0.1c0-0.1,0-0.2,0-0.2s0-0.1,0-0.2
			s0-0.1-0.1-0.2s-0.1-0.1-0.2-0.1c-0.1,0-0.3,0-0.4,0.1s-0.2,0.1-0.3,0.1s-0.2,0.1-0.3,0.2v4.9h-1.2v-4.5c0,0,0,0,0-0.1
			c0-0.1,0-0.2,0-0.2s0-0.1,0-0.2s0-0.1,0-0.2s-0.1-0.1-0.1-0.1s-0.1,0-0.2,0c-0.3,0-0.6,0.1-0.9,0.4v4.9H59.2z"/>
		<path fill="#FFFFFF" d="M67.6,60.8c-0.3,0-0.6-0.2-0.9-0.5s-0.4-0.6-0.4-1c0-0.3,0.1-0.6,0.2-0.8s0.2-0.4,0.3-0.6s0.3-0.3,0.6-0.5
			s0.5-0.3,0.6-0.3s0.4-0.2,0.7-0.3c0.1,0,0.1,0,0.1-0.1v-0.4c0-0.3,0-0.6-0.1-0.7s-0.3-0.3-0.5-0.3c-0.2,0-0.4,0.1-0.5,0.2
			s-0.1,0.4-0.2,0.6c0,0,0,0.1,0,0.2h-1.2c0-0.6,0.2-1.1,0.5-1.4s0.8-0.5,1.4-0.5c0.6,0,1,0.2,1.4,0.5s0.5,0.8,0.5,1.4v2.8
			c0,0.7,0.1,1.2,0.2,1.6h-1.2l-0.2-0.9c-0.1,0.1-0.1,0.2-0.2,0.3s-0.1,0.2-0.2,0.3s-0.2,0.2-0.2,0.2s-0.2,0.1-0.3,0.1
			S67.8,60.8,67.6,60.8z M68.3,59.8c0.1,0,0.2,0,0.3-0.1s0.1-0.1,0.2-0.2s0.1-0.1,0.2-0.2c0,0,0,0,0,0v-1.7c-0.1,0-0.1,0.1-0.3,0.2
			s-0.2,0.1-0.3,0.2s-0.2,0.1-0.3,0.2s-0.2,0.2-0.2,0.2s-0.1,0.2-0.1,0.3s-0.1,0.2-0.1,0.3C67.6,59.5,67.9,59.8,68.3,59.8z"/>
		<path fill="#FFFFFF" d="M71.2,60.7V52h1.2v8.8H71.2z"/>
		<path fill="#FFFFFF" d="M75.2,60.8c-0.5,0-0.9-0.2-1.2-0.5s-0.5-0.7-0.6-1.2l0.9-0.3c0.2,0.6,0.5,0.9,0.9,0.9
			c0.2,0,0.4-0.1,0.5-0.2s0.2-0.3,0.2-0.5c0-0.3-0.1-0.5-0.3-0.7l-1.2-0.9c-0.1-0.1-0.3-0.2-0.4-0.3s-0.2-0.2-0.3-0.3
			s-0.2-0.3-0.2-0.4s-0.1-0.3-0.1-0.5c0-0.5,0.2-0.9,0.5-1.2s0.8-0.4,1.4-0.4c0.3,0,0.5,0,0.7,0.1s0.4,0.2,0.5,0.4s0.3,0.3,0.4,0.5
			s0.2,0.4,0.2,0.6l-0.9,0.3c0-0.1-0.1-0.2-0.1-0.3s-0.1-0.2-0.2-0.3s-0.2-0.2-0.3-0.2s-0.2-0.1-0.3-0.1c-0.2,0-0.4,0.1-0.5,0.2
			s-0.2,0.3-0.2,0.5c0,0.2,0.1,0.4,0.3,0.5l1.2,0.9c0.1,0.1,0.3,0.2,0.4,0.3s0.2,0.2,0.3,0.4s0.2,0.3,0.2,0.5s0.1,0.3,0.1,0.5
			c0,0.5-0.2,0.9-0.5,1.2S75.8,60.8,75.2,60.8z"/>
		<path fill="#FFFFFF" d="M81,60.8c-0.3,0-0.6-0.2-0.9-0.5s-0.4-0.6-0.4-1c0-0.3,0.1-0.6,0.2-0.8s0.2-0.4,0.3-0.6s0.3-0.3,0.6-0.5
			s0.5-0.3,0.6-0.3s0.4-0.2,0.7-0.3c0.1,0,0.1,0,0.1-0.1v-0.4c0-0.3,0-0.6-0.1-0.7s-0.3-0.3-0.5-0.3c-0.2,0-0.4,0.1-0.5,0.2
			S81,55.9,81,56.2c0,0,0,0.1,0,0.2h-1.2c0-0.6,0.2-1.1,0.5-1.4s0.8-0.5,1.4-0.5c0.6,0,1,0.2,1.4,0.5s0.5,0.8,0.5,1.4v2.8
			c0,0.7,0.1,1.2,0.2,1.6h-1.2l-0.2-0.9c-0.1,0.1-0.1,0.2-0.2,0.3s-0.1,0.2-0.2,0.3s-0.2,0.2-0.2,0.2s-0.2,0.1-0.3,0.1
			S81.1,60.8,81,60.8z M81.6,59.8c0.1,0,0.2,0,0.3-0.1s0.1-0.1,0.2-0.2s0.1-0.1,0.2-0.2c0,0,0,0,0,0v-1.7c-0.1,0-0.1,0.1-0.3,0.2
			s-0.2,0.1-0.3,0.2s-0.2,0.1-0.3,0.2s-0.2,0.2-0.2,0.2s-0.1,0.2-0.1,0.3S81,58.9,81,59C81,59.5,81.2,59.8,81.6,59.8z"/>
		<path fill="#FFFFFF" d="M84.6,60.7v-6.2h1.2v0.8c0.1-0.2,0.3-0.5,0.6-0.6s0.5-0.3,0.8-0.3c0,0,0.1,0,0.2,0v1.4
			c-0.2-0.1-0.5-0.1-0.7-0.1c-0.3,0-0.5,0.1-0.6,0.2s-0.2,0.4-0.2,0.6v4.2H84.6z"/>
		<path fill="#FFFFFF" d="M89.7,60.8c-0.3,0-0.6-0.1-0.8-0.2s-0.4-0.2-0.5-0.4s-0.2-0.4-0.3-0.6s-0.1-0.5-0.2-0.8s0-0.6-0.1-0.9
			c0-0.3,0-0.5,0-0.8c0-0.3,0-0.6,0.1-0.9s0.1-0.5,0.2-0.7s0.2-0.4,0.3-0.6s0.3-0.3,0.5-0.4s0.5-0.1,0.8-0.1c0.3,0,0.5,0,0.7,0.1
			s0.4,0.2,0.5,0.3s0.2,0.3,0.3,0.5s0.2,0.4,0.2,0.6s0.1,0.5,0.1,0.7s0,0.5,0,0.8v0.1H89v0.3c0,0,0,0.1,0,0.2c0,0.1,0,0.2,0,0.4
			s0,0.3,0,0.4s0,0.2,0.1,0.4s0.1,0.2,0.1,0.3s0.1,0.2,0.2,0.2s0.2,0.1,0.3,0.1c0.1,0,0.2,0,0.3-0.1s0.1-0.1,0.2-0.2
			s0.1-0.2,0.1-0.3s0-0.2,0-0.4v-0.3h1.2v0.2c0,0.7-0.2,1.2-0.5,1.5S90.3,60.8,89.7,60.8z M89,57h1.2v-0.4c0-0.2,0-0.3,0-0.4
			s0-0.2-0.1-0.4s-0.1-0.2-0.2-0.3s-0.2-0.1-0.3-0.1c-0.1,0-0.2,0-0.3,0.1s-0.1,0.2-0.2,0.3s-0.1,0.3-0.1,0.4s0,0.3,0,0.4V57z"/>
		<path fill="#FFFFFF" d="M3.1,72.8c-0.3,0-0.5-0.1-0.7-0.2S2,72.3,1.8,72.1v0.6H0.6V64h1.2v3.1C1.9,67,2,66.9,2.1,66.8
			s0.1-0.1,0.3-0.2s0.2-0.1,0.3-0.2s0.3-0.1,0.4-0.1c0.2,0,0.4,0,0.6,0.1s0.3,0.2,0.4,0.3s0.2,0.3,0.3,0.5s0.1,0.4,0.2,0.5
			s0.1,0.4,0.1,0.7s0,0.5,0,0.7s0,0.4,0,0.7v0.1c0,0.3,0,0.5,0,0.8s-0.1,0.5-0.2,0.8S4.3,72,4.2,72.1s-0.3,0.3-0.4,0.5
			S3.3,72.8,3.1,72.8z M2.8,71.8c0.1,0,0.2,0,0.3-0.1s0.2-0.2,0.2-0.4s0.1-0.4,0.1-0.5s0-0.4,0-0.6c0-0.2,0-0.4,0-0.7s0-0.5,0-0.7
			s0-0.3,0-0.4s0-0.2,0-0.3s-0.1-0.2-0.1-0.3S3.1,67.5,3,67.5s-0.2-0.1-0.3-0.1c-0.3,0-0.7,0.1-0.9,0.2v3.9
			C2.1,71.7,2.5,71.8,2.8,71.8z"/>
		<path fill="#FFFFFF" d="M5.7,72.7V64h1.2v8.8H5.7z"/>
		<path fill="#FFFFFF" d="M8.9,72.8c-0.3,0-0.5-0.1-0.7-0.3S8,72.1,8,71.8v-5.3h1.2v4.9c0,0.1,0,0.2,0.1,0.3s0.2,0.1,0.3,0.1
			c0.1,0,0.1,0,0.2,0s0.1,0,0.2-0.1s0.1-0.1,0.1-0.1s0.1-0.1,0.2-0.1s0.1-0.1,0.1-0.1v-4.9h1.2v6.2h-1.2V72
			c-0.1,0.1-0.2,0.2-0.3,0.2s-0.1,0.1-0.3,0.2s-0.2,0.1-0.3,0.2s-0.2,0.1-0.3,0.1S9.1,72.8,8.9,72.8z"/>
		<path fill="#FFFFFF" d="M14.6,72.8c-0.3,0-0.6-0.1-0.8-0.2s-0.4-0.2-0.5-0.4s-0.2-0.4-0.3-0.6s-0.1-0.5-0.2-0.8s0-0.6-0.1-0.9
			c0-0.3,0-0.5,0-0.8c0-0.3,0-0.6,0.1-0.9s0.1-0.5,0.2-0.7s0.2-0.4,0.3-0.6s0.3-0.3,0.5-0.4s0.5-0.1,0.8-0.1c0.3,0,0.5,0,0.7,0.1
			s0.4,0.2,0.5,0.3s0.2,0.3,0.3,0.5s0.2,0.4,0.2,0.6s0.1,0.5,0.1,0.7s0,0.5,0,0.8v0.1H14v0.3c0,0,0,0.1,0,0.2c0,0.1,0,0.2,0,0.4
			s0,0.3,0,0.4s0,0.2,0.1,0.4s0.1,0.2,0.1,0.3s0.1,0.2,0.2,0.2s0.2,0.1,0.3,0.1c0.1,0,0.2,0,0.3-0.1s0.1-0.1,0.2-0.2
			s0.1-0.2,0.1-0.3s0-0.2,0-0.4v-0.3h1.2v0.2c0,0.7-0.2,1.2-0.5,1.5S15.2,72.8,14.6,72.8z M14,69h1.2v-0.4c0-0.2,0-0.3,0-0.4
			s0-0.2-0.1-0.4s-0.1-0.2-0.2-0.3s-0.2-0.1-0.3-0.1c-0.1,0-0.2,0-0.3,0.1s-0.1,0.2-0.2,0.3S14,68.1,14,68.2s0,0.3,0,0.4V69z"/>
		<path fill="#FFFFFF" d="M20.1,72.7L19,66.5h1.1l0.7,4.7l0.7-4.7h1.1l0.7,4.7l0.7-4.7H25l-1.2,6.2h-1.2L22,68.4l-0.7,4.3H20.1z"/>
		<path fill="#FFFFFF" d="M25.7,72.7V64h1.2v3.2c0.2-0.2,0.3-0.3,0.5-0.4s0.3-0.2,0.5-0.3s0.4-0.1,0.7-0.1c0.3,0,0.5,0.1,0.6,0.3
			s0.2,0.4,0.2,0.7v5.3h-1.2V68c0-0.2,0-0.4-0.1-0.5s-0.2-0.2-0.3-0.2c-0.3,0-0.5,0.1-0.8,0.4v4.9H25.7z"/>
		<path fill="#FFFFFF" d="M31.6,72.8c-0.3,0-0.6-0.2-0.9-0.5s-0.4-0.6-0.4-1c0-0.3,0.1-0.6,0.2-0.8s0.2-0.4,0.3-0.6s0.3-0.3,0.6-0.5
			s0.5-0.3,0.6-0.3s0.4-0.2,0.7-0.3c0.1,0,0.1,0,0.1-0.1v-0.4c0-0.3,0-0.6-0.1-0.7s-0.3-0.3-0.5-0.3c-0.2,0-0.4,0.1-0.5,0.2
			s-0.1,0.4-0.2,0.6c0,0,0,0.1,0,0.2h-1.2c0-0.6,0.2-1.1,0.5-1.4s0.8-0.5,1.4-0.5c0.6,0,1,0.2,1.4,0.5s0.5,0.8,0.5,1.4v2.8
			c0,0.7,0.1,1.2,0.2,1.6H33l-0.2-0.9c-0.1,0.1-0.1,0.2-0.2,0.3s-0.1,0.2-0.2,0.3s-0.2,0.2-0.2,0.2s-0.2,0.1-0.3,0.1
			S31.8,72.8,31.6,72.8z M32.3,71.8c0.1,0,0.2,0,0.3-0.1s0.1-0.1,0.2-0.2s0.1-0.1,0.2-0.2c0,0,0,0,0,0v-1.7c-0.1,0-0.1,0.1-0.3,0.2
			s-0.2,0.1-0.3,0.2s-0.2,0.1-0.3,0.2s-0.2,0.2-0.2,0.2s-0.1,0.2-0.1,0.3s-0.1,0.2-0.1,0.3C31.6,71.5,31.8,71.8,32.3,71.8z"/>
		<path fill="#FFFFFF" d="M35.2,72.7V64h1.2v8.8H35.2z"/>
		<path fill="#FFFFFF" d="M39.3,72.8c-0.3,0-0.6-0.1-0.8-0.2s-0.4-0.2-0.5-0.4s-0.2-0.4-0.3-0.6s-0.1-0.5-0.2-0.8s0-0.6-0.1-0.9
			c0-0.3,0-0.5,0-0.8c0-0.3,0-0.6,0.1-0.9s0.1-0.5,0.2-0.7s0.2-0.4,0.3-0.6s0.3-0.3,0.5-0.4s0.5-0.1,0.8-0.1c0.3,0,0.5,0,0.7,0.1
			s0.4,0.2,0.5,0.3s0.2,0.3,0.3,0.5s0.2,0.4,0.2,0.6s0.1,0.5,0.1,0.7s0,0.5,0,0.8v0.1h-2.5v0.3c0,0,0,0.1,0,0.2c0,0.1,0,0.2,0,0.4
			s0,0.3,0,0.4s0,0.2,0.1,0.4s0.1,0.2,0.1,0.3s0.1,0.2,0.2,0.2s0.2,0.1,0.3,0.1c0.1,0,0.2,0,0.3-0.1s0.1-0.1,0.2-0.2
			s0.1-0.2,0.1-0.3s0-0.2,0-0.4v-0.3h1.2v0.2c0,0.7-0.2,1.2-0.5,1.5S40,72.8,39.3,72.8z M38.7,69H40v-0.4c0-0.2,0-0.3,0-0.4
			s0-0.2-0.1-0.4s-0.1-0.2-0.2-0.3s-0.2-0.1-0.3-0.1c-0.1,0-0.2,0-0.3,0.1s-0.1,0.2-0.2,0.3s-0.1,0.3-0.1,0.4s0,0.3,0,0.4V69z"/>
		<path fill="#FFFFFF" d="M43.8,72.8c-0.5,0-0.9-0.2-1.2-0.5s-0.5-0.7-0.6-1.2l0.9-0.3c0.2,0.6,0.5,0.9,0.9,0.9
			c0.2,0,0.4-0.1,0.5-0.2s0.2-0.3,0.2-0.5c0-0.3-0.1-0.5-0.3-0.7l-1.2-0.9c-0.1-0.1-0.3-0.2-0.4-0.3s-0.2-0.2-0.3-0.3
			S42,68.7,42,68.5s-0.1-0.3-0.1-0.5c0-0.5,0.2-0.9,0.5-1.2s0.8-0.4,1.4-0.4c0.3,0,0.5,0,0.7,0.1s0.4,0.2,0.5,0.4s0.3,0.3,0.4,0.5
			s0.2,0.4,0.2,0.6l-0.9,0.3c0-0.1-0.1-0.2-0.1-0.3s-0.1-0.2-0.2-0.3s-0.2-0.2-0.3-0.2s-0.2-0.1-0.3-0.1c-0.2,0-0.4,0.1-0.5,0.2
			s-0.2,0.3-0.2,0.5c0,0.2,0.1,0.4,0.3,0.5l1.2,0.9c0.1,0.1,0.3,0.2,0.4,0.3s0.2,0.2,0.3,0.4s0.2,0.3,0.2,0.5s0.1,0.3,0.1,0.5
			c0,0.5-0.2,0.9-0.5,1.2S44.3,72.8,43.8,72.8z"/>
		<path fill="#FFFFFF" d="M46.1,72.7v-1.2h1.2v1.2H46.1z"/>
		<path fill="#FFFFFF" d="M51.3,72.7v-7.6h-1.6V64h4.4v1.1h-1.6v7.6H51.3z"/>
		<path fill="#FFFFFF" d="M54.7,72.7V64h1.2v3.2c0.2-0.2,0.3-0.3,0.5-0.4s0.3-0.2,0.5-0.3s0.4-0.1,0.7-0.1c0.3,0,0.5,0.1,0.6,0.3
			s0.2,0.4,0.2,0.7v5.3h-1.2V68c0-0.2,0-0.4-0.1-0.5s-0.2-0.2-0.3-0.2c-0.3,0-0.5,0.1-0.8,0.4v4.9H54.7z"/>
		<path fill="#FFFFFF" d="M61.3,72.8c-0.3,0-0.6-0.1-0.8-0.2s-0.4-0.2-0.5-0.4s-0.2-0.4-0.3-0.6s-0.1-0.5-0.2-0.8s0-0.6-0.1-0.9
			c0-0.3,0-0.5,0-0.8c0-0.3,0-0.6,0.1-0.9s0.1-0.5,0.2-0.7s0.2-0.4,0.3-0.6s0.3-0.3,0.5-0.4s0.5-0.1,0.8-0.1c0.3,0,0.5,0,0.7,0.1
			s0.4,0.2,0.5,0.3s0.2,0.3,0.3,0.5s0.2,0.4,0.2,0.6s0.1,0.5,0.1,0.7s0,0.5,0,0.8v0.1h-2.5v0.3c0,0,0,0.1,0,0.2c0,0.1,0,0.2,0,0.4
			s0,0.3,0,0.4s0,0.2,0.1,0.4s0.1,0.2,0.1,0.3s0.1,0.2,0.2,0.2s0.2,0.1,0.3,0.1c0.1,0,0.2,0,0.3-0.1s0.1-0.1,0.2-0.2
			s0.1-0.2,0.1-0.3s0-0.2,0-0.4v-0.3h1.2v0.2c0,0.7-0.2,1.2-0.5,1.5S61.9,72.8,61.3,72.8z M60.7,69h1.2v-0.4c0-0.2,0-0.3,0-0.4
			s0-0.2-0.1-0.4s-0.1-0.2-0.2-0.3s-0.2-0.1-0.3-0.1c-0.1,0-0.2,0-0.3,0.1s-0.1,0.2-0.2,0.3s-0.1,0.3-0.1,0.4s0,0.3,0,0.4V69z"/>
		<path fill="#FFFFFF" d="M66.1,72.7V64h1.2v3.2c0.2-0.2,0.3-0.3,0.5-0.4s0.3-0.2,0.5-0.3s0.4-0.1,0.7-0.1c0.3,0,0.5,0.1,0.6,0.3
			s0.2,0.4,0.2,0.7v5.3h-1.2V68c0-0.2,0-0.4-0.1-0.5s-0.2-0.2-0.3-0.2c-0.3,0-0.5,0.1-0.8,0.4v4.9H66.1z"/>
		<path fill="#FFFFFF" d="M72.7,72.8c-0.3,0-0.6-0.1-0.8-0.2s-0.4-0.2-0.5-0.4s-0.2-0.4-0.3-0.6s-0.1-0.5-0.2-0.8s0-0.6-0.1-0.9
			c0-0.3,0-0.5,0-0.8c0-0.3,0-0.6,0.1-0.9s0.1-0.5,0.2-0.7s0.2-0.4,0.3-0.6s0.3-0.3,0.5-0.4s0.5-0.1,0.8-0.1c0.3,0,0.5,0,0.7,0.1
			s0.4,0.2,0.5,0.3s0.2,0.3,0.3,0.5s0.2,0.4,0.2,0.6s0.1,0.5,0.1,0.7s0,0.5,0,0.8v0.1h-2.5v0.3c0,0,0,0.1,0,0.2c0,0.1,0,0.2,0,0.4
			s0,0.3,0,0.4s0,0.2,0.1,0.4s0.1,0.2,0.1,0.3s0.1,0.2,0.2,0.2s0.2,0.1,0.3,0.1c0.1,0,0.2,0,0.3-0.1s0.1-0.1,0.2-0.2
			s0.1-0.2,0.1-0.3s0-0.2,0-0.4v-0.3h1.2v0.2c0,0.7-0.2,1.2-0.5,1.5S73.3,72.8,72.7,72.8z M72.1,69h1.2v-0.4c0-0.2,0-0.3,0-0.4
			s0-0.2-0.1-0.4s-0.1-0.2-0.2-0.3s-0.2-0.1-0.3-0.1c-0.1,0-0.2,0-0.3,0.1s-0.1,0.2-0.2,0.3s-0.1,0.3-0.1,0.4s0,0.3,0,0.4V69z"/>
		<path fill="#FFFFFF" d="M76.6,72.8c-0.3,0-0.6-0.2-0.9-0.5s-0.4-0.6-0.4-1c0-0.3,0.1-0.6,0.2-0.8s0.2-0.4,0.3-0.6s0.3-0.3,0.6-0.5
			s0.5-0.3,0.6-0.3s0.4-0.2,0.7-0.3c0.1,0,0.1,0,0.1-0.1v-0.4c0-0.3,0-0.6-0.1-0.7s-0.3-0.3-0.5-0.3c-0.2,0-0.4,0.1-0.5,0.2
			s-0.1,0.4-0.2,0.6c0,0,0,0.1,0,0.2h-1.2c0-0.6,0.2-1.1,0.5-1.4s0.8-0.5,1.4-0.5c0.6,0,1,0.2,1.4,0.5s0.5,0.8,0.5,1.4v2.8
			c0,0.7,0.1,1.2,0.2,1.6H78l-0.2-0.9c-0.1,0.1-0.1,0.2-0.2,0.3s-0.1,0.2-0.2,0.3s-0.2,0.2-0.2,0.2s-0.2,0.1-0.3,0.1
			S76.7,72.8,76.6,72.8z M77.2,71.8c0.1,0,0.2,0,0.3-0.1s0.1-0.1,0.2-0.2s0.1-0.1,0.2-0.2c0,0,0,0,0,0v-1.7c-0.1,0-0.1,0.1-0.3,0.2
			s-0.2,0.1-0.3,0.2s-0.2,0.1-0.3,0.2s-0.2,0.2-0.2,0.2s-0.1,0.2-0.1,0.3s-0.1,0.2-0.1,0.3C76.6,71.5,76.8,71.8,77.2,71.8z"/>
		<path fill="#FFFFFF" d="M81.1,72.7l-1.4-6.2h1.2l0.9,4.7l0.8-4.7h1.2l-1.4,6.2H81.1z"/>
		<path fill="#FFFFFF" d="M84.5,65.5v-1.2h1.2v1.2H84.5z M84.5,72.7v-6.2h1.2v6.2H84.5z"/>
		<path fill="#FFFFFF" d="M88.7,72.8c-0.3,0-0.6-0.1-0.8-0.2s-0.4-0.2-0.5-0.4s-0.2-0.4-0.3-0.6s-0.1-0.5-0.2-0.8s0-0.6-0.1-0.9
			c0-0.3,0-0.5,0-0.8c0-0.3,0-0.6,0.1-0.9s0.1-0.5,0.2-0.7s0.2-0.4,0.3-0.6s0.3-0.3,0.5-0.4s0.5-0.1,0.8-0.1c0.3,0,0.5,0,0.7,0.1
			s0.4,0.2,0.5,0.3s0.2,0.3,0.3,0.5s0.2,0.4,0.2,0.6s0.1,0.5,0.1,0.7s0,0.5,0,0.8v0.1h-2.5v0.3c0,0,0,0.1,0,0.2c0,0.1,0,0.2,0,0.4
			s0,0.3,0,0.4s0,0.2,0.1,0.4s0.1,0.2,0.1,0.3s0.1,0.2,0.2,0.2s0.2,0.1,0.3,0.1c0.1,0,0.2,0,0.3-0.1s0.1-0.1,0.2-0.2
			s0.1-0.2,0.1-0.3s0-0.2,0-0.4v-0.3h1.2v0.2c0,0.7-0.2,1.2-0.5,1.5S89.3,72.8,88.7,72.8z M88.1,69h1.2v-0.4c0-0.2,0-0.3,0-0.4
			s0-0.2-0.1-0.4s-0.1-0.2-0.2-0.3s-0.2-0.1-0.3-0.1c-0.1,0-0.2,0-0.3,0.1s-0.1,0.2-0.2,0.3s-0.1,0.3-0.1,0.4s0,0.3,0,0.4V69z"/>
		<path fill="#FFFFFF" d="M93.1,72.8c-0.5,0-0.9-0.2-1.2-0.5s-0.5-0.7-0.6-1.2l0.9-0.3c0.2,0.6,0.5,0.9,0.9,0.9
			c0.2,0,0.4-0.1,0.5-0.2s0.2-0.3,0.2-0.5c0-0.3-0.1-0.5-0.3-0.7l-1.2-0.9c-0.1-0.1-0.3-0.2-0.4-0.3s-0.2-0.2-0.3-0.3
			s-0.2-0.3-0.2-0.4s-0.1-0.3-0.1-0.5c0-0.5,0.2-0.9,0.5-1.2s0.8-0.4,1.4-0.4c0.3,0,0.5,0,0.7,0.1s0.4,0.2,0.5,0.4s0.3,0.3,0.4,0.5
			s0.2,0.4,0.2,0.6l-0.9,0.3c0-0.1-0.1-0.2-0.1-0.3s-0.1-0.2-0.2-0.3s-0.2-0.2-0.3-0.2s-0.2-0.1-0.3-0.1c-0.2,0-0.4,0.1-0.5,0.2
			s-0.2,0.3-0.2,0.5c0,0.2,0.1,0.4,0.3,0.5l1.2,0.9c0.1,0.1,0.3,0.2,0.4,0.3s0.2,0.2,0.3,0.4s0.2,0.3,0.2,0.5S95,71,95,71.2
			c0,0.5-0.2,0.9-0.5,1.2S93.7,72.8,93.1,72.8z"/>
		<path fill="#FFFFFF" d="M97.5,72.8c-0.5,0-0.8-0.1-1.1-0.4s-0.3-0.6-0.3-1.1v-3.9h-0.6v-0.9h0.6v-2.2h1.2v2.2h0.9v0.9h-0.9V71
			c0,0.3,0,0.4,0.1,0.6s0.2,0.2,0.4,0.2c0.1,0,0.2,0,0.4,0v1C97.9,72.8,97.7,72.8,97.5,72.8z"/>
		<path fill="#FFFFFF" d="M1.3,84.7l-1.2-6.2h1.1l0.7,4.7l0.7-4.7h1.1l0.7,4.7L5,78.5h1.1L5,84.7H3.8l-0.7-4.3l-0.7,4.3H1.3z"/>
		<path fill="#FFFFFF" d="M8.5,84.8c-0.3,0-0.6-0.1-0.8-0.2s-0.4-0.2-0.5-0.4S7,83.9,6.9,83.6s-0.1-0.5-0.2-0.8s0-0.6-0.1-0.9
			c0-0.3,0-0.5,0-0.8c0-0.3,0-0.6,0.1-0.9s0.1-0.5,0.2-0.7s0.2-0.4,0.3-0.6s0.3-0.3,0.5-0.4s0.5-0.1,0.8-0.1c0.3,0,0.5,0,0.7,0.1
			s0.4,0.2,0.5,0.3s0.2,0.3,0.3,0.5s0.2,0.4,0.2,0.6s0.1,0.5,0.1,0.7s0,0.5,0,0.8v0.1H7.9v0.3c0,0,0,0.1,0,0.2c0,0.1,0,0.2,0,0.4
			s0,0.3,0,0.4s0,0.2,0.1,0.4s0.1,0.2,0.1,0.3s0.1,0.2,0.2,0.2s0.2,0.1,0.3,0.1c0.1,0,0.2,0,0.3-0.1S9,83.6,9,83.5s0.1-0.2,0.1-0.3
			s0-0.2,0-0.4v-0.3h1.2v0.2c0,0.7-0.2,1.2-0.5,1.5S9.1,84.8,8.5,84.8z M7.9,81h1.2v-0.4c0-0.2,0-0.3,0-0.4s0-0.2-0.1-0.4
			s-0.1-0.2-0.2-0.3s-0.2-0.1-0.3-0.1c-0.1,0-0.2,0-0.3,0.1S8.1,79.7,8,79.8s-0.1,0.3-0.1,0.4s0,0.3,0,0.4V81z"/>
		<path fill="#FFFFFF" d="M11.4,77.5v-1.2h1.2v1.2H11.4z M11.4,84.7v-6.2h1.2v6.2H11.4z"/>
		<path fill="#FFFFFF" d="M15.8,86.6c-0.2,0-0.3,0-0.4,0s-0.2,0-0.4,0s-0.3,0-0.4,0s-0.2,0-0.4-0.1s-0.3-0.1-0.4-0.1
			s-0.2-0.1-0.3-0.2s-0.2-0.1-0.2-0.2s-0.1-0.2-0.1-0.3c0-0.3,0.1-0.6,0.3-0.8s0.4-0.4,0.7-0.6c-0.2,0-0.3-0.1-0.4-0.2
			s-0.2-0.2-0.2-0.3c0-0.1,0-0.1,0-0.2s0-0.1,0-0.2s0-0.1,0.1-0.2s0.1-0.1,0.1-0.2s0.1-0.1,0.1-0.2s0.1-0.1,0.1-0.1s0.1-0.1,0.1-0.1
			s0.1-0.1,0.1-0.1c-0.4-0.5-0.6-1.1-0.6-1.9c0-0.4,0.1-0.8,0.2-1.2s0.3-0.6,0.6-0.8s0.6-0.3,1-0.3c0.2,0,0.4,0,0.6,0.1
			s0.3,0.1,0.4,0.2s0.2,0.2,0.3,0.4c0.2-0.5,0.6-0.7,1.1-0.7c0,0,0,0,0,0s0,0,0,0s0,0,0,0v1c0,0,0,0-0.1,0c-0.1,0-0.2,0-0.3,0
			s-0.2,0-0.2,0s-0.2,0.1-0.2,0.1c0.1,0.1,0.1,0.3,0.2,0.5s0.1,0.4,0.1,0.6c0,0.4-0.1,0.8-0.2,1.2s-0.3,0.6-0.6,0.8s-0.6,0.3-1,0.3
			l-0.6-0.1c0,0,0,0,0,0.1s0,0.1-0.1,0.1s0,0.1,0,0.1s0,0.1,0,0.1c0,0.1,0,0.2,0.1,0.2s0.2,0.1,0.3,0.1s0.3,0,0.4,0.1s0.3,0,0.4,0
			s0.3,0,0.3,0c0.2,0,0.4,0.1,0.5,0.1s0.3,0.1,0.4,0.1s0.3,0.1,0.4,0.2s0.2,0.2,0.2,0.4S18,84.8,18,85c0,0.2,0,0.4-0.1,0.6
			s-0.2,0.3-0.3,0.4s-0.3,0.2-0.5,0.3s-0.4,0.1-0.6,0.2S16,86.6,15.8,86.6z M15.8,85.7c0.1,0,0.2,0,0.2,0s0.2,0,0.2,0s0.2,0,0.2,0
			s0.1,0,0.2-0.1s0.1-0.1,0.1-0.1s0-0.1,0-0.2c0-0.3-0.3-0.6-1-0.6l-1-0.1c-0.1,0.1-0.2,0.2-0.3,0.4s-0.1,0.4-0.1,0.5
			c0,0.1,0,0.1,0.1,0.1s0.1,0.1,0.2,0.1s0.1,0,0.2,0s0.2,0,0.3,0s0.2,0,0.3,0s0.2,0,0.3,0S15.7,85.7,15.8,85.7z M15.5,82
			c0.5,0,0.8-0.4,0.8-1.3c0-0.2,0-0.3,0-0.5s-0.1-0.3-0.1-0.4s-0.1-0.3-0.2-0.3s-0.2-0.1-0.4-0.1c-0.2,0-0.3,0-0.4,0.1
			s-0.2,0.2-0.2,0.3s-0.1,0.3-0.1,0.4s0,0.3,0,0.5C14.7,81.5,14.9,82,15.5,82z"/>
		<path fill="#FFFFFF" d="M18.3,84.7V76h1.2v3.2c0.2-0.2,0.3-0.3,0.5-0.4s0.3-0.2,0.5-0.3s0.4-0.1,0.7-0.1c0.3,0,0.5,0.1,0.6,0.3
			s0.2,0.4,0.2,0.7v5.3h-1.2V80c0-0.2,0-0.4-0.1-0.5s-0.2-0.2-0.3-0.2c-0.3,0-0.5,0.1-0.8,0.4v4.9H18.3z"/>
		<path fill="#FFFFFF" d="M24.9,84.8c-0.3,0-0.6-0.1-0.8-0.2s-0.4-0.2-0.5-0.4s-0.2-0.4-0.3-0.6s-0.1-0.5-0.2-0.8s0-0.6-0.1-0.9
			c0-0.3,0-0.5,0-0.8c0-0.3,0-0.6,0.1-0.9s0.1-0.5,0.2-0.7s0.2-0.4,0.3-0.6s0.3-0.3,0.5-0.4s0.5-0.1,0.8-0.1c0.3,0,0.5,0,0.7,0.1
			s0.4,0.2,0.5,0.3s0.2,0.3,0.3,0.5s0.2,0.4,0.2,0.6s0.1,0.5,0.1,0.7s0,0.5,0,0.8v0.1h-2.5v0.3c0,0,0,0.1,0,0.2c0,0.1,0,0.2,0,0.4
			s0,0.3,0,0.4s0,0.2,0.1,0.4s0.1,0.2,0.1,0.3s0.1,0.2,0.2,0.2s0.2,0.1,0.3,0.1c0.1,0,0.2,0,0.3-0.1s0.1-0.1,0.2-0.2
			s0.1-0.2,0.1-0.3s0-0.2,0-0.4v-0.3h1.2v0.2c0,0.7-0.2,1.2-0.5,1.5S25.5,84.8,24.9,84.8z M24.3,81h1.2v-0.4c0-0.2,0-0.3,0-0.4
			s0-0.2-0.1-0.4s-0.1-0.2-0.2-0.3s-0.2-0.1-0.3-0.1c-0.1,0-0.2,0-0.3,0.1s-0.1,0.2-0.2,0.3s-0.1,0.3-0.1,0.4s0,0.3,0,0.4V81z"/>
		<path fill="#FFFFFF" d="M29.2,84.8c-0.3,0-0.5-0.1-0.7-0.2s-0.4-0.4-0.5-0.6s-0.2-0.5-0.3-0.8s-0.1-0.6-0.1-0.9c0-0.2,0-0.5,0-1.1
			c0-0.2,0-0.4,0-0.6s0-0.4,0.1-0.5s0.1-0.4,0.1-0.5s0.1-0.3,0.2-0.4s0.2-0.2,0.3-0.3s0.2-0.2,0.4-0.2s0.3-0.1,0.5-0.1
			c0.1,0,0.3,0,0.4,0.1s0.2,0.1,0.3,0.2s0.2,0.2,0.3,0.2s0.2,0.1,0.3,0.3V76h1.2v8.7h-1.2v-0.6c-0.2,0.2-0.4,0.4-0.6,0.5
			S29.4,84.8,29.2,84.8z M29.5,83.8c0.3,0,0.6-0.1,0.9-0.2v-3.9c-0.3-0.2-0.6-0.2-0.9-0.2c-0.1,0-0.2,0-0.3,0.1S29,79.6,29,79.8
			s-0.1,0.2-0.1,0.4s0,0.3,0,0.4c0,0.7,0,1.3,0,1.7c0,0.2,0,0.4,0,0.6s0.1,0.3,0.1,0.5s0.1,0.3,0.2,0.3S29.4,83.8,29.5,83.8z"/>
		<path fill="#FFFFFF" d="M34.9,77.5v-1.2h1.2v1.2H34.9z M34.9,84.7v-6.2h1.2v6.2H34.9z"/>
		<path fill="#FFFFFF" d="M39,84.8c-0.5,0-0.9-0.2-1.2-0.5s-0.5-0.7-0.6-1.2l0.9-0.3c0.2,0.6,0.5,0.9,0.9,0.9c0.2,0,0.4-0.1,0.5-0.2
			s0.2-0.3,0.2-0.5c0-0.3-0.1-0.5-0.3-0.7l-1.2-0.9c-0.1-0.1-0.3-0.2-0.4-0.3s-0.2-0.2-0.3-0.3s-0.2-0.3-0.2-0.4s-0.1-0.3-0.1-0.5
			c0-0.5,0.2-0.9,0.5-1.2s0.8-0.4,1.4-0.4c0.3,0,0.5,0,0.7,0.1s0.4,0.2,0.5,0.4s0.3,0.3,0.4,0.5s0.2,0.4,0.2,0.6L40,80.3
			c0-0.1-0.1-0.2-0.1-0.3s-0.1-0.2-0.2-0.3s-0.2-0.2-0.3-0.2s-0.2-0.1-0.3-0.1c-0.2,0-0.4,0.1-0.5,0.2s-0.2,0.3-0.2,0.5
			c0,0.2,0.1,0.4,0.3,0.5l1.2,0.9c0.1,0.1,0.3,0.2,0.4,0.3s0.2,0.2,0.3,0.4s0.2,0.3,0.2,0.5s0.1,0.3,0.1,0.5c0,0.5-0.2,0.9-0.5,1.2
			S39.6,84.8,39,84.8z"/>
		<path fill="#FFFFFF" d="M44.4,84.7v-6.9h-0.9v-0.9c0.6-0.2,1-0.5,1.2-0.9h0.9v8.8H44.4z"/>
		<path fill="#FFFFFF" d="M48.9,84.8c-0.7,0-1.2-0.2-1.6-0.6s-0.6-1-0.6-1.7h1.2c0,0.4,0.1,0.7,0.2,0.9s0.4,0.3,0.7,0.3
			c0.6,0,0.9-0.6,0.9-1.9v-1.2c-0.2,0.4-0.7,0.6-1.2,0.6c-0.4,0-0.7-0.1-0.9-0.2s-0.4-0.3-0.6-0.5s-0.2-0.5-0.3-0.8s-0.1-0.6-0.1-1
			c0-0.4,0-0.8,0.1-1.1s0.2-0.6,0.4-0.9s0.4-0.5,0.7-0.6s0.6-0.2,1-0.2c0.3,0,0.6,0.1,0.8,0.2s0.5,0.2,0.6,0.4s0.3,0.4,0.4,0.6
			s0.2,0.5,0.3,0.8s0.1,0.6,0.1,0.9v2.8c0,0.4,0,0.7-0.1,1s-0.1,0.6-0.2,0.9s-0.2,0.5-0.4,0.7s-0.4,0.4-0.6,0.5S49.2,84.8,48.9,84.8
			z M48.9,80.3c0.4,0,0.7-0.2,0.9-0.6v-1.2c0-0.2,0-0.4,0-0.6s-0.1-0.3-0.1-0.5s-0.2-0.3-0.3-0.4s-0.3-0.1-0.5-0.1s-0.3,0-0.5,0.1
			s-0.2,0.2-0.3,0.4S48,77.7,48,77.9s0,0.4,0,0.6c0,0.1,0,0.2,0,0.3s0,0.2,0,0.3s0,0.2,0,0.3s0,0.1,0,0.2s0,0.2,0.1,0.2
			s0.1,0.1,0.1,0.2s0.1,0.1,0.1,0.2s0.1,0.1,0.2,0.1s0.1,0.1,0.2,0.1S48.8,80.3,48.9,80.3z"/>
		<path fill="#FFFFFF" d="M54.2,84.8c-0.5,0-0.9-0.1-1.2-0.3s-0.6-0.5-0.7-0.9S52,82.7,52,82.2v-3.8c0-0.8,0.2-1.4,0.5-1.9
			s0.9-0.7,1.6-0.7c0.7,0,1.3,0.2,1.6,0.7s0.5,1.1,0.5,1.9v3.8c0,0.8-0.2,1.4-0.6,1.9S54.9,84.8,54.2,84.8z M54.2,83.8
			c0.6,0,0.9-0.5,0.9-1.6v-3.8c0-0.2,0-0.3,0-0.5s0-0.3-0.1-0.4s-0.1-0.3-0.2-0.4S54.7,77,54.6,77s-0.2-0.1-0.4-0.1s-0.3,0-0.4,0.1
			s-0.2,0.1-0.3,0.2s-0.1,0.2-0.2,0.4s-0.1,0.3-0.1,0.4s0,0.3,0,0.5v3.8c0,0.2,0,0.4,0,0.6s0.1,0.3,0.1,0.5s0.2,0.3,0.3,0.4
			S54,83.8,54.2,83.8z"/>
		<path fill="#FFFFFF" d="M59.4,84.7V76h1.2v8.8H59.4z"/>
		<path fill="#FFFFFF" d="M64.3,84.8c-0.3,0-0.5-0.1-0.7-0.2s-0.4-0.3-0.6-0.5v0.6h-1.2V76h1.2v3.1c0.1-0.1,0.2-0.2,0.3-0.3
			s0.1-0.1,0.3-0.2s0.2-0.1,0.3-0.2s0.3-0.1,0.4-0.1c0.2,0,0.4,0,0.6,0.1s0.3,0.2,0.4,0.3s0.2,0.3,0.3,0.5s0.1,0.4,0.2,0.5
			s0.1,0.4,0.1,0.7s0,0.5,0,0.7s0,0.4,0,0.7v0.1c0,0.3,0,0.5,0,0.8s-0.1,0.5-0.2,0.8s-0.2,0.5-0.3,0.7s-0.3,0.3-0.4,0.5
			S64.5,84.8,64.3,84.8z M64,83.8c0.1,0,0.2,0,0.3-0.1s0.2-0.2,0.2-0.4s0.1-0.4,0.1-0.5s0-0.4,0-0.6c0-0.2,0-0.4,0-0.7s0-0.5,0-0.7
			s0-0.3,0-0.4s0-0.2,0-0.3s-0.1-0.2-0.1-0.3s-0.1-0.1-0.2-0.2s-0.2-0.1-0.3-0.1c-0.3,0-0.7,0.1-0.9,0.2v3.9
			C63.4,83.7,63.7,83.8,64,83.8z"/>
		<path fill="#FFFFFF" d="M68.5,84.8c-0.5,0-0.9-0.2-1.2-0.5s-0.5-0.7-0.6-1.2l0.9-0.3c0.2,0.6,0.5,0.9,0.9,0.9
			c0.2,0,0.4-0.1,0.5-0.2s0.2-0.3,0.2-0.5c0-0.3-0.1-0.5-0.3-0.7l-1.2-0.9c-0.1-0.1-0.3-0.2-0.4-0.3S67.1,81,67,80.9
			s-0.2-0.3-0.2-0.4s-0.1-0.3-0.1-0.5c0-0.5,0.2-0.9,0.5-1.2s0.8-0.4,1.4-0.4c0.3,0,0.5,0,0.7,0.1s0.4,0.2,0.5,0.4s0.3,0.3,0.4,0.5
			s0.2,0.4,0.2,0.6l-0.9,0.3c0-0.1-0.1-0.2-0.1-0.3s-0.1-0.2-0.2-0.3s-0.2-0.2-0.3-0.2s-0.2-0.1-0.3-0.1c-0.2,0-0.4,0.1-0.5,0.2
			s-0.2,0.3-0.2,0.5c0,0.2,0.1,0.4,0.3,0.5l1.2,0.9c0.1,0.1,0.3,0.2,0.4,0.3s0.2,0.2,0.3,0.4s0.2,0.3,0.2,0.5s0.1,0.3,0.1,0.5
			c0,0.5-0.2,0.9-0.5,1.2S69.1,84.8,68.5,84.8z"/>
		<path fill="#FFFFFF" d="M70.9,84.7v-1.2h1.2v1.2H70.9z"/>
	</g>
	<g>
	</g>
	<g>
	</g>
	<g>
	</g>
	<g>
	</g>
	<g>
	</g>
	<g>
	</g>
</g>
</svg>
