<?xml version="1.0" encoding="utf-8"?>
<!-- Generator: Adobe Illustrator 19.1.0, SVG Export Plug-In . SVG Version: 6.00 Build 0)  -->
<svg version="1.1" xmlns="http://www.w3.org/2000/svg" xmlns:xlink="http://www.w3.org/1999/xlink" x="0px" y="0px" width="285.3px"
	 height="206.4px" viewBox="0 0 285.3 206.4" enable-background="new 0 0 285.3 206.4" xml:space="preserve">
<g id="bck">
	<path opacity="0.39" fill="#FFFFFF" d="M222.6,182.4c-56.8,26.1-117.8,39.8-143.9-7.1C60.1,141.9,62.7,90.6,95.4,51.2
		c13.1-15.8,31.2-29.8,54.6-39.8c65.3-28,93.4,22.3,109.5,43.9C287,92.3,273,159.3,222.6,182.4z"/>
</g>
<g id="scale">
	<path fill="#C7C8CA" d="M179.5,52v4.9c-3.9,0-7.8,0-11.7,0V52H179.5z"/>
	<path fill="#C7C8CA" d="M167.8,58.4c3.8,0,7.8,0,11.7,0v33.9h-11.7V58.4z"/>
	<path fill="#C7C8CA" d="M222.3,154.4c-0.1,1-0.2,1.8-0.4,2.3c-1.8,5.7-114.9,1.7-141-8.3c-3.4-1.3-5.3-2.7-5.3-4.2
		c0-0.7,0.4-1.4,1.2-2.1c0,0,45.1-40.5,56.9-45.5c11.8-5.1,77.3-0.3,81.3,2C218.8,100.6,223.2,142.6,222.3,154.4z"/>
	<path fill="#8C8E90" d="M221.9,166.6c-2,6.4-145.8,0.5-146.3-12.5V154l0-9.8c0,1.5,1.9,2.9,5.3,4.2c26.1,10,139.2,14,141,8.3
		c0.2-0.5,0.3-1.3,0.4-2.3C222.5,160.3,222.4,164.9,221.9,166.6z"/>
	<path fill="#553278" d="M207.6,148.9c-0.1,0.8-0.2,1.4-0.3,1.8c-1.4,4.5-91.9,1.4-112.8-6.6c-2.7-1-4.3-2.2-4.3-3.4
		c0-0.5,0.3-1.1,1-1.7c0,0,36.1-32.4,45.5-36.4c9.4-4,61.8-0.2,65.1,1.6C204.8,105.8,208.4,139.5,207.6,148.9z"/>
	<path fill="#C7C8CA" d="M216.8,44.7c-0.1,6.2-1.2,11.6-4.6,12c-3.2,0.3-17.5,0.3-32.7,0.3c-3.9,0-7.8,0-11.7,0
		c-15.3-0.1-28.7-0.2-28.7-0.2c-1.6,0-2.3-4.1-2.4-9.3c0-0.1,0-0.3,0-0.4c-0.1-9.2,1.9-21.8,5.4-22.6c5.7-1.3,72-2.7,73,2.7
		C215.7,29.8,216.8,37.7,216.8,44.7z"/>
	<path fill="#8C8E90" d="M179.5,56.9v1.5c-3.9,0-7.8,0-11.7,0v-1.5C171.6,56.9,175.6,56.9,179.5,56.9z"/>
	<path fill="#8C8E90" d="M210.1,50c0.8-4.5-1.2-14.8-1.7-17.8c-0.7-4-61-3.7-64-1.3c0,0-1.4,14.1-0.7,19.4c-1.9-1.6,0-21.3,0-21.3
		c3-2.3,64.7-2.7,65.3,1.3C209.7,33.9,212.5,47.7,210.1,50z"/>
	<path fill="#FFFFFF" d="M210.1,50c-0.2,0.2-0.6,0.3-0.9,0.3c-4-0.3-63.3,1.3-65.3,0c0,0,0,0,0,0c-0.7-5.3,0.7-19.4,0.7-19.4
		c2.9-2.3,63.3-2.7,64,1.3C208.9,35.2,210.9,45.5,210.1,50z"/>
	<g>
		<path fill="#81B441" d="M151.2,32.2c0,0,0.2,0.1,0.4,0.3c0.1,0.1,0.3,0.2,0.4,0.4c0.1,0.1,0.1,0.1,0.2,0.2c0.1,0.1,0,0.2,0,0.3
			c0,0.7,0,1.7,0.1,2.6c0,1,0,1.9,0.1,2.6c0,0.1,0.1,0.2,0,0.3c-0.1,0.1-0.1,0.2-0.2,0.2c-0.1,0.1-0.3,0.3-0.4,0.4
			c-0.2,0.2-0.4,0.3-0.4,0.3s-0.2-0.1-0.4-0.3c-0.1-0.1-0.3-0.2-0.4-0.4c-0.1-0.1-0.1-0.1-0.2-0.2c-0.1-0.1,0-0.2,0-0.3
			c0-0.7,0-1.7-0.1-2.6c0-1,0-1.9-0.1-2.6c0-0.1-0.1-0.2,0-0.3c0.1-0.1,0.1-0.2,0.2-0.2c0.1-0.1,0.3-0.3,0.4-0.4
			C151.1,32.3,151.2,32.2,151.2,32.2z"/>
	</g>
	<g>
		<path fill="#81B441" d="M151.4,40.4c0,0,0.2,0.1,0.4,0.3c0.1,0.1,0.3,0.2,0.4,0.4c0.1,0.1,0.1,0.1,0.2,0.2c0.1,0.1,0,0.2,0,0.3
			c0,0.7,0,1.7,0.1,2.6c0,1,0,1.9,0.1,2.6c0,0.1,0.1,0.2,0,0.3c-0.1,0.1-0.1,0.2-0.2,0.2c-0.1,0.1-0.3,0.3-0.4,0.4
			c-0.2,0.2-0.4,0.3-0.4,0.3s-0.2-0.1-0.4-0.3c-0.1-0.1-0.3-0.2-0.4-0.4c-0.1-0.1-0.1-0.1-0.2-0.2c-0.1-0.1,0-0.2,0-0.3
			c0-0.7,0-1.7-0.1-2.6c0-1,0-1.9-0.1-2.6c0-0.1-0.1-0.2,0-0.3c0.1-0.1,0.1-0.2,0.2-0.2c0.1-0.1,0.3-0.3,0.4-0.4
			C151.2,40.5,151.4,40.4,151.4,40.4z"/>
	</g>
	<g>
		<path fill="#81B441" d="M163.5,32.2c0,0,0.2,0.1,0.4,0.3c0.1,0.1,0.3,0.2,0.4,0.4c0.1,0.1,0.1,0.1,0.2,0.2c0.1,0.1,0,0.2,0,0.3
			c0,0.7,0,1.7,0.1,2.6c0,1,0,1.9,0.1,2.6c0,0.1,0.1,0.2,0,0.3c-0.1,0.1-0.1,0.2-0.2,0.2c-0.1,0.1-0.3,0.3-0.4,0.4
			c-0.2,0.2-0.4,0.3-0.4,0.3s-0.2-0.1-0.4-0.3c-0.1-0.1-0.3-0.2-0.4-0.4c-0.1-0.1-0.1-0.1-0.2-0.2c-0.1-0.1,0-0.2,0-0.3
			c0-0.7,0-1.7-0.1-2.6c0-1,0-1.9-0.1-2.6c0-0.1-0.1-0.2,0-0.3c0.1-0.1,0.1-0.2,0.2-0.2c0.1-0.1,0.3-0.3,0.4-0.4
			C163.3,32.3,163.5,32.2,163.5,32.2z"/>
	</g>
	<g>
		<path fill="#81B441" d="M155.9,32.4c0,0,0.2,0.1,0.4,0.3c0.1,0.1,0.3,0.2,0.4,0.4c0.1,0.1,0.1,0.1,0.2,0.2c0.1,0.1,0,0.2,0,0.3
			c0,0.7,0,1.7,0.1,2.6c0,1,0,1.9,0.1,2.6c0,0.1,0.1,0.2,0,0.3c-0.1,0.1-0.1,0.2-0.2,0.2c-0.1,0.1-0.3,0.3-0.4,0.4
			c-0.2,0.2-0.4,0.3-0.4,0.3s-0.2-0.1-0.4-0.3c-0.1-0.1-0.3-0.2-0.4-0.4c-0.1-0.1-0.1-0.1-0.2-0.2c-0.1-0.1,0-0.2,0-0.3
			c0-0.7,0-1.7-0.1-2.6s0-1.9-0.1-2.6c0-0.1-0.1-0.2,0-0.3c0.1-0.1,0.1-0.2,0.2-0.2c0.1-0.1,0.3-0.3,0.4-0.4
			C155.8,32.5,155.9,32.4,155.9,32.4z"/>
	</g>
	<g>
		<path fill="#81B441" d="M163.6,40.4c0,0,0.2,0.1,0.4,0.3c0.1,0.1,0.3,0.2,0.4,0.4c0.1,0.1,0.1,0.1,0.2,0.2c0.1,0.1,0,0.2,0,0.3
			c0,0.7,0,1.7,0.1,2.6c0,1,0,1.9,0.1,2.6c0,0.1,0.1,0.2,0,0.3c-0.1,0.1-0.1,0.2-0.2,0.2c-0.1,0.1-0.3,0.3-0.4,0.4
			c-0.2,0.2-0.4,0.3-0.4,0.3s-0.2-0.1-0.4-0.3c-0.1-0.1-0.3-0.2-0.4-0.4c-0.1-0.1-0.1-0.1-0.2-0.2c-0.1-0.1,0-0.2,0-0.3
			c0-0.7,0-1.7-0.1-2.6c0-1,0-1.9-0.1-2.6c0-0.1-0.1-0.2,0-0.3c0.1-0.1,0.1-0.2,0.2-0.2c0.1-0.1,0.3-0.3,0.4-0.4
			C163.5,40.5,163.6,40.4,163.6,40.4z"/>
	</g>
	<g>
		<path fill="#81B441" d="M156.5,32.2c0,0,0.1-0.2,0.3-0.4c0.1-0.1,0.2-0.3,0.3-0.4c0.1-0.1,0.1-0.1,0.2-0.2c0.1-0.1,0.1,0,0.2,0
			c0.6,0,1.4,0,2.2,0s1.6,0,2.2,0c0.1,0,0.1-0.1,0.2,0c0.1,0.1,0.1,0.2,0.2,0.2c0.1,0.1,0.2,0.3,0.3,0.4c0.2,0.2,0.3,0.4,0.3,0.4
			s-0.1,0.2-0.3,0.4c-0.1,0.1-0.2,0.3-0.3,0.4c-0.1,0.1-0.1,0.1-0.2,0.2c-0.1,0.1-0.1,0-0.2,0c-0.6,0-1.4,0-2.2,0
			c-0.8,0-1.6,0-2.2,0c-0.1,0-0.1,0.1-0.2,0c-0.1-0.1-0.1-0.2-0.2-0.2c-0.1-0.1-0.2-0.3-0.3-0.4C156.6,32.3,156.5,32.2,156.5,32.2z"
			/>
	</g>
	<g>
		<path fill="#81B441" d="M156.5,40.3c0,0,0.1-0.2,0.3-0.4c0.1-0.1,0.2-0.3,0.3-0.4c0.1-0.1,0.1-0.1,0.2-0.2c0.1-0.1,0.1,0,0.2,0
			c0.6,0,1.4,0,2.2,0c0.8,0,1.6,0,2.2,0c0.1,0,0.1-0.1,0.2,0c0.1,0.1,0.1,0.2,0.2,0.2c0.1,0.1,0.2,0.3,0.3,0.4
			c0.2,0.2,0.3,0.4,0.3,0.4s-0.1,0.2-0.3,0.4c-0.1,0.1-0.2,0.3-0.3,0.4c-0.1,0.1-0.1,0.1-0.2,0.2c-0.1,0.1-0.1,0-0.2,0
			c-0.6,0-1.4,0-2.2,0c-0.8,0-1.6,0-2.2,0c-0.1,0-0.1,0.1-0.2,0c-0.1-0.1-0.1-0.2-0.2-0.2c-0.1-0.1-0.2-0.3-0.3-0.4
			C156.6,40.5,156.5,40.3,156.5,40.3z"/>
	</g>
	<g>
		<path fill="#81B441" d="M175.8,31.8c0,0,0.2,0.1,0.4,0.3c0.1,0.1,0.3,0.2,0.4,0.4c0.1,0.1,0.1,0.1,0.2,0.2c0.1,0.1,0,0.2,0,0.3
			c0,0.7,0,1.7,0.1,2.6s0,1.9,0.1,2.6c0,0.1,0.1,0.2,0,0.3c-0.1,0.1-0.1,0.2-0.2,0.2c-0.1,0.1-0.3,0.3-0.4,0.4
			c-0.2,0.2-0.4,0.3-0.4,0.3s-0.2-0.1-0.4-0.3c-0.1-0.1-0.3-0.2-0.4-0.4c-0.1-0.1-0.1-0.1-0.2-0.2c-0.1-0.1,0-0.2,0-0.3
			c0-0.7,0-1.7-0.1-2.6c0-1,0-1.9-0.1-2.6c0-0.1-0.1-0.2,0-0.3c0.1-0.1,0.1-0.2,0.2-0.2c0.1-0.1,0.3-0.3,0.4-0.4
			C175.7,32,175.8,31.8,175.8,31.8z"/>
	</g>
	<g>
		<path fill="#81B441" d="M168.4,32.5c0,0,0.2,0.1,0.4,0.3c0.1,0.1,0.3,0.2,0.4,0.4c0.1,0.1,0.1,0.1,0.2,0.2c0.1,0.1,0,0.2,0,0.3
			c0,0.7,0,1.7,0.1,2.6c0,1,0,1.9,0.1,2.6c0,0.1,0.1,0.2,0,0.3c-0.1,0.1-0.1,0.2-0.2,0.2c-0.1,0.1-0.3,0.3-0.4,0.4
			c-0.2,0.2-0.4,0.3-0.4,0.3s-0.2-0.1-0.4-0.3c-0.1-0.1-0.3-0.2-0.4-0.4c-0.1-0.1-0.1-0.1-0.2-0.2c-0.1-0.1,0-0.2,0-0.3
			c0-0.7,0-1.7-0.1-2.6c0-1,0-1.9-0.1-2.6c0-0.1-0.1-0.2,0-0.3c0.1-0.1,0.1-0.2,0.2-0.2c0.1-0.1,0.3-0.3,0.4-0.4
			C168.2,32.6,168.4,32.5,168.4,32.5z"/>
	</g>
	<g>
		<path fill="#81B441" d="M176,40.1c0,0,0.2,0.1,0.4,0.3c0.1,0.1,0.3,0.2,0.4,0.4c0.1,0.1,0.1,0.1,0.2,0.2c0.1,0.1,0,0.2,0,0.3
			c0,0.7,0,1.7,0.1,2.6c0,1,0,1.9,0.1,2.6c0,0.1,0.1,0.2,0,0.3c-0.1,0.1-0.1,0.2-0.2,0.2c-0.1,0.1-0.3,0.3-0.4,0.4
			c-0.2,0.2-0.4,0.3-0.4,0.3s-0.2-0.1-0.4-0.3c-0.1-0.1-0.3-0.2-0.4-0.4c-0.1-0.1-0.1-0.1-0.2-0.2c-0.1-0.1,0-0.2,0-0.3
			c0-0.7,0-1.7-0.1-2.6c0-1,0-1.9-0.1-2.6c0-0.1-0.1-0.2,0-0.3c0.1-0.1,0.1-0.2,0.2-0.2c0.1-0.1,0.3-0.3,0.4-0.4
			C175.8,40.2,176,40.1,176,40.1z"/>
	</g>
	<g>
		<path fill="#81B441" d="M168.4,40.3c0,0,0.2,0.1,0.4,0.3c0.1,0.1,0.3,0.2,0.4,0.4c0.1,0.1,0.1,0.1,0.2,0.2c0.1,0.1,0,0.2,0,0.3
			c0,0.7,0,1.7,0.1,2.6s0,1.9,0.1,2.6c0,0.1,0.1,0.2,0,0.3c-0.1,0.1-0.1,0.2-0.2,0.2c-0.1,0.1-0.3,0.3-0.4,0.4
			c-0.2,0.2-0.4,0.3-0.4,0.3s-0.2-0.1-0.4-0.3c-0.1-0.1-0.3-0.2-0.4-0.4c-0.1-0.1-0.1-0.1-0.2-0.2c-0.1-0.1,0-0.2,0-0.3
			c0-0.7,0-1.7-0.1-2.6c0-1,0-1.9-0.1-2.6c0-0.1-0.1-0.2,0-0.3c0.1-0.1,0.1-0.2,0.2-0.2c0.1-0.1,0.3-0.3,0.4-0.4
			C168.2,40.5,168.4,40.3,168.4,40.3z"/>
	</g>
	<g>
		<path fill="#81B441" d="M168.9,31.9c0,0,0.1-0.2,0.3-0.4c0.1-0.1,0.2-0.3,0.3-0.4c0.1-0.1,0.1-0.1,0.2-0.2c0.1-0.1,0.1,0,0.2,0
			c0.6,0,1.4,0,2.2,0c0.8,0,1.6,0,2.2,0c0.1,0,0.1-0.1,0.2,0c0.1,0.1,0.1,0.2,0.2,0.2c0.1,0.1,0.2,0.3,0.3,0.4
			c0.2,0.2,0.3,0.4,0.3,0.4s-0.1,0.2-0.3,0.4c-0.1,0.1-0.2,0.3-0.3,0.4c-0.1,0.1-0.1,0.1-0.2,0.2c-0.1,0.1-0.1,0-0.2,0
			c-0.6,0-1.4,0-2.2,0s-1.6,0-2.2,0c-0.1,0-0.1,0.1-0.2,0c-0.1-0.1-0.1-0.2-0.2-0.2c-0.1-0.1-0.2-0.3-0.3-0.4
			C169,32,168.9,31.9,168.9,31.9z"/>
	</g>
	<g>
		<path fill="#81B441" d="M169.3,48c0,0,0.1-0.2,0.3-0.4c0.1-0.1,0.2-0.3,0.3-0.4c0.1-0.1,0.1-0.1,0.2-0.2c0.1-0.1,0.1,0,0.2,0
			c0.6,0,1.4,0,2.2,0c0.8,0,1.6,0,2.2,0c0.1,0,0.1-0.1,0.2,0c0.1,0.1,0.1,0.2,0.2,0.2c0.1,0.1,0.2,0.3,0.3,0.4
			c0.2,0.2,0.3,0.4,0.3,0.4s-0.1,0.2-0.3,0.4c-0.1,0.1-0.2,0.3-0.3,0.4c-0.1,0.1-0.1,0.1-0.2,0.2c-0.1,0.1-0.1,0-0.2,0
			c-0.6,0-1.4,0-2.2,0s-1.6,0-2.2,0c-0.1,0-0.1,0.1-0.2,0c-0.1-0.1-0.1-0.2-0.2-0.2c-0.1-0.1-0.2-0.3-0.3-0.4
			C169.4,48.2,169.3,48,169.3,48z"/>
	</g>
	<g>
		<path fill="#81B441" d="M198.6,32.4c0,0,0.2,0.1,0.4,0.3c0.1,0.1,0.3,0.2,0.4,0.4c0.1,0.1,0.1,0.1,0.2,0.2c0.1,0.1,0,0.2,0,0.3
			c0,0.7,0,1.7,0.1,2.6c0,1,0,1.9,0.1,2.6c0,0.1,0.1,0.2,0,0.3c-0.1,0.1-0.1,0.2-0.2,0.2c-0.1,0.1-0.3,0.3-0.4,0.4
			c-0.2,0.2-0.4,0.3-0.4,0.3s-0.2-0.1-0.4-0.3c-0.1-0.1-0.3-0.2-0.4-0.4c-0.1-0.1-0.1-0.1-0.2-0.2c-0.1-0.1,0-0.2,0-0.3
			c0-0.7,0-1.7-0.1-2.6s0-1.9-0.1-2.6c0-0.1-0.1-0.2,0-0.3c0.1-0.1,0.1-0.2,0.2-0.2c0.1-0.1,0.3-0.3,0.4-0.4
			C198.4,32.5,198.6,32.4,198.6,32.4z"/>
	</g>
	<g>
		<path fill="#81B441" d="M198.6,40.2c0,0,0.2,0.1,0.4,0.3c0.1,0.1,0.3,0.2,0.4,0.4c0.1,0.1,0.1,0.1,0.2,0.2c0.1,0.1,0,0.2,0,0.3
			c0,0.7,0,1.7,0.1,2.6c0,1,0,1.9,0.1,2.6c0,0.1,0.1,0.2,0,0.3c-0.1,0.1-0.1,0.2-0.2,0.2c-0.1,0.1-0.3,0.3-0.4,0.4
			c-0.2,0.2-0.4,0.3-0.4,0.3s-0.2-0.1-0.4-0.3c-0.1-0.1-0.3-0.2-0.4-0.4c-0.1-0.1-0.1-0.1-0.2-0.2c-0.1-0.1,0-0.2,0-0.3
			c0-0.7,0-1.7-0.1-2.6s0-1.9-0.1-2.6c0-0.1-0.1-0.2,0-0.3c0.1-0.1,0.1-0.2,0.2-0.2c0.1-0.1,0.3-0.3,0.4-0.4
			C198.4,40.4,198.6,40.2,198.6,40.2z"/>
	</g>
	<g>
		<path fill="#81B441" d="M199.7,40.1c0,0,0.1-0.2,0.3-0.4c0.1-0.1,0.2-0.3,0.3-0.4c0.1-0.1,0.1-0.1,0.2-0.2c0.1-0.1,0.1,0,0.2,0
			c0.6,0,1.4,0,2.2,0c0.8,0,1.6,0,2.2,0c0.1,0,0.1-0.1,0.2,0c0.1,0.1,0.1,0.2,0.2,0.2c0.1,0.1,0.2,0.3,0.3,0.4
			c0.2,0.2,0.3,0.4,0.3,0.4s-0.1,0.2-0.3,0.4c-0.1,0.1-0.2,0.3-0.3,0.4c-0.1,0.1-0.1,0.1-0.2,0.2c-0.1,0.1-0.1,0-0.2,0
			c-0.6,0-1.4,0-2.2,0c-0.8,0-1.6,0-2.2,0c-0.1,0-0.1,0.1-0.2,0c-0.1-0.1-0.1-0.2-0.2-0.2c-0.1-0.1-0.2-0.3-0.3-0.4
			C199.8,40.3,199.7,40.1,199.7,40.1z"/>
	</g>
	<g>
		<path fill="#81B441" d="M199.5,48.2c0,0,0.1-0.2,0.3-0.4c0.1-0.1,0.2-0.3,0.3-0.4c0.1-0.1,0.1-0.1,0.2-0.2c0.1-0.1,0.1,0,0.2,0
			c0.6,0,1.4,0,2.2,0c0.8,0,1.6,0,2.2,0c0.1,0,0.1-0.1,0.2,0c0.1,0.1,0.1,0.2,0.2,0.2c0.1,0.1,0.2,0.3,0.3,0.4
			c0.2,0.2,0.3,0.4,0.3,0.4s-0.1,0.2-0.3,0.4c-0.1,0.1-0.2,0.3-0.3,0.4c-0.1,0.1-0.1,0.1-0.2,0.2c-0.1,0.1-0.1,0-0.2,0
			c-0.6,0-1.4,0-2.2,0c-0.8,0-1.6,0-2.2,0c-0.1,0-0.1,0.1-0.2,0c-0.1-0.1-0.1-0.2-0.2-0.2c-0.1-0.1-0.2-0.3-0.3-0.4
			C199.6,48.4,199.5,48.2,199.5,48.2z"/>
	</g>
	<path fill="#33134D" d="M121.9,127.6c0,0-6.6,4.5,0.5,9.7s14.5,8,33.9,1.6s21.5-8,34.9-7.6s16.9-8.1,13-11.7
		C200.2,116,121.9,127.6,121.9,127.6z"/>
</g>
<g id="moth">
	<g>
		<path fill="#5B87DA" d="M285.3,8c-0.2,6-2.2,22.8-19.8,26.8c0,0-8.7,82.3-66.4,89.9c-57.7,7.6-51.1,15.8-71.2,11.4
			c-20.1-4.4-41.2-29.1-42.1-32.2c-0.2-0.7-0.3-1.3-0.2-1.8c0.1-0.7,0.4-1.1,0.9-1.2c0.5-0.2,1.1,0,1.5,0.4c0.7,0.8,1.7,1.9,2.5,2
			c0.1,0,0.3,0,0.4-0.1c0.1,0,0.2-0.1,0.3-0.3c0.1-0.1,0.1-0.2,0.2-0.3l0,0c0.2-0.5,0.2-0.8,0.2-1c0-0.1,0-0.1,0-0.2
			c0-0.1-0.1-0.2-0.1-0.2c-0.1-0.1-0.2-0.2-0.4-0.2c0,0,0,0,0,0c-0.1,0-0.1,0-0.1,0c0,0-0.1,0-0.1,0s-2.8-1.4-2-3.1
			c0-0.1,0.1-0.2,0.1-0.2c0.2-0.3,1-0.5,2.3-0.7c5.6-0.7,20.2-0.8,36.8-8.4c0,0,7.6,0.7,15-1.1c7.4-1.8,11.4-2.9,35.7-2.9
			s38.8-8.1,42.6-14.9c0,0,1.8,11.1,16-7.1s17.4-30.3,17.4-30.3s-0.4-0.5-1-1.3c-2.1-2.9-6.6-10.3-5.7-18.1c0.2-2.2,1-4.5,2.3-6.7
			c2.1-3.4,3.2-5.2,3.7-5.8c0.6-0.8,0.3,0.2,0.2,1.9c-0.2,1.7-0.3,4,0.5,6.1c2.4,6,7.2,6.9,7.2,11.6c0,4.7,3.5,0.5,4.2-1.1
			c0.7-1.6,5.1-4.2,8.5-4.7c3.4-0.5,8-8,8.3-11.1c0.2-1.5,0.8-1.8,1.3-1.1h0c0.4,0.5,0.8,1.7,1,3.3v0C285.3,6.1,285.3,7,285.3,8z"/>
		<path fill="#FFFFFF" d="M143.7,115.7c0,0-5.6,1.3-15.6-4.3c-10-5.6-8-3.2-16.4-3c-8.4,0.2-19.6-3.2-21.3-5.1
			c0.3,0,0.6-0.1,0.8-0.6c0.5-1.2,0-1.6-0.3-1.7c2.1,0.5,21.1,4.7,35.3,3.6C126.2,104.6,131.2,116.3,143.7,115.7z"/>
		<path fill="#4B6798" d="M156.9,116.8c0,0,5.6,10.9,22.4,4.4c16.9-6.5,14-11,14-11s-2.3,3.3-15.4-1c-13.1-4.2-18.1,5.3-18.1,5.3
			s5.9-8.4,17.9-4.6c5.7,2,12.1,2.9,14.8,1.5c-1.7,2.6-5.1,5.4-11,7.8C175.7,121.6,165,125,156.9,116.8z"/>
		<path fill="#4B6798" d="M148.5,112.1c0,0,6.3-6.3-4.8-6.7s-9.8,5.2-9.8,5.2s-0.9-4.7,9.8-4.6C147.3,106.4,151.1,106.6,148.5,112.1
			z"/>
		<path fill="#010101" d="M142.4,112.1c0,0-2.4,0.3-4.6,0.1c-0.4-0.4-1.2-1.5-0.1-2.7c0,0,0.1,0,0.1,0c0.3,0,0.5-0.1,0.8-0.1
			C138.6,109.3,139.8,112.2,142.4,112.1z"/>
		<path fill="#FFFFFF" d="M137.8,112.2c-1.4-0.1-2.7-0.4-3.3-1c0,0,1-1.3,3.1-1.7C136.6,110.7,137.3,111.7,137.8,112.2z"/>
	</g>
	<path fill="#4B6798" d="M254.6,32.3c0,0-0.4-0.5-1-1.3c-2.1-2.9-6.6-10.3-5.7-18.1c0.2-2.2,1-4.5,2.3-6.7
		c-2.1,9.2-0.8,10.7,1.6,16.3C254.5,28.7,254.6,32.3,254.6,32.3z"/>
	<path fill="#4B6798" d="M285.3,8c-0.2,6-2.2,22.8-19.8,26.8c0,0-8.7,82.3-66.4,89.9c-57.7,7.6-51.1,15.8-71.2,11.4
		c-20.1-4.4-41.2-29.1-42.1-32.2c-0.2-0.7-0.3-1.3-0.2-1.8c11.7,15.2,33.5,37.7,56.8,31.5c34.4-9.2,50.9-6.7,65.4-13
		c47-21.8,54.5-78.2,55.8-86.5C288.8,26.6,284.2,2,284.2,2h0c0.4,0.5,0.8,1.7,1,3.3v0C285.3,6.1,285.3,7,285.3,8z"/>
</g>
<g id="text">
	<g>
		<rect x="0" y="47.9" fill="none" width="108.8" height="68.8"/>
		<path fill="#553278" d="M0.4,59.8l3.4-0.7c0,0.3,0,0.6,0,0.9c0,0.3,0,0.5,0.1,0.8c0.1,0.3,0.1,0.6,0.2,0.8
			c0.1,0.2,0.2,0.4,0.4,0.5c0.2,0.1,0.4,0.2,0.6,0.2c0.7,0,1-0.4,1-1.3c0-1.2-0.7-2.3-2-3.5l-1-0.9c-0.3-0.3-0.6-0.5-0.8-0.7
			c-0.2-0.2-0.4-0.4-0.7-0.8c-0.3-0.3-0.5-0.6-0.6-0.9c-0.2-0.3-0.3-0.6-0.4-1.1c-0.1-0.4-0.2-0.9-0.2-1.3c0-1.4,0.4-2.4,1.3-3.2
			c0.9-0.8,2-1.2,3.4-1.2c1.2,0,2.2,0.4,3,1.3c0.8,0.8,1.2,1.9,1.2,3l0,0.1c0,0.1,0,0.2,0,0.3l-3.5,0.5c0-0.1,0-0.2,0-0.3
			c0-0.1,0-0.3,0-0.4c0-0.2,0-0.4,0-0.6c0-0.2-0.1-0.4-0.2-0.6c-0.1-0.2-0.2-0.4-0.3-0.5c-0.1-0.1-0.3-0.2-0.5-0.2
			c-0.4,0-0.6,0.1-0.8,0.4c-0.2,0.3-0.3,0.6-0.3,1c0,0.3,0.1,0.7,0.2,1c0.1,0.3,0.3,0.6,0.5,0.8c0.2,0.3,0.4,0.5,0.6,0.7
			c0.2,0.2,0.4,0.4,0.7,0.6c0.3,0.3,0.5,0.4,0.7,0.6c0.5,0.4,0.9,0.8,1.2,1.2c0.3,0.4,0.6,0.8,0.9,1.2c0.3,0.5,0.5,1,0.7,1.5
			c0.1,0.5,0.2,1.1,0.2,1.7c0,1.2-0.4,2.1-1.3,2.9c-0.8,0.7-1.8,1.1-3,1.1c-0.8,0-1.5-0.1-2.1-0.4c-0.6-0.3-1.1-0.7-1.5-1.2
			c-0.4-0.5-0.7-1-0.8-1.6C0.6,61.1,0.5,60.5,0.4,59.8z"/>
		<path fill="#553278" d="M10.7,51.4v-2.9h3.1v2.9H10.7z M10.7,64.6V52.5h3.1v12.1H10.7z"/>
		<path fill="#553278" d="M15.2,64.6v-2.1l3.3-7.7h-2.8v-2.3h6v2.1l-3.4,7.8h3.4v2.3H15.2z"/>
		<path fill="#553278" d="M22.9,61.4v-5.1c0-1.3,0.3-2.3,0.9-3c0.6-0.7,1.5-1.1,2.8-1.1c1.3,0,2.2,0.4,2.8,1.1
			c0.6,0.7,0.9,1.7,0.9,3v2.5h-4.3v2.7c0,0.7,0.2,1,0.6,1c0.4,0,0.6-0.4,0.6-1.1v-1.3h3.1v1.4c0,1-0.4,1.8-1.1,2.5
			c-0.7,0.6-1.6,1-2.6,1s-1.9-0.3-2.6-1C23.3,63.3,22.9,62.4,22.9,61.4z M26.1,57.1h1.2v-1.7c0-0.6-0.2-0.9-0.6-0.9
			c-0.4,0-0.6,0.3-0.6,0.9V57.1z"/>
		<path fill="#FFFFFF" d="M1.6,76.6v-7.6H0v-1.1h4.4v1.1H2.8v7.6H1.6z"/>
		<path fill="#FFFFFF" d="M4.9,76.6v-8.8h1.2V71c0.2-0.2,0.3-0.3,0.5-0.4s0.3-0.2,0.5-0.3s0.4-0.1,0.7-0.1c0.3,0,0.5,0.1,0.6,0.3
			s0.2,0.4,0.2,0.7v5.3H7.4v-4.7c0-0.2,0-0.4-0.1-0.5S7.2,71.3,7,71.3c-0.3,0-0.5,0.1-0.8,0.4v4.9H4.9z"/>
		<path fill="#FFFFFF" d="M11.6,76.7c-0.3,0-0.6-0.1-0.8-0.2s-0.4-0.2-0.5-0.4s-0.2-0.4-0.3-0.6s-0.1-0.5-0.2-0.8s0-0.6-0.1-0.9
			c0-0.3,0-0.5,0-0.8c0-0.3,0-0.6,0.1-0.9s0.1-0.5,0.2-0.7s0.2-0.4,0.3-0.6s0.3-0.3,0.5-0.4s0.5-0.1,0.8-0.1c0.3,0,0.5,0,0.7,0.1
			s0.4,0.2,0.5,0.3s0.2,0.3,0.3,0.5s0.2,0.4,0.2,0.6s0.1,0.5,0.1,0.7s0,0.5,0,0.8v0.1h-2.5v0.3c0,0,0,0.1,0,0.2c0,0.1,0,0.2,0,0.4
			s0,0.3,0,0.4s0,0.2,0.1,0.4s0.1,0.2,0.1,0.3s0.1,0.2,0.2,0.2s0.2,0.1,0.3,0.1c0.1,0,0.2,0,0.3-0.1s0.1-0.1,0.2-0.2
			s0.1-0.2,0.1-0.3s0-0.2,0-0.4v-0.3h1.2v0.2c0,0.7-0.2,1.2-0.5,1.5S12.2,76.7,11.6,76.7z M10.9,72.8h1.2v-0.4c0-0.2,0-0.3,0-0.4
			s0-0.2-0.1-0.4s-0.1-0.2-0.2-0.3s-0.2-0.1-0.3-0.1c-0.1,0-0.2,0-0.3,0.1s-0.1,0.2-0.2,0.3S11,71.9,11,72s0,0.3,0,0.4V72.8z"/>
		<path fill="#FFFFFF" d="M18.9,76.7c-0.3,0-0.5-0.1-0.7-0.2s-0.4-0.3-0.6-0.5v0.6h-1.2v-8.7h1.2v3.1c0.1-0.1,0.2-0.2,0.3-0.3
			s0.1-0.1,0.3-0.2s0.2-0.1,0.3-0.2s0.3-0.1,0.4-0.1c0.2,0,0.4,0,0.6,0.1s0.3,0.2,0.4,0.3s0.2,0.3,0.3,0.5s0.1,0.4,0.2,0.5
			s0.1,0.4,0.1,0.7s0,0.5,0,0.7s0,0.4,0,0.7v0.1c0,0.3,0,0.5,0,0.8s-0.1,0.5-0.2,0.8S20.1,75.8,20,76s-0.3,0.3-0.4,0.5
			S19.1,76.7,18.9,76.7z M18.6,75.6c0.1,0,0.2,0,0.3-0.1s0.2-0.2,0.2-0.4s0.1-0.4,0.1-0.5s0-0.4,0-0.6c0-0.2,0-0.4,0-0.7
			s0-0.5,0-0.7s0-0.3,0-0.4s0-0.2,0-0.3s-0.1-0.2-0.1-0.3s-0.1-0.1-0.2-0.2s-0.2-0.1-0.3-0.1c-0.3,0-0.7,0.1-0.9,0.2v3.9
			C17.9,75.6,18.3,75.6,18.6,75.6z"/>
		<path fill="#FFFFFF" d="M21.5,69.4v-1.2h1.2v1.2H21.5z M21.5,76.6v-6.2h1.2v6.2H21.5z"/>
		<path fill="#FFFFFF" d="M25.9,78.4c-0.2,0-0.3,0-0.4,0s-0.2,0-0.4,0s-0.3,0-0.4,0s-0.2,0-0.4-0.1s-0.3-0.1-0.4-0.1
			s-0.2-0.1-0.3-0.2s-0.2-0.1-0.2-0.2s-0.1-0.2-0.1-0.3c0-0.3,0.1-0.6,0.3-0.8s0.4-0.4,0.7-0.6c-0.2,0-0.3-0.1-0.4-0.2
			s-0.2-0.2-0.2-0.3c0-0.1,0-0.1,0-0.2s0-0.1,0-0.2s0-0.1,0.1-0.2S24,75,24,74.9s0.1-0.1,0.1-0.2s0.1-0.1,0.1-0.1s0.1-0.1,0.1-0.1
			s0.1-0.1,0.1-0.1c-0.4-0.5-0.6-1.1-0.6-1.9c0-0.4,0.1-0.8,0.2-1.2s0.3-0.6,0.6-0.8s0.6-0.3,1-0.3c0.2,0,0.4,0,0.6,0.1
			s0.3,0.1,0.4,0.2s0.2,0.2,0.3,0.4c0.2-0.5,0.6-0.7,1.1-0.7c0,0,0,0,0,0s0,0,0,0s0,0,0,0v1c0,0,0,0-0.1,0c-0.1,0-0.2,0-0.3,0
			s-0.2,0-0.2,0s-0.2,0.1-0.2,0.1c0.1,0.1,0.1,0.3,0.2,0.5s0.1,0.4,0.1,0.6c0,0.4-0.1,0.8-0.2,1.2s-0.3,0.6-0.6,0.8s-0.6,0.3-1,0.3
			L25,74.7c0,0,0,0,0,0.1s0,0.1-0.1,0.1s0,0.1,0,0.1s0,0.1,0,0.1c0,0.1,0,0.2,0.1,0.2s0.2,0.1,0.3,0.1s0.3,0,0.4,0.1s0.3,0,0.4,0
			s0.3,0,0.3,0c0.2,0,0.4,0.1,0.5,0.1s0.3,0.1,0.4,0.1s0.3,0.1,0.4,0.2s0.2,0.2,0.2,0.4s0.1,0.3,0.1,0.5c0,0.2,0,0.4-0.1,0.6
			s-0.2,0.3-0.3,0.4s-0.3,0.2-0.5,0.3s-0.4,0.1-0.6,0.2S26.2,78.4,25.9,78.4z M25.9,77.5c0.1,0,0.2,0,0.2,0s0.2,0,0.2,0s0.2,0,0.2,0
			s0.1,0,0.2-0.1s0.1-0.1,0.1-0.1s0-0.1,0-0.2c0-0.3-0.3-0.6-1-0.6l-1-0.1c-0.1,0.1-0.2,0.2-0.3,0.4s-0.1,0.4-0.1,0.5
			c0,0.1,0,0.1,0.1,0.1s0.1,0.1,0.2,0.1s0.1,0,0.2,0s0.2,0,0.3,0s0.2,0,0.3,0s0.2,0,0.3,0S25.9,77.5,25.9,77.5z M25.6,73.8
			c0.5,0,0.8-0.4,0.8-1.3c0-0.2,0-0.3,0-0.5s-0.1-0.3-0.1-0.4s-0.1-0.3-0.2-0.3s-0.2-0.1-0.4-0.1c-0.2,0-0.3,0-0.4,0.1
			S25,71.4,25,71.6s-0.1,0.3-0.1,0.4s0,0.3,0,0.5C24.8,73.4,25.1,73.8,25.6,73.8z"/>
		<path fill="#FFFFFF" d="M30.4,78.4c-0.2,0-0.3,0-0.4,0s-0.2,0-0.4,0s-0.3,0-0.4,0s-0.2,0-0.4-0.1s-0.3-0.1-0.4-0.1
			s-0.2-0.1-0.3-0.2S28,77.9,28,77.8s-0.1-0.2-0.1-0.3c0-0.3,0.1-0.6,0.3-0.8s0.4-0.4,0.7-0.6c-0.2,0-0.3-0.1-0.4-0.2
			s-0.2-0.2-0.2-0.3c0-0.1,0-0.1,0-0.2s0-0.1,0-0.2s0-0.1,0.1-0.2s0.1-0.1,0.1-0.2s0.1-0.1,0.1-0.2s0.1-0.1,0.1-0.1s0.1-0.1,0.1-0.1
			s0.1-0.1,0.1-0.1c-0.4-0.5-0.6-1.1-0.6-1.9c0-0.4,0.1-0.8,0.2-1.2s0.3-0.6,0.6-0.8s0.6-0.3,1-0.3c0.2,0,0.4,0,0.6,0.1
			s0.3,0.1,0.4,0.2s0.2,0.2,0.3,0.4c0.2-0.5,0.6-0.7,1.1-0.7c0,0,0,0,0,0s0,0,0,0s0,0,0,0v1c0,0,0,0-0.1,0c-0.1,0-0.2,0-0.3,0
			s-0.2,0-0.2,0s-0.2,0.1-0.2,0.1c0.1,0.1,0.1,0.3,0.2,0.5s0.1,0.4,0.1,0.6c0,0.4-0.1,0.8-0.2,1.2s-0.3,0.6-0.6,0.8s-0.6,0.3-1,0.3
			l-0.6-0.1c0,0,0,0,0,0.1s0,0.1-0.1,0.1s0,0.1,0,0.1s0,0.1,0,0.1c0,0.1,0,0.2,0.1,0.2s0.2,0.1,0.3,0.1s0.3,0,0.4,0.1s0.3,0,0.4,0
			s0.3,0,0.3,0c0.2,0,0.4,0.1,0.5,0.1s0.3,0.1,0.4,0.1s0.3,0.1,0.4,0.2s0.2,0.2,0.2,0.4s0.1,0.3,0.1,0.5c0,0.2,0,0.4-0.1,0.6
			s-0.2,0.3-0.3,0.4s-0.3,0.2-0.5,0.3s-0.4,0.1-0.6,0.2S30.6,78.4,30.4,78.4z M30.4,77.5c0.1,0,0.2,0,0.2,0s0.2,0,0.2,0s0.2,0,0.2,0
			s0.1,0,0.2-0.1s0.1-0.1,0.1-0.1s0-0.1,0-0.2c0-0.3-0.3-0.6-1-0.6l-1-0.1c-0.1,0.1-0.2,0.2-0.3,0.4S29,77,29,77.2
			c0,0.1,0,0.1,0.1,0.1s0.1,0.1,0.2,0.1s0.1,0,0.2,0s0.2,0,0.3,0s0.2,0,0.3,0s0.2,0,0.3,0S30.4,77.5,30.4,77.5z M30.1,73.8
			c0.5,0,0.8-0.4,0.8-1.3c0-0.2,0-0.3,0-0.5s-0.1-0.3-0.1-0.4s-0.1-0.3-0.2-0.3s-0.2-0.1-0.4-0.1c-0.2,0-0.3,0-0.4,0.1
			s-0.2,0.2-0.2,0.3s-0.1,0.3-0.1,0.4s0,0.3,0,0.5C29.3,73.4,29.6,73.8,30.1,73.8z"/>
		<path fill="#FFFFFF" d="M34.7,76.7c-0.3,0-0.6-0.1-0.8-0.2s-0.4-0.2-0.5-0.4s-0.2-0.4-0.3-0.6s-0.1-0.5-0.2-0.8s0-0.6-0.1-0.9
			c0-0.3,0-0.5,0-0.8c0-0.3,0-0.6,0.1-0.9s0.1-0.5,0.2-0.7s0.2-0.4,0.3-0.6s0.3-0.3,0.5-0.4s0.5-0.1,0.8-0.1c0.3,0,0.5,0,0.7,0.1
			s0.4,0.2,0.5,0.3s0.2,0.3,0.3,0.5s0.2,0.4,0.2,0.6s0.1,0.5,0.1,0.7s0,0.5,0,0.8v0.1h-2.5v0.3c0,0,0,0.1,0,0.2c0,0.1,0,0.2,0,0.4
			s0,0.3,0,0.4s0,0.2,0.1,0.4s0.1,0.2,0.1,0.3s0.1,0.2,0.2,0.2s0.2,0.1,0.3,0.1c0.1,0,0.2,0,0.3-0.1s0.1-0.1,0.2-0.2
			s0.1-0.2,0.1-0.3s0-0.2,0-0.4v-0.3h1.2v0.2c0,0.7-0.2,1.2-0.5,1.5S35.3,76.7,34.7,76.7z M34.1,72.8h1.2v-0.4c0-0.2,0-0.3,0-0.4
			s0-0.2-0.1-0.4s-0.1-0.2-0.2-0.3s-0.2-0.1-0.3-0.1c-0.1,0-0.2,0-0.3,0.1s-0.1,0.2-0.2,0.3s-0.1,0.3-0.1,0.4s0,0.3,0,0.4V72.8z"/>
		<path fill="#FFFFFF" d="M39.1,76.7c-0.5,0-0.9-0.2-1.2-0.5s-0.5-0.7-0.6-1.2l0.9-0.3c0.2,0.6,0.5,0.9,0.9,0.9
			c0.2,0,0.4-0.1,0.5-0.2s0.2-0.3,0.2-0.5c0-0.3-0.1-0.5-0.3-0.7l-1.2-0.9c-0.1-0.1-0.3-0.2-0.4-0.3s-0.2-0.2-0.3-0.3
			s-0.2-0.3-0.2-0.4s-0.1-0.3-0.1-0.5c0-0.5,0.2-0.9,0.5-1.2s0.8-0.4,1.4-0.4c0.3,0,0.5,0,0.7,0.1s0.4,0.2,0.5,0.4s0.3,0.3,0.4,0.5
			s0.2,0.4,0.2,0.6l-0.9,0.3c0-0.1-0.1-0.2-0.1-0.3s-0.1-0.2-0.2-0.3s-0.2-0.2-0.3-0.2s-0.2-0.1-0.3-0.1c-0.2,0-0.4,0.1-0.5,0.2
			s-0.2,0.3-0.2,0.5c0,0.2,0.1,0.4,0.3,0.5l1.2,0.9c0.1,0.1,0.3,0.2,0.4,0.3s0.2,0.2,0.3,0.4s0.2,0.3,0.2,0.5S41,74.8,41,75
			c0,0.5-0.2,0.9-0.5,1.2S39.7,76.7,39.1,76.7z"/>
		<path fill="#FFFFFF" d="M43.5,76.7c-0.5,0-0.8-0.1-1.1-0.4s-0.3-0.6-0.3-1.1v-3.9h-0.6v-0.9h0.6v-2.2h1.2v2.2h0.9v0.9h-0.9v3.6
			c0,0.3,0,0.4,0.1,0.6s0.2,0.2,0.4,0.2c0.1,0,0.2,0,0.4,0v1C44,76.6,43.7,76.7,43.5,76.7z"/>
		<path fill="#FFFFFF" d="M48.3,76.7c-0.3,0-0.6-0.2-0.9-0.5s-0.4-0.6-0.4-1c0-0.3,0.1-0.6,0.2-0.8s0.2-0.4,0.3-0.6s0.3-0.3,0.6-0.5
			s0.5-0.3,0.6-0.3s0.4-0.2,0.7-0.3c0.1,0,0.1,0,0.1-0.1v-0.4c0-0.3,0-0.6-0.1-0.7s-0.3-0.3-0.5-0.3c-0.2,0-0.4,0.1-0.5,0.2
			s-0.1,0.4-0.2,0.6c0,0,0,0.1,0,0.2H47c0-0.6,0.2-1.1,0.5-1.4s0.8-0.5,1.4-0.5c0.6,0,1,0.2,1.4,0.5s0.5,0.8,0.5,1.4V75
			c0,0.7,0.1,1.2,0.2,1.6h-1.2l-0.2-0.9c-0.1,0.1-0.1,0.2-0.2,0.3s-0.1,0.2-0.2,0.3s-0.2,0.2-0.2,0.2s-0.2,0.1-0.3,0.1
			S48.4,76.7,48.3,76.7z M48.9,75.6c0.1,0,0.2,0,0.3-0.1s0.1-0.1,0.2-0.2s0.1-0.1,0.2-0.2c0,0,0,0,0,0v-1.7c-0.1,0-0.1,0.1-0.3,0.2
			s-0.2,0.1-0.3,0.2s-0.2,0.1-0.3,0.2s-0.2,0.2-0.2,0.2s-0.1,0.2-0.1,0.3s-0.1,0.2-0.1,0.3C48.3,75.4,48.5,75.6,48.9,75.6z"/>
		<path fill="#FFFFFF" d="M51.9,76.6v-6.2h1.2V71c0.2-0.2,0.3-0.3,0.5-0.4s0.3-0.2,0.5-0.3s0.4-0.1,0.7-0.1c0.3,0,0.5,0.1,0.6,0.3
			s0.2,0.4,0.2,0.7v5.3h-1.2v-4.7c0-0.2,0-0.4-0.1-0.5s-0.2-0.1-0.4-0.1c-0.1,0-0.2,0-0.3,0.1s-0.2,0.1-0.2,0.1s-0.1,0.1-0.2,0.2
			v4.9H51.9z"/>
		<path fill="#FFFFFF" d="M56.8,69.4v-1.2H58v1.2H56.8z M56.8,76.6v-6.2H58v6.2H56.8z"/>
		<path fill="#FFFFFF" d="M59.2,76.6v-6.2h1.2V71c0.4-0.5,1-0.8,1.6-0.8c0.3,0,0.5,0.1,0.7,0.2s0.2,0.3,0.3,0.6
			c0.2-0.3,0.4-0.5,0.7-0.6s0.5-0.2,0.9-0.2c0.1,0,0.2,0,0.3,0s0.2,0,0.2,0.1s0.1,0.1,0.2,0.1s0.1,0.1,0.1,0.2s0.1,0.1,0.1,0.2
			s0,0.2,0,0.2s0,0.2,0,0.3s0,0.2,0,0.3s0,0.2,0,0.3c0,0,0,0.1,0,0.1v4.5h-1.2V72c0,0,0,0,0-0.1c0-0.1,0-0.2,0-0.2s0-0.1,0-0.2
			s0-0.1-0.1-0.2s-0.1-0.1-0.2-0.1c-0.1,0-0.3,0-0.4,0.1s-0.2,0.1-0.3,0.1s-0.2,0.1-0.3,0.2v4.9h-1.2V72c0,0,0,0,0-0.1
			c0-0.1,0-0.2,0-0.2s0-0.1,0-0.2s0-0.1,0-0.2s-0.1-0.1-0.1-0.1s-0.1,0-0.2,0c-0.3,0-0.6,0.1-0.9,0.4v4.9H59.2z"/>
		<path fill="#FFFFFF" d="M67.6,76.7c-0.3,0-0.6-0.2-0.9-0.5s-0.4-0.6-0.4-1c0-0.3,0.1-0.6,0.2-0.8s0.2-0.4,0.3-0.6s0.3-0.3,0.6-0.5
			s0.5-0.3,0.6-0.3s0.4-0.2,0.7-0.3c0.1,0,0.1,0,0.1-0.1v-0.4c0-0.3,0-0.6-0.1-0.7s-0.3-0.3-0.5-0.3c-0.2,0-0.4,0.1-0.5,0.2
			s-0.1,0.4-0.2,0.6c0,0,0,0.1,0,0.2h-1.2c0-0.6,0.2-1.1,0.5-1.4s0.8-0.5,1.4-0.5c0.6,0,1,0.2,1.4,0.5s0.5,0.8,0.5,1.4V75
			c0,0.7,0.1,1.2,0.2,1.6h-1.2l-0.2-0.9c-0.1,0.1-0.1,0.2-0.2,0.3s-0.1,0.2-0.2,0.3s-0.2,0.2-0.2,0.2s-0.2,0.1-0.3,0.1
			S67.8,76.7,67.6,76.7z M68.3,75.6c0.1,0,0.2,0,0.3-0.1s0.1-0.1,0.2-0.2s0.1-0.1,0.2-0.2c0,0,0,0,0,0v-1.7c-0.1,0-0.1,0.1-0.3,0.2
			s-0.2,0.1-0.3,0.2s-0.2,0.1-0.3,0.2s-0.2,0.2-0.2,0.2s-0.1,0.2-0.1,0.3s-0.1,0.2-0.1,0.3C67.6,75.4,67.9,75.6,68.3,75.6z"/>
		<path fill="#FFFFFF" d="M71.2,76.6v-8.8h1.2v8.8H71.2z"/>
		<path fill="#FFFFFF" d="M75.2,76.7c-0.5,0-0.9-0.2-1.2-0.5s-0.5-0.7-0.6-1.2l0.9-0.3c0.2,0.6,0.5,0.9,0.9,0.9
			c0.2,0,0.4-0.1,0.5-0.2s0.2-0.3,0.2-0.5c0-0.3-0.1-0.5-0.3-0.7l-1.2-0.9c-0.1-0.1-0.3-0.2-0.4-0.3s-0.2-0.2-0.3-0.3
			s-0.2-0.3-0.2-0.4s-0.1-0.3-0.1-0.5c0-0.5,0.2-0.9,0.5-1.2s0.8-0.4,1.4-0.4c0.3,0,0.5,0,0.7,0.1s0.4,0.2,0.5,0.4s0.3,0.3,0.4,0.5
			s0.2,0.4,0.2,0.6l-0.9,0.3c0-0.1-0.1-0.2-0.1-0.3s-0.1-0.2-0.2-0.3s-0.2-0.2-0.3-0.2s-0.2-0.1-0.3-0.1c-0.2,0-0.4,0.1-0.5,0.2
			s-0.2,0.3-0.2,0.5c0,0.2,0.1,0.4,0.3,0.5l1.2,0.9c0.1,0.1,0.3,0.2,0.4,0.3s0.2,0.2,0.3,0.4s0.2,0.3,0.2,0.5s0.1,0.3,0.1,0.5
			c0,0.5-0.2,0.9-0.5,1.2S75.8,76.7,75.2,76.7z"/>
		<path fill="#FFFFFF" d="M81,76.7c-0.3,0-0.6-0.2-0.9-0.5s-0.4-0.6-0.4-1c0-0.3,0.1-0.6,0.2-0.8s0.2-0.4,0.3-0.6s0.3-0.3,0.6-0.5
			s0.5-0.3,0.6-0.3s0.4-0.2,0.7-0.3c0.1,0,0.1,0,0.1-0.1v-0.4c0-0.3,0-0.6-0.1-0.7s-0.3-0.3-0.5-0.3c-0.2,0-0.4,0.1-0.5,0.2
			S81,71.8,81,72c0,0,0,0.1,0,0.2h-1.2c0-0.6,0.2-1.1,0.5-1.4s0.8-0.5,1.4-0.5c0.6,0,1,0.2,1.4,0.5s0.5,0.8,0.5,1.4V75
			c0,0.7,0.1,1.2,0.2,1.6h-1.2l-0.2-0.9c-0.1,0.1-0.1,0.2-0.2,0.3s-0.1,0.2-0.2,0.3s-0.2,0.2-0.2,0.2s-0.2,0.1-0.3,0.1
			S81.1,76.7,81,76.7z M81.6,75.6c0.1,0,0.2,0,0.3-0.1s0.1-0.1,0.2-0.2s0.1-0.1,0.2-0.2c0,0,0,0,0,0v-1.7c-0.1,0-0.1,0.1-0.3,0.2
			s-0.2,0.1-0.3,0.2s-0.2,0.1-0.3,0.2s-0.2,0.2-0.2,0.2s-0.1,0.2-0.1,0.3S81,74.7,81,74.9C81,75.4,81.2,75.6,81.6,75.6z"/>
		<path fill="#FFFFFF" d="M84.6,76.6v-6.2h1.2v0.8c0.1-0.2,0.3-0.5,0.6-0.6s0.5-0.3,0.8-0.3c0,0,0.1,0,0.2,0v1.4
			c-0.2-0.1-0.5-0.1-0.7-0.1c-0.3,0-0.5,0.1-0.6,0.2s-0.2,0.4-0.2,0.6v4.2H84.6z"/>
		<path fill="#FFFFFF" d="M89.7,76.7c-0.3,0-0.6-0.1-0.8-0.2s-0.4-0.2-0.5-0.4s-0.2-0.4-0.3-0.6s-0.1-0.5-0.2-0.8s0-0.6-0.1-0.9
			c0-0.3,0-0.5,0-0.8c0-0.3,0-0.6,0.1-0.9s0.1-0.5,0.2-0.7s0.2-0.4,0.3-0.6s0.3-0.3,0.5-0.4s0.5-0.1,0.8-0.1c0.3,0,0.5,0,0.7,0.1
			s0.4,0.2,0.5,0.3s0.2,0.3,0.3,0.5s0.2,0.4,0.2,0.6s0.1,0.5,0.1,0.7s0,0.5,0,0.8v0.1H89v0.3c0,0,0,0.1,0,0.2c0,0.1,0,0.2,0,0.4
			s0,0.3,0,0.4s0,0.2,0.1,0.4s0.1,0.2,0.1,0.3s0.1,0.2,0.2,0.2s0.2,0.1,0.3,0.1c0.1,0,0.2,0,0.3-0.1s0.1-0.1,0.2-0.2
			s0.1-0.2,0.1-0.3s0-0.2,0-0.4v-0.3h1.2v0.2c0,0.7-0.2,1.2-0.5,1.5S90.3,76.7,89.7,76.7z M89,72.8h1.2v-0.4c0-0.2,0-0.3,0-0.4
			s0-0.2-0.1-0.4s-0.1-0.2-0.2-0.3s-0.2-0.1-0.3-0.1c-0.1,0-0.2,0-0.3,0.1s-0.1,0.2-0.2,0.3s-0.1,0.3-0.1,0.4s0,0.3,0,0.4V72.8z"/>
		<path fill="#FFFFFF" d="M3.1,88.7c-0.3,0-0.5-0.1-0.7-0.2S2,88.2,1.8,88v0.6H0.6v-8.7h1.2v3.1c0.1-0.1,0.2-0.2,0.3-0.3
			s0.1-0.1,0.3-0.2s0.2-0.1,0.3-0.2s0.3-0.1,0.4-0.1c0.2,0,0.4,0,0.6,0.1s0.3,0.2,0.4,0.3s0.2,0.3,0.3,0.5s0.1,0.4,0.2,0.5
			s0.1,0.4,0.1,0.7s0,0.5,0,0.7s0,0.4,0,0.7v0.1c0,0.3,0,0.5,0,0.8s-0.1,0.5-0.2,0.8S4.3,87.8,4.2,88s-0.3,0.3-0.4,0.5
			S3.3,88.7,3.1,88.7z M2.8,87.6c0.1,0,0.2,0,0.3-0.1s0.2-0.2,0.2-0.4s0.1-0.4,0.1-0.5s0-0.4,0-0.6c0-0.2,0-0.4,0-0.7s0-0.5,0-0.7
			s0-0.3,0-0.4s0-0.2,0-0.3s-0.1-0.2-0.1-0.3S3.1,83.4,3,83.3s-0.2-0.1-0.3-0.1c-0.3,0-0.7,0.1-0.9,0.2v3.9
			C2.1,87.6,2.5,87.6,2.8,87.6z"/>
		<path fill="#FFFFFF" d="M5.7,88.6v-8.8h1.2v8.8H5.7z"/>
		<path fill="#FFFFFF" d="M8.9,88.7c-0.3,0-0.5-0.1-0.7-0.3S8,87.9,8,87.7v-5.3h1.2v4.9c0,0.1,0,0.2,0.1,0.3s0.2,0.1,0.3,0.1
			c0.1,0,0.1,0,0.2,0s0.1,0,0.2-0.1s0.1-0.1,0.1-0.1s0.1-0.1,0.2-0.1s0.1-0.1,0.1-0.1v-4.9h1.2v6.2h-1.2v-0.7
			c-0.1,0.1-0.2,0.2-0.3,0.2s-0.1,0.1-0.3,0.2s-0.2,0.1-0.3,0.2s-0.2,0.1-0.3,0.1S9.1,88.7,8.9,88.7z"/>
		<path fill="#FFFFFF" d="M14.6,88.7c-0.3,0-0.6-0.1-0.8-0.2s-0.4-0.2-0.5-0.4s-0.2-0.4-0.3-0.6s-0.1-0.5-0.2-0.8s0-0.6-0.1-0.9
			c0-0.3,0-0.5,0-0.8c0-0.3,0-0.6,0.1-0.9s0.1-0.5,0.2-0.7s0.2-0.4,0.3-0.6s0.3-0.3,0.5-0.4s0.5-0.1,0.8-0.1c0.3,0,0.5,0,0.7,0.1
			s0.4,0.2,0.5,0.3s0.2,0.3,0.3,0.5s0.2,0.4,0.2,0.6s0.1,0.5,0.1,0.7s0,0.5,0,0.8v0.1H14v0.3c0,0,0,0.1,0,0.2c0,0.1,0,0.2,0,0.4
			s0,0.3,0,0.4s0,0.2,0.1,0.4s0.1,0.2,0.1,0.3s0.1,0.2,0.2,0.2s0.2,0.1,0.3,0.1c0.1,0,0.2,0,0.3-0.1s0.1-0.1,0.2-0.2
			s0.1-0.2,0.1-0.3s0-0.2,0-0.4v-0.3h1.2v0.2c0,0.7-0.2,1.2-0.5,1.5S15.2,88.7,14.6,88.7z M14,84.8h1.2v-0.4c0-0.2,0-0.3,0-0.4
			s0-0.2-0.1-0.4s-0.1-0.2-0.2-0.3s-0.2-0.1-0.3-0.1c-0.1,0-0.2,0-0.3,0.1s-0.1,0.2-0.2,0.3S14,83.9,14,84s0,0.3,0,0.4V84.8z"/>
		<path fill="#FFFFFF" d="M20.1,88.6L19,82.3h1.1l0.7,4.7l0.7-4.7h1.1l0.7,4.7l0.7-4.7H25l-1.2,6.2h-1.2L22,84.3l-0.7,4.3H20.1z"/>
		<path fill="#FFFFFF" d="M25.7,88.6v-8.8h1.2V83c0.2-0.2,0.3-0.3,0.5-0.4s0.3-0.2,0.5-0.3s0.4-0.1,0.7-0.1c0.3,0,0.5,0.1,0.6,0.3
			s0.2,0.4,0.2,0.7v5.3h-1.2v-4.7c0-0.2,0-0.4-0.1-0.5s-0.2-0.2-0.3-0.2c-0.3,0-0.5,0.1-0.8,0.4v4.9H25.7z"/>
		<path fill="#FFFFFF" d="M31.6,88.7c-0.3,0-0.6-0.2-0.9-0.5s-0.4-0.6-0.4-1c0-0.3,0.1-0.6,0.2-0.8s0.2-0.4,0.3-0.6s0.3-0.3,0.6-0.5
			s0.5-0.3,0.6-0.3s0.4-0.2,0.7-0.3c0.1,0,0.1,0,0.1-0.1v-0.4c0-0.3,0-0.6-0.1-0.7s-0.3-0.3-0.5-0.3c-0.2,0-0.4,0.1-0.5,0.2
			s-0.1,0.4-0.2,0.6c0,0,0,0.1,0,0.2h-1.2c0-0.6,0.2-1.1,0.5-1.4s0.8-0.5,1.4-0.5c0.6,0,1,0.2,1.4,0.5s0.5,0.8,0.5,1.4V87
			c0,0.7,0.1,1.2,0.2,1.6H33l-0.2-0.9c-0.1,0.1-0.1,0.2-0.2,0.3s-0.1,0.2-0.2,0.3s-0.2,0.2-0.2,0.2s-0.2,0.1-0.3,0.1
			S31.8,88.7,31.6,88.7z M32.3,87.6c0.1,0,0.2,0,0.3-0.1s0.1-0.1,0.2-0.2s0.1-0.1,0.2-0.2c0,0,0,0,0,0v-1.7c-0.1,0-0.1,0.1-0.3,0.2
			s-0.2,0.1-0.3,0.2s-0.2,0.1-0.3,0.2s-0.2,0.2-0.2,0.2s-0.1,0.2-0.1,0.3s-0.1,0.2-0.1,0.3C31.6,87.4,31.8,87.6,32.3,87.6z"/>
		<path fill="#FFFFFF" d="M35.2,88.6v-8.8h1.2v8.8H35.2z"/>
		<path fill="#FFFFFF" d="M39.3,88.7c-0.3,0-0.6-0.1-0.8-0.2s-0.4-0.2-0.5-0.4s-0.2-0.4-0.3-0.6s-0.1-0.5-0.2-0.8s0-0.6-0.1-0.9
			c0-0.3,0-0.5,0-0.8c0-0.3,0-0.6,0.1-0.9s0.1-0.5,0.2-0.7s0.2-0.4,0.3-0.6s0.3-0.3,0.5-0.4s0.5-0.1,0.8-0.1c0.3,0,0.5,0,0.7,0.1
			s0.4,0.2,0.5,0.3s0.2,0.3,0.3,0.5s0.2,0.4,0.2,0.6s0.1,0.5,0.1,0.7s0,0.5,0,0.8v0.1h-2.5v0.3c0,0,0,0.1,0,0.2c0,0.1,0,0.2,0,0.4
			s0,0.3,0,0.4s0,0.2,0.1,0.4s0.1,0.2,0.1,0.3s0.1,0.2,0.2,0.2s0.2,0.1,0.3,0.1c0.1,0,0.2,0,0.3-0.1s0.1-0.1,0.2-0.2
			s0.1-0.2,0.1-0.3s0-0.2,0-0.4v-0.3h1.2v0.2c0,0.7-0.2,1.2-0.5,1.5S40,88.7,39.3,88.7z M38.7,84.8H40v-0.4c0-0.2,0-0.3,0-0.4
			s0-0.2-0.1-0.4s-0.1-0.2-0.2-0.3s-0.2-0.1-0.3-0.1c-0.1,0-0.2,0-0.3,0.1s-0.1,0.2-0.2,0.3s-0.1,0.3-0.1,0.4s0,0.3,0,0.4V84.8z"/>
		<path fill="#FFFFFF" d="M43.8,88.7c-0.5,0-0.9-0.2-1.2-0.5S42,87.5,41.9,87l0.9-0.3c0.2,0.6,0.5,0.9,0.9,0.9
			c0.2,0,0.4-0.1,0.5-0.2s0.2-0.3,0.2-0.5c0-0.3-0.1-0.5-0.3-0.7l-1.2-0.9c-0.1-0.1-0.3-0.2-0.4-0.3s-0.2-0.2-0.3-0.3
			S42,84.5,42,84.4s-0.1-0.3-0.1-0.5c0-0.5,0.2-0.9,0.5-1.2s0.8-0.4,1.4-0.4c0.3,0,0.5,0,0.7,0.1s0.4,0.2,0.5,0.4s0.3,0.3,0.4,0.5
			s0.2,0.4,0.2,0.6l-0.9,0.3c0-0.1-0.1-0.2-0.1-0.3s-0.1-0.2-0.2-0.3s-0.2-0.2-0.3-0.2s-0.2-0.1-0.3-0.1c-0.2,0-0.4,0.1-0.5,0.2
			s-0.2,0.3-0.2,0.5c0,0.2,0.1,0.4,0.3,0.5l1.2,0.9c0.1,0.1,0.3,0.2,0.4,0.3s0.2,0.2,0.3,0.4s0.2,0.3,0.2,0.5s0.1,0.3,0.1,0.5
			c0,0.5-0.2,0.9-0.5,1.2S44.3,88.7,43.8,88.7z"/>
		<path fill="#FFFFFF" d="M46.1,88.6v-1.2h1.2v1.2H46.1z"/>
		<path fill="#FFFFFF" d="M51.3,88.6v-7.6h-1.6v-1.1h4.4v1.1h-1.6v7.6H51.3z"/>
		<path fill="#FFFFFF" d="M54.7,88.6v-8.8h1.2V83c0.2-0.2,0.3-0.3,0.5-0.4s0.3-0.2,0.5-0.3s0.4-0.1,0.7-0.1c0.3,0,0.5,0.1,0.6,0.3
			s0.2,0.4,0.2,0.7v5.3h-1.2v-4.7c0-0.2,0-0.4-0.1-0.5s-0.2-0.2-0.3-0.2c-0.3,0-0.5,0.1-0.8,0.4v4.9H54.7z"/>
		<path fill="#FFFFFF" d="M61.3,88.7c-0.3,0-0.6-0.1-0.8-0.2s-0.4-0.2-0.5-0.4s-0.2-0.4-0.3-0.6s-0.1-0.5-0.2-0.8s0-0.6-0.1-0.9
			c0-0.3,0-0.5,0-0.8c0-0.3,0-0.6,0.1-0.9s0.1-0.5,0.2-0.7s0.2-0.4,0.3-0.6s0.3-0.3,0.5-0.4s0.5-0.1,0.8-0.1c0.3,0,0.5,0,0.7,0.1
			s0.4,0.2,0.5,0.3s0.2,0.3,0.3,0.5s0.2,0.4,0.2,0.6s0.1,0.5,0.1,0.7s0,0.5,0,0.8v0.1h-2.5v0.3c0,0,0,0.1,0,0.2c0,0.1,0,0.2,0,0.4
			s0,0.3,0,0.4s0,0.2,0.1,0.4s0.1,0.2,0.1,0.3s0.1,0.2,0.2,0.2s0.2,0.1,0.3,0.1c0.1,0,0.2,0,0.3-0.1s0.1-0.1,0.2-0.2
			s0.1-0.2,0.1-0.3s0-0.2,0-0.4v-0.3h1.2v0.2c0,0.7-0.2,1.2-0.5,1.5S61.9,88.7,61.3,88.7z M60.7,84.8h1.2v-0.4c0-0.2,0-0.3,0-0.4
			s0-0.2-0.1-0.4s-0.1-0.2-0.2-0.3s-0.2-0.1-0.3-0.1c-0.1,0-0.2,0-0.3,0.1s-0.1,0.2-0.2,0.3s-0.1,0.3-0.1,0.4s0,0.3,0,0.4V84.8z"/>
		<path fill="#FFFFFF" d="M66.1,88.6v-8.8h1.2V83c0.2-0.2,0.3-0.3,0.5-0.4s0.3-0.2,0.5-0.3s0.4-0.1,0.7-0.1c0.3,0,0.5,0.1,0.6,0.3
			s0.2,0.4,0.2,0.7v5.3h-1.2v-4.7c0-0.2,0-0.4-0.1-0.5s-0.2-0.2-0.3-0.2c-0.3,0-0.5,0.1-0.8,0.4v4.9H66.1z"/>
		<path fill="#FFFFFF" d="M72.7,88.7c-0.3,0-0.6-0.1-0.8-0.2s-0.4-0.2-0.5-0.4s-0.2-0.4-0.3-0.6s-0.1-0.5-0.2-0.8s0-0.6-0.1-0.9
			c0-0.3,0-0.5,0-0.8c0-0.3,0-0.6,0.1-0.9s0.1-0.5,0.2-0.7s0.2-0.4,0.3-0.6s0.3-0.3,0.5-0.4s0.5-0.1,0.8-0.1c0.3,0,0.5,0,0.7,0.1
			s0.4,0.2,0.5,0.3s0.2,0.3,0.3,0.5s0.2,0.4,0.2,0.6s0.1,0.5,0.1,0.7s0,0.5,0,0.8v0.1h-2.5v0.3c0,0,0,0.1,0,0.2c0,0.1,0,0.2,0,0.4
			s0,0.3,0,0.4s0,0.2,0.1,0.4s0.1,0.2,0.1,0.3s0.1,0.2,0.2,0.2s0.2,0.1,0.3,0.1c0.1,0,0.2,0,0.3-0.1s0.1-0.1,0.2-0.2
			s0.1-0.2,0.1-0.3s0-0.2,0-0.4v-0.3h1.2v0.2c0,0.7-0.2,1.2-0.5,1.5S73.3,88.7,72.7,88.7z M72.1,84.8h1.2v-0.4c0-0.2,0-0.3,0-0.4
			s0-0.2-0.1-0.4s-0.1-0.2-0.2-0.3s-0.2-0.1-0.3-0.1c-0.1,0-0.2,0-0.3,0.1s-0.1,0.2-0.2,0.3s-0.1,0.3-0.1,0.4s0,0.3,0,0.4V84.8z"/>
		<path fill="#FFFFFF" d="M76.6,88.7c-0.3,0-0.6-0.2-0.9-0.5s-0.4-0.6-0.4-1c0-0.3,0.1-0.6,0.2-0.8s0.2-0.4,0.3-0.6s0.3-0.3,0.6-0.5
			s0.5-0.3,0.6-0.3s0.4-0.2,0.7-0.3c0.1,0,0.1,0,0.1-0.1v-0.4c0-0.3,0-0.6-0.1-0.7s-0.3-0.3-0.5-0.3c-0.2,0-0.4,0.1-0.5,0.2
			s-0.1,0.4-0.2,0.6c0,0,0,0.1,0,0.2h-1.2c0-0.6,0.2-1.1,0.5-1.4s0.8-0.5,1.4-0.5c0.6,0,1,0.2,1.4,0.5s0.5,0.8,0.5,1.4V87
			c0,0.7,0.1,1.2,0.2,1.6H78l-0.2-0.9c-0.1,0.1-0.1,0.2-0.2,0.3s-0.1,0.2-0.2,0.3s-0.2,0.2-0.2,0.2s-0.2,0.1-0.3,0.1
			S76.7,88.7,76.6,88.7z M77.2,87.6c0.1,0,0.2,0,0.3-0.1s0.1-0.1,0.2-0.2s0.1-0.1,0.2-0.2c0,0,0,0,0,0v-1.7c-0.1,0-0.1,0.1-0.3,0.2
			s-0.2,0.1-0.3,0.2S77.1,85.9,77,86s-0.2,0.2-0.2,0.2s-0.1,0.2-0.1,0.3s-0.1,0.2-0.1,0.3C76.6,87.4,76.8,87.6,77.2,87.6z"/>
		<path fill="#FFFFFF" d="M81.1,88.6l-1.4-6.2h1.2l0.9,4.7l0.8-4.7h1.2l-1.4,6.2H81.1z"/>
		<path fill="#FFFFFF" d="M84.5,81.4v-1.2h1.2v1.2H84.5z M84.5,88.6v-6.2h1.2v6.2H84.5z"/>
		<path fill="#FFFFFF" d="M88.7,88.7c-0.3,0-0.6-0.1-0.8-0.2s-0.4-0.2-0.5-0.4s-0.2-0.4-0.3-0.6s-0.1-0.5-0.2-0.8s0-0.6-0.1-0.9
			c0-0.3,0-0.5,0-0.8c0-0.3,0-0.6,0.1-0.9s0.1-0.5,0.2-0.7s0.2-0.4,0.3-0.6s0.3-0.3,0.5-0.4s0.5-0.1,0.8-0.1c0.3,0,0.5,0,0.7,0.1
			s0.4,0.2,0.5,0.3s0.2,0.3,0.3,0.5s0.2,0.4,0.2,0.6s0.1,0.5,0.1,0.7s0,0.5,0,0.8v0.1h-2.5v0.3c0,0,0,0.1,0,0.2c0,0.1,0,0.2,0,0.4
			s0,0.3,0,0.4s0,0.2,0.1,0.4s0.1,0.2,0.1,0.3s0.1,0.2,0.2,0.2s0.2,0.1,0.3,0.1c0.1,0,0.2,0,0.3-0.1s0.1-0.1,0.2-0.2
			s0.1-0.2,0.1-0.3s0-0.2,0-0.4v-0.3h1.2v0.2c0,0.7-0.2,1.2-0.5,1.5S89.3,88.7,88.7,88.7z M88.1,84.8h1.2v-0.4c0-0.2,0-0.3,0-0.4
			s0-0.2-0.1-0.4s-0.1-0.2-0.2-0.3s-0.2-0.1-0.3-0.1c-0.1,0-0.2,0-0.3,0.1s-0.1,0.2-0.2,0.3s-0.1,0.3-0.1,0.4s0,0.3,0,0.4V84.8z"/>
		<path fill="#FFFFFF" d="M93.1,88.7c-0.5,0-0.9-0.2-1.2-0.5s-0.5-0.7-0.6-1.2l0.9-0.3c0.2,0.6,0.5,0.9,0.9,0.9
			c0.2,0,0.4-0.1,0.5-0.2s0.2-0.3,0.2-0.5c0-0.3-0.1-0.5-0.3-0.7l-1.2-0.9c-0.1-0.1-0.3-0.2-0.4-0.3s-0.2-0.2-0.3-0.3
			s-0.2-0.3-0.2-0.4s-0.1-0.3-0.1-0.5c0-0.5,0.2-0.9,0.5-1.2s0.8-0.4,1.4-0.4c0.3,0,0.5,0,0.7,0.1s0.4,0.2,0.5,0.4s0.3,0.3,0.4,0.5
			s0.2,0.4,0.2,0.6l-0.9,0.3c0-0.1-0.1-0.2-0.1-0.3s-0.1-0.2-0.2-0.3s-0.2-0.2-0.3-0.2s-0.2-0.1-0.3-0.1c-0.2,0-0.4,0.1-0.5,0.2
			s-0.2,0.3-0.2,0.5c0,0.2,0.1,0.4,0.3,0.5l1.2,0.9c0.1,0.1,0.3,0.2,0.4,0.3s0.2,0.2,0.3,0.4s0.2,0.3,0.2,0.5S95,86.8,95,87
			c0,0.5-0.2,0.9-0.5,1.2S93.7,88.7,93.1,88.7z"/>
		<path fill="#FFFFFF" d="M97.5,88.7c-0.5,0-0.8-0.1-1.1-0.4s-0.3-0.6-0.3-1.1v-3.9h-0.6v-0.9h0.6v-2.2h1.2v2.2h0.9v0.9h-0.9v3.6
			c0,0.3,0,0.4,0.1,0.6s0.2,0.2,0.4,0.2c0.1,0,0.2,0,0.4,0v1C97.9,88.6,97.7,88.7,97.5,88.7z"/>
		<path fill="#FFFFFF" d="M1.3,100.6l-1.2-6.2h1.1l0.7,4.7l0.7-4.7h1.1L4.4,99L5,94.3h1.1L5,100.6H3.8l-0.7-4.3l-0.7,4.3H1.3z"/>
		<path fill="#FFFFFF" d="M8.5,100.7c-0.3,0-0.6-0.1-0.8-0.2s-0.4-0.2-0.5-0.4c-0.1-0.2-0.2-0.4-0.3-0.6c-0.1-0.3-0.1-0.5-0.2-0.8
			c0-0.3,0-0.6-0.1-0.9c0-0.3,0-0.5,0-0.8c0-0.3,0-0.6,0.1-0.9c0-0.3,0.1-0.5,0.2-0.7s0.2-0.4,0.3-0.6s0.3-0.3,0.5-0.4
			c0.2-0.1,0.5-0.1,0.8-0.1c0.3,0,0.5,0,0.7,0.1c0.2,0.1,0.4,0.2,0.5,0.3c0.1,0.1,0.2,0.3,0.3,0.5s0.2,0.4,0.2,0.6
			c0,0.2,0.1,0.5,0.1,0.7s0,0.5,0,0.8v0.1H7.9v0.3c0,0,0,0.1,0,0.2c0,0.1,0,0.2,0,0.4c0,0.1,0,0.3,0,0.4s0,0.2,0.1,0.4
			c0,0.1,0.1,0.2,0.1,0.3s0.1,0.2,0.2,0.2s0.2,0.1,0.3,0.1c0.1,0,0.2,0,0.3-0.1C8.9,99.5,9,99.4,9,99.3s0.1-0.2,0.1-0.3s0-0.2,0-0.4
			v-0.3h1.2v0.2c0,0.7-0.2,1.2-0.5,1.5S9.1,100.7,8.5,100.7z M7.9,96.8h1.2v-0.4c0-0.2,0-0.3,0-0.4s0-0.2-0.1-0.4s-0.1-0.2-0.2-0.3
			s-0.2-0.1-0.3-0.1c-0.1,0-0.2,0-0.3,0.1S8.1,95.5,8,95.7c0,0.1-0.1,0.3-0.1,0.4s0,0.3,0,0.4V96.8z"/>
		<path fill="#FFFFFF" d="M11.4,93.4v-1.2h1.2v1.2H11.4z M11.4,100.6v-6.2h1.2v6.2H11.4z"/>
		<path fill="#FFFFFF" d="M15.8,102.4c-0.2,0-0.3,0-0.4,0c-0.1,0-0.2,0-0.4,0s-0.3,0-0.4,0c-0.1,0-0.2,0-0.4-0.1
			c-0.1,0-0.3-0.1-0.4-0.1s-0.2-0.1-0.3-0.2s-0.2-0.1-0.2-0.2c0-0.1-0.1-0.2-0.1-0.3c0-0.3,0.1-0.6,0.3-0.8s0.4-0.4,0.7-0.6
			c-0.2,0-0.3-0.1-0.4-0.2c-0.1-0.1-0.2-0.2-0.2-0.3c0-0.1,0-0.1,0-0.2s0-0.1,0-0.2c0-0.1,0-0.1,0.1-0.2s0.1-0.1,0.1-0.2
			c0,0,0.1-0.1,0.1-0.2c0-0.1,0.1-0.1,0.1-0.1c0,0,0.1-0.1,0.1-0.1c0.1-0.1,0.1-0.1,0.1-0.1c-0.4-0.5-0.6-1.1-0.6-1.9
			c0-0.4,0.1-0.8,0.2-1.2s0.3-0.6,0.6-0.8c0.3-0.2,0.6-0.3,1-0.3c0.2,0,0.4,0,0.6,0.1s0.3,0.1,0.4,0.2c0.1,0.1,0.2,0.2,0.3,0.4
			c0.2-0.5,0.6-0.7,1.1-0.7c0,0,0,0,0,0s0,0,0,0s0,0,0,0v1c0,0,0,0-0.1,0c-0.1,0-0.2,0-0.3,0s-0.2,0-0.2,0c-0.1,0-0.2,0.1-0.2,0.1
			c0.1,0.1,0.1,0.3,0.2,0.5c0,0.2,0.1,0.4,0.1,0.6c0,0.4-0.1,0.8-0.2,1.2s-0.3,0.6-0.6,0.8s-0.6,0.3-1,0.3l-0.6-0.1c0,0,0,0,0,0.1
			c0,0,0,0.1-0.1,0.1s0,0.1,0,0.1c0,0,0,0.1,0,0.1c0,0.1,0,0.2,0.1,0.2s0.2,0.1,0.3,0.1c0.1,0,0.3,0,0.4,0.1s0.3,0,0.4,0
			c0.2,0,0.3,0,0.3,0c0.2,0,0.4,0.1,0.5,0.1c0.1,0,0.3,0.1,0.4,0.1s0.3,0.1,0.4,0.2s0.2,0.2,0.2,0.4s0.1,0.3,0.1,0.5
			c0,0.2,0,0.4-0.1,0.6s-0.2,0.3-0.3,0.4s-0.3,0.2-0.5,0.3c-0.2,0.1-0.4,0.1-0.6,0.2S16,102.4,15.8,102.4z M15.8,101.5
			c0.1,0,0.2,0,0.2,0s0.2,0,0.2,0s0.2,0,0.2,0c0.1,0,0.1,0,0.2-0.1s0.1-0.1,0.1-0.1c0-0.1,0-0.1,0-0.2c0-0.3-0.3-0.6-1-0.6l-1-0.1
			c-0.1,0.1-0.2,0.2-0.3,0.4s-0.1,0.4-0.1,0.5c0,0.1,0,0.1,0.1,0.1c0,0,0.1,0.1,0.2,0.1s0.1,0,0.2,0s0.2,0,0.3,0s0.2,0,0.3,0
			s0.2,0,0.3,0S15.7,101.5,15.8,101.5z M15.5,97.8c0.5,0,0.8-0.4,0.8-1.3c0-0.2,0-0.3,0-0.5c0-0.2-0.1-0.3-0.1-0.4
			c-0.1-0.1-0.1-0.3-0.2-0.3c-0.1-0.1-0.2-0.1-0.4-0.1c-0.2,0-0.3,0-0.4,0.1c-0.1,0.1-0.2,0.2-0.2,0.3c-0.1,0.1-0.1,0.3-0.1,0.4
			c0,0.2,0,0.3,0,0.5C14.7,97.4,14.9,97.8,15.5,97.8z"/>
		<path fill="#FFFFFF" d="M18.3,100.6v-8.8h1.2V95c0.2-0.2,0.3-0.3,0.5-0.4c0.1-0.1,0.3-0.2,0.5-0.3c0.2-0.1,0.4-0.1,0.7-0.1
			c0.3,0,0.5,0.1,0.6,0.3s0.2,0.4,0.2,0.7v5.3h-1.2v-4.7c0-0.2,0-0.4-0.1-0.5s-0.2-0.2-0.3-0.2c-0.3,0-0.5,0.1-0.8,0.4v4.9H18.3z"/>
		<path fill="#FFFFFF" d="M24.9,100.7c-0.3,0-0.6-0.1-0.8-0.2s-0.4-0.2-0.5-0.4c-0.1-0.2-0.2-0.4-0.3-0.6c-0.1-0.3-0.1-0.5-0.2-0.8
			c0-0.3,0-0.6-0.1-0.9c0-0.3,0-0.5,0-0.8c0-0.3,0-0.6,0.1-0.9c0-0.3,0.1-0.5,0.2-0.7s0.2-0.4,0.3-0.6s0.3-0.3,0.5-0.4
			c0.2-0.1,0.5-0.1,0.8-0.1c0.3,0,0.5,0,0.7,0.1c0.2,0.1,0.4,0.2,0.5,0.3c0.1,0.1,0.2,0.3,0.3,0.5s0.2,0.4,0.2,0.6
			c0,0.2,0.1,0.5,0.1,0.7s0,0.5,0,0.8v0.1h-2.5v0.3c0,0,0,0.1,0,0.2c0,0.1,0,0.2,0,0.4c0,0.1,0,0.3,0,0.4s0,0.2,0.1,0.4
			c0,0.1,0.1,0.2,0.1,0.3s0.1,0.2,0.2,0.2s0.2,0.1,0.3,0.1c0.1,0,0.2,0,0.3-0.1c0.1-0.1,0.1-0.1,0.2-0.2s0.1-0.2,0.1-0.3
			s0-0.2,0-0.4v-0.3h1.2v0.2c0,0.7-0.2,1.2-0.5,1.5S25.5,100.7,24.9,100.7z M24.3,96.8h1.2v-0.4c0-0.2,0-0.3,0-0.4s0-0.2-0.1-0.4
			s-0.1-0.2-0.2-0.3s-0.2-0.1-0.3-0.1c-0.1,0-0.2,0-0.3,0.1s-0.1,0.2-0.2,0.3c0,0.1-0.1,0.3-0.1,0.4s0,0.3,0,0.4V96.8z"/>
		<path fill="#FFFFFF" d="M29.2,100.7c-0.3,0-0.5-0.1-0.7-0.2s-0.4-0.4-0.5-0.6s-0.2-0.5-0.3-0.8c-0.1-0.3-0.1-0.6-0.1-0.9
			c0-0.2,0-0.5,0-1.1c0-0.2,0-0.4,0-0.6c0-0.2,0-0.4,0.1-0.5s0.1-0.4,0.1-0.5c0-0.1,0.1-0.3,0.2-0.4c0.1-0.1,0.2-0.2,0.3-0.3
			s0.2-0.2,0.4-0.2s0.3-0.1,0.5-0.1c0.1,0,0.3,0,0.4,0.1c0.1,0,0.2,0.1,0.3,0.2c0.1,0.1,0.2,0.2,0.3,0.2s0.2,0.2,0.3,0.3v-3.1h1.2
			v8.7h-1.2V100c-0.2,0.2-0.4,0.4-0.6,0.5S29.4,100.7,29.2,100.7z M29.5,99.6c0.3,0,0.6-0.1,0.9-0.2v-3.9c-0.3-0.2-0.6-0.2-0.9-0.2
			c-0.1,0-0.2,0-0.3,0.1c-0.1,0.1-0.1,0.1-0.2,0.3c0,0.1-0.1,0.2-0.1,0.4c0,0.1,0,0.3,0,0.4c0,0.7,0,1.3,0,1.7c0,0.2,0,0.4,0,0.6
			s0.1,0.3,0.1,0.5c0,0.2,0.1,0.3,0.2,0.3S29.4,99.6,29.5,99.6z"/>
		<path fill="#FFFFFF" d="M34.9,93.4v-1.2h1.2v1.2H34.9z M34.9,100.6v-6.2h1.2v6.2H34.9z"/>
		<path fill="#FFFFFF" d="M39,100.7c-0.5,0-0.9-0.2-1.2-0.5s-0.5-0.7-0.6-1.2l0.9-0.3c0.2,0.6,0.5,0.9,0.9,0.9
			c0.2,0,0.4-0.1,0.5-0.2c0.1-0.1,0.2-0.3,0.2-0.5c0-0.3-0.1-0.5-0.3-0.7l-1.2-0.9c-0.1-0.1-0.3-0.2-0.4-0.3
			c-0.1-0.1-0.2-0.2-0.3-0.3s-0.2-0.3-0.2-0.4s-0.1-0.3-0.1-0.5c0-0.5,0.2-0.9,0.5-1.2s0.8-0.4,1.4-0.4c0.3,0,0.5,0,0.7,0.1
			c0.2,0.1,0.4,0.2,0.5,0.4s0.3,0.3,0.4,0.5c0.1,0.2,0.2,0.4,0.2,0.6L40,96.2c0-0.1-0.1-0.2-0.1-0.3c0-0.1-0.1-0.2-0.2-0.3
			s-0.2-0.2-0.3-0.2c-0.1-0.1-0.2-0.1-0.3-0.1c-0.2,0-0.4,0.1-0.5,0.2c-0.1,0.1-0.2,0.3-0.2,0.5c0,0.2,0.1,0.4,0.3,0.5l1.2,0.9
			c0.1,0.1,0.3,0.2,0.4,0.3c0.1,0.1,0.2,0.2,0.3,0.4c0.1,0.1,0.2,0.3,0.2,0.5s0.1,0.3,0.1,0.5c0,0.5-0.2,0.9-0.5,1.2
			S39.6,100.7,39,100.7z"/>
		<path fill="#FFFFFF" d="M44.4,100.6v-6.9h-0.9v-0.9c0.6-0.2,1-0.5,1.2-0.9h0.9v8.8H44.4z"/>
		<path fill="#FFFFFF" d="M48.9,100.7c-0.7,0-1.2-0.2-1.6-0.6c-0.4-0.4-0.6-1-0.6-1.7h1.2c0,0.4,0.1,0.7,0.2,0.9s0.4,0.3,0.7,0.3
			c0.6,0,0.9-0.6,0.9-1.9v-1.2c-0.2,0.4-0.7,0.6-1.2,0.6c-0.4,0-0.7-0.1-0.9-0.2c-0.2-0.1-0.4-0.3-0.6-0.5c-0.1-0.2-0.2-0.5-0.3-0.8
			s-0.1-0.6-0.1-1c0-0.4,0-0.8,0.1-1.1c0.1-0.3,0.2-0.6,0.4-0.9s0.4-0.5,0.7-0.6c0.3-0.2,0.6-0.2,1-0.2c0.3,0,0.6,0,0.8,0.2
			s0.5,0.2,0.6,0.4s0.3,0.4,0.4,0.6c0.1,0.2,0.2,0.5,0.3,0.8c0.1,0.3,0.1,0.6,0.1,0.9v2.8c0,0.4,0,0.7-0.1,1c0,0.3-0.1,0.6-0.2,0.9
			c-0.1,0.3-0.2,0.5-0.4,0.7s-0.4,0.4-0.6,0.5S49.2,100.7,48.9,100.7z M48.9,96.2c0.4,0,0.7-0.2,0.9-0.6v-1.2c0-0.2,0-0.4,0-0.6
			s-0.1-0.3-0.1-0.5s-0.2-0.3-0.3-0.4s-0.3-0.1-0.5-0.1s-0.3,0-0.5,0.1s-0.2,0.2-0.3,0.4S48,93.6,48,93.8c0,0.2,0,0.4,0,0.6
			c0,0.1,0,0.2,0,0.3c0,0.1,0,0.2,0,0.3s0,0.2,0,0.3c0,0.1,0,0.1,0,0.2s0,0.2,0.1,0.2c0,0.1,0.1,0.1,0.1,0.2c0,0.1,0.1,0.1,0.1,0.2
			s0.1,0.1,0.2,0.1s0.1,0.1,0.2,0.1S48.8,96.2,48.9,96.2z"/>
		<path fill="#FFFFFF" d="M54.2,100.7c-0.5,0-0.9-0.1-1.2-0.3s-0.6-0.5-0.7-0.9C52.1,99,52,98.6,52,98.1v-3.8c0-0.8,0.2-1.4,0.5-1.9
			c0.4-0.5,0.9-0.7,1.6-0.7c0.7,0,1.3,0.2,1.6,0.7s0.5,1.1,0.5,1.9v3.8c0,0.8-0.2,1.4-0.6,1.9C55.4,100.4,54.9,100.7,54.2,100.7z
			 M54.2,99.6c0.6,0,0.9-0.5,0.9-1.6v-3.8c0-0.2,0-0.3,0-0.5c0-0.1,0-0.3-0.1-0.4c0-0.1-0.1-0.3-0.2-0.4s-0.2-0.2-0.3-0.2
			s-0.2-0.1-0.4-0.1s-0.3,0-0.4,0.1s-0.2,0.1-0.3,0.2s-0.1,0.2-0.2,0.4c0,0.1-0.1,0.3-0.1,0.4c0,0.1,0,0.3,0,0.5v3.8
			c0,0.2,0,0.4,0,0.6s0.1,0.3,0.1,0.5s0.2,0.3,0.3,0.4C53.8,99.6,54,99.6,54.2,99.6z"/>
		<path fill="#FFFFFF" d="M59.4,100.6v-8.8h1.2v8.8H59.4z"/>
		<path fill="#FFFFFF" d="M64.3,100.7c-0.3,0-0.5-0.1-0.7-0.2s-0.4-0.3-0.6-0.5v0.6h-1.2v-8.7h1.2v3.1c0.1-0.1,0.2-0.2,0.3-0.3
			s0.1-0.1,0.3-0.2s0.2-0.1,0.3-0.2c0.1,0,0.3-0.1,0.4-0.1c0.2,0,0.4,0,0.6,0.1c0.2,0.1,0.3,0.2,0.4,0.3s0.2,0.3,0.3,0.5
			s0.1,0.4,0.2,0.5s0.1,0.4,0.1,0.7s0,0.5,0,0.7c0,0.2,0,0.4,0,0.7v0.1c0,0.3,0,0.5,0,0.8s-0.1,0.5-0.2,0.8s-0.2,0.5-0.3,0.7
			s-0.3,0.3-0.4,0.5C64.8,100.6,64.5,100.7,64.3,100.7z M64,99.6c0.1,0,0.2,0,0.3-0.1s0.2-0.2,0.2-0.4c0-0.2,0.1-0.4,0.1-0.5
			s0-0.4,0-0.6c0-0.2,0-0.4,0-0.7s0-0.5,0-0.7s0-0.3,0-0.4c0-0.1,0-0.2,0-0.3s-0.1-0.2-0.1-0.3s-0.1-0.1-0.2-0.2
			c-0.1,0-0.2-0.1-0.3-0.1c-0.3,0-0.7,0.1-0.9,0.2v3.9C63.4,99.6,63.7,99.6,64,99.6z"/>
		<path fill="#FFFFFF" d="M68.5,100.7c-0.5,0-0.9-0.2-1.2-0.5s-0.5-0.7-0.6-1.2l0.9-0.3c0.2,0.6,0.5,0.9,0.9,0.9
			c0.2,0,0.4-0.1,0.5-0.2c0.1-0.1,0.2-0.3,0.2-0.5c0-0.3-0.1-0.5-0.3-0.7l-1.2-0.9c-0.1-0.1-0.3-0.2-0.4-0.3
			c-0.1-0.1-0.2-0.2-0.3-0.3s-0.2-0.3-0.2-0.4s-0.1-0.3-0.1-0.5c0-0.5,0.2-0.9,0.5-1.2s0.8-0.4,1.4-0.4c0.3,0,0.5,0,0.7,0.1
			c0.2,0.1,0.4,0.2,0.5,0.4s0.3,0.3,0.4,0.5c0.1,0.2,0.2,0.4,0.2,0.6l-0.9,0.3c0-0.1-0.1-0.2-0.1-0.3c0-0.1-0.1-0.2-0.2-0.3
			s-0.2-0.2-0.3-0.2c-0.1-0.1-0.2-0.1-0.3-0.1c-0.2,0-0.4,0.1-0.5,0.2c-0.1,0.1-0.2,0.3-0.2,0.5c0,0.2,0.1,0.4,0.3,0.5l1.2,0.9
			c0.1,0.1,0.3,0.2,0.4,0.3c0.1,0.1,0.2,0.2,0.3,0.4c0.1,0.1,0.2,0.3,0.2,0.5s0.1,0.3,0.1,0.5c0,0.5-0.2,0.9-0.5,1.2
			S69.1,100.7,68.5,100.7z"/>
		<path fill="#FFFFFF" d="M70.9,100.6v-1.2h1.2v1.2H70.9z"/>
	</g>
	<g>
	</g>
	<g>
	</g>
	<g>
	</g>
	<g>
	</g>
	<g>
	</g>
	<g>
	</g>
</g>
</svg>
